<svg width="1088" height="292" viewBox="0 0 1088 292" fill="none" xmlns="http://www.w3.org/2000/svg">
<g filter="url(#filter0_d)">
<path d="M64.8009 110.723L958.201 51.0859L919.107 155.664L18.1797 204.035L64.8009 110.723Z" fill="#DD1010"/>
<path d="M64.6011 107.729L62.8856 107.844L62.1172 109.382L15.4961 202.694L13.1913 207.307L18.3406 207.03L919.268 158.66L921.229 158.555L921.917 156.715L961.011 52.1363L962.638 47.783L958.001 48.0925L64.6011 107.729Z" stroke="#F7D431" stroke-width="6"/>
</g>
<g filter="url(#filter1_d)">
<path d="M65.8814 179.188L701.986 168.014L685.55 247.407L31.2454 245.979L65.8814 179.188Z" fill="white"/>
</g>
<g filter="url(#filter2_d)">
<path d="M151.268 126.111C150.565 126.142 150.578 126.449 150.504 126.761L145.709 155.375C145.677 155.641 145.64 155.818 145.648 155.994C145.667 156.434 145.891 156.512 146.33 156.493L153.539 156.181C157.1 156.027 161.129 155.5 163.805 152.213C165.059 150.661 165.933 148.466 165.832 146.136C165.701 143.103 164.016 140.797 161.472 140.027C162.508 139.541 163.794 138.737 164.725 137.86C166.205 136.431 167.178 134.495 167.071 132.033C166.792 125.571 160.456 125.713 158.697 125.789L151.268 126.111ZM154.229 138.535L155.591 130.328L157.701 130.237C158.932 130.183 161.262 130.082 161.387 132.984C161.441 134.215 161.142 135.461 160.477 136.37C159.272 138.052 157.35 138.399 155.855 138.464L154.229 138.535ZM151.986 151.844L153.496 142.97L155.958 142.864C157.32 142.805 159.744 142.832 159.887 146.129C159.97 148.063 159.274 149.282 158.73 149.923C157.389 151.522 155.459 151.694 153.789 151.766L151.986 151.844ZM175.566 125.059C174.863 125.089 174.876 125.397 174.801 125.709L170.051 154.321C170.018 154.587 169.982 154.764 169.989 154.94C170.009 155.38 170.232 155.458 170.672 155.439L178.496 155.1C181.617 154.965 185.555 154.354 188.105 151.205C189.735 149.196 190.443 146.215 190.335 143.709C190.211 140.852 188.91 139.279 188.04 138.524C185.934 136.677 183.249 136.705 181.447 136.783L178.677 136.903L180.451 125.992C180.483 125.727 180.52 125.549 180.512 125.373C180.493 124.934 180.27 124.855 179.83 124.874L175.566 125.059ZM176.401 150.435L177.872 141.695L179.85 141.609C181.081 141.556 184.284 141.285 184.44 144.89C184.493 146.12 184.155 147.456 183.36 148.416C181.98 150.105 179.785 150.288 178.291 150.353L176.401 150.435ZM198.029 124.086C197.326 124.117 197.339 124.424 197.264 124.736L192.47 153.35C192.437 153.616 192.401 153.793 192.408 153.969C192.428 154.409 192.651 154.487 193.091 154.468L197.355 154.284C198.058 154.253 198.045 153.945 198.119 153.634L202.914 125.02C202.946 124.754 202.983 124.576 202.975 124.4C202.956 123.961 202.732 123.882 202.293 123.902L198.029 124.086ZM211.069 123.521C210.366 123.552 210.379 123.86 210.304 124.171L205.51 152.785C205.477 153.051 205.441 153.229 205.448 153.405C205.467 153.844 205.691 153.923 206.131 153.904L213.955 153.565C217.076 153.43 221.014 152.819 223.564 149.669C225.194 147.661 225.902 144.68 225.796 142.218C225.664 139.185 224.159 134.934 216.906 135.248L214.136 135.368L215.332 128.402L224.519 128.004C224.783 127.992 225.181 128.019 225.418 127.392L226.846 123.763C226.926 123.584 227.009 123.448 226.999 123.228C226.98 122.788 226.542 122.851 226.235 122.865L211.069 123.521ZM211.86 148.899L213.331 140.159L216.056 140.041C218.87 139.919 219.819 141.508 219.901 143.398C219.952 144.585 219.614 145.921 218.819 146.88C217.438 148.569 215.244 148.752 213.75 148.817L211.86 148.899ZM235.495 122.464C234.792 122.494 234.805 122.802 234.731 123.113L229.936 151.728C229.903 151.993 229.867 152.171 229.875 152.347C229.894 152.786 230.117 152.865 230.557 152.846L245.151 152.214C245.855 152.183 245.841 151.876 245.916 151.564L246.511 148.015C246.578 147.528 245.919 147.556 245.743 147.564L236.292 147.973L237.755 139.058L245.316 138.73C245.888 138.705 245.974 138.658 246.081 138.08L246.601 134.843C246.634 134.577 246.743 134.044 245.995 134.076L238.566 134.398L239.827 126.9L248.443 126.527C248.751 126.514 249.06 126.545 249.342 125.916L250.789 122.726C250.867 122.503 250.949 122.367 250.942 122.191C250.923 121.752 250.485 121.815 250.177 121.828L235.495 122.464ZM259.063 121.443C258.36 121.474 258.373 121.781 258.298 122.093L253.504 150.707C253.471 150.973 253.435 151.15 253.443 151.326C253.462 151.766 253.685 151.844 254.125 151.825L258.389 151.641C259.092 151.61 259.079 151.302 259.153 150.991L261.076 139.457L263.362 139.358C270.879 139.032 275.3 134.349 275.021 127.887C274.745 121.513 270.141 120.963 266.976 121.101L259.063 121.443ZM261.882 134.666L263.313 126.016L265.555 125.919C266.698 125.869 269.211 125.936 269.342 128.97C269.407 130.464 269.179 134.35 263.2 134.609L261.882 134.666ZM296.885 119.805C296.093 119.84 295.981 120.285 295.65 120.784L287.884 132.659C287.018 134.018 284.65 138.304 284.038 139.432L283.862 139.439C284.782 134.246 284.313 137.658 285.012 133.444L287.043 121.377C287.118 121.065 287.11 120.889 287.105 120.757C287.086 120.318 286.862 120.239 286.422 120.258L282.158 120.443C281.455 120.474 281.468 120.781 281.394 121.093L276.599 149.707C276.567 149.973 276.53 150.15 276.538 150.326C276.557 150.766 276.781 150.844 277.22 150.825L281.264 150.65C281.88 150.623 282.048 150.44 282.419 149.851L290.796 136.849C292.033 134.901 293.066 133.315 294.111 131.024L294.287 131.016C293.991 132.306 293.557 134.483 293.344 135.681L291.106 149.079C291.073 149.344 291.037 149.522 291.044 149.698C291.064 150.138 291.287 150.216 291.727 150.197L295.991 150.012C296.694 149.982 296.681 149.674 296.755 149.363L301.55 120.748C301.582 120.483 301.619 120.305 301.611 120.129C301.592 119.69 301.368 119.611 300.929 119.63L296.885 119.805ZM582.532 137.604L581.516 143.638C581.52 143.726 581.521 143.77 581.525 143.857C581.531 143.989 581.449 144.125 581.455 144.257C581.472 144.653 581.697 144.775 582.181 144.754L586.049 144.586C586.752 144.556 586.777 144.115 586.814 143.937L588.486 133.735C588.518 133.469 588.555 133.291 588.547 133.116C588.524 132.588 588.173 132.603 587.909 132.615L586.019 132.697L590.113 108.253C590.146 107.987 590.182 107.809 590.174 107.633C590.155 107.194 589.932 107.115 589.492 107.134L575.293 107.749C574.59 107.78 574.603 108.087 574.529 108.399L573.825 112.481C572.661 119.182 571.675 122.836 571.288 124.086C570.254 127.654 569.053 130.437 567.028 133.519L565.754 133.574C565.05 133.605 565.016 133.826 564.945 134.226L563.229 144.43C563.233 144.517 563.235 144.561 563.238 144.649C563.244 144.781 563.162 144.917 563.168 145.049C563.185 145.444 563.41 145.567 563.894 145.546L567.762 145.378C568.466 145.348 568.49 144.906 568.527 144.729L569.608 138.164L582.532 137.604ZM579.235 112.335L583.763 112.139L580.26 132.946L572.655 133.275C574.058 131.101 574.903 129.258 575.84 126.487C576.896 123.403 577.843 119.838 578.558 116.02L579.235 112.335ZM605.69 111.189L610.657 110.974L606.563 135.418C606.53 135.684 606.494 135.862 606.501 136.038C606.52 136.477 606.744 136.556 607.184 136.537L611.448 136.352C612.151 136.321 612.138 136.014 612.212 135.702L617.007 107.088C617.039 106.822 617.076 106.645 617.068 106.469C617.049 106.029 616.825 105.951 616.386 105.97L601.923 106.596C601.22 106.627 601.233 106.934 601.159 107.246L599.887 114.48C599.464 116.92 597.773 125.67 596.538 128.674C595.463 131.319 594.008 132.307 592.084 132.61L591.34 132.73C590.773 132.843 590.709 133.418 590.719 133.638L591.11 137.585C591.175 138.067 591.569 138.006 591.83 137.95L592.53 137.832C596.028 137.24 598.287 135.513 599.742 133.512C601.654 130.875 602.877 126.594 604.836 115.895L605.69 111.189ZM633.51 105.228C631.004 105.337 628.07 105.728 625.778 107.721C623.826 109.435 622.67 112.216 622.799 115.205C622.942 118.502 624.736 120.274 626.796 121.066L626.76 121.243C624.04 122.506 623.174 124.878 622.736 125.954L621.704 128.553C620.948 130.435 620.719 131.238 619.282 131.609L618.106 131.924C617.452 132.084 617.475 132.612 617.529 132.83L618.245 136.146C618.302 136.451 618.273 136.805 619.197 136.765C620.076 136.727 621.209 136.458 622.033 136.158C625.026 135.103 625.726 132.959 626.55 130.633L627.998 126.431C628.699 124.33 629.716 123.405 631.87 123.312L633.453 123.244L631.599 134.334C631.566 134.6 631.53 134.778 631.538 134.953C631.557 135.393 631.78 135.471 632.22 135.452L636.484 135.268C637.187 135.237 637.174 134.93 637.249 134.618L642.043 106.004C642.076 105.738 642.112 105.56 642.104 105.385C642.085 104.945 641.862 104.867 641.422 104.886L633.51 105.228ZM634.174 118.544L632.152 118.632C629.866 118.731 628.607 117.112 628.519 115.089C628.457 113.639 629.005 112.074 630.022 111.149C631.167 110.13 632.528 110.027 633.715 109.976L635.649 109.892L634.174 118.544ZM660.488 104.06C659.784 104.091 659.798 104.398 659.723 104.71L654.928 133.324C654.896 133.59 654.859 133.767 654.867 133.943C654.886 134.383 655.11 134.461 655.549 134.442L659.813 134.258C660.517 134.227 660.503 133.919 660.578 133.608L664.781 108.631L672.43 108.299L668.292 132.745C668.217 133.057 668.225 133.233 668.231 133.365C668.25 133.804 668.473 133.883 668.913 133.863L673.177 133.679C673.88 133.648 673.867 133.341 673.941 133.029L678.736 104.415C678.769 104.149 678.805 103.972 678.797 103.796C678.778 103.356 678.555 103.278 678.115 103.297L660.488 104.06ZM695.241 102.555C692.735 102.664 689.801 103.055 687.509 105.048C685.558 106.762 684.401 109.543 684.53 112.532C684.673 115.829 686.467 117.601 688.528 118.392L688.491 118.57C685.771 119.833 684.905 122.205 684.467 123.281L683.435 125.88C682.68 127.762 682.45 128.565 681.013 128.935L679.837 129.251C679.184 129.411 679.206 129.938 679.26 130.156L679.976 133.472C680.033 133.778 680.005 134.132 680.928 134.092C681.807 134.054 682.94 133.785 683.764 133.485C686.757 132.43 687.457 130.286 688.281 127.96L689.729 123.757C690.431 121.657 691.448 120.732 693.602 120.639L695.184 120.57L693.33 131.661C693.298 131.927 693.261 132.104 693.269 132.28C693.288 132.72 693.512 132.798 693.951 132.779L698.215 132.595C698.918 132.564 698.905 132.256 698.98 131.945L703.774 103.331C703.807 103.065 703.843 102.887 703.836 102.711C703.817 102.272 703.593 102.193 703.153 102.213L695.241 102.555ZM695.905 115.871L693.883 115.958C691.597 116.057 690.338 114.438 690.251 112.416C690.188 110.966 690.737 109.4 691.754 108.476C692.899 107.457 694.259 107.354 695.446 107.303L697.381 107.219L695.905 115.871ZM719.783 106.557L725.234 106.321C725.541 106.308 725.851 106.338 726.132 105.71L727.736 102.073C727.774 101.939 727.857 101.803 727.891 101.582C727.889 101.538 727.887 101.494 727.885 101.45C727.826 101.1 727.388 101.163 727.125 101.174L709.145 101.953C708.354 101.987 708.454 102.247 708.381 102.603L707.776 105.932C707.702 106.243 707.665 106.421 707.673 106.597C707.696 107.125 708.134 107.062 708.441 107.048L714.068 106.805L709.96 130.941C709.886 131.252 709.893 131.428 709.899 131.56C709.918 132 710.142 132.078 710.581 132.059L714.845 131.874C715.549 131.844 715.535 131.536 715.61 131.225L719.783 106.557ZM732.307 100.95C731.604 100.981 731.617 101.288 731.542 101.6L726.748 130.214C726.715 130.48 726.679 130.657 726.687 130.833C726.706 131.273 726.929 131.351 727.369 131.332L741.963 130.7C742.666 130.67 742.653 130.362 742.728 130.05L743.323 126.501C743.39 126.014 742.73 126.043 742.554 126.05L733.103 126.459L734.567 117.544L742.128 117.216C742.699 117.192 742.785 117.144 742.892 116.567L743.413 113.329C743.445 113.064 743.554 112.53 742.807 112.563L735.378 112.884L736.639 105.387L745.255 105.014C745.563 105 745.872 105.031 746.153 104.402L747.601 101.213C747.679 100.989 747.761 100.853 747.754 100.678C747.735 100.238 747.297 100.301 746.989 100.314L732.307 100.95ZM755.875 99.9295C755.171 99.9599 755.185 100.268 755.11 100.579L750.316 129.193C750.283 129.459 750.247 129.637 750.254 129.813C750.273 130.252 750.497 130.331 750.937 130.312L755.201 130.127C755.904 130.096 755.891 129.789 755.965 129.477L757.888 117.943L760.174 117.844C767.691 117.519 772.112 112.835 771.832 106.373C771.556 99.9991 766.952 99.4498 763.787 99.5868L755.875 99.9295ZM758.693 113.152L760.125 104.502L762.366 104.405C763.509 104.355 766.023 104.423 766.154 107.456C766.219 108.95 765.991 112.836 760.012 113.095L758.693 113.152ZM795.832 106.919C795.729 104.546 795.027 97.4854 787.554 97.809C784.696 97.9327 779.951 99.1952 776.611 105.462C774.372 109.698 773.434 115.508 773.655 120.608C773.988 128.3 778.328 129.874 781.889 129.72C786.021 129.541 790.28 127.199 792.966 122.106C795.121 117.96 796.033 111.579 795.832 106.919ZM782.656 125.062C780.063 125.175 779.692 122.724 779.614 120.922C779.472 117.625 779.82 112.457 781.602 107.844C782.352 105.83 783.973 102.588 786.918 102.461C789.6 102.345 789.808 105.11 789.871 106.561C790.021 110.034 789.793 114.932 787.972 119.679C787.181 121.74 785.645 124.933 782.656 125.062ZM803.504 97.867C802.712 97.9012 802.559 98.4364 802.487 98.7918L800.706 109.527C800.597 110.06 800.619 110.588 800.642 111.115C800.705 112.566 800.99 114.051 802.455 115.353C804.057 116.737 805.91 116.833 807.361 116.77C809.032 116.697 810.91 116.352 813.244 115.326L811.319 126.816C811.247 127.171 811.094 127.707 812.017 127.667L816.061 127.491C816.457 127.474 816.938 127.409 817.078 126.567L821.873 97.9524C821.947 97.6408 822.01 97.0656 821.131 97.1036L817.087 97.2788C816.252 97.3149 816.187 97.8463 816.114 98.2017L814.055 110.666C812.247 111.626 810.804 111.864 809.661 111.914C808.474 111.965 806.615 111.737 806.527 109.715C806.506 109.232 806.529 108.746 806.638 108.213L808.245 98.5425C808.316 98.143 808.427 97.6538 807.548 97.6918L803.504 97.867ZM830.145 96.7133C829.793 96.7285 829.268 96.7953 829.128 97.6382L824.334 126.252C824.194 127.095 824.723 127.116 825.075 127.101L829.075 126.928C829.998 126.888 830.02 126.359 830.092 126.003L832.193 113.492L834.743 113.382C837.468 113.264 837.582 114.889 837.64 116.207L837.912 121.48C838.024 124.074 838.458 125.949 840.78 126.685C841.451 126.92 842.691 127.087 843.57 127.049C844.098 127.026 844.535 126.963 844.772 126.336L846.122 122.931C846.402 122.258 846.13 122.094 845.821 122.063L844.578 121.852C843.248 121.646 843.199 120.503 843.132 118.964L842.928 115.274C842.8 113.341 842.329 111.6 839.917 110.824L839.911 110.692C842.514 109.786 843.549 108.244 844.25 106.144L845.302 102.971C845.927 101.139 846.337 100.416 847.728 100.004L848.642 99.7439C849.077 99.637 849.282 99.2758 849.217 98.7942L848.774 95.6864C848.709 95.2048 848.224 95.1817 847.916 95.1951C846.773 95.2446 845.168 95.7985 844.093 96.4176C841.859 97.7035 841.192 99.5821 840.606 101.325L839.318 105.124C838.344 108.073 836.999 108.528 835.152 108.608L832.998 108.701L834.887 97.3888C834.919 97.1231 835.113 96.4982 834.145 96.5401L830.145 96.7133ZM870.882 94.9493C870.091 94.9835 869.978 95.4288 869.647 95.9276L861.882 107.803C861.016 109.161 858.647 113.448 858.035 114.575L857.859 114.583C858.779 109.39 858.311 112.802 859.009 108.588L861.041 96.5205C861.115 96.209 861.108 96.0331 861.102 95.9013C861.083 95.4617 860.859 95.3833 860.42 95.4023L856.156 95.587C855.452 95.6174 855.466 95.9251 855.391 96.2367L850.597 124.851C850.564 125.117 850.528 125.294 850.535 125.47C850.554 125.91 850.778 125.988 851.218 125.969L855.262 125.794C855.877 125.767 856.045 125.584 856.416 124.995L864.794 111.993C866.03 110.045 867.063 108.459 868.109 106.168L868.285 106.16C867.988 107.45 867.554 109.627 867.341 110.825L865.103 124.223C865.07 124.488 865.034 124.666 865.042 124.842C865.061 125.282 865.284 125.36 865.724 125.341L869.988 125.156C870.691 125.126 870.678 124.818 870.753 124.507L875.547 95.8923C875.58 95.6267 875.616 95.4489 875.608 95.2731C875.589 94.8335 875.366 94.7551 874.926 94.7741L870.882 94.9493Z" fill="#F7D431"/>
<path d="M319.979 118.805C319.275 118.836 319.289 119.143 319.214 119.455L314.419 148.069C314.387 148.335 314.35 148.513 314.358 148.688C314.377 149.128 314.601 149.206 315.04 149.187L319.304 149.003C320.008 148.972 319.994 148.665 320.069 148.353L322.16 135.623L330.249 135.272L328.222 147.472C328.19 147.737 328.154 147.915 328.161 148.091C328.18 148.53 328.404 148.609 328.843 148.59L333.107 148.405C333.811 148.375 333.797 148.067 333.872 147.755L338.667 119.141C338.699 118.875 338.735 118.698 338.728 118.522C338.709 118.082 338.485 118.004 338.046 118.023L333.782 118.208C333.078 118.238 333.092 118.546 333.017 118.857L331.054 130.481L323.01 130.829L324.863 119.739C324.896 119.473 324.932 119.295 324.925 119.12C324.906 118.68 324.682 118.602 324.243 118.621L319.979 118.805ZM363.713 125.632C363.61 123.258 362.908 116.198 355.435 116.521C352.578 116.645 347.832 117.907 344.492 124.174C342.253 128.411 341.316 134.221 341.537 139.32C341.87 147.013 346.21 148.586 349.771 148.432C353.903 148.253 358.161 145.911 360.848 140.818C363.002 136.673 363.915 130.291 363.713 125.632ZM350.538 143.775C347.944 143.887 347.574 141.437 347.496 139.634C347.353 136.337 347.702 131.17 349.484 126.556C350.233 124.542 351.855 121.301 354.8 121.173C357.481 121.057 357.689 123.823 357.752 125.273C357.903 128.746 357.674 133.644 355.854 138.392C355.062 140.452 353.527 143.645 350.538 143.775ZM372.264 116.541C371.561 116.572 371.574 116.879 371.5 117.191L366.705 145.805C366.673 146.071 366.636 146.248 366.644 146.424C366.663 146.864 366.887 146.942 367.326 146.923L374.535 146.611C378.096 146.457 382.125 145.93 384.801 142.643C386.055 141.091 386.929 138.896 386.828 136.566C386.697 133.533 385.012 131.227 382.468 130.457C383.504 129.971 384.79 129.167 385.721 128.29C387.201 126.861 388.174 124.925 388.067 122.463C387.788 116.001 381.452 116.143 379.693 116.219L372.264 116.541ZM375.225 128.965L376.587 120.758L378.697 120.667C379.928 120.613 382.258 120.513 382.383 123.414C382.437 124.645 382.138 125.891 381.473 126.8C380.269 128.482 378.346 128.83 376.851 128.894L375.225 128.965ZM372.982 142.274L374.492 133.401L376.954 133.294C378.316 133.235 380.74 133.262 380.883 136.559C380.966 138.493 380.27 139.712 379.726 140.353C378.386 141.952 376.455 142.124 374.785 142.196L372.982 142.274ZM396.562 115.489C395.859 115.519 395.872 115.827 395.797 116.139L391.047 144.751C391.014 145.017 390.978 145.194 390.985 145.37C391.005 145.81 391.228 145.888 391.668 145.869L399.492 145.53C402.613 145.395 406.551 144.784 409.101 141.635C410.731 139.627 411.439 136.645 411.331 134.14C411.207 131.282 409.906 129.709 409.036 128.954C406.93 127.107 404.245 127.135 402.443 127.214L399.673 127.333L401.447 116.423C401.479 116.157 401.516 115.979 401.508 115.803C401.489 115.364 401.266 115.285 400.826 115.304L396.562 115.489ZM397.397 140.865L398.868 132.125L400.846 132.039C402.077 131.986 405.28 131.715 405.436 135.32C405.49 136.55 405.151 137.886 404.356 138.846C402.976 140.535 400.781 140.718 399.287 140.783L397.397 140.865ZM419.025 114.516C418.322 114.547 418.335 114.854 418.26 115.166L413.466 143.78C413.433 144.046 413.397 144.224 413.404 144.399C413.424 144.839 413.647 144.917 414.087 144.898L418.351 144.714C419.054 144.683 419.041 144.376 419.115 144.064L423.91 115.45C423.942 115.184 423.979 115.006 423.971 114.831C423.952 114.391 423.729 114.313 423.289 114.332L419.025 114.516ZM446.791 113.314C446 113.348 445.887 113.793 445.556 114.292L437.791 126.167C436.925 127.526 434.556 131.813 433.944 132.94L433.768 132.948C434.689 127.755 434.22 131.166 434.918 126.952L436.95 114.885C437.024 114.574 437.017 114.398 437.011 114.266C436.992 113.826 436.768 113.748 436.329 113.767L432.065 113.952C431.362 113.982 431.375 114.29 431.3 114.601L426.506 143.215C426.473 143.481 426.437 143.659 426.444 143.835C426.463 144.274 426.687 144.353 427.127 144.334L431.171 144.159C431.786 144.132 431.955 143.948 432.325 143.36L440.703 130.357C441.94 128.41 442.972 126.824 444.018 124.532L444.194 124.525C443.897 125.815 443.463 127.992 443.251 129.19L441.012 142.587C440.98 142.853 440.943 143.031 440.951 143.207C440.97 143.646 441.193 143.725 441.633 143.705L445.897 143.521C446.6 143.49 446.587 143.183 446.662 142.871L451.456 114.257C451.489 113.991 451.525 113.814 451.518 113.638C451.498 113.198 451.275 113.12 450.835 113.139L446.791 113.314ZM436.472 105.877C436.21 105.933 435.778 106.128 435.793 106.479L435.806 106.787C435.865 108.15 436.303 109.1 436.723 109.654C437.709 111.065 439.232 111.659 441.298 111.57C444.288 111.44 446.337 109.942 447.237 108.362C447.606 107.729 448.117 106.298 448.096 105.814C448.083 105.507 447.771 105.432 447.639 105.438L445.118 105.195C444.986 105.2 444.897 105.16 444.765 105.166C444.281 105.187 444.208 105.542 444.05 105.946C443.576 107.199 442.817 107.981 441.542 108.036C440.003 108.103 439.778 106.967 439.732 105.912L439.728 105.824C439.709 105.385 439.49 105.394 438.79 105.513L436.472 105.877ZM469.841 112.316C469.138 112.346 469.151 112.654 469.076 112.965L464.282 141.58C464.249 141.845 464.213 142.023 464.221 142.199C464.24 142.638 464.463 142.717 464.903 142.698L472.112 142.386C475.673 142.231 479.702 141.705 482.378 138.418C483.632 136.866 484.506 134.67 484.405 132.34C484.274 129.307 482.588 127.002 480.045 126.231C481.081 125.746 482.367 124.942 483.298 124.065C484.777 122.635 485.751 120.699 485.644 118.238C485.364 111.776 479.028 111.918 477.27 111.994L469.841 112.316ZM472.801 124.739L474.163 116.533L476.273 116.441C477.504 116.388 479.834 116.287 479.96 119.188C480.013 120.419 479.715 121.665 479.049 122.575C477.845 124.257 475.922 124.604 474.428 124.669L472.801 124.739ZM470.559 138.049L472.068 129.175L474.53 129.069C475.893 129.01 478.316 129.037 478.459 132.334C478.543 134.268 477.847 135.487 477.302 136.127C475.962 137.727 474.032 137.898 472.361 137.971L470.559 138.049ZM494.358 111.254C494.007 111.269 493.481 111.336 493.341 112.179L488.547 140.793C488.407 141.636 488.937 141.657 489.288 141.642L493.288 141.469C494.212 141.429 494.233 140.899 494.305 140.544L496.406 128.033L498.956 127.923C501.681 127.805 501.796 129.429 501.853 130.748L502.125 136.021C502.237 138.615 502.671 140.49 504.993 141.226C505.664 141.461 506.904 141.628 507.783 141.59C508.311 141.567 508.748 141.504 508.986 140.877L510.335 137.471C510.615 136.799 510.343 136.634 510.034 136.604L508.791 136.393C507.461 136.187 507.412 135.044 507.345 133.505L507.141 129.814C507.014 127.882 506.542 126.141 504.13 125.365L504.124 125.233C506.727 124.327 507.762 122.785 508.463 120.685L509.515 117.512C510.141 115.679 510.55 114.957 511.941 114.544L512.855 114.285C513.29 114.178 513.495 113.817 513.43 113.335L512.987 110.227C512.922 109.746 512.437 109.722 512.129 109.736C510.986 109.785 509.381 110.339 508.307 110.958C506.072 112.244 505.405 114.123 504.82 115.866L503.531 119.665C502.557 122.614 501.212 123.069 499.366 123.149L497.212 123.242L499.1 111.93C499.132 111.664 499.326 111.039 498.359 111.081L494.358 111.254ZM525.471 127.259C525.288 125.065 524.887 121.911 524.759 120.992L523.159 110.491C523.037 109.704 523.161 109.522 521.892 109.709L517.907 110.234C517.382 110.301 516.81 110.326 516.831 110.809C516.837 110.941 516.798 111.075 516.907 111.555L520.805 131.381C520.866 131.774 521.086 131.765 521.217 131.759L524.031 131.637L523.434 133.117C523.077 134.013 521.983 136.218 519.653 136.319C518.906 136.352 518.191 136.118 517.65 135.833C517.154 135.547 516.743 135.212 516.435 135.225C516.259 135.233 516.045 135.374 515.965 135.554L514.129 138.937C513.355 140.379 518.057 141.145 519.463 141.084C521.749 140.985 523.345 140.211 524.408 139.328C525.939 138.073 526.784 136.231 527.467 134.704L538.011 110.729C538.052 110.639 538.09 110.505 538.13 110.416C538.128 110.372 538.172 110.37 538.17 110.326C538.252 110.19 538.336 110.098 538.331 109.966C538.31 109.483 537.782 109.506 537.473 109.475L533.671 109.155C532.92 109.1 532.855 109.631 532.614 110.17L528.188 120.843C526.714 124.431 525.882 126.581 525.647 127.251L525.471 127.259ZM551.27 133.629C551.175 133.457 551.125 133.327 550.949 133.334C550.641 133.348 550.257 133.629 549.871 133.866C548.243 134.905 546.931 135.138 546.14 135.172C544.734 135.233 543.879 134.83 543.331 134.369C542.232 133.404 542.018 131.519 541.963 130.244C541.803 126.552 542.177 121.955 544.027 117.911C545.834 113.87 548.304 112.926 549.93 112.855C551.117 112.804 551.882 113.167 553.021 114.043C553.477 114.419 553.842 114.712 554.326 114.691C554.59 114.679 554.712 114.454 554.754 114.408L556.727 111.152C556.767 111.062 556.853 111.014 556.845 110.838C556.826 110.399 556.324 109.98 556.007 109.774C554.052 108.361 551.703 108.022 550.032 108.094C547.351 108.211 542.414 109.129 539.022 115.221C536.612 119.554 535.777 124.699 535.998 129.798C536.103 132.216 536.628 136.201 539.454 138.413C540.777 139.456 542.653 140.08 544.895 139.983C547.093 139.887 549.566 139.032 551.247 138.166C551.807 137.878 552.667 137.4 552.646 136.916C552.64 136.785 552.588 136.611 552.541 136.525L551.27 133.629Z" fill="white"/>
</g>
<path d="M219.468 187.625C219.288 187.625 219.068 187.665 219.068 188.025V200.925C219.068 201.105 219.108 201.325 219.468 201.325H222.788C224.968 201.325 227.748 200.945 227.748 197.545C227.748 195.045 226.048 194.345 225.248 194.145C226.248 193.725 227.288 192.865 227.288 191.125C227.288 189.765 226.668 188.865 226.068 188.405C225.088 187.665 223.608 187.625 222.628 187.625H219.468ZM221.788 193.285V189.725H222.628C224.468 189.725 224.588 190.865 224.588 191.405C224.588 193.085 223.368 193.285 222.408 193.285H221.788ZM221.788 199.225V195.385H222.548C223.328 195.385 225.048 195.385 225.048 197.325C225.048 199.065 223.688 199.225 222.508 199.225H221.788ZM232.528 201.325C232.888 201.325 232.888 201.185 232.888 201.045V197.185H233.708C234.628 197.185 234.748 197.625 234.868 198.165L235.248 199.825C235.388 200.425 235.608 200.905 236.088 201.225C236.608 201.585 237.548 201.665 237.928 201.665C238.368 201.665 238.408 201.505 238.448 201.365L238.808 200.085C238.908 199.705 238.728 199.665 238.588 199.645L238.148 199.565C237.708 199.485 237.628 199.285 237.468 198.805L237.088 197.705C236.868 197.085 236.668 196.365 235.708 196.165V196.105C236.548 195.945 236.808 195.265 236.928 194.845L237.148 194.065C237.368 193.265 237.568 193.225 237.968 193.145L238.268 193.085C238.468 193.045 238.568 192.905 238.528 192.765L238.128 191.305C238.088 191.185 238.048 191.105 237.768 191.105C237.408 191.105 236.488 191.225 235.928 191.725C235.448 192.145 235.268 192.725 235.188 193.065L234.928 194.205C234.808 194.745 234.688 195.185 233.768 195.185H232.888V191.365C232.888 191.065 232.728 191.085 232.568 191.125L231.008 191.445C230.328 191.585 230.348 191.605 230.348 191.865V201.045C230.348 201.185 230.348 201.325 230.708 201.325H232.528ZM246.365 191.265C245.985 191.225 245.865 191.445 245.805 191.685L244.745 196.505C244.685 196.825 244.505 197.365 244.085 199.965H244.045C243.905 199.225 243.485 197.245 243.285 196.505L241.985 191.665C241.865 191.185 241.785 191.245 241.385 191.285L239.725 191.445C239.505 191.465 239.285 191.485 239.285 191.685C239.285 191.785 239.325 191.865 239.385 192.025L242.445 201.065C242.545 201.365 242.665 201.325 242.805 201.325H243.645L243.445 201.985C243.225 202.705 242.945 203.465 241.865 203.465C241.305 203.465 240.785 203.245 240.465 203.085C240.325 203.005 240.245 202.965 240.165 202.965C240.105 202.965 240.025 202.985 239.965 203.105L239.325 204.485C239.245 204.665 239.225 204.805 239.805 205.065C240.585 205.425 241.325 205.565 242.005 205.565C242.865 205.565 244.125 205.345 244.885 203.825C245.225 203.145 245.525 202.065 246.285 199.245L248.245 192.045C248.305 191.825 248.325 191.765 248.325 191.705C248.325 191.505 248.105 191.485 247.905 191.465L246.365 191.265ZM256.681 192.505C256.721 192.445 256.741 192.405 256.741 192.325C256.741 192.205 256.661 192.025 256.301 191.785C255.761 191.445 254.961 191.105 253.881 191.105C251.481 191.105 249.241 192.625 249.241 196.605C249.241 200.425 251.421 201.665 253.721 201.665C254.501 201.665 255.341 201.485 256.001 201.125C256.301 200.965 256.501 200.765 256.501 200.605C256.501 200.545 256.461 200.445 256.441 200.405L255.921 199.085C255.901 199.025 255.821 198.985 255.781 198.985C255.641 198.985 255.421 199.165 255.181 199.305C254.821 199.525 254.441 199.665 253.921 199.665C253.061 199.665 252.581 199.205 252.321 198.765C252.101 198.385 251.941 197.765 251.941 196.545C251.941 194.965 252.221 194.305 252.341 194.045C252.621 193.485 253.101 193.105 253.881 193.105C254.401 193.105 254.801 193.265 255.221 193.545C255.521 193.745 255.681 193.905 255.801 193.905C255.881 193.905 255.921 193.845 255.941 193.805L256.681 192.505ZM262.029 201.325C263.089 201.325 264.429 201.285 265.369 200.525C266.309 199.785 266.429 198.745 266.429 198.025C266.429 197.185 266.229 196.345 265.449 195.685C264.549 194.925 263.429 194.885 262.309 194.885H261.189V191.365C261.189 191.065 261.029 191.085 260.869 191.125L259.349 191.445C258.629 191.605 258.649 191.585 258.649 191.865V201.045C258.649 201.305 258.709 201.325 258.929 201.325H262.029ZM261.189 196.885H262.409C262.829 196.885 263.889 196.905 263.889 198.105C263.889 199.265 262.929 199.325 262.189 199.325H261.189V196.885ZM267.809 201.045C267.809 201.305 267.869 201.325 268.089 201.325H270.069C270.329 201.325 270.349 201.265 270.349 201.045V191.365C270.349 191.065 270.189 191.085 270.029 191.125L268.189 191.505C267.789 191.585 267.809 191.685 267.809 191.865V201.045ZM279.149 193.245L279.169 193.025C279.349 191.085 280.929 190.325 281.469 190.085L285.629 188.305C286.009 188.145 285.929 187.885 285.889 187.805L285.209 186.325C285.069 186.005 284.709 186.185 284.589 186.245L280.829 187.945C279.289 188.645 278.249 189.985 277.789 191.265C277.369 192.385 277.309 193.745 277.309 195.225C277.309 196.525 277.369 198.045 277.969 199.305C278.989 201.405 280.829 201.665 281.749 201.665C283.989 201.665 286.089 200.065 286.089 196.585C286.089 193.445 284.509 191.565 282.149 191.565C280.809 191.565 279.789 192.145 279.229 193.245H279.149ZM281.749 199.665C280.189 199.665 280.109 197.845 280.109 196.585C280.109 195.345 280.189 193.565 281.749 193.565C283.309 193.565 283.389 195.345 283.389 196.585C283.389 197.845 283.309 199.665 281.749 199.665ZM294.236 191.265C293.856 191.225 293.736 191.445 293.676 191.685L292.616 196.505C292.556 196.825 292.376 197.365 291.956 199.965H291.916C291.776 199.225 291.356 197.245 291.156 196.505L289.856 191.665C289.736 191.185 289.656 191.245 289.256 191.285L287.596 191.445C287.376 191.465 287.156 191.485 287.156 191.685C287.156 191.785 287.196 191.865 287.256 192.025L290.316 201.065C290.416 201.365 290.536 201.325 290.676 201.325H291.516L291.316 201.985C291.096 202.705 290.816 203.465 289.736 203.465C289.176 203.465 288.656 203.245 288.336 203.085C288.196 203.005 288.116 202.965 288.036 202.965C287.976 202.965 287.896 202.985 287.836 203.105L287.196 204.485C287.116 204.665 287.096 204.805 287.676 205.065C288.456 205.425 289.196 205.565 289.876 205.565C290.736 205.565 291.996 205.345 292.756 203.825C293.096 203.145 293.396 202.065 294.156 199.245L296.116 192.045C296.176 191.825 296.196 191.765 296.196 191.705C296.196 191.505 295.976 191.485 295.776 191.465L294.236 191.265ZM304.804 191.725C304.804 191.625 304.824 191.445 304.524 191.445H298.484C298.164 191.445 298.204 191.585 298.204 191.725V192.625C298.204 195.265 298.164 197.165 297.004 199.325H296.364C296.224 199.325 296.084 199.285 296.084 199.605V203.845C296.084 204.065 296.144 204.125 296.364 204.125H298.244C298.504 204.125 298.524 204.065 298.524 203.845V201.325H303.604V203.845C303.604 204.065 303.664 204.125 303.884 204.125H305.764C306.024 204.125 306.044 204.065 306.044 203.845V199.605C306.044 199.285 305.904 199.325 305.764 199.325H304.804V191.725ZM302.264 199.325H299.444C300.324 197.485 300.464 195.765 300.464 194.085V193.445H302.264V199.325ZM313.767 191.265C313.387 191.225 313.267 191.445 313.207 191.685L312.147 196.505C312.087 196.825 311.907 197.365 311.487 199.965H311.447C311.307 199.225 310.887 197.245 310.687 196.505L309.387 191.665C309.267 191.185 309.187 191.245 308.787 191.285L307.127 191.445C306.907 191.465 306.687 191.485 306.687 191.685C306.687 191.785 306.727 191.865 306.787 192.025L309.847 201.065C309.947 201.365 310.067 201.325 310.207 201.325H311.047L310.847 201.985C310.627 202.705 310.347 203.465 309.267 203.465C308.707 203.465 308.187 203.245 307.867 203.085C307.727 203.005 307.647 202.965 307.567 202.965C307.507 202.965 307.427 202.985 307.367 203.105L306.727 204.485C306.647 204.665 306.627 204.805 307.207 205.065C307.987 205.425 308.727 205.565 309.407 205.565C310.267 205.565 311.527 205.345 312.287 203.825C312.627 203.145 312.927 202.065 313.687 199.245L315.647 192.045C315.707 191.825 315.727 191.765 315.727 191.705C315.727 191.505 315.507 191.485 315.307 191.465L313.767 191.265ZM321.319 193.445H323.519C323.619 193.445 323.759 193.405 323.819 193.165L324.099 191.845C324.139 191.645 324.219 191.445 323.799 191.445H316.499C316.279 191.445 316.219 191.505 316.219 191.725V193.165C316.219 193.385 316.279 193.445 316.499 193.445H318.779V201.045C318.779 201.305 318.839 201.325 319.059 201.325H321.039C321.299 201.325 321.319 201.265 321.319 201.045V193.445ZM337.773 191.725C337.773 191.625 337.793 191.445 337.493 191.445H331.453C331.133 191.445 331.173 191.585 331.173 191.725V192.625C331.173 195.265 331.133 197.165 329.973 199.325H329.333C329.193 199.325 329.053 199.285 329.053 199.605V203.845C329.053 204.065 329.113 204.125 329.333 204.125H331.213C331.473 204.125 331.493 204.065 331.493 203.845V201.325H336.573V203.845C336.573 204.065 336.633 204.125 336.853 204.125H338.733C338.993 204.125 339.013 204.065 339.013 203.845V199.605C339.013 199.285 338.873 199.325 338.733 199.325H337.773V191.725ZM335.233 199.325H332.413C333.293 197.485 333.433 195.765 333.433 194.085V193.445H335.233V199.325ZM348.976 196.385C348.976 192.625 346.836 191.105 344.636 191.105C342.436 191.105 340.296 192.625 340.296 196.385C340.296 200.145 342.436 201.665 344.636 201.665C346.836 201.665 348.976 200.145 348.976 196.385ZM344.636 199.665C343.076 199.665 342.996 197.905 342.996 196.385C342.996 194.865 343.116 193.105 344.636 193.105C346.156 193.105 346.276 194.865 346.276 196.385C346.276 197.925 346.176 199.665 344.636 199.665ZM358.087 192.505C358.127 192.445 358.147 192.405 358.147 192.325C358.147 192.205 358.067 192.025 357.707 191.785C357.167 191.445 356.367 191.105 355.287 191.105C352.887 191.105 350.647 192.625 350.647 196.605C350.647 200.425 352.827 201.665 355.127 201.665C355.907 201.665 356.747 201.485 357.407 201.125C357.707 200.965 357.907 200.765 357.907 200.605C357.907 200.545 357.867 200.445 357.847 200.405L357.327 199.085C357.307 199.025 357.227 198.985 357.187 198.985C357.047 198.985 356.827 199.165 356.587 199.305C356.227 199.525 355.847 199.665 355.327 199.665C354.467 199.665 353.987 199.205 353.727 198.765C353.507 198.385 353.347 197.765 353.347 196.545C353.347 194.965 353.627 194.305 353.747 194.045C354.027 193.485 354.507 193.105 355.287 193.105C355.807 193.105 356.207 193.265 356.627 193.545C356.927 193.745 357.087 193.905 357.207 193.905C357.287 193.905 357.327 193.845 357.347 193.805L358.087 192.505ZM363.955 193.445H366.155C366.255 193.445 366.395 193.405 366.455 193.165L366.735 191.845C366.775 191.645 366.855 191.445 366.435 191.445H359.135C358.915 191.445 358.855 191.505 358.855 191.725V193.165C358.855 193.385 358.915 193.445 359.135 193.445H361.415V201.045C361.415 201.305 361.475 201.325 361.695 201.325H363.675C363.935 201.325 363.955 201.265 363.955 201.045V193.445ZM374.002 191.265C373.622 191.225 373.502 191.445 373.442 191.685L372.382 196.505C372.322 196.825 372.142 197.365 371.722 199.965H371.682C371.542 199.225 371.122 197.245 370.922 196.505L369.622 191.665C369.502 191.185 369.422 191.245 369.022 191.285L367.362 191.445C367.142 191.465 366.922 191.485 366.922 191.685C366.922 191.785 366.962 191.865 367.022 192.025L370.082 201.065C370.182 201.365 370.302 201.325 370.442 201.325H371.282L371.082 201.985C370.862 202.705 370.582 203.465 369.502 203.465C368.942 203.465 368.422 203.245 368.102 203.085C367.962 203.005 367.882 202.965 367.802 202.965C367.742 202.965 367.662 202.985 367.602 203.105L366.962 204.485C366.882 204.665 366.862 204.805 367.442 205.065C368.222 205.425 368.962 205.565 369.642 205.565C370.502 205.565 371.762 205.345 372.522 203.825C372.862 203.145 373.162 202.065 373.922 199.245L375.882 192.045C375.942 191.825 375.962 191.765 375.962 191.705C375.962 191.505 375.742 191.485 375.542 191.465L374.002 191.265ZM383.013 193.445V201.045C383.013 201.265 383.073 201.325 383.293 201.325H385.273C385.533 201.325 385.553 201.265 385.553 201.045V191.725C385.553 191.465 385.493 191.445 385.273 191.445H377.933C377.713 191.445 377.653 191.465 377.653 191.725V201.045C377.653 201.265 377.673 201.325 377.933 201.325H379.913C380.173 201.325 380.193 201.265 380.193 201.045V193.445H383.013ZM393.776 195.145H390.896V191.365C390.896 191.065 390.736 191.085 390.576 191.125L388.996 191.445C388.316 191.585 388.356 191.645 388.356 191.865V201.045C388.356 201.265 388.416 201.325 388.636 201.325H390.616C390.876 201.325 390.896 201.265 390.896 201.045V197.145H393.776V201.045C393.776 201.305 393.836 201.325 394.056 201.325H396.036C396.296 201.325 396.316 201.265 396.316 201.045V191.365C396.316 191.065 396.156 191.085 395.996 191.125L394.156 191.505C393.756 191.585 393.776 191.685 393.776 191.865V195.145ZM402.498 201.325C403.558 201.325 404.898 201.285 405.838 200.525C406.778 199.785 406.898 198.745 406.898 198.025C406.898 197.185 406.698 196.345 405.918 195.685C405.018 194.925 403.898 194.885 402.778 194.885H401.658V191.365C401.658 191.065 401.498 191.085 401.338 191.125L399.818 191.445C399.098 191.605 399.118 191.585 399.118 191.865V201.045C399.118 201.305 399.178 201.325 399.398 201.325H402.498ZM401.658 196.885H402.878C403.298 196.885 404.358 196.905 404.358 198.105C404.358 199.265 403.398 199.325 402.658 199.325H401.658V196.885ZM408.278 201.045C408.278 201.305 408.338 201.325 408.558 201.325H410.538C410.798 201.325 410.818 201.265 410.818 201.045V191.365C410.818 191.065 410.658 191.085 410.498 191.125L408.658 191.505C408.258 191.585 408.278 191.685 408.278 191.865V201.045ZM425.898 191.725C425.898 191.625 425.918 191.445 425.618 191.445H419.578C419.258 191.445 419.298 191.585 419.298 191.725V192.625C419.298 195.265 419.258 197.165 418.098 199.325H417.458C417.318 199.325 417.178 199.285 417.178 199.605V203.845C417.178 204.065 417.238 204.125 417.458 204.125H419.338C419.598 204.125 419.618 204.065 419.618 203.845V201.325H424.698V203.845C424.698 204.065 424.758 204.125 424.978 204.125H426.858C427.118 204.125 427.138 204.065 427.138 203.845V199.605C427.138 199.285 426.998 199.325 426.858 199.325H425.898V191.725ZM423.358 199.325H420.538C421.418 197.485 421.558 195.765 421.558 194.085V193.445H423.358V199.325ZM434.241 193.445V201.045C434.241 201.265 434.301 201.325 434.521 201.325H436.501C436.761 201.325 436.781 201.265 436.781 201.045V191.725C436.781 191.505 436.721 191.445 436.501 191.445H430.361C430.101 191.445 430.081 191.505 430.081 191.725V192.625C430.081 193.805 430.041 196.865 429.821 197.925C429.621 198.965 429.161 199.305 428.481 199.465L428.141 199.545C428.021 199.565 427.801 199.585 427.881 199.885L428.281 201.365C428.321 201.505 428.361 201.665 428.701 201.665C429.181 201.665 431.001 201.545 431.821 199.505C432.441 197.925 432.501 194.845 432.501 193.705V193.445H434.241ZM446.687 201.325C446.907 201.325 446.967 201.305 446.967 201.045V191.725C446.967 191.465 446.907 191.445 446.687 191.445H442.867C442.327 191.445 441.107 191.485 440.267 192.145C439.587 192.665 439.247 193.545 439.247 194.325C439.247 194.905 439.447 195.625 439.847 196.065C440.147 196.385 440.647 196.685 441.127 196.805V196.845C440.407 197.045 440.107 197.585 439.887 198.365L439.767 198.805C439.627 199.285 439.507 199.485 439.087 199.565L438.687 199.645C438.547 199.665 438.367 199.705 438.467 200.085L438.827 201.365C438.867 201.505 438.887 201.665 439.307 201.665C439.767 201.665 440.587 201.565 441.107 201.205C441.647 200.825 441.847 200.285 441.987 199.765L442.307 198.625C442.487 197.965 442.647 197.645 443.487 197.645H444.427V201.045C444.427 201.265 444.447 201.325 444.707 201.325H446.687ZM444.427 195.745H443.347C442.887 195.745 441.787 195.665 441.787 194.545C441.787 194.145 441.947 193.345 443.247 193.345H444.427V195.745ZM456.97 193.545H460.41C460.51 193.545 460.67 193.505 460.71 193.265L460.99 191.845C461.03 191.645 461.13 191.445 460.69 191.445H454.71C454.45 191.445 454.43 191.505 454.43 191.725V201.045C454.43 201.305 454.49 201.325 454.71 201.325H456.69C456.95 201.325 456.97 201.265 456.97 201.045V193.545ZM470.695 196.385C470.695 192.625 468.555 191.105 466.355 191.105C464.155 191.105 462.015 192.625 462.015 196.385C462.015 200.145 464.155 201.665 466.355 201.665C468.555 201.665 470.695 200.145 470.695 196.385ZM466.355 199.665C464.795 199.665 464.715 197.905 464.715 196.385C464.715 194.865 464.835 193.105 466.355 193.105C467.875 193.105 467.995 194.865 467.995 196.385C467.995 197.925 467.895 199.665 466.355 199.665ZM478.206 193.445V201.045C478.206 201.265 478.266 201.325 478.486 201.325H480.466C480.726 201.325 480.746 201.265 480.746 201.045V191.725C480.746 191.505 480.686 191.445 480.466 191.445H474.326C474.066 191.445 474.046 191.505 474.046 191.725V192.625C474.046 193.805 474.006 196.865 473.786 197.925C473.586 198.965 473.126 199.305 472.446 199.465L472.106 199.545C471.986 199.565 471.766 199.585 471.846 199.885L472.246 201.365C472.286 201.505 472.326 201.665 472.666 201.665C473.146 201.665 474.966 201.545 475.786 199.505C476.406 197.925 476.466 194.845 476.466 193.705V193.445H478.206ZM491.672 196.385C491.672 192.625 489.532 191.105 487.332 191.105C485.132 191.105 482.992 192.625 482.992 196.385C482.992 200.145 485.132 201.665 487.332 201.665C489.532 201.665 491.672 200.145 491.672 196.385ZM487.332 199.665C485.772 199.665 485.692 197.905 485.692 196.385C485.692 194.865 485.812 193.105 487.332 193.105C488.852 193.105 488.972 194.865 488.972 196.385C488.972 197.925 488.872 199.665 487.332 199.665ZM500.783 192.505C500.823 192.445 500.843 192.405 500.843 192.325C500.843 192.205 500.763 192.025 500.403 191.785C499.863 191.445 499.063 191.105 497.983 191.105C495.583 191.105 493.343 192.625 493.343 196.605C493.343 200.425 495.523 201.665 497.823 201.665C498.603 201.665 499.443 201.485 500.103 201.125C500.403 200.965 500.603 200.765 500.603 200.605C500.603 200.545 500.563 200.445 500.543 200.405L500.023 199.085C500.003 199.025 499.923 198.985 499.883 198.985C499.743 198.985 499.523 199.165 499.283 199.305C498.923 199.525 498.543 199.665 498.023 199.665C497.163 199.665 496.683 199.205 496.423 198.765C496.203 198.385 496.043 197.765 496.043 196.545C496.043 194.965 496.323 194.305 496.443 194.045C496.723 193.485 497.203 193.105 497.983 193.105C498.503 193.105 498.903 193.265 499.323 193.545C499.623 193.745 499.783 193.905 499.903 193.905C499.983 193.905 500.023 193.845 500.043 193.805L500.783 192.505ZM510.871 196.385C510.871 192.625 508.731 191.105 506.531 191.105C504.331 191.105 502.191 192.625 502.191 196.385C502.191 200.145 504.331 201.665 506.531 201.665C508.731 201.665 510.871 200.145 510.871 196.385ZM506.531 199.665C504.971 199.665 504.891 197.905 504.891 196.385C504.891 194.865 505.011 193.105 506.531 193.105C508.051 193.105 508.171 194.865 508.171 196.385C508.171 197.925 508.071 199.665 506.531 199.665ZM516.602 201.325C517.802 201.325 518.962 201.305 519.922 200.665C520.782 200.105 521.002 199.225 521.002 198.525C521.002 197.145 520.162 196.305 519.082 196.085C520.102 195.765 520.682 194.905 520.682 193.885C520.682 192.905 520.162 192.285 519.702 191.965C518.922 191.445 517.622 191.445 516.462 191.445H513.402C513.142 191.445 513.122 191.505 513.122 191.725V201.045C513.122 201.305 513.182 201.325 513.402 201.325H516.602ZM515.662 193.305H516.662C517.282 193.305 518.142 193.365 518.142 194.265C518.142 194.605 518.002 195.345 516.722 195.345H515.662V193.305ZM515.662 197.145H516.982C517.342 197.145 518.462 197.165 518.462 198.285C518.462 199.345 517.502 199.465 516.762 199.465H515.662V197.145ZM530.773 200.965C530.833 200.945 530.933 200.885 530.933 200.765C530.933 200.665 530.853 200.525 530.713 200.165C530.413 199.405 530.413 198.765 530.413 198.185V194.325C530.413 193.965 530.373 193.065 529.973 192.385C529.373 191.365 528.213 191.105 526.973 191.105C526.153 191.105 524.733 191.265 523.913 191.645C523.393 191.885 523.393 191.965 523.493 192.245L523.913 193.505C523.953 193.645 523.993 193.705 524.113 193.705C524.253 193.705 524.393 193.605 525.073 193.385C525.573 193.225 526.173 193.105 526.693 193.105C527.253 193.105 527.593 193.285 527.773 193.505C528.033 193.825 528.013 194.305 528.013 194.585V195.205C526.873 195.165 524.993 195.325 524.013 196.025C523.593 196.325 522.793 197.085 522.793 198.625C522.793 200.465 523.953 201.665 525.753 201.665C527.073 201.665 527.793 201.065 528.313 200.545L528.393 200.465C528.453 200.785 528.553 201.065 528.733 201.425C528.893 201.725 529.013 201.685 529.153 201.625L530.773 200.965ZM528.013 199.045C527.573 199.525 527.033 199.805 526.513 199.805C525.793 199.805 525.193 199.265 525.193 198.445C525.193 197.265 526.293 196.845 527.893 196.845H528.013V199.045ZM538.542 195.145H535.662V191.365C535.662 191.065 535.502 191.085 535.342 191.125L533.762 191.445C533.082 191.585 533.122 191.645 533.122 191.865V201.045C533.122 201.265 533.182 201.325 533.402 201.325H535.382C535.642 201.325 535.662 201.265 535.662 201.045V197.145H538.542V201.045C538.542 201.305 538.602 201.325 538.822 201.325H540.802C541.062 201.325 541.082 201.265 541.082 201.045V191.365C541.082 191.065 540.922 191.085 540.762 191.125L538.922 191.505C538.522 191.585 538.542 191.685 538.542 191.865V195.145ZM543.884 201.045C543.884 201.305 543.944 201.325 544.164 201.325H546.144C546.404 201.325 546.424 201.225 546.524 201.045L548.424 197.525C548.684 197.045 548.984 196.625 549.684 195.085H549.764C549.684 196.425 549.664 196.865 549.664 197.245V201.045C549.664 201.305 549.724 201.325 549.944 201.325H551.924C552.184 201.325 552.204 201.265 552.204 201.045V191.365C552.204 191.065 552.044 191.085 551.884 191.125L550.284 191.445C549.944 191.505 549.844 191.465 549.604 191.865L547.664 195.245C547.284 195.905 546.944 196.505 546.404 197.685H546.324C546.364 197.185 546.424 196.085 546.424 195.525V191.365C546.424 191.065 546.264 191.085 546.104 191.125L544.264 191.505C543.864 191.585 543.884 191.685 543.884 191.865V201.045ZM562.097 201.325C562.317 201.325 562.377 201.305 562.377 201.045V191.725C562.377 191.465 562.317 191.445 562.097 191.445H558.277C557.737 191.445 556.517 191.485 555.677 192.145C554.997 192.665 554.657 193.545 554.657 194.325C554.657 194.905 554.857 195.625 555.257 196.065C555.557 196.385 556.057 196.685 556.537 196.805V196.845C555.817 197.045 555.517 197.585 555.297 198.365L555.177 198.805C555.037 199.285 554.917 199.485 554.497 199.565L554.097 199.645C553.957 199.665 553.777 199.705 553.877 200.085L554.237 201.365C554.277 201.505 554.297 201.665 554.717 201.665C555.177 201.665 555.997 201.565 556.517 201.205C557.057 200.825 557.257 200.285 557.397 199.765L557.717 198.625C557.897 197.965 558.057 197.645 558.897 197.645H559.837V201.045C559.837 201.265 559.857 201.325 560.117 201.325H562.097ZM559.837 195.745H558.757C558.297 195.745 557.197 195.665 557.197 194.545C557.197 194.145 557.357 193.345 558.657 193.345H559.837V195.745ZM293.058 216.505C293.098 216.445 293.118 216.405 293.118 216.325C293.118 216.205 293.038 216.025 292.678 215.785C292.138 215.445 291.338 215.105 290.258 215.105C287.858 215.105 285.618 216.625 285.618 220.605C285.618 224.425 287.798 225.665 290.098 225.665C290.878 225.665 291.718 225.485 292.378 225.125C292.678 224.965 292.878 224.765 292.878 224.605C292.878 224.545 292.838 224.445 292.818 224.405L292.298 223.085C292.278 223.025 292.198 222.985 292.158 222.985C292.018 222.985 291.798 223.165 291.558 223.305C291.198 223.525 290.818 223.665 290.298 223.665C289.438 223.665 288.958 223.205 288.698 222.765C288.478 222.385 288.318 221.765 288.318 220.545C288.318 218.965 288.598 218.305 288.718 218.045C288.998 217.485 289.478 217.105 290.258 217.105C290.778 217.105 291.178 217.265 291.598 217.545C291.898 217.745 292.058 217.905 292.178 217.905C292.258 217.905 292.298 217.845 292.318 217.805L293.058 216.505ZM307.694 223.745C307.694 223.605 307.734 223.465 307.414 223.465H305.834V212.325C305.834 212.165 305.854 211.965 305.434 211.965H304.034L300.254 214.685C300.114 214.785 300.014 214.865 300.014 215.005C300.014 215.125 300.054 215.205 300.094 215.265L300.614 216.165C300.694 216.305 300.734 216.425 300.894 216.425C300.994 216.425 301.074 216.365 301.134 216.325L303.294 214.985V223.465H301.274C300.974 223.465 300.994 223.645 300.994 223.745V225.045C300.994 225.345 301.174 225.325 301.274 225.325H307.414C307.734 225.325 307.694 225.185 307.694 225.045V223.745ZM319.707 218.645C319.707 212.865 317.047 211.625 314.967 211.625C312.887 211.625 310.227 212.865 310.227 218.645C310.227 224.185 312.647 225.665 314.967 225.665C317.287 225.665 319.707 224.185 319.707 218.645ZM314.967 223.505C312.947 223.505 312.767 220.825 312.767 218.645C312.767 216.465 312.947 213.785 314.967 213.785C316.987 213.785 317.167 216.465 317.167 218.645C317.167 220.825 316.987 223.505 314.967 223.505ZM333.869 224.965C333.929 224.945 334.029 224.885 334.029 224.765C334.029 224.665 333.949 224.525 333.809 224.165C333.509 223.405 333.509 222.765 333.509 222.185V218.325C333.509 217.965 333.469 217.065 333.069 216.385C332.469 215.365 331.309 215.105 330.069 215.105C329.249 215.105 327.829 215.265 327.009 215.645C326.489 215.885 326.489 215.965 326.589 216.245L327.009 217.505C327.049 217.645 327.089 217.705 327.209 217.705C327.349 217.705 327.489 217.605 328.169 217.385C328.669 217.225 329.269 217.105 329.789 217.105C330.349 217.105 330.689 217.285 330.869 217.505C331.129 217.825 331.109 218.305 331.109 218.585V219.205C329.969 219.165 328.089 219.325 327.109 220.025C326.689 220.325 325.889 221.085 325.889 222.625C325.889 224.465 327.049 225.665 328.849 225.665C330.169 225.665 330.889 225.065 331.409 224.545L331.489 224.465C331.549 224.785 331.649 225.065 331.829 225.425C331.989 225.725 332.109 225.685 332.249 225.625L333.869 224.965ZM331.109 223.045C330.669 223.525 330.129 223.805 329.609 223.805C328.889 223.805 328.289 223.265 328.289 222.445C328.289 221.265 329.389 220.845 330.989 220.845H331.109V223.045ZM339.698 225.325C340.898 225.325 342.058 225.305 343.018 224.665C343.878 224.105 344.098 223.225 344.098 222.525C344.098 221.145 343.258 220.305 342.178 220.085C343.198 219.765 343.778 218.905 343.778 217.885C343.778 216.905 343.258 216.285 342.798 215.965C342.018 215.445 340.718 215.445 339.558 215.445H336.498C336.238 215.445 336.218 215.505 336.218 215.725V225.045C336.218 225.305 336.278 225.325 336.498 225.325H339.698ZM338.758 217.305H339.758C340.378 217.305 341.238 217.365 341.238 218.265C341.238 218.605 341.098 219.345 339.818 219.345H338.758V217.305ZM338.758 221.145H340.078C340.438 221.145 341.558 221.165 341.558 222.285C341.558 223.345 340.598 223.465 339.858 223.465H338.758V221.145ZM349.129 217.545H352.569C352.669 217.545 352.829 217.505 352.869 217.265L353.149 215.845C353.189 215.645 353.289 215.445 352.849 215.445H346.869C346.609 215.445 346.589 215.505 346.589 215.725V225.045C346.589 225.305 346.649 225.325 346.869 225.325H348.849C349.109 225.325 349.129 225.265 349.129 225.045V217.545ZM360.613 215.265C360.233 215.225 360.113 215.445 360.053 215.685L358.993 220.505C358.933 220.825 358.753 221.365 358.333 223.965H358.293C358.153 223.225 357.733 221.245 357.533 220.505L356.233 215.665C356.113 215.185 356.033 215.245 355.633 215.285L353.973 215.445C353.753 215.465 353.533 215.485 353.533 215.685C353.533 215.785 353.573 215.865 353.633 216.025L356.693 225.065C356.793 225.365 356.913 225.325 357.053 225.325H357.893L357.693 225.985C357.473 226.705 357.193 227.465 356.113 227.465C355.553 227.465 355.033 227.245 354.713 227.085C354.573 227.005 354.493 226.965 354.413 226.965C354.353 226.965 354.273 226.985 354.213 227.105L353.573 228.485C353.493 228.665 353.473 228.805 354.053 229.065C354.833 229.425 355.573 229.565 356.253 229.565C357.113 229.565 358.373 229.345 359.133 227.825C359.473 227.145 359.773 226.065 360.533 223.245L362.493 216.045C362.553 215.825 362.573 215.765 362.573 215.705C362.573 215.505 362.353 215.485 362.153 215.465L360.613 215.265ZM370.929 216.505C370.969 216.445 370.989 216.405 370.989 216.325C370.989 216.205 370.909 216.025 370.549 215.785C370.009 215.445 369.209 215.105 368.129 215.105C365.729 215.105 363.489 216.625 363.489 220.605C363.489 224.425 365.669 225.665 367.969 225.665C368.749 225.665 369.589 225.485 370.249 225.125C370.549 224.965 370.749 224.765 370.749 224.605C370.749 224.545 370.709 224.445 370.689 224.405L370.169 223.085C370.149 223.025 370.069 222.985 370.029 222.985C369.889 222.985 369.669 223.165 369.429 223.305C369.069 223.525 368.689 223.665 368.169 223.665C367.309 223.665 366.829 223.205 366.569 222.765C366.349 222.385 366.189 221.765 366.189 220.545C366.189 218.965 366.469 218.305 366.589 218.045C366.869 217.485 367.349 217.105 368.129 217.105C368.649 217.105 369.049 217.265 369.469 217.545C369.769 217.745 369.929 217.905 370.049 217.905C370.129 217.905 370.169 217.845 370.189 217.805L370.929 216.505ZM376.797 217.445H378.997C379.097 217.445 379.237 217.405 379.297 217.165L379.577 215.845C379.617 215.645 379.697 215.445 379.277 215.445H371.977C371.757 215.445 371.697 215.505 371.697 215.725V217.165C371.697 217.385 371.757 217.445 371.977 217.445H374.257V225.045C374.257 225.305 374.317 225.325 374.537 225.325H376.517C376.777 225.325 376.797 225.265 376.797 225.045V217.445ZM388.244 224.965C388.304 224.945 388.404 224.885 388.404 224.765C388.404 224.665 388.324 224.525 388.184 224.165C387.884 223.405 387.884 222.765 387.884 222.185V218.325C387.884 217.965 387.844 217.065 387.444 216.385C386.844 215.365 385.684 215.105 384.444 215.105C383.624 215.105 382.204 215.265 381.384 215.645C380.864 215.885 380.864 215.965 380.964 216.245L381.384 217.505C381.424 217.645 381.464 217.705 381.584 217.705C381.724 217.705 381.864 217.605 382.544 217.385C383.044 217.225 383.644 217.105 384.164 217.105C384.724 217.105 385.064 217.285 385.244 217.505C385.504 217.825 385.484 218.305 385.484 218.585V219.205C384.344 219.165 382.464 219.325 381.484 220.025C381.064 220.325 380.264 221.085 380.264 222.625C380.264 224.465 381.424 225.665 383.224 225.665C384.544 225.665 385.264 225.065 385.784 224.545L385.864 224.465C385.924 224.785 386.024 225.065 386.204 225.425C386.364 225.725 386.484 225.685 386.624 225.625L388.244 224.965ZM385.484 223.045C385.044 223.525 384.504 223.805 383.984 223.805C383.264 223.805 382.664 223.265 382.664 222.445C382.664 221.265 383.764 220.845 385.364 220.845H385.484V223.045ZM400.621 217.445V225.045C400.621 225.265 400.681 225.325 400.901 225.325H402.881C403.141 225.325 403.161 225.265 403.161 225.045V215.725C403.161 215.465 403.101 215.445 402.881 215.445H395.541C395.321 215.445 395.261 215.465 395.261 215.725V225.045C395.261 225.265 395.281 225.325 395.541 225.325H397.521C397.781 225.325 397.801 225.265 397.801 225.045V217.445H400.621ZM414.084 220.385C414.084 216.625 411.944 215.105 409.744 215.105C407.544 215.105 405.404 216.625 405.404 220.385C405.404 224.145 407.544 225.665 409.744 225.665C411.944 225.665 414.084 224.145 414.084 220.385ZM409.744 223.665C408.184 223.665 408.104 221.905 408.104 220.385C408.104 218.865 408.224 217.105 409.744 217.105C411.264 217.105 411.384 218.865 411.384 220.385C411.384 221.925 411.284 223.665 409.744 223.665ZM429.003 223.745C429.003 223.605 429.043 223.465 428.723 223.465H427.143V212.325C427.143 212.165 427.163 211.965 426.743 211.965H425.343L421.563 214.685C421.423 214.785 421.323 214.865 421.323 215.005C421.323 215.125 421.363 215.205 421.403 215.265L421.923 216.165C422.003 216.305 422.043 216.425 422.203 216.425C422.303 216.425 422.383 216.365 422.443 216.325L424.603 214.985V223.465H422.583C422.283 223.465 422.303 223.645 422.303 223.745V225.045C422.303 225.345 422.483 225.325 422.583 225.325H428.723C429.043 225.325 429.003 225.185 429.003 225.045V223.745ZM444.904 220.385C444.904 216.625 442.764 215.105 440.564 215.105C438.364 215.105 436.224 216.625 436.224 220.385C436.224 224.145 438.364 225.665 440.564 225.665C442.764 225.665 444.904 224.145 444.904 220.385ZM440.564 223.665C439.004 223.665 438.924 221.905 438.924 220.385C438.924 218.865 439.044 217.105 440.564 217.105C442.084 217.105 442.204 218.865 442.204 220.385C442.204 221.925 442.104 223.665 440.564 223.665ZM449.335 225.325C449.695 225.325 449.695 225.185 449.695 225.045V221.185H450.515C451.435 221.185 451.555 221.625 451.675 222.165L452.055 223.825C452.195 224.425 452.415 224.905 452.895 225.225C453.415 225.585 454.355 225.665 454.735 225.665C455.175 225.665 455.215 225.505 455.255 225.365L455.615 224.085C455.715 223.705 455.535 223.665 455.395 223.645L454.955 223.565C454.515 223.485 454.435 223.285 454.275 222.805L453.895 221.705C453.675 221.085 453.475 220.365 452.515 220.165V220.105C453.355 219.945 453.615 219.265 453.735 218.845L453.955 218.065C454.175 217.265 454.375 217.225 454.775 217.145L455.075 217.085C455.275 217.045 455.375 216.905 455.335 216.765L454.935 215.305C454.895 215.185 454.855 215.105 454.575 215.105C454.215 215.105 453.295 215.225 452.735 215.725C452.255 216.145 452.075 216.725 451.995 217.065L451.735 218.205C451.615 218.745 451.495 219.185 450.575 219.185H449.695V215.365C449.695 215.065 449.535 215.085 449.375 215.125L447.815 215.445C447.135 215.585 447.155 215.605 447.155 215.865V225.045C447.155 225.185 447.155 225.325 447.515 225.325H449.335ZM461.192 217.445H463.392C463.492 217.445 463.632 217.405 463.692 217.165L463.972 215.845C464.012 215.645 464.092 215.445 463.672 215.445H456.372C456.152 215.445 456.092 215.505 456.092 215.725V217.165C456.092 217.385 456.152 217.445 456.372 217.445H458.652V225.045C458.652 225.305 458.712 225.325 458.932 225.325H460.912C461.172 225.325 461.192 225.265 461.192 225.045V217.445ZM472.458 225.325C472.678 225.325 472.738 225.305 472.738 225.045V215.725C472.738 215.465 472.678 215.445 472.458 215.445H468.638C468.098 215.445 466.878 215.485 466.038 216.145C465.358 216.665 465.018 217.545 465.018 218.325C465.018 218.905 465.218 219.625 465.618 220.065C465.918 220.385 466.418 220.685 466.898 220.805V220.845C466.178 221.045 465.878 221.585 465.658 222.365L465.538 222.805C465.398 223.285 465.278 223.485 464.858 223.565L464.458 223.645C464.318 223.665 464.138 223.705 464.238 224.085L464.598 225.365C464.638 225.505 464.658 225.665 465.078 225.665C465.538 225.665 466.358 225.565 466.878 225.205C467.418 224.825 467.618 224.285 467.758 223.765L468.078 222.625C468.258 221.965 468.418 221.645 469.258 221.645H470.198V225.045C470.198 225.265 470.218 225.325 470.478 225.325H472.458ZM470.198 219.745H469.118C468.658 219.745 467.558 219.665 467.558 218.545C467.558 218.145 467.718 217.345 469.018 217.345H470.198V219.745ZM476.874 217.245L476.894 217.025C477.074 215.085 478.654 214.325 479.194 214.085L483.354 212.305C483.734 212.145 483.654 211.885 483.614 211.805L482.934 210.325C482.794 210.005 482.434 210.185 482.314 210.245L478.554 211.945C477.014 212.645 475.974 213.985 475.514 215.265C475.094 216.385 475.034 217.745 475.034 219.225C475.034 220.525 475.094 222.045 475.694 223.305C476.714 225.405 478.554 225.665 479.474 225.665C481.714 225.665 483.814 224.065 483.814 220.585C483.814 217.445 482.234 215.565 479.874 215.565C478.534 215.565 477.514 216.145 476.954 217.245H476.874ZM479.474 223.665C477.914 223.665 477.834 221.845 477.834 220.585C477.834 219.345 477.914 217.565 479.474 217.565C481.034 217.565 481.114 219.345 481.114 220.585C481.114 221.845 481.034 223.665 479.474 223.665ZM488.741 225.145L488.821 225.185C489.021 225.285 489.561 225.665 490.821 225.665C494.421 225.665 494.501 221.805 494.501 220.305C494.501 215.925 492.541 215.105 490.981 215.105C490.181 215.105 489.321 215.365 488.481 216.145C488.421 215.965 488.381 215.785 488.301 215.605C488.081 215.005 487.881 215.065 487.561 215.165L486.041 215.665C485.941 215.705 485.821 215.765 485.821 215.885C485.821 215.945 485.841 216.005 485.901 216.205C486.041 216.625 486.201 217.285 486.201 219.005V229.265C486.201 229.645 486.361 229.585 486.521 229.545L488.361 229.165C488.761 229.085 488.741 228.985 488.741 228.805V225.145ZM488.741 217.865L488.821 217.785C489.141 217.465 489.641 217.105 490.281 217.105C491.921 217.105 491.961 219.025 491.961 220.245C491.961 221.805 491.881 222.385 491.641 222.825C491.261 223.545 490.641 223.665 490.181 223.665C489.901 223.665 489.321 223.645 488.741 223.285V217.865ZM503.923 225.325C504.143 225.325 504.203 225.305 504.203 225.045V215.725C504.203 215.465 504.143 215.445 503.923 215.445H500.103C499.563 215.445 498.343 215.485 497.503 216.145C496.823 216.665 496.483 217.545 496.483 218.325C496.483 218.905 496.683 219.625 497.083 220.065C497.383 220.385 497.883 220.685 498.363 220.805V220.845C497.643 221.045 497.343 221.585 497.123 222.365L497.003 222.805C496.863 223.285 496.743 223.485 496.323 223.565L495.923 223.645C495.783 223.665 495.603 223.705 495.703 224.085L496.063 225.365C496.103 225.505 496.123 225.665 496.543 225.665C497.003 225.665 497.823 225.565 498.343 225.205C498.883 224.825 499.083 224.285 499.223 223.765L499.543 222.625C499.723 221.965 499.883 221.645 500.723 221.645H501.663V225.045C501.663 225.265 501.683 225.325 501.943 225.325H503.923ZM501.663 219.745H500.583C500.123 219.745 499.023 219.665 499.023 218.545C499.023 218.145 499.183 217.345 500.483 217.345H501.663V219.745Z" fill="#85312C"/>
<defs>
<filter id="filter0_d" x="0.20282" y="3.18136" width="974.873" height="248.696" filterUnits="userSpaceOnUse" color-interpolation-filters="sRGB">
<feFlood flood-opacity="0" result="BackgroundImageFix"/>
<feColorMatrix in="SourceAlpha" type="matrix" values="0 0 0 0 0 0 0 0 0 0 0 0 0 0 0 0 0 0 127 0"/>
<feOffset/>
<feGaussianBlur stdDeviation="4"/>
<feColorMatrix type="matrix" values="0 0 0 0 0 0 0 0 0 0 0 0 0 0 0 0 0 0 0.45 0"/>
<feBlend mode="normal" in2="BackgroundImageFix" result="effect1_dropShadow"/>
<feBlend mode="normal" in="SourceGraphic" in2="effect1_dropShadow" result="shape"/>
</filter>
<filter id="filter1_d" x="23.2454" y="125.999" width="686.74" height="161.995" filterUnits="userSpaceOnUse" color-interpolation-filters="sRGB">
<feFlood flood-opacity="0" result="BackgroundImageFix"/>
<feColorMatrix in="SourceAlpha" type="matrix" values="0 0 0 0 0 0 0 0 0 0 0 0 0 0 0 0 0 0 127 0"/>
<feOffset/>
<feGaussianBlur stdDeviation="4"/>
<feColorMatrix type="matrix" values="0 0 0 0 0 0 0 0 0 0 0 0 0 0 0 0 0 0 0.45 0"/>
<feBlend mode="normal" in2="BackgroundImageFix" result="effect1_dropShadow"/>
<feBlend mode="normal" in="SourceGraphic" in2="effect1_dropShadow" result="shape"/>
</filter>
<filter id="filter2_d" x="132.647" y="81.7716" width="755.962" height="87.7242" filterUnits="userSpaceOnUse" color-interpolation-filters="sRGB">
<feFlood flood-opacity="0" result="BackgroundImageFix"/>
<feColorMatrix in="SourceAlpha" type="matrix" values="0 0 0 0 0 0 0 0 0 0 0 0 0 0 0 0 0 0 127 0"/>
<feOffset/>
<feGaussianBlur stdDeviation="6.5"/>
<feColorMatrix type="matrix" values="0 0 0 0 0 0 0 0 0 0 0 0 0 0 0 0 0 0 0.6 0"/>
<feBlend mode="normal" in2="BackgroundImageFix" result="effect1_dropShadow"/>
<feBlend mode="normal" in="SourceGraphic" in2="effect1_dropShadow" result="shape"/>
</filter>
</defs>
</svg>
