<svg width="1088" height="292" viewBox="0 0 1088 292" fill="none" xmlns="http://www.w3.org/2000/svg">
<g filter="url(#filter0_d)">
<path d="M64.8009 110.723L958.201 51.086L919.107 155.664L18.1797 204.035L64.8009 110.723Z" fill="#DD1010"/>
<path d="M64.6011 107.73L62.8856 107.844L62.1172 109.382L15.4961 202.694L13.1913 207.307L18.3406 207.03L919.268 158.66L921.229 158.555L921.917 156.715L961.011 52.1365L962.638 47.7831L958.001 48.0927L64.6011 107.73Z" stroke="#F7D431" stroke-width="6"/>
</g>
<g filter="url(#filter1_d)">
<path d="M65.8814 179.188L701.986 168.015L685.55 247.407L31.2454 245.979L65.8814 179.188Z" fill="white"/>
</g>
<g filter="url(#filter2_d)">
<path d="M146.268 126.111C145.565 126.142 145.578 126.449 145.504 126.761L140.709 155.375C140.677 155.641 140.64 155.819 140.648 155.994C140.667 156.434 140.891 156.512 141.33 156.493L148.539 156.181C152.1 156.027 156.129 155.5 158.805 152.213C160.059 150.662 160.933 148.466 160.832 146.136C160.701 143.103 159.016 140.797 156.472 140.027C157.508 139.542 158.794 138.737 159.725 137.86C161.205 136.431 162.178 134.495 162.071 132.033C161.792 125.571 155.456 125.713 153.697 125.79L146.268 126.111ZM149.229 138.535L150.591 130.328L152.701 130.237C153.932 130.183 156.262 130.083 156.387 132.984C156.441 134.215 156.142 135.461 155.477 136.37C154.272 138.052 152.35 138.4 150.855 138.464L149.229 138.535ZM146.986 151.844L148.496 142.971L150.958 142.864C152.32 142.805 154.744 142.832 154.887 146.129C154.97 148.063 154.274 149.283 153.73 149.923C152.389 151.522 150.459 151.694 148.789 151.766L146.986 151.844ZM170.566 125.059C169.863 125.09 169.876 125.397 169.801 125.709L165.051 154.321C165.018 154.587 164.982 154.764 164.989 154.94C165.009 155.38 165.232 155.458 165.672 155.439L173.496 155.1C176.617 154.965 180.555 154.354 183.105 151.205C184.735 149.197 185.443 146.215 185.335 143.71C185.211 140.852 183.91 139.279 183.04 138.524C180.934 136.677 178.249 136.706 176.447 136.784L173.677 136.904L175.451 125.993C175.483 125.727 175.52 125.549 175.512 125.373C175.493 124.934 175.27 124.855 174.83 124.874L170.566 125.059ZM171.401 150.435L172.872 141.695L174.85 141.609C176.081 141.556 179.284 141.285 179.44 144.89C179.493 146.121 179.155 147.456 178.36 148.416C176.98 150.105 174.785 150.288 173.291 150.353L171.401 150.435ZM193.029 124.086C192.326 124.117 192.339 124.424 192.264 124.736L187.47 153.35C187.437 153.616 187.401 153.794 187.408 153.969C187.428 154.409 187.651 154.487 188.091 154.468L192.355 154.284C193.058 154.253 193.045 153.946 193.119 153.634L197.914 125.02C197.946 124.754 197.983 124.576 197.975 124.401C197.956 123.961 197.732 123.883 197.293 123.902L193.029 124.086ZM206.069 123.522C205.366 123.552 205.379 123.86 205.304 124.171L200.51 152.786C200.477 153.051 200.441 153.229 200.448 153.405C200.467 153.844 200.691 153.923 201.131 153.904L208.955 153.565C212.076 153.43 216.014 152.819 218.564 149.67C220.194 147.661 220.902 144.68 220.796 142.218C220.664 139.185 219.159 134.934 211.906 135.248L209.136 135.368L210.332 128.402L219.519 128.004C219.783 127.993 220.181 128.019 220.418 127.392L221.846 123.763C221.926 123.584 222.009 123.448 221.999 123.228C221.98 122.789 221.542 122.852 221.235 122.865L206.069 123.522ZM206.86 148.899L208.331 140.159L211.056 140.041C213.87 139.92 214.819 141.508 214.901 143.398C214.952 144.585 214.614 145.921 213.819 146.88C212.438 148.57 210.244 148.753 208.75 148.817L206.86 148.899ZM230.495 122.464C229.792 122.494 229.805 122.802 229.731 123.114L224.936 151.728C224.903 151.993 224.867 152.171 224.875 152.347C224.894 152.787 225.117 152.865 225.557 152.846L240.151 152.214C240.855 152.184 240.841 151.876 240.916 151.564L241.511 148.015C241.578 147.528 240.919 147.556 240.743 147.564L231.292 147.973L232.755 139.058L240.316 138.73C240.888 138.706 240.974 138.658 241.081 138.081L241.601 134.843C241.634 134.577 241.743 134.044 240.995 134.077L233.566 134.398L234.827 126.901L243.443 126.528C243.751 126.514 244.06 126.545 244.342 125.916L245.789 122.726C245.867 122.503 245.949 122.367 245.942 122.191C245.923 121.752 245.485 121.815 245.177 121.828L230.495 122.464ZM254.063 121.443C253.36 121.474 253.373 121.782 253.298 122.093L248.504 150.707C248.471 150.973 248.435 151.151 248.443 151.326C248.462 151.766 248.685 151.844 249.125 151.825L253.389 151.641C254.092 151.61 254.079 151.303 254.153 150.991L256.076 139.457L258.362 139.358C265.879 139.033 270.3 134.349 270.021 127.887C269.745 121.513 265.141 120.964 261.976 121.101L254.063 121.443ZM256.882 134.666L258.313 126.016L260.555 125.919C261.698 125.869 264.211 125.937 264.342 128.97C264.407 130.464 264.179 134.35 258.2 134.609L256.882 134.666ZM291.885 119.806C291.093 119.84 290.981 120.285 290.65 120.784L282.884 132.659C282.018 134.018 279.65 138.304 279.038 139.432L278.862 139.439C279.782 134.247 279.313 137.658 280.012 133.444L282.043 121.377C282.118 121.065 282.11 120.889 282.105 120.758C282.086 120.318 281.862 120.24 281.422 120.259L277.158 120.443C276.455 120.474 276.468 120.781 276.394 121.093L271.599 149.707C271.567 149.973 271.53 150.151 271.538 150.326C271.557 150.766 271.781 150.844 272.22 150.825L276.264 150.65C276.88 150.624 277.048 150.44 277.419 149.851L285.796 136.849C287.033 134.902 288.066 133.315 289.111 131.024L289.287 131.016C288.991 132.306 288.557 134.483 288.344 135.682L286.106 149.079C286.073 149.345 286.037 149.522 286.044 149.698C286.064 150.138 286.287 150.216 286.727 150.197L290.991 150.012C291.694 149.982 291.681 149.674 291.755 149.363L296.55 120.749C296.582 120.483 296.619 120.305 296.611 120.129C296.592 119.69 296.368 119.611 295.929 119.63L291.885 119.806ZM312.542 123.976L317.993 123.74C318.301 123.726 318.611 123.757 318.892 123.128L320.496 119.491C320.534 119.358 320.616 119.222 320.651 119C320.649 118.956 320.647 118.912 320.645 118.868C320.586 118.519 320.148 118.582 319.884 118.593L301.905 119.372C301.114 119.406 301.213 119.666 301.141 120.021L300.536 123.351C300.462 123.662 300.425 123.84 300.433 124.016C300.456 124.543 300.893 124.48 301.201 124.467L306.828 124.223L302.72 148.359C302.646 148.671 302.653 148.847 302.659 148.979C302.678 149.418 302.901 149.497 303.341 149.478L307.605 149.293C308.308 149.263 308.295 148.955 308.37 148.643L312.542 123.976ZM325.067 118.369C324.363 118.399 324.377 118.707 324.302 119.018L319.508 147.633C319.475 147.898 319.439 148.076 319.446 148.252C319.465 148.691 319.689 148.77 320.129 148.751L334.723 148.119C335.426 148.088 335.413 147.781 335.487 147.469L336.082 143.92C336.149 143.433 335.49 143.461 335.314 143.469L325.863 143.878L327.327 134.962L334.888 134.635C335.459 134.61 335.545 134.562 335.652 133.985L336.173 130.748C336.205 130.482 336.314 129.949 335.567 129.981L328.138 130.303L329.399 122.805L338.015 122.432C338.322 122.419 338.632 122.45 338.913 121.821L340.36 118.631C340.439 118.408 340.521 118.272 340.513 118.096C340.494 117.657 340.057 117.72 339.749 117.733L325.067 118.369ZM621.448 135.703L620.432 141.736C620.435 141.824 620.437 141.868 620.441 141.956C620.447 142.088 620.365 142.223 620.37 142.355C620.388 142.751 620.613 142.873 621.097 142.852L624.965 142.685C625.668 142.654 625.693 142.213 625.73 142.035L627.402 131.833C627.434 131.568 627.471 131.39 627.463 131.214C627.44 130.687 627.089 130.702 626.825 130.713L624.935 130.795L629.029 106.351C629.061 106.085 629.098 105.908 629.09 105.732C629.071 105.292 628.847 105.214 628.408 105.233L614.209 105.848C613.506 105.878 613.519 106.186 613.445 106.497L612.741 110.58C611.577 117.28 610.59 120.934 610.204 122.184C609.17 125.752 607.969 128.535 605.944 131.617L604.67 131.673C603.966 131.703 603.932 131.925 603.861 132.324L602.145 142.528C602.149 142.616 602.151 142.66 602.154 142.748C602.16 142.88 602.078 143.015 602.084 143.147C602.101 143.543 602.326 143.665 602.81 143.644L606.678 143.477C607.381 143.446 607.406 143.005 607.443 142.827L608.524 136.262L621.448 135.703ZM618.151 110.433L622.679 110.237L619.176 131.044L611.571 131.374C612.974 129.199 613.819 127.357 614.756 124.586C615.812 121.501 616.759 117.937 617.474 114.118L618.151 110.433ZM644.606 109.288L649.573 109.073L645.479 133.517C645.446 133.782 645.41 133.96 645.417 134.136C645.436 134.576 645.66 134.654 646.1 134.635L650.364 134.45C651.067 134.42 651.054 134.112 651.128 133.801L655.923 105.186C655.955 104.921 655.992 104.743 655.984 104.567C655.965 104.128 655.741 104.049 655.302 104.068L640.839 104.695C640.136 104.725 640.149 105.033 640.075 105.344L638.802 112.578C638.38 115.019 636.689 123.768 635.453 126.772C634.379 129.417 632.924 130.405 631 130.709L630.256 130.829C629.688 130.942 629.625 131.517 629.635 131.737L630.026 135.683C630.091 136.165 630.484 136.104 630.746 136.049L631.446 135.93C634.944 135.338 637.203 133.611 638.658 131.61C640.569 128.973 641.793 124.692 643.752 113.993L644.606 109.288ZM672.425 103.327C669.92 103.435 666.986 103.827 664.694 105.82C662.742 107.534 661.586 110.314 661.715 113.303C661.858 116.6 663.652 118.372 665.712 119.164L665.676 119.342C662.956 120.605 662.09 122.976 661.652 124.052L660.619 126.651C659.864 128.534 659.635 129.336 658.197 129.707L657.022 130.022C656.368 130.183 656.391 130.71 656.445 130.928L657.161 134.244C657.218 134.55 657.189 134.903 658.112 134.864C658.992 134.825 660.125 134.556 660.949 134.256C663.942 133.202 664.642 131.057 665.466 128.732L666.914 124.529C667.615 122.429 668.632 121.504 670.786 121.411L672.369 121.342L670.515 132.433C670.482 132.698 670.446 132.876 670.454 133.052C670.473 133.491 670.696 133.57 671.136 133.551L675.4 133.366C676.103 133.336 676.09 133.028 676.164 132.717L680.959 104.102C680.991 103.837 681.028 103.659 681.02 103.483C681.001 103.043 680.778 102.965 680.338 102.984L672.425 103.327ZM673.09 116.642L671.068 116.73C668.782 116.829 667.523 115.21 667.435 113.188C667.373 111.737 667.921 110.172 668.938 109.247C670.083 108.229 671.444 108.126 672.631 108.074L674.565 107.991L673.09 116.642ZM699.403 102.159C698.7 102.189 698.713 102.497 698.639 102.808L693.844 131.422C693.812 131.688 693.775 131.866 693.783 132.042C693.802 132.481 694.026 132.56 694.465 132.541L698.729 132.356C699.433 132.326 699.419 132.018 699.494 131.706L703.697 106.729L711.346 106.398L707.208 130.844C707.133 131.155 707.141 131.331 707.146 131.463C707.165 131.903 707.389 131.981 707.829 131.962L712.093 131.777C712.796 131.747 712.783 131.439 712.857 131.128L717.652 102.513C717.684 102.248 717.721 102.07 717.713 101.894C717.694 101.455 717.47 101.376 717.031 101.395L699.403 102.159ZM734.157 100.654C731.651 100.762 728.717 101.153 726.425 103.146C724.474 104.86 723.317 107.641 723.446 110.63C723.589 113.927 725.383 115.699 727.444 116.491L727.407 116.669C724.687 117.931 723.821 120.303 723.383 121.379L722.351 123.978C721.595 125.861 721.366 126.663 719.929 127.034L718.753 127.349C718.099 127.509 718.122 128.037 718.176 128.255L718.892 131.571C718.949 131.877 718.92 132.23 719.844 132.19C720.723 132.152 721.856 131.883 722.68 131.583C725.673 130.529 726.373 128.384 727.197 126.058L728.645 121.856C729.347 119.756 730.363 118.831 732.517 118.737L734.1 118.669L732.246 129.76C732.214 130.025 732.177 130.203 732.185 130.379C732.204 130.818 732.427 130.897 732.867 130.878L737.131 130.693C737.834 130.663 737.821 130.355 737.896 130.043L742.69 101.429C742.723 101.163 742.759 100.986 742.751 100.81C742.732 100.37 742.509 100.292 742.069 100.311L734.157 100.654ZM734.821 113.969L732.799 114.057C730.513 114.156 729.254 112.537 729.167 110.515C729.104 109.064 729.653 107.499 730.669 106.574C731.815 105.556 733.175 105.453 734.362 105.401L736.296 105.317L734.821 113.969ZM758.698 104.656L764.149 104.42C764.457 104.406 764.767 104.437 765.048 103.808L766.652 100.171C766.69 100.038 766.772 99.9018 766.807 99.6801C766.805 99.6362 766.803 99.5922 766.801 99.5483C766.742 99.1985 766.304 99.2615 766.04 99.2729L748.061 100.051C747.27 100.086 747.369 100.346 747.297 100.701L746.692 104.03C746.618 104.342 746.581 104.52 746.589 104.696C746.612 105.223 747.049 105.16 747.357 105.147L752.984 104.903L748.876 129.039C748.802 129.351 748.809 129.527 748.815 129.659C748.834 130.098 749.058 130.177 749.497 130.158L753.761 129.973C754.465 129.942 754.451 129.635 754.526 129.323L758.698 104.656ZM771.223 99.0485C770.519 99.079 770.533 99.3867 770.458 99.6982L765.664 128.312C765.631 128.578 765.595 128.756 765.602 128.932C765.621 129.371 765.845 129.45 766.285 129.431L780.879 128.799C781.582 128.768 781.569 128.46 781.644 128.149L782.239 124.6C782.306 124.112 781.646 124.141 781.47 124.149L772.019 124.558L773.483 115.642L781.044 115.315C781.615 115.29 781.701 115.242 781.808 114.665L782.329 111.428C782.361 111.162 782.47 110.629 781.723 110.661L774.294 110.983L775.555 103.485L784.171 103.112C784.478 103.099 784.788 103.129 785.069 102.501L786.517 99.3111C786.595 99.0875 786.677 98.9518 786.669 98.776C786.65 98.3364 786.213 98.3994 785.905 98.4127L771.223 99.0485ZM794.791 98.0279C794.087 98.0584 794.101 98.3661 794.026 98.6776L789.231 127.292C789.199 127.557 789.163 127.735 789.17 127.911C789.189 128.351 789.413 128.429 789.852 128.41L794.116 128.225C794.82 128.195 794.806 127.887 794.881 127.576L796.804 116.042L799.09 115.943C806.607 115.617 811.028 110.934 810.748 104.472C810.472 98.0976 805.868 97.5482 802.703 97.6853L794.791 98.0279ZM797.609 111.25L799.04 102.6L801.282 102.503C802.425 102.454 804.938 102.521 805.07 105.554C805.135 107.049 804.906 110.934 798.928 111.193L797.609 111.25ZM834.748 105.018C834.645 102.644 833.943 95.5838 826.47 95.9074C823.612 96.0311 818.867 97.2936 815.527 103.56C813.288 107.797 812.35 113.607 812.571 118.706C812.904 126.399 817.244 127.973 820.805 127.818C824.937 127.639 829.196 125.297 831.882 120.204C834.037 116.059 834.949 109.677 834.748 105.018ZM821.572 123.161C818.979 123.273 818.608 120.823 818.53 119.021C818.387 115.724 818.736 110.556 820.518 105.942C821.268 103.928 822.889 100.687 825.834 100.559C828.516 100.443 828.724 103.209 828.786 104.659C828.937 108.132 828.709 113.031 826.888 117.778C826.097 119.838 824.561 123.031 821.572 123.161ZM842.42 95.9654C841.628 95.9997 841.475 96.5348 841.403 96.8903L839.621 107.625C839.512 108.159 839.535 108.686 839.558 109.214C839.621 110.664 839.905 112.149 841.371 113.451C842.972 114.835 844.826 114.931 846.277 114.868C847.947 114.796 849.826 114.45 852.16 113.424L850.235 124.914C850.163 125.27 850.01 125.805 850.933 125.765L854.977 125.59C855.373 125.573 855.854 125.508 855.994 124.665L860.788 96.0508C860.863 95.7393 860.926 95.164 860.047 95.2021L856.003 95.3772C855.168 95.4134 855.103 95.9447 855.03 96.3002L852.971 108.765C851.163 109.724 849.72 109.963 848.577 110.012C847.39 110.064 845.531 109.836 845.443 107.814C845.422 107.33 845.445 106.845 845.554 106.312L847.161 96.6409C847.232 96.2415 847.343 95.7522 846.464 95.7903L842.42 95.9654ZM869.061 94.8118C868.709 94.827 868.184 94.8938 868.044 95.7366L863.25 124.351C863.11 125.194 863.639 125.215 863.991 125.2L867.991 125.026C868.914 124.986 868.935 124.457 869.008 124.101L871.109 111.591L873.658 111.48C876.384 111.362 876.498 112.987 876.555 114.306L876.828 119.579C876.94 122.173 877.374 124.048 879.696 124.784C880.366 125.019 881.607 125.185 882.486 125.147C883.014 125.125 883.451 125.062 883.688 124.435L885.038 121.029C885.317 120.356 885.046 120.192 884.736 120.161L883.494 119.951C882.164 119.744 882.114 118.601 882.048 117.063L881.844 113.372C881.716 111.44 881.244 109.699 878.833 108.922L878.827 108.79C881.43 107.885 882.464 106.343 883.166 104.242L884.218 101.07C884.843 99.2371 885.252 98.5147 886.644 98.1022L887.557 97.8424C887.993 97.7354 888.198 97.3742 888.133 96.8926L887.69 93.7848C887.625 93.3032 887.14 93.2802 886.832 93.2935C885.689 93.343 884.084 93.897 883.009 94.516C880.775 95.8019 880.107 97.6805 879.522 99.4235L878.234 103.223C877.26 106.172 875.915 106.626 874.068 106.706L871.914 106.8L873.803 95.4873C873.835 95.2216 874.028 94.5967 873.061 94.6385L869.061 94.8118ZM909.798 93.0477C909.007 93.082 908.894 93.5273 908.563 94.0261L900.797 105.901C899.931 107.26 897.563 111.546 896.951 112.674L896.775 112.682C897.695 107.489 897.226 110.9 897.925 106.686L899.957 94.6189C900.031 94.3074 900.024 94.1316 900.018 93.9997C899.999 93.5601 899.775 93.4817 899.336 93.5008L895.072 93.6854C894.368 93.7159 894.382 94.0236 894.307 94.3351L889.512 122.949C889.48 123.215 889.444 123.393 889.451 123.569C889.47 124.008 889.694 124.087 890.133 124.067L894.178 123.892C894.793 123.866 894.961 123.682 895.332 123.094L903.709 110.091C904.946 108.144 905.979 106.558 907.025 104.266L907.2 104.259C906.904 105.549 906.47 107.725 906.257 108.924L904.019 122.321C903.986 122.587 903.95 122.765 903.958 122.94C903.977 123.38 904.2 123.458 904.64 123.439L908.904 123.255C909.607 123.224 909.594 122.917 909.668 122.605L914.463 93.9908C914.496 93.7251 914.532 93.5474 914.524 93.3715C914.505 92.9319 914.282 92.8535 913.842 92.8726L909.798 93.0477Z" fill="#F7D431"/>
<path d="M358.894 116.904C358.191 116.934 358.204 117.242 358.13 117.553L353.335 146.168C353.303 146.433 353.266 146.611 353.274 146.787C353.293 147.226 353.517 147.305 353.956 147.286L358.22 147.101C358.924 147.071 358.91 146.763 358.985 146.452L361.076 133.721L369.164 133.371L367.138 145.57C367.106 145.836 367.069 146.013 367.077 146.189C367.096 146.629 367.32 146.707 367.759 146.688L372.023 146.503C372.727 146.473 372.713 146.165 372.788 145.854L377.582 117.24C377.615 116.974 377.651 116.796 377.644 116.62C377.625 116.181 377.401 116.102 376.961 116.121L372.697 116.306C371.994 116.336 372.007 116.644 371.933 116.956L369.97 128.58L361.925 128.928L363.779 117.837C363.812 117.572 363.848 117.394 363.841 117.218C363.822 116.778 363.598 116.7 363.158 116.719L358.894 116.904ZM402.629 123.73C402.526 121.356 401.824 114.296 394.351 114.62C391.494 114.743 386.748 116.006 383.408 122.272C381.169 126.509 380.232 132.319 380.453 137.418C380.786 145.111 385.126 146.685 388.686 146.531C392.819 146.352 397.077 144.009 399.763 138.916C401.918 134.771 402.831 128.39 402.629 123.73ZM389.454 141.873C386.86 141.985 386.49 139.535 386.412 137.733C386.269 134.436 386.618 129.268 388.4 124.655C389.149 122.64 390.771 119.399 393.716 119.272C396.397 119.155 396.605 121.921 396.668 123.372C396.818 126.844 396.59 131.743 394.77 136.49C393.978 138.55 392.443 141.744 389.454 141.873ZM411.18 114.64C410.477 114.67 410.49 114.978 410.416 115.289L405.621 143.904C405.589 144.169 405.552 144.347 405.56 144.523C405.579 144.962 405.803 145.041 406.242 145.022L413.451 144.71C417.012 144.555 421.041 144.029 423.717 140.742C424.971 139.19 425.845 136.994 425.744 134.664C425.613 131.631 423.928 129.326 421.384 128.555C422.42 128.07 423.706 127.266 424.637 126.388C426.117 124.959 427.09 123.023 426.983 120.561C426.703 114.1 420.368 114.242 418.609 114.318L411.18 114.64ZM414.141 127.063L415.503 118.857L417.613 118.765C418.844 118.712 421.173 118.611 421.299 121.512C421.352 122.743 421.054 123.989 420.389 124.899C419.184 126.581 417.262 126.928 415.767 126.993L414.141 127.063ZM411.898 140.373L413.408 131.499L415.869 131.392C417.232 131.333 419.656 131.361 419.798 134.657C419.882 136.592 419.186 137.811 418.641 138.451C417.301 140.051 415.371 140.222 413.701 140.295L411.898 140.373ZM435.478 113.587C434.775 113.618 434.788 113.926 434.713 114.237L429.963 142.849C429.93 143.115 429.894 143.293 429.901 143.469C429.92 143.908 430.144 143.987 430.584 143.968L438.408 143.629C441.529 143.494 445.467 142.883 448.017 139.733C449.647 137.725 450.355 134.744 450.247 132.238C450.123 129.381 448.822 127.807 447.952 127.052C445.846 125.206 443.161 125.234 441.359 125.312L438.589 125.432L440.363 114.521C440.395 114.255 440.432 114.078 440.424 113.902C440.405 113.462 440.181 113.384 439.742 113.403L435.478 113.587ZM436.312 138.963L437.784 130.223L439.762 130.138C440.993 130.084 444.196 129.813 444.352 133.418C444.405 134.649 444.067 135.985 443.272 136.944C441.891 138.633 439.697 138.817 438.203 138.881L436.312 138.963ZM457.941 112.615C457.237 112.645 457.251 112.953 457.176 113.264L452.382 141.879C452.349 142.144 452.313 142.322 452.32 142.498C452.339 142.937 452.563 143.016 453.003 142.997L457.267 142.812C457.97 142.782 457.957 142.474 458.031 142.162L462.826 113.548C462.858 113.283 462.895 113.105 462.887 112.929C462.868 112.489 462.644 112.411 462.205 112.43L457.941 112.615ZM485.707 111.412C484.916 111.447 484.803 111.892 484.472 112.391L476.707 124.266C475.841 125.624 473.472 129.911 472.86 131.039L472.684 131.046C473.604 125.853 473.136 129.265 473.834 125.051L475.866 112.984C475.94 112.672 475.933 112.496 475.927 112.364C475.908 111.925 475.684 111.846 475.245 111.865L470.981 112.05C470.277 112.08 470.291 112.388 470.216 112.7L465.422 141.314C465.389 141.58 465.353 141.757 465.36 141.933C465.379 142.373 465.603 142.451 466.043 142.432L470.087 142.257C470.702 142.23 470.87 142.047 471.241 141.458L479.619 128.456C480.856 126.508 481.888 124.922 482.934 122.631L483.11 122.623C482.813 123.913 482.379 126.09 482.166 127.288L479.928 140.686C479.895 140.951 479.859 141.129 479.867 141.305C479.886 141.745 480.109 141.823 480.549 141.804L484.813 141.619C485.516 141.589 485.503 141.281 485.578 140.97L490.372 112.355C490.405 112.09 490.441 111.912 490.433 111.736C490.414 111.297 490.191 111.218 489.751 111.237L485.707 111.412ZM475.388 103.976C475.126 104.031 474.694 104.226 474.709 104.578L474.722 104.885C474.781 106.248 475.219 107.198 475.639 107.752C476.625 109.163 478.148 109.758 480.214 109.668C483.204 109.539 485.253 108.041 486.153 106.46C486.522 105.828 487.033 104.396 487.012 103.913C486.998 103.605 486.687 103.531 486.555 103.536L484.034 103.293C483.902 103.299 483.812 103.259 483.681 103.264C483.197 103.285 483.124 103.641 482.966 104.044C482.491 105.298 481.733 106.079 480.458 106.134C478.919 106.201 478.694 105.066 478.648 104.011L478.644 103.923C478.625 103.483 478.405 103.493 477.706 103.611L475.388 103.976ZM508.757 110.414C508.053 110.445 508.067 110.752 507.992 111.064L503.198 139.678C503.165 139.944 503.129 140.121 503.136 140.297C503.155 140.737 503.379 140.815 503.819 140.796L511.028 140.484C514.589 140.33 518.618 139.803 521.294 136.516C522.548 134.965 523.422 132.769 523.321 130.439C523.189 127.406 521.504 125.1 518.96 124.33C519.996 123.845 521.283 123.04 522.214 122.163C523.693 120.734 524.666 118.798 524.56 116.336C524.28 109.874 517.944 110.016 516.186 110.092L508.757 110.414ZM511.717 122.838L513.079 114.631L515.189 114.54C516.42 114.486 518.75 114.386 518.876 117.287C518.929 118.518 518.631 119.764 517.965 120.673C516.761 122.355 514.838 122.703 513.344 122.767L511.717 122.838ZM509.475 136.147L510.984 127.274L513.446 127.167C514.809 127.108 517.232 127.135 517.375 130.432C517.459 132.366 516.763 133.586 516.218 134.226C514.878 135.825 512.948 135.997 511.277 136.069L509.475 136.147ZM533.274 109.353C532.922 109.368 532.397 109.435 532.257 110.277L527.463 138.892C527.323 139.734 527.852 139.756 528.204 139.74L532.204 139.567C533.127 139.527 533.149 138.998 533.221 138.642L535.322 126.132L537.872 126.021C540.597 125.903 540.711 127.528 540.769 128.847L541.041 134.12C541.153 136.713 541.587 138.588 543.909 139.324C544.58 139.56 545.82 139.726 546.699 139.688C547.227 139.665 547.664 139.602 547.901 138.975L549.251 135.57C549.531 134.897 549.259 134.733 548.95 134.702L547.707 134.492C546.377 134.285 546.328 133.142 546.261 131.603L546.057 127.913C545.929 125.981 545.458 124.239 543.046 123.463L543.04 123.331C545.643 122.426 546.678 120.883 547.379 118.783L548.431 115.611C549.056 113.778 549.466 113.055 550.857 112.643L551.771 112.383C552.206 112.276 552.411 111.915 552.346 111.433L551.903 108.326C551.838 107.844 551.353 107.821 551.045 107.834C549.902 107.884 548.297 108.438 547.222 109.057C544.988 110.343 544.321 112.221 543.735 113.964L542.447 117.764C541.473 120.712 540.128 121.167 538.281 121.247L536.127 121.34L538.016 110.028C538.048 109.762 538.242 109.137 537.274 109.179L533.274 109.353ZM564.387 125.357C564.204 123.163 563.803 120.01 563.675 119.09L562.075 108.59C561.953 107.802 562.077 107.621 560.808 107.808L556.823 108.333C556.297 108.4 555.726 108.424 555.747 108.908C555.753 109.04 555.714 109.174 555.823 109.653L559.721 129.479C559.782 129.873 560.001 129.863 560.133 129.858L562.947 129.736L562.35 131.215C561.993 132.111 560.899 134.317 558.569 134.418C557.822 134.45 557.107 134.217 556.566 133.932C556.069 133.645 555.659 133.311 555.351 133.324C555.175 133.331 554.961 133.473 554.881 133.653L553.045 137.035C552.271 138.478 556.972 139.243 558.379 139.182C560.665 139.083 562.261 138.31 563.324 137.427C564.855 136.171 565.7 134.329 566.383 132.802L576.927 108.827C576.967 108.738 577.006 108.604 577.046 108.514C577.044 108.47 577.088 108.468 577.086 108.424C577.168 108.289 577.252 108.197 577.247 108.065C577.226 107.581 576.698 107.604 576.389 107.574L572.587 107.254C571.836 107.198 571.771 107.73 571.53 108.268L567.104 118.942C565.629 122.529 564.798 124.679 564.562 125.35L564.387 125.357ZM590.186 131.727C590.091 131.555 590.041 131.425 589.865 131.433C589.557 131.446 589.173 131.727 588.787 131.964C587.158 133.003 585.847 133.236 585.056 133.271C583.649 133.332 582.795 132.928 582.247 132.467C581.148 131.502 580.934 129.618 580.879 128.343C580.719 124.65 581.093 120.054 582.943 116.01C584.75 111.968 587.22 111.024 588.846 110.954C590.033 110.902 590.797 111.266 591.936 112.141C592.393 112.518 592.758 112.81 593.242 112.789C593.505 112.778 593.628 112.552 593.67 112.507L595.643 109.25C595.683 109.16 595.769 109.113 595.761 108.937C595.742 108.497 595.24 108.078 594.922 107.872C592.968 106.459 590.619 106.121 588.948 106.193C586.267 106.309 581.33 107.227 577.938 113.32C575.527 117.652 574.693 122.797 574.914 127.896C575.019 130.314 575.544 134.299 578.37 136.511C579.692 137.555 581.569 138.178 583.811 138.081C586.009 137.986 588.482 137.13 590.162 136.265C590.722 135.976 591.583 135.498 591.562 135.015C591.556 134.883 591.504 134.709 591.457 134.623L590.186 131.727Z" fill="white"/>
</g>
<path d="M219.468 187.625C219.288 187.625 219.068 187.665 219.068 188.025V200.925C219.068 201.105 219.108 201.325 219.468 201.325H222.788C224.968 201.325 227.748 200.945 227.748 197.545C227.748 195.045 226.048 194.345 225.248 194.145C226.248 193.725 227.288 192.865 227.288 191.125C227.288 189.765 226.668 188.865 226.068 188.405C225.088 187.665 223.608 187.625 222.628 187.625H219.468ZM221.788 193.285V189.725H222.628C224.468 189.725 224.588 190.865 224.588 191.405C224.588 193.085 223.368 193.285 222.408 193.285H221.788ZM221.788 199.225V195.385H222.548C223.328 195.385 225.048 195.385 225.048 197.325C225.048 199.065 223.688 199.225 222.508 199.225H221.788ZM232.528 201.325C232.888 201.325 232.888 201.185 232.888 201.045V197.185H233.708C234.628 197.185 234.748 197.625 234.868 198.165L235.248 199.825C235.388 200.425 235.608 200.905 236.088 201.225C236.608 201.585 237.548 201.665 237.928 201.665C238.368 201.665 238.408 201.505 238.448 201.365L238.808 200.085C238.908 199.705 238.728 199.665 238.588 199.645L238.148 199.565C237.708 199.485 237.628 199.285 237.468 198.805L237.088 197.705C236.868 197.085 236.668 196.365 235.708 196.165V196.105C236.548 195.945 236.808 195.265 236.928 194.845L237.148 194.065C237.368 193.265 237.568 193.225 237.968 193.145L238.268 193.085C238.468 193.045 238.568 192.905 238.528 192.765L238.128 191.305C238.088 191.185 238.048 191.105 237.768 191.105C237.408 191.105 236.488 191.225 235.928 191.725C235.448 192.145 235.268 192.725 235.188 193.065L234.928 194.205C234.808 194.745 234.688 195.185 233.768 195.185H232.888V191.365C232.888 191.065 232.728 191.085 232.568 191.125L231.008 191.445C230.328 191.585 230.348 191.605 230.348 191.865V201.045C230.348 201.185 230.348 201.325 230.708 201.325H232.528ZM246.365 191.265C245.985 191.225 245.865 191.445 245.805 191.685L244.745 196.505C244.685 196.825 244.505 197.365 244.085 199.965H244.045C243.905 199.225 243.485 197.245 243.285 196.505L241.985 191.665C241.865 191.185 241.785 191.245 241.385 191.285L239.725 191.445C239.505 191.465 239.285 191.485 239.285 191.685C239.285 191.785 239.325 191.865 239.385 192.025L242.445 201.065C242.545 201.365 242.665 201.325 242.805 201.325H243.645L243.445 201.985C243.225 202.705 242.945 203.465 241.865 203.465C241.305 203.465 240.785 203.245 240.465 203.085C240.325 203.005 240.245 202.965 240.165 202.965C240.105 202.965 240.025 202.985 239.965 203.105L239.325 204.485C239.245 204.665 239.225 204.805 239.805 205.065C240.585 205.425 241.325 205.565 242.005 205.565C242.865 205.565 244.125 205.345 244.885 203.825C245.225 203.145 245.525 202.065 246.285 199.245L248.245 192.045C248.305 191.825 248.325 191.765 248.325 191.705C248.325 191.505 248.105 191.485 247.905 191.465L246.365 191.265ZM256.681 192.505C256.721 192.445 256.741 192.405 256.741 192.325C256.741 192.205 256.661 192.025 256.301 191.785C255.761 191.445 254.961 191.105 253.881 191.105C251.481 191.105 249.241 192.625 249.241 196.605C249.241 200.425 251.421 201.665 253.721 201.665C254.501 201.665 255.341 201.485 256.001 201.125C256.301 200.965 256.501 200.765 256.501 200.605C256.501 200.545 256.461 200.445 256.441 200.405L255.921 199.085C255.901 199.025 255.821 198.985 255.781 198.985C255.641 198.985 255.421 199.165 255.181 199.305C254.821 199.525 254.441 199.665 253.921 199.665C253.061 199.665 252.581 199.205 252.321 198.765C252.101 198.385 251.941 197.765 251.941 196.545C251.941 194.965 252.221 194.305 252.341 194.045C252.621 193.485 253.101 193.105 253.881 193.105C254.401 193.105 254.801 193.265 255.221 193.545C255.521 193.745 255.681 193.905 255.801 193.905C255.881 193.905 255.921 193.845 255.941 193.805L256.681 192.505ZM262.029 201.325C263.089 201.325 264.429 201.285 265.369 200.525C266.309 199.785 266.429 198.745 266.429 198.025C266.429 197.185 266.229 196.345 265.449 195.685C264.549 194.925 263.429 194.885 262.309 194.885H261.189V191.365C261.189 191.065 261.029 191.085 260.869 191.125L259.349 191.445C258.629 191.605 258.649 191.585 258.649 191.865V201.045C258.649 201.305 258.709 201.325 258.929 201.325H262.029ZM261.189 196.885H262.409C262.829 196.885 263.889 196.905 263.889 198.105C263.889 199.265 262.929 199.325 262.189 199.325H261.189V196.885ZM267.809 201.045C267.809 201.305 267.869 201.325 268.089 201.325H270.069C270.329 201.325 270.349 201.265 270.349 201.045V191.365C270.349 191.065 270.189 191.085 270.029 191.125L268.189 191.505C267.789 191.585 267.809 191.685 267.809 191.865V201.045ZM279.149 193.245L279.169 193.025C279.349 191.085 280.929 190.325 281.469 190.085L285.629 188.305C286.009 188.145 285.929 187.885 285.889 187.805L285.209 186.325C285.069 186.005 284.709 186.185 284.589 186.245L280.829 187.945C279.289 188.645 278.249 189.985 277.789 191.265C277.369 192.385 277.309 193.745 277.309 195.225C277.309 196.525 277.369 198.045 277.969 199.305C278.989 201.405 280.829 201.665 281.749 201.665C283.989 201.665 286.089 200.065 286.089 196.585C286.089 193.445 284.509 191.565 282.149 191.565C280.809 191.565 279.789 192.145 279.229 193.245H279.149ZM281.749 199.665C280.189 199.665 280.109 197.845 280.109 196.585C280.109 195.345 280.189 193.565 281.749 193.565C283.309 193.565 283.389 195.345 283.389 196.585C283.389 197.845 283.309 199.665 281.749 199.665ZM294.236 191.265C293.856 191.225 293.736 191.445 293.676 191.685L292.616 196.505C292.556 196.825 292.376 197.365 291.956 199.965H291.916C291.776 199.225 291.356 197.245 291.156 196.505L289.856 191.665C289.736 191.185 289.656 191.245 289.256 191.285L287.596 191.445C287.376 191.465 287.156 191.485 287.156 191.685C287.156 191.785 287.196 191.865 287.256 192.025L290.316 201.065C290.416 201.365 290.536 201.325 290.676 201.325H291.516L291.316 201.985C291.096 202.705 290.816 203.465 289.736 203.465C289.176 203.465 288.656 203.245 288.336 203.085C288.196 203.005 288.116 202.965 288.036 202.965C287.976 202.965 287.896 202.985 287.836 203.105L287.196 204.485C287.116 204.665 287.096 204.805 287.676 205.065C288.456 205.425 289.196 205.565 289.876 205.565C290.736 205.565 291.996 205.345 292.756 203.825C293.096 203.145 293.396 202.065 294.156 199.245L296.116 192.045C296.176 191.825 296.196 191.765 296.196 191.705C296.196 191.505 295.976 191.485 295.776 191.465L294.236 191.265ZM304.804 191.725C304.804 191.625 304.824 191.445 304.524 191.445H298.484C298.164 191.445 298.204 191.585 298.204 191.725V192.625C298.204 195.265 298.164 197.165 297.004 199.325H296.364C296.224 199.325 296.084 199.285 296.084 199.605V203.845C296.084 204.065 296.144 204.125 296.364 204.125H298.244C298.504 204.125 298.524 204.065 298.524 203.845V201.325H303.604V203.845C303.604 204.065 303.664 204.125 303.884 204.125H305.764C306.024 204.125 306.044 204.065 306.044 203.845V199.605C306.044 199.285 305.904 199.325 305.764 199.325H304.804V191.725ZM302.264 199.325H299.444C300.324 197.485 300.464 195.765 300.464 194.085V193.445H302.264V199.325ZM313.767 191.265C313.387 191.225 313.267 191.445 313.207 191.685L312.147 196.505C312.087 196.825 311.907 197.365 311.487 199.965H311.447C311.307 199.225 310.887 197.245 310.687 196.505L309.387 191.665C309.267 191.185 309.187 191.245 308.787 191.285L307.127 191.445C306.907 191.465 306.687 191.485 306.687 191.685C306.687 191.785 306.727 191.865 306.787 192.025L309.847 201.065C309.947 201.365 310.067 201.325 310.207 201.325H311.047L310.847 201.985C310.627 202.705 310.347 203.465 309.267 203.465C308.707 203.465 308.187 203.245 307.867 203.085C307.727 203.005 307.647 202.965 307.567 202.965C307.507 202.965 307.427 202.985 307.367 203.105L306.727 204.485C306.647 204.665 306.627 204.805 307.207 205.065C307.987 205.425 308.727 205.565 309.407 205.565C310.267 205.565 311.527 205.345 312.287 203.825C312.627 203.145 312.927 202.065 313.687 199.245L315.647 192.045C315.707 191.825 315.727 191.765 315.727 191.705C315.727 191.505 315.507 191.485 315.307 191.465L313.767 191.265ZM321.319 193.445H323.519C323.619 193.445 323.759 193.405 323.819 193.165L324.099 191.845C324.139 191.645 324.219 191.445 323.799 191.445H316.499C316.279 191.445 316.219 191.505 316.219 191.725V193.165C316.219 193.385 316.279 193.445 316.499 193.445H318.779V201.045C318.779 201.305 318.839 201.325 319.059 201.325H321.039C321.299 201.325 321.319 201.265 321.319 201.045V193.445ZM337.773 191.725C337.773 191.625 337.793 191.445 337.493 191.445H331.453C331.133 191.445 331.173 191.585 331.173 191.725V192.625C331.173 195.265 331.133 197.165 329.973 199.325H329.333C329.193 199.325 329.053 199.285 329.053 199.605V203.845C329.053 204.065 329.113 204.125 329.333 204.125H331.213C331.473 204.125 331.493 204.065 331.493 203.845V201.325H336.573V203.845C336.573 204.065 336.633 204.125 336.853 204.125H338.733C338.993 204.125 339.013 204.065 339.013 203.845V199.605C339.013 199.285 338.873 199.325 338.733 199.325H337.773V191.725ZM335.233 199.325H332.413C333.293 197.485 333.433 195.765 333.433 194.085V193.445H335.233V199.325ZM348.976 196.385C348.976 192.625 346.836 191.105 344.636 191.105C342.436 191.105 340.296 192.625 340.296 196.385C340.296 200.145 342.436 201.665 344.636 201.665C346.836 201.665 348.976 200.145 348.976 196.385ZM344.636 199.665C343.076 199.665 342.996 197.905 342.996 196.385C342.996 194.865 343.116 193.105 344.636 193.105C346.156 193.105 346.276 194.865 346.276 196.385C346.276 197.925 346.176 199.665 344.636 199.665ZM358.087 192.505C358.127 192.445 358.147 192.405 358.147 192.325C358.147 192.205 358.067 192.025 357.707 191.785C357.167 191.445 356.367 191.105 355.287 191.105C352.887 191.105 350.647 192.625 350.647 196.605C350.647 200.425 352.827 201.665 355.127 201.665C355.907 201.665 356.747 201.485 357.407 201.125C357.707 200.965 357.907 200.765 357.907 200.605C357.907 200.545 357.867 200.445 357.847 200.405L357.327 199.085C357.307 199.025 357.227 198.985 357.187 198.985C357.047 198.985 356.827 199.165 356.587 199.305C356.227 199.525 355.847 199.665 355.327 199.665C354.467 199.665 353.987 199.205 353.727 198.765C353.507 198.385 353.347 197.765 353.347 196.545C353.347 194.965 353.627 194.305 353.747 194.045C354.027 193.485 354.507 193.105 355.287 193.105C355.807 193.105 356.207 193.265 356.627 193.545C356.927 193.745 357.087 193.905 357.207 193.905C357.287 193.905 357.327 193.845 357.347 193.805L358.087 192.505ZM363.955 193.445H366.155C366.255 193.445 366.395 193.405 366.455 193.165L366.735 191.845C366.775 191.645 366.855 191.445 366.435 191.445H359.135C358.915 191.445 358.855 191.505 358.855 191.725V193.165C358.855 193.385 358.915 193.445 359.135 193.445H361.415V201.045C361.415 201.305 361.475 201.325 361.695 201.325H363.675C363.935 201.325 363.955 201.265 363.955 201.045V193.445ZM374.002 191.265C373.622 191.225 373.502 191.445 373.442 191.685L372.382 196.505C372.322 196.825 372.142 197.365 371.722 199.965H371.682C371.542 199.225 371.122 197.245 370.922 196.505L369.622 191.665C369.502 191.185 369.422 191.245 369.022 191.285L367.362 191.445C367.142 191.465 366.922 191.485 366.922 191.685C366.922 191.785 366.962 191.865 367.022 192.025L370.082 201.065C370.182 201.365 370.302 201.325 370.442 201.325H371.282L371.082 201.985C370.862 202.705 370.582 203.465 369.502 203.465C368.942 203.465 368.422 203.245 368.102 203.085C367.962 203.005 367.882 202.965 367.802 202.965C367.742 202.965 367.662 202.985 367.602 203.105L366.962 204.485C366.882 204.665 366.862 204.805 367.442 205.065C368.222 205.425 368.962 205.565 369.642 205.565C370.502 205.565 371.762 205.345 372.522 203.825C372.862 203.145 373.162 202.065 373.922 199.245L375.882 192.045C375.942 191.825 375.962 191.765 375.962 191.705C375.962 191.505 375.742 191.485 375.542 191.465L374.002 191.265ZM383.013 193.445V201.045C383.013 201.265 383.073 201.325 383.293 201.325H385.273C385.533 201.325 385.553 201.265 385.553 201.045V191.725C385.553 191.465 385.493 191.445 385.273 191.445H377.933C377.713 191.445 377.653 191.465 377.653 191.725V201.045C377.653 201.265 377.673 201.325 377.933 201.325H379.913C380.173 201.325 380.193 201.265 380.193 201.045V193.445H383.013ZM393.776 195.145H390.896V191.365C390.896 191.065 390.736 191.085 390.576 191.125L388.996 191.445C388.316 191.585 388.356 191.645 388.356 191.865V201.045C388.356 201.265 388.416 201.325 388.636 201.325H390.616C390.876 201.325 390.896 201.265 390.896 201.045V197.145H393.776V201.045C393.776 201.305 393.836 201.325 394.056 201.325H396.036C396.296 201.325 396.316 201.265 396.316 201.045V191.365C396.316 191.065 396.156 191.085 395.996 191.125L394.156 191.505C393.756 191.585 393.776 191.685 393.776 191.865V195.145ZM402.498 201.325C403.558 201.325 404.898 201.285 405.838 200.525C406.778 199.785 406.898 198.745 406.898 198.025C406.898 197.185 406.698 196.345 405.918 195.685C405.018 194.925 403.898 194.885 402.778 194.885H401.658V191.365C401.658 191.065 401.498 191.085 401.338 191.125L399.818 191.445C399.098 191.605 399.118 191.585 399.118 191.865V201.045C399.118 201.305 399.178 201.325 399.398 201.325H402.498ZM401.658 196.885H402.878C403.298 196.885 404.358 196.905 404.358 198.105C404.358 199.265 403.398 199.325 402.658 199.325H401.658V196.885ZM408.278 201.045C408.278 201.305 408.338 201.325 408.558 201.325H410.538C410.798 201.325 410.818 201.265 410.818 201.045V191.365C410.818 191.065 410.658 191.085 410.498 191.125L408.658 191.505C408.258 191.585 408.278 191.685 408.278 191.865V201.045ZM425.898 191.725C425.898 191.625 425.918 191.445 425.618 191.445H419.578C419.258 191.445 419.298 191.585 419.298 191.725V192.625C419.298 195.265 419.258 197.165 418.098 199.325H417.458C417.318 199.325 417.178 199.285 417.178 199.605V203.845C417.178 204.065 417.238 204.125 417.458 204.125H419.338C419.598 204.125 419.618 204.065 419.618 203.845V201.325H424.698V203.845C424.698 204.065 424.758 204.125 424.978 204.125H426.858C427.118 204.125 427.138 204.065 427.138 203.845V199.605C427.138 199.285 426.998 199.325 426.858 199.325H425.898V191.725ZM423.358 199.325H420.538C421.418 197.485 421.558 195.765 421.558 194.085V193.445H423.358V199.325ZM434.241 193.445V201.045C434.241 201.265 434.301 201.325 434.521 201.325H436.501C436.761 201.325 436.781 201.265 436.781 201.045V191.725C436.781 191.505 436.721 191.445 436.501 191.445H430.361C430.101 191.445 430.081 191.505 430.081 191.725V192.625C430.081 193.805 430.041 196.865 429.821 197.925C429.621 198.965 429.161 199.305 428.481 199.465L428.141 199.545C428.021 199.565 427.801 199.585 427.881 199.885L428.281 201.365C428.321 201.505 428.361 201.665 428.701 201.665C429.181 201.665 431.001 201.545 431.821 199.505C432.441 197.925 432.501 194.845 432.501 193.705V193.445H434.241ZM446.687 201.325C446.907 201.325 446.967 201.305 446.967 201.045V191.725C446.967 191.465 446.907 191.445 446.687 191.445H442.867C442.327 191.445 441.107 191.485 440.267 192.145C439.587 192.665 439.247 193.545 439.247 194.325C439.247 194.905 439.447 195.625 439.847 196.065C440.147 196.385 440.647 196.685 441.127 196.805V196.845C440.407 197.045 440.107 197.585 439.887 198.365L439.767 198.805C439.627 199.285 439.507 199.485 439.087 199.565L438.687 199.645C438.547 199.665 438.367 199.705 438.467 200.085L438.827 201.365C438.867 201.505 438.887 201.665 439.307 201.665C439.767 201.665 440.587 201.565 441.107 201.205C441.647 200.825 441.847 200.285 441.987 199.765L442.307 198.625C442.487 197.965 442.647 197.645 443.487 197.645H444.427V201.045C444.427 201.265 444.447 201.325 444.707 201.325H446.687ZM444.427 195.745H443.347C442.887 195.745 441.787 195.665 441.787 194.545C441.787 194.145 441.947 193.345 443.247 193.345H444.427V195.745ZM456.97 193.545H460.41C460.51 193.545 460.67 193.505 460.71 193.265L460.99 191.845C461.03 191.645 461.13 191.445 460.69 191.445H454.71C454.45 191.445 454.43 191.505 454.43 191.725V201.045C454.43 201.305 454.49 201.325 454.71 201.325H456.69C456.95 201.325 456.97 201.265 456.97 201.045V193.545ZM470.695 196.385C470.695 192.625 468.555 191.105 466.355 191.105C464.155 191.105 462.015 192.625 462.015 196.385C462.015 200.145 464.155 201.665 466.355 201.665C468.555 201.665 470.695 200.145 470.695 196.385ZM466.355 199.665C464.795 199.665 464.715 197.905 464.715 196.385C464.715 194.865 464.835 193.105 466.355 193.105C467.875 193.105 467.995 194.865 467.995 196.385C467.995 197.925 467.895 199.665 466.355 199.665ZM478.206 193.445V201.045C478.206 201.265 478.266 201.325 478.486 201.325H480.466C480.726 201.325 480.746 201.265 480.746 201.045V191.725C480.746 191.505 480.686 191.445 480.466 191.445H474.326C474.066 191.445 474.046 191.505 474.046 191.725V192.625C474.046 193.805 474.006 196.865 473.786 197.925C473.586 198.965 473.126 199.305 472.446 199.465L472.106 199.545C471.986 199.565 471.766 199.585 471.846 199.885L472.246 201.365C472.286 201.505 472.326 201.665 472.666 201.665C473.146 201.665 474.966 201.545 475.786 199.505C476.406 197.925 476.466 194.845 476.466 193.705V193.445H478.206ZM491.672 196.385C491.672 192.625 489.532 191.105 487.332 191.105C485.132 191.105 482.992 192.625 482.992 196.385C482.992 200.145 485.132 201.665 487.332 201.665C489.532 201.665 491.672 200.145 491.672 196.385ZM487.332 199.665C485.772 199.665 485.692 197.905 485.692 196.385C485.692 194.865 485.812 193.105 487.332 193.105C488.852 193.105 488.972 194.865 488.972 196.385C488.972 197.925 488.872 199.665 487.332 199.665ZM500.783 192.505C500.823 192.445 500.843 192.405 500.843 192.325C500.843 192.205 500.763 192.025 500.403 191.785C499.863 191.445 499.063 191.105 497.983 191.105C495.583 191.105 493.343 192.625 493.343 196.605C493.343 200.425 495.523 201.665 497.823 201.665C498.603 201.665 499.443 201.485 500.103 201.125C500.403 200.965 500.603 200.765 500.603 200.605C500.603 200.545 500.563 200.445 500.543 200.405L500.023 199.085C500.003 199.025 499.923 198.985 499.883 198.985C499.743 198.985 499.523 199.165 499.283 199.305C498.923 199.525 498.543 199.665 498.023 199.665C497.163 199.665 496.683 199.205 496.423 198.765C496.203 198.385 496.043 197.765 496.043 196.545C496.043 194.965 496.323 194.305 496.443 194.045C496.723 193.485 497.203 193.105 497.983 193.105C498.503 193.105 498.903 193.265 499.323 193.545C499.623 193.745 499.783 193.905 499.903 193.905C499.983 193.905 500.023 193.845 500.043 193.805L500.783 192.505ZM510.871 196.385C510.871 192.625 508.731 191.105 506.531 191.105C504.331 191.105 502.191 192.625 502.191 196.385C502.191 200.145 504.331 201.665 506.531 201.665C508.731 201.665 510.871 200.145 510.871 196.385ZM506.531 199.665C504.971 199.665 504.891 197.905 504.891 196.385C504.891 194.865 505.011 193.105 506.531 193.105C508.051 193.105 508.171 194.865 508.171 196.385C508.171 197.925 508.071 199.665 506.531 199.665ZM516.602 201.325C517.802 201.325 518.962 201.305 519.922 200.665C520.782 200.105 521.002 199.225 521.002 198.525C521.002 197.145 520.162 196.305 519.082 196.085C520.102 195.765 520.682 194.905 520.682 193.885C520.682 192.905 520.162 192.285 519.702 191.965C518.922 191.445 517.622 191.445 516.462 191.445H513.402C513.142 191.445 513.122 191.505 513.122 191.725V201.045C513.122 201.305 513.182 201.325 513.402 201.325H516.602ZM515.662 193.305H516.662C517.282 193.305 518.142 193.365 518.142 194.265C518.142 194.605 518.002 195.345 516.722 195.345H515.662V193.305ZM515.662 197.145H516.982C517.342 197.145 518.462 197.165 518.462 198.285C518.462 199.345 517.502 199.465 516.762 199.465H515.662V197.145ZM530.773 200.965C530.833 200.945 530.933 200.885 530.933 200.765C530.933 200.665 530.853 200.525 530.713 200.165C530.413 199.405 530.413 198.765 530.413 198.185V194.325C530.413 193.965 530.373 193.065 529.973 192.385C529.373 191.365 528.213 191.105 526.973 191.105C526.153 191.105 524.733 191.265 523.913 191.645C523.393 191.885 523.393 191.965 523.493 192.245L523.913 193.505C523.953 193.645 523.993 193.705 524.113 193.705C524.253 193.705 524.393 193.605 525.073 193.385C525.573 193.225 526.173 193.105 526.693 193.105C527.253 193.105 527.593 193.285 527.773 193.505C528.033 193.825 528.013 194.305 528.013 194.585V195.205C526.873 195.165 524.993 195.325 524.013 196.025C523.593 196.325 522.793 197.085 522.793 198.625C522.793 200.465 523.953 201.665 525.753 201.665C527.073 201.665 527.793 201.065 528.313 200.545L528.393 200.465C528.453 200.785 528.553 201.065 528.733 201.425C528.893 201.725 529.013 201.685 529.153 201.625L530.773 200.965ZM528.013 199.045C527.573 199.525 527.033 199.805 526.513 199.805C525.793 199.805 525.193 199.265 525.193 198.445C525.193 197.265 526.293 196.845 527.893 196.845H528.013V199.045ZM538.542 195.145H535.662V191.365C535.662 191.065 535.502 191.085 535.342 191.125L533.762 191.445C533.082 191.585 533.122 191.645 533.122 191.865V201.045C533.122 201.265 533.182 201.325 533.402 201.325H535.382C535.642 201.325 535.662 201.265 535.662 201.045V197.145H538.542V201.045C538.542 201.305 538.602 201.325 538.822 201.325H540.802C541.062 201.325 541.082 201.265 541.082 201.045V191.365C541.082 191.065 540.922 191.085 540.762 191.125L538.922 191.505C538.522 191.585 538.542 191.685 538.542 191.865V195.145ZM543.884 201.045C543.884 201.305 543.944 201.325 544.164 201.325H546.144C546.404 201.325 546.424 201.225 546.524 201.045L548.424 197.525C548.684 197.045 548.984 196.625 549.684 195.085H549.764C549.684 196.425 549.664 196.865 549.664 197.245V201.045C549.664 201.305 549.724 201.325 549.944 201.325H551.924C552.184 201.325 552.204 201.265 552.204 201.045V191.365C552.204 191.065 552.044 191.085 551.884 191.125L550.284 191.445C549.944 191.505 549.844 191.465 549.604 191.865L547.664 195.245C547.284 195.905 546.944 196.505 546.404 197.685H546.324C546.364 197.185 546.424 196.085 546.424 195.525V191.365C546.424 191.065 546.264 191.085 546.104 191.125L544.264 191.505C543.864 191.585 543.884 191.685 543.884 191.865V201.045ZM562.097 201.325C562.317 201.325 562.377 201.305 562.377 201.045V191.725C562.377 191.465 562.317 191.445 562.097 191.445H558.277C557.737 191.445 556.517 191.485 555.677 192.145C554.997 192.665 554.657 193.545 554.657 194.325C554.657 194.905 554.857 195.625 555.257 196.065C555.557 196.385 556.057 196.685 556.537 196.805V196.845C555.817 197.045 555.517 197.585 555.297 198.365L555.177 198.805C555.037 199.285 554.917 199.485 554.497 199.565L554.097 199.645C553.957 199.665 553.777 199.705 553.877 200.085L554.237 201.365C554.277 201.505 554.297 201.665 554.717 201.665C555.177 201.665 555.997 201.565 556.517 201.205C557.057 200.825 557.257 200.285 557.397 199.765L557.717 198.625C557.897 197.965 558.057 197.645 558.897 197.645H559.837V201.045C559.837 201.265 559.857 201.325 560.117 201.325H562.097ZM559.837 195.745H558.757C558.297 195.745 557.197 195.665 557.197 194.545C557.197 194.145 557.357 193.345 558.657 193.345H559.837V195.745ZM293.058 216.505C293.098 216.445 293.118 216.405 293.118 216.325C293.118 216.205 293.038 216.025 292.678 215.785C292.138 215.445 291.338 215.105 290.258 215.105C287.858 215.105 285.618 216.625 285.618 220.605C285.618 224.425 287.798 225.665 290.098 225.665C290.878 225.665 291.718 225.485 292.378 225.125C292.678 224.965 292.878 224.765 292.878 224.605C292.878 224.545 292.838 224.445 292.818 224.405L292.298 223.085C292.278 223.025 292.198 222.985 292.158 222.985C292.018 222.985 291.798 223.165 291.558 223.305C291.198 223.525 290.818 223.665 290.298 223.665C289.438 223.665 288.958 223.205 288.698 222.765C288.478 222.385 288.318 221.765 288.318 220.545C288.318 218.965 288.598 218.305 288.718 218.045C288.998 217.485 289.478 217.105 290.258 217.105C290.778 217.105 291.178 217.265 291.598 217.545C291.898 217.745 292.058 217.905 292.178 217.905C292.258 217.905 292.298 217.845 292.318 217.805L293.058 216.505ZM307.694 223.745C307.694 223.605 307.734 223.465 307.414 223.465H305.834V212.325C305.834 212.165 305.854 211.965 305.434 211.965H304.034L300.254 214.685C300.114 214.785 300.014 214.865 300.014 215.005C300.014 215.125 300.054 215.205 300.094 215.265L300.614 216.165C300.694 216.305 300.734 216.425 300.894 216.425C300.994 216.425 301.074 216.365 301.134 216.325L303.294 214.985V223.465H301.274C300.974 223.465 300.994 223.645 300.994 223.745V225.045C300.994 225.345 301.174 225.325 301.274 225.325H307.414C307.734 225.325 307.694 225.185 307.694 225.045V223.745ZM319.707 218.645C319.707 212.865 317.047 211.625 314.967 211.625C312.887 211.625 310.227 212.865 310.227 218.645C310.227 224.185 312.647 225.665 314.967 225.665C317.287 225.665 319.707 224.185 319.707 218.645ZM314.967 223.505C312.947 223.505 312.767 220.825 312.767 218.645C312.767 216.465 312.947 213.785 314.967 213.785C316.987 213.785 317.167 216.465 317.167 218.645C317.167 220.825 316.987 223.505 314.967 223.505ZM333.869 224.965C333.929 224.945 334.029 224.885 334.029 224.765C334.029 224.665 333.949 224.525 333.809 224.165C333.509 223.405 333.509 222.765 333.509 222.185V218.325C333.509 217.965 333.469 217.065 333.069 216.385C332.469 215.365 331.309 215.105 330.069 215.105C329.249 215.105 327.829 215.265 327.009 215.645C326.489 215.885 326.489 215.965 326.589 216.245L327.009 217.505C327.049 217.645 327.089 217.705 327.209 217.705C327.349 217.705 327.489 217.605 328.169 217.385C328.669 217.225 329.269 217.105 329.789 217.105C330.349 217.105 330.689 217.285 330.869 217.505C331.129 217.825 331.109 218.305 331.109 218.585V219.205C329.969 219.165 328.089 219.325 327.109 220.025C326.689 220.325 325.889 221.085 325.889 222.625C325.889 224.465 327.049 225.665 328.849 225.665C330.169 225.665 330.889 225.065 331.409 224.545L331.489 224.465C331.549 224.785 331.649 225.065 331.829 225.425C331.989 225.725 332.109 225.685 332.249 225.625L333.869 224.965ZM331.109 223.045C330.669 223.525 330.129 223.805 329.609 223.805C328.889 223.805 328.289 223.265 328.289 222.445C328.289 221.265 329.389 220.845 330.989 220.845H331.109V223.045ZM339.698 225.325C340.898 225.325 342.058 225.305 343.018 224.665C343.878 224.105 344.098 223.225 344.098 222.525C344.098 221.145 343.258 220.305 342.178 220.085C343.198 219.765 343.778 218.905 343.778 217.885C343.778 216.905 343.258 216.285 342.798 215.965C342.018 215.445 340.718 215.445 339.558 215.445H336.498C336.238 215.445 336.218 215.505 336.218 215.725V225.045C336.218 225.305 336.278 225.325 336.498 225.325H339.698ZM338.758 217.305H339.758C340.378 217.305 341.238 217.365 341.238 218.265C341.238 218.605 341.098 219.345 339.818 219.345H338.758V217.305ZM338.758 221.145H340.078C340.438 221.145 341.558 221.165 341.558 222.285C341.558 223.345 340.598 223.465 339.858 223.465H338.758V221.145ZM349.129 217.545H352.569C352.669 217.545 352.829 217.505 352.869 217.265L353.149 215.845C353.189 215.645 353.289 215.445 352.849 215.445H346.869C346.609 215.445 346.589 215.505 346.589 215.725V225.045C346.589 225.305 346.649 225.325 346.869 225.325H348.849C349.109 225.325 349.129 225.265 349.129 225.045V217.545ZM360.613 215.265C360.233 215.225 360.113 215.445 360.053 215.685L358.993 220.505C358.933 220.825 358.753 221.365 358.333 223.965H358.293C358.153 223.225 357.733 221.245 357.533 220.505L356.233 215.665C356.113 215.185 356.033 215.245 355.633 215.285L353.973 215.445C353.753 215.465 353.533 215.485 353.533 215.685C353.533 215.785 353.573 215.865 353.633 216.025L356.693 225.065C356.793 225.365 356.913 225.325 357.053 225.325H357.893L357.693 225.985C357.473 226.705 357.193 227.465 356.113 227.465C355.553 227.465 355.033 227.245 354.713 227.085C354.573 227.005 354.493 226.965 354.413 226.965C354.353 226.965 354.273 226.985 354.213 227.105L353.573 228.485C353.493 228.665 353.473 228.805 354.053 229.065C354.833 229.425 355.573 229.565 356.253 229.565C357.113 229.565 358.373 229.345 359.133 227.825C359.473 227.145 359.773 226.065 360.533 223.245L362.493 216.045C362.553 215.825 362.573 215.765 362.573 215.705C362.573 215.505 362.353 215.485 362.153 215.465L360.613 215.265ZM370.929 216.505C370.969 216.445 370.989 216.405 370.989 216.325C370.989 216.205 370.909 216.025 370.549 215.785C370.009 215.445 369.209 215.105 368.129 215.105C365.729 215.105 363.489 216.625 363.489 220.605C363.489 224.425 365.669 225.665 367.969 225.665C368.749 225.665 369.589 225.485 370.249 225.125C370.549 224.965 370.749 224.765 370.749 224.605C370.749 224.545 370.709 224.445 370.689 224.405L370.169 223.085C370.149 223.025 370.069 222.985 370.029 222.985C369.889 222.985 369.669 223.165 369.429 223.305C369.069 223.525 368.689 223.665 368.169 223.665C367.309 223.665 366.829 223.205 366.569 222.765C366.349 222.385 366.189 221.765 366.189 220.545C366.189 218.965 366.469 218.305 366.589 218.045C366.869 217.485 367.349 217.105 368.129 217.105C368.649 217.105 369.049 217.265 369.469 217.545C369.769 217.745 369.929 217.905 370.049 217.905C370.129 217.905 370.169 217.845 370.189 217.805L370.929 216.505ZM376.797 217.445H378.997C379.097 217.445 379.237 217.405 379.297 217.165L379.577 215.845C379.617 215.645 379.697 215.445 379.277 215.445H371.977C371.757 215.445 371.697 215.505 371.697 215.725V217.165C371.697 217.385 371.757 217.445 371.977 217.445H374.257V225.045C374.257 225.305 374.317 225.325 374.537 225.325H376.517C376.777 225.325 376.797 225.265 376.797 225.045V217.445ZM388.244 224.965C388.304 224.945 388.404 224.885 388.404 224.765C388.404 224.665 388.324 224.525 388.184 224.165C387.884 223.405 387.884 222.765 387.884 222.185V218.325C387.884 217.965 387.844 217.065 387.444 216.385C386.844 215.365 385.684 215.105 384.444 215.105C383.624 215.105 382.204 215.265 381.384 215.645C380.864 215.885 380.864 215.965 380.964 216.245L381.384 217.505C381.424 217.645 381.464 217.705 381.584 217.705C381.724 217.705 381.864 217.605 382.544 217.385C383.044 217.225 383.644 217.105 384.164 217.105C384.724 217.105 385.064 217.285 385.244 217.505C385.504 217.825 385.484 218.305 385.484 218.585V219.205C384.344 219.165 382.464 219.325 381.484 220.025C381.064 220.325 380.264 221.085 380.264 222.625C380.264 224.465 381.424 225.665 383.224 225.665C384.544 225.665 385.264 225.065 385.784 224.545L385.864 224.465C385.924 224.785 386.024 225.065 386.204 225.425C386.364 225.725 386.484 225.685 386.624 225.625L388.244 224.965ZM385.484 223.045C385.044 223.525 384.504 223.805 383.984 223.805C383.264 223.805 382.664 223.265 382.664 222.445C382.664 221.265 383.764 220.845 385.364 220.845H385.484V223.045ZM400.621 217.445V225.045C400.621 225.265 400.681 225.325 400.901 225.325H402.881C403.141 225.325 403.161 225.265 403.161 225.045V215.725C403.161 215.465 403.101 215.445 402.881 215.445H395.541C395.321 215.445 395.261 215.465 395.261 215.725V225.045C395.261 225.265 395.281 225.325 395.541 225.325H397.521C397.781 225.325 397.801 225.265 397.801 225.045V217.445H400.621ZM414.084 220.385C414.084 216.625 411.944 215.105 409.744 215.105C407.544 215.105 405.404 216.625 405.404 220.385C405.404 224.145 407.544 225.665 409.744 225.665C411.944 225.665 414.084 224.145 414.084 220.385ZM409.744 223.665C408.184 223.665 408.104 221.905 408.104 220.385C408.104 218.865 408.224 217.105 409.744 217.105C411.264 217.105 411.384 218.865 411.384 220.385C411.384 221.925 411.284 223.665 409.744 223.665ZM429.003 223.745C429.003 223.605 429.043 223.465 428.723 223.465H427.143V212.325C427.143 212.165 427.163 211.965 426.743 211.965H425.343L421.563 214.685C421.423 214.785 421.323 214.865 421.323 215.005C421.323 215.125 421.363 215.205 421.403 215.265L421.923 216.165C422.003 216.305 422.043 216.425 422.203 216.425C422.303 216.425 422.383 216.365 422.443 216.325L424.603 214.985V223.465H422.583C422.283 223.465 422.303 223.645 422.303 223.745V225.045C422.303 225.345 422.483 225.325 422.583 225.325H428.723C429.043 225.325 429.003 225.185 429.003 225.045V223.745ZM444.904 220.385C444.904 216.625 442.764 215.105 440.564 215.105C438.364 215.105 436.224 216.625 436.224 220.385C436.224 224.145 438.364 225.665 440.564 225.665C442.764 225.665 444.904 224.145 444.904 220.385ZM440.564 223.665C439.004 223.665 438.924 221.905 438.924 220.385C438.924 218.865 439.044 217.105 440.564 217.105C442.084 217.105 442.204 218.865 442.204 220.385C442.204 221.925 442.104 223.665 440.564 223.665ZM449.335 225.325C449.695 225.325 449.695 225.185 449.695 225.045V221.185H450.515C451.435 221.185 451.555 221.625 451.675 222.165L452.055 223.825C452.195 224.425 452.415 224.905 452.895 225.225C453.415 225.585 454.355 225.665 454.735 225.665C455.175 225.665 455.215 225.505 455.255 225.365L455.615 224.085C455.715 223.705 455.535 223.665 455.395 223.645L454.955 223.565C454.515 223.485 454.435 223.285 454.275 222.805L453.895 221.705C453.675 221.085 453.475 220.365 452.515 220.165V220.105C453.355 219.945 453.615 219.265 453.735 218.845L453.955 218.065C454.175 217.265 454.375 217.225 454.775 217.145L455.075 217.085C455.275 217.045 455.375 216.905 455.335 216.765L454.935 215.305C454.895 215.185 454.855 215.105 454.575 215.105C454.215 215.105 453.295 215.225 452.735 215.725C452.255 216.145 452.075 216.725 451.995 217.065L451.735 218.205C451.615 218.745 451.495 219.185 450.575 219.185H449.695V215.365C449.695 215.065 449.535 215.085 449.375 215.125L447.815 215.445C447.135 215.585 447.155 215.605 447.155 215.865V225.045C447.155 225.185 447.155 225.325 447.515 225.325H449.335ZM461.192 217.445H463.392C463.492 217.445 463.632 217.405 463.692 217.165L463.972 215.845C464.012 215.645 464.092 215.445 463.672 215.445H456.372C456.152 215.445 456.092 215.505 456.092 215.725V217.165C456.092 217.385 456.152 217.445 456.372 217.445H458.652V225.045C458.652 225.305 458.712 225.325 458.932 225.325H460.912C461.172 225.325 461.192 225.265 461.192 225.045V217.445ZM472.458 225.325C472.678 225.325 472.738 225.305 472.738 225.045V215.725C472.738 215.465 472.678 215.445 472.458 215.445H468.638C468.098 215.445 466.878 215.485 466.038 216.145C465.358 216.665 465.018 217.545 465.018 218.325C465.018 218.905 465.218 219.625 465.618 220.065C465.918 220.385 466.418 220.685 466.898 220.805V220.845C466.178 221.045 465.878 221.585 465.658 222.365L465.538 222.805C465.398 223.285 465.278 223.485 464.858 223.565L464.458 223.645C464.318 223.665 464.138 223.705 464.238 224.085L464.598 225.365C464.638 225.505 464.658 225.665 465.078 225.665C465.538 225.665 466.358 225.565 466.878 225.205C467.418 224.825 467.618 224.285 467.758 223.765L468.078 222.625C468.258 221.965 468.418 221.645 469.258 221.645H470.198V225.045C470.198 225.265 470.218 225.325 470.478 225.325H472.458ZM470.198 219.745H469.118C468.658 219.745 467.558 219.665 467.558 218.545C467.558 218.145 467.718 217.345 469.018 217.345H470.198V219.745ZM476.874 217.245L476.894 217.025C477.074 215.085 478.654 214.325 479.194 214.085L483.354 212.305C483.734 212.145 483.654 211.885 483.614 211.805L482.934 210.325C482.794 210.005 482.434 210.185 482.314 210.245L478.554 211.945C477.014 212.645 475.974 213.985 475.514 215.265C475.094 216.385 475.034 217.745 475.034 219.225C475.034 220.525 475.094 222.045 475.694 223.305C476.714 225.405 478.554 225.665 479.474 225.665C481.714 225.665 483.814 224.065 483.814 220.585C483.814 217.445 482.234 215.565 479.874 215.565C478.534 215.565 477.514 216.145 476.954 217.245H476.874ZM479.474 223.665C477.914 223.665 477.834 221.845 477.834 220.585C477.834 219.345 477.914 217.565 479.474 217.565C481.034 217.565 481.114 219.345 481.114 220.585C481.114 221.845 481.034 223.665 479.474 223.665ZM488.741 225.145L488.821 225.185C489.021 225.285 489.561 225.665 490.821 225.665C494.421 225.665 494.501 221.805 494.501 220.305C494.501 215.925 492.541 215.105 490.981 215.105C490.181 215.105 489.321 215.365 488.481 216.145C488.421 215.965 488.381 215.785 488.301 215.605C488.081 215.005 487.881 215.065 487.561 215.165L486.041 215.665C485.941 215.705 485.821 215.765 485.821 215.885C485.821 215.945 485.841 216.005 485.901 216.205C486.041 216.625 486.201 217.285 486.201 219.005V229.265C486.201 229.645 486.361 229.585 486.521 229.545L488.361 229.165C488.761 229.085 488.741 228.985 488.741 228.805V225.145ZM488.741 217.865L488.821 217.785C489.141 217.465 489.641 217.105 490.281 217.105C491.921 217.105 491.961 219.025 491.961 220.245C491.961 221.805 491.881 222.385 491.641 222.825C491.261 223.545 490.641 223.665 490.181 223.665C489.901 223.665 489.321 223.645 488.741 223.285V217.865ZM503.923 225.325C504.143 225.325 504.203 225.305 504.203 225.045V215.725C504.203 215.465 504.143 215.445 503.923 215.445H500.103C499.563 215.445 498.343 215.485 497.503 216.145C496.823 216.665 496.483 217.545 496.483 218.325C496.483 218.905 496.683 219.625 497.083 220.065C497.383 220.385 497.883 220.685 498.363 220.805V220.845C497.643 221.045 497.343 221.585 497.123 222.365L497.003 222.805C496.863 223.285 496.743 223.485 496.323 223.565L495.923 223.645C495.783 223.665 495.603 223.705 495.703 224.085L496.063 225.365C496.103 225.505 496.123 225.665 496.543 225.665C497.003 225.665 497.823 225.565 498.343 225.205C498.883 224.825 499.083 224.285 499.223 223.765L499.543 222.625C499.723 221.965 499.883 221.645 500.723 221.645H501.663V225.045C501.663 225.265 501.683 225.325 501.943 225.325H503.923ZM501.663 219.745H500.583C500.123 219.745 499.023 219.665 499.023 218.545C499.023 218.145 499.183 217.345 500.483 217.345H501.663V219.745Z" fill="#85312C"/>
<defs>
<filter id="filter0_d" x="0.20282" y="3.18152" width="974.873" height="248.696" filterUnits="userSpaceOnUse" color-interpolation-filters="sRGB">
<feFlood flood-opacity="0" result="BackgroundImageFix"/>
<feColorMatrix in="SourceAlpha" type="matrix" values="0 0 0 0 0 0 0 0 0 0 0 0 0 0 0 0 0 0 127 0"/>
<feOffset/>
<feGaussianBlur stdDeviation="4"/>
<feColorMatrix type="matrix" values="0 0 0 0 0 0 0 0 0 0 0 0 0 0 0 0 0 0 0.45 0"/>
<feBlend mode="normal" in2="BackgroundImageFix" result="effect1_dropShadow"/>
<feBlend mode="normal" in="SourceGraphic" in2="effect1_dropShadow" result="shape"/>
</filter>
<filter id="filter1_d" x="23.2454" y="126" width="686.74" height="161.995" filterUnits="userSpaceOnUse" color-interpolation-filters="sRGB">
<feFlood flood-opacity="0" result="BackgroundImageFix"/>
<feColorMatrix in="SourceAlpha" type="matrix" values="0 0 0 0 0 0 0 0 0 0 0 0 0 0 0 0 0 0 127 0"/>
<feOffset/>
<feGaussianBlur stdDeviation="4"/>
<feColorMatrix type="matrix" values="0 0 0 0 0 0 0 0 0 0 0 0 0 0 0 0 0 0 0.45 0"/>
<feBlend mode="normal" in2="BackgroundImageFix" result="effect1_dropShadow"/>
<feBlend mode="normal" in="SourceGraphic" in2="effect1_dropShadow" result="shape"/>
</filter>
<filter id="filter2_d" x="127.647" y="79.87" width="799.878" height="89.6259" filterUnits="userSpaceOnUse" color-interpolation-filters="sRGB">
<feFlood flood-opacity="0" result="BackgroundImageFix"/>
<feColorMatrix in="SourceAlpha" type="matrix" values="0 0 0 0 0 0 0 0 0 0 0 0 0 0 0 0 0 0 127 0"/>
<feOffset/>
<feGaussianBlur stdDeviation="6.5"/>
<feColorMatrix type="matrix" values="0 0 0 0 0 0 0 0 0 0 0 0 0 0 0 0 0 0 0.6 0"/>
<feBlend mode="normal" in2="BackgroundImageFix" result="effect1_dropShadow"/>
<feBlend mode="normal" in="SourceGraphic" in2="effect1_dropShadow" result="shape"/>
</filter>
</defs>
</svg>
