<svg width="352" height="128" viewBox="0 0 352 128" fill="none" xmlns="http://www.w3.org/2000/svg">
<g filter="url(#filter0_d)">
<path d="M43.1828 42.1583L336 21L312.6 85.4129L16 106.876L43.1828 42.1583Z" fill="#DD1010"/>
<path d="M43.0027 39.6648L41.4721 39.7754L40.8779 41.1902L13.6951 105.908L12.1176 109.663L16.1805 109.369L312.78 87.9064L314.396 87.7894L314.95 86.2665L338.35 21.8537L339.667 18.2286L335.82 18.5065L43.0027 39.6648Z" stroke="#F7D431" stroke-width="5"/>
</g>
<g filter="url(#filter1_d)">
<path d="M68.641 53.8356C68.306 53.8614 68.3191 54.0078 68.2904 54.1575L66.6336 67.8692C66.6239 67.9964 66.6105 68.0816 66.618 68.1653C66.6368 68.3745 66.7453 68.4082 66.9546 68.3921L70.3885 68.1274C72.0844 67.9967 73.9957 67.681 75.2005 66.0717C75.7647 65.3122 76.1333 64.2518 76.0337 63.1433C75.9041 61.7001 75.0489 60.6287 73.8179 60.3024C74.3016 60.0545 74.8978 59.6505 75.3227 59.2176C75.9973 58.5128 76.4191 57.5747 76.3139 56.4034C76.0377 53.3287 73.017 53.4984 72.1795 53.5629L68.641 53.8356ZM70.328 59.7079L70.797 55.7755L71.802 55.6981C72.3883 55.6529 73.498 55.5674 73.622 56.9478C73.6746 57.5334 73.5597 58.132 73.2623 58.5761C72.7246 59.3968 71.8146 59.5933 71.1027 59.6482L70.328 59.7079ZM69.5515 66.0859L70.0761 61.8333L71.2487 61.743C71.8977 61.6929 73.055 61.6669 73.1958 63.2356C73.2785 64.1559 72.9733 64.7481 72.7274 65.0619C72.1231 65.8456 71.2056 65.9584 70.41 66.0197L69.5515 66.0859ZM80.2141 52.9437C79.8791 52.9695 79.8922 53.1159 79.8635 53.2656L78.2276 66.9757C78.218 67.1028 78.2046 67.1881 78.2121 67.2718C78.2309 67.4809 78.3393 67.5147 78.5487 67.4986L82.2756 67.2113C83.7622 67.0968 85.6278 66.7424 86.7754 65.2007C87.5094 64.2175 87.7813 62.7855 87.6742 61.5933C87.5521 60.2338 86.8964 59.5051 86.4647 59.1592C85.4189 58.3132 84.1379 58.3698 83.2795 58.4359L81.9604 58.5376L82.5661 53.31C82.5758 53.1829 82.5892 53.0976 82.5817 53.014C82.5629 52.8048 82.4545 52.771 82.2451 52.7872L80.2141 52.9437ZM81.1724 65.0218L81.6817 60.8336L82.6239 60.761C83.2102 60.7158 84.733 60.5353 84.8871 62.2504C84.9397 62.836 84.8076 63.478 84.4492 63.9479C83.8278 64.775 82.7846 64.8976 82.0727 64.9524L81.1724 65.0218ZM90.9134 52.1191C90.5784 52.145 90.5915 52.2914 90.5628 52.441L88.906 66.1528C88.8963 66.2799 88.8829 66.3651 88.8904 66.4488C88.9092 66.658 89.0176 66.6917 89.227 66.6756L91.258 66.5191C91.593 66.4933 91.5798 66.3468 91.6086 66.1972L93.2654 52.4854C93.2751 52.3583 93.2885 52.2731 93.281 52.1894C93.2622 51.9802 93.1537 51.9465 92.9443 51.9626L90.9134 52.1191ZM97.1244 51.6405C96.7894 51.6663 96.8025 51.8127 96.7738 51.9623L95.117 65.6741C95.1073 65.8012 95.0939 65.8865 95.1014 65.9701C95.1202 66.1793 95.2287 66.2131 95.438 66.1969L99.165 65.9097C100.652 65.7951 102.517 65.4407 103.665 63.8991C104.399 62.9159 104.671 61.4839 104.565 60.3126C104.436 58.8694 103.624 56.8681 100.169 57.1343L98.8498 57.236L99.2667 53.8973L103.643 53.5601C103.768 53.5504 103.959 53.5568 104.058 53.2543L104.66 51.502C104.694 51.4151 104.73 51.3492 104.721 51.2446C104.702 51.0354 104.495 51.0725 104.348 51.0838L97.1244 51.6405ZM98.0618 63.7202L98.5711 59.532L99.8692 59.4319C101.209 59.3287 101.698 60.0703 101.778 60.9697C101.829 61.5344 101.697 62.1764 101.339 62.6463C100.717 63.4734 99.674 63.5959 98.9621 63.6508L98.0618 63.7202ZM108.759 50.7438C108.424 50.7696 108.437 50.9161 108.408 51.0657L106.751 64.7775C106.742 64.9046 106.728 64.9898 106.736 65.0735C106.755 65.2827 106.863 65.3164 107.072 65.3003L114.024 64.7646C114.359 64.7387 114.346 64.5923 114.374 64.4427L114.58 62.742C114.601 62.5087 114.287 62.5329 114.204 62.5394L109.702 62.8863L110.204 58.6144L113.805 58.3369C114.077 58.3159 114.117 58.2918 114.156 58.015L114.332 56.464C114.342 56.3369 114.382 56.081 114.026 56.1085L110.488 56.3812L110.924 52.7883L115.028 52.472C115.175 52.4607 115.323 52.4704 115.443 52.1662L116.064 50.6231C116.096 50.5153 116.132 50.4493 116.125 50.3657C116.106 50.1565 115.899 50.1936 115.752 50.2049L108.759 50.7438ZM119.984 49.8787C119.649 49.9045 119.662 50.0509 119.634 50.2006L117.977 63.9123C117.967 64.0394 117.954 64.1247 117.961 64.2084C117.98 64.4175 118.089 64.4513 118.298 64.4352L120.329 64.2786C120.664 64.2528 120.651 64.1064 120.68 63.9568L121.343 58.4299L122.431 58.346C126.012 58.0701 128.019 55.7672 127.743 52.6926C127.47 49.6598 125.261 49.4721 123.753 49.5882L119.984 49.8787ZM121.621 56.1339L122.114 51.9892L123.181 51.9069C123.726 51.8649 124.927 51.8566 125.056 53.2998C125.12 54.0109 125.097 55.866 122.25 56.0855L121.621 56.1339ZM137.999 48.4903C137.622 48.5194 137.578 48.7334 137.431 48.9764L133.987 54.7597C133.604 55.421 132.568 57.5016 132.301 58.0487L132.217 58.0552C132.542 55.5661 132.393 57.1992 132.634 55.1799L133.337 49.3972C133.366 49.2476 133.358 49.1639 133.353 49.1012C133.334 48.892 133.225 48.8583 133.016 48.8744L130.985 49.0309C130.65 49.0567 130.663 49.2031 130.634 49.3528L128.978 63.0645C128.968 63.1917 128.954 63.2769 128.962 63.3606C128.981 63.5697 129.089 63.6035 129.299 63.5874L131.225 63.4389C131.518 63.4163 131.594 63.3262 131.758 63.0398L135.469 56.7094C136.017 55.7616 136.475 54.9892 136.923 53.8805L137.007 53.8741C136.894 54.4936 136.735 55.5378 136.66 56.1122L135.887 62.532C135.877 62.6592 135.864 62.7444 135.871 62.8281C135.89 63.0372 135.999 63.071 136.208 63.0549L138.239 62.8984C138.574 62.8725 138.561 62.7261 138.59 62.5765L140.246 48.8647C140.256 48.7376 140.27 48.6523 140.262 48.5687C140.243 48.3595 140.135 48.3258 139.925 48.3419L137.999 48.4903ZM147.95 50.1454L150.547 49.9453C150.693 49.934 150.842 49.9436 150.962 49.6395L151.647 47.8808C151.663 47.8164 151.699 47.7505 151.71 47.6443C151.708 47.6233 151.707 47.6024 151.705 47.5815C151.669 47.4158 151.461 47.4529 151.336 47.4625L142.772 48.1225C142.395 48.1516 142.448 48.2738 142.421 48.4444L142.206 50.0405C142.178 50.1901 142.164 50.2754 142.172 50.3591C142.194 50.6101 142.402 50.573 142.548 50.5617L145.228 50.3552L143.801 61.9222C143.772 62.0718 143.779 62.1555 143.785 62.2182C143.804 62.4274 143.912 62.4611 144.122 62.445L146.153 62.2885C146.488 62.2627 146.474 62.1162 146.503 61.9666L147.95 50.1454ZM153.804 47.2723C153.469 47.2981 153.482 47.4445 153.453 47.5942L151.797 61.3059C151.787 61.433 151.774 61.5183 151.781 61.602C151.8 61.8111 151.908 61.8449 152.118 61.8288L159.069 61.293C159.404 61.2672 159.391 61.1208 159.42 60.9712L159.625 59.2705C159.646 59.0372 159.332 59.0614 159.249 59.0678L154.747 59.4148L155.249 55.1429L158.85 54.8654C159.122 54.8444 159.162 54.8203 159.201 54.5435L159.378 52.9924C159.387 52.8653 159.428 52.6095 159.072 52.6369L155.533 52.9096L155.969 49.3168L160.073 49.0005C160.22 48.9892 160.368 48.9988 160.489 48.6947L161.109 47.1516C161.141 47.0438 161.178 46.9778 161.17 46.8942C161.151 46.685 160.944 46.7221 160.797 46.7333L153.804 47.2723ZM116.922 88.6105L116.57 91.5018C116.574 91.5437 116.575 91.5646 116.579 91.6064C116.585 91.6692 116.549 91.7351 116.554 91.7979C116.571 91.9861 116.681 92.0408 116.912 92.023L118.754 91.881C119.089 91.8552 119.092 91.6445 119.105 91.5592L119.678 86.6711C119.688 86.544 119.701 86.4587 119.693 86.375C119.671 86.1241 119.503 86.137 119.378 86.1466L118.477 86.216L119.892 74.5026C119.902 74.3755 119.915 74.2902 119.908 74.2066C119.889 73.9974 119.78 73.9637 119.571 73.9798L112.808 74.501C112.473 74.5268 112.486 74.6732 112.458 74.8229L112.212 76.7794C111.804 79.9909 111.414 81.748 111.257 82.3498C110.842 84.0666 110.33 85.4118 109.432 86.9131L108.825 86.9599C108.49 86.9857 108.479 87.0919 108.454 87.2834L107.86 92.1731C107.863 92.2149 107.865 92.2358 107.869 92.2777C107.875 92.3404 107.838 92.4064 107.844 92.4691C107.861 92.6574 107.971 92.7121 108.202 92.6943L110.044 92.5523C110.379 92.5265 110.381 92.3157 110.395 92.2305L110.766 89.0849L116.922 88.6105ZM114.791 76.6227L116.947 76.4565L115.735 86.4274L112.112 86.7066C112.734 85.6478 113.097 84.7563 113.483 83.4208C113.918 81.9341 114.292 80.2204 114.549 78.3894L114.791 76.6227ZM127.391 75.6517L129.757 75.4693L128.342 87.1827C128.333 87.3098 128.319 87.3951 128.327 87.4788C128.346 87.6879 128.454 87.7217 128.663 87.7056L130.694 87.549C131.029 87.5232 131.016 87.3768 131.045 87.2272L132.702 73.5154C132.712 73.3883 132.725 73.303 132.717 73.2194C132.699 73.0102 132.59 72.9764 132.381 72.9926L125.492 73.5235C125.157 73.5493 125.17 73.6957 125.142 73.8453L124.694 77.3127C124.546 78.4824 123.932 82.6787 123.409 84.1301C122.954 85.4077 122.282 85.9018 121.37 86.0773L121.018 86.1466C120.75 86.2094 120.732 86.4845 120.741 86.5891L121.015 88.4635C121.057 88.6919 121.243 88.6565 121.367 88.6259L121.698 88.5583C123.355 88.22 124.395 87.3606 125.045 86.3838C125.899 85.0965 126.389 83.0369 127.088 77.9075L127.391 75.6517ZM140.537 72.364C139.343 72.456 137.952 72.6896 136.902 73.6761C136.008 74.5242 135.518 75.8678 135.645 77.2901C135.786 78.8587 136.682 79.6743 137.683 80.0184L137.669 80.1036C136.399 80.7491 136.038 81.8932 135.853 82.4129L135.417 83.668C135.098 84.5771 135.006 84.9632 134.329 85.1629L133.775 85.332C133.466 85.4189 133.489 85.6699 133.519 85.7729L133.934 87.3415C133.968 87.4863 133.962 87.6552 134.402 87.6213C134.821 87.5891 135.356 87.4425 135.742 87.2864C137.147 86.7358 137.434 85.7028 137.776 84.5813L138.374 82.5555C138.663 81.5434 139.128 81.0864 140.154 81.0073L140.907 80.9492L140.267 86.2637C140.258 86.3908 140.244 86.4761 140.252 86.5597C140.271 86.7689 140.379 86.8027 140.588 86.7865L142.619 86.63C142.954 86.6042 142.941 86.4578 142.97 86.3081L144.627 72.5964C144.636 72.4693 144.65 72.384 144.642 72.3003C144.624 72.0912 144.515 72.0574 144.306 72.0735L140.537 72.364ZM141.148 78.6983L140.185 78.7725C139.096 78.8564 138.459 78.1052 138.373 77.143C138.311 76.4528 138.538 75.6982 139.003 75.2411C139.527 74.7374 140.174 74.6665 140.74 74.6229L141.661 74.5519L141.148 78.6983ZM163.335 71.1124C163.343 70.9644 163.357 70.8791 163.351 70.8164C163.345 70.7536 163.332 70.6072 163.06 70.6282L161.155 70.775C160.903 70.7944 160.827 70.8845 160.776 71.0149L158.285 76.6194C157.969 77.3177 157.711 77.9694 157.409 79.2984L157.367 79.3017C157.327 78.6307 157.238 77.3951 157.107 76.647L156.181 71.4953C156.105 71.1221 155.962 71.1752 155.836 71.1849L153.785 71.343C153.617 71.3559 153.488 71.3238 153.434 71.6649L151.09 85.4717C151.063 85.6423 151.067 85.6841 151.073 85.7469C151.08 85.8305 151.093 85.977 151.365 85.956L153.082 85.8237C153.187 85.8156 153.377 85.822 153.433 85.5018L154.508 77.9846C154.6 77.3667 154.772 75.2895 154.808 74.7602L154.85 74.757C155.061 76.4045 155.031 76.3015 155.319 77.8589L156.117 82.0516C156.192 82.4249 156.295 82.3959 156.484 82.3814L157.468 82.3055C157.74 82.2846 157.771 82.1558 157.824 82.0464L159.929 77.314C160.297 76.4854 160.727 75.3992 161.048 74.2793L161.093 74.3179C160.948 75.0452 160.704 76.5593 160.639 77.2383L159.989 84.786C159.964 84.9774 159.967 85.0193 159.971 85.0611C159.981 85.1657 160.013 85.2895 160.264 85.2702L161.981 85.1379C162.044 85.133 162.318 85.133 162.332 84.816L163.335 71.1124ZM170.489 70.0556C170.385 70.0637 170.215 70.0557 170.129 70.2729L164.466 84.4409C164.431 84.5278 164.374 84.5954 164.385 84.7209C164.395 84.8255 164.469 84.9461 164.678 84.93L166.835 84.7638C167.128 84.7412 167.176 84.569 167.227 84.4387L168.524 80.8006L172.083 80.5263L172.551 84.0916C172.555 84.1334 172.593 84.32 172.844 84.3007L175.043 84.1312C175.147 84.1232 175.419 84.1022 175.372 83.811L172.908 70.2272C172.857 69.8942 172.709 69.8846 172.499 69.9007L170.489 70.0556ZM171.852 78.6487L169.046 78.8649L170.58 74.345C170.713 73.9557 170.872 73.6065 171.017 72.8792L171.059 72.876C171.108 73.4198 171.24 74.4205 171.298 74.8372L171.852 78.6487ZM179.416 69.3677C179.081 69.3935 179.094 69.5399 179.065 69.6895L177.409 83.4013C177.399 83.5284 177.386 83.6137 177.393 83.6974C177.412 83.9065 177.52 83.9403 177.73 83.9241L179.761 83.7676C180.096 83.7418 180.082 83.5954 180.111 83.4458L181.537 71.6262L185.578 71.3147C185.809 71.297 185.902 71.1634 185.954 71.0331L186.574 69.2583C186.607 69.1505 186.645 69.1054 186.637 69.0217C186.619 68.8126 186.388 68.8303 186.346 68.8336L179.416 69.3677ZM188.699 68.6523C188.364 68.6781 188.377 68.8245 188.348 68.9741L186.692 82.6859C186.682 82.813 186.669 82.8983 186.676 82.9819C186.695 83.1911 186.803 83.2249 187.013 83.2087L189.044 83.0522C189.379 83.0264 189.366 82.88 189.394 82.7303L190.111 76.6307L193.964 76.3338L193.266 82.1792C193.256 82.3063 193.243 82.3916 193.251 82.4753C193.269 82.6844 193.378 82.7182 193.587 82.702L195.618 82.5455C195.953 82.5197 195.94 82.3733 195.969 82.2237L197.626 68.5119C197.635 68.3848 197.649 68.2995 197.641 68.2158C197.622 68.0067 197.514 67.9729 197.305 67.9891L195.274 68.1456C194.939 68.1714 194.952 68.3178 194.923 68.4674L194.243 74.0378L190.411 74.333L191.051 69.0186C191.061 68.8915 191.074 68.8062 191.067 68.7225C191.048 68.5134 190.939 68.4796 190.73 68.4957L188.699 68.6523ZM208.513 67.1252C208.136 67.1543 208.092 67.3683 207.945 67.6113L204.501 73.3946C204.118 74.0559 203.082 76.1365 202.815 76.6836L202.731 76.6901C203.056 74.201 202.907 75.8341 203.148 73.8148L203.851 68.0321C203.88 67.8825 203.872 67.7988 203.867 67.7361C203.848 67.5269 203.739 67.4931 203.53 67.5093L201.499 67.6658C201.164 67.6916 201.177 67.838 201.148 67.9877L199.492 81.6994C199.482 81.8265 199.468 81.9118 199.476 81.9955C199.495 82.2046 199.603 82.2384 199.813 82.2223L201.739 82.0738C202.032 82.0512 202.108 81.9611 202.272 81.6747L205.984 75.3443C206.531 74.3965 206.989 73.6241 207.437 72.5154L207.521 72.509C207.408 73.1284 207.249 74.1727 207.174 74.7471L206.401 81.1669C206.391 81.294 206.378 81.3793 206.386 81.463C206.404 81.6721 206.513 81.7059 206.722 81.6898L208.753 81.5332C209.088 81.5074 209.075 81.361 209.104 81.2114L210.76 67.4996C210.77 67.3725 210.784 67.2872 210.776 67.2036C210.757 66.9944 210.649 66.9606 210.439 66.9768L208.513 67.1252ZM218.464 68.7803L221.061 68.5802C221.207 68.5689 221.356 68.5785 221.476 68.2744L222.161 66.5157C222.177 66.4513 222.213 66.3853 222.224 66.2791C222.222 66.2582 222.221 66.2373 222.219 66.2164C222.183 66.0507 221.975 66.0877 221.85 66.0974L213.286 66.7574C212.909 66.7864 212.962 66.9087 212.935 67.0793L212.72 68.6754C212.692 68.825 212.678 68.9103 212.686 68.994C212.708 69.245 212.916 69.2079 213.062 69.1966L215.742 68.9901L214.315 80.5571C214.286 80.7067 214.293 80.7904 214.299 80.8531C214.318 81.0623 214.426 81.096 214.636 81.0799L216.667 80.9234C217.002 80.8975 216.989 80.7511 217.017 80.6015L218.464 68.7803ZM225.758 65.7962C225.653 65.8043 225.484 65.7963 225.398 66.0135L219.734 80.1815C219.7 80.2684 219.643 80.336 219.654 80.4615C219.664 80.566 219.738 80.6867 219.947 80.6706L222.104 80.5043C222.397 80.4818 222.445 80.3096 222.496 80.1793L223.793 76.5411L227.352 76.2668L227.82 79.8321C227.824 79.874 227.862 80.0606 228.113 80.0412L230.311 79.8718C230.416 79.8637 230.688 79.8428 230.641 79.5515L228.177 65.9678C228.126 65.6348 227.978 65.6252 227.768 65.6413L225.758 65.7962ZM227.12 74.3892L224.315 74.6055L225.848 70.0856C225.982 69.6962 226.14 69.347 226.286 68.6198L226.328 68.6165C226.377 69.1604 226.509 70.1611 226.567 70.5778L227.12 74.3892Z" fill="#F7D431"/>
<path d="M169.916 46.0306C169.581 46.0564 169.595 46.2028 169.566 46.3524L167.909 60.0642C167.899 60.1913 167.886 60.2766 167.893 60.3602C167.912 60.5694 168.021 60.6032 168.23 60.587L170.261 60.4305C170.596 60.4047 170.583 60.2583 170.612 60.1086L171.329 54.009L175.181 53.7121L174.483 59.5575C174.474 59.6846 174.46 59.7699 174.468 59.8536C174.487 60.0627 174.595 60.0965 174.805 60.0803L176.835 59.9238C177.17 59.898 177.157 59.7516 177.186 59.602L178.843 45.8902C178.853 45.7631 178.866 45.6778 178.858 45.5941C178.84 45.385 178.731 45.3512 178.522 45.3674L176.491 45.5239C176.156 45.5497 176.169 45.6961 176.14 45.8457L175.46 51.416L171.628 51.7113L172.268 46.3969C172.278 46.2698 172.291 46.1845 172.284 46.1008C172.265 45.8917 172.157 45.8579 171.947 45.874L169.916 46.0306ZM190.94 48.5803C190.839 47.4509 190.348 44.0979 186.788 44.3723C185.427 44.4771 183.19 45.155 181.734 48.1946C180.759 50.2495 180.44 53.033 180.658 55.4592C180.987 59.1195 183.093 59.7996 184.789 59.6689C186.757 59.5172 188.738 58.3326 189.907 55.8626C190.844 53.8528 191.139 50.7974 190.94 48.5803ZM185.052 57.4372C183.817 57.5324 183.586 56.3708 183.509 55.5133C183.368 53.9446 183.421 51.4765 184.169 49.2495C184.483 48.2777 185.185 46.7072 186.588 46.5991C187.865 46.5006 188.025 47.8151 188.087 48.5053C188.235 50.1577 188.235 52.4955 187.471 54.7868C187.138 55.7812 186.476 57.3275 185.052 57.4372ZM194.821 44.1113C194.486 44.1371 194.499 44.2835 194.47 44.4331L192.813 58.1449C192.803 58.272 192.79 58.3573 192.798 58.4409C192.816 58.6501 192.925 58.6839 193.134 58.6677L196.568 58.4031C198.264 58.2724 200.175 57.9566 201.38 56.3474C201.944 55.5878 202.313 54.5275 202.213 53.4189C202.084 51.9757 201.228 50.9044 199.997 50.578C200.481 50.3301 201.077 49.9262 201.502 49.4933C202.177 48.7884 202.599 47.8503 202.493 46.679C202.217 43.6044 199.197 43.774 198.359 43.8385L194.821 44.1113ZM196.508 49.9835L196.977 46.0512L197.982 45.9737C198.568 45.9285 199.678 45.843 199.802 47.2234C199.854 47.8091 199.739 48.4076 199.442 48.8518C198.904 49.6724 197.994 49.8689 197.282 49.9238L196.508 49.9835ZM195.731 56.3615L196.256 52.109L197.428 52.0186C198.077 51.9686 199.234 51.9426 199.375 53.5113C199.458 54.4316 199.153 55.0237 198.907 55.3375C198.303 56.1212 197.385 56.234 196.59 56.2954L195.731 56.3615ZM206.394 43.2193C206.059 43.2452 206.072 43.3916 206.043 43.5412L204.407 57.2514C204.398 57.3785 204.384 57.4637 204.392 57.5474C204.41 57.7566 204.519 57.7903 204.728 57.7742L208.455 57.487C209.942 57.3724 211.807 57.018 212.955 55.4764C213.689 54.4932 213.961 53.0611 213.854 51.8689C213.732 50.5094 213.076 49.7807 212.644 49.4349C211.598 48.5888 210.317 48.6454 209.459 48.7116L208.14 48.8132L208.746 43.5857C208.755 43.4585 208.769 43.3733 208.761 43.2896C208.742 43.0804 208.634 43.0467 208.425 43.0628L206.394 43.2193ZM207.352 55.2974L207.861 51.1093L208.803 51.0366C209.39 50.9915 210.913 50.8109 211.067 52.526C211.119 53.1117 210.987 53.7537 210.629 54.2235C210.007 55.0507 208.964 55.1732 208.252 55.2281L207.352 55.2974ZM217.093 42.3948C216.758 42.4206 216.771 42.567 216.742 42.7166L215.086 56.4284C215.076 56.5555 215.062 56.6408 215.07 56.7245C215.089 56.9336 215.197 56.9674 215.407 56.9512L217.438 56.7947C217.773 56.7689 217.759 56.6225 217.788 56.4728L219.445 42.7611C219.455 42.634 219.468 42.5487 219.46 42.465C219.442 42.2559 219.333 42.2221 219.124 42.2383L217.093 42.3948ZM230.318 41.3755C229.941 41.4046 229.897 41.6186 229.75 41.8616L226.306 47.6449C225.923 48.3062 224.887 50.3868 224.62 50.9339L224.536 50.9404C224.861 48.4513 224.712 50.0844 224.953 48.0651L225.656 42.2824C225.685 42.1328 225.677 42.0491 225.672 41.9864C225.653 41.7772 225.544 41.7434 225.335 41.7596L223.304 41.9161C222.969 41.9419 222.982 42.0883 222.953 42.238L221.297 55.9497C221.287 56.0768 221.273 56.1621 221.281 56.2458C221.3 56.4549 221.408 56.4887 221.618 56.4726L223.544 56.3241C223.837 56.3015 223.913 56.2114 224.077 55.925L227.789 49.5946C228.336 48.6468 228.794 47.8744 229.242 46.7657L229.326 46.7593C229.213 47.3787 229.054 48.423 228.979 48.9974L228.206 55.4172C228.196 55.5443 228.183 55.6296 228.19 55.7133C228.209 55.9224 228.318 55.9562 228.527 55.9401L230.558 55.7835C230.893 55.7577 230.88 55.6113 230.909 55.4617L232.565 41.7499C232.575 41.6228 232.589 41.5375 232.581 41.4539C232.562 41.2447 232.454 41.2109 232.244 41.2271L230.318 41.3755ZM225.229 37.9979C225.105 38.0285 224.903 38.1283 224.918 38.2956L224.932 38.442C224.99 39.0904 225.22 39.5361 225.432 39.7934C225.934 40.4498 226.674 40.7086 227.658 40.6328C229.082 40.5231 230.027 39.7763 230.422 39.0088C230.584 38.7014 230.796 38.0111 230.775 37.7811C230.762 37.6347 230.612 37.6041 230.549 37.609L229.341 37.5336C229.278 37.5384 229.234 37.5208 229.171 37.5256C228.941 37.5433 228.914 37.7139 228.847 37.9086C228.649 38.5136 228.304 38.8982 227.696 38.945C226.964 39.0015 226.831 38.4641 226.786 37.9622L226.782 37.9203C226.763 37.7112 226.659 37.7192 226.327 37.7869L225.229 37.9979ZM241.297 40.5294C240.962 40.5552 240.975 40.7017 240.946 40.8513L239.29 54.5631C239.28 54.6902 239.266 54.7754 239.274 54.8591C239.293 55.0683 239.401 55.102 239.611 55.0859L243.044 54.8213C244.74 54.6905 246.652 54.3748 247.856 52.7656C248.421 52.006 248.789 50.9456 248.69 49.8371C248.56 48.3939 247.705 47.3225 246.474 46.9962C246.958 46.7483 247.554 46.3443 247.979 45.9114C248.653 45.2066 249.075 44.2685 248.97 43.0972C248.694 40.0226 245.673 40.1922 244.835 40.2567L241.297 40.5294ZM242.984 46.4017L243.453 42.4693L244.458 42.3919C245.044 42.3467 246.154 42.2612 246.278 43.6416C246.331 44.2272 246.216 44.8258 245.918 45.2699C245.381 46.0906 244.471 46.2871 243.759 46.342L242.984 46.4017ZM242.207 52.7797L242.732 48.5271L243.905 48.4368C244.554 48.3868 245.711 48.3608 245.852 49.9294C245.934 50.8497 245.629 51.4419 245.383 51.7557C244.779 52.5394 243.862 52.6522 243.066 52.7135L242.207 52.7797ZM252.975 39.6294C252.807 39.6424 252.558 39.6826 252.51 40.0865L250.853 53.7983C250.805 54.2021 251.058 54.2037 251.226 54.1907L253.131 54.0439C253.571 54.01 253.569 53.7574 253.596 53.5869L254.322 47.5918L255.537 47.4982C256.835 47.3982 256.925 48.1704 256.982 48.7979L257.228 51.3062C257.339 52.5402 257.587 53.4267 258.712 53.7402C259.037 53.8415 259.633 53.9009 260.051 53.8686C260.303 53.8492 260.51 53.8122 260.61 53.5097L261.179 51.8652C261.297 51.5402 261.164 51.4662 261.015 51.4566L260.418 51.3763C259.779 51.2992 259.73 50.7554 259.664 50.0233L259.485 48.268C259.382 47.3493 259.118 46.5272 257.95 46.196L257.944 46.1333C259.167 45.66 259.626 44.9085 259.915 43.8964L260.347 42.3678C260.605 41.4845 260.784 41.1337 261.439 40.9147L261.869 40.7762C262.075 40.7183 262.165 40.5429 262.123 40.3144L261.843 38.8407C261.801 38.6122 261.569 38.6091 261.423 38.6204C260.878 38.6623 260.124 38.9521 259.625 39.2643C258.587 39.913 258.31 40.8189 258.069 41.6588L257.538 43.4899C257.139 44.9107 256.506 45.1489 255.627 45.2167L254.601 45.2958L255.253 39.8751C255.262 39.748 255.341 39.4471 254.88 39.4826L252.975 39.6294ZM268.177 46.7557C268.041 45.7132 267.78 44.2169 267.699 43.7809L266.704 38.8031C266.628 38.4298 266.683 38.3413 266.082 38.4508L264.191 38.765C263.942 38.8053 263.67 38.8263 263.69 39.0563C263.696 39.1191 263.681 39.1835 263.743 39.4103L266.041 48.7947C266.079 48.9814 266.183 48.9733 266.246 48.9685L267.586 48.8652L267.334 49.5796C267.183 50.0124 266.71 51.0809 265.6 51.1664C265.244 51.1938 264.898 51.0942 264.634 50.9671C264.39 50.8385 264.187 50.6857 264.04 50.697C263.956 50.7034 263.857 50.7742 263.823 50.8611L263.022 52.5024C262.684 53.2024 264.945 53.4915 265.615 53.4398C266.703 53.3559 267.448 52.9616 267.936 52.5238C268.639 51.901 269.002 51.0096 269.294 50.271L273.797 38.6776C273.814 38.6341 273.83 38.5698 273.847 38.5263C273.845 38.5054 273.866 38.5038 273.864 38.4829C273.9 38.4169 273.938 38.3719 273.933 38.3091C273.912 38.079 273.661 38.0984 273.512 38.0888L271.691 37.9975C271.331 37.9831 271.312 38.2373 271.209 38.498L269.332 43.655C268.708 45.388 268.358 46.4259 268.261 46.7493L268.177 46.7557ZM280.631 49.3763C280.581 49.2958 280.555 49.2347 280.471 49.2411C280.324 49.2524 280.147 49.3924 279.968 49.5116C279.214 50.033 278.593 50.1651 278.216 50.1941C277.546 50.2458 277.13 50.0673 276.858 49.8566C276.312 49.4142 276.168 48.5197 276.114 47.9131C275.956 46.1562 276.033 43.96 276.827 42.0033C277.6 40.0483 278.758 39.5589 279.533 39.4992C280.098 39.4556 280.471 39.6165 281.034 40.0153C281.26 40.1875 281.441 40.321 281.671 40.3032C281.797 40.2935 281.85 40.1841 281.869 40.1616L282.739 38.5782C282.756 38.5347 282.796 38.5106 282.788 38.4269C282.77 38.2178 282.521 38.0264 282.365 37.9331C281.4 37.2913 280.272 37.1677 279.476 37.229C278.199 37.3274 275.863 37.8444 274.379 40.802C273.324 42.9051 273.039 45.3701 273.257 47.7963C273.361 48.9467 273.699 50.8371 275.097 51.8456C275.751 52.3217 276.66 52.5886 277.728 52.5063C278.775 52.4256 279.937 51.9781 280.719 51.5386C280.98 51.3922 281.38 51.1507 281.36 50.9207C281.354 50.8579 281.325 50.7759 281.301 50.7357L280.631 49.3763Z" fill="white"/>
</g>
<defs>
<filter id="filter0_d" x="0.235291" y="0.856934" width="351.098" height="126.194" filterUnits="userSpaceOnUse" color-interpolation-filters="sRGB">
<feFlood flood-opacity="0" result="BackgroundImageFix"/>
<feColorMatrix in="SourceAlpha" type="matrix" values="0 0 0 0 0 0 0 0 0 0 0 0 0 0 0 0 0 0 127 0"/>
<feOffset/>
<feGaussianBlur stdDeviation="4"/>
<feColorMatrix type="matrix" values="0 0 0 0 0 0 0 0 0 0 0 0 0 0 0 0 0 0 0.45 0"/>
<feBlend mode="normal" in2="BackgroundImageFix" result="effect1_dropShadow"/>
<feBlend mode="normal" in="SourceGraphic" in2="effect1_dropShadow" result="shape"/>
</filter>
<filter id="filter1_d" x="53.6158" y="24.215" width="242.174" height="81.4825" filterUnits="userSpaceOnUse" color-interpolation-filters="sRGB">
<feFlood flood-opacity="0" result="BackgroundImageFix"/>
<feColorMatrix in="SourceAlpha" type="matrix" values="0 0 0 0 0 0 0 0 0 0 0 0 0 0 0 0 0 0 127 0"/>
<feOffset/>
<feGaussianBlur stdDeviation="6.5"/>
<feColorMatrix type="matrix" values="0 0 0 0 0 0 0 0 0 0 0 0 0 0 0 0 0 0 0.6 0"/>
<feBlend mode="normal" in2="BackgroundImageFix" result="effect1_dropShadow"/>
<feBlend mode="normal" in="SourceGraphic" in2="effect1_dropShadow" result="shape"/>
</filter>
</defs>
</svg>
