<svg width="1093" height="291" viewBox="0 0 1093 291" fill="none" xmlns="http://www.w3.org/2000/svg">
<g filter="url(#filter0_d)">
<path d="M72.8973 103.921L993.289 102.417L949.477 188.785L19.022 189.467L72.8973 103.921Z" fill="#DD1010"/>
<path d="M72.8924 100.921L71.2396 100.924L70.3588 102.322L16.4834 187.868L13.5847 192.471L19.0242 192.467L949.479 191.785L951.32 191.784L952.153 190.142L995.964 103.775L998.179 99.4094L993.284 99.4174L72.8924 100.921Z" stroke="#F7D431" stroke-width="6"/>
</g>
<g filter="url(#filter1_d)">
<path d="M134.334 136.221C133.55 136.224 133.551 136.567 133.455 136.91L126.877 168.544C126.829 168.838 126.781 169.034 126.781 169.23C126.784 169.72 127.029 169.817 127.519 169.815L135.555 169.781C139.524 169.764 144.03 169.353 147.151 165.811C148.614 164.139 149.682 161.733 149.671 159.136C149.656 155.755 147.881 153.117 145.084 152.149C146.258 151.654 147.724 150.815 148.798 149.879C150.507 148.353 151.674 146.241 151.662 143.497C151.631 136.294 144.575 136.177 142.615 136.185L134.334 136.221ZM137.088 150.174L138.961 141.101L141.313 141.091C142.685 141.085 145.282 141.074 145.295 144.308C145.301 145.68 144.915 147.054 144.135 148.037C142.722 149.856 140.567 150.159 138.901 150.166L137.088 150.174ZM134.015 164.887L136.08 155.078L138.824 155.067C140.343 155.06 143.039 155.196 143.054 158.871C143.064 161.027 142.236 162.353 141.602 163.042C140.042 164.764 137.886 164.871 136.024 164.879L134.015 164.887ZM161.418 136.105C160.634 136.109 160.635 136.452 160.539 136.795L154.009 168.428C153.962 168.722 153.913 168.918 153.914 169.114C153.916 169.604 154.162 169.701 154.652 169.699L163.374 169.662C166.853 169.647 171.26 169.139 174.235 165.745C176.137 163.581 177.054 160.294 177.042 157.501C177.028 154.316 175.649 152.509 174.714 151.631C172.451 149.484 169.461 149.399 167.452 149.408L164.365 149.421L166.813 137.356C166.861 137.062 166.909 136.866 166.908 136.67C166.906 136.18 166.661 136.083 166.171 136.085L161.418 136.105ZM161.244 164.379L163.261 154.718L165.466 154.708C166.838 154.702 170.414 154.54 170.431 158.558C170.437 159.93 170.002 161.402 169.076 162.435C167.467 164.255 165.017 164.363 163.351 164.37L161.244 164.379ZM186.456 135.999C185.672 136.002 185.674 136.345 185.577 136.688L178.999 168.322C178.951 168.616 178.903 168.812 178.904 169.008C178.906 169.498 179.151 169.595 179.641 169.593L184.394 169.573C185.178 169.569 185.177 169.226 185.273 168.883L191.852 137.25C191.9 136.955 191.948 136.759 191.947 136.563C191.945 136.073 191.699 135.976 191.209 135.978L186.456 135.999ZM200.992 135.937C200.208 135.94 200.209 136.283 200.113 136.626L193.534 168.26C193.487 168.554 193.438 168.75 193.439 168.946C193.441 169.436 193.687 169.533 194.177 169.531L202.899 169.494C206.378 169.479 210.785 168.97 213.76 165.576C215.662 163.412 216.579 160.125 216.567 157.381C216.553 154 215.062 149.205 206.977 149.239L203.89 149.252L205.524 141.552L215.765 141.509C216.059 141.507 216.5 141.555 216.791 140.867L218.538 136.891C218.635 136.694 218.732 136.547 218.731 136.302C218.729 135.812 218.239 135.863 217.896 135.865L200.992 135.937ZM200.769 164.211L202.786 154.549L205.824 154.536C208.96 154.523 209.948 156.332 209.957 158.439C209.962 159.762 209.527 161.233 208.601 162.266C206.992 164.086 204.542 164.195 202.876 164.202L200.769 164.211ZM228.219 135.821C227.435 135.824 227.436 136.167 227.34 136.51L220.762 168.144C220.714 168.438 220.666 168.634 220.667 168.83C220.669 169.32 220.914 169.417 221.404 169.415L237.672 169.346C238.456 169.342 238.454 168.999 238.551 168.656L239.367 164.732C239.463 164.193 238.728 164.196 238.532 164.197L227.997 164.242L230.013 154.384L238.441 154.348C239.078 154.345 239.176 154.296 239.32 153.658L240.04 150.078C240.088 149.784 240.232 149.196 239.399 149.199L231.118 149.234L232.847 140.946L242.451 140.905C242.794 140.904 243.137 140.951 243.477 140.264L245.226 136.777C245.323 136.532 245.42 136.384 245.42 136.188C245.418 135.698 244.928 135.749 244.585 135.751L228.219 135.821ZM254.489 135.709C253.705 135.712 253.707 136.055 253.61 136.398L247.032 168.032C246.984 168.326 246.936 168.522 246.937 168.718C246.939 169.208 247.184 169.305 247.674 169.303L252.427 169.283C253.211 169.279 253.21 168.936 253.306 168.593L255.947 155.842L258.495 155.831C266.874 155.795 271.998 150.775 271.967 143.572C271.937 136.467 266.837 135.656 263.309 135.671L254.489 135.709ZM257.051 150.545L259.02 140.981L261.519 140.971C262.793 140.965 265.586 141.149 265.601 144.53C265.608 146.196 265.185 150.51 258.521 150.539L257.051 150.545ZM296.648 135.529C295.766 135.533 295.621 136.023 295.231 136.564L286.074 149.441C285.051 150.916 282.229 155.583 281.499 156.811L281.304 156.812C282.553 151.073 281.883 154.849 282.843 150.19L285.628 136.85C285.725 136.507 285.724 136.311 285.724 136.164C285.721 135.674 285.476 135.577 284.986 135.579L280.233 135.599C279.449 135.602 279.451 135.945 279.354 136.289L272.776 167.922C272.728 168.216 272.68 168.412 272.681 168.608C272.683 169.098 272.928 169.195 273.418 169.193L277.926 169.174C278.612 169.171 278.807 168.974 279.246 168.335L289.133 154.23C290.594 152.117 291.811 150.397 293.075 147.892L293.271 147.892C292.885 149.314 292.307 151.718 292.019 153.042L288.946 167.853C288.898 168.147 288.85 168.344 288.851 168.54C288.853 169.03 289.098 169.126 289.588 169.124L294.341 169.104C295.125 169.101 295.124 168.758 295.22 168.414L301.798 136.781C301.846 136.487 301.894 136.291 301.893 136.095C301.891 135.605 301.646 135.508 301.156 135.51L296.648 135.529ZM319.454 141.067L325.53 141.041C325.873 141.04 326.217 141.087 326.557 140.4L328.5 136.422C328.548 136.275 328.646 136.128 328.693 135.882C328.693 135.833 328.693 135.784 328.693 135.735C328.642 135.344 328.152 135.395 327.858 135.396L307.818 135.481C306.936 135.485 307.035 135.779 306.938 136.171L306.121 139.85C306.025 140.193 305.976 140.389 305.977 140.585C305.98 141.173 306.47 141.122 306.813 141.121L313.085 141.094L307.465 167.774C307.369 168.118 307.369 168.314 307.37 168.461C307.372 168.951 307.618 169.048 308.108 169.045L312.861 169.025C313.645 169.022 313.643 168.679 313.74 168.335L319.454 141.067ZM333.635 135.371C332.851 135.375 332.852 135.718 332.756 136.061L326.178 167.694C326.13 167.989 326.082 168.185 326.083 168.381C326.085 168.871 326.33 168.968 326.82 168.966L343.088 168.896C343.872 168.893 343.87 168.55 343.967 168.207L344.783 164.283C344.879 163.744 344.144 163.747 343.948 163.748L333.413 163.793L335.429 153.935L343.857 153.899C344.494 153.896 344.592 153.847 344.736 153.209L345.456 149.629C345.504 149.335 345.648 148.746 344.815 148.75L336.534 148.785L338.263 140.497L347.867 140.456C348.21 140.454 348.553 140.502 348.893 139.814L350.642 136.328C350.739 136.083 350.837 135.935 350.836 135.739C350.834 135.249 350.344 135.3 350.001 135.302L333.635 135.371ZM662.691 167.535L661.299 174.205C661.299 174.303 661.299 174.352 661.3 174.45C661.3 174.597 661.203 174.744 661.204 174.891C661.206 175.332 661.451 175.478 661.99 175.476L666.302 175.457C667.086 175.454 667.133 174.964 667.181 174.768L669.485 163.488C669.533 163.194 669.581 162.997 669.58 162.801C669.578 162.213 669.186 162.215 668.892 162.216L666.785 162.225L672.403 135.202C672.45 134.908 672.499 134.712 672.498 134.516C672.496 134.026 672.25 133.929 671.76 133.931L655.933 133.998C655.149 134.002 655.151 134.345 655.054 134.688L654.094 139.2C652.508 146.606 651.251 150.629 650.767 152.003C649.461 155.929 648.004 158.973 645.617 162.315L644.196 162.321C643.412 162.325 643.364 162.57 643.268 163.011L640.915 174.292C640.915 174.39 640.916 174.439 640.916 174.537C640.917 174.684 640.819 174.831 640.82 174.978C640.822 175.419 641.067 175.565 641.606 175.563L645.918 175.544C646.702 175.541 646.749 175.051 646.797 174.854L648.285 167.596L662.691 167.535ZM660.121 139.272L665.168 139.251L660.366 162.253L651.889 162.289C653.545 159.93 654.565 157.916 655.728 154.873C657.037 151.487 658.245 147.561 659.207 143.343L660.121 139.272ZM689.609 139.147L695.146 139.123L689.528 166.146C689.48 166.441 689.432 166.637 689.433 166.833C689.435 167.323 689.68 167.42 690.17 167.418L694.923 167.397C695.707 167.394 695.706 167.051 695.802 166.708L702.38 135.074C702.428 134.78 702.476 134.584 702.476 134.388C702.473 133.898 702.228 133.801 701.738 133.803L685.617 133.872C684.833 133.875 684.835 134.218 684.738 134.561L683.008 142.556C682.432 145.253 680.17 154.916 678.665 158.206C677.354 161.102 675.693 162.138 673.538 162.392L672.705 162.494C672.068 162.595 671.973 163.232 671.974 163.477L672.238 167.886C672.289 168.425 672.73 168.374 673.024 168.324L673.807 168.222C677.725 167.716 680.315 165.892 682.02 163.728C684.262 160.877 685.81 156.166 688.455 144.346L689.609 139.147ZM720.825 133.722C718.032 133.734 714.751 134.042 712.114 136.16C709.867 137.982 708.459 141.026 708.473 144.358C708.489 148.033 710.409 150.083 712.667 151.054L712.619 151.25C709.537 152.537 708.47 155.139 707.936 156.317L706.675 159.164C705.752 161.226 705.462 162.109 703.847 162.459L702.525 162.759C701.79 162.909 701.793 163.497 701.843 163.742L702.496 167.463C702.546 167.806 702.499 168.198 703.528 168.194C704.508 168.19 705.781 167.939 706.711 167.641C710.087 166.598 710.959 164.242 711.977 161.69L713.771 157.076C714.643 154.769 715.815 153.784 718.216 153.774L719.98 153.766L717.435 166.027C717.387 166.322 717.339 166.518 717.34 166.714C717.342 167.204 717.587 167.301 718.077 167.299L722.83 167.278C723.614 167.275 723.613 166.932 723.709 166.589L730.288 134.955C730.335 134.661 730.384 134.465 730.383 134.269C730.381 133.779 730.135 133.682 729.645 133.684L720.825 133.722ZM720.987 148.568L718.733 148.578C716.185 148.589 714.854 146.732 714.844 144.478C714.837 142.861 715.516 141.143 716.688 140.158C718.006 139.075 719.525 139.019 720.848 139.014L723.004 139.004L720.987 148.568ZM774.079 134.671C774.126 134.328 774.174 134.131 774.174 133.984C774.173 133.837 774.172 133.494 773.535 133.497L769.076 133.516C768.488 133.519 768.293 133.715 768.147 134.01L761.242 146.633C760.367 148.204 759.638 149.677 758.671 152.72L758.573 152.72C758.616 151.152 758.652 148.261 758.498 146.497L757.368 134.35C757.266 133.468 756.924 133.568 756.63 133.569L751.828 133.59C751.436 133.591 751.141 133.495 750.949 134.279L742.754 166.018C742.658 166.41 742.658 166.508 742.659 166.655C742.659 166.851 742.661 167.194 743.298 167.191L747.316 167.174C747.561 167.173 748.002 167.22 748.195 166.484L752.188 149.17C752.525 147.748 753.338 142.942 753.528 141.716L753.626 141.716C753.79 145.586 753.74 145.342 754.099 149.015L755.121 158.909C755.222 159.79 755.467 159.74 755.908 159.738L758.211 159.729C758.848 159.726 758.945 159.432 759.091 159.186L764.926 148.528C765.947 146.662 767.161 144.206 768.13 141.654L768.229 141.752C767.746 143.42 766.879 146.903 766.591 148.472L763.579 165.929C763.483 166.37 763.483 166.468 763.483 166.566C763.484 166.811 763.535 167.105 764.123 167.103L768.141 167.085C768.288 167.085 768.925 167.131 769.02 166.396L774.079 134.671ZM790.921 133.423C790.676 133.424 790.284 133.377 790.041 133.868L774.056 165.884C773.959 166.081 773.813 166.228 773.814 166.522C773.815 166.767 773.963 167.061 774.453 167.059L779.5 167.037C780.186 167.034 780.331 166.641 780.477 166.347L784.215 158.099L792.545 158.063L792.924 166.441C792.924 166.539 792.975 166.98 793.563 166.977L798.708 166.955C798.953 166.954 799.59 166.951 799.538 166.266L796.511 134.232C796.458 133.448 796.115 133.401 795.625 133.403L790.921 133.423ZM792.379 153.654L785.813 153.682L790.278 143.422C790.666 142.538 791.104 141.752 791.586 140.084L791.684 140.084C791.69 141.358 791.798 143.709 791.851 144.689L792.379 153.654ZM811.811 133.334C811.027 133.337 811.029 133.68 810.932 134.024L804.354 165.657C804.306 165.951 804.258 166.148 804.259 166.344C804.261 166.834 804.506 166.93 804.996 166.928L809.749 166.908C810.533 166.905 810.532 166.562 810.628 166.218L816.294 138.95L825.751 138.91C826.29 138.907 826.534 138.612 826.68 138.318L828.476 134.292C828.573 134.047 828.67 133.948 828.669 133.752C828.667 133.262 828.128 133.265 828.03 133.265L811.811 133.334ZM833.536 133.241C832.752 133.245 832.753 133.588 832.657 133.931L826.078 165.565C826.031 165.859 825.982 166.055 825.983 166.251C825.985 166.741 826.231 166.838 826.721 166.836L831.474 166.816C832.258 166.812 832.256 166.469 832.353 166.126L835.233 152.05L844.249 152.012L841.464 165.499C841.417 165.793 841.368 165.989 841.369 166.185C841.371 166.675 841.617 166.772 842.107 166.77L846.86 166.75C847.644 166.747 847.642 166.404 847.739 166.06L854.317 134.427C854.365 134.133 854.413 133.937 854.412 133.741C854.41 133.251 854.165 133.154 853.675 133.156L848.922 133.176C848.138 133.179 848.139 133.522 848.043 133.866L845.353 146.715L836.386 146.753L838.931 134.492C838.979 134.198 839.027 134.002 839.026 133.806C839.024 133.316 838.779 133.219 838.289 133.221L833.536 133.241ZM879.905 133.044C879.023 133.048 878.879 133.538 878.489 134.079L869.332 146.956C868.309 148.43 865.487 153.098 864.757 154.326L864.561 154.326C865.811 148.588 865.141 152.364 866.101 147.705L868.886 134.365C868.982 134.021 868.982 133.825 868.981 133.678C868.979 133.188 868.734 133.092 868.244 133.094L863.491 133.114C862.707 133.117 862.708 133.46 862.611 133.804L856.033 165.437C855.985 165.731 855.937 165.927 855.938 166.123C855.94 166.613 856.186 166.71 856.676 166.708L861.184 166.689C861.87 166.686 862.065 166.489 862.503 165.85L872.39 151.745C873.851 149.632 875.069 147.912 876.332 145.407L876.528 145.406C876.142 146.829 875.564 149.233 875.276 150.557L872.203 165.368C872.155 165.662 872.107 165.858 872.108 166.054C872.11 166.544 872.355 166.641 872.845 166.639L877.598 166.619C878.382 166.616 878.381 166.273 878.478 165.929L885.056 134.296C885.104 134.002 885.152 133.806 885.151 133.61C885.149 133.12 884.903 133.023 884.413 133.025L879.905 133.044ZM902.712 138.582L908.788 138.556C909.131 138.554 909.474 138.602 909.814 137.915L911.757 133.937C911.806 133.79 911.903 133.643 911.951 133.397C911.951 133.348 911.95 133.299 911.95 133.25C911.9 132.859 911.41 132.91 911.116 132.911L891.075 132.996C890.193 133 890.292 133.294 890.196 133.686L889.379 137.365C889.282 137.708 889.234 137.904 889.235 138.1C889.237 138.688 889.727 138.637 890.07 138.636L896.342 138.609L890.723 165.289C890.626 165.633 890.627 165.829 890.628 165.976C890.63 166.466 890.875 166.562 891.365 166.56L896.118 166.54C896.902 166.537 896.901 166.194 896.997 165.85L902.712 138.582ZM920.263 132.872C920.018 132.873 919.625 132.826 919.383 133.317L903.398 165.333C903.301 165.53 903.154 165.677 903.156 165.971C903.157 166.216 903.305 166.51 903.795 166.507L908.842 166.486C909.528 166.483 909.673 166.09 909.819 165.796L913.557 157.548L921.887 157.512L922.265 165.89C922.266 165.988 922.317 166.429 922.905 166.426L928.05 166.404C928.295 166.403 928.932 166.4 928.88 165.715L925.852 133.681C925.8 132.897 925.457 132.85 924.967 132.852L920.263 132.872ZM921.721 153.103L915.155 153.131L919.619 142.871C920.008 141.987 920.445 141.201 920.928 139.533L921.026 139.533C921.031 140.807 921.14 143.158 921.193 144.138L921.721 153.103Z" fill="#F7D431"/>
<path d="M371.342 135.211C370.558 135.214 370.559 135.557 370.463 135.901L363.884 167.534C363.837 167.828 363.788 168.024 363.789 168.22C363.791 168.71 364.037 168.807 364.527 168.805L369.28 168.785C370.064 168.782 370.062 168.439 370.159 168.095L373.039 154.02L382.055 153.981L379.27 167.468C379.222 167.762 379.174 167.959 379.175 168.155C379.177 168.645 379.423 168.742 379.913 168.74L384.666 168.719C385.45 168.716 385.448 168.373 385.545 168.03L392.123 136.396C392.171 136.102 392.219 135.906 392.218 135.71C392.216 135.22 391.97 135.123 391.48 135.125L386.728 135.145C385.944 135.149 385.945 135.492 385.848 135.835L383.159 148.685L374.192 148.723L376.737 136.462C376.785 136.168 376.833 135.971 376.832 135.775C376.83 135.285 376.585 135.188 376.095 135.191L371.342 135.211ZM419.713 144.707C419.701 142.061 419.227 134.174 410.897 134.209C407.712 134.223 402.376 135.422 398.387 142.25C395.712 146.867 394.416 153.292 394.44 158.976C394.477 167.55 399.238 169.49 403.207 169.473C407.813 169.454 412.654 167.032 415.864 161.481C418.442 156.962 419.735 149.901 419.713 144.707ZM404.263 164.324C401.372 164.336 401.066 161.593 401.058 159.584C401.042 155.909 401.655 150.174 403.838 145.117C404.76 142.908 406.705 139.372 409.988 139.358C412.977 139.345 413.088 142.432 413.095 144.049C413.111 147.92 412.644 153.361 410.413 158.565C409.442 160.823 407.595 164.31 404.263 164.324ZM429.623 134.962C428.839 134.966 428.841 135.309 428.744 135.652L422.166 167.286C422.118 167.58 422.07 167.776 422.071 167.972C422.073 168.462 422.318 168.559 422.808 168.557L430.844 168.523C434.813 168.506 439.319 168.094 442.44 164.553C443.903 162.881 444.971 160.475 444.96 157.878C444.946 154.497 443.17 151.859 440.373 150.891C441.547 150.396 443.013 149.557 444.088 148.621C445.796 147.095 446.963 144.983 446.951 142.239C446.921 135.036 439.864 134.919 437.904 134.927L429.623 134.962ZM432.378 148.916L434.25 139.843L436.602 139.833C437.974 139.827 440.571 139.816 440.585 143.05C440.591 144.422 440.204 145.795 439.425 146.779C438.011 148.598 435.857 148.901 434.191 148.908L432.378 148.916ZM429.304 163.629L431.37 153.82L434.114 153.808C435.633 153.802 438.328 153.938 438.344 157.612C438.353 159.768 437.526 161.095 436.892 161.784C435.331 163.505 433.175 163.613 431.313 163.621L429.304 163.629ZM456.707 134.847C455.923 134.85 455.924 135.193 455.828 135.537L449.299 167.17C449.251 167.464 449.203 167.66 449.204 167.856C449.206 168.346 449.451 168.443 449.941 168.441L458.663 168.404C462.142 168.389 466.55 167.88 469.524 164.487C471.426 162.323 472.343 159.036 472.331 156.243C472.318 153.058 470.938 151.251 470.003 150.373C467.74 148.226 464.751 148.141 462.742 148.149L459.655 148.163L462.102 136.098C462.15 135.804 462.198 135.608 462.197 135.412C462.195 134.922 461.95 134.825 461.46 134.827L456.707 134.847ZM456.533 163.121L458.55 153.459L460.755 153.45C462.127 153.444 465.704 153.282 465.721 157.3C465.727 158.672 465.292 160.144 464.365 161.177C462.756 162.997 460.306 163.105 458.64 163.112L456.533 163.121ZM481.746 134.74C480.962 134.744 480.963 135.087 480.867 135.43L474.288 167.063C474.241 167.358 474.192 167.554 474.193 167.75C474.195 168.24 474.441 168.337 474.931 168.335L479.684 168.314C480.468 168.311 480.466 167.968 480.563 167.625L487.141 135.991C487.189 135.697 487.237 135.501 487.236 135.305C487.234 134.815 486.989 134.718 486.499 134.72L481.746 134.74ZM512.696 134.608C511.814 134.612 511.669 135.103 511.279 135.644L502.122 148.521C501.099 149.995 498.277 154.662 497.547 155.89L497.351 155.891C498.601 150.153 497.931 153.929 498.891 149.269L501.676 135.929C501.773 135.586 501.772 135.39 501.771 135.243C501.769 134.753 501.524 134.656 501.034 134.658L496.281 134.678C495.497 134.682 495.498 135.025 495.402 135.368L488.824 167.001C488.776 167.296 488.728 167.492 488.729 167.688C488.731 168.178 488.976 168.275 489.466 168.273L493.974 168.254C494.66 168.251 494.855 168.054 495.293 167.415L505.18 153.31C506.641 151.196 507.859 149.476 509.122 146.972L509.318 146.971C508.933 148.394 508.355 150.797 508.066 152.121L504.993 166.933C504.946 167.227 504.898 167.423 504.898 167.619C504.9 168.109 505.146 168.206 505.636 168.204L510.389 168.184C511.173 168.18 511.171 167.837 511.268 167.494L517.846 135.861C517.894 135.566 517.942 135.37 517.941 135.174C517.939 134.684 517.694 134.587 517.204 134.589L512.696 134.608ZM501.536 125.885C501.242 125.935 500.753 126.133 500.754 126.525L500.756 126.868C500.762 128.387 501.208 129.463 501.652 130.099C502.687 131.711 504.357 132.439 506.659 132.429C509.991 132.415 512.337 130.837 513.407 129.117C513.846 128.43 514.476 126.859 514.474 126.32C514.472 125.977 514.129 125.88 513.982 125.881L511.187 125.501C511.04 125.501 510.942 125.453 510.795 125.454C510.256 125.456 510.159 125.848 509.965 126.29C509.383 127.665 508.505 128.501 507.084 128.507C505.369 128.515 505.167 127.241 505.162 126.066L505.162 125.968C505.16 125.478 504.915 125.479 504.131 125.58L501.536 125.885ZM538.389 134.499C537.605 134.502 537.606 134.845 537.51 135.189L530.931 166.822C530.884 167.116 530.836 167.313 530.836 167.509C530.838 167.998 531.084 168.095 531.574 168.093L539.61 168.059C543.579 168.042 548.085 167.631 551.206 164.09C552.669 162.417 553.737 160.012 553.726 157.415C553.711 154.034 551.936 151.395 549.139 150.427C550.313 149.932 551.779 149.093 552.853 148.158C554.562 146.631 555.729 144.519 555.717 141.775C555.686 134.572 548.63 134.455 546.67 134.464L538.389 134.499ZM541.143 148.452L543.016 139.379L545.368 139.369C546.74 139.363 549.337 139.352 549.35 142.586C549.356 143.958 548.97 145.332 548.19 146.315C546.777 148.134 544.622 148.438 542.956 148.445L541.143 148.452ZM538.07 163.166L540.135 153.357L542.879 153.345C544.398 153.339 547.094 153.474 547.109 157.149C547.119 159.305 546.291 160.632 545.657 161.32C544.096 163.042 541.941 163.149 540.079 163.157L538.07 163.166ZM565.718 134.383C565.326 134.384 564.738 134.436 564.546 135.368L557.967 167.001C557.775 167.933 558.364 167.979 558.756 167.978L563.215 167.959C564.244 167.954 564.29 167.366 564.386 166.974L567.268 153.143L570.109 153.131C573.147 153.118 573.204 154.931 573.21 156.401L573.284 162.281C573.297 165.172 573.698 167.277 576.25 168.197C576.986 168.488 578.359 168.727 579.339 168.723C579.927 168.72 580.417 168.669 580.708 167.982L582.358 164.251C582.698 163.514 582.403 163.32 582.06 163.272L580.687 162.984C579.215 162.696 579.21 161.422 579.203 159.707L579.136 155.592C579.078 153.436 578.629 151.478 575.978 150.509L575.978 150.362C578.914 149.467 580.132 147.796 581.004 145.49L582.312 142.005C583.088 139.993 583.574 139.207 585.141 138.808L586.169 138.558C586.658 138.458 586.901 138.065 586.85 137.527L586.492 134.049C586.441 133.51 585.902 133.464 585.559 133.465C584.285 133.47 582.474 134.017 581.252 134.659C578.71 135.993 577.885 138.055 577.158 139.969L575.559 144.141C574.348 147.38 572.831 147.827 570.773 147.836L568.372 147.846L570.965 135.34C571.012 135.046 571.255 134.359 570.177 134.364L565.718 134.383ZM599.644 153.544C599.536 151.095 599.226 147.568 599.124 146.539L597.8 134.785C597.698 133.903 597.844 133.707 596.424 133.86L591.967 134.271C591.379 134.322 590.742 134.325 590.744 134.864C590.745 135.011 590.697 135.158 590.797 135.697L594.273 157.928C594.323 158.369 594.568 158.368 594.715 158.367L597.851 158.354L597.123 159.974C596.687 160.956 595.374 163.362 592.777 163.374C591.944 163.377 591.159 163.086 590.569 162.746C590.029 162.405 589.586 162.015 589.243 162.017C589.047 162.017 588.803 162.165 588.705 162.362L586.516 166.046C585.592 167.618 590.79 168.674 592.358 168.667C594.906 168.657 596.716 167.865 597.937 166.929C599.695 165.598 600.716 163.585 601.542 161.915L614.317 135.695C614.366 135.596 614.414 135.449 614.463 135.351C614.462 135.302 614.511 135.302 614.511 135.253C614.609 135.105 614.706 135.007 614.705 134.86C614.703 134.321 614.115 134.323 613.772 134.276L609.556 133.755C608.722 133.66 608.627 134.249 608.335 134.838L602.946 146.523C601.15 150.451 600.131 152.807 599.84 153.543L599.644 153.544ZM628.077 161.753C627.978 161.558 627.928 161.411 627.732 161.412C627.389 161.413 626.949 161.709 626.509 161.956C624.652 163.042 623.183 163.244 622.301 163.248C620.733 163.254 619.8 162.768 619.21 162.232C618.029 161.11 617.873 159.004 617.867 157.583C617.849 153.467 618.464 148.368 620.7 143.948C622.886 139.529 625.675 138.586 627.488 138.578C628.811 138.573 629.646 139.01 630.875 140.034C631.367 140.473 631.76 140.814 632.299 140.812C632.593 140.811 632.739 140.565 632.788 140.516L635.125 136.978C635.174 136.88 635.271 136.83 635.271 136.634C635.269 136.144 634.727 135.657 634.383 135.413C632.269 133.756 629.67 133.277 627.808 133.285C624.819 133.298 619.286 134.105 615.247 140.738C612.376 145.454 611.224 151.143 611.248 156.827C611.26 159.522 611.671 163.979 614.72 166.563C616.146 167.782 618.208 168.557 620.706 168.547C623.156 168.536 625.946 167.691 627.853 166.801C628.489 166.504 629.467 166.01 629.464 165.471C629.464 165.324 629.414 165.128 629.365 165.031L628.077 161.753Z" fill="white"/>
</g>
<defs>
<filter id="filter0_d" x="0.147461" y="0.908691" width="1010.92" height="290.059" filterUnits="userSpaceOnUse" color-interpolation-filters="sRGB">
<feFlood flood-opacity="0" result="BackgroundImageFix"/>
<feColorMatrix in="SourceAlpha" type="matrix" values="0 0 0 0 0 0 0 0 0 0 0 0 0 0 0 0 0 0 127 0"/>
<feOffset/>
<feGaussianBlur stdDeviation="4"/>
<feColorMatrix type="matrix" values="0 0 0 0 0 0 0 0 0 0 0 0 0 0 0 0 0 0 0.45 0"/>
<feBlend mode="normal" in2="BackgroundImageFix" result="effect1_dropShadow"/>
<feBlend mode="normal" in="SourceGraphic" in2="effect1_dropShadow" result="shape"/>
</filter>
<filter id="filter1_d" x="113.781" y="112.453" width="828.101" height="76.1091" filterUnits="userSpaceOnUse" color-interpolation-filters="sRGB">
<feFlood flood-opacity="0" result="BackgroundImageFix"/>
<feColorMatrix in="SourceAlpha" type="matrix" values="0 0 0 0 0 0 0 0 0 0 0 0 0 0 0 0 0 0 127 0"/>
<feOffset/>
<feGaussianBlur stdDeviation="6.5"/>
<feColorMatrix type="matrix" values="0 0 0 0 0 0 0 0 0 0 0 0 0 0 0 0 0 0 0.6 0"/>
<feBlend mode="normal" in2="BackgroundImageFix" result="effect1_dropShadow"/>
<feBlend mode="normal" in="SourceGraphic" in2="effect1_dropShadow" result="shape"/>
</filter>
</defs>
</svg>
