<svg width="1149" height="254" viewBox="0 0 1149 254" fill="none" xmlns="http://www.w3.org/2000/svg">
<g filter="url(#filter0_d)">
<path d="M70.824 108.475L1071.18 52.5797L1027.84 157.009L19 201.605L70.824 108.475Z" fill="#DD1010"/>
<path d="M70.6567 105.48L69.0063 105.572L68.2026 107.016L16.3785 200.146L13.767 204.839L19.1325 204.602L1027.97 160.006L1029.88 159.922L1030.61 158.159L1073.95 53.7298L1075.79 49.3179L1071.02 49.5844L70.6567 105.48Z" stroke="#F7D431" stroke-width="6"/>
</g>
<g filter="url(#filter1_d)">
<path d="M151.319 136.053C150.536 136.102 150.558 136.444 150.482 136.793L145.768 168.757C145.737 169.053 145.701 169.252 145.713 169.448C145.744 169.937 145.995 170.019 146.484 169.988L154.504 169.484C158.465 169.234 162.939 168.56 165.847 164.842C167.21 163.087 168.135 160.623 167.972 158.031C167.759 154.656 165.832 152.126 162.983 151.324C164.126 150.761 165.541 149.837 166.558 148.84C168.175 147.217 169.216 145.04 169.044 142.301C168.591 135.112 161.54 135.409 159.584 135.532L151.319 136.053ZM154.886 149.821L156.224 140.653L158.571 140.506C159.94 140.419 162.532 140.256 162.735 143.484C162.822 144.853 162.517 146.247 161.796 147.274C160.491 149.173 158.358 149.602 156.695 149.707L154.886 149.821ZM152.68 164.689L154.167 154.776L156.905 154.603C158.421 154.508 161.12 154.485 161.351 158.153C161.487 160.305 160.739 161.677 160.146 162.402C158.689 164.212 156.543 164.445 154.685 164.562L152.68 164.689ZM178.349 134.351C177.567 134.4 177.588 134.742 177.512 135.091L172.847 167.052C172.817 167.349 172.78 167.547 172.792 167.743C172.823 168.232 173.074 168.314 173.563 168.284L182.268 167.736C185.74 167.517 190.11 166.751 192.881 163.189C194.653 160.917 195.376 157.582 195.2 154.794C195 151.616 193.517 149.893 192.532 149.071C190.147 147.061 187.158 147.151 185.153 147.277L182.072 147.471L183.809 135.284C183.839 134.987 183.876 134.788 183.863 134.593C183.833 134.104 183.582 134.021 183.093 134.052L178.349 134.351ZM179.832 162.586L181.28 152.823L183.48 152.685C184.85 152.598 188.41 152.227 188.663 156.237C188.749 157.606 188.401 159.101 187.537 160.187C186.037 162.098 183.598 162.349 181.935 162.454L179.832 162.586ZM203.339 132.778C202.556 132.827 202.578 133.169 202.502 133.518L197.788 165.482C197.757 165.778 197.721 165.977 197.733 166.173C197.764 166.662 198.015 166.744 198.504 166.713L203.247 166.415C204.03 166.366 204.008 166.023 204.084 165.675L208.798 133.71C208.829 133.414 208.865 133.215 208.853 133.02C208.822 132.531 208.572 132.448 208.082 132.479L203.339 132.778ZM217.846 131.864C217.063 131.914 217.085 132.256 217.008 132.604L212.294 164.569C212.264 164.865 212.227 165.064 212.24 165.259C212.271 165.749 212.521 165.831 213.01 165.8L221.715 165.252C225.187 165.034 229.558 164.267 232.328 160.705C234.1 158.433 234.823 155.098 234.651 152.36C234.438 148.986 232.669 144.285 224.6 144.793L221.519 144.987L222.699 137.205L232.919 136.561C233.213 136.543 233.656 136.564 233.906 135.861L235.418 131.789C235.503 131.587 235.592 131.434 235.576 131.19C235.545 130.701 235.059 130.781 234.717 130.802L217.846 131.864ZM219.28 160.103L220.727 150.34L223.759 150.149C226.889 149.952 227.981 151.7 228.113 153.802C228.196 155.123 227.849 156.618 226.984 157.703C225.484 159.614 223.045 159.866 221.382 159.971L219.28 160.103ZM245.019 130.154C244.237 130.203 244.258 130.545 244.182 130.894L239.468 162.858C239.438 163.154 239.401 163.353 239.413 163.549C239.444 164.038 239.695 164.12 240.184 164.089L256.42 163.067C257.202 163.018 257.181 162.676 257.257 162.327L257.842 158.363C257.906 157.818 257.172 157.865 256.977 157.877L246.463 158.539L247.898 148.58L256.309 148.051C256.945 148.011 257.04 147.955 257.146 147.31L257.655 143.694C257.685 143.398 257.795 142.802 256.964 142.854L248.699 143.374L249.939 134.999L259.524 134.396C259.867 134.374 260.212 134.401 260.511 133.695L262.053 130.112C262.136 129.861 262.224 129.709 262.212 129.513C262.181 129.024 261.695 129.104 261.353 129.125L245.019 130.154ZM271.238 128.503C270.455 128.552 270.477 128.894 270.401 129.243L265.687 161.207C265.656 161.504 265.62 161.702 265.632 161.898C265.663 162.387 265.914 162.47 266.403 162.439L271.146 162.14C271.929 162.091 271.907 161.749 271.983 161.4L273.873 148.516L276.416 148.356C284.778 147.829 289.599 142.518 289.146 135.329C288.7 128.238 283.561 127.727 280.04 127.949L271.238 128.503ZM274.665 143.164L276.069 133.501L278.564 133.344C279.835 133.264 282.635 133.284 282.847 136.659C282.952 138.321 282.783 142.652 276.132 143.071L274.665 143.164ZM313.314 125.854C312.433 125.909 312.318 126.408 311.96 126.97L303.573 140.362C302.638 141.893 300.095 146.718 299.438 147.987L299.242 147.999C300.154 142.197 299.706 146.006 300.392 141.298L302.391 127.818C302.467 127.47 302.454 127.274 302.445 127.127C302.414 126.638 302.164 126.556 301.675 126.587L296.931 126.885C296.149 126.935 296.17 127.277 296.094 127.625L291.38 159.59C291.35 159.886 291.313 160.085 291.325 160.281C291.356 160.77 291.607 160.852 292.096 160.821L296.595 160.538C297.28 160.495 297.463 160.287 297.863 159.623L306.907 144.963C308.241 142.768 309.356 140.979 310.471 138.405L310.666 138.393C310.364 139.836 309.928 142.269 309.718 143.608L307.518 158.574C307.488 158.87 307.451 159.069 307.463 159.265C307.494 159.754 307.745 159.836 308.234 159.805L312.978 159.507C313.76 159.457 313.738 159.115 313.815 158.767L318.529 126.802C318.559 126.506 318.596 126.307 318.583 126.111C318.553 125.622 318.302 125.54 317.813 125.571L313.314 125.854ZM336.405 130.046L342.469 129.665C342.812 129.643 343.157 129.67 343.456 128.964L345.163 124.88C345.203 124.73 345.291 124.577 345.325 124.33C345.322 124.281 345.319 124.232 345.316 124.183C345.242 123.795 344.756 123.874 344.463 123.893L324.461 125.152C323.581 125.208 323.697 125.495 323.624 125.892L323.024 129.612C322.947 129.961 322.911 130.159 322.923 130.355C322.96 130.942 323.446 130.862 323.788 130.841L330.048 130.447L326.001 157.41C325.925 157.759 325.937 157.954 325.947 158.101C325.977 158.59 326.228 158.672 326.717 158.642L331.461 158.343C332.243 158.294 332.222 157.951 332.298 157.603L336.405 130.046ZM350.228 123.53C349.446 123.579 349.467 123.922 349.391 124.27L344.677 156.234C344.646 156.531 344.61 156.73 344.622 156.925C344.653 157.414 344.904 157.497 345.393 157.466L361.629 156.444C362.411 156.394 362.389 156.052 362.466 155.704L363.051 151.739C363.115 151.195 362.381 151.241 362.186 151.253L351.671 151.915L353.106 141.957L361.518 141.427C362.154 141.387 362.248 141.332 362.355 140.687L362.864 137.071C362.894 136.774 363.004 136.178 362.173 136.231L353.908 136.751L355.148 128.375L364.733 127.772C365.075 127.75 365.421 127.778 365.72 127.072L367.262 123.489C367.344 123.238 367.433 123.085 367.421 122.889C367.39 122.4 366.904 122.48 366.562 122.502L350.228 123.53ZM680.603 136.362L679.604 143.102C679.61 143.2 679.613 143.249 679.619 143.347C679.629 143.494 679.54 143.646 679.549 143.793C679.577 144.233 679.831 144.365 680.369 144.331L684.672 144.06C685.454 144.01 685.473 143.518 685.509 143.32L687.148 131.924C687.179 131.628 687.215 131.429 687.203 131.233C687.166 130.647 686.775 130.671 686.482 130.69L684.379 130.822L688.404 103.516C688.434 103.22 688.471 103.021 688.459 102.825C688.428 102.336 688.177 102.254 687.688 102.285L671.892 103.279C671.11 103.328 671.132 103.671 671.055 104.019L670.36 108.58C669.212 116.066 668.193 120.156 667.79 121.556C666.716 125.551 665.439 128.676 663.253 132.152L661.834 132.241C661.052 132.291 661.018 132.538 660.948 132.984L659.26 144.383C659.266 144.481 659.269 144.53 659.276 144.628C659.285 144.774 659.196 144.927 659.205 145.074C659.233 145.514 659.487 145.645 660.025 145.611L664.328 145.341C665.111 145.291 665.129 144.799 665.165 144.6L666.226 137.267L680.603 136.362ZM676.382 108.299L681.419 107.982L677.972 131.225L669.512 131.758C671.027 129.306 671.928 127.236 672.911 124.13C674.019 120.673 674.995 116.684 675.708 112.416L676.382 108.299ZM705.812 106.446L711.338 106.098L707.312 133.404C707.282 133.701 707.245 133.899 707.258 134.095C707.288 134.584 707.539 134.666 708.028 134.636L712.772 134.337C713.554 134.288 713.533 133.945 713.609 133.597L718.323 101.633C718.353 101.336 718.39 101.137 718.378 100.942C718.347 100.453 718.096 100.37 717.607 100.401L701.518 101.414C700.735 101.463 700.757 101.806 700.681 102.154L699.422 110.236C699.005 112.963 697.313 122.741 696.003 126.113C694.864 129.082 693.266 130.213 691.13 130.593L690.305 130.744C689.675 130.881 689.617 131.523 689.633 131.768L690.154 136.154C690.237 136.689 690.674 136.612 690.964 136.545L691.741 136.397C695.622 135.662 698.1 133.69 699.676 131.43C701.747 128.452 703.017 123.659 704.964 111.704L705.812 106.446ZM736.657 99.2018C733.869 99.3773 730.611 99.877 728.103 102.146C725.967 104.097 724.74 107.218 724.949 110.544C725.18 114.212 727.217 116.145 729.528 116.982L729.491 117.181C726.49 118.646 725.578 121.306 725.114 122.513L724.021 125.43C723.221 127.542 722.983 128.441 721.391 128.885L720.089 129.261C719.364 129.454 719.401 130.041 719.466 130.282L720.335 133.959C720.406 134.298 720.382 134.693 721.408 134.628C722.387 134.566 723.643 134.242 724.553 133.89C727.863 132.65 728.595 130.248 729.462 127.64L730.982 122.929C731.718 120.575 732.83 119.523 735.226 119.373L736.987 119.262L735.165 131.651C735.134 131.947 735.098 132.146 735.11 132.341C735.141 132.831 735.391 132.913 735.88 132.882L740.624 132.584C741.406 132.534 741.385 132.192 741.461 131.843L746.175 99.8791C746.206 99.5826 746.242 99.3839 746.23 99.1883C746.199 98.6993 745.948 98.6169 745.459 98.6476L736.657 99.2018ZM737.687 114.013L735.438 114.155C732.895 114.315 731.457 112.54 731.316 110.29C731.214 108.677 731.791 106.922 732.903 105.87C734.156 104.711 735.669 104.566 736.989 104.483L739.141 104.348L737.687 114.013ZM789.874 97.0298C789.902 96.6844 789.938 96.4857 789.929 96.339C789.92 96.1923 789.898 95.8499 789.262 95.89L784.812 96.1701C784.225 96.2071 784.042 96.415 783.914 96.7177L777.761 109.723C776.979 111.343 776.338 112.857 775.551 115.95L775.453 115.956C775.403 114.388 775.271 111.5 775.013 109.749L773.174 97.6884C773.02 96.8143 772.684 96.9337 772.391 96.9521L767.598 97.2539C767.207 97.2785 766.907 97.1992 766.761 97.9939L760.44 130.158C760.366 130.555 760.373 130.653 760.382 130.8C760.394 130.995 760.416 131.338 761.051 131.297L765.061 131.045C765.306 131.03 765.749 131.051 765.899 130.305L768.871 112.787C769.124 111.347 769.653 106.502 769.772 105.267L769.87 105.261C770.26 109.115 770.196 108.874 770.769 112.52L772.369 122.337C772.522 123.211 772.763 123.146 773.204 123.119L775.502 122.974C776.138 122.934 776.217 122.634 776.348 122.381L781.549 111.399C782.459 109.476 783.527 106.954 784.345 104.35L784.449 104.441C784.065 106.135 783.403 109.662 783.208 111.246L781.223 128.849C781.153 129.295 781.159 129.393 781.166 129.491C781.181 129.736 781.248 130.026 781.835 129.989L785.845 129.737C785.992 129.727 786.631 129.736 786.682 128.996L789.874 97.0298ZM806.615 94.7975C806.37 94.8129 805.976 94.7886 805.762 95.2931L791.68 128.191C791.595 128.393 791.457 128.549 791.476 128.842C791.491 129.087 791.656 129.371 792.145 129.34L797.182 129.023C797.867 128.98 797.989 128.579 798.117 128.277L801.366 119.824L809.679 119.3L810.548 127.641C810.554 127.739 810.631 128.176 811.218 128.139L816.352 127.816C816.597 127.801 817.233 127.761 817.141 127.079L812.242 95.2779C812.144 94.4985 811.798 94.4712 811.309 94.502L806.615 94.7975ZM809.255 114.908L802.702 115.321L806.558 104.817C806.894 103.912 807.285 103.102 807.669 101.408L807.767 101.402C807.847 102.674 808.093 105.015 808.203 105.99L809.255 114.908ZM827.464 93.4849C826.681 93.5342 826.703 93.8765 826.627 94.225L821.913 126.189C821.882 126.486 821.846 126.685 821.858 126.88C821.889 127.369 822.139 127.452 822.629 127.421L827.372 127.122C828.155 127.073 828.133 126.731 828.209 126.382L832.268 98.8286L841.706 98.2344C842.244 98.2006 842.47 97.8918 842.599 97.5891L844.156 93.4651C844.238 93.2145 844.33 93.1105 844.317 92.9149C844.286 92.4258 843.749 92.4597 843.651 92.4659L827.464 93.4849ZM849.145 92.1199C848.363 92.1692 848.385 92.5115 848.308 92.86L843.594 124.824C843.564 125.121 843.527 125.32 843.54 125.515C843.57 126.004 843.821 126.087 844.31 126.056L849.054 125.757C849.836 125.708 849.815 125.366 849.891 125.017L851.942 110.797L860.94 110.231L858.95 123.858C858.92 124.154 858.883 124.353 858.895 124.548C858.926 125.037 859.177 125.12 859.666 125.089L864.409 124.79C865.192 124.741 865.17 124.399 865.247 124.05L869.96 92.086C869.991 91.7895 870.028 91.5908 870.015 91.3952C869.984 90.9062 869.734 90.8238 869.245 90.8546L864.501 91.1532C863.719 91.2025 863.74 91.5448 863.664 91.8933L861.732 104.878L852.783 105.442L854.605 93.0528C854.635 92.7563 854.672 92.5576 854.66 92.362C854.629 91.8729 854.378 91.7905 853.889 91.8213L849.145 92.1199ZM895.424 89.2064C894.544 89.2618 894.428 89.7601 894.07 90.3227L885.683 103.714C884.749 105.246 882.205 110.07 881.548 111.339L881.353 111.351C882.264 105.55 881.816 109.358 882.502 104.651L884.501 91.1706C884.577 90.8221 884.565 90.6265 884.555 90.4798C884.525 89.9908 884.274 89.9084 883.785 89.9392L879.041 90.2378C878.259 90.2871 878.28 90.6294 878.204 90.9779L873.49 122.942C873.46 123.239 873.423 123.437 873.436 123.633C873.466 124.122 873.717 124.204 874.206 124.174L878.705 123.89C879.39 123.847 879.573 123.639 879.973 122.976L889.017 108.316C890.352 106.121 891.466 104.332 892.581 101.758L892.777 101.746C892.475 103.188 892.039 105.622 891.828 106.96L889.628 121.926C889.598 122.223 889.561 122.421 889.574 122.617C889.604 123.106 889.855 123.188 890.344 123.158L895.088 122.859C895.87 122.81 895.849 122.467 895.925 122.119L900.639 90.1546C900.669 89.8581 900.706 89.6594 900.694 89.4638C900.663 88.9748 900.412 88.8924 899.923 88.9232L895.424 89.2064ZM918.516 93.3988L924.58 93.017C924.922 92.9955 925.267 93.0228 925.567 92.3166L927.273 88.2323C927.313 88.0825 927.402 87.9297 927.435 87.6821C927.432 87.6332 927.429 87.5843 927.426 87.5354C927.352 87.1472 926.866 87.2269 926.573 87.2454L906.572 88.5046C905.691 88.56 905.808 88.8473 905.734 89.2447L905.134 92.9647C905.058 93.3132 905.021 93.5119 905.033 93.7075C905.07 94.2944 905.556 94.2147 905.899 94.1931L912.158 93.799L908.111 120.763C908.035 121.111 908.048 121.307 908.057 121.453C908.088 121.942 908.338 122.025 908.827 121.994L913.571 121.695C914.353 121.646 914.332 121.304 914.408 120.955L918.516 93.3988ZM935.702 86.6707C935.457 86.6861 935.063 86.6618 934.849 87.1662L920.767 120.064C920.682 120.266 920.545 120.422 920.563 120.715C920.578 120.96 920.744 121.244 921.233 121.213L926.27 120.896C926.954 120.853 927.076 120.452 927.205 120.15L930.453 111.697L938.766 111.174L939.635 119.514C939.641 119.612 939.718 120.049 940.305 120.012L945.44 119.689C945.684 119.674 946.32 119.634 946.228 118.952L941.329 87.151C941.231 86.3717 940.886 86.3443 940.397 86.3751L935.702 86.6707ZM938.343 106.781L931.79 107.194L935.645 96.69C935.981 95.7851 936.372 94.975 936.756 93.2815L936.854 93.2753C936.934 94.5468 937.18 96.888 937.29 97.863L938.343 106.781Z" fill="#F7D431"/>
<path d="M387.86 121.161C387.078 121.21 387.1 121.552 387.023 121.901L382.309 153.865C382.279 154.162 382.242 154.36 382.255 154.556C382.285 155.045 382.536 155.127 383.025 155.097L387.769 154.798C388.551 154.749 388.53 154.406 388.606 154.058L390.657 139.838L399.655 139.271L397.665 152.898C397.635 153.195 397.598 153.394 397.61 153.589C397.641 154.078 397.892 154.161 398.381 154.13L403.124 153.831C403.907 153.782 403.885 153.44 403.962 153.091L408.675 121.127C408.706 120.83 408.743 120.632 408.73 120.436C408.699 119.947 408.449 119.865 407.96 119.895L403.216 120.194C402.434 120.243 402.455 120.586 402.379 120.934L400.447 133.919L391.498 134.483L393.32 122.094C393.35 121.797 393.387 121.598 393.375 121.403C393.344 120.914 393.093 120.831 392.604 120.862L387.86 121.161ZM436.705 127.807C436.538 125.166 435.603 117.32 427.289 117.844C424.11 118.044 418.854 119.553 415.272 126.603C412.871 131.369 411.954 137.859 412.311 143.532C412.85 152.09 417.717 153.747 421.678 153.498C426.275 153.208 430.966 150.507 433.845 144.778C436.154 140.116 437.031 132.991 436.705 127.807ZM422.431 148.295C419.546 148.477 419.08 145.757 418.953 143.752C418.723 140.084 418.998 134.322 420.882 129.147C421.672 126.888 423.407 123.243 426.683 123.037C429.666 122.849 429.958 125.924 430.06 127.538C430.303 131.401 430.156 136.86 428.232 142.186C427.396 144.497 425.756 148.086 422.431 148.295ZM446.027 117.499C445.245 117.548 445.266 117.89 445.19 118.239L440.476 150.203C440.446 150.5 440.409 150.698 440.422 150.894C440.452 151.383 440.703 151.465 441.192 151.435L449.212 150.93C453.173 150.68 457.648 150.006 460.556 146.288C461.918 144.533 462.843 142.069 462.68 139.477C462.468 136.103 460.541 133.573 457.692 132.77C458.835 132.207 460.25 131.283 461.267 130.287C462.883 128.663 463.924 126.486 463.752 123.747C463.299 116.559 456.248 116.855 454.292 116.978L446.027 117.499ZM449.595 131.267L450.932 122.1L453.28 121.952C454.649 121.866 457.241 121.703 457.444 124.93C457.53 126.299 457.225 127.693 456.504 128.721C455.2 130.619 453.067 131.048 451.404 131.153L449.595 131.267ZM447.388 146.135L448.875 136.222L451.614 136.049C453.13 135.954 455.829 135.931 456.06 139.599C456.195 141.751 455.447 143.124 454.854 143.848C453.397 145.658 451.252 145.892 449.393 146.009L447.388 146.135ZM473.058 115.797C472.275 115.846 472.297 116.189 472.221 116.537L467.556 148.498C467.525 148.795 467.489 148.994 467.501 149.189C467.532 149.678 467.782 149.761 468.271 149.73L476.976 149.182C480.448 148.963 484.819 148.197 487.59 144.635C489.361 142.363 490.084 139.028 489.909 136.241C489.709 133.062 488.225 131.339 487.241 130.517C484.856 128.507 481.867 128.597 479.861 128.723L476.781 128.917L478.517 116.73C478.548 116.433 478.584 116.235 478.572 116.039C478.541 115.55 478.291 115.468 477.801 115.498L473.058 115.797ZM474.541 144.033L475.988 134.269L478.189 134.131C479.558 134.045 483.119 133.673 483.371 137.683C483.458 139.053 483.11 140.547 482.245 141.633C480.745 143.544 478.306 143.796 476.644 143.9L474.541 144.033ZM498.047 114.224C497.265 114.273 497.286 114.615 497.21 114.964L492.496 146.928C492.466 147.225 492.429 147.423 492.442 147.619C492.472 148.108 492.723 148.19 493.212 148.16L497.956 147.861C498.738 147.812 498.717 147.469 498.793 147.121L503.507 115.157C503.537 114.86 503.574 114.661 503.561 114.466C503.531 113.977 503.28 113.894 502.791 113.925L498.047 114.224ZM528.937 112.279C528.056 112.335 527.94 112.833 527.583 113.395L519.196 126.787C518.261 128.319 515.717 133.143 515.061 134.412L514.865 134.424C515.776 128.622 515.329 132.431 516.014 127.724L518.013 114.243C518.09 113.895 518.077 113.699 518.068 113.553C518.037 113.063 517.787 112.981 517.298 113.012L512.554 113.311C511.772 113.36 511.793 113.702 511.717 114.051L507.003 146.015C506.973 146.311 506.936 146.51 506.948 146.706C506.979 147.195 507.23 147.277 507.719 147.246L512.218 146.963C512.902 146.92 513.086 146.712 513.486 146.049L522.53 131.388C523.864 129.193 524.979 127.405 526.094 124.831L526.289 124.818C525.987 126.261 525.551 128.694 525.341 130.033L523.141 144.999C523.111 145.295 523.074 145.494 523.086 145.69C523.117 146.179 523.368 146.261 523.857 146.23L528.6 145.932C529.383 145.882 529.361 145.54 529.438 145.192L534.152 113.227C534.182 112.931 534.219 112.732 534.206 112.537C534.175 112.048 533.925 111.965 533.436 111.996L528.937 112.279ZM517.285 104.224C516.994 104.292 516.517 104.518 516.542 104.909L516.564 105.252C516.659 106.768 517.167 107.816 517.647 108.424C518.776 109.973 520.485 110.602 522.783 110.457C526.108 110.248 528.357 108.535 529.325 106.756C529.722 106.043 530.26 104.439 530.226 103.901C530.204 103.558 529.856 103.482 529.709 103.491L526.897 103.275C526.75 103.285 526.649 103.242 526.503 103.251C525.965 103.285 525.891 103.682 525.724 104.135C525.223 105.541 524.395 106.428 522.977 106.517C521.265 106.625 520.99 105.366 520.916 104.192L520.909 104.094C520.879 103.605 520.634 103.621 519.858 103.768L517.285 104.224ZM554.579 110.665C553.797 110.714 553.818 111.056 553.742 111.405L549.028 143.369C548.998 143.666 548.961 143.864 548.973 144.06C549.004 144.549 549.255 144.631 549.744 144.601L557.764 144.096C561.725 143.846 566.2 143.172 569.108 139.454C570.47 137.699 571.395 135.235 571.232 132.643C571.019 129.269 569.093 126.739 566.244 125.936C567.387 125.373 568.801 124.449 569.819 123.453C571.435 121.829 572.476 119.652 572.304 116.913C571.851 109.725 564.8 110.021 562.844 110.144L554.579 110.665ZM558.146 124.433L559.484 115.266L561.831 115.118C563.201 115.032 565.792 114.869 565.996 118.096C566.082 119.465 565.777 120.859 565.056 121.887C563.752 123.785 561.618 124.214 559.956 124.319L558.146 124.433ZM555.94 139.301L557.427 129.388L560.166 129.215C561.682 129.12 564.381 129.097 564.612 132.765C564.747 134.917 563.999 136.29 563.406 137.014C561.949 138.824 559.803 139.058 557.945 139.175L555.94 139.301ZM581.854 108.948C581.463 108.972 580.879 109.058 580.742 110L576.028 141.964C575.891 142.905 576.481 142.917 576.872 142.893L581.322 142.613C582.349 142.548 582.361 141.958 582.434 141.561L584.5 127.585L587.337 127.407C590.369 127.216 590.532 129.022 590.624 130.489L591.042 136.354C591.224 139.24 591.748 141.318 594.349 142.087C595.101 142.334 596.486 142.493 597.464 142.431C598.051 142.394 598.537 142.314 598.787 141.611L600.216 137.79C600.512 137.035 600.206 136.858 599.861 136.83L598.473 136.623C596.987 136.422 596.907 135.151 596.799 133.439L596.492 129.334C596.308 127.186 595.744 125.257 593.042 124.445L593.033 124.299C595.911 123.234 597.029 121.494 597.765 119.14L598.867 115.585C599.523 113.531 599.963 112.717 601.503 112.228L602.515 111.918C602.997 111.79 603.217 111.383 603.135 110.848L602.574 107.398C602.491 106.863 601.95 106.848 601.608 106.869C600.336 106.949 598.56 107.601 597.378 108.314C594.918 109.794 594.216 111.901 593.603 113.854L592.25 118.113C591.231 121.417 589.743 121.953 587.689 122.082L585.293 122.233L587.148 109.596C587.179 109.3 587.38 108.6 586.304 108.667L581.854 108.948ZM616.845 126.089C616.593 123.65 616.078 120.147 615.915 119.127L613.905 107.47C613.752 106.596 613.886 106.391 612.477 106.627L608.052 107.298C607.468 107.384 606.832 107.424 606.866 107.962C606.875 108.109 606.836 108.259 606.967 108.79L611.739 130.78C611.816 131.217 612.06 131.202 612.207 131.192L615.337 130.995L614.705 132.655C614.326 133.661 613.157 136.141 610.565 136.304C609.734 136.356 608.933 136.112 608.324 135.807C607.765 135.498 607.3 135.135 606.958 135.156C606.762 135.168 606.527 135.331 606.441 135.532L604.472 139.339C603.641 140.962 608.893 141.711 610.457 141.613C613 141.453 614.761 140.557 615.925 139.55C617.602 138.119 618.503 136.049 619.229 134.334L630.447 107.41C630.49 107.31 630.529 107.16 630.572 107.059C630.569 107.01 630.618 107.007 630.615 106.958C630.703 106.805 630.795 106.701 630.786 106.554C630.752 106.016 630.165 106.053 629.82 106.026L625.58 105.753C624.743 105.707 624.682 106.3 624.425 106.906L619.73 118.886C618.167 122.913 617.288 125.325 617.04 126.077L616.845 126.089ZM645.709 132.618C645.599 132.429 645.541 132.285 645.346 132.297C645.003 132.319 644.582 132.64 644.157 132.912C642.366 134.105 640.911 134.393 640.031 134.449C638.466 134.547 637.506 134.117 636.886 133.616C635.641 132.565 635.362 130.471 635.273 129.053C635.014 124.945 635.33 119.819 637.302 115.276C639.226 110.736 641.955 109.632 643.764 109.518C645.084 109.435 645.944 109.822 647.231 110.772C647.748 111.182 648.16 111.5 648.698 111.466C648.992 111.447 649.123 111.193 649.169 111.141L651.294 107.473C651.337 107.372 651.432 107.317 651.42 107.121C651.389 106.632 650.82 106.177 650.462 105.954C648.255 104.424 645.632 104.098 643.774 104.215C640.791 104.403 635.314 105.533 631.671 112.39C629.081 117.267 628.264 123.013 628.622 128.686C628.791 131.376 629.462 135.801 632.657 138.202C634.153 139.336 636.256 139.989 638.75 139.832C641.195 139.678 643.93 138.671 645.782 137.671C646.399 137.337 647.347 136.787 647.313 136.249C647.303 136.102 647.242 135.909 647.187 135.815L645.709 132.618Z" fill="white"/>
</g>
<defs>
<filter id="filter0_d" x="0.534027" y="0.804985" width="1087.85" height="252.519" filterUnits="userSpaceOnUse" color-interpolation-filters="sRGB">
<feFlood flood-opacity="0" result="BackgroundImageFix"/>
<feColorMatrix in="SourceAlpha" type="matrix" values="0 0 0 0 0 0 0 0 0 0 0 0 0 0 0 0 0 0 127 0"/>
<feOffset/>
<feGaussianBlur stdDeviation="4"/>
<feColorMatrix type="matrix" values="0 0 0 0 0 0 0 0 0 0 0 0 0 0 0 0 0 0 0.45 0"/>
<feBlend mode="normal" in2="BackgroundImageFix" result="effect1_dropShadow"/>
<feBlend mode="normal" in="SourceGraphic" in2="effect1_dropShadow" result="shape"/>
</filter>
<filter id="filter1_d" x="132.711" y="73.3675" width="826.526" height="109.627" filterUnits="userSpaceOnUse" color-interpolation-filters="sRGB">
<feFlood flood-opacity="0" result="BackgroundImageFix"/>
<feColorMatrix in="SourceAlpha" type="matrix" values="0 0 0 0 0 0 0 0 0 0 0 0 0 0 0 0 0 0 127 0"/>
<feOffset/>
<feGaussianBlur stdDeviation="6.5"/>
<feColorMatrix type="matrix" values="0 0 0 0 0 0 0 0 0 0 0 0 0 0 0 0 0 0 0.6 0"/>
<feBlend mode="normal" in2="BackgroundImageFix" result="effect1_dropShadow"/>
<feBlend mode="normal" in="SourceGraphic" in2="effect1_dropShadow" result="shape"/>
</filter>
</defs>
</svg>
