<svg width="1011" height="268" viewBox="0 0 1011 268" fill="none" xmlns="http://www.w3.org/2000/svg">
<g filter="url(#filter0_d)">
<path d="M76.1382 95.7013L970.638 48.5954L931.466 142.466L29.2997 179.412L76.1382 95.7013Z" fill="#DD1010"/>
<path d="M75.9805 92.7055L74.3281 92.7925L73.5202 94.2364L26.6816 177.947L24.062 182.629L29.4224 182.409L931.589 145.463L933.499 145.385L934.235 143.621L973.406 49.7507L975.243 45.3487L970.48 45.5995L75.9805 92.7055Z" stroke="#F7D431" stroke-width="6"/>
</g>
<g filter="url(#filter1_d)">
<path d="M10.6379 170.85L764.325 148.45L749.551 219.82L63.138 219.82L10.6379 170.85Z" fill="white"/>
</g>
<g filter="url(#filter2_d)">
<path d="M158.282 120.465C157.579 120.495 157.592 120.803 157.518 121.114L152.723 149.729C152.691 149.994 152.654 150.172 152.662 150.348C152.681 150.788 152.904 150.866 153.344 150.847L160.553 150.535C164.114 150.381 168.143 149.854 170.819 146.567C172.073 145.015 172.947 142.819 172.846 140.489C172.715 137.456 171.03 135.151 168.486 134.38C169.522 133.895 170.808 133.091 171.739 132.214C173.219 130.784 174.192 128.848 174.085 126.387C173.805 119.925 167.47 120.067 165.711 120.143L158.282 120.465ZM161.242 132.888L162.605 124.682L164.715 124.59C165.946 124.537 168.275 124.436 168.401 127.337C168.454 128.568 168.156 129.814 167.491 130.724C166.286 132.406 164.364 132.753 162.869 132.818L161.242 132.888ZM159 146.198L160.51 137.324L162.971 137.218C164.334 137.159 166.758 137.186 166.9 140.483C166.984 142.417 166.288 143.636 165.743 144.276C164.403 145.876 162.473 146.047 160.803 146.12L159 146.198ZM182.58 119.413C181.876 119.443 181.89 119.751 181.815 120.062L177.065 148.675C177.032 148.94 176.996 149.118 177.003 149.294C177.022 149.733 177.246 149.812 177.686 149.793L185.51 149.454C188.631 149.319 192.569 148.708 195.119 145.559C196.749 143.55 197.457 140.569 197.348 138.063C197.225 135.206 195.923 133.633 195.054 132.878C192.948 131.031 190.263 131.059 188.461 131.137L185.691 131.257L187.465 120.346C187.497 120.08 187.534 119.903 187.526 119.727C187.507 119.287 187.283 119.209 186.844 119.228L182.58 119.413ZM183.414 144.788L184.886 136.048L186.864 135.963C188.095 135.909 191.298 135.639 191.454 139.243C191.507 140.474 191.169 141.81 190.374 142.769C188.993 144.459 186.799 144.642 185.305 144.706L183.414 144.788ZM205.043 118.44C204.339 118.47 204.353 118.778 204.278 119.09L199.484 147.704C199.451 147.969 199.415 148.147 199.422 148.323C199.441 148.763 199.665 148.841 200.105 148.822L204.369 148.637C205.072 148.607 205.059 148.299 205.133 147.988L209.928 119.373C209.96 119.108 209.997 118.93 209.989 118.754C209.97 118.315 209.746 118.236 209.307 118.255L205.043 118.44ZM218.083 117.875C217.379 117.906 217.393 118.213 217.318 118.525L212.524 147.139C212.491 147.405 212.455 147.583 212.462 147.758C212.481 148.198 212.705 148.276 213.144 148.257L220.969 147.918C224.09 147.783 228.027 147.172 230.578 144.023C232.208 142.015 232.916 139.033 232.809 136.572C232.678 133.538 231.173 129.288 223.919 129.602L221.15 129.722L222.346 122.755L231.533 122.358C231.797 122.346 232.194 122.373 232.432 121.746L233.86 118.117C233.94 117.937 234.022 117.802 234.013 117.582C233.994 117.142 233.556 117.205 233.248 117.218L218.083 117.875ZM218.873 143.253L220.345 134.513L223.07 134.395C225.883 134.273 226.833 135.861 226.915 137.752C226.966 138.939 226.628 140.275 225.833 141.234C224.452 142.923 222.258 143.106 220.764 143.171L218.873 143.253ZM242.509 116.817C241.806 116.848 241.819 117.156 241.744 117.467L236.95 146.081C236.917 146.347 236.881 146.525 236.889 146.701C236.908 147.14 237.131 147.219 237.571 147.2L252.165 146.568C252.868 146.537 252.855 146.229 252.93 145.918L253.525 142.369C253.592 141.881 252.932 141.91 252.757 141.918L243.305 142.327L244.769 133.411L252.33 133.084C252.901 133.059 252.987 133.011 253.095 132.434L253.615 129.197C253.648 128.931 253.757 128.398 253.009 128.43L245.58 128.752L246.841 121.254L255.457 120.881C255.765 120.868 256.074 120.898 256.355 120.27L257.803 117.08C257.881 116.856 257.963 116.721 257.956 116.545C257.937 116.105 257.499 116.168 257.191 116.182L242.509 116.817ZM266.077 115.797C265.373 115.827 265.387 116.135 265.312 116.447L260.518 145.061C260.485 145.326 260.449 145.504 260.456 145.68C260.475 146.12 260.699 146.198 261.139 146.179L265.403 145.994C266.106 145.964 266.093 145.656 266.167 145.345L268.09 133.811L270.376 133.712C277.893 133.386 282.314 128.703 282.035 122.241C281.758 115.867 277.154 115.317 273.989 115.454L266.077 115.797ZM268.895 129.019L270.327 120.369L272.568 120.272C273.711 120.223 276.225 120.29 276.356 123.323C276.421 124.818 276.193 128.703 270.214 128.962L268.895 129.019ZM303.899 114.159C303.107 114.193 302.994 114.639 302.664 115.137L294.898 127.013C294.032 128.371 291.663 132.658 291.052 133.785L290.876 133.793C291.796 128.6 291.327 132.012 292.025 127.798L294.057 115.73C294.132 115.419 294.124 115.243 294.119 115.111C294.1 114.672 293.876 114.593 293.436 114.612L289.172 114.797C288.469 114.827 288.482 115.135 288.408 115.446L283.613 144.061C283.581 144.326 283.544 144.504 283.552 144.68C283.571 145.12 283.795 145.198 284.234 145.179L288.278 145.004C288.894 144.977 289.062 144.794 289.433 144.205L297.81 131.202C299.047 129.255 300.079 127.669 301.125 125.378L301.301 125.37C301.005 126.66 300.57 128.837 300.358 130.035L298.12 143.433C298.087 143.698 298.051 143.876 298.058 144.052C298.077 144.491 298.301 144.57 298.741 144.551L303.005 144.366C303.708 144.336 303.695 144.028 303.769 143.716L308.564 115.102C308.596 114.836 308.633 114.659 308.625 114.483C308.606 114.043 308.382 113.965 307.943 113.984L303.899 114.159ZM324.556 118.329L330.007 118.093C330.315 118.08 330.624 118.111 330.906 117.482L332.51 113.845C332.548 113.711 332.63 113.576 332.665 113.354C332.663 113.31 332.661 113.266 332.659 113.222C332.6 112.872 332.162 112.935 331.898 112.947L313.919 113.725C313.128 113.759 313.227 114.019 313.154 114.375L312.55 117.704C312.475 118.016 312.439 118.193 312.447 118.369C312.469 118.897 312.907 118.834 313.215 118.82L318.842 118.577L314.734 142.713C314.659 143.025 314.667 143.2 314.673 143.332C314.692 143.772 314.915 143.85 315.355 143.831L319.619 143.647C320.322 143.616 320.309 143.308 320.384 142.997L324.556 118.329ZM337.081 112.722C336.377 112.753 336.391 113.06 336.316 113.372L331.521 141.986C331.489 142.252 331.453 142.429 331.46 142.605C331.479 143.045 331.703 143.123 332.142 143.104L346.737 142.472C347.44 142.442 347.427 142.134 347.501 141.823L348.096 138.274C348.163 137.786 347.504 137.815 347.328 137.822L337.877 138.232L339.341 129.316L346.901 128.989C347.473 128.964 347.559 128.916 347.666 128.339L348.187 125.101C348.219 124.836 348.328 124.302 347.581 124.335L340.152 124.656L341.413 117.159L350.028 116.786C350.336 116.773 350.646 116.803 350.927 116.174L352.374 112.985C352.453 112.761 352.535 112.626 352.527 112.45C352.508 112.01 352.071 112.073 351.763 112.086L337.081 112.722ZM633.461 130.056L632.445 136.09C632.449 136.178 632.451 136.222 632.455 136.31C632.461 136.441 632.379 136.577 632.384 136.709C632.401 137.105 632.627 137.227 633.11 137.206L636.979 137.038C637.682 137.008 637.707 136.567 637.743 136.389L639.416 126.187C639.448 125.921 639.484 125.743 639.477 125.568C639.454 125.04 639.102 125.055 638.839 125.067L636.948 125.149L641.043 100.705C641.075 100.439 641.112 100.261 641.104 100.085C641.085 99.6458 640.861 99.5674 640.422 99.5865L626.223 100.201C625.52 100.232 625.533 100.539 625.458 100.851L624.754 104.933C623.591 111.634 622.604 115.288 622.218 116.538C621.183 120.106 619.983 122.889 617.958 125.971L616.683 126.026C615.98 126.057 615.946 126.278 615.875 126.678L614.159 136.882C614.162 136.97 614.164 137.013 614.168 137.101C614.174 137.233 614.092 137.369 614.097 137.501C614.114 137.896 614.34 138.019 614.824 137.998L618.692 137.83C619.395 137.8 619.42 137.358 619.457 137.181L620.538 130.616L633.461 130.056ZM630.165 104.787L634.693 104.591L631.19 125.398L623.585 125.727C624.988 123.553 625.833 121.71 626.77 118.939C627.826 115.855 628.772 112.29 629.488 108.472L630.165 104.787ZM656.619 103.641L661.587 103.426L657.492 127.87C657.46 128.136 657.424 128.314 657.431 128.49C657.45 128.929 657.674 129.008 658.113 128.989L662.377 128.804C663.081 128.773 663.067 128.466 663.142 128.154L667.937 99.54C667.969 99.2744 668.005 99.0966 667.998 98.9208C667.979 98.4812 667.755 98.4028 667.316 98.4219L652.853 99.0481C652.15 99.0786 652.163 99.3863 652.089 99.6978L650.816 106.932C650.393 109.372 648.702 118.122 647.467 121.126C646.393 123.771 644.938 124.759 643.013 125.062L642.27 125.182C641.702 125.295 641.639 125.87 641.649 126.09L642.04 130.037C642.105 130.519 642.498 130.458 642.76 130.402L643.46 130.284C646.957 129.692 649.217 127.965 650.672 125.964C652.583 123.327 653.807 119.046 655.766 108.347L656.619 103.641ZM684.439 97.6803C681.934 97.7888 679 98.1801 676.708 100.173C674.756 101.887 673.599 104.668 673.729 107.657C673.872 110.954 675.666 112.726 677.726 113.518L677.69 113.695C674.97 114.958 674.104 117.33 673.666 118.406L672.633 121.005C671.878 122.887 671.649 123.69 670.211 124.061L669.036 124.376C668.382 124.536 668.405 125.064 668.458 125.282L669.175 128.598C669.232 128.903 669.203 129.257 670.126 129.217C671.005 129.179 672.139 128.91 672.963 128.61C675.956 127.555 676.656 125.411 677.48 123.085L678.927 118.883C679.629 116.782 680.646 115.857 682.8 115.764L684.383 115.696L682.529 126.786C682.496 127.052 682.46 127.23 682.467 127.405C682.486 127.845 682.71 127.923 683.15 127.904L687.414 127.72C688.117 127.689 688.104 127.382 688.178 127.07L692.973 98.4559C693.005 98.1902 693.042 98.0125 693.034 97.8367C693.015 97.3971 692.791 97.3187 692.352 97.3377L684.439 97.6803ZM685.104 110.996L683.082 111.084C680.796 111.183 679.537 109.564 679.449 107.541C679.386 106.091 679.935 104.526 680.952 103.601C682.097 102.582 683.458 102.479 684.645 102.428L686.579 102.344L685.104 110.996ZM732.255 96.6667C732.286 96.3571 732.322 96.1794 732.317 96.0475C732.311 95.9156 732.298 95.6079 731.726 95.6326L727.726 95.8059C727.198 95.8287 727.03 96.0122 726.91 96.2816L721.157 107.849C720.427 109.29 719.824 110.638 719.063 113.401L718.975 113.405C718.958 111.996 718.89 109.401 718.689 107.824L717.25 96.9642C717.128 96.1767 716.824 96.278 716.56 96.2894L712.252 96.4759C711.901 96.4912 711.633 96.4147 711.488 97.1256L705.246 125.891C705.174 126.246 705.178 126.334 705.183 126.466C705.191 126.642 705.204 126.949 705.776 126.925L709.38 126.769C709.6 126.759 709.998 126.786 710.145 126.119L713.122 110.443C713.374 109.155 713.935 104.815 714.063 103.708L714.151 103.705C714.433 107.172 714.38 106.954 714.83 110.237L716.094 119.079C716.216 119.866 716.434 119.813 716.83 119.796L718.896 119.706C719.467 119.682 719.544 119.414 719.666 119.188L724.528 109.421C725.379 107.711 726.383 105.465 727.163 103.141L727.255 103.225C726.88 104.739 726.224 107.894 726.021 109.312L723.929 125.082C723.858 125.481 723.862 125.569 723.866 125.657C723.875 125.877 723.931 126.138 724.458 126.116L728.063 125.96C728.195 125.954 728.768 125.973 728.827 125.31L732.255 96.6667ZM747.324 94.9572C747.104 94.9667 746.751 94.938 746.55 95.3871L733.329 124.675C733.248 124.854 733.122 124.992 733.134 125.256C733.143 125.475 733.286 125.733 733.726 125.714L738.254 125.518C738.869 125.492 738.986 125.134 739.106 124.865L742.171 117.333L749.644 117.009L750.277 124.513C750.281 124.601 750.342 124.995 750.87 124.972L755.486 124.772C755.705 124.763 756.277 124.738 756.206 124.124L752.368 95.4875C752.293 94.7861 751.984 94.7554 751.544 94.7745L747.324 94.9572ZM749.341 113.059L743.451 113.314L747.097 103.951C747.414 103.145 747.78 102.424 748.154 100.911L748.242 100.907C748.292 102.05 748.471 104.156 748.553 105.033L749.341 113.059ZM766.065 94.1456C765.362 94.1761 765.375 94.4838 765.301 94.7953L760.506 123.41C760.474 123.675 760.437 123.853 760.445 124.029C760.464 124.468 760.687 124.547 761.127 124.528L765.391 124.343C766.094 124.313 766.081 124.005 766.156 123.693L770.284 99.0277L778.768 98.6603C779.252 98.6394 779.46 98.3661 779.581 98.0966L781.051 94.4216C781.13 94.198 781.214 94.1062 781.206 93.9304C781.187 93.4908 780.704 93.5118 780.616 93.5156L766.065 94.1456ZM785.555 93.3017C784.851 93.3321 784.865 93.6399 784.79 93.9514L779.996 122.566C779.963 122.831 779.927 123.009 779.934 123.185C779.953 123.624 780.177 123.703 780.617 123.684L784.881 123.499C785.584 123.469 785.571 123.161 785.645 122.849L787.736 110.119L795.825 109.769L793.799 121.968C793.766 122.234 793.73 122.411 793.737 122.587C793.756 123.027 793.98 123.105 794.42 123.086L798.684 122.901C799.387 122.871 799.374 122.563 799.448 122.252L804.243 93.6375C804.275 93.3718 804.312 93.1941 804.304 93.0183C804.285 92.5787 804.061 92.5003 803.622 92.5193L799.358 92.704C798.655 92.7344 798.668 93.0421 798.593 93.3537L796.63 104.977L788.586 105.326L790.44 94.2352C790.472 93.9696 790.509 93.7918 790.501 93.616C790.482 93.1764 790.258 93.098 789.819 93.117L785.555 93.3017ZM827.154 91.5003C826.363 91.5345 826.25 91.9798 825.919 92.4786L818.154 104.354C817.288 105.712 814.919 109.999 814.307 111.126L814.131 111.134C815.052 105.941 814.583 109.353 815.281 105.139L817.313 93.0715C817.388 92.76 817.38 92.5842 817.374 92.4523C817.355 92.0127 817.132 91.9343 816.692 91.9533L812.428 92.138C811.725 92.1684 811.738 92.4761 811.663 92.7877L806.869 121.402C806.836 121.668 806.8 121.845 806.808 122.021C806.827 122.461 807.05 122.539 807.49 122.52L811.534 122.345C812.149 122.318 812.318 122.135 812.689 121.546L821.066 108.544C822.303 106.596 823.335 105.01 824.381 102.719L824.557 102.711C824.26 104.001 823.826 106.178 823.614 107.376L821.375 120.774C821.343 121.039 821.306 121.217 821.314 121.393C821.333 121.833 821.557 121.911 821.996 121.892L826.26 121.707C826.964 121.677 826.95 121.369 827.025 121.058L831.819 92.4433C831.852 92.1777 831.888 91.9999 831.881 91.8241C831.862 91.3845 831.638 91.3061 831.198 91.3252L827.154 91.5003ZM847.812 95.6705L853.263 95.4344C853.571 95.4211 853.88 95.4517 854.161 94.823L855.765 91.1862C855.804 91.0524 855.886 90.9167 855.92 90.695C855.918 90.6511 855.916 90.6071 855.915 90.5631C855.855 90.2134 855.418 90.2764 855.154 90.2878L837.175 91.0664C836.384 91.1006 836.483 91.3606 836.41 91.716L835.806 95.0453C835.731 95.3568 835.695 95.5346 835.702 95.7104C835.725 96.2379 836.163 96.1749 836.471 96.1616L842.097 95.9179L837.99 120.054C837.915 120.366 837.923 120.542 837.928 120.673C837.947 121.113 838.171 121.191 838.611 121.172L842.875 120.988C843.578 120.957 843.565 120.65 843.639 120.338L847.812 95.6705ZM863.36 89.9325C863.14 89.942 862.786 89.9132 862.586 90.3623L849.364 119.65C849.284 119.829 849.158 119.967 849.169 120.231C849.179 120.451 849.322 120.709 849.762 120.69L854.289 120.493C854.905 120.467 855.022 120.109 855.142 119.84L858.207 112.308L865.68 111.985L866.313 119.488C866.317 119.576 866.378 119.97 866.906 119.947L871.521 119.747C871.741 119.738 872.313 119.713 872.242 119.099L868.403 90.4627C868.329 89.7613 868.019 89.7307 867.58 89.7497L863.36 89.9325ZM865.377 108.034L859.486 108.289L863.133 98.9267C863.45 98.1202 863.815 97.3997 864.19 95.8861L864.278 95.8823C864.328 97.0252 864.507 99.1314 864.589 100.009L865.377 108.034Z" fill="#F7D431"/>
<path d="M370.908 111.257C370.205 111.288 370.218 111.596 370.144 111.907L365.349 140.521C365.317 140.787 365.28 140.965 365.288 141.14C365.307 141.58 365.53 141.658 365.97 141.639L370.234 141.455C370.937 141.424 370.924 141.117 370.999 140.805L373.09 128.075L381.178 127.724L379.152 139.924C379.12 140.189 379.083 140.367 379.091 140.543C379.11 140.982 379.334 141.061 379.773 141.042L384.037 140.857C384.74 140.827 384.727 140.519 384.802 140.207L389.596 111.593C389.629 111.327 389.665 111.15 389.658 110.974C389.638 110.534 389.415 110.456 388.975 110.475L384.711 110.66C384.008 110.69 384.021 110.998 383.947 111.309L381.984 122.933L373.939 123.281L375.793 112.191C375.826 111.925 375.862 111.747 375.854 111.572C375.835 111.132 375.612 111.054 375.172 111.073L370.908 111.257ZM414.643 118.084C414.54 115.71 413.838 108.65 406.365 108.973C403.508 109.097 398.762 110.359 395.422 116.626C393.183 120.863 392.246 126.673 392.466 131.772C392.799 139.465 397.14 141.038 400.7 140.884C404.832 140.705 409.091 138.363 411.777 133.27C413.932 129.125 414.845 122.743 414.643 118.084ZM401.468 136.227C398.874 136.339 398.504 133.889 398.426 132.086C398.283 128.789 398.632 123.622 400.414 119.008C401.163 116.994 402.784 113.753 405.73 113.625C408.411 113.509 408.619 116.275 408.682 117.725C408.832 121.198 408.604 126.096 406.784 130.844C405.992 132.904 404.457 136.097 401.468 136.227ZM423.194 108.993C422.491 109.024 422.504 109.331 422.43 109.643L417.635 138.257C417.602 138.523 417.566 138.7 417.574 138.876C417.593 139.316 417.816 139.394 418.256 139.375L425.465 139.063C429.026 138.909 433.055 138.382 435.731 135.095C436.985 133.544 437.859 131.348 437.758 129.018C437.627 125.985 435.941 123.679 433.398 122.909C434.434 122.423 435.72 121.619 436.651 120.742C438.131 119.313 439.104 117.377 438.997 114.915C438.717 108.453 432.382 108.595 430.623 108.671L423.194 108.993ZM426.154 121.417L427.517 113.21L429.627 113.119C430.857 113.065 433.187 112.965 433.313 115.866C433.366 117.097 433.068 118.343 432.403 119.252C431.198 120.934 429.275 121.282 427.781 121.346L426.154 121.417ZM423.912 134.726L425.422 125.853L427.883 125.746C429.246 125.687 431.669 125.714 431.812 129.011C431.896 130.945 431.2 132.165 430.655 132.805C429.315 134.404 427.385 134.576 425.714 134.648L423.912 134.726ZM447.492 107.941C446.788 107.971 446.802 108.279 446.727 108.591L441.976 137.203C441.944 137.469 441.908 137.646 441.915 137.822C441.934 138.262 442.158 138.34 442.597 138.321L450.422 137.982C453.543 137.847 457.48 137.236 460.031 134.087C461.661 132.079 462.369 129.097 462.26 126.592C462.137 123.734 460.835 122.161 459.966 121.406C457.86 119.559 455.175 119.588 453.372 119.666L450.603 119.785L452.377 108.875C452.409 108.609 452.446 108.431 452.438 108.255C452.419 107.816 452.195 107.737 451.756 107.756L447.492 107.941ZM448.326 133.317L449.798 124.577L451.776 124.491C453.007 124.438 456.21 124.167 456.366 127.772C456.419 129.002 456.081 130.338 455.285 131.298C453.905 132.987 451.711 133.17 450.217 133.235L448.326 133.317ZM469.955 106.968C469.251 106.999 469.265 107.306 469.19 107.618L464.395 136.232C464.363 136.498 464.327 136.676 464.334 136.851C464.353 137.291 464.577 137.369 465.016 137.35L469.28 137.166C469.984 137.135 469.97 136.828 470.045 136.516L474.84 107.902C474.872 107.636 474.908 107.458 474.901 107.283C474.882 106.843 474.658 106.765 474.219 106.784L469.955 106.968ZM497.721 105.766C496.93 105.8 496.817 106.245 496.486 106.744L488.72 118.619C487.854 119.978 485.486 124.265 484.874 125.392L484.698 125.4C485.618 120.207 485.149 123.618 485.848 119.404L487.88 107.337C487.954 107.026 487.947 106.85 487.941 106.718C487.922 106.278 487.698 106.2 487.259 106.219L482.995 106.404C482.291 106.434 482.305 106.742 482.23 107.053L477.435 135.668C477.403 135.933 477.367 136.111 477.374 136.287C477.393 136.726 477.617 136.805 478.056 136.786L482.101 136.611C482.716 136.584 482.884 136.4 483.255 135.812L491.632 122.809C492.869 120.862 493.902 119.276 494.948 116.984L495.123 116.977C494.827 118.267 494.393 120.444 494.18 121.642L491.942 135.039C491.909 135.305 491.873 135.483 491.881 135.659C491.9 136.098 492.123 136.177 492.563 136.158L496.827 135.973C497.53 135.942 497.517 135.635 497.591 135.323L502.386 106.709C502.419 106.443 502.455 106.266 502.447 106.09C502.428 105.65 502.205 105.572 501.765 105.591L497.721 105.766ZM487.401 98.3294C487.14 98.3848 486.708 98.5796 486.723 98.9313L486.736 99.239C486.795 100.602 487.233 101.552 487.653 102.106C488.639 103.517 490.162 104.111 492.228 104.022C495.217 103.892 497.267 102.394 498.167 100.814C498.536 100.181 499.047 98.75 499.026 98.2664C499.012 97.9587 498.701 97.8841 498.569 97.8898L496.048 97.6467C495.916 97.6524 495.826 97.6122 495.694 97.6179C495.211 97.6389 495.138 97.9944 494.979 98.3976C494.505 99.6513 493.746 100.433 492.472 100.488C490.933 100.555 490.708 99.4194 490.662 98.3644L490.658 98.2764C490.639 97.8369 490.419 97.8464 489.72 97.9647L487.401 98.3294ZM520.771 104.768C520.067 104.798 520.081 105.106 520.006 105.417L515.212 134.032C515.179 134.297 515.143 134.475 515.15 134.651C515.169 135.09 515.393 135.169 515.832 135.15L523.042 134.838C526.602 134.683 530.631 134.157 533.308 130.87C534.562 129.318 535.436 127.122 535.335 124.792C535.203 121.759 533.518 119.454 530.974 118.683C532.01 118.198 533.297 117.394 534.228 116.517C535.707 115.087 536.68 113.151 536.574 110.69C536.294 104.228 529.958 104.37 528.2 104.446L520.771 104.768ZM523.731 117.191L525.093 108.985L527.203 108.893C528.434 108.84 530.764 108.739 530.889 111.64C530.943 112.871 530.644 114.117 529.979 115.027C528.775 116.709 526.852 117.056 525.357 117.121L523.731 117.191ZM521.489 130.501L522.998 121.627L525.46 121.521C526.823 121.462 529.246 121.489 529.389 124.786C529.473 126.72 528.777 127.939 528.232 128.579C526.892 130.179 524.961 130.35 523.291 130.423L521.489 130.501ZM545.288 103.706C544.936 103.721 544.411 103.788 544.271 104.631L539.477 133.245C539.337 134.088 539.866 134.109 540.218 134.094L544.218 133.921C545.141 133.881 545.162 133.351 545.235 132.996L547.336 120.485L549.885 120.375C552.611 120.257 552.725 121.881 552.782 123.2L553.055 128.473C553.167 131.067 553.601 132.942 555.923 133.678C556.593 133.913 557.834 134.08 558.713 134.042C559.24 134.019 559.678 133.956 559.915 133.329L561.265 129.923C561.544 129.251 561.273 129.086 560.963 129.056L559.721 128.845C558.391 128.639 558.341 127.496 558.275 125.957L558.071 122.266C557.943 120.334 557.471 118.593 555.06 117.817L555.054 117.685C557.657 116.779 558.691 115.237 559.393 113.137L560.445 109.964C561.07 108.131 561.479 107.409 562.871 106.996L563.784 106.737C564.22 106.63 564.425 106.269 564.36 105.787L563.917 102.679C563.852 102.198 563.367 102.175 563.059 102.188C561.916 102.237 560.31 102.791 559.236 103.41C557.002 104.696 556.334 106.575 555.749 108.318L554.46 112.117C553.487 115.066 552.142 115.521 550.295 115.601L548.141 115.694L550.03 104.382C550.062 104.116 550.255 103.491 549.288 103.533L545.288 103.706ZM576.4 119.711C576.217 117.517 575.817 114.363 575.689 113.444L574.089 102.943C573.967 102.156 574.091 101.974 572.822 102.161L568.837 102.686C568.311 102.753 567.74 102.778 567.761 103.261C567.766 103.393 567.728 103.527 567.837 104.007L571.734 123.833C571.796 124.226 572.015 124.217 572.147 124.211L574.961 124.089L574.364 125.569C574.006 126.465 572.913 128.67 570.583 128.771C569.836 128.804 569.121 128.57 568.58 128.285C568.083 127.999 567.672 127.664 567.365 127.677C567.189 127.685 566.975 127.826 566.894 128.006L565.059 131.389C564.285 132.831 568.986 133.597 570.393 133.536C572.679 133.437 574.275 132.663 575.338 131.78C576.869 130.525 577.714 128.683 578.396 127.156L588.941 103.181C588.981 103.091 589.019 102.957 589.06 102.868C589.058 102.824 589.102 102.822 589.1 102.778C589.182 102.642 589.266 102.55 589.26 102.418C589.239 101.935 588.712 101.958 588.402 101.927L584.601 101.607C583.85 101.552 583.785 102.083 583.544 102.622L579.117 113.295C577.643 116.883 576.812 119.033 576.576 119.703L576.4 119.711ZM602.2 126.081C602.104 125.909 602.055 125.779 601.879 125.786C601.571 125.8 601.187 126.081 600.801 126.318C599.172 127.357 597.861 127.59 597.07 127.624C595.663 127.685 594.809 127.282 594.261 126.821C593.162 125.856 592.948 123.971 592.893 122.696C592.733 119.004 593.106 114.407 594.957 110.363C596.764 106.322 599.233 105.378 600.86 105.307C602.047 105.256 602.811 105.619 603.95 106.495C604.407 106.871 604.772 107.164 605.255 107.143C605.519 107.132 605.642 106.906 605.684 106.86L607.657 103.604C607.697 103.514 607.783 103.466 607.775 103.29C607.756 102.851 607.254 102.432 606.936 102.226C604.981 100.813 602.633 100.474 600.962 100.546C598.281 100.663 593.344 101.581 589.952 107.673C587.541 112.006 586.707 117.151 586.928 122.25C587.033 124.668 587.558 128.653 590.384 130.865C591.706 131.908 593.583 132.532 595.825 132.435C598.023 132.339 600.496 131.484 602.176 130.618C602.736 130.33 603.596 129.852 603.575 129.368C603.57 129.237 603.518 129.063 603.47 128.977L602.2 126.081Z" fill="white"/>
</g>
<path d="M302.101 183.53C302.101 183.674 302.133 183.85 302.421 183.85H303.957C304.245 183.85 304.277 183.674 304.277 183.53V174.81H307.381C307.525 174.81 307.701 174.778 307.749 174.554L308.069 173.226C308.085 173.146 308.101 173.114 308.101 173.082C308.101 172.986 308.053 172.89 307.845 172.89H302.421C302.277 172.89 302.101 172.922 302.101 173.21V183.53ZM313.762 179.898C313.762 176.89 312.05 175.674 310.29 175.674C308.53 175.674 306.818 176.89 306.818 179.898C306.818 182.906 308.53 184.122 310.29 184.122C312.05 184.122 313.762 182.906 313.762 179.898ZM310.29 182.522C309.042 182.522 308.978 181.114 308.978 179.898C308.978 178.682 309.074 177.274 310.29 177.274C311.506 177.274 311.602 178.682 311.602 179.898C311.602 181.13 311.522 182.522 310.29 182.522ZM319.771 177.546V183.626C319.771 183.802 319.819 183.85 319.995 183.85H321.579C321.787 183.85 321.803 183.802 321.803 183.626V176.17C321.803 175.994 321.755 175.946 321.579 175.946H316.667C316.459 175.946 316.443 175.994 316.443 176.17V176.89C316.443 177.834 316.411 180.282 316.235 181.13C316.075 181.962 315.707 182.234 315.163 182.362L314.891 182.426C314.795 182.442 314.619 182.458 314.683 182.698L315.003 183.882C315.035 183.994 315.067 184.122 315.339 184.122C315.723 184.122 317.179 184.026 317.835 182.394C318.331 181.13 318.379 178.666 318.379 177.754V177.546H319.771ZM330.543 179.898C330.543 176.89 328.831 175.674 327.071 175.674C325.311 175.674 323.599 176.89 323.599 179.898C323.599 182.906 325.311 184.122 327.071 184.122C328.831 184.122 330.543 182.906 330.543 179.898ZM327.071 182.522C325.823 182.522 325.759 181.114 325.759 179.898C325.759 178.682 325.855 177.274 327.071 177.274C328.287 177.274 328.383 178.682 328.383 179.898C328.383 181.13 328.303 182.522 327.071 182.522ZM337.832 176.794C337.864 176.746 337.88 176.714 337.88 176.65C337.88 176.554 337.816 176.41 337.528 176.218C337.096 175.946 336.456 175.674 335.592 175.674C333.672 175.674 331.88 176.89 331.88 180.074C331.88 183.13 333.624 184.122 335.464 184.122C336.088 184.122 336.76 183.978 337.288 183.69C337.528 183.562 337.688 183.402 337.688 183.274C337.688 183.226 337.656 183.146 337.64 183.114L337.224 182.058C337.208 182.01 337.144 181.978 337.112 181.978C337 181.978 336.824 182.122 336.632 182.234C336.344 182.41 336.04 182.522 335.624 182.522C334.936 182.522 334.552 182.154 334.344 181.802C334.168 181.498 334.04 181.002 334.04 180.026C334.04 178.762 334.264 178.234 334.36 178.026C334.584 177.578 334.968 177.274 335.592 177.274C336.008 177.274 336.328 177.402 336.664 177.626C336.904 177.786 337.032 177.914 337.128 177.914C337.192 177.914 337.224 177.866 337.24 177.834L337.832 176.794ZM344.11 175.802C343.806 175.77 343.71 175.946 343.662 176.138L342.814 179.994C342.766 180.25 342.622 180.682 342.286 182.762H342.254C342.142 182.17 341.806 180.586 341.646 179.994L340.606 176.122C340.51 175.738 340.446 175.786 340.126 175.818L338.798 175.946C338.622 175.962 338.446 175.978 338.446 176.138C338.446 176.218 338.478 176.282 338.526 176.41L340.974 183.642C341.054 183.882 341.15 183.85 341.262 183.85H341.934L341.774 184.378C341.598 184.954 341.374 185.562 340.51 185.562C340.062 185.562 339.646 185.386 339.39 185.258C339.278 185.194 339.214 185.162 339.15 185.162C339.102 185.162 339.038 185.178 338.99 185.274L338.478 186.378C338.414 186.522 338.398 186.634 338.862 186.842C339.486 187.13 340.078 187.242 340.622 187.242C341.31 187.242 342.318 187.066 342.926 185.85C343.198 185.306 343.438 184.442 344.046 182.186L345.614 176.426C345.662 176.25 345.678 176.202 345.678 176.154C345.678 175.994 345.502 175.978 345.342 175.962L344.11 175.802ZM347.031 183.626C347.031 183.834 347.079 183.85 347.255 183.85H348.839C349.047 183.85 349.063 183.77 349.143 183.626L350.663 180.81C350.871 180.426 351.111 180.09 351.671 178.858H351.735C351.671 179.866 351.655 180.298 351.655 180.586V183.626C351.655 183.834 351.703 183.85 351.879 183.85H353.463C353.671 183.85 353.687 183.802 353.687 183.626V175.882C353.687 175.642 353.559 175.658 353.431 175.69L352.183 175.946C351.927 175.994 351.815 175.93 351.607 176.282L350.055 178.986C349.751 179.514 349.479 179.994 349.047 180.938H348.983C349.015 180.538 349.063 179.658 349.063 179.21V175.882C349.063 175.642 348.935 175.658 348.807 175.69L347.335 175.994C347.015 176.058 347.031 176.138 347.031 176.282V183.626ZM351.559 172.314C351.527 172.314 351.479 172.298 351.447 172.298C351.255 172.298 351.271 172.426 351.191 172.666C351.063 173.114 350.839 173.354 350.359 173.354C349.879 173.354 349.655 173.114 349.527 172.666C349.479 172.49 349.463 172.394 349.415 172.346C349.351 172.266 349.239 172.298 349.159 172.314L348.231 172.442C348.167 172.458 348.087 172.522 348.087 172.698C348.087 172.954 348.183 173.322 348.375 173.642C348.743 174.234 349.463 174.666 350.359 174.666C351.255 174.666 351.975 174.234 352.343 173.642C352.535 173.322 352.631 172.954 352.631 172.698C352.631 172.522 352.551 172.458 352.487 172.442L351.559 172.314ZM359.042 177.546H360.802C360.882 177.546 360.994 177.514 361.042 177.322L361.266 176.266C361.298 176.106 361.362 175.946 361.026 175.946H355.186C355.01 175.946 354.962 175.994 354.962 176.17V177.322C354.962 177.498 355.01 177.546 355.186 177.546H357.01V183.626C357.01 183.834 357.058 183.85 357.234 183.85H358.818C359.026 183.85 359.042 183.802 359.042 183.626V177.546ZM368.247 180.442C368.455 180.442 368.615 180.426 368.615 179.93C368.615 179.514 368.599 178.922 368.439 178.25C368.151 177.002 367.431 175.674 365.415 175.674C363.175 175.674 361.911 177.578 361.911 180.106C361.911 181.21 362.135 184.122 365.559 184.122C366.455 184.122 367.511 183.882 368.103 183.482C368.231 183.402 368.359 183.29 368.359 183.13C368.359 183.082 368.343 183.05 368.311 182.986L367.911 182.042C367.879 181.962 367.831 181.914 367.735 181.914C367.639 181.914 367.495 181.978 367.303 182.074C366.999 182.218 366.439 182.442 365.703 182.442C364.375 182.442 363.943 181.61 363.943 180.442H368.247ZM363.943 178.954C364.039 177.866 364.391 177.162 365.303 177.162C365.943 177.162 366.263 177.53 366.391 178.138C366.423 178.266 366.471 178.522 366.455 178.954H363.943ZM374.27 177.61C374.286 177.642 374.334 177.722 374.43 177.722C374.51 177.722 374.59 177.658 374.846 177.514C375.022 177.418 375.47 177.162 376.094 177.162C376.75 177.162 377.134 177.53 377.134 178.058C377.134 178.97 376.318 179.034 375.774 179.034H375.406C375.23 179.034 375.182 179.082 375.182 179.258V180.298C375.182 180.474 375.23 180.522 375.406 180.522H375.758C376.254 180.522 377.262 180.522 377.262 181.482C377.262 181.898 377.07 182.634 375.998 182.634C375.406 182.634 375.022 182.506 374.494 182.218C374.286 182.106 374.158 182.026 374.046 182.026C373.95 182.026 373.902 182.074 373.87 182.154L373.518 182.986C373.502 183.034 373.47 183.098 373.47 183.162C373.47 183.402 373.758 183.53 374.014 183.658C374.574 183.946 375.438 184.122 376.142 184.122C377.966 184.122 379.294 183.178 379.294 181.514C379.294 180.49 378.702 179.898 377.998 179.706V179.658C378.734 179.386 379.118 178.714 379.118 177.882C379.118 177.146 378.766 176.65 378.414 176.33C377.758 175.738 376.926 175.674 376.366 175.674C375.166 175.674 374.43 176.01 374.094 176.202C373.982 176.266 373.694 176.442 373.694 176.65C373.694 176.698 373.71 176.746 373.742 176.794L374.27 177.61ZM386.902 183.562C386.95 183.546 387.03 183.498 387.03 183.402C387.03 183.322 386.966 183.21 386.854 182.922C386.614 182.314 386.614 181.802 386.614 181.338V178.25C386.614 177.962 386.582 177.242 386.262 176.698C385.782 175.882 384.854 175.674 383.862 175.674C383.206 175.674 382.07 175.802 381.414 176.106C380.998 176.298 380.998 176.362 381.078 176.586L381.414 177.594C381.446 177.706 381.478 177.754 381.574 177.754C381.686 177.754 381.798 177.674 382.342 177.498C382.742 177.37 383.222 177.274 383.638 177.274C384.086 177.274 384.358 177.418 384.502 177.594C384.71 177.85 384.694 178.234 384.694 178.458V178.954C383.782 178.922 382.278 179.05 381.494 179.61C381.158 179.85 380.518 180.458 380.518 181.69C380.518 183.162 381.446 184.122 382.886 184.122C383.942 184.122 384.518 183.642 384.934 183.226L384.998 183.162C385.046 183.418 385.126 183.642 385.27 183.93C385.398 184.17 385.494 184.138 385.606 184.09L386.902 183.562ZM384.694 182.026C384.342 182.41 383.91 182.634 383.494 182.634C382.918 182.634 382.438 182.202 382.438 181.546C382.438 180.602 383.318 180.266 384.598 180.266H384.694V182.026ZM396.852 178.906H394.548V175.882C394.548 175.642 394.42 175.658 394.292 175.69L393.028 175.946C392.484 176.058 392.516 176.106 392.516 176.282V183.626C392.516 183.802 392.564 183.85 392.74 183.85H394.324C394.532 183.85 394.548 183.802 394.548 183.626V180.506H396.852V183.626C396.852 183.834 396.9 183.85 397.076 183.85H398.66C398.868 183.85 398.884 183.802 398.884 183.626V175.882C398.884 175.642 398.756 175.658 398.628 175.69L397.156 175.994C396.836 176.058 396.852 176.138 396.852 176.282V178.906ZM407.621 179.898C407.621 176.89 405.909 175.674 404.149 175.674C402.389 175.674 400.677 176.89 400.677 179.898C400.677 182.906 402.389 184.122 404.149 184.122C405.909 184.122 407.621 182.906 407.621 179.898ZM404.149 182.522C402.901 182.522 402.837 181.114 402.837 179.898C402.837 178.682 402.933 177.274 404.149 177.274C405.365 177.274 405.461 178.682 405.461 179.898C405.461 181.13 405.381 182.522 404.149 182.522ZM412.206 183.85C413.166 183.85 414.094 183.834 414.862 183.322C415.55 182.874 415.726 182.17 415.726 181.61C415.726 180.506 415.054 179.834 414.19 179.658C415.006 179.402 415.47 178.714 415.47 177.898C415.47 177.114 415.054 176.618 414.686 176.362C414.062 175.946 413.022 175.946 412.094 175.946H409.646C409.438 175.946 409.422 175.994 409.422 176.17V183.626C409.422 183.834 409.47 183.85 409.646 183.85H412.206ZM411.454 177.434H412.254C412.75 177.434 413.438 177.482 413.438 178.202C413.438 178.474 413.326 179.066 412.302 179.066H411.454V177.434ZM411.454 180.506H412.51C412.798 180.506 413.694 180.522 413.694 181.418C413.694 182.266 412.926 182.362 412.334 182.362H411.454V180.506ZM420.423 183.85C421.271 183.85 422.343 183.818 423.095 183.21C423.847 182.618 423.943 181.786 423.943 181.21C423.943 180.538 423.783 179.866 423.159 179.338C422.439 178.73 421.543 178.698 420.647 178.698H419.751V175.882C419.751 175.642 419.623 175.658 419.495 175.69L418.279 175.946C417.703 176.074 417.719 176.058 417.719 176.282V183.626C417.719 183.834 417.767 183.85 417.943 183.85H420.423ZM419.751 180.298H420.727C421.063 180.298 421.911 180.314 421.911 181.274C421.911 182.202 421.143 182.25 420.551 182.25H419.751V180.298ZM425.047 183.626C425.047 183.834 425.095 183.85 425.271 183.85H426.855C427.063 183.85 427.079 183.802 427.079 183.626V175.882C427.079 175.642 426.951 175.658 426.823 175.69L425.351 175.994C425.031 176.058 425.047 176.138 425.047 176.282V183.626ZM429.313 183.626C429.313 183.834 429.361 183.85 429.537 183.85H431.121C431.329 183.85 431.345 183.77 431.425 183.626L432.945 180.81C433.153 180.426 433.393 180.09 433.953 178.858H434.017C433.953 179.866 433.937 180.298 433.937 180.586V183.626C433.937 183.834 433.985 183.85 434.161 183.85H435.745C435.953 183.85 435.969 183.802 435.969 183.626V175.882C435.969 175.642 435.841 175.658 435.713 175.69L434.465 175.946C434.209 175.994 434.097 175.93 433.889 176.282L432.337 178.986C432.033 179.514 431.761 179.994 431.329 180.938H431.265C431.297 180.538 431.345 179.658 431.345 179.21V175.882C431.345 175.642 431.217 175.658 431.089 175.69L429.617 175.994C429.297 176.058 429.313 176.138 429.313 176.282V183.626ZM433.841 172.314C433.809 172.314 433.761 172.298 433.729 172.298C433.537 172.298 433.553 172.426 433.473 172.666C433.345 173.114 433.121 173.354 432.641 173.354C432.161 173.354 431.937 173.114 431.809 172.666C431.761 172.49 431.745 172.394 431.697 172.346C431.633 172.266 431.521 172.298 431.441 172.314L430.513 172.442C430.449 172.458 430.369 172.522 430.369 172.698C430.369 172.954 430.465 173.322 430.657 173.642C431.025 174.234 431.745 174.666 432.641 174.666C433.537 174.666 434.257 174.234 434.625 173.642C434.817 173.322 434.913 172.954 434.913 172.698C434.913 172.522 434.833 172.458 434.769 172.442L433.841 172.314ZM444.722 183.85C445.682 183.85 446.61 183.834 447.378 183.322C448.066 182.874 448.242 182.17 448.242 181.61C448.242 180.506 447.57 179.834 446.706 179.658C447.522 179.402 447.986 178.714 447.986 177.898C447.986 177.114 447.57 176.618 447.202 176.362C446.578 175.946 445.538 175.946 444.61 175.946H442.162C441.954 175.946 441.938 175.994 441.938 176.17V183.626C441.938 183.834 441.986 183.85 442.162 183.85H444.722ZM443.97 177.434H444.77C445.266 177.434 445.954 177.482 445.954 178.202C445.954 178.474 445.842 179.066 444.818 179.066H443.97V177.434ZM443.97 180.506H445.026C445.314 180.506 446.21 180.522 446.21 181.418C446.21 182.266 445.442 182.362 444.85 182.362H443.97V180.506ZM451.979 183.85C452.267 183.85 452.267 183.738 452.267 183.626V180.538H452.923C453.659 180.538 453.755 180.89 453.851 181.322L454.155 182.65C454.267 183.13 454.443 183.514 454.827 183.77C455.243 184.058 455.995 184.122 456.299 184.122C456.651 184.122 456.683 183.994 456.715 183.882L457.003 182.858C457.083 182.554 456.939 182.522 456.827 182.506L456.475 182.442C456.123 182.378 456.059 182.218 455.931 181.834L455.627 180.954C455.451 180.458 455.291 179.882 454.523 179.722V179.674C455.195 179.546 455.403 179.002 455.499 178.666L455.675 178.042C455.851 177.402 456.011 177.37 456.331 177.306L456.571 177.258C456.731 177.226 456.811 177.114 456.779 177.002L456.459 175.834C456.427 175.738 456.395 175.674 456.171 175.674C455.883 175.674 455.147 175.77 454.699 176.17C454.315 176.506 454.171 176.97 454.107 177.242L453.899 178.154C453.803 178.586 453.707 178.938 452.971 178.938H452.267V175.882C452.267 175.642 452.139 175.658 452.011 175.69L450.763 175.946C450.219 176.058 450.235 176.074 450.235 176.282V183.626C450.235 183.738 450.235 183.85 450.523 183.85H451.979ZM463.048 175.802C462.744 175.77 462.648 175.946 462.6 176.138L461.752 179.994C461.704 180.25 461.56 180.682 461.224 182.762H461.192C461.08 182.17 460.744 180.586 460.584 179.994L459.544 176.122C459.448 175.738 459.384 175.786 459.064 175.818L457.736 175.946C457.56 175.962 457.384 175.978 457.384 176.138C457.384 176.218 457.416 176.282 457.464 176.41L459.912 183.642C459.992 183.882 460.088 183.85 460.2 183.85H460.872L460.712 184.378C460.536 184.954 460.312 185.562 459.448 185.562C459 185.562 458.584 185.386 458.328 185.258C458.216 185.194 458.152 185.162 458.088 185.162C458.04 185.162 457.976 185.178 457.928 185.274L457.416 186.378C457.352 186.522 457.336 186.634 457.8 186.842C458.424 187.13 459.016 187.242 459.56 187.242C460.248 187.242 461.256 187.066 461.864 185.85C462.136 185.306 462.376 184.442 462.984 182.186L464.552 176.426C464.6 176.25 464.616 176.202 464.616 176.154C464.616 175.994 464.44 175.978 464.28 175.962L463.048 175.802ZM471.301 176.794C471.333 176.746 471.349 176.714 471.349 176.65C471.349 176.554 471.285 176.41 470.997 176.218C470.565 175.946 469.925 175.674 469.061 175.674C467.141 175.674 465.349 176.89 465.349 180.074C465.349 183.13 467.093 184.122 468.933 184.122C469.557 184.122 470.229 183.978 470.757 183.69C470.997 183.562 471.157 183.402 471.157 183.274C471.157 183.226 471.125 183.146 471.109 183.114L470.693 182.058C470.677 182.01 470.613 181.978 470.581 181.978C470.469 181.978 470.293 182.122 470.101 182.234C469.813 182.41 469.509 182.522 469.093 182.522C468.405 182.522 468.021 182.154 467.813 181.802C467.637 181.498 467.509 181.002 467.509 180.026C467.509 178.762 467.733 178.234 467.829 178.026C468.053 177.578 468.437 177.274 469.061 177.274C469.477 177.274 469.797 177.402 470.133 177.626C470.373 177.786 470.501 177.914 470.597 177.914C470.661 177.914 470.693 177.866 470.709 177.834L471.301 176.794ZM479.266 172.89C479.058 172.89 479.042 172.986 478.994 173.13L475.81 183.53C475.778 183.626 475.714 183.85 476.05 183.85H477.762C477.97 183.85 477.986 183.77 478.05 183.514L478.706 180.922H481.458L482.162 183.514C482.258 183.834 482.306 183.85 482.498 183.85H484.274C484.354 183.85 484.53 183.834 484.53 183.658C484.53 183.578 484.498 183.53 484.482 183.466L481.346 173.146C481.298 172.986 481.266 172.89 481.106 172.89H479.266ZM481.058 179.482H478.946L479.65 176.73C479.938 175.626 479.986 175.034 480.002 174.602H480.05C480.178 175.706 480.29 176.25 480.402 176.73L481.058 179.482ZM489.09 182.234C489.074 182.17 489.01 182.138 488.962 182.138C488.914 182.138 488.85 182.17 488.738 182.202C488.61 182.25 488.482 182.282 488.354 182.282C487.858 182.282 487.89 181.754 487.89 181.322V172.602C487.89 172.49 487.906 172.346 487.842 172.298C487.778 172.25 487.682 172.266 487.634 172.282L486.162 172.586C485.842 172.65 485.858 172.73 485.858 172.874V181.034C485.858 182.618 485.89 184.122 487.906 184.122C488.354 184.122 488.706 184.042 489.122 183.914C489.426 183.818 489.458 183.722 489.41 183.546L489.09 182.234ZM492.784 183.706L492.848 183.738C493.008 183.818 493.44 184.122 494.448 184.122C497.328 184.122 497.392 181.034 497.392 179.834C497.392 176.33 495.824 175.674 494.576 175.674C493.936 175.674 493.248 175.882 492.576 176.506C492.528 176.362 492.496 176.218 492.432 176.074C492.256 175.594 492.096 175.642 491.84 175.722L490.624 176.122C490.544 176.154 490.448 176.202 490.448 176.298C490.448 176.346 490.464 176.394 490.512 176.554C490.624 176.89 490.752 177.418 490.752 178.794V187.002C490.752 187.306 490.88 187.258 491.008 187.226L492.48 186.922C492.8 186.858 492.784 186.778 492.784 186.634V183.706ZM492.784 177.882L492.848 177.818C493.104 177.562 493.504 177.274 494.016 177.274C495.328 177.274 495.36 178.81 495.36 179.786C495.36 181.034 495.296 181.498 495.104 181.85C494.8 182.426 494.304 182.522 493.936 182.522C493.712 182.522 493.248 182.506 492.784 182.218V177.882ZM505.122 180.442C505.33 180.442 505.49 180.426 505.49 179.93C505.49 179.514 505.474 178.922 505.314 178.25C505.026 177.002 504.306 175.674 502.29 175.674C500.05 175.674 498.786 177.578 498.786 180.106C498.786 181.21 499.01 184.122 502.434 184.122C503.33 184.122 504.386 183.882 504.978 183.482C505.106 183.402 505.234 183.29 505.234 183.13C505.234 183.082 505.218 183.05 505.186 182.986L504.786 182.042C504.754 181.962 504.706 181.914 504.61 181.914C504.514 181.914 504.37 181.978 504.178 182.074C503.874 182.218 503.314 182.442 502.578 182.442C501.25 182.442 500.818 181.61 500.818 180.442H505.122ZM500.818 178.954C500.914 177.866 501.266 177.162 502.178 177.162C502.818 177.162 503.138 177.53 503.266 178.138C503.298 178.266 503.346 178.522 503.33 178.954H500.818ZM513.65 178.01C513.65 176.794 513.026 175.674 511.586 175.674C510.834 175.674 510.002 175.898 509.122 176.778C509.074 176.458 508.994 176.202 508.914 176.01C508.754 175.642 508.69 175.61 508.37 175.722L507.154 176.122C506.994 176.17 506.978 176.266 506.978 176.33C506.978 176.474 507.042 176.538 507.122 176.858C507.218 177.274 507.282 177.754 507.282 178.794V183.626C507.282 183.834 507.33 183.85 507.506 183.85H509.09C509.298 183.85 509.314 183.802 509.314 183.626V178.01C509.922 177.45 510.37 177.354 510.674 177.354C511.57 177.354 511.618 178.106 511.618 178.698V183.626C511.618 183.834 511.666 183.85 511.842 183.85H513.426C513.634 183.85 513.65 183.802 513.65 183.626V178.01ZM524.747 179.85V182.138C524.299 182.346 523.931 182.394 523.643 182.394C523.115 182.394 522.651 182.234 522.347 181.962C521.547 181.242 521.467 179.37 521.467 178.57C521.467 177.722 521.579 176.426 521.803 175.754C522.107 174.874 522.651 174.346 523.627 174.346C524.123 174.346 524.587 174.49 525.067 174.746C525.483 174.97 525.595 175.05 525.691 175.05C525.819 175.05 525.851 174.954 525.899 174.874L526.427 173.818C526.491 173.69 526.555 173.578 526.139 173.322C525.867 173.162 524.939 172.618 523.483 172.618C522.139 172.618 521.195 173.082 520.523 173.802C519.755 174.634 519.195 176.042 519.195 178.602C519.195 180.25 519.483 181.658 520.283 182.714C521.003 183.658 522.011 184.122 523.499 184.122C524.827 184.122 525.707 183.738 526.155 183.498C526.571 183.274 526.683 183.162 526.683 182.938V178.442C526.683 178.154 526.507 178.122 526.363 178.122H523.531C523.387 178.122 523.211 178.154 523.211 178.442V179.53C523.211 179.818 523.387 179.85 523.531 179.85H524.747ZM535.371 179.898C535.371 176.89 533.659 175.674 531.899 175.674C530.139 175.674 528.427 176.89 528.427 179.898C528.427 182.906 530.139 184.122 531.899 184.122C533.659 184.122 535.371 182.906 535.371 179.898ZM531.899 182.522C530.651 182.522 530.587 181.114 530.587 179.898C530.587 178.682 530.683 177.274 531.899 177.274C533.115 177.274 533.211 178.682 533.211 179.898C533.211 181.13 533.131 182.522 531.899 182.522ZM540.324 182.234C540.308 182.17 540.244 182.138 540.196 182.138C540.148 182.138 540.084 182.17 539.972 182.202C539.844 182.25 539.716 182.282 539.588 182.282C539.092 182.282 539.124 181.754 539.124 181.322V172.602C539.124 172.49 539.14 172.346 539.076 172.298C539.012 172.25 538.916 172.266 538.868 172.282L537.396 172.586C537.076 172.65 537.092 172.73 537.092 172.874V181.034C537.092 182.618 537.124 184.122 539.14 184.122C539.588 184.122 539.94 184.042 540.356 183.914C540.66 183.818 540.692 183.722 540.644 183.546L540.324 182.234ZM546.291 183.162C546.371 183.546 546.467 183.738 546.579 183.946C546.691 184.17 546.787 184.138 546.883 184.09L548.179 183.562C548.291 183.514 548.323 183.482 548.323 183.418C548.323 183.354 548.291 183.29 548.211 182.97C548.051 182.33 548.035 181.594 548.035 181.338V172.602C548.035 172.218 547.971 172.234 547.779 172.282L546.259 172.602C545.987 172.65 546.003 172.73 546.003 172.874V176.154C545.571 175.802 545.107 175.674 544.499 175.674C543.315 175.674 541.443 176.314 541.443 180.106C541.443 183.498 543.011 184.122 544.115 184.122C544.915 184.122 545.635 183.818 546.259 183.194L546.291 183.162ZM546.003 181.962L545.907 182.074C545.731 182.282 545.427 182.522 544.819 182.522C544.467 182.522 544.035 182.442 543.747 181.914C543.619 181.658 543.475 181.226 543.475 179.866C543.475 178.778 543.555 178.17 543.843 177.786C544.163 177.338 544.595 177.274 544.915 177.274C545.395 177.274 545.667 177.402 545.923 177.546L546.003 177.594V181.962ZM560.418 179.898C560.418 176.89 558.706 175.674 556.946 175.674C555.186 175.674 553.474 176.89 553.474 179.898C553.474 182.906 555.186 184.122 556.946 184.122C558.706 184.122 560.418 182.906 560.418 179.898ZM556.946 182.522C555.698 182.522 555.634 181.114 555.634 179.898C555.634 178.682 555.73 177.274 556.946 177.274C558.162 177.274 558.258 178.682 558.258 179.898C558.258 181.13 558.178 182.522 556.946 182.522ZM565.339 177.546H567.099C567.179 177.546 567.291 177.514 567.339 177.322L567.563 176.266C567.595 176.106 567.659 175.946 567.323 175.946H561.483C561.307 175.946 561.259 175.994 561.259 176.17V177.322C561.259 177.498 561.307 177.546 561.483 177.546H563.307V183.626C563.307 183.834 563.355 183.85 563.531 183.85H565.115C565.323 183.85 565.339 183.802 565.339 183.626V177.546ZM578.182 183.85V186.122C578.182 186.266 578.214 186.442 578.502 186.442H579.894C580.182 186.442 580.214 186.266 580.214 186.122V182.442C580.214 182.298 580.182 182.122 579.894 182.122H579.254V173.21C579.254 173.066 579.222 172.89 578.934 172.89H573.702C573.414 172.89 573.382 173.066 573.382 173.21L573.366 176.298C573.366 176.586 573.35 178.058 573.126 179.434C572.966 180.41 572.742 181.21 572.23 182.122H571.926C571.638 182.122 571.606 182.298 571.606 182.442V186.122C571.606 186.266 571.638 186.442 571.926 186.442H573.318C573.462 186.442 573.638 186.41 573.638 186.122V183.85H578.182ZM577.078 182.122H574.358C574.678 181.482 574.902 180.826 575.062 180.09C575.222 179.386 575.366 178.314 575.398 176.618L575.43 174.618H577.078V182.122ZM583.043 183.85C583.187 183.85 583.347 183.866 583.347 183.61L583.491 178.506H583.539C583.699 179.066 583.891 179.754 584.083 180.314L584.947 182.714C585.027 182.938 585.139 182.906 585.267 182.906H586.131C586.259 182.906 586.371 182.938 586.451 182.714L587.315 180.314C587.507 179.754 587.699 179.066 587.859 178.506H587.907L588.051 183.61C588.051 183.866 588.211 183.85 588.355 183.85H589.443C589.779 183.85 589.747 183.754 589.747 183.61L589.347 176.186C589.331 175.898 589.155 175.946 589.043 175.946H587.699C587.603 175.946 587.443 175.93 587.379 176.122L586.147 179.514C585.987 179.946 585.779 180.826 585.715 181.21H585.683C585.635 180.89 585.411 179.946 585.251 179.514L584.019 176.122C583.955 175.93 583.795 175.946 583.699 175.946H582.355C582.243 175.946 582.067 175.898 582.051 176.186L581.651 183.61C581.651 183.754 581.619 183.85 581.955 183.85H583.043ZM591.75 183.626C591.75 183.834 591.798 183.85 591.974 183.85H593.558C593.766 183.85 593.782 183.77 593.862 183.626L595.382 180.81C595.59 180.426 595.83 180.09 596.39 178.858H596.454C596.39 179.93 596.374 180.282 596.374 180.586V183.626C596.374 183.834 596.422 183.85 596.598 183.85H598.182C598.39 183.85 598.406 183.802 598.406 183.626V175.882C598.406 175.642 598.278 175.658 598.15 175.69L596.87 175.946C596.598 175.994 596.518 175.962 596.326 176.282L594.774 178.986C594.47 179.514 594.198 179.994 593.766 180.938H593.702C593.734 180.538 593.782 179.658 593.782 179.21V175.882C593.782 175.642 593.654 175.658 593.526 175.69L592.054 175.994C591.734 176.058 591.75 176.138 591.75 176.282V183.626ZM603.761 177.546H605.521C605.601 177.546 605.713 177.514 605.761 177.322L605.985 176.266C606.017 176.106 606.081 175.946 605.745 175.946H599.905C599.729 175.946 599.681 175.994 599.681 176.17V177.322C599.681 177.498 599.729 177.546 599.905 177.546H601.729V183.626C601.729 183.834 601.777 183.85 601.953 183.85H603.537C603.745 183.85 603.761 183.802 603.761 183.626V177.546ZM609.222 183.706L609.286 183.738C609.446 183.818 609.878 184.122 610.886 184.122C613.766 184.122 613.83 181.034 613.83 179.834C613.83 176.33 612.262 175.674 611.014 175.674C610.374 175.674 609.686 175.882 609.014 176.506C608.966 176.362 608.934 176.218 608.87 176.074C608.694 175.594 608.534 175.642 608.278 175.722L607.062 176.122C606.982 176.154 606.886 176.202 606.886 176.298C606.886 176.346 606.902 176.394 606.95 176.554C607.062 176.89 607.19 177.418 607.19 178.794V187.002C607.19 187.306 607.318 187.258 607.446 187.226L608.918 186.922C609.238 186.858 609.222 186.778 609.222 186.634V183.706ZM609.222 177.882L609.286 177.818C609.542 177.562 609.942 177.274 610.454 177.274C611.766 177.274 611.798 178.81 611.798 179.786C611.798 181.034 611.734 181.498 611.542 181.85C611.238 182.426 610.742 182.522 610.374 182.522C610.15 182.522 609.686 182.506 609.222 182.218V177.882ZM615.688 183.626C615.688 183.834 615.736 183.85 615.912 183.85H617.496C617.704 183.85 617.72 183.77 617.8 183.626L619.32 180.81C619.528 180.426 619.768 180.09 620.328 178.858H620.392C620.328 179.93 620.312 180.282 620.312 180.586V183.626C620.312 183.834 620.36 183.85 620.536 183.85H622.12C622.328 183.85 622.344 183.802 622.344 183.626V175.882C622.344 175.642 622.216 175.658 622.088 175.69L620.808 175.946C620.536 175.994 620.456 175.962 620.264 176.282L618.712 178.986C618.408 179.514 618.136 179.994 617.704 180.938H617.64C617.672 180.538 617.72 179.658 617.72 179.21V175.882C617.72 175.642 617.592 175.658 617.464 175.69L615.992 175.994C615.672 176.058 615.688 176.138 615.688 176.282V183.626ZM630.258 183.85C630.434 183.85 630.482 183.834 630.482 183.626V176.17C630.482 175.962 630.434 175.946 630.258 175.946H627.202C626.77 175.946 625.794 175.978 625.122 176.506C624.578 176.922 624.306 177.626 624.306 178.25C624.306 178.714 624.466 179.29 624.786 179.642C625.026 179.898 625.426 180.138 625.81 180.234V180.266C625.234 180.426 624.994 180.858 624.818 181.482L624.722 181.834C624.61 182.218 624.514 182.378 624.178 182.442L623.858 182.506C623.746 182.522 623.602 182.554 623.682 182.858L623.97 183.882C624.002 183.994 624.018 184.122 624.354 184.122C624.722 184.122 625.378 184.042 625.794 183.754C626.226 183.45 626.386 183.018 626.498 182.602L626.754 181.69C626.898 181.162 627.026 180.906 627.698 180.906H628.45V183.626C628.45 183.802 628.466 183.85 628.674 183.85H630.258ZM628.45 179.386H627.586C627.218 179.386 626.338 179.322 626.338 178.426C626.338 178.106 626.466 177.466 627.506 177.466H628.45V179.386ZM321.703 202.53C321.703 202.834 321.863 202.85 322.023 202.85H323.559C323.719 202.85 323.879 202.834 323.879 202.53V198.018H326.903V202.53C326.903 202.834 327.063 202.85 327.223 202.85H328.759C329.063 202.85 329.079 202.69 329.079 202.53V192.21C329.079 192.05 329.063 191.89 328.759 191.89H327.223C327.063 191.89 326.903 191.906 326.903 192.21V196.29H323.879V192.21C323.879 191.906 323.719 191.89 323.559 191.89H322.023C321.863 191.89 321.703 191.906 321.703 192.21V202.53ZM337.441 202.562C337.489 202.546 337.569 202.498 337.569 202.402C337.569 202.322 337.505 202.21 337.393 201.922C337.153 201.314 337.153 200.802 337.153 200.338V197.25C337.153 196.962 337.121 196.242 336.801 195.698C336.321 194.882 335.393 194.674 334.401 194.674C333.745 194.674 332.609 194.802 331.953 195.106C331.537 195.298 331.537 195.362 331.617 195.586L331.953 196.594C331.985 196.706 332.017 196.754 332.113 196.754C332.225 196.754 332.337 196.674 332.881 196.498C333.281 196.37 333.761 196.274 334.177 196.274C334.625 196.274 334.897 196.418 335.041 196.594C335.249 196.85 335.233 197.234 335.233 197.458V197.954C334.321 197.922 332.817 198.05 332.033 198.61C331.697 198.85 331.057 199.458 331.057 200.69C331.057 202.162 331.985 203.122 333.425 203.122C334.481 203.122 335.057 202.642 335.473 202.226L335.537 202.162C335.585 202.418 335.665 202.642 335.809 202.93C335.937 203.17 336.033 203.138 336.145 203.09L337.441 202.562ZM335.233 201.026C334.881 201.41 334.449 201.634 334.033 201.634C333.457 201.634 332.977 201.202 332.977 200.546C332.977 199.602 333.857 199.266 335.137 199.266H335.233V201.026ZM339.48 196.61C339.496 196.642 339.544 196.722 339.64 196.722C339.72 196.722 339.8 196.658 340.056 196.514C340.232 196.418 340.68 196.162 341.304 196.162C341.96 196.162 342.344 196.53 342.344 197.058C342.344 197.97 341.528 198.034 340.984 198.034H340.616C340.44 198.034 340.392 198.082 340.392 198.258V199.298C340.392 199.474 340.44 199.522 340.616 199.522H340.968C341.464 199.522 342.472 199.522 342.472 200.482C342.472 200.898 342.28 201.634 341.208 201.634C340.616 201.634 340.232 201.506 339.704 201.218C339.496 201.106 339.368 201.026 339.256 201.026C339.16 201.026 339.112 201.074 339.08 201.154L338.728 201.986C338.712 202.034 338.68 202.098 338.68 202.162C338.68 202.402 338.968 202.53 339.224 202.658C339.784 202.946 340.648 203.122 341.352 203.122C343.176 203.122 344.504 202.178 344.504 200.514C344.504 199.49 343.912 198.898 343.208 198.706V198.658C343.944 198.386 344.328 197.714 344.328 196.882C344.328 196.146 343.976 195.65 343.624 195.33C342.968 194.738 342.136 194.674 341.576 194.674C340.376 194.674 339.64 195.01 339.304 195.202C339.192 195.266 338.904 195.442 338.904 195.65C338.904 195.698 338.92 195.746 338.952 195.794L339.48 196.61ZM352.113 202.562C352.161 202.546 352.241 202.498 352.241 202.402C352.241 202.322 352.177 202.21 352.065 201.922C351.825 201.314 351.825 200.802 351.825 200.338V197.25C351.825 196.962 351.793 196.242 351.473 195.698C350.993 194.882 350.065 194.674 349.073 194.674C348.417 194.674 347.281 194.802 346.625 195.106C346.209 195.298 346.209 195.362 346.289 195.586L346.625 196.594C346.657 196.706 346.689 196.754 346.785 196.754C346.897 196.754 347.009 196.674 347.553 196.498C347.953 196.37 348.433 196.274 348.849 196.274C349.297 196.274 349.569 196.418 349.713 196.594C349.921 196.85 349.905 197.234 349.905 197.458V197.954C348.993 197.922 347.489 198.05 346.705 198.61C346.369 198.85 345.729 199.458 345.729 200.69C345.729 202.162 346.657 203.122 348.097 203.122C349.153 203.122 349.729 202.642 350.145 202.226L350.209 202.162C350.257 202.418 350.337 202.642 350.481 202.93C350.609 203.17 350.705 203.138 350.817 203.09L352.113 202.562ZM349.905 201.026C349.553 201.41 349.121 201.634 348.705 201.634C348.129 201.634 347.649 201.202 347.649 200.546C347.649 199.602 348.529 199.266 349.809 199.266H349.905V201.026ZM356.12 202.706L356.184 202.738C356.344 202.818 356.776 203.122 357.784 203.122C360.664 203.122 360.728 200.034 360.728 198.834C360.728 195.33 359.16 194.674 357.912 194.674C357.272 194.674 356.584 194.882 355.912 195.506C355.864 195.362 355.832 195.218 355.768 195.074C355.592 194.594 355.432 194.642 355.176 194.722L353.96 195.122C353.88 195.154 353.784 195.202 353.784 195.298C353.784 195.346 353.8 195.394 353.848 195.554C353.96 195.89 354.088 196.418 354.088 197.794V206.002C354.088 206.306 354.216 206.258 354.344 206.226L355.816 205.922C356.136 205.858 356.12 205.778 356.12 205.634V202.706ZM356.12 196.882L356.184 196.818C356.44 196.562 356.84 196.274 357.352 196.274C358.664 196.274 358.696 197.81 358.696 198.786C358.696 200.034 358.632 200.498 358.44 200.85C358.136 201.426 357.64 201.522 357.272 201.522C357.048 201.522 356.584 201.506 356.12 201.218V196.882ZM369.082 198.898C369.082 195.89 367.37 194.674 365.61 194.674C363.85 194.674 362.138 195.89 362.138 198.898C362.138 201.906 363.85 203.122 365.61 203.122C367.37 203.122 369.082 201.906 369.082 198.898ZM365.61 201.522C364.362 201.522 364.298 200.114 364.298 198.898C364.298 197.682 364.394 196.274 365.61 196.274C366.826 196.274 366.922 197.682 366.922 198.898C366.922 200.13 366.842 201.522 365.61 201.522ZM373.667 202.85C374.627 202.85 375.555 202.834 376.323 202.322C377.011 201.874 377.187 201.17 377.187 200.61C377.187 199.506 376.515 198.834 375.651 198.658C376.467 198.402 376.931 197.714 376.931 196.898C376.931 196.114 376.515 195.618 376.147 195.362C375.523 194.946 374.483 194.946 373.555 194.946H371.107C370.899 194.946 370.883 194.994 370.883 195.17V202.626C370.883 202.834 370.931 202.85 371.107 202.85H373.667ZM372.915 196.434H373.715C374.211 196.434 374.899 196.482 374.899 197.202C374.899 197.474 374.787 198.066 373.763 198.066H372.915V196.434ZM372.915 199.506H373.971C374.259 199.506 375.155 199.522 375.155 200.418C375.155 201.266 374.387 201.362 373.795 201.362H372.915V199.506ZM385.004 202.562C385.052 202.546 385.132 202.498 385.132 202.402C385.132 202.322 385.068 202.21 384.956 201.922C384.716 201.314 384.716 200.802 384.716 200.338V197.25C384.716 196.962 384.684 196.242 384.364 195.698C383.884 194.882 382.956 194.674 381.964 194.674C381.308 194.674 380.172 194.802 379.516 195.106C379.1 195.298 379.1 195.362 379.18 195.586L379.516 196.594C379.548 196.706 379.58 196.754 379.676 196.754C379.788 196.754 379.9 196.674 380.444 196.498C380.844 196.37 381.324 196.274 381.74 196.274C382.188 196.274 382.46 196.418 382.604 196.594C382.812 196.85 382.796 197.234 382.796 197.458V197.954C381.884 197.922 380.38 198.05 379.596 198.61C379.26 198.85 378.62 199.458 378.62 200.69C378.62 202.162 379.548 203.122 380.988 203.122C382.044 203.122 382.62 202.642 383.036 202.226L383.1 202.162C383.148 202.418 383.228 202.642 383.372 202.93C383.5 203.17 383.596 203.138 383.708 203.09L385.004 202.562ZM382.796 201.026C382.444 201.41 382.012 201.634 381.596 201.634C381.02 201.634 380.54 201.202 380.54 200.546C380.54 199.602 381.42 199.266 382.7 199.266H382.796V201.026ZM396.713 195.17C396.713 195.09 396.729 194.946 396.489 194.946H391.657C391.401 194.946 391.433 195.058 391.433 195.17V195.89C391.433 198.002 391.401 199.522 390.473 201.25H389.961C389.849 201.25 389.737 201.218 389.737 201.474V204.866C389.737 205.042 389.785 205.09 389.961 205.09H391.465C391.673 205.09 391.689 205.042 391.689 204.866V202.85H395.753V204.866C395.753 205.042 395.801 205.09 395.977 205.09H397.481C397.689 205.09 397.705 205.042 397.705 204.866V201.474C397.705 201.218 397.593 201.25 397.481 201.25H396.713V195.17ZM394.681 201.25H392.425C393.129 199.778 393.241 198.402 393.241 197.058V196.546H394.681V201.25ZM403.388 196.546V202.626C403.388 202.802 403.436 202.85 403.612 202.85H405.196C405.404 202.85 405.42 202.802 405.42 202.626V195.17C405.42 194.994 405.372 194.946 405.196 194.946H400.284C400.076 194.946 400.06 194.994 400.06 195.17V195.89C400.06 196.834 400.028 199.282 399.852 200.13C399.692 200.962 399.324 201.234 398.78 201.362L398.508 201.426C398.412 201.442 398.236 201.458 398.3 201.698L398.62 202.882C398.652 202.994 398.684 203.122 398.956 203.122C399.34 203.122 400.796 203.026 401.452 201.394C401.948 200.13 401.996 197.666 401.996 196.754V196.546H403.388ZM413.344 202.85C413.52 202.85 413.568 202.834 413.568 202.626V195.17C413.568 194.962 413.52 194.946 413.344 194.946H410.288C409.856 194.946 408.88 194.978 408.208 195.506C407.664 195.922 407.392 196.626 407.392 197.25C407.392 197.714 407.552 198.29 407.872 198.642C408.112 198.898 408.512 199.138 408.896 199.234V199.266C408.32 199.426 408.08 199.858 407.904 200.482L407.808 200.834C407.696 201.218 407.6 201.378 407.264 201.442L406.944 201.506C406.832 201.522 406.688 201.554 406.768 201.858L407.056 202.882C407.088 202.994 407.104 203.122 407.44 203.122C407.808 203.122 408.464 203.042 408.88 202.754C409.312 202.45 409.472 202.018 409.584 201.602L409.84 200.69C409.984 200.162 410.112 199.906 410.784 199.906H411.536V202.626C411.536 202.802 411.552 202.85 411.76 202.85H413.344ZM411.536 198.386H410.672C410.304 198.386 409.424 198.322 409.424 197.426C409.424 197.106 409.552 196.466 410.592 196.466H411.536V198.386ZM423.075 200.162C423.123 200.306 423.107 200.434 423.363 200.434H424.499C424.723 200.434 424.723 200.306 424.771 200.162L425.747 197.042C425.987 196.274 426.131 195.506 426.307 194.53H426.355C426.355 194.962 426.355 195.378 426.355 195.81C426.355 195.938 426.355 196.05 426.355 196.178C426.355 196.626 426.355 196.738 426.371 197.09L426.499 202.514C426.499 202.738 426.547 202.85 426.739 202.85H428.339C428.467 202.85 428.595 202.802 428.579 202.514L428.131 192.402C428.115 191.922 428.019 191.89 427.795 191.89H426.163C425.955 191.89 425.923 192.002 425.875 192.146L424.515 196.178C424.275 196.898 424.099 197.346 424.003 198.098H423.971C423.923 197.762 423.667 196.754 423.491 196.178L422.195 192.146C422.115 191.89 422.067 191.89 421.923 191.89H420.227C420.051 191.89 419.987 191.954 419.971 192.226L419.523 202.514C419.507 202.786 419.619 202.85 419.779 202.85H421.107C421.331 202.85 421.363 202.722 421.363 202.514L421.507 197.794C421.523 197.314 421.523 196.722 421.539 194.53H421.587C421.795 195.778 422.067 196.754 422.147 197.042L423.075 200.162ZM436.613 202.562C436.661 202.546 436.741 202.498 436.741 202.402C436.741 202.322 436.677 202.21 436.565 201.922C436.325 201.314 436.325 200.802 436.325 200.338V197.25C436.325 196.962 436.293 196.242 435.973 195.698C435.493 194.882 434.565 194.674 433.573 194.674C432.917 194.674 431.781 194.802 431.125 195.106C430.709 195.298 430.709 195.362 430.789 195.586L431.125 196.594C431.157 196.706 431.189 196.754 431.285 196.754C431.397 196.754 431.509 196.674 432.053 196.498C432.453 196.37 432.933 196.274 433.349 196.274C433.797 196.274 434.069 196.418 434.213 196.594C434.421 196.85 434.405 197.234 434.405 197.458V197.954C433.493 197.922 431.989 198.05 431.205 198.61C430.869 198.85 430.229 199.458 430.229 200.69C430.229 202.162 431.157 203.122 432.597 203.122C433.653 203.122 434.229 202.642 434.645 202.226L434.709 202.162C434.757 202.418 434.837 202.642 434.981 202.93C435.109 203.17 435.205 203.138 435.317 203.09L436.613 202.562ZM434.405 201.026C434.053 201.41 433.621 201.634 433.205 201.634C432.629 201.634 432.149 201.202 432.149 200.546C432.149 199.602 433.029 199.266 434.309 199.266H434.405V201.026ZM440.524 196.626H443.276C443.356 196.626 443.484 196.594 443.516 196.402L443.74 195.266C443.772 195.106 443.852 194.946 443.5 194.946H438.716C438.508 194.946 438.492 194.994 438.492 195.17V202.626C438.492 202.834 438.54 202.85 438.716 202.85H440.3C440.508 202.85 440.524 202.802 440.524 202.626V196.626ZM449.344 197.906H447.04V194.882C447.04 194.642 446.912 194.658 446.784 194.69L445.52 194.946C444.976 195.058 445.008 195.106 445.008 195.282V202.626C445.008 202.802 445.056 202.85 445.232 202.85H446.816C447.024 202.85 447.04 202.802 447.04 202.626V199.506H449.344V202.626C449.344 202.834 449.392 202.85 449.568 202.85H451.152C451.36 202.85 451.376 202.802 451.376 202.626V194.882C451.376 194.642 451.248 194.658 451.12 194.69L449.648 194.994C449.328 195.058 449.344 195.138 449.344 195.282V197.906ZM453.617 202.626C453.617 202.834 453.665 202.85 453.841 202.85H455.425C455.633 202.85 455.649 202.77 455.729 202.626L457.249 199.81C457.457 199.426 457.697 199.09 458.257 197.858H458.321C458.257 198.93 458.241 199.282 458.241 199.586V202.626C458.241 202.834 458.289 202.85 458.465 202.85H460.049C460.257 202.85 460.273 202.802 460.273 202.626V194.882C460.273 194.642 460.145 194.658 460.017 194.69L458.737 194.946C458.465 194.994 458.385 194.962 458.193 195.282L456.641 197.986C456.337 198.514 456.065 198.994 455.633 199.938H455.569C455.601 199.538 455.649 198.658 455.649 198.21V194.882C455.649 194.642 455.521 194.658 455.393 194.69L453.921 194.994C453.601 195.058 453.617 195.138 453.617 195.282V202.626ZM465.628 196.546H467.388C467.468 196.546 467.58 196.514 467.628 196.322L467.852 195.266C467.884 195.106 467.948 194.946 467.612 194.946H461.772C461.596 194.946 461.548 194.994 461.548 195.17V196.322C461.548 196.498 461.596 196.546 461.772 196.546H463.596V202.626C463.596 202.834 463.644 202.85 463.82 202.85H465.404C465.612 202.85 465.628 202.802 465.628 202.626V196.546ZM474.785 202.562C474.833 202.546 474.913 202.498 474.913 202.402C474.913 202.322 474.849 202.21 474.737 201.922C474.497 201.314 474.497 200.802 474.497 200.338V197.25C474.497 196.962 474.465 196.242 474.145 195.698C473.665 194.882 472.737 194.674 471.745 194.674C471.089 194.674 469.953 194.802 469.297 195.106C468.881 195.298 468.881 195.362 468.961 195.586L469.297 196.594C469.329 196.706 469.361 196.754 469.457 196.754C469.569 196.754 469.681 196.674 470.225 196.498C470.625 196.37 471.105 196.274 471.521 196.274C471.969 196.274 472.241 196.418 472.385 196.594C472.593 196.85 472.577 197.234 472.577 197.458V197.954C471.665 197.922 470.161 198.05 469.377 198.61C469.041 198.85 468.401 199.458 468.401 200.69C468.401 202.162 469.329 203.122 470.769 203.122C471.825 203.122 472.401 202.642 472.817 202.226L472.881 202.162C472.929 202.418 473.009 202.642 473.153 202.93C473.281 203.17 473.377 203.138 473.489 203.09L474.785 202.562ZM472.577 201.026C472.225 201.41 471.793 201.634 471.377 201.634C470.801 201.634 470.321 201.202 470.321 200.546C470.321 199.602 471.201 199.266 472.481 199.266H472.577V201.026ZM480.399 202.626C480.399 202.834 480.447 202.85 480.623 202.85H482.207C482.415 202.85 482.431 202.77 482.511 202.626L484.031 199.81C484.239 199.426 484.479 199.09 485.039 197.858H485.103C485.039 198.93 485.023 199.282 485.023 199.586V202.626C485.023 202.834 485.071 202.85 485.247 202.85H486.831C487.039 202.85 487.055 202.802 487.055 202.626V194.882C487.055 194.642 486.927 194.658 486.799 194.69L485.519 194.946C485.247 194.994 485.167 194.962 484.975 195.282L483.423 197.986C483.119 198.514 482.847 198.994 482.415 199.938H482.351C482.383 199.538 482.431 198.658 482.431 198.21V194.882C482.431 194.642 482.303 194.658 482.175 194.69L480.703 194.994C480.383 195.058 480.399 195.138 480.399 195.282V202.626ZM497.312 196.546V202.626C497.312 202.802 497.36 202.85 497.536 202.85H499.12C499.328 202.85 499.344 202.802 499.344 202.626V195.17C499.344 194.962 499.296 194.946 499.12 194.946H493.248C493.072 194.946 493.024 194.962 493.024 195.17V202.626C493.024 202.802 493.04 202.85 493.248 202.85H494.832C495.04 202.85 495.056 202.802 495.056 202.626V196.546H497.312ZM508.082 198.898C508.082 195.89 506.37 194.674 504.61 194.674C502.85 194.674 501.138 195.89 501.138 198.898C501.138 201.906 502.85 203.122 504.61 203.122C506.37 203.122 508.082 201.906 508.082 198.898ZM504.61 201.522C503.362 201.522 503.298 200.114 503.298 198.898C503.298 197.682 503.394 196.274 504.61 196.274C505.826 196.274 505.922 197.682 505.922 198.898C505.922 200.13 505.842 201.522 504.61 201.522ZM514.091 196.546V202.626C514.091 202.802 514.139 202.85 514.315 202.85H515.899C516.107 202.85 516.123 202.802 516.123 202.626V195.17C516.123 194.994 516.075 194.946 515.899 194.946H510.987C510.779 194.946 510.763 194.994 510.763 195.17V195.89C510.763 196.834 510.731 199.282 510.555 200.13C510.395 200.962 510.027 201.234 509.483 201.362L509.211 201.426C509.115 201.442 508.939 201.458 509.003 201.698L509.323 202.882C509.355 202.994 509.387 203.122 509.659 203.122C510.043 203.122 511.499 203.026 512.155 201.394C512.651 200.13 512.699 197.666 512.699 196.754V196.546H514.091ZM523.071 194.802C522.767 194.77 522.671 194.946 522.623 195.138L521.775 198.994C521.727 199.25 521.583 199.682 521.247 201.762H521.215C521.103 201.17 520.767 199.586 520.607 198.994L519.567 195.122C519.471 194.738 519.407 194.786 519.087 194.818L517.759 194.946C517.583 194.962 517.407 194.978 517.407 195.138C517.407 195.218 517.439 195.282 517.487 195.41L519.935 202.642C520.015 202.882 520.111 202.85 520.223 202.85H520.895L520.735 203.378C520.559 203.954 520.335 204.562 519.471 204.562C519.023 204.562 518.607 204.386 518.351 204.258C518.239 204.194 518.175 204.162 518.111 204.162C518.063 204.162 517.999 204.178 517.951 204.274L517.439 205.378C517.375 205.522 517.359 205.634 517.823 205.842C518.447 206.13 519.039 206.242 519.583 206.242C520.271 206.242 521.279 206.066 521.887 204.85C522.159 204.306 522.399 203.442 523.007 201.186L524.575 195.426C524.623 195.25 524.639 195.202 524.639 195.154C524.639 194.994 524.463 194.978 524.303 194.962L523.071 194.802ZM529.528 198.498C529.224 198.658 528.856 198.722 528.536 198.722C527.768 198.722 527.704 198.194 527.704 197.906V194.882C527.704 194.642 527.576 194.658 527.448 194.69L526.216 194.946C525.64 195.058 525.672 195.074 525.672 195.282V197.906C525.672 198.434 525.672 199.106 526.088 199.618C526.424 200.034 527.048 200.322 527.832 200.322C528.488 200.322 529.128 200.146 529.528 200.002V202.626C529.528 202.802 529.576 202.85 529.752 202.85H531.336C531.544 202.85 531.56 202.802 531.56 202.626V194.882C531.56 194.642 531.432 194.658 531.304 194.69L529.832 194.994C529.512 195.058 529.528 195.138 529.528 195.282V198.498ZM539.551 202.562C539.599 202.546 539.679 202.498 539.679 202.402C539.679 202.322 539.615 202.21 539.503 201.922C539.263 201.314 539.263 200.802 539.263 200.338V197.25C539.263 196.962 539.231 196.242 538.911 195.698C538.431 194.882 537.503 194.674 536.511 194.674C535.855 194.674 534.719 194.802 534.063 195.106C533.647 195.298 533.647 195.362 533.727 195.586L534.063 196.594C534.095 196.706 534.127 196.754 534.223 196.754C534.335 196.754 534.447 196.674 534.991 196.498C535.391 196.37 535.871 196.274 536.287 196.274C536.735 196.274 537.007 196.418 537.151 196.594C537.359 196.85 537.343 197.234 537.343 197.458V197.954C536.431 197.922 534.927 198.05 534.143 198.61C533.807 198.85 533.167 199.458 533.167 200.69C533.167 202.162 534.095 203.122 535.535 203.122C536.591 203.122 537.167 202.642 537.583 202.226L537.647 202.162C537.695 202.418 537.775 202.642 537.919 202.93C538.047 203.17 538.143 203.138 538.255 203.09L539.551 202.562ZM537.343 201.026C536.991 201.41 536.559 201.634 536.143 201.634C535.567 201.634 535.087 201.202 535.087 200.546C535.087 199.602 535.967 199.266 537.247 199.266H537.343V201.026ZM541.43 202.626C541.43 202.834 541.478 202.85 541.654 202.85H543.238C543.446 202.85 543.462 202.77 543.542 202.626L545.062 199.81C545.27 199.426 545.51 199.09 546.07 197.858H546.134C546.07 198.866 546.054 199.298 546.054 199.586V202.626C546.054 202.834 546.102 202.85 546.278 202.85H547.862C548.07 202.85 548.086 202.802 548.086 202.626V194.882C548.086 194.642 547.958 194.658 547.83 194.69L546.582 194.946C546.326 194.994 546.214 194.93 546.006 195.282L544.454 197.986C544.15 198.514 543.878 198.994 543.446 199.938H543.382C543.414 199.538 543.462 198.658 543.462 198.21V194.882C543.462 194.642 543.334 194.658 543.206 194.69L541.734 194.994C541.414 195.058 541.43 195.138 541.43 195.282V202.626ZM545.958 191.314C545.926 191.314 545.878 191.298 545.846 191.298C545.654 191.298 545.67 191.426 545.59 191.666C545.462 192.114 545.238 192.354 544.758 192.354C544.278 192.354 544.054 192.114 543.926 191.666C543.878 191.49 543.862 191.394 543.814 191.346C543.75 191.266 543.638 191.298 543.558 191.314L542.63 191.442C542.566 191.458 542.486 191.522 542.486 191.698C542.486 191.954 542.582 192.322 542.774 192.642C543.142 193.234 543.862 193.666 544.758 193.666C545.654 193.666 546.374 193.234 546.742 192.642C546.934 192.322 547.03 191.954 547.03 191.698C547.03 191.522 546.95 191.458 546.886 191.442L545.958 191.314ZM553.44 196.546H555.2C555.28 196.546 555.392 196.514 555.44 196.322L555.664 195.266C555.696 195.106 555.76 194.946 555.424 194.946H549.584C549.408 194.946 549.36 194.994 549.36 195.17V196.322C549.36 196.498 549.408 196.546 549.584 196.546H551.408V202.626C551.408 202.834 551.456 202.85 551.632 202.85H553.216C553.424 202.85 553.44 202.802 553.44 202.626V196.546ZM562.646 199.442C562.854 199.442 563.014 199.426 563.014 198.93C563.014 198.514 562.998 197.922 562.838 197.25C562.55 196.002 561.83 194.674 559.814 194.674C557.574 194.674 556.31 196.578 556.31 199.106C556.31 200.21 556.534 203.122 559.958 203.122C560.854 203.122 561.91 202.882 562.502 202.482C562.63 202.402 562.758 202.29 562.758 202.13C562.758 202.082 562.742 202.05 562.71 201.986L562.31 201.042C562.278 200.962 562.23 200.914 562.134 200.914C562.038 200.914 561.894 200.978 561.702 201.074C561.398 201.218 560.838 201.442 560.102 201.442C558.774 201.442 558.342 200.61 558.342 199.442H562.646ZM558.342 197.954C558.438 196.866 558.79 196.162 559.702 196.162C560.342 196.162 560.662 196.53 560.79 197.138C560.822 197.266 560.87 197.522 560.854 197.954H558.342ZM572.796 196.546V202.626C572.796 202.802 572.844 202.85 573.02 202.85H574.604C574.812 202.85 574.828 202.802 574.828 202.626V195.17C574.828 194.962 574.78 194.946 574.604 194.946H568.732C568.556 194.946 568.508 194.962 568.508 195.17V202.626C568.508 202.802 568.524 202.85 568.732 202.85H570.316C570.524 202.85 570.54 202.802 570.54 202.626V196.546H572.796ZM579.198 202.706L579.262 202.738C579.422 202.818 579.854 203.122 580.862 203.122C583.742 203.122 583.806 200.034 583.806 198.834C583.806 195.33 582.238 194.674 580.99 194.674C580.35 194.674 579.662 194.882 578.99 195.506C578.942 195.362 578.91 195.218 578.846 195.074C578.67 194.594 578.51 194.642 578.254 194.722L577.038 195.122C576.958 195.154 576.862 195.202 576.862 195.298C576.862 195.346 576.878 195.394 576.926 195.554C577.038 195.89 577.166 196.418 577.166 197.794V206.002C577.166 206.306 577.294 206.258 577.422 206.226L578.894 205.922C579.214 205.858 579.198 205.778 579.198 205.634V202.706ZM579.198 196.882L579.262 196.818C579.518 196.562 579.918 196.274 580.43 196.274C581.742 196.274 581.774 197.81 581.774 198.786C581.774 200.034 581.71 200.498 581.518 200.85C581.214 201.426 580.718 201.522 580.35 201.522C580.126 201.522 579.662 201.506 579.198 201.218V196.882ZM585.664 202.626C585.664 202.834 585.712 202.85 585.888 202.85H587.472C587.68 202.85 587.696 202.77 587.776 202.626L589.296 199.81C589.504 199.426 589.744 199.09 590.304 197.858H590.368C590.304 198.93 590.288 199.282 590.288 199.586V202.626C590.288 202.834 590.336 202.85 590.512 202.85H592.096C592.304 202.85 592.32 202.802 592.32 202.626V194.882C592.32 194.642 592.192 194.658 592.064 194.69L590.784 194.946C590.512 194.994 590.432 194.962 590.24 195.282L588.688 197.986C588.384 198.514 588.112 198.994 587.68 199.938H587.616C587.648 199.538 587.696 198.658 587.696 198.21V194.882C587.696 194.642 587.568 194.658 587.44 194.69L585.968 194.994C585.648 195.058 585.664 195.138 585.664 195.282V202.626ZM594.715 196.61C594.731 196.642 594.779 196.722 594.875 196.722C594.955 196.722 595.035 196.658 595.291 196.514C595.467 196.418 595.915 196.162 596.539 196.162C597.195 196.162 597.579 196.53 597.579 197.058C597.579 197.97 596.763 198.034 596.219 198.034H595.851C595.675 198.034 595.627 198.082 595.627 198.258V199.298C595.627 199.474 595.675 199.522 595.851 199.522H596.203C596.699 199.522 597.707 199.522 597.707 200.482C597.707 200.898 597.515 201.634 596.443 201.634C595.851 201.634 595.467 201.506 594.939 201.218C594.731 201.106 594.603 201.026 594.491 201.026C594.395 201.026 594.347 201.074 594.315 201.154L593.963 201.986C593.947 202.034 593.915 202.098 593.915 202.162C593.915 202.402 594.203 202.53 594.459 202.658C595.019 202.946 595.883 203.122 596.587 203.122C598.411 203.122 599.739 202.178 599.739 200.514C599.739 199.49 599.147 198.898 598.443 198.706V198.658C599.179 198.386 599.563 197.714 599.563 196.882C599.563 196.146 599.211 195.65 598.859 195.33C598.203 194.738 597.371 194.674 596.811 194.674C595.611 194.674 594.875 195.01 594.539 195.202C594.427 195.266 594.139 195.442 594.139 195.65C594.139 195.698 594.155 195.746 594.187 195.794L594.715 196.61ZM604.228 202.85C605.076 202.85 606.148 202.818 606.9 202.21C607.652 201.618 607.748 200.786 607.748 200.21C607.748 199.538 607.588 198.866 606.964 198.338C606.244 197.73 605.348 197.698 604.452 197.698H603.556V194.882C603.556 194.642 603.428 194.658 603.3 194.69L602.084 194.946C601.508 195.074 601.524 195.058 601.524 195.282V202.626C601.524 202.834 601.572 202.85 601.748 202.85H604.228ZM603.556 199.298H604.532C604.868 199.298 605.716 199.314 605.716 200.274C605.716 201.202 604.948 201.25 604.356 201.25H603.556V199.298ZM608.852 202.626C608.852 202.834 608.9 202.85 609.076 202.85H610.66C610.868 202.85 610.884 202.802 610.884 202.626V194.882C610.884 194.642 610.756 194.658 610.628 194.69L609.156 194.994C608.836 195.058 608.852 195.138 608.852 195.282V202.626Z" fill="#85312C"/>
<defs>
<filter id="filter0_d" x="10.8242" y="0.700745" width="977.024" height="226.546" filterUnits="userSpaceOnUse" color-interpolation-filters="sRGB">
<feFlood flood-opacity="0" result="BackgroundImageFix"/>
<feColorMatrix in="SourceAlpha" type="matrix" values="0 0 0 0 0 0 0 0 0 0 0 0 0 0 0 0 0 0 127 0"/>
<feOffset/>
<feGaussianBlur stdDeviation="4"/>
<feColorMatrix type="matrix" values="0 0 0 0 0 0 0 0 0 0 0 0 0 0 0 0 0 0 0.45 0"/>
<feBlend mode="normal" in2="BackgroundImageFix" result="effect1_dropShadow"/>
<feBlend mode="normal" in="SourceGraphic" in2="effect1_dropShadow" result="shape"/>
</filter>
<filter id="filter1_d" x="0.276611" y="102.058" width="772.049" height="161.347" filterUnits="userSpaceOnUse" color-interpolation-filters="sRGB">
<feFlood flood-opacity="0" result="BackgroundImageFix"/>
<feColorMatrix in="SourceAlpha" type="matrix" values="0 0 0 0 0 0 0 0 0 0 0 0 0 0 0 0 0 0 127 0"/>
<feOffset/>
<feGaussianBlur stdDeviation="4"/>
<feColorMatrix type="matrix" values="0 0 0 0 0 0 0 0 0 0 0 0 0 0 0 0 0 0 0.45 0"/>
<feBlend mode="normal" in2="BackgroundImageFix" result="effect1_dropShadow"/>
<feBlend mode="normal" in="SourceGraphic" in2="effect1_dropShadow" result="shape"/>
</filter>
<filter id="filter2_d" x="139.661" y="76.746" width="745.587" height="87.1034" filterUnits="userSpaceOnUse" color-interpolation-filters="sRGB">
<feFlood flood-opacity="0" result="BackgroundImageFix"/>
<feColorMatrix in="SourceAlpha" type="matrix" values="0 0 0 0 0 0 0 0 0 0 0 0 0 0 0 0 0 0 127 0"/>
<feOffset/>
<feGaussianBlur stdDeviation="6.5"/>
<feColorMatrix type="matrix" values="0 0 0 0 0 0 0 0 0 0 0 0 0 0 0 0 0 0 0.6 0"/>
<feBlend mode="normal" in2="BackgroundImageFix" result="effect1_dropShadow"/>
<feBlend mode="normal" in="SourceGraphic" in2="effect1_dropShadow" result="shape"/>
</filter>
</defs>
</svg>
