<svg width="352" height="182" viewBox="0 0 352 182" fill="none" xmlns="http://www.w3.org/2000/svg">
<g filter="url(#filter0_d)">
<path d="M77.6127 109.783L297.031 89.5439L296.805 173.14L77.5248 173.461L77.6127 109.783Z" fill="white"/>
</g>
<g filter="url(#filter1_d)">
<path d="M43.1827 41.4637L336 20.3055L312.6 84.7183L15.9998 106.181L43.1827 41.4637Z" fill="#DD1010"/>
<path d="M43.0025 38.9702L41.472 39.0808L40.8777 40.4956L13.6949 105.213L12.1175 108.969L16.1803 108.675L312.78 87.2118L314.396 87.0948L314.949 85.5719L338.35 21.1591L339.667 17.534L335.82 17.812L43.0025 38.9702Z" stroke="#F7D431" stroke-width="5"/>
</g>
<g filter="url(#filter2_d)">
<path d="M68.6408 53.1412C68.3058 53.167 68.319 53.3134 68.2902 53.463L66.6334 67.1748C66.6237 67.3019 66.6103 67.3872 66.6178 67.4708C66.6366 67.68 66.7451 67.7138 66.9545 67.6976L70.3883 67.433C72.0842 67.3023 73.9955 66.9865 75.2003 65.3773C75.7645 64.6177 76.1331 63.5574 76.0336 62.4488C75.9039 61.0056 75.0487 59.9343 73.8177 59.6079C74.3014 59.3601 74.8976 58.9561 75.3226 58.5232C75.9971 57.8183 76.4189 56.8802 76.3137 55.7089C76.0375 52.6343 73.0168 52.8039 72.1793 52.8685L68.6408 53.1412ZM70.3278 59.0134L70.7968 55.0811L71.8019 55.0036C72.3881 54.9584 73.4978 54.8729 73.6218 56.2533C73.6744 56.839 73.5595 57.4375 73.2621 57.8817C72.7244 58.7023 71.8144 58.8988 71.1025 58.9537L70.3278 59.0134ZM69.5513 65.3914L70.076 61.1389L71.2485 61.0485C71.8976 60.9985 73.0548 60.9725 73.1957 62.5412C73.2783 63.4615 72.9731 64.0536 72.7272 64.3674C72.1229 65.1511 71.2054 65.2639 70.4098 65.3253L69.5513 65.3914ZM80.2139 52.2492C79.8789 52.2751 79.8921 52.4215 79.8633 52.5711L78.2275 66.2813C78.2178 66.4084 78.2044 66.4936 78.2119 66.5773C78.2307 66.7865 78.3391 66.8202 78.5485 66.8041L82.2754 66.5169C83.762 66.4023 85.6277 66.0479 86.7753 64.5063C87.5092 63.5231 87.7811 62.091 87.674 60.8988C87.5519 59.5393 86.8962 58.8106 86.4645 58.4648C85.4187 57.6187 84.1378 57.6753 83.2793 57.7415L81.9602 57.8431L82.5659 52.6156C82.5756 52.4884 82.589 52.4032 82.5815 52.3195C82.5627 52.1103 82.4543 52.0766 82.2449 52.0927L80.2139 52.2492ZM81.1722 64.3273L81.6815 60.1392L82.6237 60.0665C83.21 60.0214 84.7328 59.8408 84.8869 61.5559C84.9395 62.1416 84.8074 62.7836 84.449 63.2534C83.8276 64.0806 82.7844 64.2031 82.0726 64.258L81.1722 64.3273ZM90.9132 51.4247C90.5782 51.4505 90.5913 51.5969 90.5626 51.7465L88.9058 65.4583C88.8961 65.5854 88.8827 65.6707 88.8902 65.7544C88.909 65.9635 89.0175 65.9973 89.2268 65.9811L91.2578 65.8246C91.5928 65.7988 91.5797 65.6524 91.6084 65.5028L93.2652 51.791C93.2749 51.6639 93.2883 51.5786 93.2808 51.4949C93.262 51.2858 93.1535 51.252 92.9442 51.2682L90.9132 51.4247ZM97.1242 50.946C96.7892 50.9718 96.8024 51.1182 96.7736 51.2679L95.1168 64.9796C95.1072 65.1067 95.0937 65.192 95.1013 65.2757C95.12 65.4848 95.2285 65.5186 95.4379 65.5025L99.1648 65.2152C100.651 65.1007 102.517 64.7463 103.665 63.2047C104.399 62.2214 104.67 60.7894 104.565 59.6181C104.436 58.1749 103.623 56.1736 100.169 56.4399L98.8496 56.5415L99.2665 53.2029L103.643 52.8656C103.768 52.8559 103.959 52.8623 104.058 52.5598L104.659 50.8076C104.694 50.7207 104.73 50.6547 104.721 50.5501C104.702 50.341 104.494 50.378 104.348 50.3893L97.1242 50.946ZM98.0616 63.0257L98.5709 58.8375L99.8691 58.7375C101.209 58.6342 101.697 59.3758 101.778 60.2752C101.829 60.8399 101.697 61.4819 101.338 61.9518C100.717 62.779 99.6738 62.9015 98.9619 62.9563L98.0616 63.0257ZM108.759 50.0494C108.424 50.0752 108.437 50.2216 108.408 50.3712L106.751 64.083C106.742 64.2101 106.728 64.2954 106.736 64.379C106.754 64.5882 106.863 64.622 107.072 64.6058L114.024 64.0701C114.359 64.0443 114.346 63.8979 114.374 63.7482L114.58 62.0475C114.601 61.8142 114.287 61.8384 114.203 61.8449L109.702 62.1918L110.203 57.92L113.805 57.6424C114.077 57.6215 114.117 57.5973 114.155 57.3206L114.332 55.7695C114.342 55.6424 114.382 55.3866 114.026 55.414L110.488 55.6867L110.924 52.0938L115.028 51.7776C115.174 51.7663 115.323 51.7759 115.443 51.4718L116.064 49.9287C116.096 49.8209 116.132 49.7549 116.125 49.6712C116.106 49.4621 115.898 49.4991 115.752 49.5104L108.759 50.0494ZM119.984 49.1842C119.649 49.2101 119.662 49.3565 119.634 49.5061L117.977 63.2179C117.967 63.345 117.954 63.4303 117.961 63.5139C117.98 63.7231 118.088 63.7568 118.298 63.7407L120.329 63.5842C120.664 63.5584 120.651 63.412 120.679 63.2623L121.343 57.7355L122.431 57.6515C126.012 57.3756 128.019 55.0728 127.742 51.9982C127.47 48.9654 125.261 48.7776 123.753 48.8938L119.984 49.1842ZM121.621 55.4394L122.113 51.2947L123.181 51.2124C123.726 51.1704 124.927 51.1621 125.056 52.6053C125.12 53.3165 125.097 55.1716 122.249 55.391L121.621 55.4394ZM137.999 47.7959C137.622 47.8249 137.578 48.0389 137.431 48.2819L133.987 54.0652C133.604 54.7266 132.568 56.8072 132.301 57.3543L132.217 57.3607C132.542 54.8716 132.393 56.5047 132.633 54.4855L133.337 48.7028C133.365 48.5531 133.358 48.4695 133.352 48.4067C133.334 48.1976 133.225 48.1638 133.016 48.1799L130.985 48.3365C130.65 48.3623 130.663 48.5087 130.634 48.6583L128.977 62.3701C128.968 62.4972 128.954 62.5825 128.962 62.6661C128.981 62.8753 129.089 62.9091 129.298 62.8929L131.225 62.7445C131.518 62.7219 131.594 62.6318 131.758 62.3453L135.469 56.0149C136.017 55.0671 136.474 54.2947 136.923 53.1861L137.007 53.1796C136.894 53.7991 136.734 54.8433 136.66 55.4177L135.887 61.8376C135.877 61.9647 135.864 62.05 135.871 62.1336C135.89 62.3428 135.999 62.3766 136.208 62.3604L138.239 62.2039C138.574 62.1781 138.561 62.0317 138.589 61.882L140.246 48.1703C140.256 48.0432 140.269 47.9579 140.262 47.8742C140.243 47.6651 140.135 47.6313 139.925 47.6474L137.999 47.7959ZM147.95 49.4509L150.546 49.2508C150.693 49.2396 150.841 49.2492 150.962 48.9451L151.647 47.1863C151.662 47.122 151.699 47.056 151.71 46.9498C151.708 46.9289 151.706 46.908 151.705 46.8871C151.669 46.7213 151.461 46.7584 151.335 46.7681L142.772 47.4281C142.395 47.4571 142.448 47.5794 142.421 47.7499L142.206 49.346C142.177 49.4957 142.164 49.581 142.172 49.6646C142.194 49.9156 142.402 49.8786 142.548 49.8673L145.228 49.6607L143.8 61.2277C143.772 61.3773 143.779 61.461 143.785 61.5238C143.804 61.7329 143.912 61.7667 144.121 61.7505L146.152 61.594C146.487 61.5682 146.474 61.4218 146.503 61.2722L147.95 49.4509ZM153.804 46.5778C153.469 46.6037 153.482 46.7501 153.453 46.8997L151.796 60.6115C151.787 60.7386 151.773 60.8239 151.781 60.9075C151.8 61.1167 151.908 61.1504 152.117 61.1343L159.069 60.5986C159.404 60.5728 159.391 60.4264 159.419 60.2767L159.625 58.576C159.646 58.3427 159.332 58.3669 159.248 58.3734L154.747 58.7203L155.249 54.4485L158.85 54.1709C159.122 54.1499 159.162 54.1258 159.201 53.849L159.377 52.298C159.387 52.1709 159.427 51.915 159.071 51.9425L155.533 52.2152L155.969 48.6223L160.073 48.306C160.22 48.2948 160.368 48.3044 160.488 48.0003L161.109 46.4571C161.141 46.3493 161.177 46.2834 161.17 46.1997C161.151 45.9905 160.944 46.0276 160.797 46.0389L153.804 46.5778ZM116.921 87.916L116.57 90.8074C116.573 90.8492 116.575 90.8701 116.579 90.9119C116.585 90.9747 116.548 91.0407 116.554 91.1034C116.571 91.2917 116.681 91.3463 116.912 91.3286L118.754 91.1866C119.089 91.1608 119.091 90.95 119.105 90.8647L119.678 85.9766C119.687 85.8495 119.701 85.7642 119.693 85.6806C119.671 85.4296 119.503 85.4425 119.378 85.4522L118.477 85.5216L119.892 73.8082C119.902 73.6811 119.915 73.5958 119.907 73.5121C119.889 73.303 119.78 73.2692 119.571 73.2853L112.808 73.8065C112.473 73.8324 112.486 73.9788 112.457 74.1284L112.211 76.0849C111.804 79.2965 111.414 81.0535 111.257 81.6553C110.842 83.3721 110.33 84.7173 109.432 86.2187L108.825 86.2655C108.49 86.2913 108.478 86.3975 108.453 86.5889L107.859 91.4786C107.863 91.5205 107.865 91.5414 107.869 91.5832C107.875 91.646 107.838 91.7119 107.844 91.7747C107.861 91.9629 107.971 92.0176 108.201 91.9999L110.044 91.8579C110.379 91.832 110.381 91.6213 110.395 91.536L110.766 88.3904L116.921 87.916ZM114.791 75.9283L116.947 75.7621L115.734 85.733L112.112 86.0121C112.734 84.9533 113.097 84.0619 113.483 82.7264C113.918 81.2396 114.291 79.526 114.549 77.695L114.791 75.9283ZM127.391 74.9572L129.757 74.7749L128.342 86.4883C128.333 86.6154 128.319 86.7007 128.327 86.7843C128.345 86.9935 128.454 87.0272 128.663 87.0111L130.694 86.8546C131.029 86.8288 131.016 86.6824 131.045 86.5327L132.702 72.8209C132.711 72.6938 132.725 72.6086 132.717 72.5249C132.698 72.3157 132.59 72.282 132.381 72.2981L125.492 72.829C125.157 72.8548 125.17 73.0012 125.141 73.1509L124.694 76.6182C124.546 77.788 123.932 81.9842 123.409 83.4356C122.954 84.7132 122.282 85.2073 121.37 85.3829L121.018 85.4521C120.749 85.515 120.732 85.7901 120.741 85.8947L121.015 87.769C121.057 87.9975 121.243 87.962 121.367 87.9314L121.698 87.8638C123.354 87.5255 124.395 86.6661 125.045 85.6894C125.899 84.402 126.389 82.3425 127.088 77.213L127.391 74.9572ZM140.537 71.6695C139.343 71.7615 137.952 71.9951 136.902 72.9816C136.008 73.8298 135.517 75.1733 135.645 76.5956C135.786 78.1643 136.682 78.9798 137.682 79.3239L137.669 79.4092C136.399 80.0547 136.038 81.1987 135.852 81.7184L135.417 82.9735C135.098 83.8826 135.006 84.2688 134.328 84.4684L133.774 84.6375C133.466 84.7245 133.488 84.9755 133.519 85.0784L133.934 86.647C133.968 86.7918 133.962 86.9608 134.402 86.9269C134.82 86.8946 135.355 86.7481 135.742 86.5919C137.147 86.0414 137.434 85.0084 137.776 83.8868L138.374 81.8611C138.663 80.849 139.128 80.3919 140.154 80.3129L140.907 80.2548L140.267 85.5692C140.258 85.6963 140.244 85.7816 140.252 85.8653C140.27 86.0744 140.379 86.1082 140.588 86.0921L142.619 85.9356C142.954 85.9097 142.941 85.7633 142.97 85.6137L144.627 71.9019C144.636 71.7748 144.65 71.6895 144.642 71.6059C144.623 71.3967 144.515 71.363 144.306 71.3791L140.537 71.6695ZM141.148 78.0038L140.185 78.078C139.096 78.1619 138.459 77.4107 138.373 76.4486C138.311 75.7584 138.538 75.0037 139.003 74.5467C139.527 74.043 140.174 73.972 140.74 73.9284L141.661 73.8574L141.148 78.0038ZM163.335 70.418C163.343 70.2699 163.357 70.1847 163.351 70.1219C163.345 70.0592 163.332 69.9128 163.06 69.9337L161.155 70.0806C160.903 70.0999 160.827 70.1901 160.776 70.3204L158.285 75.9249C157.968 76.6232 157.711 77.2749 157.408 78.604L157.366 78.6072C157.327 77.9363 157.237 76.7006 157.107 75.9525L156.18 70.8009C156.105 70.4276 155.962 70.4808 155.836 70.4904L153.784 70.6486C153.617 70.6615 153.488 70.6293 153.434 70.9704L151.09 84.7773C151.063 84.9478 151.067 84.9897 151.072 85.0524C151.08 85.1361 151.093 85.2825 151.365 85.2615L153.082 85.1292C153.187 85.1211 153.377 85.1275 153.433 84.8073L154.507 77.2901C154.599 76.6723 154.771 74.5951 154.808 74.0657L154.85 74.0625C155.061 75.71 155.031 75.6071 155.318 77.1644L156.117 81.3572C156.192 81.7304 156.295 81.7014 156.484 81.6869L157.468 81.6111C157.74 81.5901 157.77 81.4614 157.824 81.352L159.929 76.6196C160.297 75.7909 160.727 74.7048 161.048 73.5849L161.093 73.6235C160.948 74.3508 160.704 75.8648 160.639 76.5438L159.988 84.0915C159.963 84.283 159.967 84.3248 159.971 84.3666C159.98 84.4712 160.013 84.5951 160.264 84.5757L161.981 84.4434C162.044 84.4386 162.318 84.4385 162.331 84.1215L163.335 70.418ZM170.489 69.3612C170.385 69.3692 170.215 69.3612 170.129 69.5785L164.466 83.7465C164.431 83.8333 164.374 83.9009 164.385 84.0264C164.395 84.131 164.469 84.2517 164.678 84.2355L166.835 84.0693C167.128 84.0467 167.176 83.8746 167.227 83.7442L168.524 80.1061L172.083 79.8318L172.551 83.3971C172.555 83.4389 172.593 83.6256 172.844 83.6062L175.042 83.4368C175.147 83.4287 175.419 83.4077 175.372 83.1165L172.908 69.5328C172.857 69.1997 172.709 69.1901 172.499 69.2063L170.489 69.3612ZM171.851 77.9542L169.046 78.1704L170.579 73.6506C170.713 73.2612 170.871 72.912 171.017 72.1847L171.059 72.1815C171.108 72.7253 171.24 73.7261 171.298 74.1428L171.851 77.9542ZM179.416 68.6732C179.081 68.699 179.094 68.8455 179.065 68.9951L177.408 82.7069C177.399 82.834 177.385 82.9192 177.393 83.0029C177.412 83.2121 177.52 83.2458 177.729 83.2297L179.76 83.0732C180.095 83.0473 180.082 82.9009 180.111 82.7513L181.537 70.9317L185.578 70.6203C185.809 70.6025 185.902 70.469 185.954 70.3386L186.574 68.5638C186.607 68.456 186.645 68.411 186.637 68.3273C186.618 68.1181 186.388 68.1359 186.346 68.1391L179.416 68.6732ZM188.699 67.9578C188.364 67.9836 188.377 68.13 188.348 68.2797L186.691 81.9914C186.682 82.1185 186.668 82.2038 186.676 82.2875C186.695 82.4966 186.803 82.5304 187.012 82.5143L189.043 82.3577C189.378 82.3319 189.365 82.1855 189.394 82.0359L190.111 75.9362L193.964 75.6393L193.266 81.4848C193.256 81.6119 193.243 81.6971 193.25 81.7808C193.269 81.99 193.378 82.0237 193.587 82.0076L195.618 81.8511C195.953 81.8252 195.94 81.6788 195.969 81.5292L197.625 67.8174C197.635 67.6903 197.648 67.605 197.641 67.5214C197.622 67.3122 197.514 67.2785 197.304 67.2946L195.273 67.4511C194.938 67.4769 194.951 67.6233 194.923 67.773L194.242 73.3433L190.411 73.6386L191.051 68.3241C191.061 68.197 191.074 68.1117 191.066 68.0281C191.048 67.8189 190.939 67.7851 190.73 67.8013L188.699 67.9578ZM208.513 66.4308C208.136 66.4598 208.092 66.6738 207.945 66.9168L204.501 72.7001C204.118 73.3615 203.082 75.4421 202.815 75.9892L202.731 75.9956C203.056 73.5065 202.907 75.1396 203.147 73.1203L203.851 67.3377C203.88 67.188 203.872 67.1044 203.866 67.0416C203.848 66.8324 203.739 66.7987 203.53 66.8148L201.499 66.9713C201.164 66.9972 201.177 67.1436 201.148 67.2932L199.491 81.005C199.482 81.1321 199.468 81.2174 199.476 81.301C199.495 81.5102 199.603 81.5439 199.812 81.5278L201.739 81.3794C202.032 81.3568 202.108 81.2666 202.272 80.9802L205.983 74.6498C206.531 73.702 206.988 72.9296 207.437 71.821L207.521 71.8145C207.408 72.434 207.249 73.4782 207.174 74.0526L206.401 80.4725C206.391 80.5996 206.378 80.6849 206.385 80.7685C206.404 80.9777 206.513 81.0114 206.722 80.9953L208.753 80.8388C209.088 80.813 209.075 80.6666 209.103 80.5169L210.76 66.8052C210.77 66.678 210.783 66.5928 210.776 66.5091C210.757 66.2999 210.649 66.2662 210.439 66.2823L208.513 66.4308ZM218.464 68.0858L221.06 67.8857C221.207 67.8744 221.355 67.8841 221.476 67.5799L222.161 65.8212C222.176 65.7569 222.213 65.6909 222.224 65.5847C222.222 65.5638 222.22 65.5429 222.219 65.5219C222.183 65.3562 221.975 65.3933 221.849 65.403L213.286 66.0629C212.909 66.092 212.962 66.2143 212.935 66.3848L212.72 67.9809C212.691 68.1306 212.678 68.2158 212.686 68.2995C212.708 68.5505 212.916 68.5134 213.062 68.5021L215.742 68.2956L214.314 79.8626C214.286 80.0122 214.293 80.0959 214.299 80.1586C214.318 80.3678 214.426 80.4016 214.635 80.3854L216.666 80.2289C217.001 80.2031 216.988 80.0567 217.017 79.907L218.464 68.0858ZM225.758 65.1017C225.653 65.1098 225.484 65.1018 225.398 65.319L219.734 79.487C219.7 79.5739 219.643 79.6415 219.654 79.767C219.663 79.8716 219.737 79.9922 219.947 79.9761L222.103 79.8099C222.397 79.7873 222.444 79.6151 222.496 79.4848L223.793 75.8467L227.352 75.5724L227.82 79.1377C227.824 79.1795 227.861 79.3661 228.113 79.3468L230.311 79.1773C230.416 79.1693 230.688 79.1483 230.641 78.8571L228.177 65.2734C228.126 64.9403 227.977 64.9307 227.768 64.9468L225.758 65.1017ZM227.12 73.6948L224.314 73.911L225.848 69.3912C225.982 69.0018 226.14 68.6526 226.286 67.9253L226.328 67.9221C226.376 68.4659 226.508 69.4666 226.567 69.8833L227.12 73.6948Z" fill="#F7D431"/>
<path d="M169.916 45.3361C169.581 45.3619 169.594 45.5083 169.566 45.658L167.909 59.3697C167.899 59.4968 167.886 59.5821 167.893 59.6658C167.912 59.8749 168.02 59.9087 168.23 59.8926L170.261 59.736C170.596 59.7102 170.583 59.5638 170.611 59.4142L171.329 53.3145L175.181 53.0176L174.483 58.863C174.474 58.9902 174.46 59.0754 174.468 59.1591C174.487 59.3683 174.595 59.402 174.804 59.3859L176.835 59.2294C177.17 59.2035 177.157 59.0571 177.186 58.9075L178.843 45.1957C178.852 45.0686 178.866 44.9833 178.858 44.8997C178.839 44.6905 178.731 44.6568 178.522 44.6729L176.491 44.8294C176.156 44.8552 176.169 45.0016 176.14 45.1513L175.46 50.7216L171.628 51.0169L172.268 45.7024C172.278 45.5753 172.291 45.49 172.284 45.4064C172.265 45.1972 172.157 45.1634 171.947 45.1796L169.916 45.3361ZM190.94 47.8859C190.838 46.7564 190.347 43.4035 186.788 43.6778C185.427 43.7827 183.19 44.4606 181.734 47.5002C180.759 49.555 180.44 52.3385 180.658 54.7648C180.987 58.425 183.093 59.1052 184.789 58.9744C186.757 58.8228 188.738 57.6381 189.907 55.1682C190.844 53.1584 191.139 50.1029 190.94 47.8859ZM185.052 56.7428C183.817 56.838 183.586 55.6764 183.509 54.8188C183.368 53.2502 183.42 50.782 184.169 48.5551C184.482 47.5832 185.185 46.0127 186.587 45.9046C187.865 45.8062 188.025 47.1207 188.087 47.8109C188.235 49.4632 188.234 51.801 187.47 54.0923C187.138 55.0867 186.476 56.6331 185.052 56.7428ZM194.82 43.4168C194.485 43.4426 194.498 43.589 194.47 43.7387L192.813 57.4504C192.803 57.5775 192.79 57.6628 192.797 57.7465C192.816 57.9556 192.925 57.9894 193.134 57.9733L196.568 57.7086C198.264 57.5779 200.175 57.2621 201.38 55.6529C201.944 54.8934 202.313 53.833 202.213 52.7245C202.083 51.2813 201.228 50.2099 199.997 49.8836C200.481 49.6357 201.077 49.2317 201.502 48.7988C202.177 48.0939 202.598 47.1558 202.493 45.9846C202.217 42.9099 199.196 43.0795 198.359 43.1441L194.82 43.4168ZM196.507 49.2891L196.976 45.3567L197.981 45.2792C198.568 45.2341 199.677 45.1485 199.801 46.529C199.854 47.1146 199.739 47.7132 199.442 48.1573C198.904 48.978 197.994 49.1745 197.282 49.2293L196.507 49.2891ZM195.731 55.6671L196.255 51.4145L197.428 51.3242C198.077 51.2741 199.234 51.2481 199.375 52.8168C199.458 53.7371 199.153 54.3293 198.907 54.6431C198.302 55.4268 197.385 55.5396 196.589 55.6009L195.731 55.6671ZM206.393 42.5249C206.058 42.5507 206.072 42.6971 206.043 42.8468L204.407 56.5569C204.397 56.684 204.384 56.7693 204.391 56.8529C204.41 57.0621 204.519 57.0959 204.728 57.0797L208.455 56.7925C209.942 56.6779 211.807 56.3236 212.955 54.7819C213.689 53.7987 213.961 52.3667 213.854 51.1745C213.731 49.815 213.076 49.0863 212.644 48.7404C211.598 47.8944 210.317 47.951 209.459 48.0171L208.14 48.1188L208.745 42.8912C208.755 42.7641 208.769 42.6788 208.761 42.5951C208.742 42.386 208.634 42.3522 208.424 42.3684L206.393 42.5249ZM207.352 54.603L207.861 50.4148L208.803 50.3422C209.39 50.297 210.912 50.1165 211.066 51.8316C211.119 52.4172 210.987 53.0592 210.629 53.5291C210.007 54.3562 208.964 54.4787 208.252 54.5336L207.352 54.603ZM217.093 41.7003C216.758 41.7261 216.771 41.8725 216.742 42.0222L215.085 55.7339C215.076 55.8611 215.062 55.9463 215.07 56.03C215.089 56.2392 215.197 56.2729 215.406 56.2568L217.437 56.1003C217.772 56.0744 217.759 55.928 217.788 55.7784L219.445 42.0666C219.454 41.9395 219.468 41.8542 219.46 41.7706C219.442 41.5614 219.333 41.5277 219.124 41.5438L217.093 41.7003ZM230.318 40.6811C229.941 40.7101 229.897 40.9241 229.75 41.1671L226.306 46.9504C225.923 47.6118 224.887 49.6924 224.62 50.2395L224.536 50.2459C224.861 47.7568 224.712 49.3899 224.952 47.3706L225.656 41.588C225.685 41.4383 225.677 41.3547 225.671 41.2919C225.653 41.0828 225.544 41.049 225.335 41.0651L223.304 41.2216C222.969 41.2475 222.982 41.3939 222.953 41.5435L221.296 55.2553C221.287 55.3824 221.273 55.4677 221.281 55.5513C221.3 55.7605 221.408 55.7942 221.617 55.7781L223.544 55.6297C223.837 55.6071 223.913 55.5169 224.077 55.2305L227.788 48.9001C228.336 47.9523 228.793 47.1799 229.242 46.0713L229.326 46.0648C229.213 46.6843 229.053 47.7285 228.979 48.3029L228.206 54.7228C228.196 54.8499 228.183 54.9352 228.19 55.0188C228.209 55.228 228.318 55.2617 228.527 55.2456L230.558 55.0891C230.893 55.0633 230.88 54.9169 230.908 54.7672L232.565 41.0555C232.575 40.9283 232.588 40.8431 232.581 40.7594C232.562 40.5503 232.454 40.5165 232.244 40.5326L230.318 40.6811ZM225.229 37.3034C225.105 37.334 224.903 37.4338 224.918 37.6012L224.931 37.7476C224.99 38.396 225.219 38.8416 225.432 39.099C225.934 39.7553 226.674 40.0142 227.658 39.9383C229.082 39.8286 230.027 39.0819 230.422 38.3143C230.584 38.007 230.796 37.3167 230.775 37.0866C230.762 36.9402 230.612 36.9097 230.549 36.9145L229.34 36.8391C229.278 36.844 229.234 36.8263 229.171 36.8311C228.941 36.8489 228.914 37.0194 228.847 37.2141C228.648 37.8191 228.303 38.2038 227.696 38.2506C226.963 38.307 226.831 37.7697 226.786 37.2677L226.782 37.2259C226.763 37.0167 226.658 37.0248 226.327 37.0924L225.229 37.3034ZM241.297 39.835C240.962 39.8608 240.975 40.0072 240.946 40.1568L239.289 53.8686C239.28 53.9957 239.266 54.081 239.274 54.1646C239.293 54.3738 239.401 54.4076 239.61 54.3914L243.044 54.1268C244.74 53.9961 246.651 53.6803 247.856 52.0711C248.421 51.3116 248.789 50.2512 248.69 49.1426C248.56 47.6994 247.705 46.6281 246.474 46.3017C246.957 46.0539 247.554 45.6499 247.979 45.217C248.653 44.5121 249.075 43.574 248.97 42.4027C248.694 39.3281 245.673 39.4977 244.835 39.5623L241.297 39.835ZM242.984 45.7072L243.453 41.7749L244.458 41.6974C245.044 41.6522 246.154 41.5667 246.278 42.9471C246.33 43.5328 246.215 44.1313 245.918 44.5755C245.38 45.3962 244.47 45.5927 243.758 45.6475L242.984 45.7072ZM242.207 52.0852L242.732 47.8327L243.904 47.7423C244.554 47.6923 245.711 47.6663 245.852 49.235C245.934 50.1553 245.629 50.7474 245.383 51.0612C244.779 51.8449 243.861 51.9578 243.066 52.0191L242.207 52.0852ZM252.975 38.935C252.807 38.9479 252.558 38.9882 252.51 39.392L250.853 53.1038C250.805 53.5076 251.058 53.5092 251.225 53.4963L253.131 53.3494C253.57 53.3156 253.569 53.063 253.596 52.8924L254.322 46.8973L255.537 46.8037C256.835 46.7037 256.925 47.476 256.982 48.1034L257.228 50.6117C257.339 51.8458 257.587 52.7322 258.712 53.0457C259.037 53.147 259.633 53.2064 260.051 53.1741C260.303 53.1548 260.51 53.1177 260.609 52.8152L261.178 51.1707C261.297 50.8457 261.164 50.7717 261.015 50.7621L260.418 50.6818C259.778 50.6047 259.729 50.0609 259.664 49.3289L259.485 47.5735C259.381 46.6549 259.118 45.8327 257.95 45.5016L257.944 45.4388C259.166 44.9655 259.626 44.214 259.915 43.2019L260.347 41.6734C260.605 40.79 260.784 40.4392 261.439 40.2202L261.869 40.0818C262.075 40.0238 262.164 39.8484 262.123 39.62L261.843 38.1462C261.801 37.9178 261.569 37.9146 261.423 37.9259C260.878 37.9679 260.124 38.2576 259.625 38.5699C258.587 39.2185 258.31 40.1244 258.069 40.9643L257.538 42.7954C257.138 44.2162 256.506 44.4545 255.627 44.5222L254.601 44.6013L255.253 39.1806C255.262 39.0535 255.341 38.7526 254.88 38.7881L252.975 38.935ZM268.177 46.0613C268.041 45.0187 267.78 43.5225 267.699 43.0864L266.703 38.1086C266.628 37.7354 266.683 37.6468 266.081 37.7564L264.191 38.0706C263.942 38.1108 263.67 38.1318 263.69 38.3619C263.696 38.4246 263.681 38.489 263.743 38.7158L266.041 48.1003C266.078 48.2869 266.183 48.2788 266.246 48.274L267.586 48.1707L267.334 48.8852C267.183 49.318 266.71 50.3864 265.6 50.472C265.244 50.4994 264.898 50.3997 264.633 50.2727C264.39 50.144 264.187 49.9912 264.04 50.0025C263.956 50.0089 263.857 50.0798 263.823 50.1667L263.021 51.808C262.684 52.5079 264.945 52.797 265.615 52.7454C266.703 52.6615 267.448 52.2671 267.936 51.8294C268.639 51.2066 269.001 50.3151 269.293 49.5766L273.797 37.9831C273.814 37.9397 273.829 37.8753 273.847 37.8319C273.845 37.811 273.866 37.8093 273.864 37.7884C273.9 37.7225 273.938 37.6774 273.933 37.6147C273.912 37.3846 273.661 37.4039 273.512 37.3943L271.691 37.303C271.331 37.2886 271.312 37.5428 271.209 37.8035L269.332 42.9606C268.707 44.6936 268.358 45.7314 268.26 46.0548L268.177 46.0613ZM280.63 48.6818C280.581 48.6014 280.554 48.5402 280.471 48.5467C280.324 48.558 280.147 48.698 279.968 48.8171C279.214 49.3386 278.593 49.4706 278.216 49.4997C277.546 49.5513 277.129 49.3728 276.857 49.1621C276.312 48.7198 276.168 47.8252 276.114 47.2187C275.956 45.4617 276.033 43.2655 276.827 41.3089C277.6 39.3538 278.758 38.8645 279.532 38.8048C280.098 38.7612 280.471 38.922 281.033 39.3209C281.26 39.493 281.44 39.6265 281.671 39.6087C281.796 39.5991 281.85 39.4896 281.869 39.4671L282.739 37.8837C282.756 37.8403 282.796 37.8161 282.788 37.7325C282.769 37.5233 282.52 37.3319 282.364 37.2386C281.4 36.5969 280.272 36.4732 279.476 36.5346C278.199 36.633 275.863 37.15 274.379 40.1075C273.324 42.2107 273.039 44.6756 273.257 47.1019C273.36 48.2522 273.699 50.1427 275.096 51.1511C275.751 51.6272 276.66 51.8941 277.728 51.8118C278.775 51.7312 279.936 51.2836 280.719 50.8442C280.98 50.6977 281.38 50.4563 281.359 50.2262C281.354 50.1635 281.325 50.0814 281.301 50.0412L280.63 48.6818Z" fill="white"/>
</g>
<path d="M95.6142 130.72C95.6142 130.846 95.6422 131 95.8942 131H97.2382C97.4902 131 97.5182 130.846 97.5182 130.72V123.09H100.234C100.36 123.09 100.514 123.062 100.556 122.866L100.836 121.704C100.85 121.634 100.864 121.606 100.864 121.578C100.864 121.494 100.822 121.41 100.64 121.41H95.8942C95.7682 121.41 95.6142 121.438 95.6142 121.69V130.72ZM105.817 127.542C105.817 124.91 104.319 123.846 102.779 123.846C101.239 123.846 99.7413 124.91 99.7413 127.542C99.7413 130.174 101.239 131.238 102.779 131.238C104.319 131.238 105.817 130.174 105.817 127.542ZM102.779 129.838C101.687 129.838 101.631 128.606 101.631 127.542C101.631 126.478 101.715 125.246 102.779 125.246C103.843 125.246 103.927 126.478 103.927 127.542C103.927 128.62 103.857 129.838 102.779 129.838ZM111.075 125.484V130.804C111.075 130.958 111.117 131 111.271 131H112.657C112.839 131 112.853 130.958 112.853 130.804V124.28C112.853 124.126 112.811 124.084 112.657 124.084H108.359C108.177 124.084 108.163 124.126 108.163 124.28V124.91C108.163 125.736 108.135 127.878 107.981 128.62C107.841 129.348 107.519 129.586 107.043 129.698L106.805 129.754C106.721 129.768 106.567 129.782 106.623 129.992L106.903 131.028C106.931 131.126 106.959 131.238 107.197 131.238C107.533 131.238 108.807 131.154 109.381 129.726C109.815 128.62 109.857 126.464 109.857 125.666V125.484H111.075ZM120.501 127.542C120.501 124.91 119.003 123.846 117.463 123.846C115.923 123.846 114.425 124.91 114.425 127.542C114.425 130.174 115.923 131.238 117.463 131.238C119.003 131.238 120.501 130.174 120.501 127.542ZM117.463 129.838C116.371 129.838 116.315 128.606 116.315 127.542C116.315 126.478 116.399 125.246 117.463 125.246C118.527 125.246 118.611 126.478 118.611 127.542C118.611 128.62 118.541 129.838 117.463 129.838ZM126.879 124.826C126.907 124.784 126.921 124.756 126.921 124.7C126.921 124.616 126.865 124.49 126.613 124.322C126.235 124.084 125.675 123.846 124.919 123.846C123.239 123.846 121.671 124.91 121.671 127.696C121.671 130.37 123.197 131.238 124.807 131.238C125.353 131.238 125.941 131.112 126.403 130.86C126.613 130.748 126.753 130.608 126.753 130.496C126.753 130.454 126.725 130.384 126.711 130.356L126.347 129.432C126.333 129.39 126.277 129.362 126.249 129.362C126.151 129.362 125.997 129.488 125.829 129.586C125.577 129.74 125.311 129.838 124.947 129.838C124.345 129.838 124.009 129.516 123.827 129.208C123.673 128.942 123.561 128.508 123.561 127.654C123.561 126.548 123.757 126.086 123.841 125.904C124.037 125.512 124.373 125.246 124.919 125.246C125.283 125.246 125.563 125.358 125.857 125.554C126.067 125.694 126.179 125.806 126.263 125.806C126.319 125.806 126.347 125.764 126.361 125.736L126.879 124.826ZM132.372 123.958C132.106 123.93 132.022 124.084 131.98 124.252L131.238 127.626C131.196 127.85 131.07 128.228 130.776 130.048H130.748C130.65 129.53 130.356 128.144 130.216 127.626L129.306 124.238C129.222 123.902 129.166 123.944 128.886 123.972L127.724 124.084C127.57 124.098 127.416 124.112 127.416 124.252C127.416 124.322 127.444 124.378 127.486 124.49L129.628 130.818C129.698 131.028 129.782 131 129.88 131H130.468L130.328 131.462C130.174 131.966 129.978 132.498 129.222 132.498C128.83 132.498 128.466 132.344 128.242 132.232C128.144 132.176 128.088 132.148 128.032 132.148C127.99 132.148 127.934 132.162 127.892 132.246L127.444 133.212C127.388 133.338 127.374 133.436 127.78 133.618C128.326 133.87 128.844 133.968 129.32 133.968C129.922 133.968 130.804 133.814 131.336 132.75C131.574 132.274 131.784 131.518 132.316 129.544L133.688 124.504C133.73 124.35 133.744 124.308 133.744 124.266C133.744 124.126 133.59 124.112 133.45 124.098L132.372 123.958ZM134.928 130.804C134.928 130.986 134.97 131 135.124 131H136.51C136.692 131 136.706 130.93 136.776 130.804L138.106 128.34C138.288 128.004 138.498 127.71 138.988 126.632H139.044C138.988 127.514 138.974 127.892 138.974 128.144V130.804C138.974 130.986 139.016 131 139.17 131H140.556C140.738 131 140.752 130.958 140.752 130.804V124.028C140.752 123.818 140.64 123.832 140.528 123.86L139.436 124.084C139.212 124.126 139.114 124.07 138.932 124.378L137.574 126.744C137.308 127.206 137.07 127.626 136.692 128.452H136.636C136.664 128.102 136.706 127.332 136.706 126.94V124.028C136.706 123.818 136.594 123.832 136.482 123.86L135.194 124.126C134.914 124.182 134.928 124.252 134.928 124.378V130.804ZM138.89 120.906C138.862 120.906 138.82 120.892 138.792 120.892C138.624 120.892 138.638 121.004 138.568 121.214C138.456 121.606 138.26 121.816 137.84 121.816C137.42 121.816 137.224 121.606 137.112 121.214C137.07 121.06 137.056 120.976 137.014 120.934C136.958 120.864 136.86 120.892 136.79 120.906L135.978 121.018C135.922 121.032 135.852 121.088 135.852 121.242C135.852 121.466 135.936 121.788 136.104 122.068C136.426 122.586 137.056 122.964 137.84 122.964C138.624 122.964 139.254 122.586 139.576 122.068C139.744 121.788 139.828 121.466 139.828 121.242C139.828 121.088 139.758 121.032 139.702 121.018L138.89 120.906ZM145.438 125.484H146.978C147.048 125.484 147.146 125.456 147.188 125.288L147.384 124.364C147.412 124.224 147.468 124.084 147.174 124.084H142.064C141.91 124.084 141.868 124.126 141.868 124.28V125.288C141.868 125.442 141.91 125.484 142.064 125.484H143.66V130.804C143.66 130.986 143.702 131 143.856 131H145.242C145.424 131 145.438 130.958 145.438 130.804V125.484ZM153.492 128.018C153.674 128.018 153.814 128.004 153.814 127.57C153.814 127.206 153.8 126.688 153.66 126.1C153.408 125.008 152.778 123.846 151.014 123.846C149.054 123.846 147.948 125.512 147.948 127.724C147.948 128.69 148.144 131.238 151.14 131.238C151.924 131.238 152.848 131.028 153.366 130.678C153.478 130.608 153.59 130.51 153.59 130.37C153.59 130.328 153.576 130.3 153.548 130.244L153.198 129.418C153.17 129.348 153.128 129.306 153.044 129.306C152.96 129.306 152.834 129.362 152.666 129.446C152.4 129.572 151.91 129.768 151.266 129.768C150.104 129.768 149.726 129.04 149.726 128.018H153.492ZM149.726 126.716C149.81 125.764 150.118 125.148 150.916 125.148C151.476 125.148 151.756 125.47 151.868 126.002C151.896 126.114 151.938 126.338 151.924 126.716H149.726ZM158.762 125.54C158.776 125.568 158.818 125.638 158.902 125.638C158.972 125.638 159.042 125.582 159.266 125.456C159.42 125.372 159.812 125.148 160.358 125.148C160.932 125.148 161.268 125.47 161.268 125.932C161.268 126.73 160.554 126.786 160.078 126.786H159.756C159.602 126.786 159.56 126.828 159.56 126.982V127.892C159.56 128.046 159.602 128.088 159.756 128.088H160.064C160.498 128.088 161.38 128.088 161.38 128.928C161.38 129.292 161.212 129.936 160.274 129.936C159.756 129.936 159.42 129.824 158.958 129.572C158.776 129.474 158.664 129.404 158.566 129.404C158.482 129.404 158.44 129.446 158.412 129.516L158.104 130.244C158.09 130.286 158.062 130.342 158.062 130.398C158.062 130.608 158.314 130.72 158.538 130.832C159.028 131.084 159.784 131.238 160.4 131.238C161.996 131.238 163.158 130.412 163.158 128.956C163.158 128.06 162.64 127.542 162.024 127.374V127.332C162.668 127.094 163.004 126.506 163.004 125.778C163.004 125.134 162.696 124.7 162.388 124.42C161.814 123.902 161.086 123.846 160.596 123.846C159.546 123.846 158.902 124.14 158.608 124.308C158.51 124.364 158.258 124.518 158.258 124.7C158.258 124.742 158.272 124.784 158.3 124.826L158.762 125.54ZM169.815 130.748C169.857 130.734 169.927 130.692 169.927 130.608C169.927 130.538 169.871 130.44 169.773 130.188C169.563 129.656 169.563 129.208 169.563 128.802V126.1C169.563 125.848 169.535 125.218 169.255 124.742C168.835 124.028 168.023 123.846 167.155 123.846C166.581 123.846 165.587 123.958 165.013 124.224C164.649 124.392 164.649 124.448 164.719 124.644L165.013 125.526C165.041 125.624 165.069 125.666 165.153 125.666C165.251 125.666 165.349 125.596 165.825 125.442C166.175 125.33 166.595 125.246 166.959 125.246C167.351 125.246 167.589 125.372 167.715 125.526C167.897 125.75 167.883 126.086 167.883 126.282V126.716C167.085 126.688 165.769 126.8 165.083 127.29C164.789 127.5 164.229 128.032 164.229 129.11C164.229 130.398 165.041 131.238 166.301 131.238C167.225 131.238 167.729 130.818 168.093 130.454L168.149 130.398C168.191 130.622 168.261 130.818 168.387 131.07C168.499 131.28 168.583 131.252 168.681 131.21L169.815 130.748ZM167.883 129.404C167.575 129.74 167.197 129.936 166.833 129.936C166.329 129.936 165.909 129.558 165.909 128.984C165.909 128.158 166.679 127.864 167.799 127.864H167.883V129.404ZM178.521 126.674H176.505V124.028C176.505 123.818 176.393 123.832 176.281 123.86L175.175 124.084C174.699 124.182 174.727 124.224 174.727 124.378V130.804C174.727 130.958 174.769 131 174.923 131H176.309C176.491 131 176.505 130.958 176.505 130.804V128.074H178.521V130.804C178.521 130.986 178.563 131 178.717 131H180.103C180.285 131 180.299 130.958 180.299 130.804V124.028C180.299 123.818 180.187 123.832 180.075 123.86L178.787 124.126C178.507 124.182 178.521 124.252 178.521 124.378V126.674ZM187.944 127.542C187.944 124.91 186.446 123.846 184.906 123.846C183.366 123.846 181.868 124.91 181.868 127.542C181.868 130.174 183.366 131.238 184.906 131.238C186.446 131.238 187.944 130.174 187.944 127.542ZM184.906 129.838C183.814 129.838 183.758 128.606 183.758 127.542C183.758 126.478 183.842 125.246 184.906 125.246C185.97 125.246 186.054 126.478 186.054 127.542C186.054 128.62 185.984 129.838 184.906 129.838ZM191.956 131C192.796 131 193.608 130.986 194.28 130.538C194.882 130.146 195.036 129.53 195.036 129.04C195.036 128.074 194.448 127.486 193.692 127.332C194.406 127.108 194.812 126.506 194.812 125.792C194.812 125.106 194.448 124.672 194.126 124.448C193.58 124.084 192.67 124.084 191.858 124.084H189.716C189.534 124.084 189.52 124.126 189.52 124.28V130.804C189.52 130.986 189.562 131 189.716 131H191.956ZM191.298 125.386H191.998C192.432 125.386 193.034 125.428 193.034 126.058C193.034 126.296 192.936 126.814 192.04 126.814H191.298V125.386ZM191.298 128.074H192.222C192.474 128.074 193.258 128.088 193.258 128.872C193.258 129.614 192.586 129.698 192.068 129.698H191.298V128.074ZM199.146 131C199.888 131 200.826 130.972 201.484 130.44C202.142 129.922 202.226 129.194 202.226 128.69C202.226 128.102 202.086 127.514 201.54 127.052C200.91 126.52 200.126 126.492 199.342 126.492H198.558V124.028C198.558 123.818 198.446 123.832 198.334 123.86L197.27 124.084C196.766 124.196 196.78 124.182 196.78 124.378V130.804C196.78 130.986 196.822 131 196.976 131H199.146ZM198.558 127.892H199.412C199.706 127.892 200.448 127.906 200.448 128.746C200.448 129.558 199.776 129.6 199.258 129.6H198.558V127.892ZM203.192 130.804C203.192 130.986 203.234 131 203.388 131H204.774C204.956 131 204.97 130.958 204.97 130.804V124.028C204.97 123.818 204.858 123.832 204.746 123.86L203.458 124.126C203.178 124.182 203.192 124.252 203.192 124.378V130.804ZM206.924 130.804C206.924 130.986 206.966 131 207.12 131H208.506C208.688 131 208.702 130.93 208.772 130.804L210.102 128.34C210.284 128.004 210.494 127.71 210.984 126.632H211.04C210.984 127.514 210.97 127.892 210.97 128.144V130.804C210.97 130.986 211.012 131 211.166 131H212.552C212.734 131 212.748 130.958 212.748 130.804V124.028C212.748 123.818 212.636 123.832 212.524 123.86L211.432 124.084C211.208 124.126 211.11 124.07 210.928 124.378L209.57 126.744C209.304 127.206 209.066 127.626 208.688 128.452H208.632C208.66 128.102 208.702 127.332 208.702 126.94V124.028C208.702 123.818 208.59 123.832 208.478 123.86L207.19 124.126C206.91 124.182 206.924 124.252 206.924 124.378V130.804ZM210.886 120.906C210.858 120.906 210.816 120.892 210.788 120.892C210.62 120.892 210.634 121.004 210.564 121.214C210.452 121.606 210.256 121.816 209.836 121.816C209.416 121.816 209.22 121.606 209.108 121.214C209.066 121.06 209.052 120.976 209.01 120.934C208.954 120.864 208.856 120.892 208.786 120.906L207.974 121.018C207.918 121.032 207.848 121.088 207.848 121.242C207.848 121.466 207.932 121.788 208.1 122.068C208.422 122.586 209.052 122.964 209.836 122.964C210.62 122.964 211.25 122.586 211.572 122.068C211.74 121.788 211.824 121.466 211.824 121.242C211.824 121.088 211.754 121.032 211.698 121.018L210.886 120.906ZM220.407 131C221.247 131 222.059 130.986 222.731 130.538C223.333 130.146 223.487 129.53 223.487 129.04C223.487 128.074 222.899 127.486 222.143 127.332C222.857 127.108 223.263 126.506 223.263 125.792C223.263 125.106 222.899 124.672 222.577 124.448C222.031 124.084 221.121 124.084 220.309 124.084H218.167C217.985 124.084 217.971 124.126 217.971 124.28V130.804C217.971 130.986 218.013 131 218.167 131H220.407ZM219.749 125.386H220.449C220.883 125.386 221.485 125.428 221.485 126.058C221.485 126.296 221.387 126.814 220.491 126.814H219.749V125.386ZM219.749 128.074H220.673C220.925 128.074 221.709 128.088 221.709 128.872C221.709 129.614 221.037 129.698 220.519 129.698H219.749V128.074ZM226.757 131C227.009 131 227.009 130.902 227.009 130.804V128.102H227.583C228.227 128.102 228.311 128.41 228.395 128.788L228.661 129.95C228.759 130.37 228.913 130.706 229.249 130.93C229.613 131.182 230.271 131.238 230.537 131.238C230.845 131.238 230.873 131.126 230.901 131.028L231.153 130.132C231.223 129.866 231.097 129.838 230.999 129.824L230.691 129.768C230.383 129.712 230.327 129.572 230.215 129.236L229.949 128.466C229.795 128.032 229.655 127.528 228.983 127.388V127.346C229.571 127.234 229.753 126.758 229.837 126.464L229.991 125.918C230.145 125.358 230.285 125.33 230.565 125.274L230.775 125.232C230.915 125.204 230.985 125.106 230.957 125.008L230.677 123.986C230.649 123.902 230.621 123.846 230.425 123.846C230.173 123.846 229.529 123.93 229.137 124.28C228.801 124.574 228.675 124.98 228.619 125.218L228.437 126.016C228.353 126.394 228.269 126.702 227.625 126.702H227.009V124.028C227.009 123.818 226.897 123.832 226.785 123.86L225.693 124.084C225.217 124.182 225.231 124.196 225.231 124.378V130.804C225.231 130.902 225.231 131 225.483 131H226.757ZM236.443 123.958C236.177 123.93 236.093 124.084 236.051 124.252L235.309 127.626C235.267 127.85 235.141 128.228 234.847 130.048H234.819C234.721 129.53 234.427 128.144 234.287 127.626L233.377 124.238C233.293 123.902 233.237 123.944 232.957 123.972L231.795 124.084C231.641 124.098 231.487 124.112 231.487 124.252C231.487 124.322 231.515 124.378 231.557 124.49L233.699 130.818C233.769 131.028 233.853 131 233.951 131H234.539L234.399 131.462C234.245 131.966 234.049 132.498 233.293 132.498C232.901 132.498 232.537 132.344 232.313 132.232C232.215 132.176 232.159 132.148 232.103 132.148C232.061 132.148 232.005 132.162 231.963 132.246L231.515 133.212C231.459 133.338 231.445 133.436 231.851 133.618C232.397 133.87 232.915 133.968 233.391 133.968C233.993 133.968 234.875 133.814 235.407 132.75C235.645 132.274 235.855 131.518 236.387 129.544L237.759 124.504C237.801 124.35 237.815 124.308 237.815 124.266C237.815 124.126 237.661 124.112 237.521 124.098L236.443 123.958ZM243.664 124.826C243.692 124.784 243.706 124.756 243.706 124.7C243.706 124.616 243.65 124.49 243.398 124.322C243.02 124.084 242.46 123.846 241.704 123.846C240.024 123.846 238.456 124.91 238.456 127.696C238.456 130.37 239.982 131.238 241.592 131.238C242.138 131.238 242.726 131.112 243.188 130.86C243.398 130.748 243.538 130.608 243.538 130.496C243.538 130.454 243.51 130.384 243.496 130.356L243.132 129.432C243.118 129.39 243.062 129.362 243.034 129.362C242.936 129.362 242.782 129.488 242.614 129.586C242.362 129.74 242.096 129.838 241.732 129.838C241.13 129.838 240.794 129.516 240.612 129.208C240.458 128.942 240.346 128.508 240.346 127.654C240.346 126.548 240.542 126.086 240.626 125.904C240.822 125.512 241.158 125.246 241.704 125.246C242.068 125.246 242.348 125.358 242.642 125.554C242.852 125.694 242.964 125.806 243.048 125.806C243.104 125.806 243.132 125.764 243.146 125.736L243.664 124.826ZM250.633 121.41C250.451 121.41 250.437 121.494 250.395 121.62L247.609 130.72C247.581 130.804 247.525 131 247.819 131H249.317C249.499 131 249.513 130.93 249.569 130.706L250.143 128.438H252.551L253.167 130.706C253.251 130.986 253.293 131 253.461 131H255.015C255.085 131 255.239 130.986 255.239 130.832C255.239 130.762 255.211 130.72 255.197 130.664L252.453 121.634C252.411 121.494 252.383 121.41 252.243 121.41H250.633ZM252.201 127.178H250.353L250.969 124.77C251.221 123.804 251.263 123.286 251.277 122.908H251.319C251.431 123.874 251.529 124.35 251.627 124.77L252.201 127.178ZM259.229 129.586C259.215 129.53 259.159 129.502 259.117 129.502C259.075 129.502 259.019 129.53 258.921 129.558C258.809 129.6 258.697 129.628 258.585 129.628C258.151 129.628 258.179 129.166 258.179 128.788V121.158C258.179 121.06 258.193 120.934 258.137 120.892C258.081 120.85 257.997 120.864 257.955 120.878L256.667 121.144C256.387 121.2 256.401 121.27 256.401 121.396V128.536C256.401 129.922 256.429 131.238 258.193 131.238C258.585 131.238 258.893 131.168 259.257 131.056C259.523 130.972 259.551 130.888 259.509 130.734L259.229 129.586ZM262.462 130.874L262.518 130.902C262.658 130.972 263.036 131.238 263.918 131.238C266.438 131.238 266.494 128.536 266.494 127.486C266.494 124.42 265.122 123.846 264.03 123.846C263.47 123.846 262.868 124.028 262.28 124.574C262.238 124.448 262.21 124.322 262.154 124.196C262 123.776 261.86 123.818 261.636 123.888L260.572 124.238C260.502 124.266 260.418 124.308 260.418 124.392C260.418 124.434 260.432 124.476 260.474 124.616C260.572 124.91 260.684 125.372 260.684 126.576V133.758C260.684 134.024 260.796 133.982 260.908 133.954L262.196 133.688C262.476 133.632 262.462 133.562 262.462 133.436V130.874ZM262.462 125.778L262.518 125.722C262.742 125.498 263.092 125.246 263.54 125.246C264.688 125.246 264.716 126.59 264.716 127.444C264.716 128.536 264.66 128.942 264.492 129.25C264.226 129.754 263.792 129.838 263.47 129.838C263.274 129.838 262.868 129.824 262.462 129.572V125.778ZM273.258 128.018C273.44 128.018 273.58 128.004 273.58 127.57C273.58 127.206 273.566 126.688 273.426 126.1C273.174 125.008 272.544 123.846 270.78 123.846C268.82 123.846 267.714 125.512 267.714 127.724C267.714 128.69 267.91 131.238 270.906 131.238C271.69 131.238 272.614 131.028 273.132 130.678C273.244 130.608 273.356 130.51 273.356 130.37C273.356 130.328 273.342 130.3 273.314 130.244L272.964 129.418C272.936 129.348 272.894 129.306 272.81 129.306C272.726 129.306 272.6 129.362 272.432 129.446C272.166 129.572 271.676 129.768 271.032 129.768C269.87 129.768 269.492 129.04 269.492 128.018H273.258ZM269.492 126.716C269.576 125.764 269.884 125.148 270.682 125.148C271.242 125.148 271.522 125.47 271.634 126.002C271.662 126.114 271.704 126.338 271.69 126.716H269.492ZM280.72 125.89C280.72 124.826 280.174 123.846 278.914 123.846C278.256 123.846 277.528 124.042 276.758 124.812C276.716 124.532 276.646 124.308 276.576 124.14C276.436 123.818 276.38 123.79 276.1 123.888L275.036 124.238C274.896 124.28 274.882 124.364 274.882 124.42C274.882 124.546 274.938 124.602 275.008 124.882C275.092 125.246 275.148 125.666 275.148 126.576V130.804C275.148 130.986 275.19 131 275.344 131H276.73C276.912 131 276.926 130.958 276.926 130.804V125.89C277.458 125.4 277.85 125.316 278.116 125.316C278.9 125.316 278.942 125.974 278.942 126.492V130.804C278.942 130.986 278.984 131 279.138 131H280.524C280.706 131 280.72 130.958 280.72 130.804V125.89ZM101.081 143.5V145.502C100.689 145.684 100.367 145.726 100.115 145.726C99.6528 145.726 99.2468 145.586 98.9808 145.348C98.2808 144.718 98.2108 143.08 98.2108 142.38C98.2108 141.638 98.3088 140.504 98.5048 139.916C98.7708 139.146 99.2468 138.684 100.101 138.684C100.535 138.684 100.941 138.81 101.361 139.034C101.725 139.23 101.823 139.3 101.907 139.3C102.019 139.3 102.047 139.216 102.089 139.146L102.551 138.222C102.607 138.11 102.663 138.012 102.299 137.788C102.061 137.648 101.249 137.172 99.9748 137.172C98.7988 137.172 97.9728 137.578 97.3848 138.208C96.7128 138.936 96.2228 140.168 96.2228 142.408C96.2228 143.85 96.4748 145.082 97.1748 146.006C97.8048 146.832 98.6868 147.238 99.9888 147.238C101.151 147.238 101.921 146.902 102.313 146.692C102.677 146.496 102.775 146.398 102.775 146.202V142.268C102.775 142.016 102.621 141.988 102.495 141.988H100.017C99.8908 141.988 99.7368 142.016 99.7368 142.268V143.22C99.7368 143.472 99.8908 143.5 100.017 143.5H101.081ZM110.377 143.542C110.377 140.91 108.879 139.846 107.339 139.846C105.799 139.846 104.301 140.91 104.301 143.542C104.301 146.174 105.799 147.238 107.339 147.238C108.879 147.238 110.377 146.174 110.377 143.542ZM107.339 145.838C106.247 145.838 106.191 144.606 106.191 143.542C106.191 142.478 106.275 141.246 107.339 141.246C108.403 141.246 108.487 142.478 108.487 143.542C108.487 144.62 108.417 145.838 107.339 145.838ZM114.711 145.586C114.697 145.53 114.641 145.502 114.599 145.502C114.557 145.502 114.501 145.53 114.403 145.558C114.291 145.6 114.179 145.628 114.067 145.628C113.633 145.628 113.661 145.166 113.661 144.788V137.158C113.661 137.06 113.675 136.934 113.619 136.892C113.563 136.85 113.479 136.864 113.437 136.878L112.149 137.144C111.869 137.2 111.883 137.27 111.883 137.396V144.536C111.883 145.922 111.911 147.238 113.675 147.238C114.067 147.238 114.375 147.168 114.739 147.056C115.005 146.972 115.033 146.888 114.991 146.734L114.711 145.586ZM119.932 146.398C120.002 146.734 120.086 146.902 120.184 147.084C120.282 147.28 120.366 147.252 120.45 147.21L121.584 146.748C121.682 146.706 121.71 146.678 121.71 146.622C121.71 146.566 121.682 146.51 121.612 146.23C121.472 145.67 121.458 145.026 121.458 144.802V137.158C121.458 136.822 121.402 136.836 121.234 136.878L119.904 137.158C119.666 137.2 119.68 137.27 119.68 137.396V140.266C119.302 139.958 118.896 139.846 118.364 139.846C117.328 139.846 115.69 140.406 115.69 143.724C115.69 146.692 117.062 147.238 118.028 147.238C118.728 147.238 119.358 146.972 119.904 146.426L119.932 146.398ZM119.68 145.348L119.596 145.446C119.442 145.628 119.176 145.838 118.644 145.838C118.336 145.838 117.958 145.768 117.706 145.306C117.594 145.082 117.468 144.704 117.468 143.514C117.468 142.562 117.538 142.03 117.79 141.694C118.07 141.302 118.448 141.246 118.728 141.246C119.148 141.246 119.386 141.358 119.61 141.484L119.68 141.526V145.348ZM132.293 143.542C132.293 140.91 130.795 139.846 129.255 139.846C127.715 139.846 126.217 140.91 126.217 143.542C126.217 146.174 127.715 147.238 129.255 147.238C130.795 147.238 132.293 146.174 132.293 143.542ZM129.255 145.838C128.163 145.838 128.107 144.606 128.107 143.542C128.107 142.478 128.191 141.246 129.255 141.246C130.319 141.246 130.403 142.478 130.403 143.542C130.403 144.62 130.333 145.838 129.255 145.838ZM136.599 141.484H138.139C138.209 141.484 138.307 141.456 138.349 141.288L138.545 140.364C138.573 140.224 138.629 140.084 138.335 140.084H133.225C133.071 140.084 133.029 140.126 133.029 140.28V141.288C133.029 141.442 133.071 141.484 133.225 141.484H134.821V146.804C134.821 146.986 134.863 147 135.017 147H136.403C136.585 147 136.599 146.958 136.599 146.804V141.484ZM147.837 147V148.988C147.837 149.114 147.865 149.268 148.117 149.268H149.335C149.587 149.268 149.615 149.114 149.615 148.988V145.768C149.615 145.642 149.587 145.488 149.335 145.488H148.775V137.69C148.775 137.564 148.747 137.41 148.495 137.41H143.917C143.665 137.41 143.637 137.564 143.637 137.69L143.623 140.392C143.623 140.644 143.609 141.932 143.413 143.136C143.273 143.99 143.077 144.69 142.629 145.488H142.363C142.111 145.488 142.083 145.642 142.083 145.768V148.988C142.083 149.114 142.111 149.268 142.363 149.268H143.581C143.707 149.268 143.861 149.24 143.861 148.988V147H147.837ZM146.871 145.488H144.491C144.771 144.928 144.967 144.354 145.107 143.71C145.247 143.094 145.373 142.156 145.401 140.672L145.429 138.922H146.871V145.488ZM152.09 147C152.216 147 152.356 147.014 152.356 146.79L152.482 142.324H152.524C152.664 142.814 152.832 143.416 153 143.906L153.756 146.006C153.826 146.202 153.924 146.174 154.036 146.174H154.792C154.904 146.174 155.002 146.202 155.072 146.006L155.828 143.906C155.996 143.416 156.164 142.814 156.304 142.324H156.346L156.472 146.79C156.472 147.014 156.612 147 156.738 147H157.69C157.984 147 157.956 146.916 157.956 146.79L157.606 140.294C157.592 140.042 157.438 140.084 157.34 140.084H156.164C156.08 140.084 155.94 140.07 155.884 140.238L154.806 143.206C154.666 143.584 154.484 144.354 154.428 144.69H154.4C154.358 144.41 154.162 143.584 154.022 143.206L152.944 140.238C152.888 140.07 152.748 140.084 152.664 140.084H151.488C151.39 140.084 151.236 140.042 151.222 140.294L150.872 146.79C150.872 146.916 150.844 147 151.138 147H152.09ZM159.709 146.804C159.709 146.986 159.751 147 159.905 147H161.291C161.473 147 161.487 146.93 161.557 146.804L162.887 144.34C163.069 144.004 163.279 143.71 163.769 142.632H163.825C163.769 143.57 163.755 143.878 163.755 144.144V146.804C163.755 146.986 163.797 147 163.951 147H165.337C165.519 147 165.533 146.958 165.533 146.804V140.028C165.533 139.818 165.421 139.832 165.309 139.86L164.189 140.084C163.951 140.126 163.881 140.098 163.713 140.378L162.355 142.744C162.089 143.206 161.851 143.626 161.473 144.452H161.417C161.445 144.102 161.487 143.332 161.487 142.94V140.028C161.487 139.818 161.375 139.832 161.263 139.86L159.975 140.126C159.695 140.182 159.709 140.252 159.709 140.378V146.804ZM170.218 141.484H171.758C171.828 141.484 171.926 141.456 171.968 141.288L172.164 140.364C172.192 140.224 172.248 140.084 171.954 140.084H166.844C166.69 140.084 166.648 140.126 166.648 140.28V141.288C166.648 141.442 166.69 141.484 166.844 141.484H168.44V146.804C168.44 146.986 168.482 147 168.636 147H170.022C170.204 147 170.218 146.958 170.218 146.804V141.484ZM174.996 146.874L175.052 146.902C175.192 146.972 175.57 147.238 176.452 147.238C178.972 147.238 179.028 144.536 179.028 143.486C179.028 140.42 177.656 139.846 176.564 139.846C176.004 139.846 175.402 140.028 174.814 140.574C174.772 140.448 174.744 140.322 174.688 140.196C174.534 139.776 174.394 139.818 174.17 139.888L173.106 140.238C173.036 140.266 172.952 140.308 172.952 140.392C172.952 140.434 172.966 140.476 173.008 140.616C173.106 140.91 173.218 141.372 173.218 142.576V149.758C173.218 150.024 173.33 149.982 173.442 149.954L174.73 149.688C175.01 149.632 174.996 149.562 174.996 149.436V146.874ZM174.996 141.778L175.052 141.722C175.276 141.498 175.626 141.246 176.074 141.246C177.222 141.246 177.25 142.59 177.25 143.444C177.25 144.536 177.194 144.942 177.026 145.25C176.76 145.754 176.326 145.838 176.004 145.838C175.808 145.838 175.402 145.824 174.996 145.572V141.778ZM180.654 146.804C180.654 146.986 180.696 147 180.85 147H182.236C182.418 147 182.432 146.93 182.502 146.804L183.832 144.34C184.014 144.004 184.224 143.71 184.714 142.632H184.77C184.714 143.57 184.7 143.878 184.7 144.144V146.804C184.7 146.986 184.742 147 184.896 147H186.282C186.464 147 186.478 146.958 186.478 146.804V140.028C186.478 139.818 186.366 139.832 186.254 139.86L185.134 140.084C184.896 140.126 184.826 140.098 184.658 140.378L183.3 142.744C183.034 143.206 182.796 143.626 182.418 144.452H182.362C182.39 144.102 182.432 143.332 182.432 142.94V140.028C182.432 139.818 182.32 139.832 182.208 139.86L180.92 140.126C180.64 140.182 180.654 140.252 180.654 140.378V146.804ZM193.403 147C193.557 147 193.599 146.986 193.599 146.804V140.28C193.599 140.098 193.557 140.084 193.403 140.084H190.729C190.351 140.084 189.497 140.112 188.909 140.574C188.433 140.938 188.195 141.554 188.195 142.1C188.195 142.506 188.335 143.01 188.615 143.318C188.825 143.542 189.175 143.752 189.511 143.836V143.864C189.007 144.004 188.797 144.382 188.643 144.928L188.559 145.236C188.461 145.572 188.377 145.712 188.083 145.768L187.803 145.824C187.705 145.838 187.579 145.866 187.649 146.132L187.901 147.028C187.929 147.126 187.943 147.238 188.237 147.238C188.559 147.238 189.133 147.168 189.497 146.916C189.875 146.65 190.015 146.272 190.113 145.908L190.337 145.11C190.463 144.648 190.575 144.424 191.163 144.424H191.821V146.804C191.821 146.958 191.835 147 192.017 147H193.403ZM191.821 143.094H191.065C190.743 143.094 189.973 143.038 189.973 142.254C189.973 141.974 190.085 141.414 190.995 141.414H191.821V143.094ZM199.09 146.72C199.09 146.986 199.23 147 199.37 147H200.714C200.854 147 200.994 146.986 200.994 146.72V142.772H203.64V146.72C203.64 146.986 203.78 147 203.92 147H205.264C205.53 147 205.544 146.86 205.544 146.72V137.69C205.544 137.55 205.53 137.41 205.264 137.41H203.92C203.78 137.41 203.64 137.424 203.64 137.69V141.26H200.994V137.69C200.994 137.424 200.854 137.41 200.714 137.41H199.37C199.23 137.41 199.09 137.424 199.09 137.69V146.72ZM212.861 146.748C212.903 146.734 212.973 146.692 212.973 146.608C212.973 146.538 212.917 146.44 212.819 146.188C212.609 145.656 212.609 145.208 212.609 144.802V142.1C212.609 141.848 212.581 141.218 212.301 140.742C211.881 140.028 211.069 139.846 210.201 139.846C209.627 139.846 208.633 139.958 208.059 140.224C207.695 140.392 207.695 140.448 207.765 140.644L208.059 141.526C208.087 141.624 208.115 141.666 208.199 141.666C208.297 141.666 208.395 141.596 208.871 141.442C209.221 141.33 209.641 141.246 210.005 141.246C210.397 141.246 210.635 141.372 210.761 141.526C210.943 141.75 210.929 142.086 210.929 142.282V142.716C210.131 142.688 208.815 142.8 208.129 143.29C207.835 143.5 207.275 144.032 207.275 145.11C207.275 146.398 208.087 147.238 209.347 147.238C210.271 147.238 210.775 146.818 211.139 146.454L211.195 146.398C211.237 146.622 211.307 146.818 211.433 147.07C211.545 147.28 211.629 147.252 211.727 147.21L212.861 146.748ZM210.929 145.404C210.621 145.74 210.243 145.936 209.879 145.936C209.375 145.936 208.955 145.558 208.955 144.984C208.955 144.158 209.725 143.864 210.845 143.864H210.929V145.404ZM214.645 141.54C214.659 141.568 214.701 141.638 214.785 141.638C214.855 141.638 214.925 141.582 215.149 141.456C215.303 141.372 215.695 141.148 216.241 141.148C216.815 141.148 217.151 141.47 217.151 141.932C217.151 142.73 216.437 142.786 215.961 142.786H215.639C215.485 142.786 215.443 142.828 215.443 142.982V143.892C215.443 144.046 215.485 144.088 215.639 144.088H215.947C216.381 144.088 217.263 144.088 217.263 144.928C217.263 145.292 217.095 145.936 216.157 145.936C215.639 145.936 215.303 145.824 214.841 145.572C214.659 145.474 214.547 145.404 214.449 145.404C214.365 145.404 214.323 145.446 214.295 145.516L213.987 146.244C213.973 146.286 213.945 146.342 213.945 146.398C213.945 146.608 214.197 146.72 214.421 146.832C214.911 147.084 215.667 147.238 216.283 147.238C217.879 147.238 219.041 146.412 219.041 144.956C219.041 144.06 218.523 143.542 217.907 143.374V143.332C218.551 143.094 218.887 142.506 218.887 141.778C218.887 141.134 218.579 140.7 218.271 140.42C217.697 139.902 216.969 139.846 216.479 139.846C215.429 139.846 214.785 140.14 214.491 140.308C214.393 140.364 214.141 140.518 214.141 140.7C214.141 140.742 214.155 140.784 214.183 140.826L214.645 141.54ZM225.699 146.748C225.741 146.734 225.811 146.692 225.811 146.608C225.811 146.538 225.755 146.44 225.657 146.188C225.447 145.656 225.447 145.208 225.447 144.802V142.1C225.447 141.848 225.419 141.218 225.139 140.742C224.719 140.028 223.907 139.846 223.039 139.846C222.465 139.846 221.471 139.958 220.897 140.224C220.533 140.392 220.533 140.448 220.603 140.644L220.897 141.526C220.925 141.624 220.953 141.666 221.037 141.666C221.135 141.666 221.233 141.596 221.709 141.442C222.059 141.33 222.479 141.246 222.843 141.246C223.235 141.246 223.473 141.372 223.599 141.526C223.781 141.75 223.767 142.086 223.767 142.282V142.716C222.969 142.688 221.653 142.8 220.967 143.29C220.673 143.5 220.113 144.032 220.113 145.11C220.113 146.398 220.925 147.238 222.185 147.238C223.109 147.238 223.613 146.818 223.977 146.454L224.033 146.398C224.075 146.622 224.145 146.818 224.271 147.07C224.383 147.28 224.467 147.252 224.565 147.21L225.699 146.748ZM223.767 145.404C223.459 145.74 223.081 145.936 222.717 145.936C222.213 145.936 221.793 145.558 221.793 144.984C221.793 144.158 222.563 143.864 223.683 143.864H223.767V145.404ZM229.205 146.874L229.261 146.902C229.401 146.972 229.779 147.238 230.661 147.238C233.181 147.238 233.237 144.536 233.237 143.486C233.237 140.42 231.865 139.846 230.773 139.846C230.213 139.846 229.611 140.028 229.023 140.574C228.981 140.448 228.953 140.322 228.897 140.196C228.743 139.776 228.603 139.818 228.379 139.888L227.315 140.238C227.245 140.266 227.161 140.308 227.161 140.392C227.161 140.434 227.175 140.476 227.217 140.616C227.315 140.91 227.427 141.372 227.427 142.576V149.758C227.427 150.024 227.539 149.982 227.651 149.954L228.939 149.688C229.219 149.632 229.205 149.562 229.205 149.436V146.874ZM229.205 141.778L229.261 141.722C229.485 141.498 229.835 141.246 230.283 141.246C231.431 141.246 231.459 142.59 231.459 143.444C231.459 144.536 231.403 144.942 231.235 145.25C230.969 145.754 230.535 145.838 230.213 145.838C230.017 145.838 229.611 145.824 229.205 145.572V141.778ZM240.547 143.542C240.547 140.91 239.049 139.846 237.509 139.846C235.969 139.846 234.471 140.91 234.471 143.542C234.471 146.174 235.969 147.238 237.509 147.238C239.049 147.238 240.547 146.174 240.547 143.542ZM237.509 145.838C236.417 145.838 236.361 144.606 236.361 143.542C236.361 142.478 236.445 141.246 237.509 141.246C238.573 141.246 238.657 142.478 238.657 143.542C238.657 144.62 238.587 145.838 237.509 145.838ZM244.559 147C245.399 147 246.211 146.986 246.883 146.538C247.485 146.146 247.639 145.53 247.639 145.04C247.639 144.074 247.051 143.486 246.295 143.332C247.009 143.108 247.415 142.506 247.415 141.792C247.415 141.106 247.051 140.672 246.729 140.448C246.183 140.084 245.273 140.084 244.461 140.084H242.319C242.137 140.084 242.123 140.126 242.123 140.28V146.804C242.123 146.986 242.165 147 242.319 147H244.559ZM243.901 141.386H244.601C245.035 141.386 245.637 141.428 245.637 142.058C245.637 142.296 245.539 142.814 244.643 142.814H243.901V141.386ZM243.901 144.074H244.825C245.077 144.074 245.861 144.088 245.861 144.872C245.861 145.614 245.189 145.698 244.671 145.698H243.901V144.074ZM254.478 146.748C254.52 146.734 254.59 146.692 254.59 146.608C254.59 146.538 254.534 146.44 254.436 146.188C254.226 145.656 254.226 145.208 254.226 144.802V142.1C254.226 141.848 254.198 141.218 253.918 140.742C253.498 140.028 252.686 139.846 251.818 139.846C251.244 139.846 250.25 139.958 249.676 140.224C249.312 140.392 249.312 140.448 249.382 140.644L249.676 141.526C249.704 141.624 249.732 141.666 249.816 141.666C249.914 141.666 250.012 141.596 250.488 141.442C250.838 141.33 251.258 141.246 251.622 141.246C252.014 141.246 252.252 141.372 252.378 141.526C252.56 141.75 252.546 142.086 252.546 142.282V142.716C251.748 142.688 250.432 142.8 249.746 143.29C249.452 143.5 248.892 144.032 248.892 145.11C248.892 146.398 249.704 147.238 250.964 147.238C251.888 147.238 252.392 146.818 252.756 146.454L252.812 146.398C252.854 146.622 252.924 146.818 253.05 147.07C253.162 147.28 253.246 147.252 253.344 147.21L254.478 146.748ZM252.546 145.404C252.238 145.74 251.86 145.936 251.496 145.936C250.992 145.936 250.572 145.558 250.572 144.984C250.572 144.158 251.342 143.864 252.462 143.864H252.546V145.404ZM264.724 140.28C264.724 140.21 264.738 140.084 264.528 140.084H260.3C260.076 140.084 260.104 140.182 260.104 140.28V140.91C260.104 142.758 260.076 144.088 259.264 145.6H258.816C258.718 145.6 258.62 145.572 258.62 145.796V148.764C258.62 148.918 258.662 148.96 258.816 148.96H260.132C260.314 148.96 260.328 148.918 260.328 148.764V147H263.884V148.764C263.884 148.918 263.926 148.96 264.08 148.96H265.396C265.578 148.96 265.592 148.918 265.592 148.764V145.796C265.592 145.572 265.494 145.6 265.396 145.6H264.724V140.28ZM262.946 145.6H260.972C261.588 144.312 261.686 143.108 261.686 141.932V141.484H262.946V145.6ZM270.564 141.484V146.804C270.564 146.958 270.606 147 270.76 147H272.146C272.328 147 272.342 146.958 272.342 146.804V140.28C272.342 140.126 272.3 140.084 272.146 140.084H267.848C267.666 140.084 267.652 140.126 267.652 140.28V140.91C267.652 141.736 267.624 143.878 267.47 144.62C267.33 145.348 267.008 145.586 266.532 145.698L266.294 145.754C266.21 145.768 266.056 145.782 266.112 145.992L266.392 147.028C266.42 147.126 266.448 147.238 266.686 147.238C267.022 147.238 268.296 147.154 268.87 145.726C269.304 144.62 269.346 142.464 269.346 141.666V141.484H270.564ZM279.276 147C279.43 147 279.472 146.986 279.472 146.804V140.28C279.472 140.098 279.43 140.084 279.276 140.084H276.602C276.224 140.084 275.37 140.112 274.782 140.574C274.306 140.938 274.068 141.554 274.068 142.1C274.068 142.506 274.208 143.01 274.488 143.318C274.698 143.542 275.048 143.752 275.384 143.836V143.864C274.88 144.004 274.67 144.382 274.516 144.928L274.432 145.236C274.334 145.572 274.25 145.712 273.956 145.768L273.676 145.824C273.578 145.838 273.452 145.866 273.522 146.132L273.774 147.028C273.802 147.126 273.816 147.238 274.11 147.238C274.432 147.238 275.006 147.168 275.37 146.916C275.748 146.65 275.888 146.272 275.986 145.908L276.21 145.11C276.336 144.648 276.448 144.424 277.036 144.424H277.694V146.804C277.694 146.958 277.708 147 277.89 147H279.276ZM277.694 143.094H276.938C276.616 143.094 275.846 143.038 275.846 142.254C275.846 141.974 275.958 141.414 276.868 141.414H277.694V143.094ZM107.384 160.648C107.426 160.774 107.412 160.886 107.636 160.886H108.63C108.826 160.886 108.826 160.774 108.868 160.648L109.722 157.918C109.932 157.246 110.058 156.574 110.212 155.72H110.254C110.254 156.098 110.254 156.462 110.254 156.84C110.254 156.952 110.254 157.05 110.254 157.162C110.254 157.554 110.254 157.652 110.268 157.96L110.38 162.706C110.38 162.902 110.422 163 110.59 163H111.99C112.102 163 112.214 162.958 112.2 162.706L111.808 153.858C111.794 153.438 111.71 153.41 111.514 153.41H110.086C109.904 153.41 109.876 153.508 109.834 153.634L108.644 157.162C108.434 157.792 108.28 158.184 108.196 158.842H108.168C108.126 158.548 107.902 157.666 107.748 157.162L106.614 153.634C106.544 153.41 106.502 153.41 106.376 153.41H104.892C104.738 153.41 104.682 153.466 104.668 153.704L104.276 162.706C104.262 162.944 104.36 163 104.5 163H105.662C105.858 163 105.886 162.888 105.886 162.706L106.012 158.576C106.026 158.156 106.026 157.638 106.04 155.72H106.082C106.264 156.812 106.502 157.666 106.572 157.918L107.384 160.648ZM119.229 162.748C119.271 162.734 119.341 162.692 119.341 162.608C119.341 162.538 119.285 162.44 119.187 162.188C118.977 161.656 118.977 161.208 118.977 160.802V158.1C118.977 157.848 118.949 157.218 118.669 156.742C118.249 156.028 117.437 155.846 116.569 155.846C115.995 155.846 115.001 155.958 114.427 156.224C114.063 156.392 114.063 156.448 114.133 156.644L114.427 157.526C114.455 157.624 114.483 157.666 114.567 157.666C114.665 157.666 114.763 157.596 115.239 157.442C115.589 157.33 116.009 157.246 116.373 157.246C116.765 157.246 117.003 157.372 117.129 157.526C117.311 157.75 117.297 158.086 117.297 158.282V158.716C116.499 158.688 115.183 158.8 114.497 159.29C114.203 159.5 113.643 160.032 113.643 161.11C113.643 162.398 114.455 163.238 115.715 163.238C116.639 163.238 117.143 162.818 117.507 162.454L117.563 162.398C117.605 162.622 117.675 162.818 117.801 163.07C117.913 163.28 117.997 163.252 118.095 163.21L119.229 162.748ZM117.297 161.404C116.989 161.74 116.611 161.936 116.247 161.936C115.743 161.936 115.323 161.558 115.323 160.984C115.323 160.158 116.093 159.864 117.213 159.864H117.297V161.404ZM122.652 157.554H125.06C125.13 157.554 125.242 157.526 125.27 157.358L125.466 156.364C125.494 156.224 125.564 156.084 125.256 156.084H121.07C120.888 156.084 120.874 156.126 120.874 156.28V162.804C120.874 162.986 120.916 163 121.07 163H122.456C122.638 163 122.652 162.958 122.652 162.804V157.554ZM130.369 158.674H128.353V156.028C128.353 155.818 128.241 155.832 128.129 155.86L127.023 156.084C126.547 156.182 126.575 156.224 126.575 156.378V162.804C126.575 162.958 126.617 163 126.771 163H128.157C128.339 163 128.353 162.958 128.353 162.804V160.074H130.369V162.804C130.369 162.986 130.411 163 130.565 163H131.951C132.133 163 132.147 162.958 132.147 162.804V156.028C132.147 155.818 132.035 155.832 131.923 155.86L130.635 156.126C130.355 156.182 130.369 156.252 130.369 156.378V158.674ZM134.108 162.804C134.108 162.986 134.15 163 134.304 163H135.69C135.872 163 135.886 162.93 135.956 162.804L137.286 160.34C137.468 160.004 137.678 159.71 138.168 158.632H138.224C138.168 159.57 138.154 159.878 138.154 160.144V162.804C138.154 162.986 138.196 163 138.35 163H139.736C139.918 163 139.932 162.958 139.932 162.804V156.028C139.932 155.818 139.82 155.832 139.708 155.86L138.588 156.084C138.35 156.126 138.28 156.098 138.112 156.378L136.754 158.744C136.488 159.206 136.25 159.626 135.872 160.452H135.816C135.844 160.102 135.886 159.332 135.886 158.94V156.028C135.886 155.818 135.774 155.832 135.662 155.86L134.374 156.126C134.094 156.182 134.108 156.252 134.108 156.378V162.804ZM144.617 157.484H146.157C146.227 157.484 146.325 157.456 146.367 157.288L146.563 156.364C146.591 156.224 146.647 156.084 146.353 156.084H141.243C141.089 156.084 141.047 156.126 141.047 156.28V157.288C141.047 157.442 141.089 157.484 141.243 157.484H142.839V162.804C142.839 162.986 142.881 163 143.035 163H144.421C144.603 163 144.617 162.958 144.617 162.804V157.484ZM152.63 162.748C152.672 162.734 152.742 162.692 152.742 162.608C152.742 162.538 152.686 162.44 152.588 162.188C152.378 161.656 152.378 161.208 152.378 160.802V158.1C152.378 157.848 152.35 157.218 152.07 156.742C151.65 156.028 150.838 155.846 149.97 155.846C149.396 155.846 148.402 155.958 147.828 156.224C147.464 156.392 147.464 156.448 147.534 156.644L147.828 157.526C147.856 157.624 147.884 157.666 147.968 157.666C148.066 157.666 148.164 157.596 148.64 157.442C148.99 157.33 149.41 157.246 149.774 157.246C150.166 157.246 150.404 157.372 150.53 157.526C150.712 157.75 150.698 158.086 150.698 158.282V158.716C149.9 158.688 148.584 158.8 147.898 159.29C147.604 159.5 147.044 160.032 147.044 161.11C147.044 162.398 147.856 163.238 149.116 163.238C150.04 163.238 150.544 162.818 150.908 162.454L150.964 162.398C151.006 162.622 151.076 162.818 151.202 163.07C151.314 163.28 151.398 163.252 151.496 163.21L152.63 162.748ZM150.698 161.404C150.39 161.74 150.012 161.936 149.648 161.936C149.144 161.936 148.724 161.558 148.724 160.984C148.724 160.158 149.494 159.864 150.614 159.864H150.698V161.404ZM157.542 162.804C157.542 162.986 157.584 163 157.738 163H159.124C159.306 163 159.32 162.93 159.39 162.804L160.72 160.34C160.902 160.004 161.112 159.71 161.602 158.632H161.658C161.602 159.57 161.588 159.878 161.588 160.144V162.804C161.588 162.986 161.63 163 161.784 163H163.17C163.352 163 163.366 162.958 163.366 162.804V156.028C163.366 155.818 163.254 155.832 163.142 155.86L162.022 156.084C161.784 156.126 161.714 156.098 161.546 156.378L160.188 158.744C159.922 159.206 159.684 159.626 159.306 160.452H159.25C159.278 160.102 159.32 159.332 159.32 158.94V156.028C159.32 155.818 159.208 155.832 159.096 155.86L157.808 156.126C157.528 156.182 157.542 156.252 157.542 156.378V162.804ZM172.34 157.484V162.804C172.34 162.958 172.382 163 172.536 163H173.922C174.104 163 174.118 162.958 174.118 162.804V156.28C174.118 156.098 174.076 156.084 173.922 156.084H168.784C168.63 156.084 168.588 156.098 168.588 156.28V162.804C168.588 162.958 168.602 163 168.784 163H170.17C170.352 163 170.366 162.958 170.366 162.804V157.484H172.34ZM181.765 159.542C181.765 156.91 180.267 155.846 178.727 155.846C177.187 155.846 175.689 156.91 175.689 159.542C175.689 162.174 177.187 163.238 178.727 163.238C180.267 163.238 181.765 162.174 181.765 159.542ZM178.727 161.838C177.635 161.838 177.579 160.606 177.579 159.542C177.579 158.478 177.663 157.246 178.727 157.246C179.791 157.246 179.875 158.478 179.875 159.542C179.875 160.62 179.805 161.838 178.727 161.838ZM187.022 157.484V162.804C187.022 162.958 187.064 163 187.218 163H188.604C188.786 163 188.8 162.958 188.8 162.804V156.28C188.8 156.126 188.758 156.084 188.604 156.084H184.306C184.124 156.084 184.11 156.126 184.11 156.28V156.91C184.11 157.736 184.082 159.878 183.928 160.62C183.788 161.348 183.466 161.586 182.99 161.698L182.752 161.754C182.668 161.768 182.514 161.782 182.57 161.992L182.85 163.028C182.878 163.126 182.906 163.238 183.144 163.238C183.48 163.238 184.754 163.154 185.328 161.726C185.762 160.62 185.804 158.464 185.804 157.666V157.484H187.022ZM194.88 155.958C194.614 155.93 194.53 156.084 194.488 156.252L193.746 159.626C193.704 159.85 193.578 160.228 193.284 162.048H193.256C193.158 161.53 192.864 160.144 192.724 159.626L191.814 156.238C191.73 155.902 191.674 155.944 191.394 155.972L190.232 156.084C190.078 156.098 189.924 156.112 189.924 156.252C189.924 156.322 189.952 156.378 189.994 156.49L192.136 162.818C192.206 163.028 192.29 163 192.388 163H192.976L192.836 163.462C192.682 163.966 192.486 164.498 191.73 164.498C191.338 164.498 190.974 164.344 190.75 164.232C190.652 164.176 190.596 164.148 190.54 164.148C190.498 164.148 190.442 164.162 190.4 164.246L189.952 165.212C189.896 165.338 189.882 165.436 190.288 165.618C190.834 165.87 191.352 165.968 191.828 165.968C192.43 165.968 193.312 165.814 193.844 164.75C194.082 164.274 194.292 163.518 194.824 161.544L196.196 156.504C196.238 156.35 196.252 156.308 196.252 156.266C196.252 156.126 196.098 156.112 195.958 156.098L194.88 155.958ZM200.53 159.192C200.264 159.332 199.942 159.388 199.662 159.388C198.99 159.388 198.934 158.926 198.934 158.674V156.028C198.934 155.818 198.822 155.832 198.71 155.86L197.632 156.084C197.128 156.182 197.156 156.196 197.156 156.378V158.674C197.156 159.136 197.156 159.724 197.52 160.172C197.814 160.536 198.36 160.788 199.046 160.788C199.62 160.788 200.18 160.634 200.53 160.508V162.804C200.53 162.958 200.572 163 200.726 163H202.112C202.294 163 202.308 162.958 202.308 162.804V156.028C202.308 155.818 202.196 155.832 202.084 155.86L200.796 156.126C200.516 156.182 200.53 156.252 200.53 156.378V159.192ZM209.3 162.748C209.342 162.734 209.412 162.692 209.412 162.608C209.412 162.538 209.356 162.44 209.258 162.188C209.048 161.656 209.048 161.208 209.048 160.802V158.1C209.048 157.848 209.02 157.218 208.74 156.742C208.32 156.028 207.508 155.846 206.64 155.846C206.066 155.846 205.072 155.958 204.498 156.224C204.134 156.392 204.134 156.448 204.204 156.644L204.498 157.526C204.526 157.624 204.554 157.666 204.638 157.666C204.736 157.666 204.834 157.596 205.31 157.442C205.66 157.33 206.08 157.246 206.444 157.246C206.836 157.246 207.074 157.372 207.2 157.526C207.382 157.75 207.368 158.086 207.368 158.282V158.716C206.57 158.688 205.254 158.8 204.568 159.29C204.274 159.5 203.714 160.032 203.714 161.11C203.714 162.398 204.526 163.238 205.786 163.238C206.71 163.238 207.214 162.818 207.578 162.454L207.634 162.398C207.676 162.622 207.746 162.818 207.872 163.07C207.984 163.28 208.068 163.252 208.166 163.21L209.3 162.748ZM207.368 161.404C207.06 161.74 206.682 161.936 206.318 161.936C205.814 161.936 205.394 161.558 205.394 160.984C205.394 160.158 206.164 159.864 207.284 159.864H207.368V161.404ZM210.944 162.804C210.944 162.986 210.986 163 211.14 163H212.526C212.708 163 212.722 162.93 212.792 162.804L214.122 160.34C214.304 160.004 214.514 159.71 215.004 158.632H215.06C215.004 159.514 214.99 159.892 214.99 160.144V162.804C214.99 162.986 215.032 163 215.186 163H216.572C216.754 163 216.768 162.958 216.768 162.804V156.028C216.768 155.818 216.656 155.832 216.544 155.86L215.452 156.084C215.228 156.126 215.13 156.07 214.948 156.378L213.59 158.744C213.324 159.206 213.086 159.626 212.708 160.452H212.652C212.68 160.102 212.722 159.332 212.722 158.94V156.028C212.722 155.818 212.61 155.832 212.498 155.86L211.21 156.126C210.93 156.182 210.944 156.252 210.944 156.378V162.804ZM214.906 152.906C214.878 152.906 214.836 152.892 214.808 152.892C214.64 152.892 214.654 153.004 214.584 153.214C214.472 153.606 214.276 153.816 213.856 153.816C213.436 153.816 213.24 153.606 213.128 153.214C213.086 153.06 213.072 152.976 213.03 152.934C212.974 152.864 212.876 152.892 212.806 152.906L211.994 153.018C211.938 153.032 211.868 153.088 211.868 153.242C211.868 153.466 211.952 153.788 212.12 154.068C212.442 154.586 213.072 154.964 213.856 154.964C214.64 154.964 215.27 154.586 215.592 154.068C215.76 153.788 215.844 153.466 215.844 153.242C215.844 153.088 215.774 153.032 215.718 153.018L214.906 152.906ZM221.453 157.484H222.993C223.063 157.484 223.161 157.456 223.203 157.288L223.399 156.364C223.427 156.224 223.483 156.084 223.189 156.084H218.079C217.925 156.084 217.883 156.126 217.883 156.28V157.288C217.883 157.442 217.925 157.484 218.079 157.484H219.675V162.804C219.675 162.986 219.717 163 219.871 163H221.257C221.439 163 221.453 162.958 221.453 162.804V157.484ZM229.508 160.018C229.69 160.018 229.83 160.004 229.83 159.57C229.83 159.206 229.816 158.688 229.676 158.1C229.424 157.008 228.794 155.846 227.03 155.846C225.07 155.846 223.964 157.512 223.964 159.724C223.964 160.69 224.16 163.238 227.156 163.238C227.94 163.238 228.864 163.028 229.382 162.678C229.494 162.608 229.606 162.51 229.606 162.37C229.606 162.328 229.592 162.3 229.564 162.244L229.214 161.418C229.186 161.348 229.144 161.306 229.06 161.306C228.976 161.306 228.85 161.362 228.682 161.446C228.416 161.572 227.926 161.768 227.282 161.768C226.12 161.768 225.742 161.04 225.742 160.018H229.508ZM225.742 158.716C225.826 157.764 226.134 157.148 226.932 157.148C227.492 157.148 227.772 157.47 227.884 158.002C227.912 158.114 227.954 158.338 227.94 158.716H225.742ZM238.389 157.484V162.804C238.389 162.958 238.431 163 238.585 163H239.971C240.153 163 240.167 162.958 240.167 162.804V156.28C240.167 156.098 240.125 156.084 239.971 156.084H234.833C234.679 156.084 234.637 156.098 234.637 156.28V162.804C234.637 162.958 234.651 163 234.833 163H236.219C236.401 163 236.415 162.958 236.415 162.804V157.484H238.389ZM243.991 162.874L244.047 162.902C244.187 162.972 244.565 163.238 245.447 163.238C247.967 163.238 248.023 160.536 248.023 159.486C248.023 156.42 246.651 155.846 245.559 155.846C244.999 155.846 244.397 156.028 243.809 156.574C243.767 156.448 243.739 156.322 243.683 156.196C243.529 155.776 243.389 155.818 243.165 155.888L242.101 156.238C242.031 156.266 241.947 156.308 241.947 156.392C241.947 156.434 241.961 156.476 242.003 156.616C242.101 156.91 242.213 157.372 242.213 158.576V165.758C242.213 166.024 242.325 165.982 242.437 165.954L243.725 165.688C244.005 165.632 243.991 165.562 243.991 165.436V162.874ZM243.991 157.778L244.047 157.722C244.271 157.498 244.621 157.246 245.069 157.246C246.217 157.246 246.245 158.59 246.245 159.444C246.245 160.536 246.189 160.942 246.021 161.25C245.755 161.754 245.321 161.838 244.999 161.838C244.803 161.838 244.397 161.824 243.991 161.572V157.778ZM249.649 162.804C249.649 162.986 249.691 163 249.845 163H251.231C251.413 163 251.427 162.93 251.497 162.804L252.827 160.34C253.009 160.004 253.219 159.71 253.709 158.632H253.765C253.709 159.57 253.695 159.878 253.695 160.144V162.804C253.695 162.986 253.737 163 253.891 163H255.277C255.459 163 255.473 162.958 255.473 162.804V156.028C255.473 155.818 255.361 155.832 255.249 155.86L254.129 156.084C253.891 156.126 253.821 156.098 253.653 156.378L252.295 158.744C252.029 159.206 251.791 159.626 251.413 160.452H251.357C251.385 160.102 251.427 159.332 251.427 158.94V156.028C251.427 155.818 251.315 155.832 251.203 155.86L249.915 156.126C249.635 156.182 249.649 156.252 249.649 156.378V162.804ZM257.568 157.54C257.582 157.568 257.624 157.638 257.708 157.638C257.778 157.638 257.848 157.582 258.072 157.456C258.226 157.372 258.618 157.148 259.164 157.148C259.738 157.148 260.074 157.47 260.074 157.932C260.074 158.73 259.36 158.786 258.884 158.786H258.562C258.408 158.786 258.366 158.828 258.366 158.982V159.892C258.366 160.046 258.408 160.088 258.562 160.088H258.87C259.304 160.088 260.186 160.088 260.186 160.928C260.186 161.292 260.018 161.936 259.08 161.936C258.562 161.936 258.226 161.824 257.764 161.572C257.582 161.474 257.47 161.404 257.372 161.404C257.288 161.404 257.246 161.446 257.218 161.516L256.91 162.244C256.896 162.286 256.868 162.342 256.868 162.398C256.868 162.608 257.12 162.72 257.344 162.832C257.834 163.084 258.59 163.238 259.206 163.238C260.802 163.238 261.964 162.412 261.964 160.956C261.964 160.06 261.446 159.542 260.83 159.374V159.332C261.474 159.094 261.81 158.506 261.81 157.778C261.81 157.134 261.502 156.7 261.194 156.42C260.62 155.902 259.892 155.846 259.402 155.846C258.352 155.846 257.708 156.14 257.414 156.308C257.316 156.364 257.064 156.518 257.064 156.7C257.064 156.742 257.078 156.784 257.106 156.826L257.568 157.54ZM265.892 163C266.634 163 267.572 162.972 268.23 162.44C268.888 161.922 268.972 161.194 268.972 160.69C268.972 160.102 268.832 159.514 268.286 159.052C267.656 158.52 266.872 158.492 266.088 158.492H265.304V156.028C265.304 155.818 265.192 155.832 265.08 155.86L264.016 156.084C263.512 156.196 263.526 156.182 263.526 156.378V162.804C263.526 162.986 263.568 163 263.722 163H265.892ZM265.304 159.892H266.158C266.452 159.892 267.194 159.906 267.194 160.746C267.194 161.558 266.522 161.6 266.004 161.6H265.304V159.892ZM269.938 162.804C269.938 162.986 269.98 163 270.134 163H271.52C271.702 163 271.716 162.958 271.716 162.804V156.028C271.716 155.818 271.604 155.832 271.492 155.86L270.204 156.126C269.924 156.182 269.938 156.252 269.938 156.378V162.804Z" fill="#85312C"/>
<defs>
<filter id="filter0_d" x="69.5249" y="81.5439" width="235.506" height="99.9168" filterUnits="userSpaceOnUse" color-interpolation-filters="sRGB">
<feFlood flood-opacity="0" result="BackgroundImageFix"/>
<feColorMatrix in="SourceAlpha" type="matrix" values="0 0 0 0 0 0 0 0 0 0 0 0 0 0 0 0 0 0 127 0"/>
<feOffset/>
<feGaussianBlur stdDeviation="4"/>
<feColorMatrix type="matrix" values="0 0 0 0 0 0 0 0 0 0 0 0 0 0 0 0 0 0 0.45 0"/>
<feBlend mode="normal" in2="BackgroundImageFix" result="effect1_dropShadow"/>
<feBlend mode="normal" in="SourceGraphic" in2="effect1_dropShadow" result="shape"/>
</filter>
<filter id="filter1_d" x="0.234863" y="0.162354" width="351.098" height="126.194" filterUnits="userSpaceOnUse" color-interpolation-filters="sRGB">
<feFlood flood-opacity="0" result="BackgroundImageFix"/>
<feColorMatrix in="SourceAlpha" type="matrix" values="0 0 0 0 0 0 0 0 0 0 0 0 0 0 0 0 0 0 127 0"/>
<feOffset/>
<feGaussianBlur stdDeviation="4"/>
<feColorMatrix type="matrix" values="0 0 0 0 0 0 0 0 0 0 0 0 0 0 0 0 0 0 0.45 0"/>
<feBlend mode="normal" in2="BackgroundImageFix" result="effect1_dropShadow"/>
<feBlend mode="normal" in="SourceGraphic" in2="effect1_dropShadow" result="shape"/>
</filter>
<filter id="filter2_d" x="53.6157" y="23.5206" width="242.174" height="81.4825" filterUnits="userSpaceOnUse" color-interpolation-filters="sRGB">
<feFlood flood-opacity="0" result="BackgroundImageFix"/>
<feColorMatrix in="SourceAlpha" type="matrix" values="0 0 0 0 0 0 0 0 0 0 0 0 0 0 0 0 0 0 127 0"/>
<feOffset/>
<feGaussianBlur stdDeviation="6.5"/>
<feColorMatrix type="matrix" values="0 0 0 0 0 0 0 0 0 0 0 0 0 0 0 0 0 0 0.6 0"/>
<feBlend mode="normal" in2="BackgroundImageFix" result="effect1_dropShadow"/>
<feBlend mode="normal" in="SourceGraphic" in2="effect1_dropShadow" result="shape"/>
</filter>
</defs>
</svg>
