<svg width="352" height="164" viewBox="0 0 352 164" fill="none" xmlns="http://www.w3.org/2000/svg">
<g filter="url(#filter0_d)">
<path d="M44.051 30.0464L337.203 14.1948L311.735 128.165L14.795 144.253L44.051 30.0464Z" fill="#DD1010"/>
<path d="M43.916 27.5501L42.0844 27.6491L41.6292 29.426L12.3732 143.632L11.5276 146.933L14.9302 146.749L311.87 130.661L313.762 130.559L314.175 128.71L339.643 14.74L340.363 11.5203L337.068 11.6985L43.916 27.5501Z" stroke="#F7D431" stroke-width="5"/>
</g>
<g filter="url(#filter1_d)">
<path d="M49.7245 49.5007C49.3405 49.5013 49.3429 49.6693 49.2973 49.8373L46.2298 65.321C46.2079 65.465 46.1853 65.561 46.1866 65.657C46.19 65.897 46.3107 65.9448 46.5507 65.9444L50.4867 65.9382C52.4307 65.9351 54.636 65.7396 56.1474 64.0093C56.8557 63.1923 57.367 62.0156 57.3489 60.7437C57.3253 59.0879 56.4428 57.7934 55.068 57.3156C55.6406 57.0747 56.3547 56.6656 56.8762 56.2088C57.7056 55.4635 58.2669 54.4307 58.2478 53.0869C58.1975 49.5592 54.7405 49.4927 53.7805 49.4942L49.7245 49.5007ZM51.142 56.3379L52.0147 51.8968L53.1667 51.895C53.8387 51.894 55.1107 51.8919 55.1333 53.4758C55.1428 54.1477 54.9604 54.8199 54.5833 55.3005C53.8999 56.1895 52.846 56.3352 52.03 56.3365L51.142 56.3379ZM49.7085 63.5396L50.6722 58.7384L52.0162 58.7363C52.7602 58.7351 54.0812 58.805 54.1068 60.6048C54.1219 61.6607 53.7231 62.3093 53.4159 62.6458C52.6598 63.4869 51.6045 63.5366 50.6925 63.538L49.7085 63.5396ZM62.9901 49.4796C62.6061 49.4802 62.6085 49.6482 62.5629 49.8163L59.5194 65.2999C59.4975 65.4439 59.4749 65.5399 59.4762 65.6359C59.4797 65.8759 59.6003 65.9237 59.8403 65.9233L64.1123 65.9166C65.8163 65.9138 67.9729 65.6704 69.4133 64.0123C70.3343 62.9549 70.7674 61.3464 70.7479 59.9785C70.7257 58.4187 70.041 57.5318 69.5788 57.1006C68.4598 56.0464 66.9951 56.0008 66.0111 56.0023L64.4991 56.0047L65.639 50.0994C65.661 49.9554 65.6836 49.8593 65.6822 49.7633C65.6788 49.5234 65.5581 49.4756 65.3181 49.4759L62.9901 49.4796ZM63.0434 63.3265L63.9841 58.5973L65.0641 58.5956C65.7361 58.5946 67.487 58.5198 67.5151 60.4876C67.5246 61.1595 67.3189 61.8798 66.8701 62.3845C66.0907 63.2736 64.8914 63.3235 64.0754 63.3248L63.0434 63.3265ZM75.2541 49.4602C74.8701 49.4608 74.8725 49.6288 74.8269 49.7968L71.7594 65.2805C71.7375 65.4245 71.7149 65.5205 71.7162 65.6165C71.7196 65.8565 71.8403 65.9043 72.0803 65.9039L74.4083 65.9002C74.7923 65.8996 74.7899 65.7316 74.8355 65.5636L77.903 50.0799C77.925 49.9359 77.9476 49.8399 77.9462 49.7439C77.9428 49.5039 77.8221 49.4561 77.5821 49.4565L75.2541 49.4602ZM90.4857 58.8913C90.4206 57.6915 90.252 55.9639 90.1969 55.46L89.4908 49.7016C89.4366 49.2697 89.5073 49.1736 88.8123 49.2467L86.631 49.4421C86.3434 49.4666 86.0314 49.4671 86.0351 49.7311C86.0362 49.803 86.0132 49.8751 86.065 50.139L87.8762 61.0312C87.9033 61.2472 88.0233 61.247 88.0953 61.2469L89.6312 61.2444L89.2825 62.0369C89.0734 62.5172 88.4421 63.6941 87.1701 63.6962C86.7621 63.6968 86.3761 63.5534 86.0857 63.3859C85.8193 63.2183 85.6006 63.0267 85.4326 63.027C85.3366 63.0271 85.2176 63.0993 85.1709 63.1954L84.1166 64.9969C83.6715 65.7655 86.2231 66.2895 86.9911 66.2882C88.239 66.2863 89.1216 65.9009 89.7151 65.444C90.5698 64.7947 91.0598 63.81 91.4562 62.9934L97.5856 50.1687C97.6089 50.1207 97.6319 50.0486 97.6552 50.0006C97.6549 49.9766 97.6789 49.9766 97.6785 49.9526C97.7255 49.8805 97.7728 49.8324 97.7718 49.7604C97.768 49.4965 97.4801 49.4969 97.3117 49.4732L95.244 49.2125C94.8353 49.1651 94.7914 49.4532 94.6515 49.7414L92.0688 55.457C91.2082 57.3782 90.7206 58.5309 90.5817 58.8911L90.4857 58.8913ZM100.396 49.4203C100.012 49.4209 100.015 49.5889 99.9691 49.757L96.9016 65.2406C96.8797 65.3846 96.8571 65.4806 96.8584 65.5766C96.8619 65.8166 96.9825 65.8644 97.2225 65.864L101.159 65.8578C103.103 65.8547 105.308 65.6592 106.819 63.929C107.528 63.1119 108.039 61.9352 108.021 60.6633C107.997 59.0075 107.115 57.713 105.74 57.2352C106.312 56.9943 107.027 56.5852 107.548 56.1284C108.377 55.3832 108.939 54.3504 108.92 53.0065C108.869 49.4789 105.412 49.4123 104.452 49.4139L100.396 49.4203ZM101.814 56.2575L102.687 51.8165L103.839 51.8147C104.511 51.8136 105.783 51.8116 105.805 53.3954C105.815 54.0673 105.632 54.7396 105.255 55.2201C104.572 56.1092 103.518 56.2548 102.702 56.2561L101.814 56.2575ZM100.38 63.4592L101.344 58.6581L102.688 58.6559C103.432 58.6548 104.753 58.7247 104.779 60.5245C104.794 61.5804 104.395 62.2289 104.088 62.5654C103.332 63.4065 102.276 63.4562 101.364 63.4577L100.38 63.4592ZM113.686 49.3992C113.302 49.3998 113.304 49.5678 113.259 49.7359L110.191 65.2195C110.169 65.3635 110.147 65.4596 110.148 65.5556C110.151 65.7955 110.272 65.8433 110.512 65.843L118.48 65.8303C118.864 65.8297 118.862 65.6617 118.907 65.4937L119.288 63.5732C119.332 63.3092 118.972 63.3097 118.876 63.3099L113.716 63.3181L114.656 58.493L118.784 58.4864C119.096 58.4859 119.143 58.4619 119.211 58.1498L119.546 56.3974C119.568 56.2534 119.636 55.9653 119.228 55.9659L115.172 55.9723L115.978 51.9154L120.682 51.9079C120.85 51.9077 121.018 51.9314 121.181 51.5952L122.021 49.89C122.067 49.7699 122.114 49.6978 122.113 49.6018C122.11 49.3619 121.87 49.3862 121.702 49.3865L113.686 49.3992ZM126.553 49.3788C126.169 49.3794 126.172 49.5474 126.126 49.7155L123.058 65.1991C123.036 65.3431 123.014 65.4392 123.015 65.5352C123.019 65.7751 123.139 65.8229 123.379 65.8226L125.707 65.8189C126.091 65.8183 126.089 65.6503 126.135 65.4822L127.366 59.2408L128.614 59.2388C132.718 59.2323 135.203 56.7805 135.152 53.2529C135.103 49.7732 132.601 49.3692 130.873 49.372L126.553 49.3788ZM127.881 56.6481L128.798 51.9671L130.022 51.9651C130.646 51.9641 132.015 52.0579 132.039 53.7138C132.051 54.5297 131.865 56.6418 128.601 56.647L127.881 56.6481ZM139.162 49.3588C138.778 49.3594 138.781 49.5274 138.735 49.6955L135.668 65.1791C135.646 65.3231 135.623 65.4192 135.625 65.5152C135.628 65.7551 135.749 65.8029 135.989 65.8026L143.957 65.7899C144.341 65.7893 144.338 65.6213 144.384 65.4533L144.765 63.5328C144.809 63.2688 144.449 63.2693 144.353 63.2695L139.193 63.2777L140.132 58.4526L144.26 58.446C144.572 58.4455 144.62 58.4214 144.687 58.1094L145.022 56.357C145.044 56.2129 145.112 55.9249 144.704 55.9255L140.648 55.9319L141.454 51.875L146.158 51.8675C146.326 51.8673 146.495 51.891 146.658 51.5548L147.498 49.8496C147.544 49.7295 147.591 49.6574 147.59 49.5614C147.586 49.3215 147.346 49.3458 147.178 49.3461L139.162 49.3588ZM152.03 49.3384C151.646 49.339 151.648 49.507 151.602 49.6751L148.535 65.1587C148.513 65.3027 148.49 65.3988 148.492 65.4947C148.495 65.7347 148.616 65.7825 148.856 65.7821L151.184 65.7785C151.568 65.7778 151.565 65.6099 151.611 65.4418L152.953 58.5522L157.369 58.5452L156.071 65.1468C156.049 65.2908 156.026 65.3868 156.028 65.4828C156.031 65.7228 156.152 65.7706 156.392 65.7702L158.72 65.7665C159.104 65.7659 159.101 65.5979 159.147 65.4299L162.215 49.9462C162.236 49.8022 162.259 49.7062 162.258 49.6102C162.254 49.3702 162.134 49.3224 161.894 49.3228L159.566 49.3265C159.182 49.3271 159.184 49.4951 159.138 49.6631L157.884 55.9526L153.492 55.9596L154.679 49.9582C154.7 49.8141 154.723 49.7181 154.722 49.6221C154.718 49.3821 154.598 49.3343 154.358 49.3347L152.03 49.3384ZM166.677 49.3152C166.293 49.3158 166.296 49.4838 166.25 49.6518L163.207 65.1354C163.185 65.2795 163.162 65.3755 163.164 65.4715C163.167 65.7115 163.288 65.7593 163.528 65.7589L167.8 65.7521C169.504 65.7494 171.66 65.506 173.101 63.8478C174.022 62.7905 174.455 61.1819 174.435 59.814C174.413 58.2542 173.728 57.3674 173.266 56.9361C172.147 55.882 170.682 55.8363 169.698 55.8379L168.186 55.8403L169.326 49.9349C169.348 49.7909 169.371 49.6949 169.37 49.5989C169.366 49.3589 169.245 49.3111 169.005 49.3115L166.677 49.3152ZM166.731 63.162L167.671 58.4329L168.751 58.4312C169.423 58.4301 171.174 58.3553 171.202 60.3231C171.212 60.9951 171.006 61.7153 170.557 62.22C169.778 63.1092 168.579 63.1591 167.763 63.1604L166.731 63.162ZM178.941 49.2957C178.557 49.2963 178.56 49.4643 178.514 49.6324L175.447 65.116C175.425 65.26 175.402 65.3561 175.404 65.4521C175.407 65.692 175.528 65.7398 175.768 65.7395L178.096 65.7358C178.48 65.7352 178.477 65.5672 178.523 65.3991L181.59 49.9155C181.612 49.7715 181.635 49.6754 181.634 49.5794C181.63 49.3395 181.509 49.2917 181.269 49.292L178.941 49.2957ZM186.224 62.4111C186.271 62.3631 186.389 62.2189 186.386 62.0269C186.385 61.9069 186.335 61.763 186.071 61.7634L183.311 61.7678C183.239 61.7679 183.095 61.7922 182.978 62.0323L180.577 67.0037C180.507 67.1238 180.484 67.1719 180.485 67.2919C180.487 67.4358 180.608 67.4837 180.729 67.5555L181.697 68.1299C181.77 68.1778 181.867 68.2496 181.963 68.2494C182.083 68.2493 182.106 68.1772 182.2 68.0571L186.224 62.4111Z" fill="white"/>
<path d="M196.479 49.2679C196.047 49.2686 195.955 49.5567 195.91 49.7488L194.768 55.5581C194.7 55.8462 194.704 56.1342 194.709 56.4222C194.72 57.2141 194.852 58.0298 195.63 58.7725C196.481 59.5631 197.491 59.6575 198.283 59.6562C199.195 59.6548 200.225 59.5092 201.514 59.0032L200.282 65.2206C200.237 65.4127 200.145 65.7008 200.649 65.7L202.857 65.6965C203.073 65.6962 203.337 65.6717 203.426 65.2156L206.494 49.732C206.539 49.5639 206.583 49.2519 206.103 49.2526L203.895 49.2562C203.439 49.2569 203.395 49.5449 203.35 49.737L202.03 56.4825C201.028 56.9641 200.238 57.0613 199.614 57.0623C198.966 57.0634 197.955 56.897 197.94 55.7931C197.936 55.5291 197.956 55.2651 198.024 54.977L199.054 49.7438C199.098 49.5277 199.167 49.2637 198.687 49.2644L196.479 49.2679ZM215.119 51.9981L218.095 51.9934C218.263 51.9931 218.432 52.0169 218.595 51.6806L219.527 49.7353C219.55 49.6633 219.597 49.5912 219.619 49.4712C219.619 49.4472 219.619 49.4232 219.618 49.3992C219.592 49.2073 219.352 49.2316 219.208 49.2319L209.392 49.2474C208.96 49.2481 209.01 49.392 208.965 49.5841L208.582 51.3845C208.537 51.5526 208.514 51.6486 208.516 51.7446C208.52 52.0326 208.759 52.0082 208.927 52.008L211.999 52.0031L209.377 65.0622C209.332 65.2303 209.333 65.3263 209.334 65.3983C209.338 65.6382 209.458 65.686 209.698 65.6857L212.026 65.682C212.41 65.6813 212.408 65.5134 212.453 65.3453L215.119 51.9981ZM229.793 53.9667C229.774 52.6708 229.503 48.8076 225.423 48.814C223.863 48.8165 221.255 49.3966 219.335 52.7354C218.047 54.9933 217.444 58.138 217.483 60.9217C217.543 65.1213 219.885 66.0775 221.829 66.0744C224.085 66.0708 226.444 64.8912 227.989 62.1769C229.23 59.9671 229.829 56.5104 229.793 53.9667ZM222.321 63.5538C220.905 63.556 220.742 62.2124 220.728 61.2285C220.702 59.4287 220.974 56.6205 222.019 54.147C222.46 53.0664 223.395 51.3371 225.003 51.3345C226.467 51.3322 226.536 52.844 226.548 53.6359C226.575 55.5317 226.373 58.1958 225.305 60.7413C224.841 61.8459 223.953 63.5512 222.321 63.5538ZM243.936 65.4154C244.036 65.7272 244.063 65.9431 244.494 65.8224L246.694 65.243C246.861 65.1947 247.077 65.1704 247.074 64.9784C247.073 64.9304 247.072 64.8584 247.022 64.7145L244.059 57.2318L249.503 50.1917C249.574 50.1196 249.597 50.0236 249.595 49.9276C249.593 49.7356 249.4 49.6639 249.255 49.6162L247.11 49.0196C246.845 48.9481 246.653 48.9244 246.442 49.2367L244.021 52.8882C243.622 53.4888 243.435 53.8251 242.944 54.7858L242.896 54.7859C242.662 53.4663 242.638 53.4904 242.462 52.9147L241.428 49.4126C241.403 49.3407 241.402 49.2687 241.377 49.1967C241.351 49.1008 241.277 48.9089 240.894 49.0055L238.694 49.5849C238.192 49.7057 238.267 49.9216 238.342 50.1134L241.15 56.8765L234.925 64.6377C234.854 64.7338 234.831 64.8299 234.832 64.8539C234.832 64.8778 234.833 64.9258 234.833 64.9498C234.86 65.1418 235.028 65.1655 235.173 65.2133L237.317 65.8098C237.462 65.8576 237.558 65.8574 237.606 65.8574C237.75 65.8571 237.797 65.7851 237.939 65.6409C237.986 65.5928 238.033 65.5207 238.081 65.4726L241.048 61.5083C241.472 60.9316 241.825 60.4511 242.223 59.7545L242.271 59.7545C242.326 60.2103 242.428 60.6661 242.83 61.9134L243.936 65.4154ZM261.738 53.916C261.719 52.6202 261.448 48.7569 257.368 48.7634C255.808 48.7658 253.201 49.3459 251.28 52.6847C249.992 54.9426 249.389 58.0873 249.429 60.871C249.488 65.0706 251.83 66.0268 253.774 66.0237C256.03 66.0201 258.389 64.8405 259.935 62.1262C261.175 59.9165 261.774 56.4598 261.738 53.916ZM254.266 63.5031C252.85 63.5054 252.687 62.1617 252.673 61.1778C252.647 59.378 252.919 56.5698 253.964 54.0964C254.405 53.0157 255.34 51.2864 256.948 51.2838C258.412 51.2815 258.482 52.7933 258.493 53.5852C258.52 55.481 258.318 58.1451 257.25 60.6906C256.786 61.7953 255.898 63.5005 254.266 63.5031ZM270.76 51.9099L273.736 51.9052C273.904 51.9049 274.072 51.9286 274.235 51.5924L275.168 49.6471C275.191 49.575 275.238 49.503 275.26 49.3829C275.26 49.3589 275.259 49.335 275.259 49.311C275.232 49.119 274.993 49.1434 274.849 49.1436L265.033 49.1592C264.601 49.1599 264.651 49.3038 264.605 49.4958L264.223 51.2963C264.177 51.4644 264.155 51.5604 264.156 51.6564C264.16 51.9444 264.4 51.92 264.568 51.9197L267.64 51.9148L265.018 64.974C264.972 65.142 264.974 65.238 264.975 65.31C264.978 65.55 265.099 65.5978 265.339 65.5974L267.667 65.5937C268.051 65.5931 268.048 65.4251 268.094 65.2571L270.76 51.9099ZM285.718 49.1264C285.286 49.1271 285.217 49.3672 285.029 49.6314L280.607 55.926C280.113 56.6467 278.753 58.9287 278.402 59.5292L278.306 59.5293C278.89 56.7206 278.58 58.569 279.028 56.2884L280.327 49.7589C280.372 49.5908 280.371 49.4948 280.37 49.4228C280.367 49.1829 280.246 49.1351 280.006 49.1354L277.678 49.1391C277.294 49.1397 277.296 49.3077 277.251 49.4758L274.183 64.9594C274.161 65.1034 274.139 65.1995 274.14 65.2955C274.143 65.5354 274.264 65.5832 274.504 65.5829L276.712 65.5794C277.048 65.5788 277.143 65.4827 277.354 65.1704L282.128 58.2754C282.833 57.2423 283.422 56.4014 284.028 55.1766L284.124 55.1764C283.942 55.8727 283.671 57.049 283.536 57.6972L282.103 64.9469C282.081 65.0909 282.059 65.1869 282.06 65.2829C282.063 65.5229 282.184 65.5707 282.424 65.5703L284.752 65.5666C285.136 65.566 285.134 65.398 285.179 65.23L288.247 49.7463C288.269 49.6023 288.291 49.5063 288.29 49.4103C288.287 49.1703 288.166 49.1225 287.926 49.1229L285.718 49.1264ZM296.916 51.8684L299.892 51.8637C300.06 51.8634 300.228 51.8871 300.392 51.5509L301.324 49.6056C301.347 49.5336 301.394 49.4615 301.416 49.3415C301.416 49.3175 301.415 49.2935 301.415 49.2695C301.388 49.0775 301.149 49.1019 301.005 49.1021L291.189 49.1177C290.757 49.1184 290.807 49.2623 290.762 49.4544L290.379 51.2548C290.334 51.4229 290.311 51.5189 290.312 51.6149C290.316 51.9029 290.556 51.8785 290.724 51.8782L293.796 51.8733L291.174 64.9325C291.128 65.1005 291.13 65.1965 291.131 65.2685C291.134 65.5085 291.255 65.5563 291.495 65.5559L293.823 65.5522C294.207 65.5516 294.205 65.3836 294.25 65.2156L296.916 51.8684ZM303.834 49.0976C303.45 49.0983 303.453 49.2662 303.407 49.4343L300.339 64.9179C300.317 65.062 300.295 65.158 300.296 65.254C300.3 65.494 300.42 65.5418 300.66 65.5414L308.628 65.5287C309.012 65.5281 309.01 65.3602 309.056 65.1921L309.436 63.2716C309.48 63.0076 309.12 63.0082 309.024 63.0083L303.864 63.0165L304.804 58.1914L308.932 58.1848C309.244 58.1844 309.291 58.1603 309.359 57.8482L309.694 56.0958C309.716 55.9518 309.784 55.6637 309.376 55.6643L305.32 55.6708L306.126 51.6138L310.83 51.6064C310.998 51.6061 311.166 51.6298 311.33 51.2936L312.169 49.5884C312.216 49.4683 312.263 49.3963 312.261 49.3003C312.258 49.0603 312.018 49.0847 311.85 49.0849L303.834 49.0976ZM76.1971 78.2084C76.1787 76.9125 75.9076 73.0493 71.8276 73.0558C70.2676 73.0582 67.6599 73.6383 65.7394 76.9771C64.4515 79.235 63.8483 82.3797 63.888 85.1634C63.9478 89.363 66.2895 90.3192 68.2335 90.3161C70.4895 90.3125 72.8487 89.1329 74.3941 86.4186C75.6346 84.2088 76.2334 80.7522 76.1971 78.2084ZM68.7256 87.7955C67.3096 87.7978 67.1464 86.4541 67.1324 85.4702C67.1068 83.6704 67.3788 80.8622 68.4236 78.3887C68.8642 77.3081 69.7995 75.5788 71.4075 75.5762C72.8715 75.5739 72.9411 77.0857 72.9524 77.8776C72.9794 79.7734 72.7773 82.4375 71.7096 84.983C71.2453 86.0876 70.3576 87.7929 68.7256 87.7955ZM85.2192 76.2023L88.1952 76.1975C88.3632 76.1973 88.5315 76.221 88.6947 75.8848L89.6271 73.9394C89.65 73.8674 89.697 73.7953 89.7193 73.6753C89.7189 73.6513 89.7186 73.6273 89.7183 73.6033C89.6915 73.4114 89.4519 73.4358 89.3079 73.436L79.4919 73.4516C79.0599 73.4522 79.1099 73.5962 79.0647 73.7882L78.6823 75.5887C78.6367 75.7567 78.6141 75.8528 78.6154 75.9488C78.6195 76.2367 78.8592 76.2123 79.0272 76.2121L82.0992 76.2072L79.4772 89.2663C79.4316 89.4344 79.433 89.5304 79.434 89.6024C79.4374 89.8424 79.5581 89.8902 79.7981 89.8898L82.1261 89.8861C82.5101 89.8855 82.5077 89.7175 82.5533 89.5494L85.2192 76.2023ZM95.2702 89.8652L94.6207 93.13C94.6214 93.178 94.6217 93.202 94.6224 93.25C94.6234 93.322 94.5765 93.3941 94.5775 93.4661C94.5806 93.682 94.7016 93.7538 94.9656 93.7534L97.0776 93.7501C97.4616 93.7495 97.4822 93.5094 97.5048 93.4134L98.5781 87.8922C98.6001 87.7481 98.6227 87.6521 98.6214 87.5561C98.6173 87.2681 98.4253 87.2684 98.2813 87.2687L97.2493 87.2703L99.8689 74.0432C99.8908 73.8992 99.9135 73.8031 99.9121 73.7072C99.9087 73.4672 99.788 73.4194 99.548 73.4198L91.796 73.432C91.412 73.4327 91.4144 73.6006 91.3688 73.7687L90.9202 75.9772C90.1799 79.6021 89.5839 81.5709 89.3535 82.2432C88.7328 84.1641 88.034 85.6531 86.8813 87.2868L86.1853 87.2879C85.8013 87.2885 85.779 87.4085 85.7341 87.6245L84.6367 93.1458C84.6374 93.1938 84.6377 93.2178 84.6384 93.2658C84.6394 93.3378 84.5925 93.4099 84.5935 93.4819C84.5966 93.6979 84.7176 93.7697 84.9816 93.7693L87.0936 93.7659C87.4776 93.7653 87.4982 93.5253 87.5208 93.4293L88.2142 89.8764L95.2702 89.8652ZM93.8729 76.0205L96.3449 76.0166L94.1053 87.2753L89.9533 87.2819C90.7529 86.1287 91.2428 85.144 91.7976 83.6552C92.4221 81.9984 92.9947 80.0776 93.4453 78.0131L93.8729 76.0205ZM107.991 73.4064C107.871 73.4066 107.679 73.3829 107.562 73.623L99.8891 89.282C99.8425 89.378 99.7715 89.4501 99.7735 89.5941C99.7753 89.7141 99.8493 89.858 100.089 89.8576L102.561 89.8537C102.897 89.8531 102.967 89.661 103.037 89.517L104.827 85.4824L108.907 85.476L109.134 89.5793C109.134 89.6273 109.161 89.8432 109.449 89.8428L111.969 89.8388C112.089 89.8386 112.401 89.8381 112.373 89.5021L110.733 73.81C110.703 73.4261 110.535 73.4023 110.295 73.4027L107.991 73.4064ZM108.804 83.3163L105.588 83.3214L107.725 78.3024C107.911 77.8701 108.121 77.4858 108.35 76.6695L108.398 76.6695C108.406 77.2934 108.471 78.4452 108.502 78.9251L108.804 83.3163ZM120.891 76.1457L123.867 76.141C124.035 76.1407 124.203 76.1644 124.367 75.8282L125.299 73.8829C125.322 73.8108 125.369 73.7388 125.391 73.6187C125.391 73.5947 125.39 73.5708 125.39 73.5468C125.363 73.3548 125.124 73.3792 124.98 73.3794L115.164 73.395C114.732 73.3957 114.782 73.5396 114.737 73.7316L114.354 75.5321C114.309 75.7002 114.286 75.7962 114.287 75.8922C114.291 76.1802 114.531 76.1558 114.699 76.1555L117.771 76.1506L115.149 89.2098C115.103 89.3778 115.105 89.4738 115.106 89.5458C115.109 89.7858 115.23 89.8336 115.47 89.8332L117.798 89.8295C118.182 89.8289 118.18 89.6609 118.225 89.4929L120.891 76.1457ZM127.785 73.375C127.401 73.3756 127.403 73.5436 127.358 73.7116L124.314 89.1952C124.292 89.3392 124.27 89.4353 124.271 89.5313C124.275 89.7712 124.395 89.819 124.635 89.8187L128.907 89.8119C130.611 89.8092 132.768 89.5658 134.208 87.9076C135.129 86.8503 135.562 85.2417 135.543 83.8738C135.521 82.314 134.836 81.4272 134.374 80.9959C133.255 79.9418 131.79 79.8961 130.806 79.8977L129.294 79.9001L130.434 73.9947C130.456 73.8507 130.479 73.7547 130.477 73.6587C130.474 73.4187 130.353 73.3709 130.113 73.3713L127.785 73.375ZM127.838 87.2218L128.779 82.4927L129.859 82.491C130.531 82.4899 132.282 82.4151 132.31 84.3829C132.32 85.0549 132.114 85.7751 131.665 86.2798C130.886 87.169 129.686 87.2189 128.87 87.2202L127.838 87.2218ZM151.271 86.8727C151.222 86.7767 151.197 86.7048 151.101 86.7049C150.933 86.7052 150.719 86.8495 150.505 86.9699C149.6 87.4993 148.881 87.5964 148.449 87.5971C147.681 87.5983 147.222 87.359 146.93 87.0955C146.346 86.5445 146.26 85.5127 146.25 84.8168C146.221 82.801 146.498 80.3047 147.571 78.1432C148.62 75.9817 149.981 75.5236 150.869 75.5222C151.517 75.5212 151.929 75.7365 152.536 76.2395C152.779 76.4551 152.973 76.6228 153.237 76.6223C153.381 76.6221 153.451 76.502 153.475 76.478L154.603 74.7483C154.626 74.7003 154.673 74.6762 154.672 74.5802C154.669 74.3403 154.401 74.1007 154.232 73.981C153.188 73.1667 151.913 72.9287 151.001 72.9302C149.537 72.9325 146.83 73.3208 144.884 76.5636C143.501 78.8696 142.965 81.6542 143.004 84.438C143.023 85.7578 143.246 87.9413 144.752 89.2108C145.457 89.8096 146.47 90.192 147.694 90.1901C148.894 90.1882 150.257 89.778 151.186 89.3446C151.496 89.2001 151.973 88.9594 151.969 88.6954C151.968 88.6234 151.943 88.5275 151.918 88.4795L151.271 86.8727ZM157.715 73.3275C157.331 73.3281 157.333 73.4961 157.288 73.6642L154.22 89.1478C154.198 89.2918 154.175 89.3878 154.177 89.4838C154.18 89.7238 154.301 89.7716 154.541 89.7712L158.477 89.765C160.421 89.7619 162.626 89.5664 164.138 87.8362C164.846 87.0191 165.357 85.8424 165.339 84.5705C165.315 82.9147 164.433 81.6202 163.058 81.1424C163.631 80.9015 164.345 80.4924 164.866 80.0356C165.696 79.2904 166.257 78.2576 166.238 76.9137C166.188 73.3861 162.731 73.3195 161.771 73.3211L157.715 73.3275ZM159.132 80.1647L160.005 75.7237L161.157 75.7219C161.829 75.7208 163.101 75.7188 163.123 77.3026C163.133 77.9745 162.951 78.6468 162.573 79.1273C161.89 80.0163 160.836 80.162 160.02 80.1633L159.132 80.1647ZM157.699 87.3664L158.662 82.5653L160.006 82.5631C160.75 82.562 162.071 82.6319 162.097 84.4317C162.112 85.4876 161.713 86.1361 161.406 86.4726C160.65 87.3137 159.595 87.3634 158.683 87.3649L157.699 87.3664ZM180.072 78.0437C180.054 76.7478 179.783 72.8845 175.703 72.891C174.143 72.8935 171.535 73.4736 169.614 76.8124C168.326 79.0702 167.723 82.2149 167.763 84.9986C167.823 89.1982 170.164 90.1544 172.108 90.1513C174.364 90.1478 176.724 88.9681 178.269 86.2539C179.509 84.0441 180.108 80.5874 180.072 78.0437ZM172.6 87.6308C171.184 87.633 171.021 86.2894 171.007 85.3055C170.982 83.5057 171.254 80.6974 172.298 78.224C172.739 77.1434 173.674 75.414 175.282 75.4115C176.746 75.4091 176.816 76.9209 176.827 77.7128C176.854 79.6086 176.652 82.2728 175.584 84.8183C175.12 85.9229 174.232 87.6282 172.6 87.6308ZM192.943 73.2716C192.511 73.2723 192.442 73.5124 192.254 73.7767L187.832 80.0712C187.338 80.7919 185.978 83.0739 185.627 83.6744L185.531 83.6746C186.115 80.8659 185.805 82.7142 186.253 80.4337L187.552 73.9041C187.597 73.7361 187.596 73.6401 187.595 73.5681C187.591 73.3281 187.471 73.2803 187.231 73.2807L184.903 73.2844C184.519 73.285 184.521 73.453 184.476 73.621L181.408 89.1047C181.386 89.2487 181.363 89.3447 181.365 89.4407C181.368 89.6807 181.489 89.7285 181.729 89.7281L183.937 89.7246C184.273 89.7241 184.368 89.6279 184.579 89.3156L189.353 82.4206C190.058 81.3876 190.646 80.5467 191.253 79.3218L191.349 79.3217C191.167 80.0179 190.896 81.1943 190.761 81.8424L189.328 89.0921C189.306 89.2361 189.283 89.3322 189.285 89.4282C189.288 89.6681 189.409 89.7159 189.649 89.7156L191.977 89.7119C192.361 89.7113 192.359 89.5433 192.404 89.3752L195.472 73.8916C195.494 73.7475 195.516 73.6515 195.515 73.5555C195.511 73.3156 195.391 73.2677 195.151 73.2681L192.943 73.2716ZM187.434 68.9847C187.29 69.0089 187.051 69.1053 187.054 69.2973L187.056 69.4653C187.067 70.2092 187.291 70.7368 187.511 71.0484C188.026 71.8395 188.847 72.1982 189.975 72.1964C191.607 72.1938 192.748 71.4241 193.264 70.5833C193.476 70.247 193.777 69.4786 193.773 69.2146C193.771 69.0466 193.602 68.9989 193.53 68.999L192.159 68.8092C192.087 68.8093 192.039 68.7854 191.967 68.7855C191.703 68.7859 191.658 68.978 191.565 69.1941C191.286 69.8665 190.86 70.2752 190.164 70.2763C189.324 70.2776 189.219 69.6538 189.211 69.0779L189.21 69.0299C189.207 68.7899 189.087 68.7901 188.703 68.8387L187.434 68.9847ZM205.551 73.2516C205.167 73.2522 205.17 73.4202 205.124 73.5883L202.056 89.0719C202.035 89.2159 202.012 89.312 202.013 89.408C202.017 89.6479 202.137 89.6957 202.377 89.6954L204.705 89.6917C205.089 89.6911 205.087 89.5231 205.133 89.355L207.774 76.0079L212.406 76.0005C212.67 76.0001 212.788 75.8559 212.858 75.7118L213.718 73.7426C213.765 73.6226 213.812 73.5745 213.811 73.4785C213.807 73.2385 213.543 73.239 213.495 73.239L205.551 73.2516ZM224.064 77.9739C224.046 76.678 223.775 72.8148 219.695 72.8212C218.135 72.8237 215.527 73.4038 213.606 76.7426C212.319 79.0004 211.715 82.1452 211.755 84.9289C211.815 89.1284 214.156 90.0847 216.1 90.0816C218.356 90.078 220.716 88.8983 222.261 86.1841C223.502 83.9743 224.1 80.5176 224.064 77.9739ZM216.593 87.561C215.177 87.5632 215.013 86.2196 214.999 85.2357C214.974 83.4359 215.246 80.6277 216.291 78.1542C216.731 77.0736 217.667 75.3443 219.275 75.3417C220.739 75.3394 220.808 76.8511 220.819 77.6431C220.846 79.5389 220.644 82.203 219.577 84.7485C219.112 85.8531 218.225 87.5584 216.593 87.561ZM232.652 75.8004L235.364 75.7961L232.744 89.0233C232.722 89.1673 232.7 89.2633 232.701 89.3593C232.704 89.5993 232.825 89.6471 233.065 89.6467L235.393 89.643C235.777 89.6424 235.775 89.4744 235.82 89.3064L238.888 73.8227C238.91 73.6787 238.932 73.5827 238.931 73.4867C238.928 73.2467 238.807 73.1989 238.567 73.1993L230.671 73.2118C230.287 73.2124 230.289 73.3804 230.244 73.5484L229.435 77.4614C229.166 78.7817 228.106 83.511 227.384 85.1201C226.757 86.5369 225.948 87.0422 224.894 87.1639L224.486 87.2125C224.175 87.261 224.131 87.573 224.133 87.693L224.284 89.8526C224.312 90.1165 224.527 90.0922 224.671 90.068L225.054 90.0194C226.971 89.7764 228.23 88.8864 229.055 87.8292C230.139 86.4356 230.874 84.1306 232.112 78.3451L232.652 75.8004ZM252.423 77.9289C252.405 76.633 252.134 72.7698 248.054 72.7763C246.494 72.7787 243.886 73.3588 241.966 76.6976C240.678 78.9555 240.075 82.1002 240.114 84.8839C240.174 89.0835 242.516 90.0397 244.46 90.0366C246.716 90.033 249.075 88.8534 250.62 86.1391C251.861 83.9293 252.46 80.4727 252.423 77.9289ZM244.952 87.516C243.536 87.5183 243.373 86.1746 243.359 85.1907C243.333 83.3909 243.605 80.5827 244.65 78.1092C245.09 77.0286 246.026 75.2993 247.634 75.2967C249.098 75.2944 249.167 76.8062 249.179 77.5981C249.206 79.4939 249.004 82.158 247.936 84.7035C247.472 85.8081 246.584 87.5134 244.952 87.516ZM262.271 86.6966C262.222 86.6007 262.197 86.5287 262.101 86.5289C261.933 86.5292 261.719 86.6735 261.504 86.7938C260.6 87.3232 259.881 87.4203 259.449 87.421C258.681 87.4222 258.222 87.183 257.93 86.9195C257.346 86.3684 257.26 85.3367 257.25 84.6407C257.221 82.6249 257.497 80.1287 258.571 77.9672C259.62 75.8057 260.981 75.3475 261.869 75.3461C262.517 75.3451 262.928 75.5604 263.536 76.0634C263.779 76.279 263.973 76.4467 264.237 76.4463C264.381 76.4461 264.451 76.326 264.475 76.3019L265.602 74.5723C265.626 74.5242 265.673 74.5002 265.672 74.4042C265.669 74.1642 265.401 73.9246 265.231 73.8049C264.188 72.9906 262.912 72.7527 262 72.7541C260.536 72.7565 257.83 73.1447 255.884 76.3875C254.501 78.6936 253.965 81.4782 254.004 84.2619C254.023 85.5818 254.246 87.7652 255.752 89.0348C256.457 89.6336 257.47 90.016 258.694 90.014C259.894 90.0121 261.256 89.602 262.186 89.1685C262.496 89.0241 262.973 88.7833 262.969 88.5194C262.968 88.4474 262.943 88.3514 262.918 88.3035L262.271 86.6966ZM273.889 81.9266C273.844 82.1426 273.824 82.4066 274.256 82.4059L275.168 82.4045C275.792 82.4035 277.376 82.401 277.403 84.2968C277.415 85.1367 277.092 86.0252 276.595 86.5299C276.335 86.7943 275.671 87.3953 274.327 87.3974C273.391 87.3989 272.62 87.1602 271.628 86.6338C271.435 86.5381 271.265 86.3944 271.073 86.3947C270.977 86.3948 270.906 86.4429 270.859 86.539L269.879 88.5084C269.856 88.5564 269.785 88.6285 269.786 88.7005C269.788 88.8685 270.368 89.1556 270.634 89.2751C271.744 89.7293 272.828 89.9916 274.172 89.9895C276.788 89.9853 278.476 88.8787 279.513 87.4852C280.29 86.452 280.656 85.2036 280.641 84.1477C280.63 83.4037 280.389 81.6523 278.579 80.9352C280.346 80.2844 281.643 78.6505 281.612 76.4907C281.58 74.235 280.046 72.7255 277.31 72.7299C275.87 72.7321 274.316 73.1186 273.15 73.8404C272.627 74.1772 272.27 74.3937 272.273 74.5857C272.273 74.6337 272.323 74.7296 272.347 74.7776L273.378 76.3358C273.427 76.4317 273.452 76.4797 273.596 76.4794C273.812 76.4791 274.025 76.2868 274.263 76.1184C274.667 75.8538 275.595 75.3244 276.699 75.3226C277.707 75.321 278.482 75.8237 278.498 76.9276C278.507 77.5756 278.347 79.8077 275.515 79.8121L274.771 79.8133C274.339 79.814 274.247 80.1021 274.202 80.2942L273.889 81.9266ZM289.772 73.1181C289.652 73.1182 289.46 73.0946 289.343 73.3347L281.67 88.9937C281.623 89.0897 281.553 89.1618 281.555 89.3058C281.556 89.4258 281.63 89.5697 281.87 89.5693L284.342 89.5654C284.678 89.5648 284.748 89.3727 284.818 89.2286L286.608 85.1941L290.688 85.1877L290.915 89.291C290.915 89.339 290.942 89.5549 291.23 89.5544L293.75 89.5504C293.87 89.5503 294.182 89.5498 294.154 89.2138L292.514 73.5217C292.484 73.1378 292.316 73.114 292.076 73.1144L289.772 73.1181ZM290.585 83.028L287.369 83.0331L289.506 78.0141C289.692 77.5818 289.902 77.1975 290.131 76.3812L290.179 76.3812C290.187 77.0051 290.252 78.1569 290.283 78.6368L290.585 83.028ZM83.3262 97.4436C82.9422 97.4442 82.9446 97.6122 82.899 97.7802L79.8316 113.264C79.8096 113.408 79.787 113.504 79.7883 113.6C79.7918 113.84 79.9125 113.888 80.1525 113.887L84.0884 113.881C86.0324 113.878 88.2377 113.683 89.7491 111.952C90.4575 111.135 90.9687 109.958 90.9506 108.687C90.927 107.031 90.0445 105.736 88.6697 105.258C89.2423 105.018 89.9565 104.609 90.478 104.152C91.3074 103.406 91.8687 102.374 91.8495 101.03C91.7993 97.5021 88.3422 97.4356 87.3822 97.4372L83.3262 97.4436ZM84.7437 104.281L85.6164 99.8398L86.7684 99.8379C87.4404 99.8369 88.7124 99.8349 88.735 101.419C88.7446 102.091 88.5621 102.763 88.185 103.243C87.5016 104.132 86.4477 104.278 85.6317 104.279L84.7437 104.281ZM83.3103 111.483L84.2739 106.681L85.6179 106.679C86.3619 106.678 87.6829 106.748 87.7085 108.548C87.7236 109.604 87.3248 110.252 87.0176 110.589C86.2616 111.43 85.2063 111.479 84.2943 111.481L83.3103 111.483ZM96.5919 97.4225C96.2079 97.4232 96.2102 97.5911 96.1646 97.7592L93.1212 113.243C93.0992 113.387 93.0766 113.483 93.078 113.579C93.0814 113.819 93.2021 113.867 93.4421 113.866L97.7141 113.859C99.4181 113.857 101.575 113.613 103.015 111.955C103.936 110.898 104.369 109.289 104.35 107.921C104.327 106.362 103.643 105.475 103.181 105.043C102.062 103.989 100.597 103.944 99.6128 103.945L98.1008 103.948L99.2407 98.0423C99.2627 97.8983 99.2853 97.8022 99.284 97.7063C99.2805 97.4663 99.1599 97.4185 98.9199 97.4189L96.5919 97.4225ZM96.6451 111.269L97.5858 106.54L98.6658 106.539C99.3378 106.537 101.089 106.463 101.117 108.431C101.126 109.102 100.921 109.823 100.472 110.327C99.6924 111.217 98.4931 111.266 97.6771 111.268L96.6451 111.269ZM108.856 97.4031C108.472 97.4037 108.474 97.5717 108.429 97.7397L105.361 113.223C105.339 113.367 105.317 113.463 105.318 113.559C105.321 113.799 105.442 113.847 105.682 113.847L108.01 113.843C108.394 113.843 108.392 113.675 108.437 113.506L111.505 98.0228C111.527 97.8788 111.549 97.7828 111.548 97.6868C111.545 97.4468 111.424 97.399 111.184 97.3994L108.856 97.4031ZM115.975 97.3918C115.591 97.3924 115.594 97.5604 115.548 97.7285L112.481 113.212C112.459 113.356 112.436 113.452 112.437 113.548C112.441 113.788 112.561 113.836 112.801 113.836L117.073 113.829C118.777 113.826 120.934 113.583 122.374 111.925C123.295 110.867 123.728 109.259 123.709 107.915C123.686 106.259 122.932 103.908 118.972 103.915L117.46 103.917L118.223 100.148L123.239 100.14C123.383 100.14 123.599 100.163 123.738 99.8273L124.574 97.8821C124.621 97.7861 124.668 97.714 124.666 97.594C124.663 97.354 124.423 97.3784 124.255 97.3787L115.975 97.3918ZM116.004 111.239L116.945 106.51L118.433 106.507C119.969 106.505 120.462 107.392 120.476 108.424C120.486 109.072 120.28 109.792 119.831 110.297C119.052 111.186 117.852 111.236 117.036 111.237L116.004 111.239ZM129.311 97.3707C128.927 97.3713 128.93 97.5392 128.884 97.7073L125.816 113.191C125.794 113.335 125.772 113.431 125.773 113.527C125.777 113.767 125.897 113.815 126.137 113.814L128.465 113.811C128.849 113.81 128.847 113.642 128.893 113.474L130.124 107.233L131.372 107.231C135.476 107.224 137.961 104.772 137.911 101.245C137.861 97.7651 135.359 97.3611 133.631 97.3638L129.311 97.3707ZM130.639 104.64L131.556 99.9589L132.78 99.9569C133.404 99.956 134.773 100.05 134.797 101.706C134.809 102.522 134.623 104.634 131.359 104.639L130.639 104.64ZM143.923 97.3475C143.803 97.3477 143.61 97.324 143.494 97.5641L135.821 113.223C135.774 113.319 135.703 113.391 135.705 113.535C135.707 113.655 135.781 113.799 136.021 113.799L138.493 113.795C138.829 113.794 138.898 113.602 138.968 113.458L140.759 109.424L144.839 109.417L145.065 113.52C145.066 113.568 145.093 113.784 145.381 113.784L147.901 113.78C148.021 113.78 148.333 113.779 148.304 113.443L146.665 97.7511C146.635 97.3672 146.467 97.3434 146.227 97.3438L143.923 97.3475ZM144.736 107.257L141.52 107.263L143.657 102.244C143.842 101.811 144.053 101.427 144.281 100.611L144.329 100.611C144.338 101.235 144.403 102.386 144.433 102.866L144.736 107.257ZM153.499 97.3323C153.115 97.3329 153.117 97.5009 153.071 97.6689L150.004 113.153C149.982 113.297 149.959 113.393 149.961 113.489C149.964 113.729 150.085 113.776 150.325 113.776L152.653 113.772C153.037 113.772 153.034 113.604 153.08 113.436L154.422 106.546L158.838 106.539L157.54 113.141C157.518 113.285 157.495 113.381 157.497 113.477C157.5 113.717 157.621 113.764 157.861 113.764L160.189 113.76C160.573 113.76 160.57 113.592 160.616 113.424L163.683 97.9401C163.705 97.7961 163.728 97.7 163.727 97.604C163.723 97.3641 163.603 97.3163 163.363 97.3166L161.035 97.3203C160.651 97.3209 160.653 97.4889 160.607 97.657L159.353 103.946L154.961 103.953L156.147 97.952C156.169 97.808 156.192 97.712 156.191 97.616C156.187 97.376 156.067 97.3282 155.827 97.3286L153.499 97.3323ZM168.17 97.309C167.786 97.3096 167.789 97.4776 167.743 97.6457L164.676 113.129C164.654 113.273 164.631 113.369 164.633 113.465C164.636 113.705 164.757 113.753 164.997 113.753L167.325 113.749C167.709 113.748 167.706 113.58 167.752 113.412L169.094 106.523L173.51 106.516L172.212 113.117C172.19 113.261 172.167 113.357 172.169 113.453C172.172 113.693 172.293 113.741 172.533 113.741L174.861 113.737C175.245 113.737 175.242 113.569 175.288 113.4L178.355 97.9168C178.377 97.7728 178.4 97.6768 178.399 97.5808C178.395 97.3408 178.274 97.293 178.034 97.2934L175.706 97.2971C175.322 97.2977 175.325 97.4657 175.279 97.6337L174.025 103.923L169.633 103.93L170.819 97.9288C170.841 97.7847 170.864 97.6887 170.863 97.5927C170.859 97.3528 170.738 97.3049 170.498 97.3053L168.17 97.309ZM182.818 97.2858C182.434 97.2864 182.437 97.4544 182.391 97.6224L179.348 113.106C179.326 113.25 179.303 113.346 179.304 113.442C179.308 113.682 179.429 113.73 179.669 113.729L183.941 113.723C185.645 113.72 187.801 113.477 189.241 111.818C190.162 110.761 190.596 109.153 190.576 107.785C190.554 106.225 189.869 105.338 189.407 104.907C188.288 103.853 186.823 103.807 185.839 103.808L184.327 103.811L185.467 97.9055C185.489 97.7615 185.512 97.6655 185.51 97.5695C185.507 97.3295 185.386 97.2817 185.146 97.2821L182.818 97.2858ZM182.872 111.133L183.812 106.403L184.892 106.402C185.564 106.401 187.315 106.326 187.343 108.294C187.353 108.966 187.147 109.686 186.698 110.191C185.919 111.08 184.72 111.13 183.904 111.131L182.872 111.133ZM195.082 97.2663C194.698 97.2669 194.701 97.4349 194.655 97.603L191.588 113.087C191.566 113.231 191.543 113.327 191.544 113.423C191.548 113.663 191.668 113.71 191.908 113.71L194.236 113.706C194.62 113.706 194.618 113.538 194.664 113.37L197.731 97.8861C197.753 97.7421 197.776 97.646 197.774 97.55C197.771 97.3101 197.65 97.2623 197.41 97.2626L195.082 97.2663ZM210.242 97.2423C209.81 97.243 209.741 97.4831 209.553 97.7474L205.13 104.042C204.637 104.763 203.277 107.045 202.926 107.645L202.83 107.645C203.414 104.837 203.104 106.685 203.552 104.404L204.851 97.8748C204.896 97.7067 204.895 97.6108 204.894 97.5388C204.89 97.2988 204.77 97.251 204.53 97.2514L202.202 97.255C201.818 97.2557 201.82 97.4236 201.774 97.5917L198.707 113.075C198.685 113.219 198.662 113.315 198.664 113.411C198.667 113.651 198.788 113.699 199.028 113.699L201.236 113.695C201.572 113.695 201.666 113.599 201.878 113.286L206.652 106.391C207.357 105.358 207.945 104.517 208.552 103.293L208.648 103.292C208.466 103.989 208.194 105.165 208.06 105.813L206.627 113.063C206.605 113.207 206.582 113.303 206.584 113.399C206.587 113.639 206.708 113.687 206.948 113.686L209.276 113.683C209.66 113.682 209.657 113.514 209.703 113.346L212.771 97.8622C212.792 97.7182 212.815 97.6222 212.814 97.5262C212.81 97.2862 212.69 97.2384 212.45 97.2388L210.242 97.2423ZM204.732 92.9554C204.589 92.9796 204.35 93.076 204.353 93.268L204.355 93.4359C204.366 94.1799 204.589 94.7075 204.81 95.0191C205.325 95.8102 206.146 96.1689 207.274 96.1671C208.906 96.1645 210.047 95.3948 210.563 94.554C210.775 94.2177 211.076 93.4493 211.072 93.1853C211.069 93.0173 210.901 92.9696 210.829 92.9697L209.458 92.7799C209.386 92.78 209.338 92.7561 209.266 92.7562C209.002 92.7566 208.956 92.9487 208.864 93.1648C208.585 93.8372 208.159 94.2458 207.463 94.2469C206.623 94.2483 206.518 93.6245 206.51 93.0485L206.509 93.0006C206.506 92.7606 206.386 92.7608 206.002 92.8094L204.732 92.9554ZM222.826 97.2223C222.442 97.2229 222.444 97.3909 222.399 97.559L219.331 113.043C219.309 113.187 219.287 113.283 219.288 113.379C219.292 113.619 219.412 113.666 219.652 113.666L223.588 113.66C225.532 113.657 227.738 113.461 229.249 111.731C229.957 110.914 230.469 109.737 230.45 108.465C230.427 106.81 229.544 105.515 228.17 105.037C228.742 104.796 229.456 104.387 229.978 103.93C230.807 103.185 231.368 102.152 231.349 100.809C231.299 97.2809 227.842 97.2144 226.882 97.2159L222.826 97.2223ZM224.244 104.06L225.116 99.6185L226.268 99.6167C226.94 99.6156 228.212 99.6136 228.235 101.197C228.244 101.869 228.062 102.542 227.685 103.022C227.001 103.911 225.948 104.057 225.132 104.058L224.244 104.06ZM222.81 111.261L223.774 106.46L225.118 106.458C225.862 106.457 227.183 106.527 227.208 108.327C227.223 109.382 226.825 110.031 226.517 110.367C225.761 111.209 224.706 111.258 223.794 111.26L222.81 111.261ZM236.212 97.2011C236.02 97.2014 235.732 97.2259 235.643 97.682L232.575 113.166C232.486 113.622 232.774 113.645 232.966 113.645L235.15 113.641C235.654 113.641 235.674 113.353 235.719 113.161L237.063 106.391L238.455 106.389C239.943 106.386 239.979 107.274 239.99 107.994L240.055 110.874C240.075 112.29 240.281 113.321 241.536 113.775C241.898 113.919 242.572 114.038 243.052 114.037C243.34 114.036 243.579 114.012 243.719 113.676L244.509 111.851C244.671 111.491 244.526 111.395 244.358 111.371L243.684 111.228C242.962 111.085 242.953 110.461 242.941 109.621L242.888 107.606C242.849 106.55 242.619 105.59 241.316 105.112L241.315 105.04C242.749 104.606 243.338 103.789 243.754 102.661L244.377 100.956C244.747 99.9714 244.982 99.587 245.747 99.3938L246.249 99.273C246.489 99.2246 246.606 99.0325 246.578 98.7685L246.386 97.065C246.358 96.801 246.094 96.7775 245.926 96.7777C245.302 96.7787 244.418 97.0441 243.822 97.357C242.583 98.0069 242.19 99.0155 241.843 99.952L241.08 101.993C240.503 103.578 239.762 103.795 238.754 103.797L237.578 103.798L238.787 97.677C238.808 97.533 238.924 97.1968 238.396 97.1976L236.212 97.2011ZM252.923 106.63C252.858 105.43 252.69 103.702 252.634 103.199L251.928 97.4402C251.874 97.0083 251.945 96.9122 251.25 96.9853L249.069 97.1807C248.781 97.2052 248.469 97.2057 248.473 97.4696C248.474 97.5416 248.451 97.6137 248.502 97.8776L250.314 108.77C250.341 108.986 250.461 108.986 250.533 108.985L252.069 108.983L251.72 109.776C251.511 110.256 250.88 111.433 249.608 111.435C249.2 111.435 248.814 111.292 248.523 111.124C248.257 110.957 248.038 110.765 247.87 110.766C247.774 110.766 247.655 110.838 247.608 110.934L246.554 112.735C246.109 113.504 248.661 114.028 249.429 114.027C250.677 114.025 251.559 113.639 252.153 113.183C253.007 112.533 253.497 111.549 253.894 110.732L260.023 97.9073C260.046 97.8593 260.069 97.7872 260.093 97.7392C260.092 97.7152 260.116 97.7152 260.116 97.6912C260.163 97.6191 260.21 97.571 260.209 97.499C260.206 97.235 259.918 97.2355 259.749 97.2118L257.681 96.9511C257.273 96.9037 257.229 97.1918 257.089 97.48L254.506 103.196C253.646 105.117 253.158 106.27 253.019 106.63L252.923 106.63ZM266.89 110.687C266.841 110.591 266.816 110.52 266.72 110.52C266.552 110.52 266.338 110.664 266.124 110.785C265.219 111.314 264.501 111.411 264.069 111.412C263.301 111.413 262.841 111.174 262.549 110.91C261.965 110.359 261.879 109.327 261.869 108.632C261.84 106.616 262.117 104.119 263.19 101.958C264.239 99.7964 265.601 99.3383 266.489 99.3369C267.137 99.3359 267.548 99.5512 268.155 100.054C268.398 100.27 268.592 100.437 268.856 100.437C269 100.437 269.071 100.317 269.094 100.293L270.222 98.5631C270.245 98.515 270.293 98.491 270.291 98.395C270.288 98.155 270.02 97.9154 269.851 97.7957C268.807 96.9814 267.532 96.7435 266.62 96.7449C265.156 96.7472 262.449 97.1355 260.503 100.378C259.12 102.684 258.584 105.469 258.623 108.253C258.642 109.573 258.865 111.756 260.371 113.026C261.076 113.624 262.089 114.007 263.313 114.005C264.513 114.003 265.876 113.593 266.805 113.159C267.115 113.015 267.592 112.774 267.588 112.51C267.587 112.438 267.562 112.342 267.537 112.294L266.89 110.687ZM275.638 105.61C278.632 105.149 280.496 102.89 280.46 100.395C280.43 98.2349 278.848 96.7255 276.232 96.7297C274.696 96.7321 273.525 97.1179 272.547 97.4795C272.069 97.6482 271.639 97.8169 271.619 98.0809C271.619 98.1049 271.619 98.1049 271.62 98.1289C271.621 98.1769 271.67 98.2488 271.72 98.3927L272.416 100.071C272.465 100.167 272.514 100.263 272.634 100.263C272.754 100.263 272.921 100.191 273.279 100.046C274.043 99.7569 274.711 99.4919 275.551 99.4905C276.127 99.4896 277.209 99.6319 277.229 100.976C277.251 102.584 275.512 103.45 274.219 103.668L273.931 103.717C273.572 103.765 273.262 103.862 273.195 104.246L272.613 107.199C272.568 107.415 272.501 107.727 272.909 107.726L274.949 107.723C275.237 107.722 275.257 107.482 275.28 107.386L275.638 105.61ZM275.034 112.066C275.019 111.01 274.143 110.148 273.087 110.15C272.031 110.151 271.179 111.017 271.194 112.072C271.21 113.128 272.086 113.991 273.142 113.989C274.198 113.988 275.05 113.122 275.034 112.066Z" fill="#F7D431"/>
</g>
<defs>
<filter id="filter0_d" x="0.259766" y="0.845825" width="351.262" height="156.768" filterUnits="userSpaceOnUse" color-interpolation-filters="sRGB">
<feFlood flood-opacity="0" result="BackgroundImageFix"/>
<feColorMatrix in="SourceAlpha" type="matrix" values="0 0 0 0 0 0 0 0 0 0 0 0 0 0 0 0 0 0 127 0"/>
<feOffset/>
<feGaussianBlur stdDeviation="4"/>
<feColorMatrix type="matrix" values="0 0 0 0 0 0 0 0 0 0 0 0 0 0 0 0 0 0 0.45 0"/>
<feBlend mode="normal" in2="BackgroundImageFix" result="effect1_dropShadow"/>
<feBlend mode="normal" in="SourceGraphic" in2="effect1_dropShadow" result="shape"/>
</filter>
<filter id="filter1_d" x="33.1865" y="35.7634" width="292.075" height="91.2736" filterUnits="userSpaceOnUse" color-interpolation-filters="sRGB">
<feFlood flood-opacity="0" result="BackgroundImageFix"/>
<feColorMatrix in="SourceAlpha" type="matrix" values="0 0 0 0 0 0 0 0 0 0 0 0 0 0 0 0 0 0 127 0"/>
<feOffset/>
<feGaussianBlur stdDeviation="6.5"/>
<feColorMatrix type="matrix" values="0 0 0 0 0 0 0 0 0 0 0 0 0 0 0 0 0 0 0.6 0"/>
<feBlend mode="normal" in2="BackgroundImageFix" result="effect1_dropShadow"/>
<feBlend mode="normal" in="SourceGraphic" in2="effect1_dropShadow" result="shape"/>
</filter>
</defs>
</svg>
