<svg width="40" height="40" viewBox="0 0 40 40" fill="none" xmlns="http://www.w3.org/2000/svg">
<circle cx="19.6916" cy="20.2999" r="19.6363" fill="#F7D431"/>
<path d="M26.6311 16.6225L23.9389 16.6225C23.829 16.6225 23.7211 16.6523 23.6268 16.7087C23.5325 16.7651 23.4553 16.846 23.4033 16.9428C23.4033 16.9428 22.3296 18.9203 21.9847 19.5864C21.0568 21.3781 20.456 20.8156 20.456 19.9841L20.456 17.1168C20.456 16.8772 20.3608 16.6474 20.1914 16.478C20.0219 16.3086 19.7922 16.2134 19.5526 16.2134L17.5284 16.2134C17.2527 16.1929 16.9764 16.2432 16.7257 16.3596C16.4749 16.4759 16.2581 16.6544 16.0957 16.8782C16.0957 16.8782 17.1236 16.712 17.1236 18.0969C17.1236 18.4403 17.1413 19.4283 17.1574 20.2569C17.1604 20.379 17.1259 20.4991 17.0586 20.601C16.9912 20.7029 16.8941 20.7816 16.7806 20.8266C16.667 20.8716 16.5424 20.8806 16.4235 20.8526C16.3047 20.8245 16.1973 20.7606 16.1159 20.6695C15.2873 19.5172 14.601 18.269 14.0719 16.952C14.0264 16.8535 13.9537 16.7701 13.8623 16.7117C13.7708 16.6533 13.6646 16.6223 13.5561 16.6225C12.9722 16.6225 11.8039 16.6225 11.1101 16.6225C11.0428 16.622 10.9764 16.6379 10.9166 16.6688C10.8568 16.6996 10.8054 16.7445 10.7668 16.7996C10.7282 16.8548 10.7036 16.9184 10.695 16.9851C10.6864 17.0519 10.6942 17.1197 10.7176 17.1828C11.4603 19.2201 14.6598 25.6225 18.3117 25.6225L19.8487 25.6225C20.0098 25.6225 20.1642 25.5585 20.2781 25.4446C20.392 25.3307 20.456 25.1763 20.456 25.0152L20.456 24.0871C20.456 23.9706 20.49 23.8568 20.554 23.7594C20.6179 23.6621 20.7089 23.5857 20.8158 23.5394C20.9226 23.4932 21.0407 23.4792 21.1554 23.4993C21.2701 23.5193 21.3764 23.5725 21.4612 23.6522L23.301 25.3808C23.4662 25.536 23.6844 25.6224 23.9111 25.6225L26.3271 25.6225C27.4923 25.6225 27.4923 24.8139 26.857 24.1882C26.4099 23.7479 24.7965 22.0474 24.7965 22.0474C24.6584 21.9042 24.576 21.7164 24.5642 21.5178C24.5525 21.3192 24.6121 21.123 24.7324 20.9646C25.2539 20.2783 26.1069 19.1549 26.4686 18.6737C26.9631 18.0159 27.8579 16.6225 26.6311 16.6225Z" fill="#85312C"/>
</svg>
