<svg width="1086" height="291" viewBox="0 0 1086 291" fill="none" xmlns="http://www.w3.org/2000/svg">
<g filter="url(#filter0_d)">
<path d="M64.6493 110.632L958.049 50.9953L918.955 155.574L18.0282 203.944L64.6493 110.632Z" fill="#DD1010"/>
<path d="M64.4495 107.639L62.7341 107.753L61.9656 109.291L15.3445 202.603L13.0397 207.216L18.189 206.94L919.116 158.569L921.078 158.464L921.765 156.624L960.859 52.0458L962.487 47.6924L957.85 48.002L64.4495 107.639Z" stroke="#F7D431" stroke-width="6"/>
</g>
<g filter="url(#filter1_d)">
<path d="M65.7298 179.098L701.834 167.924L685.398 247.316L31.0938 245.889L65.7298 179.098Z" fill="white"/>
</g>
<g filter="url(#filter2_d)">
<path d="M146.117 126.021C145.414 126.051 145.427 126.359 145.352 126.67L140.558 155.284C140.525 155.55 140.489 155.728 140.496 155.904C140.515 156.343 140.739 156.422 141.179 156.403L148.388 156.09C151.949 155.936 155.978 155.409 158.654 152.123C159.908 150.571 160.782 148.375 160.681 146.045C160.549 143.012 158.864 140.707 156.32 139.936C157.356 139.451 158.643 138.646 159.574 137.769C161.053 136.34 162.026 134.404 161.92 131.942C161.64 125.48 155.304 125.623 153.546 125.699L146.117 126.021ZM149.077 138.444L150.439 130.237L152.549 130.146C153.78 130.093 156.11 129.992 156.236 132.893C156.289 134.124 155.991 135.37 155.325 136.28C154.121 137.961 152.198 138.309 150.704 138.374L149.077 138.444ZM146.835 151.754L148.344 142.88L150.806 142.773C152.169 142.714 154.592 142.742 154.735 146.038C154.819 147.973 154.123 149.192 153.578 149.832C152.238 151.431 150.308 151.603 148.637 151.676L146.835 151.754ZM170.414 124.968C169.711 124.999 169.724 125.307 169.65 125.618L164.899 154.23C164.867 154.496 164.83 154.674 164.838 154.85C164.857 155.289 165.081 155.368 165.52 155.349L173.345 155.01C176.466 154.875 180.403 154.264 182.953 151.114C184.584 149.106 185.292 146.125 185.183 143.619C185.059 140.762 183.758 139.188 182.889 138.433C180.783 136.587 178.097 136.615 176.295 136.693L173.526 136.813L175.299 125.902C175.332 125.636 175.368 125.458 175.361 125.283C175.342 124.843 175.118 124.765 174.678 124.784L170.414 124.968ZM171.249 150.344L172.72 141.604L174.698 141.519C175.929 141.465 179.133 141.194 179.289 144.799C179.342 146.03 179.003 147.366 178.208 148.325C176.828 150.014 174.634 150.197 173.139 150.262L171.249 150.344ZM192.877 123.996C192.174 124.026 192.187 124.334 192.113 124.645L187.318 153.26C187.286 153.525 187.249 153.703 187.257 153.879C187.276 154.318 187.5 154.397 187.939 154.378L192.203 154.193C192.906 154.163 192.893 153.855 192.968 153.543L197.762 124.929C197.795 124.664 197.831 124.486 197.824 124.31C197.805 123.87 197.581 123.792 197.141 123.811L192.877 123.996ZM205.917 123.431C205.214 123.461 205.227 123.769 205.153 124.081L200.358 152.695C200.326 152.961 200.289 153.138 200.297 153.314C200.316 153.754 200.54 153.832 200.979 153.813L208.804 153.474C211.925 153.339 215.862 152.728 218.412 149.579C220.043 147.57 220.751 144.589 220.644 142.127C220.513 139.094 219.007 134.843 211.754 135.157L208.985 135.277L210.18 128.311L219.368 127.913C219.632 127.902 220.029 127.929 220.266 127.302L221.695 123.673C221.775 123.493 221.857 123.357 221.848 123.137C221.828 122.698 221.391 122.761 221.083 122.774L205.917 123.431ZM206.708 148.809L208.179 140.069L210.905 139.951C213.718 139.829 214.668 141.417 214.749 143.307C214.801 144.494 214.462 145.83 213.667 146.79C212.287 148.479 210.093 148.662 208.598 148.727L206.708 148.809ZM230.344 122.373C229.64 122.404 229.654 122.711 229.579 123.023L224.784 151.637C224.752 151.903 224.716 152.081 224.723 152.256C224.742 152.696 224.966 152.774 225.405 152.755L240 152.123C240.703 152.093 240.69 151.785 240.764 151.474L241.359 147.925C241.426 147.437 240.767 147.466 240.591 147.473L231.14 147.883L232.604 138.967L240.165 138.64C240.736 138.615 240.822 138.567 240.929 137.99L241.45 134.752C241.482 134.487 241.591 133.953 240.844 133.986L233.415 134.308L234.676 126.81L243.292 126.437C243.599 126.424 243.909 126.454 244.19 125.825L245.637 122.636C245.716 122.412 245.798 122.277 245.79 122.101C245.771 121.661 245.334 121.724 245.026 121.737L230.344 122.373ZM253.911 121.353C253.208 121.383 253.221 121.691 253.147 122.002L248.352 150.617C248.32 150.882 248.283 151.06 248.291 151.236C248.31 151.675 248.534 151.754 248.973 151.735L253.237 151.55C253.941 151.52 253.927 151.212 254.002 150.9L255.925 139.366L258.21 139.267C265.727 138.942 270.149 134.258 269.869 127.796C269.593 121.422 264.989 120.873 261.824 121.01L253.911 121.353ZM256.73 134.575L258.161 125.925L260.403 125.828C261.546 125.778 264.059 125.846 264.191 128.879C264.255 130.374 264.027 134.259 258.049 134.518L256.73 134.575ZM291.733 119.715C290.942 119.749 290.829 120.194 290.498 120.693L282.733 132.568C281.867 133.927 279.498 138.213 278.886 139.341L278.71 139.349C279.631 134.156 279.162 137.567 279.86 133.353L281.892 121.286C281.966 120.975 281.959 120.799 281.953 120.667C281.934 120.227 281.711 120.149 281.271 120.168L277.007 120.353C276.304 120.383 276.317 120.691 276.242 121.002L271.448 149.616C271.415 149.882 271.379 150.06 271.387 150.236C271.406 150.675 271.629 150.754 272.069 150.735L276.113 150.559C276.728 150.533 276.897 150.349 277.267 149.761L285.645 136.758C286.882 134.811 287.914 133.225 288.96 130.933L289.136 130.926C288.839 132.216 288.405 134.393 288.193 135.591L285.954 148.988C285.922 149.254 285.885 149.432 285.893 149.607C285.912 150.047 286.136 150.125 286.575 150.106L290.839 149.922C291.542 149.891 291.529 149.584 291.604 149.272L296.398 120.658C296.431 120.392 296.467 120.214 296.46 120.039C296.441 119.599 296.217 119.521 295.777 119.54L291.733 119.715ZM312.391 123.885L317.842 123.649C318.149 123.636 318.459 123.666 318.74 123.038L320.344 119.401C320.383 119.267 320.465 119.131 320.499 118.91C320.497 118.866 320.495 118.822 320.493 118.778C320.434 118.428 319.997 118.491 319.733 118.502L301.754 119.281C300.962 119.315 301.062 119.575 300.989 119.931L300.385 123.26C300.31 123.571 300.274 123.749 300.281 123.925C300.304 124.452 300.742 124.389 301.049 124.376L306.676 124.132L302.569 148.269C302.494 148.58 302.502 148.756 302.507 148.888C302.526 149.328 302.75 149.406 303.19 149.387L307.454 149.202C308.157 149.172 308.144 148.864 308.218 148.553L312.391 123.885ZM324.915 118.278C324.212 118.308 324.225 118.616 324.151 118.928L319.356 147.542C319.323 147.807 319.287 147.985 319.295 148.161C319.314 148.601 319.537 148.679 319.977 148.66L334.571 148.028C335.275 147.998 335.261 147.69 335.336 147.378L335.931 143.829C335.998 143.342 335.339 143.37 335.163 143.378L325.712 143.787L327.175 134.872L334.736 134.544C335.308 134.52 335.394 134.472 335.501 133.895L336.021 130.657C336.054 130.391 336.163 129.858 335.415 129.891L327.986 130.212L329.247 122.715L337.863 122.342C338.171 122.328 338.48 122.359 338.761 121.73L340.209 118.541C340.287 118.317 340.369 118.181 340.362 118.005C340.343 117.566 339.905 117.629 339.597 117.642L324.915 118.278ZM621.296 135.612L620.28 141.645C620.284 141.733 620.286 141.777 620.29 141.865C620.295 141.997 620.213 142.133 620.219 142.265C620.236 142.66 620.461 142.783 620.945 142.762L624.813 142.594C625.517 142.564 625.542 142.122 625.578 141.945L627.25 131.743C627.283 131.477 627.319 131.299 627.311 131.123C627.289 130.596 626.937 130.611 626.673 130.623L624.783 130.704L628.877 106.26C628.91 105.995 628.946 105.817 628.939 105.641C628.92 105.202 628.696 105.123 628.256 105.142L614.058 105.757C613.354 105.787 613.368 106.095 613.293 106.407L612.589 110.489C611.426 117.19 610.439 120.844 610.053 122.094C609.018 125.662 607.817 128.444 605.793 131.527L604.518 131.582C603.815 131.612 603.78 131.834 603.709 132.234L601.993 142.437C601.997 142.525 601.999 142.569 602.003 142.657C602.008 142.789 601.926 142.925 601.932 143.057C601.949 143.452 602.175 143.575 602.658 143.554L606.527 143.386C607.23 143.356 607.255 142.914 607.291 142.736L608.372 136.171L621.296 135.612ZM618 110.343L622.527 110.147L619.024 130.954L611.419 131.283C612.823 129.108 613.668 127.266 614.605 124.495C615.66 121.41 616.607 117.846 617.323 114.028L618 110.343ZM644.454 109.197L649.421 108.982L645.327 133.426C645.294 133.692 645.258 133.87 645.266 134.045C645.285 134.485 645.508 134.563 645.948 134.544L650.212 134.36C650.915 134.329 650.902 134.022 650.977 133.71L655.771 105.096C655.804 104.83 655.84 104.652 655.832 104.477C655.813 104.037 655.59 103.959 655.15 103.978L640.688 104.604C639.984 104.634 639.998 104.942 639.923 105.254L638.651 112.487C638.228 114.928 636.537 123.677 635.302 126.682C634.227 129.327 632.773 130.314 630.848 130.618L630.104 130.738C629.537 130.851 629.474 131.426 629.483 131.646L629.874 135.593C629.939 136.074 630.333 136.013 630.595 135.958L631.294 135.839C634.792 135.248 637.051 133.52 638.506 131.519C640.418 128.882 641.642 124.601 643.601 113.903L644.454 109.197ZM672.274 103.236C669.768 103.345 666.834 103.736 664.542 105.729C662.591 107.443 661.434 110.224 661.563 113.213C661.706 116.51 663.501 118.282 665.561 119.073L665.524 119.251C662.804 120.514 661.938 122.886 661.5 123.962L660.468 126.561C659.713 128.443 659.483 129.246 658.046 129.616L656.87 129.931C656.217 130.092 656.24 130.619 656.293 130.837L657.009 134.153C657.066 134.459 657.038 134.813 657.961 134.773C658.84 134.735 659.973 134.465 660.797 134.166C663.79 133.111 664.49 130.967 665.314 128.641L666.762 124.438C667.464 122.338 668.481 121.413 670.635 121.32L672.217 121.251L670.363 132.342C670.331 132.608 670.294 132.785 670.302 132.961C670.321 133.401 670.545 133.479 670.984 133.46L675.248 133.276C675.952 133.245 675.938 132.937 676.013 132.626L680.807 104.012C680.84 103.746 680.876 103.568 680.869 103.392C680.85 102.953 680.626 102.874 680.186 102.893L672.274 103.236ZM672.939 116.552L670.916 116.639C668.631 116.738 667.371 115.119 667.284 113.097C667.221 111.647 667.77 110.081 668.787 109.156C669.932 108.138 671.293 108.035 672.479 107.984L674.414 107.9L672.939 116.552ZM699.252 102.068C698.549 102.098 698.562 102.406 698.487 102.718L693.693 131.332C693.66 131.597 693.624 131.775 693.631 131.951C693.65 132.391 693.874 132.469 694.314 132.45L698.578 132.265C699.281 132.235 699.268 131.927 699.342 131.616L703.546 106.638L711.194 106.307L707.056 130.753C706.982 131.065 706.989 131.24 706.995 131.372C707.014 131.812 707.238 131.89 707.677 131.871L711.941 131.687C712.644 131.656 712.631 131.348 712.706 131.037L717.5 102.423C717.533 102.157 717.569 101.979 717.562 101.803C717.543 101.364 717.319 101.285 716.879 101.304L699.252 102.068ZM734.005 100.563C731.499 100.671 728.566 101.063 726.274 103.056C724.322 104.77 723.165 107.55 723.295 110.54C723.437 113.837 725.232 115.609 727.292 116.4L727.256 116.578C724.536 117.841 723.669 120.212 723.232 121.288L722.199 123.887C721.444 125.77 721.214 126.573 719.777 126.943L718.602 127.258C717.948 127.419 717.971 127.946 718.024 128.164L718.74 131.48C718.798 131.786 718.769 132.14 719.692 132.1C720.571 132.062 721.705 131.792 722.528 131.492C725.522 130.438 726.221 128.294 727.046 125.968L728.493 121.765C729.195 119.665 730.212 118.74 732.366 118.647L733.948 118.578L732.094 129.669C732.062 129.934 732.026 130.112 732.033 130.288C732.052 130.728 732.276 130.806 732.715 130.787L736.979 130.602C737.683 130.572 737.669 130.264 737.744 129.953L742.539 101.338C742.571 101.073 742.607 100.895 742.6 100.719C742.581 100.28 742.357 100.201 741.918 100.22L734.005 100.563ZM734.67 113.879L732.648 113.966C730.362 114.065 729.103 112.446 729.015 110.424C728.952 108.973 729.501 107.408 730.518 106.483C731.663 105.465 733.024 105.362 734.211 105.31L736.145 105.227L734.67 113.879ZM758.547 104.565L763.998 104.329C764.306 104.316 764.615 104.346 764.896 103.717L766.5 100.081C766.539 99.9468 766.621 99.8111 766.655 99.5894C766.653 99.5455 766.651 99.5015 766.65 99.4576C766.59 99.1078 766.153 99.1708 765.889 99.1822L747.91 99.9608C747.119 99.995 747.218 100.255 747.145 100.61L746.541 103.94C746.466 104.251 746.43 104.429 746.437 104.605C746.46 105.132 746.898 105.069 747.206 105.056L752.832 104.812L748.725 128.949C748.65 129.26 748.658 129.436 748.663 129.568C748.682 130.007 748.906 130.086 749.346 130.067L753.61 129.882C754.313 129.852 754.3 129.544 754.374 129.233L758.547 104.565ZM771.071 98.9578C770.368 98.9883 770.381 99.296 770.307 99.6075L765.512 128.222C765.48 128.487 765.443 128.665 765.451 128.841C765.47 129.281 765.693 129.359 766.133 129.34L780.727 128.708C781.431 128.677 781.417 128.37 781.492 128.058L782.087 124.509C782.154 124.022 781.495 124.05 781.319 124.058L771.868 124.467L773.331 115.552L780.892 115.224C781.464 115.199 781.55 115.152 781.657 114.574L782.177 111.337C782.21 111.071 782.319 110.538 781.572 110.57L774.142 110.892L775.403 103.395L784.019 103.021C784.327 103.008 784.637 103.039 784.918 102.41L786.365 99.2204C786.443 98.9968 786.526 98.8611 786.518 98.6853C786.499 98.2457 786.061 98.3087 785.754 98.322L771.071 98.9578ZM794.639 97.9372C793.936 97.9677 793.949 98.2754 793.874 98.5869L789.08 127.201C789.047 127.467 789.011 127.645 789.019 127.82C789.038 128.26 789.261 128.338 789.701 128.319L793.965 128.135C794.668 128.104 794.655 127.797 794.729 127.485L796.652 115.951L798.938 115.852C806.455 115.527 810.877 110.843 810.597 104.381C810.321 98.0069 805.717 97.4575 802.552 97.5946L794.639 97.9372ZM797.458 111.16L798.889 102.51L801.131 102.413C802.274 102.363 804.787 102.43 804.918 105.464C804.983 106.958 804.755 110.844 798.776 111.103L797.458 111.16ZM834.596 104.927C834.493 102.553 833.791 95.4931 826.318 95.8167C823.461 95.9404 818.715 97.2029 815.375 103.469C813.136 107.706 812.199 113.516 812.419 118.615C812.753 126.308 817.093 127.882 820.653 127.728C824.786 127.549 829.044 125.206 831.73 120.113C833.885 115.968 834.798 109.587 834.596 104.927ZM821.421 123.07C818.827 123.182 818.457 120.732 818.379 118.93C818.236 115.633 818.585 110.465 820.367 105.852C821.116 103.837 822.738 100.596 825.683 100.469C828.364 100.352 828.572 103.118 828.635 104.569C828.785 108.041 828.557 112.94 826.737 117.687C825.945 119.747 824.41 122.941 821.421 123.07ZM842.268 95.8747C841.477 95.909 841.324 96.4441 841.251 96.7996L839.47 107.535C839.361 108.068 839.384 108.595 839.407 109.123C839.469 110.574 839.754 112.059 841.22 113.36C842.821 114.744 844.675 114.84 846.125 114.778C847.796 114.705 849.675 114.36 852.008 113.334L850.084 124.824C850.011 125.179 849.858 125.714 850.781 125.674L854.825 125.499C855.221 125.482 855.703 125.417 855.842 124.574L860.637 95.9601C860.712 95.6486 860.775 95.0733 859.896 95.1114L855.851 95.2865C855.016 95.3227 854.951 95.854 854.878 96.2095L852.82 108.674C851.011 109.633 849.568 109.872 848.426 109.921C847.239 109.973 845.379 109.745 845.291 107.723C845.271 107.239 845.294 106.754 845.403 106.221L847.01 96.5502C847.081 96.1508 847.191 95.6615 846.312 95.6996L842.268 95.8747ZM868.909 94.7211C868.558 94.7363 868.032 94.8031 867.893 95.6459L863.098 124.26C862.958 125.103 863.488 125.124 863.839 125.109L867.84 124.936C868.763 124.896 868.784 124.366 868.857 124.011L870.957 111.5L873.507 111.39C876.232 111.272 876.347 112.896 876.404 114.215L876.676 119.488C876.789 122.082 877.222 123.957 879.544 124.693C880.215 124.928 881.455 125.095 882.334 125.057C882.862 125.034 883.3 124.971 883.537 124.344L884.887 120.938C885.166 120.266 884.894 120.101 884.585 120.071L883.343 119.86C882.012 119.654 881.963 118.511 881.896 116.972L881.692 113.281C881.565 111.349 881.093 109.608 878.681 108.832L878.675 108.7C881.279 107.794 882.313 106.252 883.015 104.152L884.066 100.979C884.692 99.1464 885.101 98.424 886.492 98.0115L887.406 97.7517C887.842 97.6447 888.046 97.2835 887.981 96.8019L887.539 93.6942C887.474 93.2125 886.988 93.1895 886.68 93.2028C885.538 93.2523 883.932 93.8063 882.858 94.4253C880.623 95.7112 879.956 97.5898 879.371 99.3328L878.082 103.132C877.109 106.081 875.763 106.536 873.917 106.616L871.763 106.709L873.651 95.3966C873.684 95.1309 873.877 94.506 872.91 94.5478L868.909 94.7211ZM909.646 92.957C908.855 92.9913 908.742 93.4366 908.411 93.9354L900.646 105.81C899.78 107.169 897.411 111.456 896.799 112.583L896.623 112.591C897.544 107.398 897.075 110.81 897.773 106.595L899.805 94.5282C899.88 94.2167 899.872 94.0409 899.866 93.909C899.847 93.4694 899.624 93.391 899.184 93.4101L894.92 93.5947C894.217 93.6252 894.23 93.9329 894.155 94.2444L889.361 122.859C889.328 123.124 889.292 123.302 889.3 123.478C889.319 123.917 889.542 123.996 889.982 123.977L894.026 123.802C894.641 123.775 894.81 123.592 895.181 123.003L903.558 110C904.795 108.053 905.827 106.467 906.873 104.175L907.049 104.168C906.752 105.458 906.318 107.635 906.106 108.833L903.867 122.23C903.835 122.496 903.798 122.674 903.806 122.85C903.825 123.289 904.049 123.368 904.488 123.349L908.752 123.164C909.456 123.134 909.442 122.826 909.517 122.514L914.311 93.9001C914.344 93.6344 914.38 93.4567 914.373 93.2808C914.354 92.8413 914.13 92.7629 913.69 92.7819L909.646 92.957Z" fill="#F7D431"/>
<path d="M358.743 116.813C358.04 116.844 358.053 117.151 357.978 117.463L353.184 146.077C353.151 146.343 353.115 146.52 353.122 146.696C353.141 147.136 353.365 147.214 353.805 147.195L358.069 147.011C358.772 146.98 358.759 146.672 358.833 146.361L360.924 133.63L369.013 133.28L366.987 145.479C366.954 145.745 366.918 145.923 366.925 146.098C366.945 146.538 367.168 146.616 367.608 146.597L371.872 146.413C372.575 146.382 372.562 146.075 372.636 145.763L377.431 117.149C377.463 116.883 377.5 116.705 377.492 116.53C377.473 116.09 377.249 116.012 376.81 116.031L372.546 116.215C371.843 116.246 371.856 116.554 371.781 116.865L369.818 128.489L361.774 128.837L363.628 117.747C363.66 117.481 363.697 117.303 363.689 117.127C363.67 116.688 363.446 116.609 363.007 116.628L358.743 116.813ZM402.478 123.639C402.375 121.266 401.673 114.205 394.2 114.529C391.342 114.653 386.597 115.915 383.256 122.182C381.018 126.418 380.08 132.228 380.301 137.328C380.634 145.02 384.974 146.594 388.535 146.44C392.667 146.261 396.926 143.919 399.612 138.826C401.767 134.68 402.679 128.299 402.478 123.639ZM389.302 141.782C386.709 141.895 386.338 139.444 386.26 137.642C386.117 134.345 386.466 129.177 388.248 124.564C388.998 122.55 390.619 119.308 393.564 119.181C396.246 119.065 396.454 121.83 396.516 123.281C396.667 126.754 396.439 131.652 394.618 136.399C393.827 138.46 392.291 141.653 389.302 141.782ZM411.029 114.549C410.325 114.579 410.339 114.887 410.264 115.199L405.47 143.813C405.437 144.078 405.401 144.256 405.408 144.432C405.427 144.872 405.651 144.95 406.091 144.931L413.3 144.619C416.86 144.465 420.889 143.938 423.566 140.651C424.82 139.099 425.694 136.903 425.593 134.574C425.461 131.54 423.776 129.235 421.232 128.464C422.268 127.979 423.555 127.175 424.486 126.298C425.965 124.868 426.938 122.932 426.832 120.471C426.552 114.009 420.216 114.151 418.458 114.227L411.029 114.549ZM413.989 126.972L415.351 118.766L417.461 118.674C418.692 118.621 421.022 118.52 421.148 121.422C421.201 122.652 420.902 123.898 420.237 124.808C419.033 126.49 417.11 126.837 415.615 126.902L413.989 126.972ZM411.747 140.282L413.256 131.408L415.718 131.302C417.081 131.243 419.504 131.27 419.647 134.567C419.731 136.501 419.035 137.72 418.49 138.36C417.15 139.96 415.219 140.132 413.549 140.204L411.747 140.282ZM435.326 113.497C434.623 113.527 434.636 113.835 434.562 114.146L429.811 142.759C429.779 143.024 429.742 143.202 429.75 143.378C429.769 143.818 429.992 143.896 430.432 143.877L438.257 143.538C441.378 143.403 445.315 142.792 447.865 139.643C449.496 137.634 450.203 134.653 450.095 132.147C449.971 129.29 448.67 127.717 447.801 126.962C445.695 125.115 443.009 125.143 441.207 125.221L438.438 125.341L440.211 114.43C440.244 114.165 440.28 113.987 440.273 113.811C440.253 113.371 440.03 113.293 439.59 113.312L435.326 113.497ZM436.161 138.872L437.632 130.133L439.61 130.047C440.841 129.994 444.044 129.723 444.201 133.327C444.254 134.558 443.915 135.894 443.12 136.853C441.74 138.543 439.546 138.726 438.051 138.791L436.161 138.872ZM457.789 112.524C457.086 112.554 457.099 112.862 457.025 113.174L452.23 141.788C452.198 142.054 452.161 142.231 452.169 142.407C452.188 142.847 452.411 142.925 452.851 142.906L457.115 142.721C457.818 142.691 457.805 142.383 457.88 142.072L462.674 113.458C462.707 113.192 462.743 113.014 462.735 112.838C462.716 112.399 462.493 112.32 462.053 112.339L457.789 112.524ZM485.555 111.322C484.764 111.356 484.651 111.801 484.321 112.3L476.555 124.175C475.689 125.534 473.32 129.82 472.708 130.948L472.533 130.955C473.453 125.763 472.984 129.174 473.682 124.96L475.714 112.893C475.789 112.581 475.781 112.406 475.775 112.274C475.756 111.834 475.533 111.756 475.093 111.775L470.829 111.959C470.126 111.99 470.139 112.298 470.065 112.609L465.27 141.223C465.238 141.489 465.201 141.667 465.209 141.842C465.228 142.282 465.451 142.36 465.891 142.341L469.935 142.166C470.551 142.14 470.719 141.956 471.09 141.368L479.467 128.365C480.704 126.418 481.736 124.832 482.782 122.54L482.958 122.533C482.662 123.823 482.227 125.999 482.015 127.198L479.776 140.595C479.744 140.861 479.708 141.038 479.715 141.214C479.734 141.654 479.958 141.732 480.397 141.713L484.661 141.529C485.365 141.498 485.351 141.19 485.426 140.879L490.221 112.265C490.253 111.999 490.289 111.821 490.282 111.645C490.263 111.206 490.039 111.127 489.6 111.147L485.555 111.322ZM475.236 103.885C474.974 103.941 474.542 104.135 474.557 104.487L474.571 104.795C474.63 106.157 475.067 107.107 475.488 107.662C476.474 109.072 477.997 109.667 480.063 109.578C483.052 109.448 485.101 107.95 486.002 106.37C486.371 105.737 486.881 104.306 486.86 103.822C486.847 103.514 486.535 103.44 486.403 103.446L483.883 103.202C483.751 103.208 483.661 103.168 483.529 103.174C483.045 103.195 482.973 103.55 482.814 103.953C482.34 105.207 481.581 105.989 480.306 106.044C478.768 106.11 478.542 104.975 478.497 103.92L478.493 103.832C478.474 103.393 478.254 103.402 477.554 103.52L475.236 103.885ZM508.605 110.323C507.902 110.354 507.915 110.662 507.841 110.973L503.046 139.587C503.014 139.853 502.977 140.031 502.985 140.207C503.004 140.646 503.227 140.725 503.667 140.706L510.876 140.393C514.437 140.239 518.466 139.712 521.142 136.426C522.396 134.874 523.27 132.678 523.169 130.348C523.038 127.315 521.353 125.01 518.809 124.239C519.845 123.754 521.131 122.949 522.062 122.072C523.542 120.643 524.515 118.707 524.408 116.245C524.128 109.783 517.793 109.926 516.034 110.002L508.605 110.323ZM511.566 122.747L512.928 114.54L515.038 114.449C516.269 114.396 518.598 114.295 518.724 117.196C518.777 118.427 518.479 119.673 517.814 120.583C516.609 122.264 514.687 122.612 513.192 122.677L511.566 122.747ZM509.323 136.057L510.833 127.183L513.294 127.076C514.657 127.017 517.081 127.044 517.223 130.341C517.307 132.276 516.611 133.495 516.066 134.135C514.726 135.734 512.796 135.906 511.126 135.978L509.323 136.057ZM533.123 109.262C532.771 109.277 532.245 109.344 532.106 110.187L527.311 138.801C527.171 139.644 527.701 139.665 528.053 139.65L532.053 139.476C532.976 139.436 532.997 138.907 533.07 138.552L535.17 126.041L537.72 125.931C540.446 125.812 540.56 127.437 540.617 128.756L540.889 134.029C541.002 136.623 541.435 138.498 543.757 139.234C544.428 139.469 545.668 139.635 546.548 139.597C547.075 139.575 547.513 139.512 547.75 138.885L549.1 135.479C549.379 134.806 549.108 134.642 548.798 134.611L547.556 134.401C546.226 134.194 546.176 133.051 546.109 131.513L545.906 127.822C545.778 125.89 545.306 124.149 542.894 123.372L542.889 123.24C545.492 122.335 546.526 120.793 547.228 118.692L548.28 115.52C548.905 113.687 549.314 112.965 550.705 112.552L551.619 112.292C552.055 112.185 552.259 111.824 552.194 111.343L551.752 108.235C551.687 107.753 551.201 107.73 550.894 107.744C549.751 107.793 548.145 108.347 547.071 108.966C544.836 110.252 544.169 112.131 543.584 113.874L542.295 117.673C541.322 120.622 539.976 121.076 538.13 121.156L535.976 121.25L537.864 109.937C537.897 109.672 538.09 109.047 537.123 109.089L533.123 109.262ZM564.235 125.267C564.052 123.073 563.651 119.919 563.523 119L561.924 108.499C561.801 107.712 561.926 107.53 560.657 107.717L556.671 108.242C556.146 108.309 555.574 108.334 555.595 108.817C555.601 108.949 555.563 109.083 555.672 109.563L559.569 129.389C559.63 129.782 559.85 129.773 559.982 129.767L562.795 129.645L562.199 131.124C561.841 132.021 560.747 134.226 558.418 134.327C557.67 134.359 556.956 134.126 556.415 133.841C555.918 133.554 555.507 133.22 555.199 133.233C555.023 133.241 554.809 133.382 554.729 133.562L552.894 136.944C552.119 138.387 556.821 139.153 558.228 139.092C560.513 138.993 562.109 138.219 563.172 137.336C564.703 136.081 565.548 134.238 566.231 132.711L576.776 108.737C576.816 108.647 576.854 108.513 576.894 108.423C576.892 108.379 576.936 108.377 576.934 108.334C577.017 108.198 577.101 108.106 577.095 107.974C577.074 107.491 576.547 107.514 576.237 107.483L572.436 107.163C571.684 107.107 571.619 107.639 571.378 108.178L566.952 118.851C565.478 122.438 564.646 124.588 564.411 125.259L564.235 125.267ZM590.035 131.637C589.939 131.465 589.889 131.335 589.714 131.342C589.406 131.356 589.022 131.636 588.635 131.873C587.007 132.913 585.696 133.146 584.905 133.18C583.498 133.241 582.644 132.837 582.095 132.377C580.996 131.411 580.783 129.527 580.727 128.252C580.568 124.56 580.941 119.963 582.792 115.919C584.599 111.877 587.068 110.934 588.695 110.863C589.881 110.812 590.646 111.175 591.785 112.051C592.242 112.427 592.607 112.72 593.09 112.699C593.354 112.687 593.476 112.462 593.518 112.416L595.491 109.159C595.531 109.07 595.617 109.022 595.61 108.846C595.591 108.406 595.088 107.988 594.771 107.781C592.816 106.369 590.467 106.03 588.797 106.102C586.115 106.218 581.178 107.137 577.787 113.229C575.376 117.562 574.542 122.706 574.763 127.806C574.867 130.223 575.392 134.208 578.218 136.42C579.541 137.464 581.418 138.087 583.659 137.99C585.857 137.895 588.331 137.039 590.011 136.174C590.571 135.885 591.431 135.408 591.41 134.924C591.404 134.792 591.353 134.618 591.305 134.532L590.035 131.637Z" fill="white"/>
</g>
<path d="M207.922 192.064H210.19C210.334 192.064 210.496 192.028 210.568 191.776L210.964 190.282C211 190.156 211.09 189.904 210.73 189.904H203.08C202.81 189.904 202.81 190.102 202.81 190.174V191.794C202.81 191.866 202.81 192.064 203.08 192.064H205.474V201.874C205.474 202.036 205.51 202.234 205.834 202.234H207.562C207.724 202.234 207.922 202.198 207.922 201.874V192.064ZM213.427 202.072L213.499 202.108C213.679 202.198 214.165 202.54 215.299 202.54C218.539 202.54 218.611 199.066 218.611 197.716C218.611 193.774 216.847 193.036 215.443 193.036C214.723 193.036 213.949 193.27 213.193 193.972C213.139 193.81 213.103 193.648 213.031 193.486C212.833 192.946 212.653 193 212.365 193.09L210.997 193.54C210.907 193.576 210.799 193.63 210.799 193.738C210.799 193.792 210.817 193.846 210.871 194.026C210.997 194.404 211.141 194.998 211.141 196.546V205.78C211.141 206.122 211.285 206.068 211.429 206.032L213.085 205.69C213.445 205.618 213.427 205.528 213.427 205.366V202.072ZM213.427 195.52L213.499 195.448C213.787 195.16 214.237 194.836 214.813 194.836C216.289 194.836 216.325 196.564 216.325 197.662C216.325 199.066 216.253 199.588 216.037 199.984C215.695 200.632 215.137 200.74 214.723 200.74C214.471 200.74 213.949 200.722 213.427 200.398V195.52ZM227.253 201.91C227.307 201.892 227.397 201.838 227.397 201.73C227.397 201.64 227.325 201.514 227.199 201.19C226.929 200.506 226.929 199.93 226.929 199.408V195.934C226.929 195.61 226.893 194.8 226.533 194.188C225.993 193.27 224.949 193.036 223.833 193.036C223.095 193.036 221.817 193.18 221.079 193.522C220.611 193.738 220.611 193.81 220.701 194.062L221.079 195.196C221.115 195.322 221.151 195.376 221.259 195.376C221.385 195.376 221.511 195.286 222.123 195.088C222.573 194.944 223.113 194.836 223.581 194.836C224.085 194.836 224.391 194.998 224.553 195.196C224.787 195.484 224.769 195.916 224.769 196.168V196.726C223.743 196.69 222.051 196.834 221.169 197.464C220.791 197.734 220.071 198.418 220.071 199.804C220.071 201.46 221.115 202.54 222.735 202.54C223.923 202.54 224.571 202 225.039 201.532L225.111 201.46C225.165 201.748 225.255 202 225.417 202.324C225.561 202.594 225.669 202.558 225.795 202.504L227.253 201.91ZM224.769 200.182C224.373 200.614 223.887 200.866 223.419 200.866C222.771 200.866 222.231 200.38 222.231 199.642C222.231 198.58 223.221 198.202 224.661 198.202H224.769V200.182ZM232.473 195.142H234.453C234.543 195.142 234.669 195.106 234.723 194.89L234.975 193.702C235.011 193.522 235.083 193.342 234.705 193.342H228.135C227.937 193.342 227.883 193.396 227.883 193.594V194.89C227.883 195.088 227.937 195.142 228.135 195.142H230.187V201.982C230.187 202.216 230.241 202.234 230.439 202.234H232.221C232.455 202.234 232.473 202.18 232.473 201.982V195.142ZM239.265 202.234C240.219 202.234 241.425 202.198 242.271 201.514C243.117 200.848 243.225 199.912 243.225 199.264C243.225 198.508 243.045 197.752 242.343 197.158C241.533 196.474 240.525 196.438 239.517 196.438H238.509V193.27C238.509 193 238.365 193.018 238.221 193.054L236.817 193.342C236.205 193.468 236.223 193.486 236.223 193.72V201.982C236.223 202.216 236.277 202.234 236.475 202.234H239.265ZM238.509 198.238H239.607C239.985 198.238 240.939 198.256 240.939 199.336C240.939 200.38 240.075 200.434 239.409 200.434H238.509V198.238ZM247.889 195.142H249.869C249.959 195.142 250.085 195.106 250.139 194.89L250.391 193.702C250.427 193.522 250.499 193.342 250.121 193.342H243.551C243.353 193.342 243.299 193.396 243.299 193.594V194.89C243.299 195.088 243.353 195.142 243.551 195.142H245.603V201.982C245.603 202.216 245.657 202.234 245.855 202.234H247.637C247.871 202.234 247.889 202.18 247.889 201.982V195.142ZM258.245 198.4C258.479 198.4 258.659 198.382 258.659 197.824C258.659 197.356 258.641 196.69 258.461 195.934C258.137 194.53 257.327 193.036 255.059 193.036C252.539 193.036 251.117 195.178 251.117 198.022C251.117 199.264 251.369 202.54 255.221 202.54C256.229 202.54 257.417 202.27 258.083 201.82C258.227 201.73 258.371 201.604 258.371 201.424C258.371 201.37 258.353 201.334 258.317 201.262L257.867 200.2C257.831 200.11 257.777 200.056 257.669 200.056C257.561 200.056 257.399 200.128 257.183 200.236C256.841 200.398 256.211 200.65 255.383 200.65C253.889 200.65 253.403 199.714 253.403 198.4H258.245ZM253.403 196.726C253.511 195.502 253.907 194.71 254.933 194.71C255.653 194.71 256.013 195.124 256.157 195.808C256.193 195.952 256.247 196.24 256.229 196.726H253.403ZM271.014 194.296C271.05 194.242 271.068 194.206 271.068 194.134C271.068 194.026 270.996 193.864 270.672 193.648C270.186 193.342 269.466 193.036 268.494 193.036C266.334 193.036 264.318 194.404 264.318 197.986C264.318 201.424 266.28 202.54 268.35 202.54C269.052 202.54 269.808 202.378 270.402 202.054C270.672 201.91 270.852 201.73 270.852 201.586C270.852 201.532 270.816 201.442 270.798 201.406L270.33 200.218C270.312 200.164 270.24 200.128 270.204 200.128C270.078 200.128 269.88 200.29 269.664 200.416C269.34 200.614 268.998 200.74 268.53 200.74C267.756 200.74 267.324 200.326 267.09 199.93C266.892 199.588 266.748 199.03 266.748 197.932C266.748 196.51 267 195.916 267.108 195.682C267.36 195.178 267.792 194.836 268.494 194.836C268.962 194.836 269.322 194.98 269.7 195.232C269.97 195.412 270.114 195.556 270.222 195.556C270.294 195.556 270.33 195.502 270.348 195.466L271.014 194.296ZM275.917 202.234C276.997 202.234 278.041 202.216 278.905 201.64C279.679 201.136 279.877 200.344 279.877 199.714C279.877 198.472 279.121 197.716 278.149 197.518C279.067 197.23 279.589 196.456 279.589 195.538C279.589 194.656 279.121 194.098 278.707 193.81C278.005 193.342 276.835 193.342 275.791 193.342H273.037C272.803 193.342 272.785 193.396 272.785 193.594V201.982C272.785 202.216 272.839 202.234 273.037 202.234H275.917ZM275.071 195.016H275.971C276.529 195.016 277.303 195.07 277.303 195.88C277.303 196.186 277.177 196.852 276.025 196.852H275.071V195.016ZM275.071 198.472H276.259C276.583 198.472 277.591 198.49 277.591 199.498C277.591 200.452 276.727 200.56 276.061 200.56H275.071V198.472ZM289.427 197.788C289.427 194.404 287.501 193.036 285.521 193.036C283.541 193.036 281.615 194.404 281.615 197.788C281.615 201.172 283.541 202.54 285.521 202.54C287.501 202.54 289.427 201.172 289.427 197.788ZM285.521 200.74C284.117 200.74 284.045 199.156 284.045 197.788C284.045 196.42 284.153 194.836 285.521 194.836C286.889 194.836 286.997 196.42 286.997 197.788C286.997 199.174 286.907 200.74 285.521 200.74ZM291.453 201.982C291.453 202.216 291.507 202.234 291.705 202.234H293.487C293.721 202.234 293.739 202.144 293.829 201.982L295.539 198.814C295.773 198.382 296.043 198.004 296.673 196.618H296.745C296.673 197.824 296.655 198.22 296.655 198.562V201.982C296.655 202.216 296.709 202.234 296.907 202.234H298.689C298.923 202.234 298.941 202.18 298.941 201.982V193.27C298.941 193 298.797 193.018 298.653 193.054L297.213 193.342C296.907 193.396 296.817 193.36 296.601 193.72L294.855 196.762C294.513 197.356 294.207 197.896 293.721 198.958H293.649C293.685 198.508 293.739 197.518 293.739 197.014V193.27C293.739 193 293.595 193.018 293.451 193.054L291.795 193.396C291.435 193.468 291.453 193.558 291.453 193.72V201.982ZM307.942 195.232H311.038C311.128 195.232 311.272 195.196 311.308 194.98L311.56 193.702C311.596 193.522 311.686 193.342 311.29 193.342H305.908C305.674 193.342 305.656 193.396 305.656 193.594V201.982C305.656 202.216 305.71 202.234 305.908 202.234H307.69C307.924 202.234 307.942 202.18 307.942 201.982V195.232ZM320.295 197.788C320.295 194.404 318.369 193.036 316.389 193.036C314.409 193.036 312.483 194.404 312.483 197.788C312.483 201.172 314.409 202.54 316.389 202.54C318.369 202.54 320.295 201.172 320.295 197.788ZM316.389 200.74C314.985 200.74 314.913 199.156 314.913 197.788C314.913 196.42 315.021 194.836 316.389 194.836C317.757 194.836 317.865 196.42 317.865 197.788C317.865 199.174 317.775 200.74 316.389 200.74ZM327.055 195.142V201.982C327.055 202.18 327.109 202.234 327.307 202.234H329.089C329.323 202.234 329.341 202.18 329.341 201.982V193.594C329.341 193.396 329.287 193.342 329.089 193.342H323.563C323.329 193.342 323.311 193.396 323.311 193.594V194.404C323.311 195.466 323.275 198.22 323.077 199.174C322.897 200.11 322.483 200.416 321.871 200.56L321.565 200.632C321.457 200.65 321.259 200.668 321.331 200.938L321.691 202.27C321.727 202.396 321.763 202.54 322.069 202.54C322.501 202.54 324.139 202.432 324.877 200.596C325.435 199.174 325.489 196.402 325.489 195.376V195.142H327.055ZM339.173 197.788C339.173 194.404 337.247 193.036 335.267 193.036C333.287 193.036 331.361 194.404 331.361 197.788C331.361 201.172 333.287 202.54 335.267 202.54C337.247 202.54 339.173 201.172 339.173 197.788ZM335.267 200.74C333.863 200.74 333.791 199.156 333.791 197.788C333.791 196.42 333.899 194.836 335.267 194.836C336.635 194.836 336.743 196.42 336.743 197.788C336.743 199.174 336.653 200.74 335.267 200.74ZM347.373 194.296C347.409 194.242 347.427 194.206 347.427 194.134C347.427 194.026 347.355 193.864 347.031 193.648C346.545 193.342 345.825 193.036 344.853 193.036C342.693 193.036 340.677 194.404 340.677 197.986C340.677 201.424 342.639 202.54 344.709 202.54C345.411 202.54 346.167 202.378 346.761 202.054C347.031 201.91 347.211 201.73 347.211 201.586C347.211 201.532 347.175 201.442 347.157 201.406L346.689 200.218C346.671 200.164 346.599 200.128 346.563 200.128C346.437 200.128 346.239 200.29 346.023 200.416C345.699 200.614 345.357 200.74 344.889 200.74C344.115 200.74 343.683 200.326 343.449 199.93C343.251 199.588 343.107 199.03 343.107 197.932C343.107 196.51 343.359 195.916 343.467 195.682C343.719 195.178 344.151 194.836 344.853 194.836C345.321 194.836 345.681 194.98 346.059 195.232C346.329 195.412 346.473 195.556 346.581 195.556C346.653 195.556 346.689 195.502 346.707 195.466L347.373 194.296ZM355.697 201.91C355.751 201.892 355.841 201.838 355.841 201.73C355.841 201.64 355.769 201.514 355.643 201.19C355.373 200.506 355.373 199.93 355.373 199.408V195.934C355.373 195.61 355.337 194.8 354.977 194.188C354.437 193.27 353.393 193.036 352.277 193.036C351.539 193.036 350.261 193.18 349.523 193.522C349.055 193.738 349.055 193.81 349.145 194.062L349.523 195.196C349.559 195.322 349.595 195.376 349.703 195.376C349.829 195.376 349.955 195.286 350.567 195.088C351.017 194.944 351.557 194.836 352.025 194.836C352.529 194.836 352.835 194.998 352.997 195.196C353.231 195.484 353.213 195.916 353.213 196.168V196.726C352.187 196.69 350.495 196.834 349.613 197.464C349.235 197.734 348.515 198.418 348.515 199.804C348.515 201.46 349.559 202.54 351.179 202.54C352.367 202.54 353.015 202 353.483 201.532L353.555 201.46C353.609 201.748 353.699 202 353.861 202.324C354.005 202.594 354.113 202.558 354.239 202.504L355.697 201.91ZM353.213 200.182C352.817 200.614 352.331 200.866 351.863 200.866C351.215 200.866 350.675 200.38 350.675 199.642C350.675 198.58 351.665 198.202 353.105 198.202H353.213V200.182ZM362.894 199.984C362.678 199.984 362.57 200.074 362.498 200.29L361.364 204.016C361.346 204.088 361.328 204.142 361.328 204.196C361.328 204.358 361.508 204.394 361.616 204.43L362.372 204.682C362.426 204.7 362.462 204.718 362.516 204.718C362.642 204.718 362.678 204.628 362.75 204.502L364.91 200.452C364.946 200.362 365 200.272 365 200.182C365 200.002 364.82 199.984 364.64 199.984H362.894ZM375.517 197.338C375.175 197.518 374.761 197.59 374.401 197.59C373.537 197.59 373.465 196.996 373.465 196.672V193.27C373.465 193 373.321 193.018 373.177 193.054L371.791 193.342C371.143 193.468 371.179 193.486 371.179 193.72V196.672C371.179 197.266 371.179 198.022 371.647 198.598C372.025 199.066 372.727 199.39 373.609 199.39C374.347 199.39 375.067 199.192 375.517 199.03V201.982C375.517 202.18 375.571 202.234 375.769 202.234H377.551C377.785 202.234 377.803 202.18 377.803 201.982V193.27C377.803 193 377.659 193.018 377.515 193.054L375.859 193.396C375.499 193.468 375.517 193.558 375.517 193.72V197.338ZM383.75 195.142H385.73C385.82 195.142 385.946 195.106 386 194.89L386.252 193.702C386.288 193.522 386.36 193.342 385.982 193.342H379.412C379.214 193.342 379.16 193.396 379.16 193.594V194.89C379.16 195.088 379.214 195.142 379.412 195.142H381.464V201.982C381.464 202.216 381.518 202.234 381.716 202.234H383.498C383.732 202.234 383.75 202.18 383.75 201.982V195.142ZM394.808 197.788C394.808 194.404 392.882 193.036 390.902 193.036C388.922 193.036 386.996 194.404 386.996 197.788C386.996 201.172 388.922 202.54 390.902 202.54C392.882 202.54 394.808 201.172 394.808 197.788ZM390.902 200.74C389.498 200.74 389.426 199.156 389.426 197.788C389.426 196.42 389.534 194.836 390.902 194.836C392.27 194.836 392.378 196.42 392.378 197.788C392.378 199.174 392.288 200.74 390.902 200.74ZM402.241 194.962L402.259 194.764C402.421 193.018 403.843 192.334 404.329 192.118L408.073 190.516C408.415 190.372 408.343 190.138 408.307 190.066L407.695 188.734C407.569 188.446 407.245 188.608 407.137 188.662L403.753 190.192C402.367 190.822 401.431 192.028 401.017 193.18C400.639 194.188 400.585 195.412 400.585 196.744C400.585 197.914 400.639 199.282 401.179 200.416C402.097 202.306 403.753 202.54 404.581 202.54C406.597 202.54 408.487 201.1 408.487 197.968C408.487 195.142 407.065 193.45 404.941 193.45C403.735 193.45 402.817 193.972 402.313 194.962H402.241ZM404.581 200.74C403.177 200.74 403.105 199.102 403.105 197.968C403.105 196.852 403.177 195.25 404.581 195.25C405.985 195.25 406.057 196.852 406.057 197.968C406.057 199.102 405.985 200.74 404.581 200.74ZM413.57 202.234C414.524 202.234 415.73 202.198 416.576 201.514C417.422 200.848 417.53 199.912 417.53 199.264C417.53 198.508 417.35 197.752 416.648 197.158C415.838 196.474 414.83 196.438 413.822 196.438H412.814V193.27C412.814 193 412.67 193.018 412.526 193.054L411.158 193.342C410.51 193.486 410.528 193.468 410.528 193.72V201.982C410.528 202.216 410.582 202.234 410.78 202.234H413.57ZM412.814 198.238H413.912C414.29 198.238 415.244 198.256 415.244 199.336C415.244 200.38 414.38 200.434 413.714 200.434H412.814V198.238ZM418.772 201.982C418.772 202.216 418.826 202.234 419.024 202.234H420.806C421.04 202.234 421.058 202.18 421.058 201.982V193.27C421.058 193 420.914 193.018 420.77 193.054L419.114 193.396C418.754 193.468 418.772 193.558 418.772 193.72V201.982ZM430.904 202.234C431.984 202.234 433.028 202.216 433.892 201.64C434.666 201.136 434.864 200.344 434.864 199.714C434.864 198.472 434.108 197.716 433.136 197.518C434.054 197.23 434.576 196.456 434.576 195.538C434.576 194.656 434.108 194.098 433.694 193.81C432.992 193.342 431.822 193.342 430.778 193.342H428.024C427.79 193.342 427.772 193.396 427.772 193.594V201.982C427.772 202.216 427.826 202.234 428.024 202.234H430.904ZM430.058 195.016H430.958C431.516 195.016 432.29 195.07 432.29 195.88C432.29 196.186 432.164 196.852 431.012 196.852H430.058V195.016ZM430.058 198.472H431.246C431.57 198.472 432.578 198.49 432.578 199.498C432.578 200.452 431.714 200.56 431.048 200.56H430.058V198.472ZM440.148 202.234C441.102 202.234 442.308 202.198 443.154 201.514C444 200.848 444.108 199.912 444.108 199.264C444.108 198.508 443.928 197.752 443.226 197.158C442.416 196.474 441.408 196.438 440.4 196.438H439.392V193.27C439.392 193 439.248 193.018 439.104 193.054L437.736 193.342C437.088 193.486 437.106 193.468 437.106 193.72V201.982C437.106 202.216 437.16 202.234 437.358 202.234H440.148ZM439.392 198.238H440.49C440.868 198.238 441.822 198.256 441.822 199.336C441.822 200.38 440.958 200.434 440.292 200.434H439.392V198.238ZM445.35 201.982C445.35 202.216 445.404 202.234 445.602 202.234H447.384C447.618 202.234 447.636 202.18 447.636 201.982V193.27C447.636 193 447.492 193.018 447.348 193.054L445.692 193.396C445.332 193.468 445.35 193.558 445.35 193.72V201.982ZM451.355 194.962L451.373 194.764C451.535 193.018 452.957 192.334 453.443 192.118L457.187 190.516C457.529 190.372 457.457 190.138 457.421 190.066L456.809 188.734C456.683 188.446 456.359 188.608 456.251 188.662L452.867 190.192C451.481 190.822 450.545 192.028 450.131 193.18C449.753 194.188 449.699 195.412 449.699 196.744C449.699 197.914 449.753 199.282 450.293 200.416C451.211 202.306 452.867 202.54 453.695 202.54C455.711 202.54 457.601 201.1 457.601 197.968C457.601 195.142 456.179 193.45 454.055 193.45C452.849 193.45 451.931 193.972 451.427 194.962H451.355ZM453.695 200.74C452.291 200.74 452.219 199.102 452.219 197.968C452.219 196.852 452.291 195.25 453.695 195.25C455.099 195.25 455.171 196.852 455.171 197.968C455.171 199.102 455.099 200.74 453.695 200.74ZM462.035 202.072L462.107 202.108C462.287 202.198 462.773 202.54 463.907 202.54C467.147 202.54 467.219 199.066 467.219 197.716C467.219 193.774 465.455 193.036 464.051 193.036C463.331 193.036 462.557 193.27 461.801 193.972C461.747 193.81 461.711 193.648 461.639 193.486C461.441 192.946 461.261 193 460.973 193.09L459.605 193.54C459.515 193.576 459.407 193.63 459.407 193.738C459.407 193.792 459.425 193.846 459.479 194.026C459.605 194.404 459.749 194.998 459.749 196.546V205.78C459.749 206.122 459.893 206.068 460.037 206.032L461.693 205.69C462.053 205.618 462.035 205.528 462.035 205.366V202.072ZM462.035 195.52L462.107 195.448C462.395 195.16 462.845 194.836 463.421 194.836C464.897 194.836 464.933 196.564 464.933 197.662C464.933 199.066 464.861 199.588 464.645 199.984C464.303 200.632 463.745 200.74 463.331 200.74C463.079 200.74 462.557 200.722 462.035 200.398V195.52ZM475.861 201.91C475.915 201.892 476.005 201.838 476.005 201.73C476.005 201.64 475.933 201.514 475.807 201.19C475.537 200.506 475.537 199.93 475.537 199.408V195.934C475.537 195.61 475.501 194.8 475.141 194.188C474.601 193.27 473.557 193.036 472.441 193.036C471.703 193.036 470.425 193.18 469.687 193.522C469.219 193.738 469.219 193.81 469.309 194.062L469.687 195.196C469.723 195.322 469.759 195.376 469.867 195.376C469.993 195.376 470.119 195.286 470.731 195.088C471.181 194.944 471.721 194.836 472.189 194.836C472.693 194.836 472.999 194.998 473.161 195.196C473.395 195.484 473.377 195.916 473.377 196.168V196.726C472.351 196.69 470.659 196.834 469.777 197.464C469.399 197.734 468.679 198.418 468.679 199.804C468.679 201.46 469.723 202.54 471.343 202.54C472.531 202.54 473.179 202 473.647 201.532L473.719 201.46C473.773 201.748 473.863 202 474.025 202.324C474.169 202.594 474.277 202.558 474.403 202.504L475.861 201.91ZM473.377 200.182C472.981 200.614 472.495 200.866 472.027 200.866C471.379 200.866 470.839 200.38 470.839 199.642C470.839 198.58 471.829 198.202 473.269 198.202H473.377V200.182ZM481.081 195.142H483.061C483.151 195.142 483.277 195.106 483.331 194.89L483.583 193.702C483.619 193.522 483.691 193.342 483.313 193.342H476.743C476.545 193.342 476.491 193.396 476.491 193.594V194.89C476.491 195.088 476.545 195.142 476.743 195.142H478.795V201.982C478.795 202.216 478.849 202.234 479.047 202.234H480.829C481.063 202.234 481.081 202.18 481.081 201.982V195.142ZM487.872 202.234C488.826 202.234 490.032 202.198 490.878 201.514C491.724 200.848 491.832 199.912 491.832 199.264C491.832 198.508 491.652 197.752 490.95 197.158C490.14 196.474 489.132 196.438 488.124 196.438H487.116V193.27C487.116 193 486.972 193.018 486.828 193.054L485.424 193.342C484.812 193.468 484.83 193.486 484.83 193.72V201.982C484.83 202.216 484.884 202.234 485.082 202.234H487.872ZM487.116 198.238H488.214C488.592 198.238 489.546 198.256 489.546 199.336C489.546 200.38 488.682 200.434 488.016 200.434H487.116V198.238ZM502.892 196.672H500.3V193.27C500.3 193 500.156 193.018 500.012 193.054L498.59 193.342C497.978 193.468 498.014 193.522 498.014 193.72V201.982C498.014 202.18 498.068 202.234 498.266 202.234H500.048C500.282 202.234 500.3 202.18 500.3 201.982V198.472H502.892V201.982C502.892 202.216 502.946 202.234 503.144 202.234H504.926C505.16 202.234 505.178 202.18 505.178 201.982V193.27C505.178 193 505.034 193.018 504.89 193.054L503.234 193.396C502.874 193.468 502.892 193.558 502.892 193.72V196.672ZM515.007 197.788C515.007 194.404 513.081 193.036 511.101 193.036C509.121 193.036 507.195 194.404 507.195 197.788C507.195 201.172 509.121 202.54 511.101 202.54C513.081 202.54 515.007 201.172 515.007 197.788ZM511.101 200.74C509.697 200.74 509.625 199.156 509.625 197.788C509.625 196.42 509.733 194.836 511.101 194.836C512.469 194.836 512.577 196.42 512.577 197.788C512.577 199.174 512.487 200.74 511.101 200.74ZM520.165 202.234C521.245 202.234 522.289 202.216 523.153 201.64C523.927 201.136 524.125 200.344 524.125 199.714C524.125 198.472 523.369 197.716 522.397 197.518C523.315 197.23 523.837 196.456 523.837 195.538C523.837 194.656 523.369 194.098 522.955 193.81C522.253 193.342 521.083 193.342 520.039 193.342H517.285C517.051 193.342 517.033 193.396 517.033 193.594V201.982C517.033 202.216 517.087 202.234 517.285 202.234H520.165ZM519.319 195.016H520.219C520.777 195.016 521.551 195.07 521.551 195.88C521.551 196.186 521.425 196.852 520.273 196.852H519.319V195.016ZM519.319 198.472H520.507C520.831 198.472 521.839 198.49 521.839 199.498C521.839 200.452 520.975 200.56 520.309 200.56H519.319V198.472ZM529.409 202.234C530.363 202.234 531.569 202.198 532.415 201.514C533.261 200.848 533.369 199.912 533.369 199.264C533.369 198.508 533.189 197.752 532.487 197.158C531.677 196.474 530.669 196.438 529.661 196.438H528.653V193.27C528.653 193 528.509 193.018 528.365 193.054L526.997 193.342C526.349 193.486 526.367 193.468 526.367 193.72V201.982C526.367 202.216 526.421 202.234 526.619 202.234H529.409ZM528.653 198.238H529.751C530.129 198.238 531.083 198.256 531.083 199.336C531.083 200.38 530.219 200.434 529.553 200.434H528.653V198.238ZM534.611 201.982C534.611 202.216 534.665 202.234 534.863 202.234H536.645C536.879 202.234 536.897 202.18 536.897 201.982V193.27C536.897 193 536.753 193.018 536.609 193.054L534.953 193.396C534.593 193.468 534.611 193.558 534.611 193.72V201.982ZM539.41 201.982C539.41 202.216 539.464 202.234 539.662 202.234H541.444C541.678 202.234 541.696 202.144 541.786 201.982L543.496 198.814C543.73 198.382 544 198.004 544.63 196.618H544.702C544.63 197.752 544.612 198.238 544.612 198.562V201.982C544.612 202.216 544.666 202.234 544.864 202.234H546.646C546.88 202.234 546.898 202.18 546.898 201.982V193.27C546.898 193 546.754 193.018 546.61 193.054L545.206 193.342C544.918 193.396 544.792 193.324 544.558 193.72L542.812 196.762C542.47 197.356 542.164 197.896 541.678 198.958H541.606C541.642 198.508 541.696 197.518 541.696 197.014V193.27C541.696 193 541.552 193.018 541.408 193.054L539.752 193.396C539.392 193.468 539.41 193.558 539.41 193.72V201.982ZM544.504 189.256C544.468 189.256 544.414 189.238 544.378 189.238C544.162 189.238 544.18 189.382 544.09 189.652C543.946 190.156 543.694 190.426 543.154 190.426C542.614 190.426 542.362 190.156 542.218 189.652C542.164 189.454 542.146 189.346 542.092 189.292C542.02 189.202 541.894 189.238 541.804 189.256L540.76 189.4C540.688 189.418 540.598 189.49 540.598 189.688C540.598 189.976 540.706 190.39 540.922 190.75C541.336 191.416 542.146 191.902 543.154 191.902C544.162 191.902 544.972 191.416 545.386 190.75C545.602 190.39 545.71 189.976 545.71 189.688C545.71 189.49 545.62 189.418 545.548 189.4L544.504 189.256ZM556.745 202.234C557.825 202.234 558.869 202.216 559.733 201.64C560.507 201.136 560.705 200.344 560.705 199.714C560.705 198.472 559.949 197.716 558.977 197.518C559.895 197.23 560.417 196.456 560.417 195.538C560.417 194.656 559.949 194.098 559.535 193.81C558.833 193.342 557.663 193.342 556.619 193.342H553.865C553.631 193.342 553.613 193.396 553.613 193.594V201.982C553.613 202.216 553.667 202.234 553.865 202.234H556.745ZM555.899 195.016H556.799C557.357 195.016 558.131 195.07 558.131 195.88C558.131 196.186 558.005 196.852 556.853 196.852H555.899V195.016ZM555.899 198.472H557.087C557.411 198.472 558.419 198.49 558.419 199.498C558.419 200.452 557.555 200.56 556.889 200.56H555.899V198.472ZM564.909 202.234C565.233 202.234 565.233 202.108 565.233 201.982V198.508H565.971C566.799 198.508 566.907 198.904 567.015 199.39L567.357 200.884C567.483 201.424 567.681 201.856 568.113 202.144C568.581 202.468 569.427 202.54 569.769 202.54C570.165 202.54 570.201 202.396 570.237 202.27L570.561 201.118C570.651 200.776 570.489 200.74 570.363 200.722L569.967 200.65C569.571 200.578 569.499 200.398 569.355 199.966L569.013 198.976C568.815 198.418 568.635 197.77 567.771 197.59V197.536C568.527 197.392 568.761 196.78 568.869 196.402L569.067 195.7C569.265 194.98 569.445 194.944 569.805 194.872L570.075 194.818C570.255 194.782 570.345 194.656 570.309 194.53L569.949 193.216C569.913 193.108 569.877 193.036 569.625 193.036C569.301 193.036 568.473 193.144 567.969 193.594C567.537 193.972 567.375 194.494 567.303 194.8L567.069 195.826C566.961 196.312 566.853 196.708 566.025 196.708H565.233V193.27C565.233 193 565.089 193.018 564.945 193.054L563.541 193.342C562.929 193.468 562.947 193.486 562.947 193.72V201.982C562.947 202.108 562.947 202.234 563.271 202.234H564.909ZM577.363 193.18C577.021 193.144 576.913 193.342 576.859 193.558L575.905 197.896C575.851 198.184 575.689 198.67 575.311 201.01H575.275C575.149 200.344 574.771 198.562 574.591 197.896L573.421 193.54C573.313 193.108 573.241 193.162 572.881 193.198L571.387 193.342C571.189 193.36 570.991 193.378 570.991 193.558C570.991 193.648 571.027 193.72 571.081 193.864L573.835 202C573.925 202.27 574.033 202.234 574.159 202.234H574.915L574.735 202.828C574.537 203.476 574.285 204.16 573.313 204.16C572.809 204.16 572.341 203.962 572.053 203.818C571.927 203.746 571.855 203.71 571.783 203.71C571.729 203.71 571.657 203.728 571.603 203.836L571.027 205.078C570.955 205.24 570.937 205.366 571.459 205.6C572.161 205.924 572.827 206.05 573.439 206.05C574.213 206.05 575.347 205.852 576.031 204.484C576.337 203.872 576.607 202.9 577.291 200.362L579.055 193.882C579.109 193.684 579.127 193.63 579.127 193.576C579.127 193.396 578.929 193.378 578.749 193.36L577.363 193.18ZM586.647 194.296C586.683 194.242 586.701 194.206 586.701 194.134C586.701 194.026 586.629 193.864 586.305 193.648C585.819 193.342 585.099 193.036 584.127 193.036C581.967 193.036 579.951 194.404 579.951 197.986C579.951 201.424 581.913 202.54 583.983 202.54C584.685 202.54 585.441 202.378 586.035 202.054C586.305 201.91 586.485 201.73 586.485 201.586C586.485 201.532 586.449 201.442 586.431 201.406L585.963 200.218C585.945 200.164 585.873 200.128 585.837 200.128C585.711 200.128 585.513 200.29 585.297 200.416C584.973 200.614 584.631 200.74 584.163 200.74C583.389 200.74 582.957 200.326 582.723 199.93C582.525 199.588 582.381 199.03 582.381 197.932C582.381 196.51 582.633 195.916 582.741 195.682C582.993 195.178 583.425 194.836 584.127 194.836C584.595 194.836 584.955 194.98 585.333 195.232C585.603 195.412 585.747 195.556 585.855 195.556C585.927 195.556 585.963 195.502 585.981 195.466L586.647 194.296ZM229.121 210.904C228.887 210.904 228.869 211.012 228.815 211.174L225.233 222.874C225.197 222.982 225.125 223.234 225.503 223.234H227.429C227.663 223.234 227.681 223.144 227.753 222.856L228.491 219.94H231.587L232.379 222.856C232.487 223.216 232.541 223.234 232.757 223.234H234.755C234.845 223.234 235.043 223.216 235.043 223.018C235.043 222.928 235.007 222.874 234.989 222.802L231.461 211.192C231.407 211.012 231.371 210.904 231.191 210.904H229.121ZM231.137 218.32H228.761L229.553 215.224C229.877 213.982 229.931 213.316 229.949 212.83H230.003C230.147 214.072 230.273 214.684 230.399 215.224L231.137 218.32ZM240.173 221.416C240.155 221.344 240.083 221.308 240.029 221.308C239.975 221.308 239.903 221.344 239.777 221.38C239.633 221.434 239.489 221.47 239.345 221.47C238.787 221.47 238.823 220.876 238.823 220.39V210.58C238.823 210.454 238.841 210.292 238.769 210.238C238.697 210.184 238.589 210.202 238.535 210.22L236.879 210.562C236.519 210.634 236.537 210.724 236.537 210.886V220.066C236.537 221.848 236.573 223.54 238.841 223.54C239.345 223.54 239.741 223.45 240.209 223.306C240.551 223.198 240.587 223.09 240.533 222.892L240.173 221.416ZM244.33 223.072L244.402 223.108C244.582 223.198 245.068 223.54 246.202 223.54C249.442 223.54 249.514 220.066 249.514 218.716C249.514 214.774 247.75 214.036 246.346 214.036C245.626 214.036 244.852 214.27 244.096 214.972C244.042 214.81 244.006 214.648 243.934 214.486C243.736 213.946 243.556 214 243.268 214.09L241.9 214.54C241.81 214.576 241.702 214.63 241.702 214.738C241.702 214.792 241.72 214.846 241.774 215.026C241.9 215.404 242.044 215.998 242.044 217.546V226.78C242.044 227.122 242.188 227.068 242.332 227.032L243.988 226.69C244.348 226.618 244.33 226.528 244.33 226.366V223.072ZM244.33 216.52L244.402 216.448C244.69 216.16 245.14 215.836 245.716 215.836C247.192 215.836 247.228 217.564 247.228 218.662C247.228 220.066 247.156 220.588 246.94 220.984C246.598 221.632 246.04 221.74 245.626 221.74C245.374 221.74 244.852 221.722 244.33 221.398V216.52ZM258.21 219.4C258.444 219.4 258.624 219.382 258.624 218.824C258.624 218.356 258.606 217.69 258.426 216.934C258.102 215.53 257.292 214.036 255.024 214.036C252.504 214.036 251.082 216.178 251.082 219.022C251.082 220.264 251.334 223.54 255.186 223.54C256.194 223.54 257.382 223.27 258.048 222.82C258.192 222.73 258.336 222.604 258.336 222.424C258.336 222.37 258.318 222.334 258.282 222.262L257.832 221.2C257.796 221.11 257.742 221.056 257.634 221.056C257.526 221.056 257.364 221.128 257.148 221.236C256.806 221.398 256.176 221.65 255.348 221.65C253.854 221.65 253.368 220.714 253.368 219.4H258.21ZM253.368 217.726C253.476 216.502 253.872 215.71 254.898 215.71C255.618 215.71 255.978 216.124 256.122 216.808C256.158 216.952 256.212 217.24 256.194 217.726H253.368ZM267.804 216.664C267.804 215.296 267.102 214.036 265.482 214.036C264.636 214.036 263.7 214.288 262.71 215.278C262.656 214.918 262.566 214.63 262.476 214.414C262.296 214 262.224 213.964 261.864 214.09L260.496 214.54C260.316 214.594 260.298 214.702 260.298 214.774C260.298 214.936 260.37 215.008 260.46 215.368C260.568 215.836 260.64 216.376 260.64 217.546V222.982C260.64 223.216 260.694 223.234 260.892 223.234H262.674C262.908 223.234 262.926 223.18 262.926 222.982V216.664C263.61 216.034 264.114 215.926 264.456 215.926C265.464 215.926 265.518 216.772 265.518 217.438V222.982C265.518 223.216 265.572 223.234 265.77 223.234H267.552C267.786 223.234 267.804 223.18 267.804 222.982V216.664ZM280.288 218.734V221.308C279.784 221.542 279.37 221.596 279.046 221.596C278.452 221.596 277.93 221.416 277.588 221.11C276.688 220.3 276.598 218.194 276.598 217.294C276.598 216.34 276.724 214.882 276.976 214.126C277.318 213.136 277.93 212.542 279.028 212.542C279.586 212.542 280.108 212.704 280.648 212.992C281.116 213.244 281.242 213.334 281.35 213.334C281.494 213.334 281.53 213.226 281.584 213.136L282.178 211.948C282.25 211.804 282.322 211.678 281.854 211.39C281.548 211.21 280.504 210.598 278.866 210.598C277.354 210.598 276.292 211.12 275.536 211.93C274.672 212.866 274.042 214.45 274.042 217.33C274.042 219.184 274.366 220.768 275.266 221.956C276.076 223.018 277.21 223.54 278.884 223.54C280.378 223.54 281.368 223.108 281.872 222.838C282.34 222.586 282.466 222.46 282.466 222.208V217.15C282.466 216.826 282.268 216.79 282.106 216.79H278.92C278.758 216.79 278.56 216.826 278.56 217.15V218.374C278.56 218.698 278.758 218.734 278.92 218.734H280.288ZM292.24 218.788C292.24 215.404 290.314 214.036 288.334 214.036C286.354 214.036 284.428 215.404 284.428 218.788C284.428 222.172 286.354 223.54 288.334 223.54C290.314 223.54 292.24 222.172 292.24 218.788ZM288.334 221.74C286.93 221.74 286.858 220.156 286.858 218.788C286.858 217.42 286.966 215.836 288.334 215.836C289.702 215.836 289.81 217.42 289.81 218.788C289.81 220.174 289.72 221.74 288.334 221.74ZM297.812 221.416C297.794 221.344 297.722 221.308 297.668 221.308C297.614 221.308 297.542 221.344 297.416 221.38C297.272 221.434 297.128 221.47 296.984 221.47C296.426 221.47 296.462 220.876 296.462 220.39V210.58C296.462 210.454 296.48 210.292 296.408 210.238C296.336 210.184 296.228 210.202 296.174 210.22L294.518 210.562C294.158 210.634 294.176 210.724 294.176 210.886V220.066C294.176 221.848 294.212 223.54 296.48 223.54C296.984 223.54 297.38 223.45 297.848 223.306C298.19 223.198 298.226 223.09 298.172 222.892L297.812 221.416ZM304.524 222.46C304.614 222.892 304.722 223.108 304.848 223.342C304.974 223.594 305.082 223.558 305.19 223.504L306.648 222.91C306.774 222.856 306.81 222.82 306.81 222.748C306.81 222.676 306.774 222.604 306.684 222.244C306.504 221.524 306.486 220.696 306.486 220.408V210.58C306.486 210.148 306.414 210.166 306.198 210.22L304.488 210.58C304.182 210.634 304.2 210.724 304.2 210.886V214.576C303.714 214.18 303.192 214.036 302.508 214.036C301.176 214.036 299.07 214.756 299.07 219.022C299.07 222.838 300.834 223.54 302.076 223.54C302.976 223.54 303.786 223.198 304.488 222.496L304.524 222.46ZM304.2 221.11L304.092 221.236C303.894 221.47 303.552 221.74 302.868 221.74C302.472 221.74 301.986 221.65 301.662 221.056C301.518 220.768 301.356 220.282 301.356 218.752C301.356 217.528 301.446 216.844 301.77 216.412C302.13 215.908 302.616 215.836 302.976 215.836C303.516 215.836 303.822 215.98 304.11 216.142L304.2 216.196V221.11ZM319.968 214.594C319.968 214.504 319.986 214.342 319.716 214.342H314.28C313.992 214.342 314.028 214.468 314.028 214.594V215.404C314.028 217.78 313.992 219.49 312.948 221.434H312.372C312.246 221.434 312.12 221.398 312.12 221.686V225.502C312.12 225.7 312.174 225.754 312.372 225.754H314.064C314.298 225.754 314.316 225.7 314.316 225.502V223.234H318.888V225.502C318.888 225.7 318.942 225.754 319.14 225.754H320.832C321.066 225.754 321.084 225.7 321.084 225.502V221.686C321.084 221.398 320.958 221.434 320.832 221.434H319.968V214.594ZM317.682 221.434H315.144C315.936 219.778 316.062 218.23 316.062 216.718V216.142H317.682V221.434ZM327.476 216.142V222.982C327.476 223.18 327.53 223.234 327.728 223.234H329.51C329.744 223.234 329.762 223.18 329.762 222.982V214.594C329.762 214.396 329.708 214.342 329.51 214.342H323.984C323.75 214.342 323.732 214.396 323.732 214.594V215.404C323.732 216.466 323.696 219.22 323.498 220.174C323.318 221.11 322.904 221.416 322.292 221.56L321.986 221.632C321.878 221.65 321.68 221.668 321.752 221.938L322.112 223.27C322.148 223.396 322.184 223.54 322.49 223.54C322.922 223.54 324.56 223.432 325.298 221.596C325.856 220.174 325.91 217.402 325.91 216.376V216.142H327.476ZM338.677 223.234C338.875 223.234 338.929 223.216 338.929 222.982V214.594C338.929 214.36 338.875 214.342 338.677 214.342H335.239C334.753 214.342 333.655 214.378 332.899 214.972C332.287 215.44 331.981 216.232 331.981 216.934C331.981 217.456 332.161 218.104 332.521 218.5C332.791 218.788 333.241 219.058 333.673 219.166V219.202C333.025 219.382 332.755 219.868 332.557 220.57L332.449 220.966C332.323 221.398 332.215 221.578 331.837 221.65L331.477 221.722C331.351 221.74 331.189 221.776 331.279 222.118L331.603 223.27C331.639 223.396 331.657 223.54 332.035 223.54C332.449 223.54 333.187 223.45 333.655 223.126C334.141 222.784 334.321 222.298 334.447 221.83L334.735 220.804C334.897 220.21 335.041 219.922 335.797 219.922H336.643V222.982C336.643 223.18 336.661 223.234 336.895 223.234H338.677ZM336.643 218.212H335.671C335.257 218.212 334.267 218.14 334.267 217.132C334.267 216.772 334.411 216.052 335.581 216.052H336.643V218.212ZM348.437 212.848H351.677V222.874C351.677 223.036 351.713 223.234 352.037 223.234H353.765C353.927 223.234 354.125 223.198 354.125 222.874V211.264C354.125 211.102 354.089 210.904 353.765 210.904H346.349C346.187 210.904 345.989 210.94 345.989 211.264V222.874C345.989 223.036 346.025 223.234 346.349 223.234H348.077C348.401 223.234 348.437 223.036 348.437 222.874V212.848ZM363.375 223.234C363.573 223.234 363.627 223.216 363.627 222.982V214.594C363.627 214.36 363.573 214.342 363.375 214.342H359.937C359.451 214.342 358.353 214.378 357.597 214.972C356.985 215.44 356.679 216.232 356.679 216.934C356.679 217.456 356.859 218.104 357.219 218.5C357.489 218.788 357.939 219.058 358.371 219.166V219.202C357.723 219.382 357.453 219.868 357.255 220.57L357.147 220.966C357.021 221.398 356.913 221.578 356.535 221.65L356.175 221.722C356.049 221.74 355.887 221.776 355.977 222.118L356.301 223.27C356.337 223.396 356.355 223.54 356.733 223.54C357.147 223.54 357.885 223.45 358.353 223.126C358.839 222.784 359.019 222.298 359.145 221.83L359.433 220.804C359.595 220.21 359.739 219.922 360.495 219.922H361.341V222.982C361.341 223.18 361.359 223.234 361.593 223.234H363.375ZM361.341 218.212H360.369C359.955 218.212 358.965 218.14 358.965 217.132C358.965 216.772 359.109 216.052 360.279 216.052H361.341V218.212ZM369.653 216.142H371.633C371.723 216.142 371.849 216.106 371.903 215.89L372.155 214.702C372.191 214.522 372.263 214.342 371.885 214.342H365.315C365.117 214.342 365.063 214.396 365.063 214.594V215.89C365.063 216.088 365.117 216.142 365.315 216.142H367.367V222.982C367.367 223.216 367.421 223.234 367.619 223.234H369.401C369.635 223.234 369.653 223.18 369.653 222.982V216.142ZM380.009 219.4C380.243 219.4 380.423 219.382 380.423 218.824C380.423 218.356 380.405 217.69 380.225 216.934C379.901 215.53 379.091 214.036 376.823 214.036C374.303 214.036 372.881 216.178 372.881 219.022C372.881 220.264 373.133 223.54 376.985 223.54C377.993 223.54 379.181 223.27 379.847 222.82C379.991 222.73 380.135 222.604 380.135 222.424C380.135 222.37 380.117 222.334 380.081 222.262L379.631 221.2C379.595 221.11 379.541 221.056 379.433 221.056C379.325 221.056 379.163 221.128 378.947 221.236C378.605 221.398 377.975 221.65 377.147 221.65C375.653 221.65 375.167 220.714 375.167 219.4H380.009ZM375.167 217.726C375.275 216.502 375.671 215.71 376.697 215.71C377.417 215.71 377.777 216.124 377.921 216.808C377.957 216.952 378.011 217.24 377.993 217.726H375.167ZM374.087 211.498C374.087 212.182 374.627 212.722 375.311 212.722C375.995 212.722 376.535 212.182 376.535 211.498C376.535 210.814 375.995 210.274 375.311 210.274C374.627 210.274 374.087 210.814 374.087 211.498ZM377.255 211.498C377.255 212.182 377.795 212.722 378.479 212.722C379.163 212.722 379.703 212.182 379.703 211.498C379.703 210.814 379.163 210.274 378.479 210.274C377.795 210.274 377.255 210.814 377.255 211.498ZM384.797 223.072L384.869 223.108C385.049 223.198 385.535 223.54 386.669 223.54C389.909 223.54 389.981 220.066 389.981 218.716C389.981 214.774 388.217 214.036 386.813 214.036C386.093 214.036 385.319 214.27 384.563 214.972C384.509 214.81 384.473 214.648 384.401 214.486C384.203 213.946 384.023 214 383.735 214.09L382.367 214.54C382.277 214.576 382.169 214.63 382.169 214.738C382.169 214.792 382.187 214.846 382.241 215.026C382.367 215.404 382.511 215.998 382.511 217.546V226.78C382.511 227.122 382.655 227.068 382.799 227.032L384.455 226.69C384.815 226.618 384.797 226.528 384.797 226.366V223.072ZM384.797 216.52L384.869 216.448C385.157 216.16 385.607 215.836 386.183 215.836C387.659 215.836 387.695 217.564 387.695 218.662C387.695 220.066 387.623 220.588 387.407 220.984C387.065 221.632 386.507 221.74 386.093 221.74C385.841 221.74 385.319 221.722 384.797 221.398V216.52ZM399.379 218.788C399.379 215.404 397.453 214.036 395.473 214.036C393.493 214.036 391.567 215.404 391.567 218.788C391.567 222.172 393.493 223.54 395.473 223.54C397.453 223.54 399.379 222.172 399.379 218.788ZM395.473 221.74C394.069 221.74 393.997 220.156 393.997 218.788C393.997 217.42 394.105 215.836 395.473 215.836C396.841 215.836 396.949 217.42 396.949 218.788C396.949 220.174 396.859 221.74 395.473 221.74ZM405.383 218.338C405.041 218.518 404.627 218.59 404.267 218.59C403.403 218.59 403.331 217.996 403.331 217.672V214.27C403.331 214 403.187 214.018 403.043 214.054L401.657 214.342C401.009 214.468 401.045 214.486 401.045 214.72V217.672C401.045 218.266 401.045 219.022 401.513 219.598C401.891 220.066 402.593 220.39 403.475 220.39C404.213 220.39 404.933 220.192 405.383 220.03V222.982C405.383 223.18 405.437 223.234 405.635 223.234H407.417C407.651 223.234 407.669 223.18 407.669 222.982V214.27C407.669 214 407.525 214.018 407.381 214.054L405.725 214.396C405.365 214.468 405.383 214.558 405.383 214.72V218.338ZM412.068 223.234C412.392 223.234 412.392 223.108 412.392 222.982V219.508H413.13C413.958 219.508 414.066 219.904 414.174 220.39L414.516 221.884C414.642 222.424 414.84 222.856 415.272 223.144C415.74 223.468 416.586 223.54 416.928 223.54C417.324 223.54 417.36 223.396 417.396 223.27L417.72 222.118C417.81 221.776 417.648 221.74 417.522 221.722L417.126 221.65C416.73 221.578 416.658 221.398 416.514 220.966L416.172 219.976C415.974 219.418 415.794 218.77 414.93 218.59V218.536C415.686 218.392 415.92 217.78 416.028 217.402L416.226 216.7C416.424 215.98 416.604 215.944 416.964 215.872L417.234 215.818C417.414 215.782 417.504 215.656 417.468 215.53L417.108 214.216C417.072 214.108 417.036 214.036 416.784 214.036C416.46 214.036 415.632 214.144 415.128 214.594C414.696 214.972 414.534 215.494 414.462 215.8L414.228 216.826C414.12 217.312 414.012 217.708 413.184 217.708H412.392V214.27C412.392 214 412.248 214.018 412.104 214.054L410.7 214.342C410.088 214.468 410.106 214.486 410.106 214.72V222.982C410.106 223.108 410.106 223.234 410.43 223.234H412.068ZM419.229 222.982C419.229 223.216 419.283 223.234 419.481 223.234H421.263C421.497 223.234 421.515 223.144 421.605 222.982L423.315 219.814C423.549 219.382 423.819 219.004 424.449 217.618H424.521C424.449 218.824 424.431 219.22 424.431 219.562V222.982C424.431 223.216 424.485 223.234 424.683 223.234H426.465C426.699 223.234 426.717 223.18 426.717 222.982V214.27C426.717 214 426.573 214.018 426.429 214.054L424.989 214.342C424.683 214.396 424.593 214.36 424.377 214.72L422.631 217.762C422.289 218.356 421.983 218.896 421.497 219.958H421.425C421.461 219.508 421.515 218.518 421.515 218.014V214.27C421.515 214 421.371 214.018 421.227 214.054L419.571 214.396C419.211 214.468 419.229 214.558 419.229 214.72V222.982ZM433.432 222.982C433.432 223.216 433.486 223.234 433.684 223.234H435.466C435.7 223.234 435.718 223.144 435.808 222.982L437.518 219.814C437.752 219.382 438.022 219.004 438.652 217.618H438.724C438.652 218.824 438.634 219.22 438.634 219.562V222.982C438.634 223.216 438.688 223.234 438.886 223.234H440.668C440.902 223.234 440.92 223.18 440.92 222.982V214.27C440.92 214 440.776 214.018 440.632 214.054L439.192 214.342C438.886 214.396 438.796 214.36 438.58 214.72L436.834 217.762C436.492 218.356 436.186 218.896 435.7 219.958H435.628C435.664 219.508 435.718 218.518 435.718 218.014V214.27C435.718 214 435.574 214.018 435.43 214.054L433.774 214.396C433.414 214.468 433.432 214.558 433.432 214.72V222.982ZM452.459 216.142V222.982C452.459 223.18 452.513 223.234 452.711 223.234H454.493C454.727 223.234 454.745 223.18 454.745 222.982V214.594C454.745 214.36 454.691 214.342 454.493 214.342H447.887C447.689 214.342 447.635 214.36 447.635 214.594V222.982C447.635 223.18 447.653 223.234 447.887 223.234H449.669C449.903 223.234 449.921 223.18 449.921 222.982V216.142H452.459ZM464.576 218.788C464.576 215.404 462.65 214.036 460.67 214.036C458.69 214.036 456.764 215.404 456.764 218.788C456.764 222.172 458.69 223.54 460.67 223.54C462.65 223.54 464.576 222.172 464.576 218.788ZM460.67 221.74C459.266 221.74 459.194 220.156 459.194 218.788C459.194 217.42 459.302 215.836 460.67 215.836C462.038 215.836 462.146 217.42 462.146 218.788C462.146 220.174 462.056 221.74 460.67 221.74ZM471.336 216.142V222.982C471.336 223.18 471.39 223.234 471.588 223.234H473.37C473.604 223.234 473.622 223.18 473.622 222.982V214.594C473.622 214.396 473.568 214.342 473.37 214.342H467.844C467.61 214.342 467.592 214.396 467.592 214.594V215.404C467.592 216.466 467.556 219.22 467.358 220.174C467.178 221.11 466.764 221.416 466.152 221.56L465.846 221.632C465.738 221.65 465.54 221.668 465.612 221.938L465.972 223.27C466.008 223.396 466.044 223.54 466.35 223.54C466.782 223.54 468.42 223.432 469.158 221.596C469.716 220.174 469.77 217.402 469.77 216.376V216.142H471.336ZM481.439 214.18C481.097 214.144 480.989 214.342 480.935 214.558L479.981 218.896C479.927 219.184 479.765 219.67 479.387 222.01H479.351C479.225 221.344 478.847 219.562 478.667 218.896L477.497 214.54C477.389 214.108 477.317 214.162 476.957 214.198L475.463 214.342C475.265 214.36 475.067 214.378 475.067 214.558C475.067 214.648 475.103 214.72 475.157 214.864L477.911 223C478.001 223.27 478.109 223.234 478.235 223.234H478.991L478.811 223.828C478.613 224.476 478.361 225.16 477.389 225.16C476.885 225.16 476.417 224.962 476.129 224.818C476.003 224.746 475.931 224.71 475.859 224.71C475.805 224.71 475.733 224.728 475.679 224.836L475.103 226.078C475.031 226.24 475.013 226.366 475.535 226.6C476.237 226.924 476.903 227.05 477.515 227.05C478.289 227.05 479.423 226.852 480.107 225.484C480.413 224.872 480.683 223.9 481.367 221.362L483.131 214.882C483.185 214.684 483.203 214.63 483.203 214.576C483.203 214.396 483.005 214.378 482.825 214.36L481.439 214.18ZM488.703 218.338C488.361 218.518 487.947 218.59 487.587 218.59C486.723 218.59 486.651 217.996 486.651 217.672V214.27C486.651 214 486.507 214.018 486.363 214.054L484.977 214.342C484.329 214.468 484.365 214.486 484.365 214.72V217.672C484.365 218.266 484.365 219.022 484.833 219.598C485.211 220.066 485.913 220.39 486.795 220.39C487.533 220.39 488.253 220.192 488.703 220.03V222.982C488.703 223.18 488.757 223.234 488.955 223.234H490.737C490.971 223.234 490.989 223.18 490.989 222.982V214.27C490.989 214 490.845 214.018 490.701 214.054L489.045 214.396C488.685 214.468 488.703 214.558 488.703 214.72V218.338ZM499.978 222.91C500.032 222.892 500.122 222.838 500.122 222.73C500.122 222.64 500.05 222.514 499.924 222.19C499.654 221.506 499.654 220.93 499.654 220.408V216.934C499.654 216.61 499.618 215.8 499.258 215.188C498.718 214.27 497.674 214.036 496.558 214.036C495.82 214.036 494.542 214.18 493.804 214.522C493.336 214.738 493.336 214.81 493.426 215.062L493.804 216.196C493.84 216.322 493.876 216.376 493.984 216.376C494.11 216.376 494.236 216.286 494.848 216.088C495.298 215.944 495.838 215.836 496.306 215.836C496.81 215.836 497.116 215.998 497.278 216.196C497.512 216.484 497.494 216.916 497.494 217.168V217.726C496.468 217.69 494.776 217.834 493.894 218.464C493.516 218.734 492.796 219.418 492.796 220.804C492.796 222.46 493.84 223.54 495.46 223.54C496.648 223.54 497.296 223 497.764 222.532L497.836 222.46C497.89 222.748 497.98 223 498.142 223.324C498.286 223.594 498.394 223.558 498.52 223.504L499.978 222.91ZM497.494 221.182C497.098 221.614 496.612 221.866 496.144 221.866C495.496 221.866 494.956 221.38 494.956 220.642C494.956 219.58 495.946 219.202 497.386 219.202H497.494V221.182ZM502.092 222.982C502.092 223.216 502.146 223.234 502.344 223.234H504.126C504.36 223.234 504.378 223.144 504.468 222.982L506.178 219.814C506.412 219.382 506.682 219.004 507.312 217.618H507.384C507.312 218.752 507.294 219.238 507.294 219.562V222.982C507.294 223.216 507.348 223.234 507.546 223.234H509.328C509.562 223.234 509.58 223.18 509.58 222.982V214.27C509.58 214 509.436 214.018 509.292 214.054L507.888 214.342C507.6 214.396 507.474 214.324 507.24 214.72L505.494 217.762C505.152 218.356 504.846 218.896 504.36 219.958H504.288C504.324 219.508 504.378 218.518 504.378 218.014V214.27C504.378 214 504.234 214.018 504.09 214.054L502.434 214.396C502.074 214.468 502.092 214.558 502.092 214.72V222.982ZM507.186 210.256C507.15 210.256 507.096 210.238 507.06 210.238C506.844 210.238 506.862 210.382 506.772 210.652C506.628 211.156 506.376 211.426 505.836 211.426C505.296 211.426 505.044 211.156 504.9 210.652C504.846 210.454 504.828 210.346 504.774 210.292C504.702 210.202 504.576 210.238 504.486 210.256L503.442 210.4C503.37 210.418 503.28 210.49 503.28 210.688C503.28 210.976 503.388 211.39 503.604 211.75C504.018 212.416 504.828 212.902 505.836 212.902C506.844 212.902 507.654 212.416 508.068 211.75C508.284 211.39 508.392 210.976 508.392 210.688C508.392 210.49 508.302 210.418 508.23 210.4L507.186 210.256ZM521.119 216.142V222.982C521.119 223.18 521.173 223.234 521.371 223.234H523.153C523.387 223.234 523.405 223.18 523.405 222.982V214.594C523.405 214.36 523.351 214.342 523.153 214.342H516.547C516.349 214.342 516.295 214.36 516.295 214.594V222.982C516.295 223.18 516.313 223.234 516.547 223.234H518.329C518.563 223.234 518.581 223.18 518.581 222.982V216.142H521.119ZM528.322 223.072L528.394 223.108C528.574 223.198 529.06 223.54 530.194 223.54C533.434 223.54 533.506 220.066 533.506 218.716C533.506 214.774 531.742 214.036 530.338 214.036C529.618 214.036 528.844 214.27 528.088 214.972C528.034 214.81 527.998 214.648 527.926 214.486C527.728 213.946 527.548 214 527.26 214.09L525.892 214.54C525.802 214.576 525.694 214.63 525.694 214.738C525.694 214.792 525.712 214.846 525.766 215.026C525.892 215.404 526.036 215.998 526.036 217.546V226.78C526.036 227.122 526.18 227.068 526.324 227.032L527.98 226.69C528.34 226.618 528.322 226.528 528.322 226.366V223.072ZM528.322 216.52L528.394 216.448C528.682 216.16 529.132 215.836 529.708 215.836C531.184 215.836 531.22 217.564 531.22 218.662C531.22 220.066 531.148 220.588 530.932 220.984C530.59 221.632 530.032 221.74 529.618 221.74C529.366 221.74 528.844 221.722 528.322 221.398V216.52ZM535.596 222.982C535.596 223.216 535.65 223.234 535.848 223.234H537.63C537.864 223.234 537.882 223.144 537.972 222.982L539.682 219.814C539.916 219.382 540.186 219.004 540.816 217.618H540.888C540.816 218.824 540.798 219.22 540.798 219.562V222.982C540.798 223.216 540.852 223.234 541.05 223.234H542.832C543.066 223.234 543.084 223.18 543.084 222.982V214.27C543.084 214 542.94 214.018 542.796 214.054L541.356 214.342C541.05 214.396 540.96 214.36 540.744 214.72L538.998 217.762C538.656 218.356 538.35 218.896 537.864 219.958H537.792C537.828 219.508 537.882 218.518 537.882 218.014V214.27C537.882 214 537.738 214.018 537.594 214.054L535.938 214.396C535.578 214.468 535.596 214.558 535.596 214.72V222.982ZM545.778 216.214C545.796 216.25 545.85 216.34 545.958 216.34C546.048 216.34 546.138 216.268 546.426 216.106C546.624 215.998 547.128 215.71 547.83 215.71C548.568 215.71 549 216.124 549 216.718C549 217.744 548.082 217.816 547.47 217.816H547.056C546.858 217.816 546.804 217.87 546.804 218.068V219.238C546.804 219.436 546.858 219.49 547.056 219.49H547.452C548.01 219.49 549.144 219.49 549.144 220.57C549.144 221.038 548.928 221.866 547.722 221.866C547.056 221.866 546.624 221.722 546.03 221.398C545.796 221.272 545.652 221.182 545.526 221.182C545.418 221.182 545.364 221.236 545.328 221.326L544.932 222.262C544.914 222.316 544.878 222.388 544.878 222.46C544.878 222.73 545.202 222.874 545.49 223.018C546.12 223.342 547.092 223.54 547.884 223.54C549.936 223.54 551.43 222.478 551.43 220.606C551.43 219.454 550.764 218.788 549.972 218.572V218.518C550.8 218.212 551.232 217.456 551.232 216.52C551.232 215.692 550.836 215.134 550.44 214.774C549.702 214.108 548.766 214.036 548.136 214.036C546.786 214.036 545.958 214.414 545.58 214.63C545.454 214.702 545.13 214.9 545.13 215.134C545.13 215.188 545.148 215.242 545.184 215.296L545.778 216.214ZM556.48 223.234C557.434 223.234 558.64 223.198 559.486 222.514C560.332 221.848 560.44 220.912 560.44 220.264C560.44 219.508 560.26 218.752 559.558 218.158C558.748 217.474 557.74 217.438 556.732 217.438H555.724V214.27C555.724 214 555.58 214.018 555.436 214.054L554.068 214.342C553.42 214.486 553.438 214.468 553.438 214.72V222.982C553.438 223.216 553.492 223.234 553.69 223.234H556.48ZM555.724 219.238H556.822C557.2 219.238 558.154 219.256 558.154 220.336C558.154 221.38 557.29 221.434 556.624 221.434H555.724V219.238ZM561.682 222.982C561.682 223.216 561.736 223.234 561.934 223.234H563.716C563.95 223.234 563.968 223.18 563.968 222.982V214.27C563.968 214 563.824 214.018 563.68 214.054L562.024 214.396C561.664 214.468 561.682 214.558 561.682 214.72V222.982Z" fill="#85312C"/>
<defs>
<filter id="filter0_d" x="0.0512695" y="3.09082" width="974.873" height="248.696" filterUnits="userSpaceOnUse" color-interpolation-filters="sRGB">
<feFlood flood-opacity="0" result="BackgroundImageFix"/>
<feColorMatrix in="SourceAlpha" type="matrix" values="0 0 0 0 0 0 0 0 0 0 0 0 0 0 0 0 0 0 127 0"/>
<feOffset/>
<feGaussianBlur stdDeviation="4"/>
<feColorMatrix type="matrix" values="0 0 0 0 0 0 0 0 0 0 0 0 0 0 0 0 0 0 0.45 0"/>
<feBlend mode="normal" in2="BackgroundImageFix" result="effect1_dropShadow"/>
<feBlend mode="normal" in="SourceGraphic" in2="effect1_dropShadow" result="shape"/>
</filter>
<filter id="filter1_d" x="23.0938" y="125.909" width="686.74" height="161.995" filterUnits="userSpaceOnUse" color-interpolation-filters="sRGB">
<feFlood flood-opacity="0" result="BackgroundImageFix"/>
<feColorMatrix in="SourceAlpha" type="matrix" values="0 0 0 0 0 0 0 0 0 0 0 0 0 0 0 0 0 0 127 0"/>
<feOffset/>
<feGaussianBlur stdDeviation="4"/>
<feColorMatrix type="matrix" values="0 0 0 0 0 0 0 0 0 0 0 0 0 0 0 0 0 0 0.45 0"/>
<feBlend mode="normal" in2="BackgroundImageFix" result="effect1_dropShadow"/>
<feBlend mode="normal" in="SourceGraphic" in2="effect1_dropShadow" result="shape"/>
</filter>
<filter id="filter2_d" x="127.495" y="79.7793" width="799.878" height="89.6259" filterUnits="userSpaceOnUse" color-interpolation-filters="sRGB">
<feFlood flood-opacity="0" result="BackgroundImageFix"/>
<feColorMatrix in="SourceAlpha" type="matrix" values="0 0 0 0 0 0 0 0 0 0 0 0 0 0 0 0 0 0 127 0"/>
<feOffset/>
<feGaussianBlur stdDeviation="6.5"/>
<feColorMatrix type="matrix" values="0 0 0 0 0 0 0 0 0 0 0 0 0 0 0 0 0 0 0.6 0"/>
<feBlend mode="normal" in2="BackgroundImageFix" result="effect1_dropShadow"/>
<feBlend mode="normal" in="SourceGraphic" in2="effect1_dropShadow" result="shape"/>
</filter>
</defs>
</svg>
