<svg width="20" height="20" viewBox="0 0 20 20" fill="none" xmlns="http://www.w3.org/2000/svg">
<mask id="mask0" mask-type="alpha" maskUnits="userSpaceOnUse" x="0" y="0" width="20" height="20">
<circle cx="10" cy="10" r="10" fill="#C4272F"/>
</mask>
<g mask="url(#mask0)">
<path d="M6.54959 0.610962V19.3908C2.72593 17.9855 -0.00158691 14.3117 -0.00158691 10.0011C-0.00158691 5.69063 2.72593 2.01626 6.54959 0.610962Z" fill="#C4272F"/>
<path d="M20 10.0011C20 14.3121 17.2725 17.9859 13.4489 19.3912V0.610962C17.2725 2.01625 20 5.69007 20 10.0011Z" fill="#C4272F"/>
<path d="M13.75 0.610378V19.3912C12.5811 19.786 11.3184 20.0016 10.0009 20.0016C8.68274 20.0016 7.4195 19.786 6.25 19.3907V0.610904C7.4195 0.215551 8.68274 0 10.0009 0C11.3184 0 12.5816 0.215551 13.75 0.610378Z" fill="#015197"/>
<path d="M2.595 11.0899C2.595 10.8186 2.80897 10.5978 3.07709 10.5867C3.08708 10.5867 3.09549 10.5862 3.10443 10.5862C3.11179 10.5862 3.11915 10.5862 3.12651 10.5857C3.34259 10.5741 3.51398 10.3964 3.51398 10.1772C3.51398 9.96478 3.35205 9.79497 3.14491 9.77446C3.13124 9.77289 3.11757 9.77184 3.10338 9.77131C3.08183 9.77078 3.06448 9.77078 3.04345 9.77184C2.59658 9.80811 2.24486 10.183 2.24486 10.6393C2.24486 10.9731 2.43255 11.2628 2.70856 11.409C2.63758 11.3217 2.595 11.2108 2.595 11.0899ZM3.10496 10.0037C3.20011 10.0037 3.2774 10.081 3.2774 10.1761C3.2774 10.2713 3.20011 10.3486 3.10496 10.3486C3.0098 10.3486 2.93252 10.2713 2.93252 10.1761C2.93304 10.081 3.0098 10.0037 3.10496 10.0037ZM3.49978 9.86226C3.57128 9.94901 3.61386 10.0605 3.61386 10.1814C3.61386 10.4521 3.39989 10.6735 3.13177 10.6845C3.12178 10.6845 3.11337 10.685 3.10443 10.685C3.09707 10.685 3.08971 10.685 3.08235 10.6856C2.86628 10.6971 2.69489 10.8754 2.69489 11.0941C2.69489 11.307 2.85681 11.4763 3.06395 11.4968C3.07762 11.4983 3.09129 11.4994 3.10548 11.4999C3.12704 11.5005 3.14439 11.5005 3.16542 11.4994C3.61229 11.4631 3.964 11.0883 3.964 10.6319C3.96347 10.2981 3.77579 10.0079 3.49978 9.86226ZM3.10338 11.2676C3.00822 11.2676 2.93094 11.1903 2.93094 11.0951C2.93094 11 3.00822 10.9227 3.10338 10.9227C3.19854 10.9227 3.27582 11 3.27582 11.0951C3.27582 11.1903 3.19854 11.2676 3.10338 11.2676ZM2.24539 9.61044H3.96347V9.2419H2.24539V9.61044ZM2.24434 12.0425H3.96242V11.6739H2.24434V12.0425ZM3.96242 8.55266H2.24434L3.10496 9.07892L3.96242 8.55266ZM3.10496 12.7033L3.96242 12.1771H2.24434L3.10496 12.7033ZM1.18762 12.7033H2.0556V8.55266H1.18762V12.7033ZM4.15063 8.55266V12.7033H5.01914V8.55266H4.15063ZM3.12126 7.8834C3.50767 7.8834 3.821 7.57006 3.821 7.18364C3.821 6.79723 3.50767 6.48389 3.12126 6.48389C2.73484 6.48389 2.42151 6.79723 2.42151 7.18364C2.42203 7.57006 2.73484 7.8834 3.12126 7.8834ZM3.09707 6.32039C3.09707 6.32039 3.10285 6.31723 3.10496 6.31723C3.10548 6.31723 3.10653 6.31671 3.10759 6.31618V6.32039C3.33891 6.3146 3.53658 6.12166 3.53658 5.8835C3.53658 5.84092 3.52712 5.78098 3.49505 5.73209C3.47507 5.70212 3.44931 5.68898 3.43617 5.64219C3.42355 5.59698 3.46193 5.56017 3.44458 5.47921C3.43617 5.44031 3.40252 5.39667 3.37308 5.36881C3.36624 5.3625 3.39621 5.41034 3.38675 5.45871C3.37729 5.50708 3.32419 5.52653 3.32103 5.61906C3.31893 5.67005 3.37413 5.74944 3.3694 5.79202C3.36204 5.85564 3.32103 5.8814 3.28371 5.88666C3.27214 5.88823 3.19854 5.86615 3.19433 5.80622C3.19065 5.7547 3.25111 5.63904 3.26162 5.60697C3.29054 5.51549 3.28791 5.41244 3.23797 5.30572C3.22903 5.28679 3.18697 5.20898 3.17383 5.18953C3.15385 5.16062 3.10285 5.08912 3.10285 5.08912C3.09076 5.06966 3.07289 5.03339 3.07447 5.00658C3.0792 4.94507 3.11337 4.9314 3.11337 4.9314H3.11232C3.07552 4.9314 3.03556 4.97293 3.02873 5.05494C3.02399 5.10909 3.05081 5.19426 3.0424 5.25577C3.03083 5.34094 2.98877 5.4177 2.96827 5.47343C2.96511 5.48184 2.94303 5.55176 2.96038 5.64587C2.96879 5.69056 3.02452 5.7547 3.02084 5.80622C3.01663 5.86563 2.94303 5.88823 2.93147 5.88666C2.89414 5.8814 2.85313 5.85616 2.84577 5.79202C2.84104 5.74997 2.89572 5.67005 2.89414 5.61906C2.89046 5.52653 2.83789 5.50708 2.8279 5.45871C2.81843 5.41034 2.8484 5.36197 2.84157 5.36881C2.81213 5.39667 2.77795 5.44031 2.77007 5.47921C2.75272 5.56017 2.79057 5.59698 2.77795 5.64219C2.76481 5.68951 2.738 5.70212 2.71802 5.73209C2.68595 5.78098 2.67228 5.84092 2.67228 5.8835C2.67281 6.12166 2.87101 6.3146 3.09707 6.32039ZM3.10391 8.03586C2.69173 8.03586 2.33582 7.7977 2.16548 7.45124C2.16916 7.96646 2.58764 8.38337 3.10391 8.38337C3.62017 8.38337 4.03918 7.96699 4.04233 7.45124C3.87252 7.7977 3.51608 8.03586 3.10391 8.03586Z" fill="#F9CF02"/>
</g>
</svg>
