<svg width="326" height="94" viewBox="0 0 326 94" fill="none" xmlns="http://www.w3.org/2000/svg">
<path fill-rule="evenodd" clip-rule="evenodd" d="M47.4454 0C21.2826 0 0 21.0828 0 46.9999C0 72.9169 21.2826 93.9997 47.4454 93.9997C73.6081 93.9997 94.8908 72.9169 94.8908 46.9999C94.8908 21.0828 73.6081 0 47.4454 0ZM271.659 35.5856C270.439 34.2427 268.812 33.3027 266.507 33.3027C262.712 33.1684 260.001 36.3913 259.865 40.6884V41.2255C259.865 45.7912 262.576 48.8798 266.372 48.8798C268.676 48.8798 270.303 48.0741 271.523 46.597L271.659 46.4627C272.336 45.3884 273.692 44.9855 274.776 45.657L282.503 50.0884L281.012 52.2369C278.03 56.2655 273.556 59.2198 266.101 59.2198C256.476 59.2198 248.207 51.9684 248.207 41.3598V40.5541C248.207 29.9456 256.612 22.8284 266.236 22.8284C273.556 22.8284 278.165 25.7827 281.148 29.9456L282.639 32.0941L274.912 36.5256C273.828 37.197 272.472 36.7941 271.794 35.7198L271.659 35.5856ZM161.72 64.3226C160.907 63.9197 161.042 62.7112 161.042 62.7112V51.0283C161.042 49.8198 160.094 48.6112 158.738 48.6112C156.569 48.6112 156.433 47.5369 156.433 46.1941V26.9913V26.3198C156.433 24.977 155.349 23.9027 153.993 23.9027H123.493C123.086 23.9027 122.679 24.1713 122.679 24.5741V25.5141C122.679 26.0513 122.951 26.1855 123.493 26.4541C124.035 26.7227 124.171 27.3941 124.171 27.797V34.9141C124.171 42.8369 122.679 45.2541 119.968 48.6112H118.342C116.986 48.6112 115.902 49.6855 115.902 51.0283V66.874H124.171C125.526 66.874 126.611 65.7997 126.611 64.4569V60.6969C126.611 59.354 127.695 58.2797 129.051 58.2797H148.164C149.52 58.2797 150.604 59.354 150.604 60.6969V64.4569C150.604 65.7997 151.689 66.874 153.045 66.874H161.991C162.398 66.874 162.805 66.6054 162.805 66.2026V65.3969C162.582 64.8452 162.268 64.6561 161.937 64.4573C161.865 64.4141 161.793 64.3705 161.72 64.3226ZM144.775 46.1941C144.775 47.537 144.639 48.6112 142.471 48.6112H132.304C134.473 45.7912 135.557 41.7627 135.557 36.1227V33.1684H142.471C143.826 33.1684 144.911 33.3027 144.911 35.4513V46.1941H144.775ZM324.527 55.7283C323.713 55.3255 323.849 54.1169 323.849 54.1169V53.3112V23.9027H317.884C316.258 23.9027 314.902 24.5741 313.818 25.5141L313.411 25.917L301.889 37.3312C301.753 37.4655 301.617 37.5998 301.346 37.5998C300.94 37.5998 300.533 37.1969 300.533 36.7941V27.1255V26.4541C300.533 25.1113 299.449 24.037 298.093 24.037H288.468C288.062 24.037 287.655 24.3056 287.655 24.7084V25.5141C287.655 26.0513 287.926 26.1855 288.468 26.4541C289.282 26.857 289.146 28.0655 289.146 28.0655V58.2798H295.111C296.737 58.2798 298.093 57.6083 299.177 56.6683L299.584 56.2655L310.971 44.9855C311.107 44.8512 311.378 44.7169 311.513 44.7169C311.92 44.7169 312.327 45.1198 312.327 45.5226V55.0569V55.7283C312.327 57.0712 313.411 58.1455 314.767 58.1455H324.391C324.798 58.1455 325.205 57.8769 325.205 57.474V56.6683C325.325 56.3105 325.125 56.1646 324.698 55.8542C324.645 55.8151 324.587 55.7734 324.527 55.7283ZM202.659 54.1169C202.659 54.1169 202.524 55.3255 203.337 55.7283C203.42 55.7899 203.5 55.8452 203.574 55.8967C203.984 56.1817 204.224 56.3476 203.879 56.8026V57.6083C203.879 58.0112 203.472 58.2798 203.066 58.2798H193.441C192.086 58.2798 191.001 57.2055 191.001 55.8626V45.5226C191.001 45.1198 190.594 44.7169 190.188 44.7169C190.052 44.7169 189.781 44.8512 189.646 44.9855L178.259 56.2655L177.852 56.6683C176.903 57.6083 175.412 58.2798 173.785 58.2798H167.956V28.0655C167.956 28.0655 168.092 26.857 167.278 26.4541C166.736 26.1855 166.465 26.0513 166.465 25.5141V24.7084C166.465 24.3056 166.872 24.037 167.278 24.037H176.903C178.259 24.037 179.343 25.1113 179.343 26.4541V36.7941C179.343 37.1969 179.75 37.5998 180.156 37.5998C180.428 37.5998 180.563 37.4655 180.699 37.3312L192.221 25.917L192.628 25.5141C193.577 24.5741 195.068 23.9027 196.695 23.9027H202.659V53.3112V54.1169ZM233.837 42.3001C232.888 41.3601 232.888 39.8829 233.837 38.9429L249.02 23.903H236.006C234.651 23.903 232.888 24.7087 231.939 25.5144L226.788 30.6172C225.839 31.5572 225.162 31.2887 225.162 29.9458V26.1858C225.162 24.843 224.077 23.7687 222.721 23.7687H213.097C212.69 23.7687 212.283 24.0372 212.283 24.4401V25.5144C212.283 26.0515 212.555 26.1858 213.097 26.4544C213.91 26.8572 213.775 28.0658 213.775 28.0658V54.1172V58.28H222.721C224.077 58.28 225.162 57.2057 225.162 55.8629V53.9829V48.7458L233.024 56.5343C233.973 57.4743 235.735 58.1457 237.091 58.1457H247.8C249.155 58.1457 249.426 57.34 248.478 56.5343L233.837 42.3001ZM44.4635 33.1684H51.377C52.7325 33.1684 53.817 33.437 53.817 35.317V46.1941C53.817 47.537 53.6814 48.6112 51.5125 48.6112H41.2101C43.379 45.7912 44.4635 41.7627 44.4635 36.1227V33.1684ZM70.7612 67.0083C71.1679 67.0083 71.5746 66.7397 71.5746 66.3368H71.3035V65.5311C71.3035 64.994 71.0323 64.8597 70.4901 64.5911C69.6768 64.1883 69.8123 62.9797 69.8123 62.9797V51.2969C69.8123 49.954 68.7279 48.8797 67.5078 48.8797C65.3389 48.8797 65.2033 47.8055 65.2033 46.4626V27.1255V26.4541C65.2033 25.1112 64.1189 24.0369 62.7633 24.0369H32.2627C31.856 24.0369 31.4493 24.3055 31.4493 24.7084V25.5141C31.4493 26.0512 31.7205 26.1855 32.2627 26.4541C32.8049 26.7227 32.9405 27.3941 32.9405 27.7969V34.9141C32.9405 42.8369 31.4493 45.3883 28.7382 48.7455H27.1115C25.7559 48.7455 24.6714 49.8197 24.6714 51.1626V67.0083H32.9405C34.2961 67.0083 35.3805 65.934 35.3805 64.5911V62.7111V60.6968C35.3805 59.354 36.465 58.2797 37.8206 58.2797H56.9343C58.2899 58.2797 59.3743 59.354 59.3743 60.6968V62.7111V64.5911C59.3743 65.934 60.4588 67.0083 61.8144 67.0083H70.7612Z" fill="white"/>
</svg>
