<svg width="1034" height="266" viewBox="0 0 1034 266" fill="none" xmlns="http://www.w3.org/2000/svg">
<g filter="url(#filter0_d)">
<path d="M65.8385 99.7903L970.277 49.7235L931.106 143.594L19 183.501L65.8385 99.7903Z" fill="#DD1010"/>
<path d="M65.6727 96.7949L64.0259 96.8861L63.2205 98.3255L16.382 182.036L13.7537 186.733L19.1311 186.498L931.237 146.591L933.141 146.508L933.875 144.749L973.046 50.8788L974.889 46.4636L970.112 46.7281L65.6727 96.7949Z" stroke="#F7D431" stroke-width="6"/>
</g>
<g filter="url(#filter1_d)">
<path d="M132.136 163.623L703.965 153.578L689.19 224.948L101 223.665L132.136 163.623Z" fill="white"/>
</g>
<g filter="url(#filter2_d)">
<path d="M135.644 120.596C134.941 120.626 134.954 120.934 134.88 121.245L130.085 149.86C130.053 150.125 130.016 150.303 130.024 150.479C130.043 150.918 130.267 150.997 130.706 150.978L137.915 150.666C141.476 150.511 145.505 149.985 148.181 146.698C149.435 145.146 150.309 142.95 150.208 140.62C150.077 137.587 148.392 135.282 145.848 134.511C146.884 134.026 148.17 133.222 149.101 132.345C150.581 130.915 151.554 128.979 151.447 126.518C151.167 120.056 144.832 120.198 143.073 120.274L135.644 120.596ZM138.605 133.019L139.967 124.813L142.077 124.721C143.308 124.668 145.637 124.567 145.763 127.468C145.816 128.699 145.518 129.945 144.853 130.855C143.648 132.537 141.726 132.884 140.231 132.949L138.605 133.019ZM136.362 146.329L137.872 137.455L140.333 137.349C141.696 137.289 144.12 137.317 144.262 140.614C144.346 142.548 143.65 143.767 143.105 144.407C141.765 146.007 139.835 146.178 138.165 146.251L136.362 146.329ZM159.942 119.544C159.239 119.574 159.252 119.882 159.177 120.193L154.427 148.806C154.394 149.071 154.358 149.249 154.365 149.425C154.384 149.864 154.608 149.943 155.048 149.924L162.872 149.585C165.993 149.45 169.931 148.839 172.481 145.69C174.111 143.681 174.819 140.7 174.711 138.194C174.587 135.337 173.286 133.764 172.416 133.008C170.31 131.162 167.625 131.19 165.823 131.268L163.053 131.388L164.827 120.477C164.859 120.211 164.896 120.034 164.888 119.858C164.869 119.418 164.645 119.34 164.206 119.359L159.942 119.544ZM160.776 144.919L162.248 136.179L164.226 136.094C165.457 136.04 168.66 135.77 168.816 139.374C168.869 140.605 168.531 141.941 167.736 142.9C166.355 144.589 164.161 144.773 162.667 144.837L160.776 144.919ZM182.405 118.571C181.701 118.601 181.715 118.909 181.64 119.22L176.846 147.835C176.813 148.1 176.777 148.278 176.784 148.454C176.803 148.894 177.027 148.972 177.467 148.953L181.731 148.768C182.434 148.738 182.421 148.43 182.495 148.119L187.29 119.504C187.322 119.239 187.359 119.061 187.351 118.885C187.332 118.446 187.108 118.367 186.669 118.386L182.405 118.571ZM195.445 118.006C194.741 118.037 194.755 118.344 194.68 118.656L189.886 147.27C189.853 147.536 189.817 147.713 189.824 147.889C189.843 148.329 190.067 148.407 190.507 148.388L198.331 148.049C201.452 147.914 205.39 147.303 207.94 144.154C209.57 142.146 210.278 139.164 210.171 136.703C210.04 133.669 208.535 129.418 201.282 129.733L198.512 129.853L199.708 122.886L208.895 122.488C209.159 122.477 209.557 122.504 209.794 121.877L211.222 118.248C211.302 118.068 211.385 117.932 211.375 117.713C211.356 117.273 210.918 117.336 210.611 117.349L195.445 118.006ZM196.235 143.384L197.707 134.644L200.432 134.526C203.245 134.404 204.195 135.992 204.277 137.883C204.328 139.07 203.99 140.405 203.195 141.365C201.814 143.054 199.62 143.237 198.126 143.302L196.235 143.384ZM219.871 116.948C219.168 116.979 219.181 117.287 219.106 117.598L214.312 146.212C214.279 146.478 214.243 146.656 214.251 146.832C214.27 147.271 214.493 147.349 214.933 147.33L229.527 146.698C230.231 146.668 230.217 146.36 230.292 146.049L230.887 142.5C230.954 142.012 230.294 142.041 230.119 142.049L220.667 142.458L222.131 133.542L229.692 133.215C230.263 133.19 230.349 133.142 230.457 132.565L230.977 129.327C231.01 129.062 231.119 128.529 230.371 128.561L222.942 128.883L224.203 121.385L232.819 121.012C233.127 120.999 233.436 121.029 233.717 120.401L235.165 117.211C235.243 116.987 235.325 116.852 235.318 116.676C235.299 116.236 234.861 116.299 234.553 116.313L219.871 116.948ZM243.439 115.928C242.736 115.958 242.749 116.266 242.674 116.577L237.88 145.192C237.847 145.457 237.811 145.635 237.818 145.811C237.837 146.251 238.061 146.329 238.501 146.31L242.765 146.125C243.468 146.095 243.455 145.787 243.529 145.476L245.452 133.942L247.738 133.843C255.255 133.517 259.676 128.833 259.397 122.371C259.121 115.997 254.516 115.448 251.351 115.585L243.439 115.928ZM246.258 129.15L247.689 120.5L249.931 120.403C251.073 120.354 253.587 120.421 253.718 123.454C253.783 124.949 253.555 128.834 247.576 129.093L246.258 129.15ZM281.261 114.29C280.469 114.324 280.356 114.77 280.026 115.268L272.26 127.143C271.394 128.502 269.025 132.789 268.414 133.916L268.238 133.924C269.158 128.731 268.689 132.143 269.388 127.928L271.419 115.861C271.494 115.55 271.486 115.374 271.481 115.242C271.462 114.802 271.238 114.724 270.798 114.743L266.534 114.928C265.831 114.958 265.844 115.266 265.77 115.577L260.975 144.192C260.943 144.457 260.906 144.635 260.914 144.811C260.933 145.25 261.157 145.329 261.596 145.31L265.64 145.135C266.256 145.108 266.424 144.925 266.795 144.336L275.172 131.333C276.409 129.386 277.441 127.8 278.487 125.508L278.663 125.501C278.367 126.791 277.932 128.968 277.72 130.166L275.482 143.563C275.449 143.829 275.413 144.007 275.42 144.183C275.439 144.622 275.663 144.701 276.103 144.682L280.367 144.497C281.07 144.466 281.057 144.159 281.131 143.847L285.926 115.233C285.958 114.967 285.995 114.79 285.987 114.614C285.968 114.174 285.744 114.096 285.305 114.115L281.261 114.29ZM566.908 132.089L565.892 138.122C565.895 138.21 565.897 138.254 565.901 138.342C565.907 138.474 565.825 138.61 565.83 138.742C565.848 139.137 566.073 139.26 566.557 139.239L570.425 139.071C571.128 139.041 571.153 138.599 571.19 138.421L572.862 128.22C572.894 127.954 572.931 127.776 572.923 127.6C572.9 127.073 572.549 127.088 572.285 127.099L570.395 127.181L574.489 102.737C574.521 102.472 574.558 102.294 574.55 102.118C574.531 101.678 574.307 101.6 573.868 101.619L559.669 102.234C558.966 102.264 558.979 102.572 558.905 102.884L558.201 106.966C557.037 113.666 556.051 117.321 555.664 118.57C554.63 122.139 553.429 124.921 551.404 128.004L550.13 128.059C549.426 128.089 549.392 128.311 549.321 128.71L547.605 138.914C547.609 139.002 547.611 139.046 547.614 139.134C547.62 139.266 547.538 139.402 547.544 139.533C547.561 139.929 547.786 140.051 548.27 140.03L552.138 139.863C552.841 139.833 552.866 139.391 552.903 139.213L553.984 132.648L566.908 132.089ZM563.611 106.82L568.139 106.624L564.636 127.431L557.031 127.76C558.434 125.585 559.279 123.743 560.216 120.972C561.272 117.887 562.219 114.323 562.934 110.504L563.611 106.82ZM590.066 105.674L595.033 105.459L590.939 129.903C590.906 130.169 590.87 130.346 590.877 130.522C590.896 130.962 591.12 131.04 591.56 131.021L595.824 130.837C596.527 130.806 596.514 130.498 596.588 130.187L601.383 101.573C601.415 101.307 601.452 101.129 601.444 100.953C601.425 100.514 601.201 100.435 600.762 100.454L586.299 101.081C585.596 101.111 585.609 101.419 585.535 101.73L584.262 108.964C583.84 111.405 582.149 120.154 580.913 123.158C579.839 125.803 578.384 126.791 576.46 127.095L575.716 127.215C575.148 127.328 575.085 127.903 575.095 128.123L575.486 132.07C575.551 132.551 575.944 132.49 576.206 132.435L576.906 132.316C580.404 131.725 582.663 129.997 584.118 127.996C586.029 125.359 587.253 121.078 589.212 110.379L590.066 105.674ZM617.885 99.713C615.38 99.8215 612.446 100.213 610.154 102.206C608.202 103.92 607.046 106.7 607.175 109.69C607.318 112.987 609.112 114.759 611.172 115.55L611.136 115.728C608.416 116.991 607.55 119.363 607.112 120.438L606.079 123.038C605.324 124.92 605.095 125.723 603.657 126.093L602.482 126.408C601.828 126.569 601.851 127.096 601.905 127.314L602.621 130.63C602.678 130.936 602.649 131.29 603.572 131.25C604.452 131.212 605.585 130.942 606.409 130.642C609.402 129.588 610.102 127.444 610.926 125.118L612.374 120.915C613.075 118.815 614.092 117.89 616.246 117.797L617.829 117.728L615.975 128.819C615.942 129.085 615.906 129.262 615.914 129.438C615.933 129.878 616.156 129.956 616.596 129.937L620.86 129.752C621.563 129.722 621.55 129.414 621.624 129.103L626.419 100.488C626.452 100.223 626.488 100.045 626.48 99.8693C626.461 99.4297 626.238 99.3513 625.798 99.3703L617.885 99.713ZM618.55 113.029L616.528 113.116C614.242 113.215 612.983 111.596 612.895 109.574C612.833 108.123 613.381 106.558 614.398 105.633C615.543 104.615 616.904 104.512 618.091 104.461L620.025 104.377L618.55 113.029ZM644.819 98.5466C644.116 98.5771 644.129 98.8848 644.055 99.1963L639.26 127.811C639.228 128.076 639.191 128.254 639.199 128.43C639.218 128.869 639.442 128.948 639.881 128.929L647.091 128.617C650.651 128.462 654.68 127.936 657.356 124.649C658.611 123.097 659.484 120.901 659.383 118.571C659.252 115.538 657.567 113.233 655.023 112.462C656.059 111.977 657.345 111.173 658.276 110.295C659.756 108.866 660.729 106.93 660.622 104.468C660.343 98.0065 654.007 98.1488 652.249 98.2249L644.819 98.5466ZM647.78 110.97L649.142 102.764L651.252 102.672C652.483 102.619 654.813 102.518 654.938 105.419C654.992 106.65 654.693 107.896 654.028 108.806C652.824 110.488 650.901 110.835 649.406 110.9L647.78 110.97ZM645.537 124.28L647.047 115.406L649.509 115.299C650.871 115.24 653.295 115.268 653.438 118.565C653.521 120.499 652.825 121.718 652.281 122.358C650.941 123.958 649.01 124.129 647.34 124.202L645.537 124.28ZM679.07 121.903C678.975 121.731 678.925 121.601 678.749 121.608C678.442 121.622 678.057 121.903 677.671 122.139C676.043 123.179 674.732 123.412 673.94 123.446C672.534 123.507 671.679 123.104 671.131 122.643C670.032 121.678 669.818 119.793 669.763 118.518C669.603 114.826 669.977 110.229 671.828 106.185C673.634 102.143 676.104 101.2 677.73 101.129C678.917 101.078 679.682 101.441 680.821 102.317C681.277 102.693 681.642 102.986 682.126 102.965C682.39 102.953 682.512 102.728 682.554 102.682L684.527 99.4256C684.567 99.3358 684.653 99.288 684.646 99.1122C684.627 98.6726 684.124 98.2539 683.807 98.0474C681.852 96.6347 679.503 96.296 677.832 96.3683C675.151 96.4845 670.214 97.4029 666.822 103.495C664.412 107.828 663.577 112.973 663.798 118.072C663.903 120.49 664.428 124.475 667.254 126.686C668.577 127.73 670.453 128.354 672.695 128.256C674.893 128.161 677.366 127.305 679.047 126.44C679.607 126.151 680.467 125.674 680.446 125.19C680.44 125.058 680.389 124.884 680.341 124.798L679.07 121.903ZM690.196 96.5817C689.493 96.6121 689.506 96.9198 689.431 97.2313L684.637 125.846C684.604 126.111 684.568 126.289 684.576 126.465C684.595 126.904 684.818 126.983 685.258 126.964L699.852 126.332C700.555 126.301 700.542 125.994 700.617 125.682L701.212 122.133C701.279 121.646 700.619 121.674 700.443 121.682L690.992 122.091L692.456 113.175L700.017 112.848C700.588 112.823 700.674 112.775 700.781 112.198L701.302 108.961C701.334 108.695 701.443 108.162 700.696 108.194L693.267 108.516L694.528 101.018L703.144 100.645C703.452 100.632 703.761 100.663 704.042 100.034L705.49 96.8443C705.568 96.6206 705.65 96.485 705.643 96.3091C705.624 95.8695 705.186 95.9325 704.878 95.9459L690.196 96.5817ZM728.49 94.9234C727.699 94.9577 727.586 95.403 727.255 95.9017L719.49 107.777C718.624 109.136 716.255 113.422 715.643 114.55L715.467 114.557C716.387 109.365 715.918 112.776 716.617 108.562L718.649 96.4946C718.723 96.1831 718.716 96.0073 718.71 95.8754C718.691 95.4358 718.467 95.3574 718.028 95.3764L713.764 95.5611C713.06 95.5915 713.074 95.8993 712.999 96.2108L708.205 124.825C708.172 125.091 708.136 125.268 708.143 125.444C708.162 125.884 708.386 125.962 708.826 125.943L712.87 125.768C713.485 125.741 713.653 125.558 714.024 124.969L722.402 111.967C723.638 110.019 724.671 108.433 725.717 106.142L725.892 106.134C725.596 107.424 725.162 109.601 724.949 110.799L722.711 124.197C722.678 124.462 722.642 124.64 722.65 124.816C722.669 125.256 722.892 125.334 723.332 125.315L727.596 125.13C728.299 125.1 728.286 124.792 728.361 124.481L733.155 95.8664C733.188 95.6008 733.224 95.4231 733.216 95.2472C733.197 94.8076 732.974 94.7292 732.534 94.7483L728.49 94.9234ZM718.171 87.4869C717.909 87.5423 717.477 87.7371 717.492 88.0888L717.505 88.3965C717.564 89.7592 718.002 90.7092 718.422 91.2635C719.408 92.6742 720.931 93.2689 722.997 93.1794C725.987 93.0499 728.036 91.5519 728.936 89.9715C729.305 89.3389 729.816 87.9075 729.795 87.4239C729.781 87.1162 729.47 87.0416 729.338 87.0473L726.817 86.8042C726.685 86.8099 726.595 86.7697 726.464 86.7754C725.98 86.7964 725.907 87.1518 725.749 87.5551C725.274 88.8088 724.515 89.5903 723.241 89.6455C721.702 89.7122 721.477 88.5769 721.431 87.5218L721.427 87.4339C721.408 86.9943 721.188 87.0039 720.489 87.1222L718.171 87.4869ZM761.493 118.333C761.398 118.161 761.348 118.031 761.172 118.039C760.864 118.052 760.48 118.333 760.094 118.57C758.465 119.61 757.154 119.843 756.363 119.877C754.956 119.938 754.102 119.534 753.554 119.074C752.455 118.108 752.241 116.224 752.186 114.949C752.026 111.256 752.4 106.66 754.25 102.616C756.057 98.5742 758.527 97.6304 760.153 97.56C761.34 97.5086 762.104 97.8719 763.243 98.7474C763.7 99.124 764.065 99.4165 764.549 99.3956C764.812 99.3842 764.935 99.1586 764.977 99.1128L766.95 95.8564C766.99 95.7666 767.076 95.7188 767.068 95.543C767.049 95.1034 766.547 94.6847 766.229 94.4782C764.275 93.0655 761.926 92.7268 760.255 92.7991C757.574 92.9153 752.637 93.8337 749.245 99.9261C746.834 104.258 746 109.403 746.221 114.503C746.326 116.92 746.851 120.905 749.677 123.117C750.999 124.161 752.876 124.784 755.118 124.687C757.316 124.592 759.789 123.736 761.469 122.871C762.029 122.582 762.89 122.105 762.869 121.621C762.863 121.489 762.811 121.315 762.764 121.229L761.493 118.333ZM780.442 97.7384L785.893 97.5024C786.201 97.489 786.511 97.5197 786.792 96.8909L788.396 93.2541C788.434 93.1203 788.516 92.9847 788.551 92.763C788.549 92.719 788.547 92.675 788.545 92.6311C788.486 92.2813 788.048 92.3443 787.784 92.3557L769.805 93.1343C769.014 93.1686 769.113 93.4285 769.041 93.784L768.436 97.1132C768.362 97.4248 768.325 97.6025 768.333 97.7783C768.356 98.3058 768.793 98.2429 769.101 98.2295L774.728 97.9859L770.62 122.122C770.546 122.434 770.553 122.61 770.559 122.741C770.578 123.181 770.802 123.259 771.241 123.24L775.505 123.056C776.209 123.025 776.195 122.718 776.27 122.406L780.442 97.7384ZM792.967 92.1313C792.263 92.1618 792.277 92.4695 792.202 92.781L787.408 121.395C787.375 121.661 787.339 121.839 787.346 122.014C787.365 122.454 787.589 122.532 788.029 122.513L792.293 122.329C792.996 122.298 792.983 121.991 793.057 121.679L794.98 110.145L797.266 110.046C804.783 109.721 809.204 105.037 808.925 98.575C808.649 92.2009 804.044 91.6516 800.879 91.7887L792.967 92.1313ZM795.786 105.354L797.217 96.7037L799.459 96.6067C800.601 96.5572 803.115 96.6245 803.246 99.6577C803.311 101.152 803.083 105.038 797.104 105.297L795.786 105.354ZM819.73 90.9724C819.51 90.9819 819.156 90.9532 818.956 91.4023L805.734 120.69C805.654 120.869 805.528 121.007 805.539 121.271C805.549 121.49 805.692 121.749 806.132 121.729L810.66 121.533C811.275 121.507 811.392 121.149 811.512 120.88L814.577 113.348L822.05 113.025L822.683 120.528C822.687 120.616 822.748 121.01 823.276 120.987L827.891 120.787C828.111 120.778 828.683 120.753 828.612 120.139L824.774 91.5027C824.699 90.8012 824.389 90.7706 823.95 90.7896L819.73 90.9724ZM821.747 109.074L815.856 109.329L819.503 99.9666C819.82 99.1601 820.185 98.4397 820.56 96.926L820.648 96.9222C820.698 98.0652 820.877 100.171 820.959 101.049L821.747 109.074ZM837.269 90.2129C836.566 90.2433 836.579 90.551 836.504 90.8626L831.71 119.477C831.677 119.742 831.641 119.92 831.649 120.096C831.668 120.536 831.891 120.614 832.331 120.595L836.595 120.41C837.298 120.38 837.285 120.072 837.359 119.761L839.451 107.03L847.539 106.68L845.513 118.879C845.48 119.145 845.444 119.322 845.452 119.498C845.471 119.938 845.694 120.016 846.134 119.997L850.398 119.813C851.101 119.782 851.088 119.474 851.163 119.163L855.957 90.5487C855.99 90.283 856.026 90.1053 856.018 89.9295C855.999 89.4899 855.776 89.4115 855.336 89.4305L851.072 89.6152C850.369 89.6456 850.382 89.9533 850.308 90.2648L848.345 101.889L840.3 102.237L842.154 91.1464C842.187 90.8808 842.223 90.703 842.215 90.5272C842.196 90.0876 841.973 90.0092 841.533 90.0282L837.269 90.2129ZM864.098 89.0511C863.395 89.0815 863.408 89.3892 863.334 89.7008L858.583 118.313C858.551 118.579 858.514 118.756 858.522 118.932C858.541 119.372 858.765 119.45 859.204 119.431L867.029 119.092C870.15 118.957 874.087 118.346 876.637 115.197C878.268 113.189 878.976 110.207 878.867 107.702C878.743 104.844 877.442 103.271 876.573 102.516C874.467 100.669 871.781 100.698 869.979 100.776L867.21 100.896L868.983 89.9846C869.016 89.719 869.052 89.5412 869.045 89.3654C869.026 88.9258 868.802 88.8474 868.362 88.8664L864.098 89.0511ZM864.933 114.427L866.404 105.687L868.382 105.601C869.613 105.548 872.817 105.277 872.973 108.882C873.026 110.113 872.687 111.448 871.892 112.408C870.512 114.097 868.318 114.28 866.823 114.345L864.933 114.427ZM886.561 88.0783C885.858 88.1088 885.871 88.4165 885.797 88.728L881.002 117.342C880.97 117.608 880.933 117.786 880.941 117.961C880.96 118.401 881.184 118.479 881.623 118.46L885.887 118.276C886.59 118.245 886.577 117.938 886.652 117.626L891.446 89.0119C891.479 88.7462 891.515 88.5685 891.508 88.3927C891.488 87.9531 891.265 87.8747 890.825 87.8937L886.561 88.0783Z" fill="#F7D431"/>
<path d="M304.354 113.29C303.651 113.32 303.664 113.628 303.59 113.94L298.795 142.554C298.763 142.82 298.726 142.997 298.734 143.173C298.753 143.613 298.977 143.691 299.416 143.672L303.68 143.487C304.384 143.457 304.37 143.149 304.445 142.838L306.536 130.107L314.624 129.757L312.598 141.956C312.566 142.222 312.529 142.4 312.537 142.575C312.556 143.015 312.78 143.093 313.219 143.074L317.483 142.89C318.187 142.859 318.173 142.552 318.248 142.24L323.042 113.626C323.075 113.36 323.111 113.182 323.104 113.007C323.085 112.567 322.861 112.489 322.421 112.508L318.157 112.692C317.454 112.723 317.467 113.03 317.393 113.342L315.43 124.966L307.385 125.314L309.239 114.223C309.272 113.958 309.308 113.78 309.301 113.604C309.282 113.165 309.058 113.086 308.618 113.105L304.354 113.29ZM348.089 120.116C347.986 117.742 347.284 110.682 339.811 111.006C336.954 111.13 332.208 112.392 328.868 118.658C326.629 122.895 325.692 128.705 325.913 133.804C326.246 141.497 330.586 143.071 334.146 142.917C338.279 142.738 342.537 140.395 345.223 135.302C347.378 131.157 348.291 124.776 348.089 120.116ZM334.914 138.259C332.32 138.372 331.95 135.921 331.872 134.119C331.729 130.822 332.078 125.654 333.86 121.041C334.609 119.026 336.231 115.785 339.176 115.658C341.857 115.542 342.065 118.307 342.128 119.758C342.278 123.231 342.05 128.129 340.23 132.876C339.438 134.936 337.903 138.13 334.914 138.259ZM356.64 111.026C355.937 111.056 355.95 111.364 355.876 111.675L351.081 140.29C351.049 140.555 351.012 140.733 351.02 140.909C351.039 141.349 351.263 141.427 351.702 141.408L358.911 141.096C362.472 140.941 366.501 140.415 369.177 137.128C370.431 135.576 371.305 133.38 371.204 131.05C371.073 128.017 369.388 125.712 366.844 124.941C367.88 124.456 369.166 123.652 370.097 122.775C371.577 121.345 372.55 119.409 372.443 116.948C372.163 110.486 365.828 110.628 364.069 110.704L356.64 111.026ZM359.601 123.449L360.963 115.243L363.073 115.151C364.304 115.098 366.633 114.997 366.759 117.898C366.812 119.129 366.514 120.375 365.849 121.285C364.644 122.967 362.722 123.314 361.227 123.379L359.601 123.449ZM357.358 136.759L358.868 127.885L361.329 127.779C362.692 127.72 365.116 127.747 365.258 131.044C365.342 132.978 364.646 134.197 364.101 134.837C362.761 136.437 360.831 136.608 359.161 136.681L357.358 136.759ZM380.938 109.974C380.235 110.004 380.248 110.312 380.173 110.623L375.423 139.236C375.39 139.501 375.354 139.679 375.361 139.855C375.38 140.294 375.604 140.373 376.044 140.354L383.868 140.015C386.989 139.88 390.927 139.269 393.477 136.12C395.107 134.111 395.815 131.13 395.707 128.624C395.583 125.767 394.282 124.194 393.412 123.439C391.306 121.592 388.621 121.62 386.819 121.698L384.049 121.818L385.823 110.907C385.855 110.641 385.892 110.464 385.884 110.288C385.865 109.848 385.641 109.77 385.202 109.789L380.938 109.974ZM381.772 135.349L383.244 126.609L385.222 126.524C386.453 126.47 389.656 126.2 389.812 129.804C389.865 131.035 389.527 132.371 388.732 133.33C387.351 135.02 385.157 135.203 383.663 135.267L381.772 135.349ZM403.401 109.001C402.697 109.031 402.711 109.339 402.636 109.651L397.842 138.265C397.809 138.53 397.773 138.708 397.78 138.884C397.799 139.324 398.023 139.402 398.463 139.383L402.727 139.198C403.43 139.168 403.417 138.86 403.491 138.549L408.286 109.934C408.318 109.669 408.355 109.491 408.347 109.315C408.328 108.876 408.104 108.797 407.665 108.816L403.401 109.001ZM431.167 107.799C430.376 107.833 430.263 108.278 429.932 108.777L422.167 120.652C421.301 122.011 418.932 126.297 418.32 127.425L418.144 127.432C419.064 122.24 418.596 125.651 419.294 121.437L421.326 109.37C421.4 109.058 421.393 108.882 421.387 108.751C421.368 108.311 421.144 108.233 420.705 108.252L416.441 108.436C415.737 108.467 415.751 108.774 415.676 109.086L410.882 137.7C410.849 137.966 410.813 138.144 410.82 138.319C410.839 138.759 411.063 138.837 411.503 138.818L415.547 138.643C416.162 138.617 416.33 138.433 416.701 137.844L425.079 124.842C426.316 122.895 427.348 121.308 428.394 119.017L428.57 119.009C428.273 120.299 427.839 122.476 427.627 123.675L425.388 137.072C425.355 137.338 425.319 137.515 425.327 137.691C425.346 138.131 425.569 138.209 426.009 138.19L430.273 138.005C430.976 137.975 430.963 137.667 431.038 137.356L435.832 108.742C435.865 108.476 435.901 108.298 435.893 108.122C435.874 107.683 435.651 107.604 435.211 107.623L431.167 107.799ZM420.848 100.362C420.586 100.417 420.154 100.612 420.169 100.964L420.182 101.272C420.241 102.634 420.679 103.584 421.099 104.139C422.085 105.549 423.608 106.144 425.674 106.055C428.664 105.925 430.713 104.427 431.613 102.847C431.982 102.214 432.493 100.783 432.472 100.299C432.458 99.9913 432.147 99.9167 432.015 99.9225L429.494 99.6793C429.362 99.685 429.272 99.6448 429.141 99.6506C428.657 99.6715 428.584 100.027 428.426 100.43C427.951 101.684 427.193 102.465 425.918 102.521C424.379 102.587 424.154 101.452 424.108 100.397L424.104 100.309C424.085 99.8695 423.866 99.879 423.166 99.9974L420.848 100.362ZM454.217 106.8C453.514 106.831 453.527 107.139 453.452 107.45L448.658 136.064C448.625 136.33 448.589 136.508 448.596 136.684C448.615 137.123 448.839 137.202 449.279 137.182L456.488 136.87C460.049 136.716 464.078 136.189 466.754 132.902C468.008 131.351 468.882 129.155 468.781 126.825C468.649 123.792 466.964 121.487 464.42 120.716C465.456 120.231 466.743 119.426 467.674 118.549C469.153 117.12 470.126 115.184 470.02 112.722C469.74 106.26 463.404 106.403 461.646 106.479L454.217 106.8ZM457.177 119.224L458.539 111.017L460.649 110.926C461.88 110.873 464.21 110.772 464.336 113.673C464.389 114.904 464.091 116.15 463.425 117.06C462.221 118.741 460.298 119.089 458.804 119.154L457.177 119.224ZM454.935 132.533L456.444 123.66L458.906 123.553C460.269 123.494 462.692 123.521 462.835 126.818C462.919 128.752 462.223 129.972 461.678 130.612C460.338 132.211 458.408 132.383 456.737 132.455L454.935 132.533ZM478.734 105.739C478.383 105.754 477.857 105.821 477.717 106.664L472.923 135.278C472.783 136.121 473.312 136.142 473.664 136.126L477.664 135.953C478.587 135.913 478.609 135.384 478.681 135.028L480.782 122.518L483.332 122.407C486.057 122.289 486.171 123.914 486.229 125.233L486.501 130.506C486.613 133.099 487.047 134.974 489.369 135.711C490.04 135.946 491.28 136.112 492.159 136.074C492.687 136.051 493.124 135.988 493.361 135.362L494.711 131.956C494.991 131.283 494.719 131.119 494.41 131.088L493.167 130.878C491.837 130.671 491.788 129.528 491.721 127.99L491.517 124.299C491.389 122.367 490.918 120.626 488.506 119.849L488.5 119.717C491.103 118.812 492.138 117.27 492.839 115.169L493.891 111.997C494.516 110.164 494.926 109.442 496.317 109.029L497.231 108.769C497.666 108.662 497.871 108.301 497.806 107.82L497.363 104.712C497.298 104.23 496.813 104.207 496.505 104.22C495.362 104.27 493.757 104.824 492.682 105.443C490.448 106.729 489.781 108.607 489.195 110.35L487.907 114.15C486.933 117.099 485.588 117.553 483.741 117.633L481.587 117.726L483.476 106.414C483.508 106.149 483.702 105.524 482.734 105.565L478.734 105.739ZM509.847 121.744C509.664 119.55 509.263 116.396 509.135 115.477L507.535 104.976C507.413 104.189 507.537 104.007 506.268 104.194L502.283 104.719C501.757 104.786 501.186 104.81 501.207 105.294C501.213 105.426 501.174 105.56 501.283 106.039L505.181 125.865C505.242 126.259 505.462 126.25 505.593 126.244L508.407 126.122L507.81 127.601C507.453 128.498 506.359 130.703 504.029 130.804C503.282 130.836 502.567 130.603 502.026 130.318C501.529 130.031 501.119 129.697 500.811 129.71C500.635 129.718 500.421 129.859 500.341 130.039L498.505 133.421C497.731 134.864 502.432 135.629 503.839 135.569C506.125 135.47 507.721 134.696 508.784 133.813C510.315 132.558 511.16 130.715 511.843 129.188L522.387 105.214C522.427 105.124 522.466 104.99 522.506 104.9C522.504 104.856 522.548 104.854 522.546 104.81C522.628 104.675 522.712 104.583 522.707 104.451C522.686 103.968 522.158 103.99 521.849 103.96L518.047 103.64C517.296 103.584 517.231 104.116 516.99 104.655L512.564 115.328C511.089 118.915 510.258 121.065 510.023 121.736L509.847 121.744ZM535.646 128.113C535.551 127.941 535.501 127.811 535.325 127.819C535.017 127.832 534.633 128.113 534.247 128.35C532.619 129.39 531.307 129.623 530.516 129.657C529.109 129.718 528.255 129.314 527.707 128.854C526.608 127.888 526.394 126.004 526.339 124.729C526.179 121.036 526.553 116.44 528.403 112.396C530.21 108.354 532.68 107.41 534.306 107.34C535.493 107.289 536.257 107.652 537.396 108.527C537.853 108.904 538.218 109.196 538.702 109.176C538.965 109.164 539.088 108.939 539.13 108.893L541.103 105.636C541.143 105.547 541.229 105.499 541.221 105.323C541.202 104.883 540.7 104.465 540.383 104.258C538.428 102.845 536.079 102.507 534.408 102.579C531.727 102.695 526.79 103.614 523.398 109.706C520.987 114.038 520.153 119.183 520.374 124.283C520.479 126.7 521.004 130.685 523.83 132.897C525.152 133.941 527.029 134.564 529.271 134.467C531.469 134.372 533.942 133.516 535.622 132.651C536.182 132.362 537.043 131.885 537.022 131.401C537.016 131.269 536.964 131.095 536.917 131.009L535.646 128.113Z" fill="white"/>
</g>
<path d="M289.08 175.96H291.096C291.224 175.96 291.368 175.928 291.432 175.704L291.784 174.376C291.816 174.264 291.896 174.04 291.576 174.04H284.776C284.536 174.04 284.536 174.216 284.536 174.28V175.72C284.536 175.784 284.536 175.96 284.776 175.96H286.904V184.68C286.904 184.824 286.936 185 287.224 185H288.76C288.904 185 289.08 184.968 289.08 184.68V175.96ZM293.975 184.856L294.039 184.888C294.199 184.968 294.631 185.272 295.639 185.272C298.519 185.272 298.583 182.184 298.583 180.984C298.583 177.48 297.015 176.824 295.767 176.824C295.127 176.824 294.439 177.032 293.767 177.656C293.719 177.512 293.687 177.368 293.623 177.224C293.447 176.744 293.287 176.792 293.031 176.872L291.815 177.272C291.735 177.304 291.639 177.352 291.639 177.448C291.639 177.496 291.655 177.544 291.703 177.704C291.815 178.04 291.943 178.568 291.943 179.944V188.152C291.943 188.456 292.071 188.408 292.199 188.376L293.671 188.072C293.991 188.008 293.975 187.928 293.975 187.784V184.856ZM293.975 179.032L294.039 178.968C294.295 178.712 294.695 178.424 295.207 178.424C296.519 178.424 296.551 179.96 296.551 180.936C296.551 182.184 296.487 182.648 296.295 183C295.991 183.576 295.495 183.672 295.127 183.672C294.903 183.672 294.439 183.656 293.975 183.368V179.032ZM306.264 184.712C306.312 184.696 306.392 184.648 306.392 184.552C306.392 184.472 306.328 184.36 306.216 184.072C305.976 183.464 305.976 182.952 305.976 182.488V179.4C305.976 179.112 305.944 178.392 305.624 177.848C305.144 177.032 304.216 176.824 303.224 176.824C302.568 176.824 301.432 176.952 300.776 177.256C300.36 177.448 300.36 177.512 300.44 177.736L300.776 178.744C300.808 178.856 300.84 178.904 300.936 178.904C301.048 178.904 301.16 178.824 301.704 178.648C302.104 178.52 302.584 178.424 303 178.424C303.448 178.424 303.72 178.568 303.864 178.744C304.072 179 304.056 179.384 304.056 179.608V180.104C303.144 180.072 301.64 180.2 300.856 180.76C300.52 181 299.88 181.608 299.88 182.84C299.88 184.312 300.808 185.272 302.248 185.272C303.304 185.272 303.88 184.792 304.296 184.376L304.36 184.312C304.408 184.568 304.488 184.792 304.632 185.08C304.76 185.32 304.856 185.288 304.968 185.24L306.264 184.712ZM304.056 183.176C303.704 183.56 303.272 183.784 302.856 183.784C302.28 183.784 301.8 183.352 301.8 182.696C301.8 181.752 302.68 181.416 303.96 181.416H304.056V183.176ZM310.904 178.696H312.664C312.744 178.696 312.856 178.664 312.904 178.472L313.128 177.416C313.16 177.256 313.224 177.096 312.888 177.096H307.048C306.872 177.096 306.824 177.144 306.824 177.32V178.472C306.824 178.648 306.872 178.696 307.048 178.696H308.872V184.776C308.872 184.984 308.92 185 309.096 185H310.68C310.888 185 310.904 184.952 310.904 184.776V178.696ZM316.941 185C317.789 185 318.861 184.968 319.613 184.36C320.365 183.768 320.461 182.936 320.461 182.36C320.461 181.688 320.301 181.016 319.677 180.488C318.957 179.88 318.061 179.848 317.165 179.848H316.269V177.032C316.269 176.792 316.141 176.808 316.013 176.84L314.765 177.096C314.221 177.208 314.237 177.224 314.237 177.432V184.776C314.237 184.984 314.285 185 314.461 185H316.941ZM316.269 181.448H317.245C317.581 181.448 318.429 181.464 318.429 182.424C318.429 183.352 317.661 183.4 317.069 183.4H316.269V181.448ZM331.444 177.944C331.476 177.896 331.492 177.864 331.492 177.8C331.492 177.704 331.428 177.56 331.14 177.368C330.708 177.096 330.068 176.824 329.204 176.824C327.284 176.824 325.492 178.04 325.492 181.224C325.492 184.28 327.236 185.272 329.076 185.272C329.7 185.272 330.372 185.128 330.9 184.84C331.14 184.712 331.3 184.552 331.3 184.424C331.3 184.376 331.268 184.296 331.252 184.264L330.836 183.208C330.82 183.16 330.756 183.128 330.724 183.128C330.612 183.128 330.436 183.272 330.244 183.384C329.956 183.56 329.652 183.672 329.236 183.672C328.548 183.672 328.164 183.304 327.956 182.952C327.78 182.648 327.652 182.152 327.652 181.176C327.652 179.912 327.876 179.384 327.972 179.176C328.196 178.728 328.58 178.424 329.204 178.424C329.62 178.424 329.94 178.552 330.276 178.776C330.516 178.936 330.644 179.064 330.74 179.064C330.804 179.064 330.836 179.016 330.852 178.984L331.444 177.944ZM335.802 185C336.762 185 337.69 184.984 338.458 184.472C339.146 184.024 339.322 183.32 339.322 182.76C339.322 181.656 338.65 180.984 337.786 180.808C338.602 180.552 339.066 179.864 339.066 179.048C339.066 178.264 338.65 177.768 338.282 177.512C337.658 177.096 336.618 177.096 335.69 177.096H333.242C333.034 177.096 333.018 177.144 333.018 177.32V184.776C333.018 184.984 333.066 185 333.242 185H335.802ZM335.05 178.584H335.85C336.346 178.584 337.034 178.632 337.034 179.352C337.034 179.624 336.922 180.216 335.898 180.216H335.05V178.584ZM335.05 181.656H336.106C336.394 181.656 337.29 181.672 337.29 182.568C337.29 183.416 336.522 183.512 335.93 183.512H335.05V181.656ZM347.811 181.048C347.811 178.04 346.099 176.824 344.339 176.824C342.579 176.824 340.867 178.04 340.867 181.048C340.867 184.056 342.579 185.272 344.339 185.272C346.099 185.272 347.811 184.056 347.811 181.048ZM344.339 183.672C343.091 183.672 343.027 182.264 343.027 181.048C343.027 179.832 343.123 178.424 344.339 178.424C345.555 178.424 345.651 179.832 345.651 181.048C345.651 182.28 345.571 183.672 344.339 183.672ZM349.612 184.776C349.612 184.984 349.66 185 349.836 185H351.42C351.628 185 351.644 184.92 351.724 184.776L353.244 181.96C353.452 181.576 353.692 181.24 354.252 180.008H354.316C354.252 181.08 354.236 181.432 354.236 181.736V184.776C354.236 184.984 354.284 185 354.46 185H356.044C356.252 185 356.268 184.952 356.268 184.776V177.032C356.268 176.792 356.14 176.808 356.012 176.84L354.732 177.096C354.46 177.144 354.38 177.112 354.188 177.432L352.636 180.136C352.332 180.664 352.06 181.144 351.628 182.088H351.564C351.596 181.688 351.644 180.808 351.644 180.36V177.032C351.644 176.792 351.516 176.808 351.388 176.84L349.916 177.144C349.596 177.208 349.612 177.288 349.612 177.432V184.776ZM364.893 174.04C364.685 174.04 364.669 174.136 364.621 174.28L361.437 184.68C361.405 184.776 361.341 185 361.677 185H363.389C363.597 185 363.613 184.92 363.677 184.664L364.333 182.072H367.085L367.789 184.664C367.885 184.984 367.933 185 368.125 185H369.901C369.981 185 370.157 184.984 370.157 184.808C370.157 184.728 370.125 184.68 370.109 184.616L366.973 174.296C366.925 174.136 366.893 174.04 366.733 174.04H364.893ZM366.685 180.632H364.573L365.277 177.88C365.565 176.776 365.613 176.184 365.629 175.752H365.677C365.805 176.856 365.917 177.4 366.029 177.88L366.685 180.632ZM375.773 178.696V184.776C375.773 184.952 375.821 185 375.997 185H377.581C377.789 185 377.805 184.952 377.805 184.776V177.32C377.805 177.144 377.757 177.096 377.581 177.096H372.669C372.461 177.096 372.445 177.144 372.445 177.32V178.04C372.445 178.984 372.413 181.432 372.237 182.28C372.077 183.112 371.709 183.384 371.165 183.512L370.893 183.576C370.797 183.592 370.621 183.608 370.685 183.848L371.005 185.032C371.037 185.144 371.069 185.272 371.341 185.272C371.725 185.272 373.181 185.176 373.837 183.544C374.333 182.28 374.381 179.816 374.381 178.904V178.696H375.773ZM382.754 185C383.602 185 384.674 184.968 385.426 184.36C386.178 183.768 386.274 182.936 386.274 182.36C386.274 181.688 386.114 181.016 385.49 180.488C384.77 179.88 383.874 179.848 382.978 179.848H382.082V177.032C382.082 176.792 381.954 176.808 381.826 176.84L380.578 177.096C380.034 177.208 380.05 177.224 380.05 177.432V184.776C380.05 184.984 380.098 185 380.274 185H382.754ZM382.082 181.448H383.058C383.394 181.448 384.242 181.464 384.242 182.424C384.242 183.352 383.474 183.4 382.882 183.4H382.082V181.448ZM392.322 178.696V184.776C392.322 184.952 392.37 185 392.546 185H394.13C394.338 185 394.354 184.952 394.354 184.776V177.32C394.354 177.112 394.306 177.096 394.13 177.096H388.258C388.082 177.096 388.034 177.112 388.034 177.32V184.776C388.034 184.952 388.05 185 388.258 185H389.842C390.05 185 390.066 184.952 390.066 184.776V178.696H392.322ZM402.469 181.592C402.677 181.592 402.837 181.576 402.837 181.08C402.837 180.664 402.821 180.072 402.661 179.4C402.373 178.152 401.653 176.824 399.637 176.824C397.397 176.824 396.133 178.728 396.133 181.256C396.133 182.36 396.357 185.272 399.781 185.272C400.677 185.272 401.733 185.032 402.325 184.632C402.453 184.552 402.581 184.44 402.581 184.28C402.581 184.232 402.565 184.2 402.533 184.136L402.133 183.192C402.101 183.112 402.053 183.064 401.957 183.064C401.861 183.064 401.717 183.128 401.525 183.224C401.221 183.368 400.661 183.592 399.925 183.592C398.597 183.592 398.165 182.76 398.165 181.592H402.469ZM398.165 180.104C398.261 179.016 398.613 178.312 399.525 178.312C400.165 178.312 400.485 178.68 400.613 179.288C400.645 179.416 400.693 179.672 400.677 180.104H398.165ZM408.933 180.056H406.629V177.032C406.629 176.792 406.501 176.808 406.373 176.84L405.109 177.096C404.565 177.208 404.597 177.256 404.597 177.432V184.776C404.597 184.952 404.645 185 404.821 185H406.405C406.613 185 406.629 184.952 406.629 184.776V181.656H408.933V184.776C408.933 184.984 408.981 185 409.157 185H410.741C410.949 185 410.965 184.952 410.965 184.776V177.032C410.965 176.792 410.837 176.808 410.709 176.84L409.237 177.144C408.917 177.208 408.933 177.288 408.933 177.432V180.056ZM417.334 180.328C417.334 180.168 417.382 179.992 416.998 179.992H413.094C412.71 179.992 412.758 180.168 412.758 180.328V181.496C412.758 181.656 412.71 181.832 413.094 181.832H416.998C417.382 181.832 417.334 181.656 417.334 181.496V180.328ZM420.872 185C421.16 185 421.16 184.888 421.16 184.776V181.688H421.816C422.552 181.688 422.648 182.04 422.744 182.472L423.048 183.8C423.16 184.28 423.336 184.664 423.72 184.92C424.136 185.208 424.888 185.272 425.192 185.272C425.544 185.272 425.576 185.144 425.608 185.032L425.896 184.008C425.976 183.704 425.832 183.672 425.72 183.656L425.368 183.592C425.016 183.528 424.952 183.368 424.824 182.984L424.52 182.104C424.344 181.608 424.184 181.032 423.416 180.872V180.824C424.088 180.696 424.296 180.152 424.392 179.816L424.568 179.192C424.744 178.552 424.904 178.52 425.224 178.456L425.464 178.408C425.624 178.376 425.704 178.264 425.672 178.152L425.352 176.984C425.32 176.888 425.288 176.824 425.064 176.824C424.776 176.824 424.04 176.92 423.592 177.32C423.208 177.656 423.064 178.12 423 178.392L422.792 179.304C422.696 179.736 422.6 180.088 421.864 180.088H421.16V177.032C421.16 176.792 421.032 176.808 420.904 176.84L419.656 177.096C419.112 177.208 419.128 177.224 419.128 177.432V184.776C419.128 184.888 419.128 185 419.416 185H420.872ZM433.733 181.048C433.733 178.04 432.021 176.824 430.261 176.824C428.501 176.824 426.789 178.04 426.789 181.048C426.789 184.056 428.501 185.272 430.261 185.272C432.021 185.272 433.733 184.056 433.733 181.048ZM430.261 183.672C429.013 183.672 428.949 182.264 428.949 181.048C428.949 179.832 429.045 178.424 430.261 178.424C431.477 178.424 431.573 179.832 431.573 181.048C431.573 182.28 431.493 183.672 430.261 183.672ZM435.534 184.776C435.534 184.984 435.582 185 435.758 185H437.342C437.55 185 437.566 184.92 437.646 184.776L439.166 181.96C439.374 181.576 439.614 181.24 440.174 180.008H440.238C440.174 181.08 440.158 181.432 440.158 181.736V184.776C440.158 184.984 440.206 185 440.382 185H441.966C442.174 185 442.19 184.952 442.19 184.776V177.032C442.19 176.792 442.062 176.808 441.934 176.84L440.654 177.096C440.382 177.144 440.302 177.112 440.11 177.432L438.558 180.136C438.254 180.664 437.982 181.144 437.55 182.088H437.486C437.518 181.688 437.566 180.808 437.566 180.36V177.032C437.566 176.792 437.438 176.808 437.31 176.84L435.838 177.144C435.518 177.208 435.534 177.288 435.534 177.432V184.776ZM448.761 180.056H446.457V177.032C446.457 176.792 446.329 176.808 446.201 176.84L444.937 177.096C444.393 177.208 444.425 177.256 444.425 177.432V184.776C444.425 184.952 444.473 185 444.649 185H446.233C446.441 185 446.457 184.952 446.457 184.776V181.656H448.761V184.776C448.761 184.984 448.809 185 448.985 185H450.569C450.777 185 450.793 184.952 450.793 184.776V177.032C450.793 176.792 450.665 176.808 450.537 176.84L449.065 177.144C448.745 177.208 448.761 177.288 448.761 177.432V180.056ZM455.738 185C456.586 185 457.658 184.968 458.41 184.36C459.162 183.768 459.258 182.936 459.258 182.36C459.258 181.688 459.098 181.016 458.474 180.488C457.754 179.88 456.858 179.848 455.962 179.848H455.066V177.032C455.066 176.792 454.938 176.808 454.81 176.84L453.594 177.096C453.018 177.224 453.034 177.208 453.034 177.432V184.776C453.034 184.984 453.082 185 453.258 185H455.738ZM455.066 181.448H456.042C456.378 181.448 457.226 181.464 457.226 182.424C457.226 183.352 456.458 183.4 455.866 183.4H455.066V181.448ZM460.362 184.776C460.362 184.984 460.41 185 460.586 185H462.17C462.378 185 462.394 184.952 462.394 184.776V177.032C462.394 176.792 462.266 176.808 462.138 176.84L460.666 177.144C460.346 177.208 460.362 177.288 460.362 177.432V184.776ZM465.412 183C465.22 183 465.124 183.08 465.06 183.272L464.052 186.584C464.036 186.648 464.02 186.696 464.02 186.744C464.02 186.888 464.18 186.92 464.276 186.952L464.948 187.176C464.996 187.192 465.028 187.208 465.076 187.208C465.188 187.208 465.22 187.128 465.284 187.016L467.204 183.416C467.236 183.336 467.284 183.256 467.284 183.176C467.284 183.016 467.124 183 466.964 183H465.412ZM476.633 180.648C476.329 180.808 475.961 180.872 475.641 180.872C474.873 180.872 474.809 180.344 474.809 180.056V177.032C474.809 176.792 474.681 176.808 474.553 176.84L473.321 177.096C472.745 177.208 472.777 177.224 472.777 177.432V180.056C472.777 180.584 472.777 181.256 473.193 181.768C473.529 182.184 474.153 182.472 474.937 182.472C475.593 182.472 476.233 182.296 476.633 182.152V184.776C476.633 184.952 476.681 185 476.857 185H478.441C478.649 185 478.665 184.952 478.665 184.776V177.032C478.665 176.792 478.537 176.808 478.409 176.84L476.937 177.144C476.617 177.208 476.633 177.288 476.633 177.432V180.648ZM483.951 178.696H485.711C485.791 178.696 485.903 178.664 485.951 178.472L486.175 177.416C486.207 177.256 486.271 177.096 485.935 177.096H480.095C479.919 177.096 479.871 177.144 479.871 177.32V178.472C479.871 178.648 479.919 178.696 480.095 178.696H481.919V184.776C481.919 184.984 481.967 185 482.143 185H483.727C483.935 185 483.951 184.952 483.951 184.776V178.696ZM493.78 181.048C493.78 178.04 492.068 176.824 490.308 176.824C488.548 176.824 486.836 178.04 486.836 181.048C486.836 184.056 488.548 185.272 490.308 185.272C492.068 185.272 493.78 184.056 493.78 181.048ZM490.308 183.672C489.06 183.672 488.996 182.264 488.996 181.048C488.996 179.832 489.092 178.424 490.308 178.424C491.524 178.424 491.62 179.832 491.62 181.048C491.62 182.28 491.54 183.672 490.308 183.672ZM496.653 178.536L496.669 178.36C496.813 176.808 498.077 176.2 498.509 176.008L501.837 174.584C502.141 174.456 502.077 174.248 502.045 174.184L501.501 173C501.389 172.744 501.101 172.888 501.005 172.936L497.997 174.296C496.765 174.856 495.933 175.928 495.565 176.952C495.229 177.848 495.181 178.936 495.181 180.12C495.181 181.16 495.229 182.376 495.709 183.384C496.525 185.064 497.997 185.272 498.733 185.272C500.525 185.272 502.205 183.992 502.205 181.208C502.205 178.696 500.941 177.192 499.053 177.192C497.981 177.192 497.165 177.656 496.717 178.536H496.653ZM498.733 183.672C497.485 183.672 497.421 182.216 497.421 181.208C497.421 180.216 497.485 178.792 498.733 178.792C499.981 178.792 500.045 180.216 500.045 181.208C500.045 182.216 499.981 183.672 498.733 183.672ZM506.722 185C507.57 185 508.642 184.968 509.394 184.36C510.146 183.768 510.242 182.936 510.242 182.36C510.242 181.688 510.082 181.016 509.458 180.488C508.738 179.88 507.842 179.848 506.946 179.848H506.05V177.032C506.05 176.792 505.922 176.808 505.794 176.84L504.578 177.096C504.002 177.224 504.018 177.208 504.018 177.432V184.776C504.018 184.984 504.066 185 504.242 185H506.722ZM506.05 181.448H507.026C507.362 181.448 508.21 181.464 508.21 182.424C508.21 183.352 507.442 183.4 506.85 183.4H506.05V181.448ZM511.346 184.776C511.346 184.984 511.394 185 511.57 185H513.154C513.362 185 513.378 184.952 513.378 184.776V177.032C513.378 176.792 513.25 176.808 513.122 176.84L511.65 177.144C511.33 177.208 511.346 177.288 511.346 177.432V184.776ZM522.131 185C523.091 185 524.019 184.984 524.787 184.472C525.475 184.024 525.651 183.32 525.651 182.76C525.651 181.656 524.979 180.984 524.115 180.808C524.931 180.552 525.395 179.864 525.395 179.048C525.395 178.264 524.979 177.768 524.611 177.512C523.987 177.096 522.947 177.096 522.019 177.096H519.571C519.363 177.096 519.347 177.144 519.347 177.32V184.776C519.347 184.984 519.395 185 519.571 185H522.131ZM521.379 178.584H522.179C522.675 178.584 523.363 178.632 523.363 179.352C523.363 179.624 523.251 180.216 522.227 180.216H521.379V178.584ZM521.379 181.656H522.435C522.723 181.656 523.619 181.672 523.619 182.568C523.619 183.416 522.851 183.512 522.259 183.512H521.379V181.656ZM530.347 185C531.195 185 532.267 184.968 533.019 184.36C533.771 183.768 533.867 182.936 533.867 182.36C533.867 181.688 533.707 181.016 533.083 180.488C532.363 179.88 531.467 179.848 530.571 179.848H529.675V177.032C529.675 176.792 529.547 176.808 529.419 176.84L528.203 177.096C527.627 177.224 527.643 177.208 527.643 177.432V184.776C527.643 184.984 527.691 185 527.867 185H530.347ZM529.675 181.448H530.651C530.987 181.448 531.835 181.464 531.835 182.424C531.835 183.352 531.067 183.4 530.475 183.4H529.675V181.448ZM534.971 184.776C534.971 184.984 535.019 185 535.195 185H536.779C536.987 185 537.003 184.952 537.003 184.776V177.032C537.003 176.792 536.875 176.808 536.747 176.84L535.275 177.144C534.955 177.208 534.971 177.288 534.971 177.432V184.776ZM540.309 178.536L540.325 178.36C540.469 176.808 541.733 176.2 542.165 176.008L545.493 174.584C545.797 174.456 545.733 174.248 545.701 174.184L545.157 173C545.045 172.744 544.757 172.888 544.661 172.936L541.653 174.296C540.421 174.856 539.589 175.928 539.221 176.952C538.885 177.848 538.837 178.936 538.837 180.12C538.837 181.16 538.885 182.376 539.365 183.384C540.181 185.064 541.653 185.272 542.389 185.272C544.181 185.272 545.861 183.992 545.861 181.208C545.861 178.696 544.597 177.192 542.709 177.192C541.637 177.192 540.821 177.656 540.373 178.536H540.309ZM542.389 183.672C541.141 183.672 541.077 182.216 541.077 181.208C541.077 180.216 541.141 178.792 542.389 178.792C543.637 178.792 543.701 180.216 543.701 181.208C543.701 182.216 543.637 183.672 542.389 183.672ZM549.803 184.856L549.867 184.888C550.027 184.968 550.459 185.272 551.467 185.272C554.347 185.272 554.411 182.184 554.411 180.984C554.411 177.48 552.843 176.824 551.595 176.824C550.955 176.824 550.267 177.032 549.595 177.656C549.547 177.512 549.515 177.368 549.451 177.224C549.275 176.744 549.115 176.792 548.859 176.872L547.643 177.272C547.563 177.304 547.467 177.352 547.467 177.448C547.467 177.496 547.483 177.544 547.531 177.704C547.643 178.04 547.771 178.568 547.771 179.944V188.152C547.771 188.456 547.899 188.408 548.027 188.376L549.499 188.072C549.819 188.008 549.803 187.928 549.803 187.784V184.856ZM549.803 179.032L549.867 178.968C550.123 178.712 550.523 178.424 551.035 178.424C552.347 178.424 552.379 179.96 552.379 180.936C552.379 182.184 552.315 182.648 552.123 183C551.819 183.576 551.323 183.672 550.955 183.672C550.731 183.672 550.267 183.656 549.803 183.368V179.032ZM562.092 184.712C562.14 184.696 562.22 184.648 562.22 184.552C562.22 184.472 562.156 184.36 562.044 184.072C561.804 183.464 561.804 182.952 561.804 182.488V179.4C561.804 179.112 561.772 178.392 561.452 177.848C560.972 177.032 560.044 176.824 559.052 176.824C558.396 176.824 557.26 176.952 556.604 177.256C556.188 177.448 556.188 177.512 556.268 177.736L556.604 178.744C556.636 178.856 556.668 178.904 556.764 178.904C556.876 178.904 556.988 178.824 557.532 178.648C557.932 178.52 558.412 178.424 558.828 178.424C559.276 178.424 559.548 178.568 559.692 178.744C559.9 179 559.884 179.384 559.884 179.608V180.104C558.972 180.072 557.468 180.2 556.684 180.76C556.348 181 555.708 181.608 555.708 182.84C555.708 184.312 556.636 185.272 558.076 185.272C559.132 185.272 559.708 184.792 560.124 184.376L560.188 184.312C560.236 184.568 560.316 184.792 560.46 185.08C560.588 185.32 560.684 185.288 560.796 185.24L562.092 184.712ZM559.884 183.176C559.532 183.56 559.1 183.784 558.684 183.784C558.108 183.784 557.628 183.352 557.628 182.696C557.628 181.752 558.508 181.416 559.788 181.416H559.884V183.176ZM566.732 178.696H568.492C568.572 178.696 568.684 178.664 568.732 178.472L568.956 177.416C568.988 177.256 569.052 177.096 568.716 177.096H562.876C562.7 177.096 562.652 177.144 562.652 177.32V178.472C562.652 178.648 562.7 178.696 562.876 178.696H564.7V184.776C564.7 184.984 564.748 185 564.924 185H566.508C566.716 185 566.732 184.952 566.732 184.776V178.696ZM572.769 185C573.617 185 574.689 184.968 575.441 184.36C576.193 183.768 576.289 182.936 576.289 182.36C576.289 181.688 576.129 181.016 575.505 180.488C574.785 179.88 573.889 179.848 572.993 179.848H572.097V177.032C572.097 176.792 571.969 176.808 571.841 176.84L570.593 177.096C570.049 177.208 570.065 177.224 570.065 177.432V184.776C570.065 184.984 570.113 185 570.289 185H572.769ZM572.097 181.448H573.073C573.409 181.448 574.257 181.464 574.257 182.424C574.257 183.352 573.489 183.4 572.897 183.4H572.097V181.448ZM586.12 180.056H583.816V177.032C583.816 176.792 583.688 176.808 583.56 176.84L582.296 177.096C581.752 177.208 581.784 177.256 581.784 177.432V184.776C581.784 184.952 581.832 185 582.008 185H583.592C583.8 185 583.816 184.952 583.816 184.776V181.656H586.12V184.776C586.12 184.984 586.168 185 586.344 185H587.928C588.136 185 588.152 184.952 588.152 184.776V177.032C588.152 176.792 588.024 176.808 587.896 176.84L586.424 177.144C586.104 177.208 586.12 177.288 586.12 177.432V180.056ZM596.889 181.048C596.889 178.04 595.177 176.824 593.417 176.824C591.657 176.824 589.945 178.04 589.945 181.048C589.945 184.056 591.657 185.272 593.417 185.272C595.177 185.272 596.889 184.056 596.889 181.048ZM593.417 183.672C592.169 183.672 592.105 182.264 592.105 181.048C592.105 179.832 592.201 178.424 593.417 178.424C594.633 178.424 594.729 179.832 594.729 181.048C594.729 182.28 594.649 183.672 593.417 183.672ZM601.474 185C602.434 185 603.362 184.984 604.13 184.472C604.818 184.024 604.994 183.32 604.994 182.76C604.994 181.656 604.322 180.984 603.458 180.808C604.274 180.552 604.738 179.864 604.738 179.048C604.738 178.264 604.322 177.768 603.954 177.512C603.33 177.096 602.29 177.096 601.362 177.096H598.914C598.706 177.096 598.69 177.144 598.69 177.32V184.776C598.69 184.984 598.738 185 598.914 185H601.474ZM600.722 178.584H601.522C602.018 178.584 602.706 178.632 602.706 179.352C602.706 179.624 602.594 180.216 601.57 180.216H600.722V178.584ZM600.722 181.656H601.778C602.066 181.656 602.962 181.672 602.962 182.568C602.962 183.416 602.194 183.512 601.602 183.512H600.722V181.656ZM609.691 185C610.539 185 611.611 184.968 612.363 184.36C613.115 183.768 613.211 182.936 613.211 182.36C613.211 181.688 613.051 181.016 612.427 180.488C611.707 179.88 610.811 179.848 609.915 179.848H609.019V177.032C609.019 176.792 608.891 176.808 608.763 176.84L607.547 177.096C606.971 177.224 606.987 177.208 606.987 177.432V184.776C606.987 184.984 607.035 185 607.211 185H609.691ZM609.019 181.448H609.995C610.331 181.448 611.179 181.464 611.179 182.424C611.179 183.352 610.411 183.4 609.819 183.4H609.019V181.448ZM614.315 184.776C614.315 184.984 614.363 185 614.539 185H616.123C616.331 185 616.347 184.952 616.347 184.776V177.032C616.347 176.792 616.219 176.808 616.091 176.84L614.619 177.144C614.299 177.208 614.315 177.288 614.315 177.432V184.776ZM618.581 184.776C618.581 184.984 618.629 185 618.805 185H620.389C620.597 185 620.613 184.92 620.693 184.776L622.213 181.96C622.421 181.576 622.661 181.24 623.221 180.008H623.285C623.221 181.016 623.205 181.448 623.205 181.736V184.776C623.205 184.984 623.253 185 623.429 185H625.013C625.221 185 625.237 184.952 625.237 184.776V177.032C625.237 176.792 625.109 176.808 624.981 176.84L623.733 177.096C623.477 177.144 623.365 177.08 623.157 177.432L621.605 180.136C621.301 180.664 621.029 181.144 620.597 182.088H620.533C620.565 181.688 620.613 180.808 620.613 180.36V177.032C620.613 176.792 620.485 176.808 620.357 176.84L618.885 177.144C618.565 177.208 618.581 177.288 618.581 177.432V184.776ZM623.109 173.464C623.077 173.464 623.029 173.448 622.997 173.448C622.805 173.448 622.821 173.576 622.741 173.816C622.613 174.264 622.389 174.504 621.909 174.504C621.429 174.504 621.205 174.264 621.077 173.816C621.029 173.64 621.013 173.544 620.965 173.496C620.901 173.416 620.789 173.448 620.709 173.464L619.781 173.592C619.717 173.608 619.637 173.672 619.637 173.848C619.637 174.104 619.733 174.472 619.925 174.792C620.293 175.384 621.013 175.816 621.909 175.816C622.805 175.816 623.525 175.384 623.893 174.792C624.085 174.472 624.181 174.104 624.181 173.848C624.181 173.672 624.101 173.608 624.037 173.592L623.109 173.464ZM310.935 204C311.895 204 312.823 203.984 313.591 203.472C314.279 203.024 314.455 202.32 314.455 201.76C314.455 200.656 313.783 199.984 312.919 199.808C313.735 199.552 314.199 198.864 314.199 198.048C314.199 197.264 313.783 196.768 313.415 196.512C312.791 196.096 311.751 196.096 310.823 196.096H308.375C308.167 196.096 308.151 196.144 308.151 196.32V203.776C308.151 203.984 308.199 204 308.375 204H310.935ZM310.183 197.584H310.983C311.479 197.584 312.167 197.632 312.167 198.352C312.167 198.624 312.055 199.216 311.031 199.216H310.183V197.584ZM310.183 200.656H311.239C311.527 200.656 312.423 200.672 312.423 201.568C312.423 202.416 311.655 202.512 311.063 202.512H310.183V200.656ZM318.192 204C318.48 204 318.48 203.888 318.48 203.776V200.688H319.136C319.872 200.688 319.968 201.04 320.064 201.472L320.368 202.8C320.48 203.28 320.656 203.664 321.04 203.92C321.456 204.208 322.208 204.272 322.512 204.272C322.864 204.272 322.896 204.144 322.928 204.032L323.216 203.008C323.296 202.704 323.152 202.672 323.04 202.656L322.688 202.592C322.336 202.528 322.272 202.368 322.144 201.984L321.84 201.104C321.664 200.608 321.504 200.032 320.736 199.872V199.824C321.408 199.696 321.616 199.152 321.712 198.816L321.888 198.192C322.064 197.552 322.224 197.52 322.544 197.456L322.784 197.408C322.944 197.376 323.024 197.264 322.992 197.152L322.672 195.984C322.64 195.888 322.608 195.824 322.384 195.824C322.096 195.824 321.36 195.92 320.912 196.32C320.528 196.656 320.384 197.12 320.32 197.392L320.112 198.304C320.016 198.736 319.92 199.088 319.184 199.088H318.48V196.032C318.48 195.792 318.352 195.808 318.224 195.84L316.976 196.096C316.432 196.208 316.448 196.224 316.448 196.432V203.776C316.448 203.888 316.448 204 316.736 204H318.192ZM329.262 195.952C328.958 195.92 328.862 196.096 328.814 196.288L327.966 200.144C327.918 200.4 327.774 200.832 327.438 202.912H327.406C327.294 202.32 326.958 200.736 326.798 200.144L325.758 196.272C325.662 195.888 325.598 195.936 325.278 195.968L323.95 196.096C323.774 196.112 323.598 196.128 323.598 196.288C323.598 196.368 323.63 196.432 323.678 196.56L326.126 203.792C326.206 204.032 326.302 204 326.414 204H327.086L326.926 204.528C326.75 205.104 326.526 205.712 325.662 205.712C325.214 205.712 324.798 205.536 324.542 205.408C324.43 205.344 324.366 205.312 324.302 205.312C324.254 205.312 324.19 205.328 324.142 205.424L323.63 206.528C323.566 206.672 323.55 206.784 324.014 206.992C324.638 207.28 325.23 207.392 325.774 207.392C326.462 207.392 327.47 207.216 328.078 206C328.35 205.456 328.59 204.592 329.198 202.336L330.766 196.576C330.814 196.4 330.83 196.352 330.83 196.304C330.83 196.144 330.654 196.128 330.494 196.112L329.262 195.952ZM337.514 196.944C337.546 196.896 337.562 196.864 337.562 196.8C337.562 196.704 337.498 196.56 337.21 196.368C336.778 196.096 336.138 195.824 335.274 195.824C333.354 195.824 331.562 197.04 331.562 200.224C331.562 203.28 333.306 204.272 335.146 204.272C335.77 204.272 336.442 204.128 336.97 203.84C337.21 203.712 337.37 203.552 337.37 203.424C337.37 203.376 337.338 203.296 337.322 203.264L336.906 202.208C336.89 202.16 336.826 202.128 336.794 202.128C336.682 202.128 336.506 202.272 336.314 202.384C336.026 202.56 335.722 202.672 335.306 202.672C334.618 202.672 334.234 202.304 334.026 201.952C333.85 201.648 333.722 201.152 333.722 200.176C333.722 198.912 333.946 198.384 334.042 198.176C334.266 197.728 334.65 197.424 335.274 197.424C335.69 197.424 336.01 197.552 336.346 197.776C336.586 197.936 336.714 198.064 336.81 198.064C336.874 198.064 336.906 198.016 336.922 197.984L337.514 196.944ZM345.479 193.04C345.271 193.04 345.255 193.136 345.207 193.28L342.023 203.68C341.991 203.776 341.927 204 342.263 204H343.975C344.183 204 344.199 203.92 344.263 203.664L344.919 201.072H347.671L348.375 203.664C348.471 203.984 348.519 204 348.711 204H350.487C350.567 204 350.743 203.984 350.743 203.808C350.743 203.728 350.711 203.68 350.695 203.616L347.559 193.296C347.511 193.136 347.479 193.04 347.319 193.04H345.479ZM347.271 199.632H345.159L345.863 196.88C346.151 195.776 346.199 195.184 346.215 194.752H346.263C346.391 195.856 346.503 196.4 346.615 196.88L347.271 199.632ZM355.303 202.384C355.287 202.32 355.223 202.288 355.175 202.288C355.127 202.288 355.063 202.32 354.951 202.352C354.823 202.4 354.695 202.432 354.567 202.432C354.071 202.432 354.103 201.904 354.103 201.472V192.752C354.103 192.64 354.119 192.496 354.055 192.448C353.991 192.4 353.895 192.416 353.847 192.432L352.375 192.736C352.055 192.8 352.071 192.88 352.071 193.024V201.184C352.071 202.768 352.103 204.272 354.119 204.272C354.567 204.272 354.919 204.192 355.335 204.064C355.639 203.968 355.671 203.872 355.623 203.696L355.303 202.384ZM358.998 203.856L359.062 203.888C359.222 203.968 359.654 204.272 360.662 204.272C363.542 204.272 363.606 201.184 363.606 199.984C363.606 196.48 362.038 195.824 360.79 195.824C360.15 195.824 359.462 196.032 358.79 196.656C358.742 196.512 358.71 196.368 358.646 196.224C358.47 195.744 358.31 195.792 358.054 195.872L356.838 196.272C356.758 196.304 356.662 196.352 356.662 196.448C356.662 196.496 356.678 196.544 356.726 196.704C356.838 197.04 356.966 197.568 356.966 198.944V207.152C356.966 207.456 357.094 207.408 357.222 207.376L358.694 207.072C359.014 207.008 358.998 206.928 358.998 206.784V203.856ZM358.998 198.032L359.062 197.968C359.318 197.712 359.718 197.424 360.23 197.424C361.542 197.424 361.574 198.96 361.574 199.936C361.574 201.184 361.51 201.648 361.318 202C361.014 202.576 360.518 202.672 360.15 202.672C359.926 202.672 359.462 202.656 358.998 202.368V198.032ZM371.336 200.592C371.544 200.592 371.704 200.576 371.704 200.08C371.704 199.664 371.688 199.072 371.528 198.4C371.24 197.152 370.52 195.824 368.504 195.824C366.264 195.824 365 197.728 365 200.256C365 201.36 365.224 204.272 368.648 204.272C369.544 204.272 370.6 204.032 371.192 203.632C371.32 203.552 371.448 203.44 371.448 203.28C371.448 203.232 371.432 203.2 371.4 203.136L371 202.192C370.968 202.112 370.92 202.064 370.824 202.064C370.728 202.064 370.584 202.128 370.392 202.224C370.088 202.368 369.528 202.592 368.792 202.592C367.464 202.592 367.032 201.76 367.032 200.592H371.336ZM367.032 199.104C367.128 198.016 367.48 197.312 368.392 197.312C369.032 197.312 369.352 197.68 369.48 198.288C369.512 198.416 369.56 198.672 369.544 199.104H367.032ZM379.864 198.16C379.864 196.944 379.24 195.824 377.8 195.824C377.048 195.824 376.216 196.048 375.336 196.928C375.288 196.608 375.208 196.352 375.128 196.16C374.968 195.792 374.904 195.76 374.584 195.872L373.368 196.272C373.208 196.32 373.192 196.416 373.192 196.48C373.192 196.624 373.256 196.688 373.336 197.008C373.432 197.424 373.496 197.904 373.496 198.944V203.776C373.496 203.984 373.544 204 373.72 204H375.304C375.512 204 375.528 203.952 375.528 203.776V198.16C376.136 197.6 376.584 197.504 376.888 197.504C377.784 197.504 377.832 198.256 377.832 198.848V203.776C377.832 203.984 377.88 204 378.056 204H379.64C379.848 204 379.864 203.952 379.864 203.776V198.16ZM390.961 200V202.288C390.513 202.496 390.145 202.544 389.857 202.544C389.329 202.544 388.865 202.384 388.561 202.112C387.761 201.392 387.681 199.52 387.681 198.72C387.681 197.872 387.793 196.576 388.017 195.904C388.321 195.024 388.865 194.496 389.841 194.496C390.337 194.496 390.801 194.64 391.281 194.896C391.697 195.12 391.809 195.2 391.905 195.2C392.033 195.2 392.065 195.104 392.113 195.024L392.641 193.968C392.705 193.84 392.769 193.728 392.353 193.472C392.081 193.312 391.153 192.768 389.697 192.768C388.353 192.768 387.409 193.232 386.737 193.952C385.969 194.784 385.409 196.192 385.409 198.752C385.409 200.4 385.697 201.808 386.497 202.864C387.217 203.808 388.225 204.272 389.713 204.272C391.041 204.272 391.921 203.888 392.369 203.648C392.785 203.424 392.897 203.312 392.897 203.088V198.592C392.897 198.304 392.721 198.272 392.577 198.272H389.745C389.601 198.272 389.425 198.304 389.425 198.592V199.68C389.425 199.968 389.601 200 389.745 200H390.961ZM401.585 200.048C401.585 197.04 399.873 195.824 398.113 195.824C396.353 195.824 394.641 197.04 394.641 200.048C394.641 203.056 396.353 204.272 398.113 204.272C399.873 204.272 401.585 203.056 401.585 200.048ZM398.113 202.672C396.865 202.672 396.801 201.264 396.801 200.048C396.801 198.832 396.897 197.424 398.113 197.424C399.329 197.424 399.425 198.832 399.425 200.048C399.425 201.28 399.345 202.672 398.113 202.672ZM406.538 202.384C406.522 202.32 406.458 202.288 406.41 202.288C406.362 202.288 406.298 202.32 406.186 202.352C406.058 202.4 405.93 202.432 405.802 202.432C405.306 202.432 405.338 201.904 405.338 201.472V192.752C405.338 192.64 405.354 192.496 405.29 192.448C405.226 192.4 405.13 192.416 405.082 192.432L403.61 192.736C403.29 192.8 403.306 192.88 403.306 193.024V201.184C403.306 202.768 403.338 204.272 405.354 204.272C405.802 204.272 406.154 204.192 406.57 204.064C406.874 203.968 406.906 203.872 406.858 203.696L406.538 202.384ZM412.504 203.312C412.584 203.696 412.68 203.888 412.792 204.096C412.904 204.32 413 204.288 413.096 204.24L414.392 203.712C414.504 203.664 414.536 203.632 414.536 203.568C414.536 203.504 414.504 203.44 414.424 203.12C414.264 202.48 414.248 201.744 414.248 201.488V192.752C414.248 192.368 414.184 192.384 413.992 192.432L412.472 192.752C412.2 192.8 412.216 192.88 412.216 193.024V196.304C411.784 195.952 411.32 195.824 410.712 195.824C409.528 195.824 407.656 196.464 407.656 200.256C407.656 203.648 409.224 204.272 410.328 204.272C411.128 204.272 411.848 203.968 412.472 203.344L412.504 203.312ZM412.216 202.112L412.12 202.224C411.944 202.432 411.64 202.672 411.032 202.672C410.68 202.672 410.248 202.592 409.96 202.064C409.832 201.808 409.688 201.376 409.688 200.016C409.688 198.928 409.768 198.32 410.056 197.936C410.376 197.488 410.808 197.424 411.128 197.424C411.608 197.424 411.88 197.552 412.136 197.696L412.216 197.744V202.112ZM417.185 202C416.993 202 416.897 202.08 416.833 202.272L415.825 205.584C415.809 205.648 415.793 205.696 415.793 205.744C415.793 205.888 415.953 205.92 416.049 205.952L416.721 206.176C416.769 206.192 416.801 206.208 416.849 206.208C416.961 206.208 416.993 206.128 417.057 206.016L418.977 202.416C419.009 202.336 419.057 202.256 419.057 202.176C419.057 202.016 418.897 202 418.737 202H417.185ZM424.87 203.776C424.87 203.984 424.918 204 425.094 204H426.678C426.886 204 426.902 203.92 426.982 203.776L428.502 200.96C428.71 200.576 428.95 200.24 429.51 199.008H429.574C429.51 200.08 429.494 200.432 429.494 200.736V203.776C429.494 203.984 429.542 204 429.718 204H431.302C431.51 204 431.526 203.952 431.526 203.776V196.032C431.526 195.792 431.398 195.808 431.27 195.84L429.99 196.096C429.718 196.144 429.638 196.112 429.446 196.432L427.894 199.136C427.59 199.664 427.318 200.144 426.886 201.088H426.822C426.854 200.688 426.902 199.808 426.902 199.36V196.032C426.902 195.792 426.774 195.808 426.646 195.84L425.174 196.144C424.854 196.208 424.87 196.288 424.87 196.432V203.776ZM441.783 197.696V203.776C441.783 203.952 441.831 204 442.007 204H443.591C443.799 204 443.815 203.952 443.815 203.776V196.32C443.815 196.112 443.767 196.096 443.591 196.096H437.719C437.543 196.096 437.495 196.112 437.495 196.32V203.776C437.495 203.952 437.511 204 437.719 204H439.303C439.511 204 439.527 203.952 439.527 203.776V197.696H441.783ZM452.554 200.048C452.554 197.04 450.842 195.824 449.082 195.824C447.322 195.824 445.61 197.04 445.61 200.048C445.61 203.056 447.322 204.272 449.082 204.272C450.842 204.272 452.554 203.056 452.554 200.048ZM449.082 202.672C447.834 202.672 447.77 201.264 447.77 200.048C447.77 198.832 447.866 197.424 449.082 197.424C450.298 197.424 450.394 198.832 450.394 200.048C450.394 201.28 450.314 202.672 449.082 202.672ZM458.562 197.696V203.776C458.562 203.952 458.61 204 458.786 204H460.37C460.578 204 460.594 203.952 460.594 203.776V196.32C460.594 196.144 460.546 196.096 460.37 196.096H455.458C455.25 196.096 455.234 196.144 455.234 196.32V197.04C455.234 197.984 455.202 200.432 455.026 201.28C454.866 202.112 454.498 202.384 453.954 202.512L453.682 202.576C453.586 202.592 453.41 202.608 453.474 202.848L453.794 204.032C453.826 204.144 453.858 204.272 454.13 204.272C454.514 204.272 455.97 204.176 456.626 202.544C457.122 201.28 457.17 198.816 457.17 197.904V197.696H458.562ZM467.543 195.952C467.239 195.92 467.143 196.096 467.095 196.288L466.247 200.144C466.199 200.4 466.055 200.832 465.719 202.912H465.687C465.575 202.32 465.239 200.736 465.079 200.144L464.039 196.272C463.943 195.888 463.879 195.936 463.559 195.968L462.231 196.096C462.055 196.112 461.879 196.128 461.879 196.288C461.879 196.368 461.911 196.432 461.959 196.56L464.407 203.792C464.487 204.032 464.583 204 464.695 204H465.367L465.207 204.528C465.031 205.104 464.807 205.712 463.943 205.712C463.495 205.712 463.079 205.536 462.823 205.408C462.711 205.344 462.647 205.312 462.583 205.312C462.535 205.312 462.471 205.328 462.423 205.424L461.911 206.528C461.847 206.672 461.831 206.784 462.295 206.992C462.919 207.28 463.511 207.392 464.055 207.392C464.743 207.392 465.751 207.216 466.359 206C466.631 205.456 466.871 204.592 467.479 202.336L469.047 196.576C469.095 196.4 469.111 196.352 469.111 196.304C469.111 196.144 468.935 196.128 468.775 196.112L467.543 195.952ZM474 199.648C473.696 199.808 473.328 199.872 473.008 199.872C472.24 199.872 472.176 199.344 472.176 199.056V196.032C472.176 195.792 472.048 195.808 471.92 195.84L470.688 196.096C470.112 196.208 470.144 196.224 470.144 196.432V199.056C470.144 199.584 470.144 200.256 470.56 200.768C470.896 201.184 471.52 201.472 472.304 201.472C472.96 201.472 473.6 201.296 474 201.152V203.776C474 203.952 474.048 204 474.224 204H475.808C476.016 204 476.032 203.952 476.032 203.776V196.032C476.032 195.792 475.904 195.808 475.776 195.84L474.304 196.144C473.984 196.208 474 196.288 474 196.432V199.648ZM484.022 203.712C484.07 203.696 484.15 203.648 484.15 203.552C484.15 203.472 484.086 203.36 483.974 203.072C483.734 202.464 483.734 201.952 483.734 201.488V198.4C483.734 198.112 483.702 197.392 483.382 196.848C482.902 196.032 481.974 195.824 480.982 195.824C480.326 195.824 479.19 195.952 478.534 196.256C478.118 196.448 478.118 196.512 478.198 196.736L478.534 197.744C478.566 197.856 478.598 197.904 478.694 197.904C478.806 197.904 478.918 197.824 479.462 197.648C479.862 197.52 480.342 197.424 480.758 197.424C481.206 197.424 481.478 197.568 481.622 197.744C481.83 198 481.814 198.384 481.814 198.608V199.104C480.902 199.072 479.398 199.2 478.614 199.76C478.278 200 477.638 200.608 477.638 201.84C477.638 203.312 478.566 204.272 480.006 204.272C481.062 204.272 481.638 203.792 482.054 203.376L482.118 203.312C482.166 203.568 482.246 203.792 482.39 204.08C482.518 204.32 482.614 204.288 482.726 204.24L484.022 203.712ZM481.814 202.176C481.462 202.56 481.03 202.784 480.614 202.784C480.038 202.784 479.558 202.352 479.558 201.696C479.558 200.752 480.438 200.416 481.718 200.416H481.814V202.176ZM485.901 203.776C485.901 203.984 485.949 204 486.125 204H487.709C487.917 204 487.933 203.92 488.013 203.776L489.533 200.96C489.741 200.576 489.981 200.24 490.541 199.008H490.605C490.541 200.016 490.525 200.448 490.525 200.736V203.776C490.525 203.984 490.573 204 490.749 204H492.333C492.541 204 492.557 203.952 492.557 203.776V196.032C492.557 195.792 492.429 195.808 492.301 195.84L491.053 196.096C490.797 196.144 490.685 196.08 490.477 196.432L488.925 199.136C488.621 199.664 488.349 200.144 487.917 201.088H487.853C487.885 200.688 487.933 199.808 487.933 199.36V196.032C487.933 195.792 487.805 195.808 487.677 195.84L486.205 196.144C485.885 196.208 485.901 196.288 485.901 196.432V203.776ZM490.429 192.464C490.397 192.464 490.349 192.448 490.317 192.448C490.125 192.448 490.141 192.576 490.061 192.816C489.933 193.264 489.709 193.504 489.229 193.504C488.749 193.504 488.525 193.264 488.397 192.816C488.349 192.64 488.333 192.544 488.285 192.496C488.221 192.416 488.109 192.448 488.029 192.464L487.101 192.592C487.037 192.608 486.957 192.672 486.957 192.848C486.957 193.104 487.053 193.472 487.245 193.792C487.613 194.384 488.333 194.816 489.229 194.816C490.125 194.816 490.845 194.384 491.213 193.792C491.405 193.472 491.501 193.104 491.501 192.848C491.501 192.672 491.421 192.608 491.357 192.592L490.429 192.464ZM499.598 197.536L499.614 197.36C499.758 195.808 501.022 195.2 501.454 195.008L504.782 193.584C505.086 193.456 505.022 193.248 504.99 193.184L504.446 192C504.334 191.744 504.046 191.888 503.95 191.936L500.942 193.296C499.71 193.856 498.878 194.928 498.51 195.952C498.174 196.848 498.126 197.936 498.126 199.12C498.126 200.16 498.174 201.376 498.654 202.384C499.47 204.064 500.942 204.272 501.678 204.272C503.47 204.272 505.15 202.992 505.15 200.208C505.15 197.696 503.886 196.192 501.998 196.192C500.926 196.192 500.11 196.656 499.662 197.536H499.598ZM501.678 202.672C500.43 202.672 500.366 201.216 500.366 200.208C500.366 199.216 500.43 197.792 501.678 197.792C502.926 197.792 502.99 199.216 502.99 200.208C502.99 201.216 502.926 202.672 501.678 202.672ZM513.46 200.048C513.46 197.04 511.748 195.824 509.988 195.824C508.228 195.824 506.516 197.04 506.516 200.048C506.516 203.056 508.228 204.272 509.988 204.272C511.748 204.272 513.46 203.056 513.46 200.048ZM509.988 202.672C508.74 202.672 508.676 201.264 508.676 200.048C508.676 198.832 508.772 197.424 509.988 197.424C511.204 197.424 511.3 198.832 511.3 200.048C511.3 201.28 511.22 202.672 509.988 202.672ZM519.469 197.696V203.776C519.469 203.952 519.517 204 519.693 204H521.277C521.485 204 521.501 203.952 521.501 203.776V196.32C521.501 196.144 521.453 196.096 521.277 196.096H516.365C516.157 196.096 516.141 196.144 516.141 196.32V197.04C516.141 197.984 516.109 200.432 515.933 201.28C515.773 202.112 515.405 202.384 514.861 202.512L514.589 202.576C514.493 202.592 514.317 202.608 514.381 202.848L514.701 204.032C514.733 204.144 514.765 204.272 515.037 204.272C515.421 204.272 516.877 204.176 517.533 202.544C518.029 201.28 518.077 198.816 518.077 197.904V197.696H519.469ZM526.449 204C527.297 204 528.369 203.968 529.121 203.36C529.873 202.768 529.969 201.936 529.969 201.36C529.969 200.688 529.809 200.016 529.185 199.488C528.465 198.88 527.569 198.848 526.673 198.848H525.777V196.032C525.777 195.792 525.649 195.808 525.521 195.84L524.273 196.096C523.729 196.208 523.745 196.224 523.745 196.432V203.776C523.745 203.984 523.793 204 523.969 204H526.449ZM525.777 200.448H526.753C527.089 200.448 527.937 200.464 527.937 201.424C527.937 202.352 527.169 202.4 526.577 202.4H525.777V200.448ZM537.633 202.4V196.032C537.633 195.792 537.505 195.808 537.377 195.84L535.905 196.144C535.585 196.208 535.601 196.288 535.601 196.432V202.4H533.761V196.032C533.761 195.792 533.633 195.808 533.505 195.84L532.241 196.096C531.697 196.208 531.729 196.256 531.729 196.432V203.776C531.729 203.952 531.745 204 531.953 204H541.281C541.489 204 541.505 203.952 541.505 203.776V196.032C541.505 195.792 541.377 195.808 541.249 195.84L539.777 196.144C539.457 196.208 539.473 196.288 539.473 196.432V202.4H537.633ZM549.617 200.592C549.825 200.592 549.985 200.576 549.985 200.08C549.985 199.664 549.969 199.072 549.809 198.4C549.521 197.152 548.801 195.824 546.785 195.824C544.545 195.824 543.281 197.728 543.281 200.256C543.281 201.36 543.505 204.272 546.929 204.272C547.825 204.272 548.881 204.032 549.473 203.632C549.601 203.552 549.729 203.44 549.729 203.28C549.729 203.232 549.713 203.2 549.681 203.136L549.281 202.192C549.249 202.112 549.201 202.064 549.105 202.064C549.009 202.064 548.865 202.128 548.673 202.224C548.369 202.368 547.809 202.592 547.073 202.592C545.745 202.592 545.313 201.76 545.313 200.592H549.617ZM545.313 199.104C545.409 198.016 545.761 197.312 546.673 197.312C547.313 197.312 547.633 197.68 547.761 198.288C547.793 198.416 547.841 198.672 547.825 199.104H545.313ZM559.767 197.696V203.776C559.767 203.952 559.815 204 559.991 204H561.575C561.783 204 561.799 203.952 561.799 203.776V196.32C561.799 196.112 561.751 196.096 561.575 196.096H555.703C555.527 196.096 555.479 196.112 555.479 196.32V203.776C555.479 203.952 555.495 204 555.703 204H557.287C557.495 204 557.511 203.952 557.511 203.776V197.696H559.767ZM566.17 203.856L566.234 203.888C566.394 203.968 566.826 204.272 567.834 204.272C570.714 204.272 570.778 201.184 570.778 199.984C570.778 196.48 569.21 195.824 567.962 195.824C567.322 195.824 566.634 196.032 565.962 196.656C565.914 196.512 565.882 196.368 565.818 196.224C565.642 195.744 565.482 195.792 565.226 195.872L564.01 196.272C563.93 196.304 563.834 196.352 563.834 196.448C563.834 196.496 563.85 196.544 563.898 196.704C564.01 197.04 564.138 197.568 564.138 198.944V207.152C564.138 207.456 564.266 207.408 564.394 207.376L565.866 207.072C566.186 207.008 566.17 206.928 566.17 206.784V203.856ZM566.17 198.032L566.234 197.968C566.49 197.712 566.89 197.424 567.402 197.424C568.714 197.424 568.746 198.96 568.746 199.936C568.746 201.184 568.682 201.648 568.49 202C568.186 202.576 567.69 202.672 567.322 202.672C567.098 202.672 566.634 202.656 566.17 202.368V198.032ZM572.636 203.776C572.636 203.984 572.684 204 572.86 204H574.444C574.652 204 574.668 203.92 574.748 203.776L576.268 200.96C576.476 200.576 576.716 200.24 577.276 199.008H577.34C577.276 200.08 577.26 200.432 577.26 200.736V203.776C577.26 203.984 577.308 204 577.484 204H579.068C579.276 204 579.292 203.952 579.292 203.776V196.032C579.292 195.792 579.164 195.808 579.036 195.84L577.756 196.096C577.484 196.144 577.404 196.112 577.212 196.432L575.66 199.136C575.356 199.664 575.084 200.144 574.652 201.088H574.588C574.62 200.688 574.668 199.808 574.668 199.36V196.032C574.668 195.792 574.54 195.808 574.412 195.84L572.94 196.144C572.62 196.208 572.636 196.288 572.636 196.432V203.776ZM581.686 197.76C581.702 197.792 581.75 197.872 581.846 197.872C581.926 197.872 582.006 197.808 582.262 197.664C582.438 197.568 582.886 197.312 583.51 197.312C584.166 197.312 584.55 197.68 584.55 198.208C584.55 199.12 583.734 199.184 583.19 199.184H582.822C582.646 199.184 582.598 199.232 582.598 199.408V200.448C582.598 200.624 582.646 200.672 582.822 200.672H583.174C583.67 200.672 584.678 200.672 584.678 201.632C584.678 202.048 584.486 202.784 583.414 202.784C582.822 202.784 582.438 202.656 581.91 202.368C581.702 202.256 581.574 202.176 581.462 202.176C581.366 202.176 581.318 202.224 581.286 202.304L580.934 203.136C580.918 203.184 580.886 203.248 580.886 203.312C580.886 203.552 581.174 203.68 581.43 203.808C581.99 204.096 582.854 204.272 583.558 204.272C585.382 204.272 586.71 203.328 586.71 201.664C586.71 200.64 586.118 200.048 585.414 199.856V199.808C586.15 199.536 586.534 198.864 586.534 198.032C586.534 197.296 586.182 196.8 585.83 196.48C585.174 195.888 584.342 195.824 583.782 195.824C582.582 195.824 581.846 196.16 581.51 196.352C581.398 196.416 581.11 196.592 581.11 196.8C581.11 196.848 581.126 196.896 581.158 196.944L581.686 197.76ZM594.991 200.048C594.991 197.04 593.279 195.824 591.519 195.824C589.759 195.824 588.047 197.04 588.047 200.048C588.047 203.056 589.759 204.272 591.519 204.272C593.279 204.272 594.991 203.056 594.991 200.048ZM591.519 202.672C590.271 202.672 590.207 201.264 590.207 200.048C590.207 198.832 590.303 197.424 591.519 197.424C592.735 197.424 592.831 198.832 592.831 200.048C592.831 201.28 592.751 202.672 591.519 202.672ZM599.576 204C600.536 204 601.464 203.984 602.232 203.472C602.92 203.024 603.096 202.32 603.096 201.76C603.096 200.656 602.424 199.984 601.56 199.808C602.376 199.552 602.84 198.864 602.84 198.048C602.84 197.264 602.424 196.768 602.056 196.512C601.432 196.096 600.392 196.096 599.464 196.096H597.016C596.808 196.096 596.792 196.144 596.792 196.32V203.776C596.792 203.984 596.84 204 597.016 204H599.576ZM598.824 197.584H599.624C600.12 197.584 600.808 197.632 600.808 198.352C600.808 198.624 600.696 199.216 599.672 199.216H598.824V197.584ZM598.824 200.656H599.88C600.168 200.656 601.064 200.672 601.064 201.568C601.064 202.416 600.296 202.512 599.704 202.512H598.824V200.656Z" fill="#85312C"/>
<defs>
<filter id="filter0_d" x="0.507324" y="35.2038" width="986.992" height="162.762" filterUnits="userSpaceOnUse" color-interpolation-filters="sRGB">
<feFlood flood-opacity="0" result="BackgroundImageFix"/>
<feColorMatrix in="SourceAlpha" type="matrix" values="0 0 0 0 0 0 0 0 0 0 0 0 0 0 0 0 0 0 127 0"/>
<feOffset/>
<feGaussianBlur stdDeviation="4"/>
<feColorMatrix type="matrix" values="0 0 0 0 0 0 0 0 0 0 0 0 0 0 0 0 0 0 0.45 0"/>
<feBlend mode="normal" in2="BackgroundImageFix" result="effect1_dropShadow"/>
<feBlend mode="normal" in="SourceGraphic" in2="effect1_dropShadow" result="shape"/>
</filter>
<filter id="filter1_d" x="93" y="145.578" width="618.965" height="87.37" filterUnits="userSpaceOnUse" color-interpolation-filters="sRGB">
<feFlood flood-opacity="0" result="BackgroundImageFix"/>
<feColorMatrix in="SourceAlpha" type="matrix" values="0 0 0 0 0 0 0 0 0 0 0 0 0 0 0 0 0 0 127 0"/>
<feOffset/>
<feGaussianBlur stdDeviation="4"/>
<feColorMatrix type="matrix" values="0 0 0 0 0 0 0 0 0 0 0 0 0 0 0 0 0 0 0.45 0"/>
<feBlend mode="normal" in2="BackgroundImageFix" result="effect1_dropShadow"/>
<feBlend mode="normal" in="SourceGraphic" in2="effect1_dropShadow" result="shape"/>
</filter>
<filter id="filter2_d" x="117.023" y="73.7749" width="787.486" height="90.2055" filterUnits="userSpaceOnUse" color-interpolation-filters="sRGB">
<feFlood flood-opacity="0" result="BackgroundImageFix"/>
<feColorMatrix in="SourceAlpha" type="matrix" values="0 0 0 0 0 0 0 0 0 0 0 0 0 0 0 0 0 0 127 0"/>
<feOffset/>
<feGaussianBlur stdDeviation="6.5"/>
<feColorMatrix type="matrix" values="0 0 0 0 0 0 0 0 0 0 0 0 0 0 0 0 0 0 0.6 0"/>
<feBlend mode="normal" in2="BackgroundImageFix" result="effect1_dropShadow"/>
<feBlend mode="normal" in="SourceGraphic" in2="effect1_dropShadow" result="shape"/>
</filter>
</defs>
</svg>
