<svg width="212" height="253" viewBox="0 0 212 253" fill="none" xmlns="http://www.w3.org/2000/svg">
<path d="M38.6528 11.2135L195.394 11.2135L152.937 242.944L69.642 242.944C41.471 225.097 27.9654 209.158 10.7155 163L38.6528 11.2135Z" fill="white"/>
<mask id="mask0" mask-type="alpha" maskUnits="userSpaceOnUse" x="0" y="0" width="212" height="253">
<path d="M38.6528 11.2137L195.394 11.2137L152.937 242.944L69.142 242.944L11.1421 161.5L38.6528 11.2137Z" fill="white"/>
</mask>
<g mask="url(#mask0)">
<rect x="-15.358" y="-8" width="219" height="82" fill="#F7D431"/>
</g>
<path d="M81.2739 28.0751C81.3101 27.8771 81.3823 27.6972 81.0763 27.6969L79.7263 27.6956C79.5283 27.6955 79.4743 27.7314 79.4381 27.9294L78.3715 32.8424L74.6455 32.8389L75.6579 28.0699C75.7122 27.8179 75.7843 27.692 75.4423 27.6917L74.0923 27.6904C73.8943 27.6902 73.8403 27.7262 73.8041 27.9241L71.3092 39.6578C71.255 39.9098 71.2548 40.0358 71.4888 40.036L72.8568 40.0373C73.0728 40.0375 73.1089 40.0015 73.145 39.8035L74.302 34.4226L78.028 34.4261L76.9252 39.663C76.889 39.843 76.8168 40.0409 77.1048 40.0412L78.4728 40.0425C78.6708 40.0427 78.7429 40.0067 78.779 39.8088L81.2739 28.0751ZM89.8935 39.7651L88.8245 27.9741C88.8067 27.7581 88.7527 27.704 88.5367 27.7038L87.2227 27.7026C87.0247 27.7024 86.9887 27.7204 86.9166 27.8823L80.8756 39.6667C80.7494 39.9186 80.7313 40.0446 81.0553 40.0449L82.4053 40.0461C82.5853 40.0463 82.6393 40.0283 82.7294 39.8664L84.3345 36.5739L87.7725 36.5771L87.9675 39.7813C87.9673 40.0153 88.0213 40.0513 88.2553 40.0516L89.6413 40.0528C89.8573 40.053 89.9113 39.9811 89.8935 39.7651ZM87.6298 35.137L84.9658 35.1345L86.6431 31.5901C86.9137 30.9963 87.094 30.6005 87.4188 29.8268C87.4182 30.4208 87.3997 30.9968 87.4351 31.5908L87.6298 35.137ZM100.545 30.415C100.547 28.147 99.0712 27.7136 97.2172 27.7119L94.5352 27.7094C94.3372 27.7092 94.2832 27.7451 94.247 27.9431L91.716 39.7668C91.6798 39.9647 91.7338 40.0548 91.9318 40.055L93.2638 40.0562C93.4798 40.0564 93.5158 40.0204 93.552 39.8225L94.5825 34.9634L95.6805 34.9644C96.9405 34.9656 97.7327 34.7863 98.5251 34.3191C99.7678 33.6002 100.543 32.107 100.545 30.415ZM98.6365 30.5932C98.6359 31.2952 98.4373 31.979 98.0768 32.4827C97.6082 33.1302 96.978 33.3816 95.772 33.3805L94.944 33.3798L95.8118 29.2586L96.9638 29.2596C98.1878 29.2608 98.6374 29.6212 98.6365 30.5932ZM109.868 31.1076C109.87 28.6956 108.791 27.4526 106.703 27.4507C104.705 27.4488 103.372 28.5276 102.488 30.2008C101.551 31.9639 100.937 34.4473 100.934 36.6613C100.932 39.1093 101.993 40.3343 104.135 40.3363C105.341 40.3374 106.35 39.8883 107.142 39.0071C108.926 37.0287 109.865 33.6816 109.868 31.1076ZM107.924 31.1418C107.922 33.1938 107.035 38.809 104.281 38.8064C103.291 38.8055 102.877 38.1931 102.878 36.6811C102.88 34.6471 103.804 28.978 106.522 28.9805C107.512 28.9814 107.925 29.6118 107.924 31.1418ZM120.857 28.0938C120.894 27.8778 120.948 27.7339 120.678 27.7336L114.954 27.7283C114.72 27.7281 114.684 27.8541 114.647 28.034L114.34 29.4377C114.051 30.7515 113.744 32.1912 113.238 33.7207C112.642 35.4842 111.939 36.9415 110.732 38.4884L110.174 38.4879C109.976 38.4877 109.832 38.5056 109.777 38.7755L108.91 42.8967C108.873 43.0767 108.981 43.1848 109.125 43.1849L110.421 43.1861C110.511 43.1862 110.691 43.1684 110.728 42.9524L111.324 40.073L117.714 40.0789L117.118 42.9043C117.081 43.0843 117.171 43.1924 117.333 43.1925L118.629 43.1937C118.809 43.1939 118.899 43.158 118.936 42.96L119.785 38.8928C119.84 38.6049 119.822 38.4968 119.534 38.4966L118.652 38.4958L120.857 28.0938ZM116.78 38.494L112.622 38.4902C113.451 37.2669 114.028 36.0975 114.533 34.8199C114.804 34.1542 115.309 32.7687 115.707 30.951L116.068 29.3134L118.75 29.3158L116.78 38.494ZM132.004 28.1221C132.041 27.9242 132.113 27.7442 131.807 27.744L130.457 27.7427C130.259 27.7425 130.205 27.7785 130.169 27.9764L129.102 32.8894L125.376 32.886L126.388 28.1169C126.443 27.865 126.515 27.739 126.173 27.7387L124.823 27.7375C124.625 27.7373 124.571 27.7732 124.535 27.9712L122.04 39.7049C121.985 39.9568 121.985 40.0828 122.219 40.0831L123.587 40.0843C123.803 40.0845 123.839 40.0486 123.875 39.8506L125.032 34.4697L128.758 34.4731L127.656 39.7101C127.619 39.8901 127.547 40.088 127.835 40.0883L129.203 40.0895C129.401 40.0897 129.473 40.0538 129.509 39.8558L132.004 28.1221ZM142.018 31.1374C142.02 28.7254 140.941 27.4824 138.853 27.4805C136.855 27.4786 135.522 28.5574 134.639 30.2306C133.701 31.9937 133.087 34.4771 133.085 36.6911C133.083 39.1391 134.143 40.3641 136.285 40.3661C137.491 40.3672 138.5 39.9182 139.293 39.0369C141.077 37.0586 142.016 33.7114 142.018 31.1374ZM140.074 31.1716C140.072 33.2236 139.185 38.8388 136.431 38.8362C135.441 38.8353 135.027 38.2229 135.029 36.7109C135.031 34.6769 135.954 29.0078 138.672 29.0103C139.662 29.0112 140.075 29.6416 140.074 31.1716ZM151.838 28.1585C151.946 27.9606 152 27.7627 151.694 27.7624L145.934 27.7571C145.736 27.7569 145.682 27.7928 145.646 27.9908L143.151 39.7245C143.097 39.9404 143.097 40.1024 143.331 40.1027L149.073 40.108C149.271 40.1082 149.325 40.0722 149.361 39.8742L149.56 38.8844C149.614 38.6505 149.686 38.5245 149.38 38.5243L145.294 38.5205L146.162 34.4713L149.492 34.4744C149.69 34.4745 149.744 34.4206 149.78 34.2226L149.979 33.2508C150.015 33.0708 150.069 32.8909 149.799 32.8906L146.487 32.8876L147.247 29.3423L151.009 29.3458C151.189 29.3459 151.261 29.328 151.333 29.1661L151.838 28.1585ZM64.4112 47.9154C64.4653 47.8075 64.4295 47.6815 64.2135 47.6813L58.5075 47.676C58.3095 47.6758 58.2734 47.7297 58.2372 47.9097L55.7063 59.7154C55.6701 59.9133 55.76 60.0214 55.922 60.0216L57.272 60.0228C57.38 60.0229 57.506 60.005 57.5422 59.8431L59.802 49.2612L63.618 49.2647C63.672 49.2648 63.744 49.2468 63.7801 49.1749L64.4112 47.9154ZM72.2231 51.0727C72.2254 48.6607 71.1465 47.4177 69.0585 47.4157C67.0605 47.4139 65.7275 48.4927 64.844 50.1658C63.9063 51.929 63.292 54.4124 63.29 56.6264C63.2877 59.0744 64.3486 60.2994 66.4906 60.3014C67.6966 60.3025 68.705 59.8534 69.4978 58.9722C71.2816 56.9938 72.2207 53.6467 72.2231 51.0727ZM70.2791 51.1069C70.2772 53.1589 69.39 58.7741 66.636 58.7715C65.646 58.7706 65.2326 58.1582 65.234 56.6462C65.2358 54.6122 66.1591 48.9431 68.8771 48.9456C69.8671 48.9465 70.2805 49.5769 70.2791 51.1069ZM83.2308 48.0589C83.267 47.8609 83.3032 47.699 83.0332 47.6987L77.2552 47.6934C77.0392 47.6932 76.9851 47.7651 76.9489 47.9271L76.3524 50.6445C76.0451 52.0302 75.8464 52.84 75.431 54.3157C74.8712 56.2411 74.3842 57.3567 73.7536 57.9501C73.4834 58.2019 73.0151 58.5434 72.277 58.6147L72.079 58.6326C71.935 58.6504 71.8089 58.7223 71.8087 58.9743L71.8437 60.0723C71.8435 60.2703 71.9155 60.3064 72.1675 60.3066C73.2295 60.3076 74.1479 59.8765 74.8505 59.1931C76.0396 58.0062 76.6895 55.9548 77.1409 54.4072C77.466 53.2735 77.7188 52.3558 77.8996 51.564L78.4237 49.2784L81.1057 49.2809L78.882 59.7549C78.8278 59.9708 78.9537 60.0429 79.0977 60.0431L80.4837 60.0444C80.6817 60.0445 80.6638 59.9545 80.6999 59.8106L83.2308 48.0589ZM93.1235 51.0921C93.1258 48.6801 92.0469 47.4371 89.9589 47.4351C87.9609 47.4333 86.6279 48.512 85.7444 50.1852C84.8067 51.9484 84.1924 54.4318 84.1904 56.6458C84.1881 59.0938 85.249 60.3188 87.391 60.3208C88.597 60.3219 89.6054 59.8728 90.3982 58.9916C92.182 57.0132 93.1211 53.6661 93.1235 51.0921ZM91.1795 51.1263C91.1776 53.1783 90.2904 58.7935 87.5364 58.7909C86.5464 58.79 86.1329 58.1776 86.1343 56.6656C86.1362 54.6316 87.0595 48.9624 89.7775 48.965C90.7675 48.9659 91.1809 49.5963 91.1795 51.1263ZM102.744 48.869C102.889 48.6351 102.871 48.5451 102.619 48.3469C101.864 47.7342 101.09 47.4455 100.136 47.4446C96.0318 47.4408 94.4425 53.1453 94.4395 56.3853C94.4376 58.4733 95.2098 60.328 97.5318 60.3302C98.5218 60.3311 99.5301 60.026 100.503 59.4149C100.773 59.2352 100.845 59.1812 100.755 58.9652L100.432 58.1549C100.342 57.9208 100.216 57.9207 99.982 58.0284C99.3157 58.3518 98.8834 58.6754 98.0914 58.6747C97.0114 58.6737 96.4541 57.9172 96.4554 56.4412C96.4572 54.5512 97.3083 49.026 99.9903 49.0284C100.566 49.029 101.052 49.2454 101.664 49.75C101.808 49.8581 101.987 50.0203 102.132 49.8044L102.744 48.869ZM111.51 51.1091C111.512 48.6971 110.434 47.4541 108.346 47.4522C106.348 47.4503 105.015 48.5291 104.131 50.2023C103.193 51.9654 102.579 54.4488 102.577 56.6628C102.575 59.1108 103.636 60.3358 105.778 60.3378C106.984 60.3389 107.992 59.8899 108.785 59.0086C110.569 57.0303 111.508 53.6831 111.51 51.1091ZM109.566 51.1433C109.564 53.1953 108.677 58.8105 105.923 58.808C104.933 58.807 104.52 58.1947 104.521 56.6827C104.523 54.6487 105.446 48.9795 108.164 48.982C109.154 48.9829 109.568 49.6133 109.566 51.1433ZM121.472 50.2184C121.473 49.4624 121.257 48.8862 120.808 48.4718C120.25 47.9492 119.422 47.7325 117.91 47.7311L115.426 47.7288C115.228 47.7286 115.174 47.7645 115.138 47.9625L112.643 59.6962C112.589 59.9121 112.589 60.0741 112.877 60.0744L115.505 60.0768C117.215 60.0784 117.755 59.9889 118.565 59.5937C119.79 59.0008 120.655 57.5616 120.656 56.1036C120.658 54.8796 120.118 54.0511 119.003 53.6181C120.569 53.0075 121.471 51.7484 121.472 50.2184ZM119.51 50.4866C119.508 51.9626 118.535 53.0417 117.059 53.0403L115.907 53.0392L116.739 49.242L118.035 49.2432C119.061 49.2441 119.511 49.6046 119.51 50.4866ZM118.695 56.0118C118.693 57.7578 117.594 58.5668 116.1 58.5654L114.75 58.5641L115.6 54.5509L116.788 54.552C118.138 54.5533 118.696 54.9858 118.695 56.0118ZM130.384 59.8026L129.315 48.0117C129.297 47.7956 129.243 47.7416 129.027 47.7414L127.713 47.7402C127.515 47.74 127.479 47.7579 127.407 47.9199L121.366 59.7043C121.24 59.9562 121.221 60.0821 121.545 60.0824L122.895 60.0837C123.075 60.0839 123.129 60.0659 123.22 59.904L124.825 56.6115L128.263 56.6147L128.458 59.8189C128.458 60.0529 128.511 60.0889 128.745 60.0891L130.131 60.0904C130.347 60.0906 130.402 60.0187 130.384 59.8026ZM128.12 55.1745L125.456 55.1721L127.133 51.6276C127.404 51.0339 127.584 50.638 127.909 49.8643C127.908 50.4583 127.89 51.0343 127.925 51.6284L128.12 55.1745ZM142.225 48.1316C142.261 47.9337 142.333 47.7537 142.027 47.7534L140.677 47.7522C140.479 47.752 140.425 47.788 140.389 47.9859L139.323 52.8989L135.597 52.8955L136.609 48.1264C136.663 47.8745 136.735 47.7485 136.393 47.7482L135.043 47.747C134.845 47.7468 134.791 47.7827 134.755 47.9807L132.26 59.7144C132.206 59.9663 132.206 60.0923 132.44 60.0926L133.808 60.0938C134.024 60.094 134.06 60.0581 134.096 59.8601L135.253 54.4792L138.979 54.4826L137.876 59.7196C137.84 59.8996 137.768 60.0975 138.056 60.0978L139.424 60.099C139.622 60.0992 139.694 60.0633 139.73 59.8653L142.225 48.1316ZM151.918 47.7626C151.738 47.7625 151.702 47.8344 151.63 47.9244L146.799 54.7779C146.475 55.2276 145.916 56.1811 145.573 56.8107L145.519 56.8107C145.682 56.2888 145.935 55.4251 146.061 54.7952L147.508 48.0465C147.562 47.7946 147.418 47.7584 147.328 47.7584L145.87 47.757C145.69 47.7568 145.654 47.8288 145.618 47.9728L143.105 59.8325C143.05 60.0484 143.176 60.1025 143.266 60.1026L144.688 60.1039C144.814 60.104 144.904 60.1041 145.013 59.9602L150.095 52.6929C150.528 52.0813 150.798 51.7396 151.213 50.858L151.267 50.858C151.05 51.4518 150.924 51.9377 150.779 52.6036L149.243 59.8381C149.225 59.9281 149.188 60.1081 149.386 60.1083L150.898 60.1097C151.006 60.1098 151.096 60.0199 151.115 59.9299L153.646 48.1242C153.682 47.9263 153.718 47.7643 153.448 47.764L151.918 47.7626ZM163.148 48.169C163.256 47.9711 163.311 47.7732 163.005 47.7729L157.245 47.7676C157.047 47.7674 156.993 47.8033 156.956 48.0013L154.461 59.735C154.407 59.9509 154.407 60.1129 154.641 60.1132L160.383 60.1185C160.581 60.1187 160.635 60.0827 160.671 59.8847L160.87 58.8949C160.924 58.661 160.997 58.535 160.691 58.5348L156.605 58.531L157.472 54.4818L160.802 54.4849C161 54.4851 161.054 54.4311 161.091 54.2331L161.29 53.2613C161.326 53.0814 161.38 52.9014 161.11 52.9012L157.798 52.8981L158.557 49.3528L162.319 49.3563C162.499 49.3564 162.571 49.3385 162.643 49.1766L163.148 48.169Z" fill="#DD1010"/>
<path d="M8.64203 164L46.1664 150.351C46.1664 150.351 30.2636 220.941 71.776 243.908C8.45178 215.312 8.64203 164 8.64203 164Z" fill="#D8D8D8"/>
<path d="M73.0859 92.825L71.9519 98.117C71.8889 98.39 71.8469 98.684 71.8469 98.999C71.8469 101.078 73.8629 101.897 75.2279 101.897C75.8579 101.897 76.8239 101.813 77.8319 101.33L76.6769 106.664C76.6559 106.706 76.6559 106.769 76.6559 106.811C76.6559 106.916 76.6979 107 76.8659 107H79.7639C79.9529 107 79.9949 106.79 80.0159 106.706L82.9769 92.762C82.9769 92.678 82.9559 92.594 82.7879 92.594H79.8479C79.7429 92.594 79.6799 92.657 79.6589 92.741L78.3359 98.831C77.6429 99.146 77.2229 99.251 76.6769 99.251C76.1309 99.251 75.3539 99.062 75.3539 98.159C75.3539 97.907 75.3959 97.634 75.4589 97.361L76.4039 92.888C76.4039 92.867 76.4249 92.804 76.4249 92.762C76.4249 92.678 76.3829 92.594 76.2359 92.594H73.3169C73.1699 92.594 73.1279 92.636 73.0859 92.825ZM94.1065 93.077C94.1695 92.951 94.1905 92.846 94.1905 92.762C94.1905 92.636 94.1065 92.594 93.8965 92.594H86.1895C85.9165 92.594 85.8955 92.636 85.8325 92.888L82.9345 106.496C82.9135 106.601 82.8925 106.685 82.8925 106.748C82.8925 106.916 82.9765 107 83.1865 107H90.7255C90.9985 107 91.0405 106.958 91.1035 106.685L91.5025 104.711C91.5235 104.606 91.5445 104.522 91.5445 104.459C91.5445 104.333 91.4815 104.291 91.2715 104.291H86.7565L87.4915 100.847H91.1245C91.3975 100.847 91.4185 100.805 91.4815 100.553L91.9225 98.516C91.9435 98.432 91.9645 98.369 91.9645 98.306C91.9645 98.18 91.9015 98.138 91.6915 98.138H88.0795L88.6675 95.303H92.8045C93.0355 95.303 93.1405 95.261 93.2245 95.072L94.1065 93.077ZM104.467 95.996C104.467 93.77 103.039 92.594 99.7214 92.594H96.4034C96.1304 92.594 96.1094 92.636 96.0464 92.888L93.1274 106.58C93.1064 106.685 93.0854 106.769 93.0854 106.832C93.0854 106.958 93.1484 107 93.3584 107H96.0884C96.3614 107 96.3824 106.958 96.4454 106.706L97.5794 101.414H98.3564C102.136 101.414 104.467 99.377 104.467 95.996ZM101.17 96.311C101.17 97.571 100.456 98.768 98.6504 98.768H98.1464L98.9234 95.156H99.5744C100.771 95.156 101.17 95.471 101.17 96.311ZM115.312 93.077C115.375 92.951 115.396 92.846 115.396 92.762C115.396 92.636 115.312 92.594 115.102 92.594H107.395C107.122 92.594 107.101 92.636 107.038 92.888L104.14 106.496C104.119 106.601 104.098 106.685 104.098 106.748C104.098 106.916 104.182 107 104.392 107H111.931C112.204 107 112.246 106.958 112.309 106.685L112.708 104.711C112.729 104.606 112.75 104.522 112.75 104.459C112.75 104.333 112.687 104.291 112.477 104.291H107.962L108.697 100.847H112.33C112.603 100.847 112.624 100.805 112.687 100.553L113.128 98.516C113.149 98.432 113.17 98.369 113.17 98.306C113.17 98.18 113.107 98.138 112.897 98.138H109.285L109.873 95.303H114.01C114.241 95.303 114.346 95.261 114.43 95.072L115.312 93.077ZM116.999 100.532V100.574C116.999 100.7 117.062 100.868 117.209 100.868H117.944C119.351 100.868 120.044 101.456 120.044 102.401C120.044 102.842 119.96 103.493 119.414 104.039C118.847 104.585 118.154 104.669 117.671 104.669C117.167 104.669 116.369 104.564 115.34 103.934L115.004 103.724C114.941 103.682 114.836 103.619 114.731 103.619C114.647 103.619 114.563 103.661 114.5 103.787L113.66 105.53C113.618 105.614 113.597 105.677 113.597 105.74C113.597 106.559 116.243 107.357 118.175 107.357C119.057 107.357 121.031 107.252 122.375 105.824C123.383 104.753 123.53 103.514 123.53 102.674C123.53 101.561 123.173 100.238 121.661 99.671C122.669 99.398 123.257 98.852 123.404 98.705C123.95 98.159 124.412 97.34 124.412 96.08C124.412 94.568 123.593 92.237 119.897 92.237C118.259 92.237 115.697 92.909 115.697 93.896C115.697 93.938 115.718 94.001 115.739 94.064L116.474 95.681C116.516 95.786 116.621 95.828 116.726 95.828C116.81 95.828 116.936 95.807 117.02 95.744L117.314 95.576C117.902 95.24 118.427 94.925 119.246 94.925C120.275 94.925 120.968 95.429 120.968 96.416C120.968 98.117 119.246 98.201 118.511 98.201H117.86C117.503 98.201 117.482 98.327 117.419 98.621L116.999 100.532Z" fill="#E30613"/>
<path d="M71.6942 218L71.0432 221.066C71.0222 221.108 71.0222 221.171 71.0222 221.234C71.0222 221.339 71.0642 221.423 71.2322 221.423H73.6472C73.9202 221.423 73.9412 221.234 73.9832 221.066L75.0962 215.795C75.1172 215.732 75.1172 215.669 75.1172 215.606C75.1172 215.459 75.0542 215.312 74.8022 215.312H73.7942L76.2092 203.825C76.2092 203.657 76.1252 203.594 75.9362 203.594H68.2922C68.0612 203.594 68.0192 203.657 67.9772 203.867L67.4942 206.114C66.8222 209.264 66.3182 210.734 66.1292 211.28C65.6252 212.708 64.9322 214.031 63.9662 215.312H63.0212C62.7902 215.312 62.7272 215.48 62.7062 215.564L61.5302 221.087C61.5302 221.129 61.5092 221.171 61.5092 221.213C61.5092 221.318 61.5512 221.423 61.7192 221.423H64.1552C64.3652 221.423 64.4282 221.318 64.4702 221.15L65.1422 218H71.6942ZM70.4972 206.282H72.4082L70.4762 215.312H67.2422C68.7752 213.107 69.5102 210.65 70.0982 208.067L70.4972 206.282ZM89.5472 203.972C89.5682 203.888 89.5892 203.825 89.5892 203.762C89.5892 203.636 89.5052 203.594 89.2532 203.594H86.5862C86.3132 203.594 86.2922 203.636 86.2292 203.888L85.0952 209.18H81.8612L82.9532 203.993C82.9742 203.888 82.9952 203.804 82.9952 203.741C82.9952 203.615 82.9322 203.594 82.7012 203.594H79.9922C79.7192 203.594 79.6982 203.636 79.6352 203.888L76.7162 217.58C76.6952 217.664 76.6742 217.748 76.6742 217.811C76.6742 217.937 76.7372 218 76.9472 218H79.6772C79.9502 218 79.9712 217.958 80.0342 217.706L81.2732 211.931H84.5072L83.3102 217.622C83.2892 217.685 83.2892 217.769 83.2892 217.811C83.2892 217.937 83.3522 218 83.5622 218H86.2502C86.5232 218 86.5652 217.958 86.6282 217.706L89.5472 203.972ZM100.746 204.077C100.809 203.951 100.83 203.846 100.83 203.762C100.83 203.636 100.746 203.594 100.536 203.594H92.8291C92.5561 203.594 92.5351 203.636 92.4721 203.888L89.5741 217.496C89.5531 217.601 89.5321 217.685 89.5321 217.748C89.5321 217.916 89.6161 218 89.8261 218H97.3651C97.6381 218 97.6801 217.958 97.7431 217.685L98.1421 215.711C98.1631 215.606 98.1841 215.522 98.1841 215.459C98.1841 215.333 98.1211 215.291 97.9111 215.291H93.3961L94.1311 211.847H97.7641C98.0371 211.847 98.0581 211.805 98.1211 211.553L98.5621 209.516C98.5831 209.432 98.6041 209.369 98.6041 209.306C98.6041 209.18 98.5411 209.138 98.3311 209.138H94.7191L95.3071 206.303H99.4441C99.6751 206.303 99.7801 206.261 99.8641 206.072L100.746 204.077ZM105.08 199.268C104.954 199.289 104.744 199.352 104.744 199.709V199.835C104.744 201.935 106.76 202.607 108.041 202.607C109.238 202.607 111.527 202.145 112.136 199.709L112.157 199.562C112.157 199.415 112.052 199.31 111.947 199.289L110.036 199.037C109.868 199.037 109.805 199.163 109.763 199.247L109.679 199.436C109.343 200.297 108.755 200.591 108.146 200.591C107.327 200.591 107.201 199.94 107.201 199.436V199.352C107.201 199.121 107.054 199.058 106.886 199.058C106.802 199.058 106.718 199.058 106.634 199.079L105.08 199.268ZM110.162 203.594H110.057C109.91 203.594 109.805 203.615 109.679 203.762L105.794 209.243C105.29 209.957 105.017 210.272 104.198 211.532H104.093C104.198 211.175 104.66 209.558 104.786 208.949L105.878 203.846C105.899 203.804 105.899 203.762 105.899 203.72C105.899 203.636 105.857 203.594 105.71 203.594H102.854C102.77 203.594 102.665 203.657 102.623 203.825L99.683 217.601C99.683 217.643 99.662 217.685 99.662 217.748C99.662 217.874 99.704 218 99.914 218H102.455C102.644 218 102.791 218 102.938 217.79L107.033 211.994C107.579 211.217 107.936 210.734 108.566 209.684H108.671C108.398 210.755 108.251 211.301 108.146 211.742L106.844 217.748C106.844 217.79 106.823 217.811 106.823 217.832C106.823 217.958 106.907 218 107.054 218H109.847C109.973 218 110.057 217.979 110.099 217.811L113.06 203.93C113.06 203.888 113.081 203.846 113.081 203.804C113.081 203.636 112.955 203.594 112.808 203.594H110.162ZM120.071 204.056C120.092 203.951 120.134 203.867 120.134 203.804C120.134 203.678 120.05 203.594 119.756 203.594H116.858C116.564 203.594 116.522 203.636 116.48 203.972L115.178 212.414C115.157 212.498 115.157 212.603 115.157 212.666C115.157 212.834 115.22 212.918 115.493 212.918H117.383C117.656 212.918 117.698 212.876 117.761 212.624L120.071 204.056ZM117.887 216.467C117.887 215.354 116.963 214.43 115.85 214.43C114.716 214.43 113.813 215.333 113.813 216.467C113.813 217.58 114.737 218.504 115.85 218.504C116.963 218.504 117.887 217.58 117.887 216.467Z" fill="#E30613"/>
</svg>
