<svg width="320" height="208" viewBox="0 0 320 208" fill="none" xmlns="http://www.w3.org/2000/svg">
<g filter="url(#filter0_d)">
<path d="M42.3473 129.783L274.383 109.864L274.267 193.463L42.3473 193.463L42.3473 129.783Z" fill="white"/>
</g>
<path d="M63.3214 141.09H65.0854C65.1974 141.09 65.3234 141.062 65.3794 140.866L65.6874 139.704C65.7154 139.606 65.7854 139.41 65.5054 139.41H59.5554C59.3454 139.41 59.3454 139.564 59.3454 139.62V140.88C59.3454 140.936 59.3454 141.09 59.5554 141.09H61.4174V148.72C61.4174 148.846 61.4454 149 61.6974 149H63.0414C63.1674 149 63.3214 148.972 63.3214 148.72V141.09ZM67.6037 148.874L67.6597 148.902C67.7997 148.972 68.1777 149.238 69.0597 149.238C71.5797 149.238 71.6357 146.536 71.6357 145.486C71.6357 142.42 70.2637 141.846 69.1717 141.846C68.6117 141.846 68.0097 142.028 67.4217 142.574C67.3797 142.448 67.3517 142.322 67.2957 142.196C67.1417 141.776 67.0017 141.818 66.7777 141.888L65.7137 142.238C65.6437 142.266 65.5597 142.308 65.5597 142.392C65.5597 142.434 65.5737 142.476 65.6157 142.616C65.7137 142.91 65.8257 143.372 65.8257 144.576V151.758C65.8257 152.024 65.9377 151.982 66.0497 151.954L67.3377 151.688C67.6177 151.632 67.6037 151.562 67.6037 151.436V148.874ZM67.6037 143.778L67.6597 143.722C67.8837 143.498 68.2337 143.246 68.6817 143.246C69.8297 143.246 69.8577 144.59 69.8577 145.444C69.8577 146.536 69.8017 146.942 69.6337 147.25C69.3677 147.754 68.9337 147.838 68.6117 147.838C68.4157 147.838 68.0097 147.824 67.6037 147.572V143.778ZM78.3573 148.748C78.3993 148.734 78.4693 148.692 78.4693 148.608C78.4693 148.538 78.4133 148.44 78.3153 148.188C78.1053 147.656 78.1053 147.208 78.1053 146.802V144.1C78.1053 143.848 78.0773 143.218 77.7973 142.742C77.3773 142.028 76.5653 141.846 75.6973 141.846C75.1233 141.846 74.1292 141.958 73.5553 142.224C73.1913 142.392 73.1913 142.448 73.2613 142.644L73.5553 143.526C73.5833 143.624 73.6113 143.666 73.6953 143.666C73.7933 143.666 73.8913 143.596 74.3673 143.442C74.7173 143.33 75.1373 143.246 75.5013 143.246C75.8933 143.246 76.1313 143.372 76.2573 143.526C76.4393 143.75 76.4253 144.086 76.4253 144.282V144.716C75.6273 144.688 74.3113 144.8 73.6253 145.29C73.3313 145.5 72.7713 146.032 72.7713 147.11C72.7713 148.398 73.5833 149.238 74.8433 149.238C75.7673 149.238 76.2713 148.818 76.6353 148.454L76.6913 148.398C76.7333 148.622 76.8033 148.818 76.9293 149.07C77.0413 149.28 77.1253 149.252 77.2233 149.21L78.3573 148.748ZM76.4253 147.404C76.1173 147.74 75.7393 147.936 75.3753 147.936C74.8713 147.936 74.4513 147.558 74.4513 146.984C74.4513 146.158 75.2213 145.864 76.3413 145.864H76.4253V147.404ZM82.417 143.484H83.957C84.027 143.484 84.125 143.456 84.167 143.288L84.363 142.364C84.391 142.224 84.447 142.084 84.153 142.084H79.043C78.889 142.084 78.847 142.126 78.847 142.28V143.288C78.847 143.442 78.889 143.484 79.043 143.484H80.639V148.804C80.639 148.986 80.681 149 80.835 149H82.221C82.403 149 82.417 148.958 82.417 148.804V143.484ZM87.6995 149C88.4415 149 89.3795 148.972 90.0375 148.44C90.6955 147.922 90.7795 147.194 90.7795 146.69C90.7795 146.102 90.6395 145.514 90.0935 145.052C89.4635 144.52 88.6795 144.492 87.8955 144.492H87.1115V142.028C87.1115 141.818 86.9995 141.832 86.8875 141.86L85.7955 142.084C85.3195 142.182 85.3335 142.196 85.3335 142.378V148.804C85.3335 148.986 85.3755 149 85.5295 149H87.6995ZM87.1115 145.892H87.9655C88.2595 145.892 89.0015 145.906 89.0015 146.746C89.0015 147.558 88.3295 147.6 87.8115 147.6H87.1115V145.892ZM100.389 142.826C100.417 142.784 100.431 142.756 100.431 142.7C100.431 142.616 100.375 142.49 100.123 142.322C99.7454 142.084 99.1854 141.846 98.4294 141.846C96.7494 141.846 95.1814 142.91 95.1814 145.696C95.1814 148.37 96.7074 149.238 98.3174 149.238C98.8634 149.238 99.4514 149.112 99.9134 148.86C100.123 148.748 100.263 148.608 100.263 148.496C100.263 148.454 100.235 148.384 100.221 148.356L99.8574 147.432C99.8434 147.39 99.7874 147.362 99.7594 147.362C99.6614 147.362 99.5074 147.488 99.3394 147.586C99.0874 147.74 98.8214 147.838 98.4574 147.838C97.8554 147.838 97.5194 147.516 97.3374 147.208C97.1834 146.942 97.0714 146.508 97.0714 145.654C97.0714 144.548 97.2674 144.086 97.3514 143.904C97.5474 143.512 97.8834 143.246 98.4294 143.246C98.7934 143.246 99.0734 143.358 99.3674 143.554C99.5774 143.694 99.6894 143.806 99.7734 143.806C99.8294 143.806 99.8574 143.764 99.8714 143.736L100.389 142.826ZM104.203 149C105.043 149 105.855 148.986 106.527 148.538C107.129 148.146 107.283 147.53 107.283 147.04C107.283 146.074 106.695 145.486 105.939 145.332C106.653 145.108 107.059 144.506 107.059 143.792C107.059 143.106 106.695 142.672 106.373 142.448C105.827 142.084 104.917 142.084 104.105 142.084H101.963C101.781 142.084 101.767 142.126 101.767 142.28V148.804C101.767 148.986 101.809 149 101.963 149H104.203ZM103.545 143.386H104.245C104.679 143.386 105.281 143.428 105.281 144.058C105.281 144.296 105.183 144.814 104.287 144.814H103.545V143.386ZM103.545 146.074H104.469C104.721 146.074 105.505 146.088 105.505 146.872C105.505 147.614 104.833 147.698 104.315 147.698H103.545V146.074ZM114.711 145.542C114.711 142.91 113.213 141.846 111.673 141.846C110.133 141.846 108.635 142.91 108.635 145.542C108.635 148.174 110.133 149.238 111.673 149.238C113.213 149.238 114.711 148.174 114.711 145.542ZM111.673 147.838C110.581 147.838 110.525 146.606 110.525 145.542C110.525 144.478 110.609 143.246 111.673 143.246C112.737 143.246 112.821 144.478 112.821 145.542C112.821 146.62 112.751 147.838 111.673 147.838ZM116.287 148.804C116.287 148.986 116.329 149 116.483 149H117.869C118.051 149 118.065 148.93 118.135 148.804L119.465 146.34C119.647 146.004 119.857 145.71 120.347 144.632H120.403C120.347 145.57 120.333 145.878 120.333 146.144V148.804C120.333 148.986 120.375 149 120.529 149H121.915C122.097 149 122.111 148.958 122.111 148.804V142.028C122.111 141.818 121.999 141.832 121.887 141.86L120.767 142.084C120.529 142.126 120.459 142.098 120.291 142.378L118.933 144.744C118.667 145.206 118.429 145.626 118.051 146.452H117.995C118.023 146.102 118.065 145.332 118.065 144.94V142.028C118.065 141.818 117.953 141.832 117.841 141.86L116.553 142.126C116.273 142.182 116.287 142.252 116.287 142.378V148.804ZM129.658 139.41C129.476 139.41 129.462 139.494 129.42 139.62L126.634 148.72C126.606 148.804 126.55 149 126.844 149H128.342C128.524 149 128.538 148.93 128.594 148.706L129.168 146.438H131.576L132.192 148.706C132.276 148.986 132.318 149 132.486 149H134.04C134.11 149 134.264 148.986 134.264 148.832C134.264 148.762 134.236 148.72 134.222 148.664L131.478 139.634C131.436 139.494 131.408 139.41 131.268 139.41H129.658ZM131.226 145.178H129.378L129.994 142.77C130.246 141.804 130.288 141.286 130.302 140.908H130.344C130.456 141.874 130.554 142.35 130.652 142.77L131.226 145.178ZM139.178 143.484V148.804C139.178 148.958 139.22 149 139.374 149H140.76C140.942 149 140.956 148.958 140.956 148.804V142.28C140.956 142.126 140.914 142.084 140.76 142.084H136.462C136.28 142.084 136.266 142.126 136.266 142.28V142.91C136.266 143.736 136.238 145.878 136.084 146.62C135.944 147.348 135.622 147.586 135.146 147.698L134.908 147.754C134.824 147.768 134.67 147.782 134.726 147.992L135.006 149.028C135.034 149.126 135.062 149.238 135.3 149.238C135.636 149.238 136.91 149.154 137.484 147.726C137.918 146.62 137.96 144.464 137.96 143.666V143.484H139.178ZM145.285 149C146.027 149 146.965 148.972 147.623 148.44C148.281 147.922 148.365 147.194 148.365 146.69C148.365 146.102 148.225 145.514 147.679 145.052C147.049 144.52 146.265 144.492 145.481 144.492H144.697V142.028C144.697 141.818 144.585 141.832 144.473 141.86L143.381 142.084C142.905 142.182 142.919 142.196 142.919 142.378V148.804C142.919 148.986 142.961 149 143.115 149H145.285ZM144.697 145.892H145.551C145.845 145.892 146.587 145.906 146.587 146.746C146.587 147.558 145.915 147.6 145.397 147.6H144.697V145.892ZM153.658 143.484V148.804C153.658 148.958 153.7 149 153.854 149H155.24C155.422 149 155.436 148.958 155.436 148.804V142.28C155.436 142.098 155.394 142.084 155.24 142.084H150.102C149.948 142.084 149.906 142.098 149.906 142.28V148.804C149.906 148.958 149.92 149 150.102 149H151.488C151.67 149 151.684 148.958 151.684 148.804V143.484H153.658ZM162.536 146.018C162.718 146.018 162.858 146.004 162.858 145.57C162.858 145.206 162.844 144.688 162.704 144.1C162.452 143.008 161.822 141.846 160.058 141.846C158.098 141.846 156.992 143.512 156.992 145.724C156.992 146.69 157.188 149.238 160.184 149.238C160.968 149.238 161.892 149.028 162.41 148.678C162.522 148.608 162.634 148.51 162.634 148.37C162.634 148.328 162.62 148.3 162.592 148.244L162.242 147.418C162.214 147.348 162.172 147.306 162.088 147.306C162.004 147.306 161.878 147.362 161.71 147.446C161.444 147.572 160.954 147.768 160.31 147.768C159.148 147.768 158.77 147.04 158.77 146.018H162.536ZM158.77 144.716C158.854 143.764 159.162 143.148 159.96 143.148C160.52 143.148 160.8 143.47 160.912 144.002C160.94 144.114 160.982 144.338 160.968 144.716H158.77ZM168.192 144.674H166.176V142.028C166.176 141.818 166.064 141.832 165.952 141.86L164.846 142.084C164.37 142.182 164.398 142.224 164.398 142.378V148.804C164.398 148.958 164.44 149 164.594 149H165.98C166.162 149 166.176 148.958 166.176 148.804V146.074H168.192V148.804C168.192 148.986 168.234 149 168.388 149H169.774C169.956 149 169.97 148.958 169.97 148.804V142.028C169.97 141.818 169.858 141.832 169.746 141.86L168.458 142.126C168.178 142.182 168.192 142.252 168.192 142.378V144.674ZM175.543 144.912C175.543 144.772 175.585 144.618 175.249 144.618H171.833C171.497 144.618 171.539 144.772 171.539 144.912V145.934C171.539 146.074 171.497 146.228 171.833 146.228H175.249C175.585 146.228 175.543 146.074 175.543 145.934V144.912ZM178.639 149C178.891 149 178.891 148.902 178.891 148.804V146.102H179.465C180.109 146.102 180.193 146.41 180.277 146.788L180.543 147.95C180.641 148.37 180.795 148.706 181.131 148.93C181.495 149.182 182.153 149.238 182.419 149.238C182.727 149.238 182.755 149.126 182.783 149.028L183.035 148.132C183.105 147.866 182.979 147.838 182.881 147.824L182.573 147.768C182.265 147.712 182.209 147.572 182.097 147.236L181.831 146.466C181.677 146.032 181.537 145.528 180.865 145.388V145.346C181.453 145.234 181.635 144.758 181.719 144.464L181.873 143.918C182.027 143.358 182.167 143.33 182.447 143.274L182.657 143.232C182.797 143.204 182.867 143.106 182.839 143.008L182.559 141.986C182.531 141.902 182.503 141.846 182.307 141.846C182.055 141.846 181.411 141.93 181.019 142.28C180.683 142.574 180.557 142.98 180.501 143.218L180.319 144.016C180.235 144.394 180.151 144.702 179.507 144.702H178.891V142.028C178.891 141.818 178.779 141.832 178.667 141.86L177.575 142.084C177.099 142.182 177.113 142.196 177.113 142.378V148.804C177.113 148.902 177.113 149 177.365 149H178.639ZM189.893 145.542C189.893 142.91 188.395 141.846 186.855 141.846C185.315 141.846 183.817 142.91 183.817 145.542C183.817 148.174 185.315 149.238 186.855 149.238C188.395 149.238 189.893 148.174 189.893 145.542ZM186.855 147.838C185.763 147.838 185.707 146.606 185.707 145.542C185.707 144.478 185.791 143.246 186.855 143.246C187.919 143.246 188.003 144.478 188.003 145.542C188.003 146.62 187.933 147.838 186.855 147.838ZM191.468 148.804C191.468 148.986 191.51 149 191.664 149H193.05C193.232 149 193.246 148.93 193.316 148.804L194.646 146.34C194.828 146.004 195.038 145.71 195.528 144.632H195.584C195.528 145.57 195.514 145.878 195.514 146.144V148.804C195.514 148.986 195.556 149 195.71 149H197.096C197.278 149 197.292 148.958 197.292 148.804V142.028C197.292 141.818 197.18 141.832 197.068 141.86L195.948 142.084C195.71 142.126 195.64 142.098 195.472 142.378L194.114 144.744C193.848 145.206 193.61 145.626 193.232 146.452H193.176C193.204 146.102 193.246 145.332 193.246 144.94V142.028C193.246 141.818 193.134 141.832 193.022 141.86L191.734 142.126C191.454 142.182 191.468 142.252 191.468 142.378V148.804ZM203.042 144.674H201.026V142.028C201.026 141.818 200.914 141.832 200.802 141.86L199.696 142.084C199.22 142.182 199.248 142.224 199.248 142.378V148.804C199.248 148.958 199.29 149 199.444 149H200.83C201.012 149 201.026 148.958 201.026 148.804V146.074H203.042V148.804C203.042 148.986 203.084 149 203.238 149H204.624C204.806 149 204.82 148.958 204.82 148.804V142.028C204.82 141.818 204.708 141.832 204.596 141.86L203.308 142.126C203.028 142.182 203.042 142.252 203.042 142.378V144.674ZM209.147 149C209.889 149 210.827 148.972 211.485 148.44C212.143 147.922 212.227 147.194 212.227 146.69C212.227 146.102 212.087 145.514 211.541 145.052C210.911 144.52 210.127 144.492 209.343 144.492H208.559V142.028C208.559 141.818 208.447 141.832 208.335 141.86L207.271 142.084C206.767 142.196 206.781 142.182 206.781 142.378V148.804C206.781 148.986 206.823 149 206.977 149H209.147ZM208.559 145.892H209.413C209.707 145.892 210.449 145.906 210.449 146.746C210.449 147.558 209.777 147.6 209.259 147.6H208.559V145.892ZM213.193 148.804C213.193 148.986 213.235 149 213.389 149H214.775C214.957 149 214.971 148.958 214.971 148.804V142.028C214.971 141.818 214.859 141.832 214.747 141.86L213.459 142.126C213.179 142.182 213.193 142.252 213.193 142.378V148.804ZM217.611 147.25C217.443 147.25 217.359 147.32 217.303 147.488L216.421 150.386C216.407 150.442 216.393 150.484 216.393 150.526C216.393 150.652 216.533 150.68 216.617 150.708L217.205 150.904C217.247 150.918 217.275 150.932 217.317 150.932C217.415 150.932 217.443 150.862 217.499 150.764L219.179 147.614C219.207 147.544 219.249 147.474 219.249 147.404C219.249 147.264 219.109 147.25 218.969 147.25H217.611ZM227.429 145.192C227.163 145.332 226.841 145.388 226.561 145.388C225.889 145.388 225.833 144.926 225.833 144.674V142.028C225.833 141.818 225.721 141.832 225.609 141.86L224.531 142.084C224.027 142.182 224.055 142.196 224.055 142.378V144.674C224.055 145.136 224.055 145.724 224.419 146.172C224.713 146.536 225.259 146.788 225.945 146.788C226.519 146.788 227.079 146.634 227.429 146.508V148.804C227.429 148.958 227.471 149 227.625 149H229.011C229.193 149 229.207 148.958 229.207 148.804V142.028C229.207 141.818 229.095 141.832 228.983 141.86L227.695 142.126C227.415 142.182 227.429 142.252 227.429 142.378V145.192ZM233.833 143.484H235.373C235.443 143.484 235.541 143.456 235.583 143.288L235.779 142.364C235.807 142.224 235.863 142.084 235.569 142.084H230.459C230.305 142.084 230.263 142.126 230.263 142.28V143.288C230.263 143.442 230.305 143.484 230.459 143.484H232.055V148.804C232.055 148.986 232.097 149 232.251 149H233.637C233.819 149 233.833 148.958 233.833 148.804V143.484ZM242.434 145.542C242.434 142.91 240.936 141.846 239.396 141.846C237.856 141.846 236.358 142.91 236.358 145.542C236.358 148.174 237.856 149.238 239.396 149.238C240.936 149.238 242.434 148.174 242.434 145.542ZM239.396 147.838C238.304 147.838 238.248 146.606 238.248 145.542C238.248 144.478 238.332 143.246 239.396 143.246C240.46 143.246 240.544 144.478 240.544 145.542C240.544 146.62 240.474 147.838 239.396 147.838ZM244.947 143.344L244.961 143.19C245.087 141.832 246.193 141.3 246.571 141.132L249.483 139.886C249.749 139.774 249.693 139.592 249.665 139.536L249.189 138.5C249.091 138.276 248.839 138.402 248.755 138.444L246.123 139.634C245.045 140.124 244.317 141.062 243.995 141.958C243.701 142.742 243.659 143.694 243.659 144.73C243.659 145.64 243.701 146.704 244.121 147.586C244.835 149.056 246.123 149.238 246.767 149.238C248.335 149.238 249.805 148.118 249.805 145.682C249.805 143.484 248.699 142.168 247.047 142.168C246.109 142.168 245.395 142.574 245.003 143.344H244.947ZM246.767 147.838C245.675 147.838 245.619 146.564 245.619 145.682C245.619 144.814 245.675 143.568 246.767 143.568C247.859 143.568 247.915 144.814 247.915 145.682C247.915 146.564 247.859 147.838 246.767 147.838ZM253.758 149C254.5 149 255.438 148.972 256.096 148.44C256.754 147.922 256.838 147.194 256.838 146.69C256.838 146.102 256.698 145.514 256.152 145.052C255.522 144.52 254.738 144.492 253.954 144.492H253.17V142.028C253.17 141.818 253.058 141.832 252.946 141.86L251.882 142.084C251.378 142.196 251.392 142.182 251.392 142.378V148.804C251.392 148.986 251.434 149 251.588 149H253.758ZM253.17 145.892H254.024C254.318 145.892 255.06 145.906 255.06 146.746C255.06 147.558 254.388 147.6 253.87 147.6H253.17V145.892ZM257.804 148.804C257.804 148.986 257.846 149 258 149H259.386C259.568 149 259.582 148.958 259.582 148.804V142.028C259.582 141.818 259.47 141.832 259.358 141.86L258.07 142.126C257.79 142.182 257.804 142.252 257.804 142.378V148.804ZM65.0469 163C65.8869 163 66.6989 162.986 67.3709 162.538C67.9729 162.146 68.1269 161.53 68.1269 161.04C68.1269 160.074 67.5389 159.486 66.7829 159.332C67.4969 159.108 67.9029 158.506 67.9029 157.792C67.9029 157.106 67.5389 156.672 67.2169 156.448C66.6709 156.084 65.7609 156.084 64.9489 156.084H62.8069C62.6249 156.084 62.6109 156.126 62.6109 156.28V162.804C62.6109 162.986 62.6529 163 62.8069 163H65.0469ZM64.3889 157.386H65.0889C65.5229 157.386 66.1249 157.428 66.1249 158.058C66.1249 158.296 66.0269 158.814 65.1309 158.814H64.3889V157.386ZM64.3889 160.074H65.3129C65.5649 160.074 66.3489 160.088 66.3489 160.872C66.3489 161.614 65.6769 161.698 65.1589 161.698H64.3889V160.074ZM72.2366 163C72.9786 163 73.9166 162.972 74.5746 162.44C75.2326 161.922 75.3166 161.194 75.3166 160.69C75.3166 160.102 75.1766 159.514 74.6306 159.052C74.0006 158.52 73.2166 158.492 72.4326 158.492H71.6486V156.028C71.6486 155.818 71.5366 155.832 71.4246 155.86L70.3606 156.084C69.8566 156.196 69.8706 156.182 69.8706 156.378V162.804C69.8706 162.986 69.9126 163 70.0666 163H72.2366ZM71.6486 159.892H72.5026C72.7966 159.892 73.5386 159.906 73.5386 160.746C73.5386 161.558 72.8666 161.6 72.3486 161.6H71.6486V159.892ZM76.2826 162.804C76.2826 162.986 76.3246 163 76.4786 163H77.8646C78.0466 163 78.0606 162.958 78.0606 162.804V156.028C78.0606 155.818 77.9486 155.832 77.8366 155.86L76.5486 156.126C76.2686 156.182 76.2826 156.252 76.2826 156.378V162.804ZM80.9532 157.344L80.9672 157.19C81.0932 155.832 82.1992 155.3 82.5772 155.132L85.4892 153.886C85.7552 153.774 85.6992 153.592 85.6712 153.536L85.1952 152.5C85.0972 152.276 84.8452 152.402 84.7612 152.444L82.1292 153.634C81.0512 154.124 80.3232 155.062 80.0012 155.958C79.7072 156.742 79.6652 157.694 79.6652 158.73C79.6652 159.64 79.7072 160.704 80.1272 161.586C80.8412 163.056 82.1292 163.238 82.7732 163.238C84.3412 163.238 85.8112 162.118 85.8112 159.682C85.8112 157.484 84.7052 156.168 83.0532 156.168C82.1152 156.168 81.4012 156.574 81.0092 157.344H80.9532ZM82.7732 161.838C81.6812 161.838 81.6252 160.564 81.6252 159.682C81.6252 158.814 81.6812 157.568 82.7732 157.568C83.8652 157.568 83.9212 158.814 83.9212 159.682C83.9212 160.564 83.8652 161.838 82.7732 161.838ZM89.26 162.874L89.316 162.902C89.456 162.972 89.834 163.238 90.716 163.238C93.236 163.238 93.292 160.536 93.292 159.486C93.292 156.42 91.92 155.846 90.828 155.846C90.268 155.846 89.666 156.028 89.078 156.574C89.036 156.448 89.008 156.322 88.952 156.196C88.798 155.776 88.658 155.818 88.434 155.888L87.37 156.238C87.3 156.266 87.216 156.308 87.216 156.392C87.216 156.434 87.23 156.476 87.272 156.616C87.37 156.91 87.482 157.372 87.482 158.576V165.758C87.482 166.024 87.594 165.982 87.706 165.954L88.994 165.688C89.274 165.632 89.26 165.562 89.26 165.436V162.874ZM89.26 157.778L89.316 157.722C89.54 157.498 89.89 157.246 90.338 157.246C91.486 157.246 91.514 158.59 91.514 159.444C91.514 160.536 91.458 160.942 91.29 161.25C91.024 161.754 90.59 161.838 90.268 161.838C90.072 161.838 89.666 161.824 89.26 161.572V157.778ZM100.014 162.748C100.056 162.734 100.126 162.692 100.126 162.608C100.126 162.538 100.07 162.44 99.9715 162.188C99.7615 161.656 99.7615 161.208 99.7615 160.802V158.1C99.7615 157.848 99.7335 157.218 99.4535 156.742C99.0335 156.028 98.2215 155.846 97.3535 155.846C96.7795 155.846 95.7855 155.958 95.2115 156.224C94.8475 156.392 94.8475 156.448 94.9175 156.644L95.2115 157.526C95.2395 157.624 95.2675 157.666 95.3515 157.666C95.4495 157.666 95.5475 157.596 96.0235 157.442C96.3735 157.33 96.7935 157.246 97.1575 157.246C97.5495 157.246 97.7875 157.372 97.9135 157.526C98.0955 157.75 98.0815 158.086 98.0815 158.282V158.716C97.2835 158.688 95.9675 158.8 95.2815 159.29C94.9875 159.5 94.4275 160.032 94.4275 161.11C94.4275 162.398 95.2395 163.238 96.4995 163.238C97.4235 163.238 97.9275 162.818 98.2915 162.454L98.3475 162.398C98.3895 162.622 98.4595 162.818 98.5855 163.07C98.6975 163.28 98.7815 163.252 98.8795 163.21L100.014 162.748ZM98.0815 161.404C97.7735 161.74 97.3955 161.936 97.0315 161.936C96.5275 161.936 96.1075 161.558 96.1075 160.984C96.1075 160.158 96.8775 159.864 97.9975 159.864H98.0815V161.404ZM104.073 157.484H105.613C105.683 157.484 105.781 157.456 105.823 157.288L106.019 156.364C106.047 156.224 106.103 156.084 105.809 156.084H100.699C100.545 156.084 100.503 156.126 100.503 156.28V157.288C100.503 157.442 100.545 157.484 100.699 157.484H102.295V162.804C102.295 162.986 102.337 163 102.491 163H103.877C104.059 163 104.073 162.958 104.073 162.804V157.484ZM109.356 163C110.098 163 111.036 162.972 111.694 162.44C112.352 161.922 112.436 161.194 112.436 160.69C112.436 160.102 112.296 159.514 111.75 159.052C111.12 158.52 110.336 158.492 109.552 158.492H108.768V156.028C108.768 155.818 108.656 155.832 108.544 155.86L107.452 156.084C106.976 156.182 106.99 156.196 106.99 156.378V162.804C106.99 162.986 107.032 163 107.186 163H109.356ZM108.768 159.892H109.622C109.916 159.892 110.658 159.906 110.658 160.746C110.658 161.558 109.986 161.6 109.468 161.6H108.768V159.892ZM121.038 158.674H119.022V156.028C119.022 155.818 118.91 155.832 118.798 155.86L117.692 156.084C117.216 156.182 117.244 156.224 117.244 156.378V162.804C117.244 162.958 117.286 163 117.44 163H118.826C119.008 163 119.022 162.958 119.022 162.804V160.074H121.038V162.804C121.038 162.986 121.08 163 121.234 163H122.62C122.802 163 122.816 162.958 122.816 162.804V156.028C122.816 155.818 122.704 155.832 122.592 155.86L121.304 156.126C121.024 156.182 121.038 156.252 121.038 156.378V158.674ZM130.461 159.542C130.461 156.91 128.963 155.846 127.423 155.846C125.883 155.846 124.385 156.91 124.385 159.542C124.385 162.174 125.883 163.238 127.423 163.238C128.963 163.238 130.461 162.174 130.461 159.542ZM127.423 161.838C126.331 161.838 126.275 160.606 126.275 159.542C126.275 158.478 126.359 157.246 127.423 157.246C128.487 157.246 128.571 158.478 128.571 159.542C128.571 160.62 128.501 161.838 127.423 161.838ZM134.473 163C135.313 163 136.125 162.986 136.797 162.538C137.399 162.146 137.553 161.53 137.553 161.04C137.553 160.074 136.965 159.486 136.209 159.332C136.923 159.108 137.329 158.506 137.329 157.792C137.329 157.106 136.965 156.672 136.643 156.448C136.097 156.084 135.187 156.084 134.375 156.084H132.233C132.051 156.084 132.037 156.126 132.037 156.28V162.804C132.037 162.986 132.079 163 132.233 163H134.473ZM133.815 157.386H134.515C134.949 157.386 135.551 157.428 135.551 158.058C135.551 158.296 135.453 158.814 134.557 158.814H133.815V157.386ZM133.815 160.074H134.739C134.991 160.074 135.775 160.088 135.775 160.872C135.775 161.614 135.103 161.698 134.585 161.698H133.815V160.074ZM141.662 163C142.404 163 143.342 162.972 144 162.44C144.658 161.922 144.742 161.194 144.742 160.69C144.742 160.102 144.602 159.514 144.056 159.052C143.426 158.52 142.642 158.492 141.858 158.492H141.074V156.028C141.074 155.818 140.962 155.832 140.85 155.86L139.786 156.084C139.282 156.196 139.296 156.182 139.296 156.378V162.804C139.296 162.986 139.338 163 139.492 163H141.662ZM141.074 159.892H141.928C142.222 159.892 142.964 159.906 142.964 160.746C142.964 161.558 142.292 161.6 141.774 161.6H141.074V159.892ZM145.708 162.804C145.708 162.986 145.75 163 145.904 163H147.29C147.472 163 147.486 162.958 147.486 162.804V156.028C147.486 155.818 147.374 155.832 147.262 155.86L145.974 156.126C145.694 156.182 145.708 156.252 145.708 156.378V162.804ZM149.441 162.804C149.441 162.986 149.483 163 149.637 163H151.023C151.205 163 151.219 162.93 151.289 162.804L152.619 160.34C152.801 160.004 153.011 159.71 153.501 158.632H153.557C153.501 159.514 153.487 159.892 153.487 160.144V162.804C153.487 162.986 153.529 163 153.683 163H155.069C155.251 163 155.265 162.958 155.265 162.804V156.028C155.265 155.818 155.153 155.832 155.041 155.86L153.949 156.084C153.725 156.126 153.627 156.07 153.445 156.378L152.087 158.744C151.821 159.206 151.583 159.626 151.205 160.452H151.149C151.177 160.102 151.219 159.332 151.219 158.94V156.028C151.219 155.818 151.107 155.832 150.995 155.86L149.707 156.126C149.427 156.182 149.441 156.252 149.441 156.378V162.804ZM153.403 152.906C153.375 152.906 153.333 152.892 153.305 152.892C153.137 152.892 153.151 153.004 153.081 153.214C152.969 153.606 152.773 153.816 152.353 153.816C151.933 153.816 151.737 153.606 151.625 153.214C151.583 153.06 151.569 152.976 151.527 152.934C151.471 152.864 151.373 152.892 151.303 152.906L150.491 153.018C150.435 153.032 150.365 153.088 150.365 153.242C150.365 153.466 150.449 153.788 150.617 154.068C150.939 154.586 151.569 154.964 152.353 154.964C153.137 154.964 153.767 154.586 154.089 154.068C154.257 153.788 154.341 153.466 154.341 153.242C154.341 153.088 154.271 153.032 154.215 153.018L153.403 152.906ZM162.924 163C163.764 163 164.576 162.986 165.248 162.538C165.85 162.146 166.004 161.53 166.004 161.04C166.004 160.074 165.416 159.486 164.66 159.332C165.374 159.108 165.78 158.506 165.78 157.792C165.78 157.106 165.416 156.672 165.094 156.448C164.548 156.084 163.638 156.084 162.826 156.084H160.684C160.502 156.084 160.488 156.126 160.488 156.28V162.804C160.488 162.986 160.53 163 160.684 163H162.924ZM162.266 157.386H162.966C163.4 157.386 164.002 157.428 164.002 158.058C164.002 158.296 163.904 158.814 163.008 158.814H162.266V157.386ZM162.266 160.074H163.19C163.442 160.074 164.226 160.088 164.226 160.872C164.226 161.614 163.554 161.698 163.036 161.698H162.266V160.074ZM169.274 163C169.526 163 169.526 162.902 169.526 162.804V160.102H170.1C170.744 160.102 170.828 160.41 170.912 160.788L171.178 161.95C171.276 162.37 171.43 162.706 171.766 162.93C172.13 163.182 172.788 163.238 173.054 163.238C173.362 163.238 173.39 163.126 173.418 163.028L173.67 162.132C173.74 161.866 173.614 161.838 173.516 161.824L173.208 161.768C172.9 161.712 172.844 161.572 172.732 161.236L172.466 160.466C172.312 160.032 172.172 159.528 171.5 159.388V159.346C172.088 159.234 172.27 158.758 172.354 158.464L172.508 157.918C172.662 157.358 172.802 157.33 173.082 157.274L173.292 157.232C173.432 157.204 173.502 157.106 173.474 157.008L173.194 155.986C173.166 155.902 173.138 155.846 172.942 155.846C172.69 155.846 172.046 155.93 171.654 156.28C171.318 156.574 171.192 156.98 171.136 157.218L170.954 158.016C170.87 158.394 170.786 158.702 170.142 158.702H169.526V156.028C169.526 155.818 169.414 155.832 169.302 155.86L168.21 156.084C167.734 156.182 167.748 156.196 167.748 156.378V162.804C167.748 162.902 167.748 163 168 163H169.274ZM178.959 155.958C178.693 155.93 178.609 156.084 178.567 156.252L177.825 159.626C177.783 159.85 177.657 160.228 177.363 162.048H177.335C177.237 161.53 176.943 160.144 176.803 159.626L175.893 156.238C175.809 155.902 175.753 155.944 175.473 155.972L174.311 156.084C174.157 156.098 174.003 156.112 174.003 156.252C174.003 156.322 174.031 156.378 174.073 156.49L176.215 162.818C176.285 163.028 176.369 163 176.467 163H177.055L176.915 163.462C176.761 163.966 176.565 164.498 175.809 164.498C175.417 164.498 175.053 164.344 174.829 164.232C174.731 164.176 174.675 164.148 174.619 164.148C174.577 164.148 174.521 164.162 174.479 164.246L174.031 165.212C173.975 165.338 173.961 165.436 174.367 165.618C174.913 165.87 175.431 165.968 175.907 165.968C176.509 165.968 177.391 165.814 177.923 164.75C178.161 164.274 178.371 163.518 178.903 161.544L180.275 156.504C180.317 156.35 180.331 156.308 180.331 156.266C180.331 156.126 180.177 156.112 180.037 156.098L178.959 155.958ZM186.18 156.826C186.208 156.784 186.222 156.756 186.222 156.7C186.222 156.616 186.166 156.49 185.914 156.322C185.536 156.084 184.976 155.846 184.22 155.846C182.54 155.846 180.972 156.91 180.972 159.696C180.972 162.37 182.498 163.238 184.108 163.238C184.654 163.238 185.242 163.112 185.704 162.86C185.914 162.748 186.054 162.608 186.054 162.496C186.054 162.454 186.026 162.384 186.012 162.356L185.648 161.432C185.634 161.39 185.578 161.362 185.55 161.362C185.452 161.362 185.298 161.488 185.13 161.586C184.878 161.74 184.612 161.838 184.248 161.838C183.646 161.838 183.31 161.516 183.128 161.208C182.974 160.942 182.862 160.508 182.862 159.654C182.862 158.548 183.058 158.086 183.142 157.904C183.338 157.512 183.674 157.246 184.22 157.246C184.584 157.246 184.864 157.358 185.158 157.554C185.368 157.694 185.48 157.806 185.564 157.806C185.62 157.806 185.648 157.764 185.662 157.736L186.18 156.826ZM193.15 153.41C192.968 153.41 192.954 153.494 192.912 153.62L190.126 162.72C190.098 162.804 190.042 163 190.336 163H191.834C192.016 163 192.03 162.93 192.086 162.706L192.66 160.438H195.068L195.684 162.706C195.768 162.986 195.81 163 195.978 163H197.532C197.602 163 197.756 162.986 197.756 162.832C197.756 162.762 197.728 162.72 197.714 162.664L194.97 153.634C194.928 153.494 194.9 153.41 194.76 153.41H193.15ZM194.718 159.178H192.87L193.486 156.77C193.738 155.804 193.78 155.286 193.794 154.908H193.836C193.948 155.874 194.046 156.35 194.144 156.77L194.718 159.178ZM201.746 161.586C201.732 161.53 201.676 161.502 201.634 161.502C201.592 161.502 201.536 161.53 201.438 161.558C201.326 161.6 201.214 161.628 201.102 161.628C200.668 161.628 200.696 161.166 200.696 160.788V153.158C200.696 153.06 200.71 152.934 200.654 152.892C200.598 152.85 200.514 152.864 200.472 152.878L199.184 153.144C198.904 153.2 198.918 153.27 198.918 153.396V160.536C198.918 161.922 198.946 163.238 200.71 163.238C201.102 163.238 201.41 163.168 201.774 163.056C202.04 162.972 202.068 162.888 202.026 162.734L201.746 161.586ZM204.979 162.874L205.035 162.902C205.175 162.972 205.553 163.238 206.435 163.238C208.955 163.238 209.011 160.536 209.011 159.486C209.011 156.42 207.639 155.846 206.547 155.846C205.987 155.846 205.385 156.028 204.797 156.574C204.755 156.448 204.727 156.322 204.671 156.196C204.517 155.776 204.377 155.818 204.153 155.888L203.089 156.238C203.019 156.266 202.935 156.308 202.935 156.392C202.935 156.434 202.949 156.476 202.991 156.616C203.089 156.91 203.201 157.372 203.201 158.576V165.758C203.201 166.024 203.313 165.982 203.425 165.954L204.713 165.688C204.993 165.632 204.979 165.562 204.979 165.436V162.874ZM204.979 157.778L205.035 157.722C205.259 157.498 205.609 157.246 206.057 157.246C207.205 157.246 207.233 158.59 207.233 159.444C207.233 160.536 207.177 160.942 207.009 161.25C206.743 161.754 206.309 161.838 205.987 161.838C205.791 161.838 205.385 161.824 204.979 161.572V157.778ZM215.774 160.018C215.956 160.018 216.096 160.004 216.096 159.57C216.096 159.206 216.082 158.688 215.942 158.1C215.69 157.008 215.06 155.846 213.296 155.846C211.336 155.846 210.23 157.512 210.23 159.724C210.23 160.69 210.426 163.238 213.422 163.238C214.206 163.238 215.13 163.028 215.648 162.678C215.76 162.608 215.872 162.51 215.872 162.37C215.872 162.328 215.858 162.3 215.83 162.244L215.48 161.418C215.452 161.348 215.41 161.306 215.326 161.306C215.242 161.306 215.116 161.362 214.948 161.446C214.682 161.572 214.192 161.768 213.548 161.768C212.386 161.768 212.008 161.04 212.008 160.018H215.774ZM212.008 158.716C212.092 157.764 212.4 157.148 213.198 157.148C213.758 157.148 214.038 157.47 214.15 158.002C214.178 158.114 214.22 158.338 214.206 158.716H212.008ZM223.236 157.89C223.236 156.826 222.69 155.846 221.43 155.846C220.772 155.846 220.044 156.042 219.274 156.812C219.232 156.532 219.162 156.308 219.092 156.14C218.952 155.818 218.896 155.79 218.616 155.888L217.552 156.238C217.412 156.28 217.398 156.364 217.398 156.42C217.398 156.546 217.454 156.602 217.524 156.882C217.608 157.246 217.664 157.666 217.664 158.576V162.804C217.664 162.986 217.706 163 217.86 163H219.246C219.428 163 219.442 162.958 219.442 162.804V157.89C219.974 157.4 220.366 157.316 220.632 157.316C221.416 157.316 221.458 157.974 221.458 158.492V162.804C221.458 162.986 221.5 163 221.654 163H223.04C223.222 163 223.236 162.958 223.236 162.804V157.89ZM232.946 159.5V161.502C232.554 161.684 232.232 161.726 231.98 161.726C231.518 161.726 231.112 161.586 230.846 161.348C230.146 160.718 230.076 159.08 230.076 158.38C230.076 157.638 230.174 156.504 230.37 155.916C230.636 155.146 231.112 154.684 231.966 154.684C232.4 154.684 232.806 154.81 233.226 155.034C233.59 155.23 233.688 155.3 233.772 155.3C233.884 155.3 233.912 155.216 233.954 155.146L234.416 154.222C234.472 154.11 234.528 154.012 234.164 153.788C233.926 153.648 233.114 153.172 231.84 153.172C230.664 153.172 229.838 153.578 229.25 154.208C228.578 154.936 228.088 156.168 228.088 158.408C228.088 159.85 228.34 161.082 229.04 162.006C229.67 162.832 230.552 163.238 231.854 163.238C233.016 163.238 233.786 162.902 234.178 162.692C234.542 162.496 234.64 162.398 234.64 162.202V158.268C234.64 158.016 234.486 157.988 234.36 157.988H231.882C231.756 157.988 231.602 158.016 231.602 158.268V159.22C231.602 159.472 231.756 159.5 231.882 159.5H232.946ZM242.242 159.542C242.242 156.91 240.744 155.846 239.204 155.846C237.664 155.846 236.166 156.91 236.166 159.542C236.166 162.174 237.664 163.238 239.204 163.238C240.744 163.238 242.242 162.174 242.242 159.542ZM239.204 161.838C238.112 161.838 238.056 160.606 238.056 159.542C238.056 158.478 238.14 157.246 239.204 157.246C240.268 157.246 240.352 158.478 240.352 159.542C240.352 160.62 240.282 161.838 239.204 161.838ZM246.576 161.586C246.562 161.53 246.506 161.502 246.464 161.502C246.422 161.502 246.366 161.53 246.268 161.558C246.156 161.6 246.044 161.628 245.932 161.628C245.498 161.628 245.526 161.166 245.526 160.788V153.158C245.526 153.06 245.54 152.934 245.484 152.892C245.428 152.85 245.344 152.864 245.302 152.878L244.014 153.144C243.734 153.2 243.748 153.27 243.748 153.396V160.536C243.748 161.922 243.776 163.238 245.54 163.238C245.932 163.238 246.24 163.168 246.604 163.056C246.87 162.972 246.898 162.888 246.856 162.734L246.576 161.586ZM251.797 162.398C251.867 162.734 251.951 162.902 252.049 163.084C252.147 163.28 252.231 163.252 252.315 163.21L253.449 162.748C253.547 162.706 253.575 162.678 253.575 162.622C253.575 162.566 253.547 162.51 253.477 162.23C253.337 161.67 253.323 161.026 253.323 160.802V153.158C253.323 152.822 253.267 152.836 253.099 152.878L251.769 153.158C251.531 153.2 251.545 153.27 251.545 153.396V156.266C251.167 155.958 250.761 155.846 250.229 155.846C249.193 155.846 247.555 156.406 247.555 159.724C247.555 162.692 248.927 163.238 249.893 163.238C250.593 163.238 251.223 162.972 251.769 162.426L251.797 162.398ZM251.545 161.348L251.461 161.446C251.307 161.628 251.041 161.838 250.509 161.838C250.201 161.838 249.823 161.768 249.571 161.306C249.459 161.082 249.333 160.704 249.333 159.514C249.333 158.562 249.403 158.03 249.655 157.694C249.935 157.302 250.313 157.246 250.593 157.246C251.013 157.246 251.251 157.358 251.475 157.484L251.545 157.526V161.348ZM255.893 161.25C255.725 161.25 255.641 161.32 255.585 161.488L254.703 164.386C254.689 164.442 254.675 164.484 254.675 164.526C254.675 164.652 254.815 164.68 254.899 164.708L255.487 164.904C255.529 164.918 255.557 164.932 255.599 164.932C255.697 164.932 255.725 164.862 255.781 164.764L257.461 161.614C257.489 161.544 257.531 161.474 257.531 161.404C257.531 161.264 257.391 161.25 257.251 161.25H255.893ZM82.1343 176.804C82.1343 176.986 82.1763 177 82.3303 177H83.7163C83.8983 177 83.9123 176.93 83.9823 176.804L85.3123 174.34C85.4943 174.004 85.7043 173.71 86.1943 172.632H86.2503C86.1943 173.57 86.1803 173.878 86.1803 174.144V176.804C86.1803 176.986 86.2223 177 86.3763 177H87.7623C87.9443 177 87.9583 176.958 87.9583 176.804V170.028C87.9583 169.818 87.8463 169.832 87.7343 169.86L86.6143 170.084C86.3763 170.126 86.3063 170.098 86.1383 170.378L84.7803 172.744C84.5143 173.206 84.2763 173.626 83.8983 174.452H83.8423C83.8703 174.102 83.9123 173.332 83.9123 172.94V170.028C83.9123 169.818 83.8003 169.832 83.6883 169.86L82.4003 170.126C82.1203 170.182 82.1343 170.252 82.1343 170.378V176.804ZM96.9332 171.484V176.804C96.9332 176.958 96.9752 177 97.1292 177H98.5152C98.6972 177 98.7112 176.958 98.7112 176.804V170.28C98.7112 170.098 98.6692 170.084 98.5152 170.084H93.3772C93.2232 170.084 93.1812 170.098 93.1812 170.28V176.804C93.1812 176.958 93.1952 177 93.3772 177H94.7632C94.9452 177 94.9592 176.958 94.9592 176.804V171.484H96.9332ZM106.357 173.542C106.357 170.91 104.859 169.846 103.319 169.846C101.779 169.846 100.281 170.91 100.281 173.542C100.281 176.174 101.779 177.238 103.319 177.238C104.859 177.238 106.357 176.174 106.357 173.542ZM103.319 175.838C102.227 175.838 102.171 174.606 102.171 173.542C102.171 172.478 102.255 171.246 103.319 171.246C104.383 171.246 104.467 172.478 104.467 173.542C104.467 174.62 104.397 175.838 103.319 175.838ZM111.615 171.484V176.804C111.615 176.958 111.657 177 111.811 177H113.197C113.379 177 113.393 176.958 113.393 176.804V170.28C113.393 170.126 113.351 170.084 113.197 170.084H108.899C108.717 170.084 108.703 170.126 108.703 170.28V170.91C108.703 171.736 108.675 173.878 108.521 174.62C108.381 175.348 108.059 175.586 107.583 175.698L107.345 175.754C107.261 175.768 107.107 175.782 107.163 175.992L107.443 177.028C107.471 177.126 107.499 177.238 107.737 177.238C108.073 177.238 109.347 177.154 109.921 175.726C110.355 174.62 110.397 172.464 110.397 171.666V171.484H111.615ZM119.473 169.958C119.207 169.93 119.123 170.084 119.081 170.252L118.339 173.626C118.297 173.85 118.171 174.228 117.877 176.048H117.849C117.751 175.53 117.457 174.144 117.317 173.626L116.407 170.238C116.323 169.902 116.267 169.944 115.987 169.972L114.825 170.084C114.671 170.098 114.517 170.112 114.517 170.252C114.517 170.322 114.545 170.378 114.587 170.49L116.729 176.818C116.799 177.028 116.883 177 116.981 177H117.569L117.429 177.462C117.275 177.966 117.079 178.498 116.323 178.498C115.931 178.498 115.567 178.344 115.343 178.232C115.245 178.176 115.189 178.148 115.133 178.148C115.091 178.148 115.035 178.162 114.993 178.246L114.545 179.212C114.489 179.338 114.475 179.436 114.881 179.618C115.427 179.87 115.945 179.968 116.421 179.968C117.023 179.968 117.905 179.814 118.437 178.75C118.675 178.274 118.885 177.518 119.417 175.544L120.789 170.504C120.831 170.35 120.845 170.308 120.845 170.266C120.845 170.126 120.691 170.112 120.551 170.098L119.473 169.958ZM125.123 173.192C124.857 173.332 124.535 173.388 124.255 173.388C123.583 173.388 123.527 172.926 123.527 172.674V170.028C123.527 169.818 123.415 169.832 123.303 169.86L122.225 170.084C121.721 170.182 121.749 170.196 121.749 170.378V172.674C121.749 173.136 121.749 173.724 122.113 174.172C122.407 174.536 122.953 174.788 123.639 174.788C124.213 174.788 124.773 174.634 125.123 174.508V176.804C125.123 176.958 125.165 177 125.319 177H126.705C126.887 177 126.901 176.958 126.901 176.804V170.028C126.901 169.818 126.789 169.832 126.677 169.86L125.389 170.126C125.109 170.182 125.123 170.252 125.123 170.378V173.192ZM133.892 176.748C133.934 176.734 134.004 176.692 134.004 176.608C134.004 176.538 133.948 176.44 133.85 176.188C133.64 175.656 133.64 175.208 133.64 174.802V172.1C133.64 171.848 133.612 171.218 133.332 170.742C132.912 170.028 132.1 169.846 131.232 169.846C130.658 169.846 129.664 169.958 129.09 170.224C128.726 170.392 128.726 170.448 128.796 170.644L129.09 171.526C129.118 171.624 129.146 171.666 129.23 171.666C129.328 171.666 129.426 171.596 129.902 171.442C130.252 171.33 130.672 171.246 131.036 171.246C131.428 171.246 131.666 171.372 131.792 171.526C131.974 171.75 131.96 172.086 131.96 172.282V172.716C131.162 172.688 129.846 172.8 129.16 173.29C128.866 173.5 128.306 174.032 128.306 175.11C128.306 176.398 129.118 177.238 130.378 177.238C131.302 177.238 131.806 176.818 132.17 176.454L132.226 176.398C132.268 176.622 132.338 176.818 132.464 177.07C132.576 177.28 132.66 177.252 132.758 177.21L133.892 176.748ZM131.96 175.404C131.652 175.74 131.274 175.936 130.91 175.936C130.406 175.936 129.986 175.558 129.986 174.984C129.986 174.158 130.756 173.864 131.876 173.864H131.96V175.404ZM135.537 176.804C135.537 176.986 135.579 177 135.733 177H137.119C137.301 177 137.315 176.93 137.385 176.804L138.715 174.34C138.897 174.004 139.107 173.71 139.597 172.632H139.653C139.597 173.514 139.583 173.892 139.583 174.144V176.804C139.583 176.986 139.625 177 139.779 177H141.165C141.347 177 141.361 176.958 141.361 176.804V170.028C141.361 169.818 141.249 169.832 141.137 169.86L140.045 170.084C139.821 170.126 139.723 170.07 139.541 170.378L138.183 172.744C137.917 173.206 137.679 173.626 137.301 174.452H137.245C137.273 174.102 137.315 173.332 137.315 172.94V170.028C137.315 169.818 137.203 169.832 137.091 169.86L135.803 170.126C135.523 170.182 135.537 170.252 135.537 170.378V176.804ZM139.499 166.906C139.471 166.906 139.429 166.892 139.401 166.892C139.233 166.892 139.247 167.004 139.177 167.214C139.065 167.606 138.869 167.816 138.449 167.816C138.029 167.816 137.833 167.606 137.721 167.214C137.679 167.06 137.665 166.976 137.623 166.934C137.567 166.864 137.469 166.892 137.399 166.906L136.587 167.018C136.531 167.032 136.461 167.088 136.461 167.242C136.461 167.466 136.545 167.788 136.713 168.068C137.035 168.586 137.665 168.964 138.449 168.964C139.233 168.964 139.863 168.586 140.185 168.068C140.353 167.788 140.437 167.466 140.437 167.242C140.437 167.088 140.367 167.032 140.311 167.018L139.499 166.906ZM147.522 171.344L147.536 171.19C147.662 169.832 148.768 169.3 149.146 169.132L152.058 167.886C152.324 167.774 152.268 167.592 152.24 167.536L151.764 166.5C151.666 166.276 151.414 166.402 151.33 166.444L148.698 167.634C147.62 168.124 146.892 169.062 146.57 169.958C146.276 170.742 146.234 171.694 146.234 172.73C146.234 173.64 146.276 174.704 146.696 175.586C147.41 177.056 148.698 177.238 149.342 177.238C150.91 177.238 152.38 176.118 152.38 173.682C152.38 171.484 151.274 170.168 149.622 170.168C148.684 170.168 147.97 170.574 147.578 171.344H147.522ZM149.342 175.838C148.25 175.838 148.194 174.564 148.194 173.682C148.194 172.814 148.25 171.568 149.342 171.568C150.434 171.568 150.49 172.814 150.49 173.682C150.49 174.564 150.434 175.838 149.342 175.838ZM159.65 173.542C159.65 170.91 158.152 169.846 156.612 169.846C155.072 169.846 153.574 170.91 153.574 173.542C153.574 176.174 155.072 177.238 156.612 177.238C158.152 177.238 159.65 176.174 159.65 173.542ZM156.612 175.838C155.52 175.838 155.464 174.606 155.464 173.542C155.464 172.478 155.548 171.246 156.612 171.246C157.676 171.246 157.76 172.478 157.76 173.542C157.76 174.62 157.69 175.838 156.612 175.838ZM164.908 171.484V176.804C164.908 176.958 164.95 177 165.104 177H166.49C166.672 177 166.686 176.958 166.686 176.804V170.28C166.686 170.126 166.644 170.084 166.49 170.084H162.192C162.01 170.084 161.996 170.126 161.996 170.28V170.91C161.996 171.736 161.968 173.878 161.814 174.62C161.674 175.348 161.352 175.586 160.876 175.698L160.638 175.754C160.554 175.768 160.4 175.782 160.456 175.992L160.736 177.028C160.764 177.126 160.792 177.238 161.03 177.238C161.366 177.238 162.64 177.154 163.214 175.726C163.648 174.62 163.69 172.464 163.69 171.666V171.484H164.908ZM171.016 177C171.758 177 172.696 176.972 173.354 176.44C174.012 175.922 174.096 175.194 174.096 174.69C174.096 174.102 173.956 173.514 173.41 173.052C172.78 172.52 171.996 172.492 171.212 172.492H170.428V170.028C170.428 169.818 170.316 169.832 170.204 169.86L169.112 170.084C168.636 170.182 168.65 170.196 168.65 170.378V176.804C168.65 176.986 168.692 177 168.846 177H171.016ZM170.428 173.892H171.282C171.576 173.892 172.318 173.906 172.318 174.746C172.318 175.558 171.646 175.6 171.128 175.6H170.428V173.892ZM180.802 175.6V170.028C180.802 169.818 180.69 169.832 180.578 169.86L179.29 170.126C179.01 170.182 179.024 170.252 179.024 170.378V175.6H177.414V170.028C177.414 169.818 177.302 169.832 177.19 169.86L176.084 170.084C175.608 170.182 175.636 170.224 175.636 170.378V176.804C175.636 176.958 175.65 177 175.832 177H183.994C184.176 177 184.19 176.958 184.19 176.804V170.028C184.19 169.818 184.078 169.832 183.966 169.86L182.678 170.126C182.398 170.182 182.412 170.252 182.412 170.378V175.6H180.802ZM191.288 174.018C191.47 174.018 191.61 174.004 191.61 173.57C191.61 173.206 191.596 172.688 191.456 172.1C191.204 171.008 190.574 169.846 188.81 169.846C186.85 169.846 185.744 171.512 185.744 173.724C185.744 174.69 185.94 177.238 188.936 177.238C189.72 177.238 190.644 177.028 191.162 176.678C191.274 176.608 191.386 176.51 191.386 176.37C191.386 176.328 191.372 176.3 191.344 176.244L190.994 175.418C190.966 175.348 190.924 175.306 190.84 175.306C190.756 175.306 190.63 175.362 190.462 175.446C190.196 175.572 189.706 175.768 189.062 175.768C187.9 175.768 187.522 175.04 187.522 174.018H191.288ZM187.522 172.716C187.606 171.764 187.914 171.148 188.712 171.148C189.272 171.148 189.552 171.47 189.664 172.002C189.692 172.114 189.734 172.338 189.72 172.716H187.522ZM200.17 171.484V176.804C200.17 176.958 200.212 177 200.366 177H201.752C201.934 177 201.948 176.958 201.948 176.804V170.28C201.948 170.098 201.906 170.084 201.752 170.084H196.614C196.46 170.084 196.418 170.098 196.418 170.28V176.804C196.418 176.958 196.432 177 196.614 177H198C198.182 177 198.196 176.958 198.196 176.804V171.484H200.17ZM205.772 176.874L205.828 176.902C205.968 176.972 206.346 177.238 207.228 177.238C209.748 177.238 209.804 174.536 209.804 173.486C209.804 170.42 208.432 169.846 207.34 169.846C206.78 169.846 206.178 170.028 205.59 170.574C205.548 170.448 205.52 170.322 205.464 170.196C205.31 169.776 205.17 169.818 204.946 169.888L203.882 170.238C203.812 170.266 203.728 170.308 203.728 170.392C203.728 170.434 203.742 170.476 203.784 170.616C203.882 170.91 203.994 171.372 203.994 172.576V179.758C203.994 180.024 204.106 179.982 204.218 179.954L205.506 179.688C205.786 179.632 205.772 179.562 205.772 179.436V176.874ZM205.772 171.778L205.828 171.722C206.052 171.498 206.402 171.246 206.85 171.246C207.998 171.246 208.026 172.59 208.026 173.444C208.026 174.536 207.97 174.942 207.802 175.25C207.536 175.754 207.102 175.838 206.78 175.838C206.584 175.838 206.178 175.824 205.772 175.572V171.778ZM211.429 176.804C211.429 176.986 211.471 177 211.625 177H213.011C213.193 177 213.207 176.93 213.277 176.804L214.607 174.34C214.789 174.004 214.999 173.71 215.489 172.632H215.545C215.489 173.57 215.475 173.878 215.475 174.144V176.804C215.475 176.986 215.517 177 215.671 177H217.057C217.239 177 217.253 176.958 217.253 176.804V170.028C217.253 169.818 217.141 169.832 217.029 169.86L215.909 170.084C215.671 170.126 215.601 170.098 215.433 170.378L214.075 172.744C213.809 173.206 213.571 173.626 213.193 174.452H213.137C213.165 174.102 213.207 173.332 213.207 172.94V170.028C213.207 169.818 213.095 169.832 212.983 169.86L211.695 170.126C211.415 170.182 211.429 170.252 211.429 170.378V176.804ZM219.349 171.54C219.363 171.568 219.405 171.638 219.489 171.638C219.559 171.638 219.629 171.582 219.853 171.456C220.007 171.372 220.399 171.148 220.945 171.148C221.519 171.148 221.855 171.47 221.855 171.932C221.855 172.73 221.141 172.786 220.665 172.786H220.343C220.189 172.786 220.147 172.828 220.147 172.982V173.892C220.147 174.046 220.189 174.088 220.343 174.088H220.651C221.085 174.088 221.967 174.088 221.967 174.928C221.967 175.292 221.799 175.936 220.861 175.936C220.343 175.936 220.007 175.824 219.545 175.572C219.363 175.474 219.251 175.404 219.153 175.404C219.069 175.404 219.027 175.446 218.999 175.516L218.691 176.244C218.677 176.286 218.649 176.342 218.649 176.398C218.649 176.608 218.901 176.72 219.125 176.832C219.615 177.084 220.371 177.238 220.987 177.238C222.583 177.238 223.745 176.412 223.745 174.956C223.745 174.06 223.227 173.542 222.611 173.374V173.332C223.255 173.094 223.591 172.506 223.591 171.778C223.591 171.134 223.283 170.7 222.975 170.42C222.401 169.902 221.673 169.846 221.183 169.846C220.133 169.846 219.489 170.14 219.195 170.308C219.097 170.364 218.845 170.518 218.845 170.7C218.845 170.742 218.859 170.784 218.887 170.826L219.349 171.54ZM230.99 173.542C230.99 170.91 229.492 169.846 227.952 169.846C226.412 169.846 224.914 170.91 224.914 173.542C224.914 176.174 226.412 177.238 227.952 177.238C229.492 177.238 230.99 176.174 230.99 173.542ZM227.952 175.838C226.86 175.838 226.804 174.606 226.804 173.542C226.804 172.478 226.888 171.246 227.952 171.246C229.016 171.246 229.1 172.478 229.1 173.542C229.1 174.62 229.03 175.838 227.952 175.838ZM235.002 177C235.842 177 236.654 176.986 237.326 176.538C237.928 176.146 238.082 175.53 238.082 175.04C238.082 174.074 237.494 173.486 236.738 173.332C237.452 173.108 237.858 172.506 237.858 171.792C237.858 171.106 237.494 170.672 237.172 170.448C236.626 170.084 235.716 170.084 234.904 170.084H232.762C232.58 170.084 232.566 170.126 232.566 170.28V176.804C232.566 176.986 232.608 177 232.762 177H235.002ZM234.344 171.386H235.044C235.478 171.386 236.08 171.428 236.08 172.058C236.08 172.296 235.982 172.814 235.086 172.814H234.344V171.386ZM234.344 174.074H235.268C235.52 174.074 236.304 174.088 236.304 174.872C236.304 175.614 235.632 175.698 235.114 175.698H234.344V174.074Z" fill="#85312C"/>
<g filter="url(#filter1_d)">
<path d="M18.8879 75.1871L303.708 38.8735L286.367 115.796L16.7429 125.141L18.8879 75.1871Z" fill="#DD1010"/>
<path d="M18.5085 72.2112L15.9992 72.5311L15.8907 75.0584L13.7457 125.012L13.6066 128.251L16.8468 128.139L286.471 118.794L288.784 118.714L289.294 116.456L306.635 39.5332L307.576 35.356L303.329 35.8975L18.5085 72.2112Z" stroke="#F7D431" stroke-width="6"/>
</g>
<g filter="url(#filter2_d)">
<path d="M89.5843 74.9267C89.2495 74.9554 89.2639 75.1017 89.2365 75.2516L87.7 88.9773C87.6914 89.1045 87.6787 89.1899 87.687 89.2735C87.7076 89.4825 87.8163 89.5153 88.0256 89.4973L91.4569 89.2026C93.1517 89.057 95.0601 88.7245 96.2507 87.1048C96.8083 86.3404 97.1676 85.2768 97.0583 84.1692C96.916 82.7272 96.0515 81.6633 94.8176 81.3478C95.2992 81.0957 95.8918 80.6865 96.3129 80.2499C96.9813 79.5391 97.3948 78.5974 97.2793 77.4271C96.9762 74.355 93.9572 74.5511 93.1202 74.6229L89.5843 74.9267ZM91.3226 80.7839L91.7572 76.8476L92.7615 76.7613C93.3473 76.711 94.4563 76.6157 94.5923 77.9951C94.6501 78.5802 94.5404 79.1797 94.2469 79.6265C93.7164 80.4518 92.8082 80.6563 92.0968 80.7174L91.3226 80.7839ZM90.6021 87.1685L91.0894 82.9115L92.2611 82.8108C92.9097 82.7551 94.0667 82.719 94.2213 84.2864C94.3121 85.2059 94.012 85.8007 93.7689 86.1167C93.1715 86.9056 92.255 87.0265 91.46 87.0948L90.6021 87.1685ZM101.149 73.9333C100.814 73.9621 100.829 74.1084 100.801 74.2583L99.2857 87.9822C99.2772 88.1094 99.2645 88.1948 99.2727 88.2784C99.2934 88.4874 99.4021 88.5202 99.6113 88.5022L103.336 88.1823C104.821 88.0547 106.684 87.684 107.818 86.1324C108.543 85.1428 108.802 83.7084 108.685 82.5172C108.551 81.1588 107.889 80.4359 107.454 80.0938C106.401 79.257 105.12 79.3248 104.263 79.3985L102.944 79.5117L103.504 74.279C103.513 74.1518 103.525 74.0664 103.517 73.9828C103.497 73.7738 103.388 73.741 103.179 73.759L101.149 73.9333ZM102.213 86.0026L102.686 81.8101L103.627 81.7292C104.213 81.6789 105.734 81.485 105.903 83.1987C105.961 83.7838 105.835 84.427 105.481 84.9C104.866 85.7325 103.824 85.8642 103.113 85.9253L102.213 86.0026ZM111.841 73.015C111.506 73.0438 111.52 73.19 111.493 73.3399L109.956 87.0657C109.948 87.1929 109.935 87.2783 109.943 87.3619C109.964 87.5709 110.073 87.6037 110.282 87.5857L112.312 87.4114C112.646 87.3826 112.632 87.2363 112.659 87.0864L114.196 73.3607C114.204 73.2335 114.217 73.1481 114.209 73.0645C114.188 72.8555 114.079 72.8227 113.87 72.8407L111.841 73.015ZM118.047 72.4819C117.713 72.5107 117.727 72.657 117.7 72.8068L116.163 86.5326C116.154 86.6598 116.142 86.7452 116.15 86.8288C116.171 87.0378 116.279 87.0706 116.489 87.0526L120.213 86.7327C121.698 86.6051 123.561 86.2344 124.695 84.6828C125.42 83.6931 125.68 82.2588 125.564 81.0885C125.422 79.6465 124.592 77.6523 121.14 77.9489L119.822 78.0621L120.209 74.7199L124.582 74.3443C124.708 74.3335 124.898 74.3383 124.995 74.0349L125.581 72.2774C125.615 72.1902 125.65 72.1239 125.64 72.0194C125.619 71.8105 125.412 71.8493 125.266 71.8619L118.047 72.4819ZM119.091 84.5529L119.563 80.3605L120.86 80.249C122.199 80.134 122.694 80.8713 122.783 81.77C122.839 82.3342 122.712 82.9773 122.358 83.4504C121.744 84.2829 120.702 84.4146 119.99 84.4757L119.091 84.5529ZM129.673 71.4833C129.339 71.5121 129.353 71.6584 129.326 71.8082L127.789 85.534C127.781 85.6612 127.768 85.7466 127.776 85.8302C127.797 86.0392 127.906 86.072 128.115 86.054L135.061 85.4574C135.396 85.4286 135.382 85.2823 135.409 85.1324L135.6 83.43C135.619 83.1965 135.305 83.2235 135.221 83.2307L130.723 83.6171L131.187 79.341L134.786 79.0319C135.058 79.0085 135.098 78.984 135.134 78.7069L135.297 77.1544C135.306 77.0272 135.344 76.771 134.988 76.8016L131.452 77.1053L131.857 73.5087L135.958 73.1565C136.104 73.1439 136.253 73.1522 136.37 72.8471L136.977 71.2986C137.009 71.1905 137.044 71.1242 137.036 71.0406C137.015 70.8316 136.808 70.8705 136.662 70.8831L129.673 71.4833ZM140.891 70.5198C140.556 70.5486 140.571 70.6949 140.543 70.8448L139.007 84.5705C138.998 84.6977 138.985 84.7831 138.994 84.8667C139.014 85.0757 139.123 85.1085 139.332 85.0905L141.362 84.9162C141.697 84.8874 141.682 84.7412 141.71 84.5913L142.324 79.0588L143.412 78.9654C146.99 78.6581 148.977 76.3377 148.674 73.2656C148.375 70.2353 146.164 70.067 144.657 70.1964L140.891 70.5198ZM142.583 76.7604L143.039 72.6115L144.106 72.5199C144.65 72.4732 145.85 72.4543 145.993 73.8963C146.063 74.6069 146.056 76.4621 143.21 76.7065L142.583 76.7604ZM158.893 68.9736C158.516 69.006 158.474 69.2203 158.329 69.4646L154.936 75.2779C154.559 75.9426 153.541 78.0322 153.279 78.5816L153.195 78.5888C153.498 76.0969 153.364 77.7313 153.586 75.71L154.239 69.9213C154.266 69.7714 154.258 69.6878 154.252 69.6252C154.231 69.4162 154.122 69.3834 153.913 69.4013L151.884 69.5756C151.549 69.6044 151.563 69.7507 151.536 69.9006L149.999 83.6263C149.991 83.7535 149.978 83.8389 149.986 83.9225C150.007 84.1315 150.116 84.1643 150.325 84.1463L152.25 83.981C152.543 83.9558 152.618 83.8651 152.78 83.5772L156.435 77.2145C156.974 76.262 157.425 75.4856 157.864 74.373L157.948 74.3658C157.84 74.9863 157.69 76.0319 157.62 76.6069L156.904 83.0333C156.895 83.1605 156.883 83.2459 156.891 83.3295C156.912 83.5384 157.02 83.5713 157.23 83.5533L159.259 83.379C159.594 83.3502 159.579 83.2039 159.607 83.054L161.143 69.3283C161.152 69.2011 161.165 69.1157 161.156 69.0321C161.136 68.8231 161.027 68.7903 160.818 68.8083L158.893 68.9736ZM79.3156 114.332L78.9893 117.226C78.9934 117.268 78.9955 117.289 78.9996 117.331C79.0058 117.393 78.9701 117.46 78.9763 117.522C78.9948 117.71 79.1056 117.764 79.3358 117.744L81.177 117.586C81.5118 117.558 81.5121 117.347 81.5248 117.261L82.0548 112.368C82.0634 112.241 82.0761 112.156 82.0678 112.072C82.0431 111.821 81.8757 111.836 81.7502 111.847L80.8505 111.924L82.1624 100.199C82.1709 100.071 82.1836 99.986 82.1754 99.9024C82.1547 99.6934 82.046 99.6606 81.8368 99.6785L75.0787 100.259C74.7439 100.288 74.7583 100.434 74.7309 100.584L74.5021 102.543C74.123 105.758 73.7481 107.518 73.5966 108.121C73.1966 109.841 72.6968 111.191 71.8118 112.7L71.205 112.752C70.8702 112.781 70.8596 112.887 70.8363 113.079L70.2853 117.974C70.2894 118.016 70.2915 118.036 70.2956 118.078C70.3018 118.141 70.2662 118.207 70.2723 118.27C70.2909 118.458 70.4017 118.512 70.6318 118.492L72.4731 118.334C72.8078 118.305 72.8081 118.094 72.8208 118.009L73.1643 114.86L79.3156 114.332ZM77.0798 102.363L79.2349 102.178L78.1096 112.159L74.4899 112.47C75.1023 111.406 75.4572 110.511 75.8315 109.173C76.2541 107.682 76.6122 105.965 76.8534 104.132L77.0798 102.363ZM89.6712 101.282L92.0355 101.079L90.7235 112.804C90.715 112.931 90.7023 113.017 90.7106 113.1C90.7312 113.309 90.8399 113.342 91.0492 113.324L93.0787 113.15C93.4135 113.121 93.399 112.975 93.4264 112.825L94.963 99.0991C94.9715 98.9719 94.9842 98.8865 94.976 98.8029C94.9553 98.5939 94.8466 98.5611 94.6374 98.5791L87.7537 99.1703C87.419 99.1991 87.4334 99.3454 87.406 99.4952L86.9888 102.966C86.8512 104.137 86.274 108.339 85.7635 109.795C85.3202 111.076 84.6521 111.576 83.7418 111.76L83.3903 111.832C83.1224 111.897 83.1074 112.173 83.1177 112.277L83.4078 114.149C83.4514 114.377 83.6377 114.34 83.7612 114.308L84.0918 114.238C85.745 113.885 86.7777 113.017 87.4192 112.034C88.2621 110.739 88.7337 108.676 89.3876 103.54L89.6712 101.282ZM102.788 97.879C101.595 97.9815 100.206 98.2273 99.1644 99.2229C98.2783 100.079 97.7993 101.427 97.9395 102.848C98.0942 104.415 98.9968 105.223 100 105.558L99.9878 105.644C98.7232 106.3 98.3722 107.447 98.1916 107.969L97.7671 109.227C97.4562 110.139 97.3678 110.526 96.6918 110.732L96.1392 110.906C95.8315 110.995 95.8563 111.246 95.8875 111.349L96.3162 112.914C96.3516 113.058 96.3471 113.227 96.7865 113.19C97.205 113.154 97.7387 113.002 98.1238 112.843C99.5242 112.28 99.8019 111.245 100.134 110.12L100.714 108.089C100.994 107.075 101.455 106.613 102.48 106.525L103.233 106.461L102.64 111.781C102.631 111.908 102.619 111.993 102.627 112.077C102.648 112.286 102.756 112.319 102.966 112.301L104.995 112.126C105.33 112.097 105.315 111.951 105.343 111.801L106.879 98.0755C106.888 97.9484 106.901 97.863 106.892 97.7794C106.872 97.5704 106.763 97.5376 106.554 97.5555L102.788 97.879ZM103.454 104.208L102.492 104.29C101.404 104.384 100.761 103.638 100.666 102.677C100.598 101.987 100.818 101.231 101.279 100.769C101.799 100.261 102.445 100.185 103.01 100.136L103.931 100.057L103.454 104.208ZM115.607 96.7779C115.273 96.8067 115.287 96.953 115.26 97.1028L113.723 110.829C113.715 110.956 113.702 111.041 113.71 111.125C113.731 111.334 113.839 111.367 114.049 111.349L117.48 111.054C119.175 110.908 121.083 110.576 122.274 108.956C122.831 108.192 123.191 107.128 123.081 106.02C122.939 104.578 122.075 103.515 120.841 103.199C121.322 102.947 121.915 102.538 122.336 102.101C123.004 101.39 123.418 100.449 123.303 99.2783C122.999 96.2062 119.98 96.4023 119.143 96.4742L115.607 96.7779ZM117.346 102.635L117.78 98.6988L118.785 98.6126C119.371 98.5623 120.479 98.467 120.616 99.8463C120.673 100.431 120.564 101.031 120.27 101.478C119.74 102.303 118.831 102.508 118.12 102.569L117.346 102.635ZM116.625 109.02L117.113 104.763L118.284 104.662C118.933 104.606 120.09 104.57 120.244 106.138C120.335 107.057 120.035 107.652 119.792 107.968C119.195 108.757 118.278 108.878 117.483 108.946L116.625 109.02ZM132.562 107.208C132.511 107.128 132.484 107.067 132.401 107.075C132.254 107.087 132.078 107.229 131.9 107.349C131.151 107.878 130.531 108.015 130.155 108.047C129.485 108.105 129.067 107.93 128.793 107.722C128.244 107.284 128.092 106.391 128.032 105.785C127.859 104.029 127.917 101.833 128.694 99.869C129.45 97.9073 130.603 97.4078 131.377 97.3413C131.942 97.2928 132.316 97.4503 132.883 97.8443C133.11 98.0144 133.292 98.1463 133.522 98.1265C133.648 98.1157 133.7 98.0059 133.719 97.9832L134.575 96.3922C134.592 96.3486 134.632 96.3241 134.623 96.2405C134.603 96.0315 134.352 95.8423 134.195 95.7504C133.225 95.1171 132.096 95.0034 131.301 95.0717C130.025 95.1813 127.693 95.7188 126.235 98.6892C125.198 100.802 124.936 103.269 125.175 105.693C125.288 106.843 125.643 108.73 127.05 109.726C127.708 110.196 128.62 110.455 129.687 110.364C130.733 110.274 131.89 109.816 132.669 109.37C132.929 109.221 133.327 108.976 133.304 108.746C133.298 108.684 133.269 108.602 133.244 108.562L132.562 107.208ZM137.205 94.9228C136.87 94.9516 136.885 95.0979 136.857 95.2478L135.321 108.974C135.312 109.101 135.3 109.186 135.308 109.27C135.328 109.479 135.437 109.512 135.646 109.494L142.593 108.897C142.928 108.868 142.913 108.722 142.941 108.572L143.131 106.87C143.151 106.636 142.837 106.663 142.753 106.67L138.255 107.057L138.719 102.78L142.318 102.471C142.59 102.448 142.629 102.424 142.665 102.146L142.829 100.594C142.837 100.467 142.875 100.211 142.52 100.241L138.984 100.545L139.388 96.9483L143.489 96.596C143.636 96.5835 143.784 96.5918 143.902 96.2866L144.509 94.7381C144.54 94.63 144.576 94.5637 144.568 94.4801C144.547 94.2712 144.34 94.31 144.193 94.3226L137.205 94.9228ZM155.432 93.3573C155.055 93.3897 155.013 93.6041 154.868 93.8483L151.475 99.6616C151.098 100.326 150.08 102.416 149.818 102.965L149.734 102.972C150.037 100.481 149.902 102.115 150.125 100.094L150.778 94.305C150.805 94.1552 150.797 94.0716 150.791 94.0089C150.77 93.7999 150.661 93.7671 150.452 93.785L148.423 93.9594C148.088 93.9881 148.102 94.1344 148.075 94.2843L146.538 108.01C146.53 108.137 146.517 108.223 146.525 108.306C146.546 108.515 146.655 108.548 146.864 108.53L148.789 108.365C149.082 108.34 149.157 108.249 149.319 107.961L152.974 101.598C153.513 100.646 153.964 99.8693 154.403 98.7567L154.487 98.7496C154.379 99.37 154.229 100.416 154.159 100.991L153.443 107.417C153.434 107.544 153.422 107.63 153.43 107.713C153.451 107.922 153.559 107.955 153.769 107.937L155.798 107.763C156.133 107.734 156.118 107.588 156.146 107.438L157.682 93.712C157.691 93.5848 157.704 93.4994 157.695 93.4158C157.675 93.2068 157.566 93.174 157.357 93.192L155.432 93.3573ZM150.313 90.0244C150.19 90.0561 149.989 90.1577 150.005 90.3249L150.02 90.4712C150.084 91.119 150.317 91.5626 150.532 91.8181C151.04 92.47 151.782 92.7224 152.766 92.6379C154.188 92.5157 155.127 91.7607 155.515 90.9897C155.674 90.681 155.88 89.9889 155.858 89.759C155.843 89.6127 155.693 89.5835 155.63 89.5889L154.421 89.5241C154.358 89.5295 154.314 89.5122 154.251 89.5176C154.021 89.5374 153.996 89.7081 153.931 89.9034C153.737 90.5101 153.396 90.8978 152.789 90.9499C152.057 91.0128 151.919 90.4766 151.87 89.975L151.866 89.9332C151.845 89.7243 151.74 89.7332 151.41 89.8038L150.313 90.0244ZM171.792 103.839C171.742 103.759 171.715 103.698 171.631 103.705C171.485 103.718 171.309 103.859 171.131 103.98C170.381 104.508 169.762 104.645 169.385 104.678C168.716 104.735 168.297 104.56 168.024 104.352C167.474 103.915 167.323 103.021 167.263 102.415C167.09 100.66 167.147 98.463 167.924 96.4995C168.68 94.5377 169.834 94.0382 170.608 93.9717C171.173 93.9232 171.547 94.0807 172.113 94.4747C172.341 94.6448 172.523 94.7767 172.753 94.7569C172.878 94.7462 172.931 94.6363 172.95 94.6136L173.806 93.0226C173.822 92.979 173.862 92.9545 173.854 92.8709C173.833 92.662 173.583 92.4727 173.426 92.3808C172.456 91.7476 171.327 91.6338 170.531 91.7021C169.255 91.8117 166.924 92.3492 165.466 95.3196C164.429 97.4319 164.166 99.8993 164.405 102.324C164.519 103.473 164.874 105.36 166.28 106.357C166.938 106.827 167.85 107.086 168.917 106.994C169.963 106.904 171.121 106.447 171.9 106C172.16 105.852 172.557 105.607 172.535 105.377C172.528 105.314 172.499 105.232 172.474 105.192L171.792 103.839ZM180.292 93.6457L182.887 93.4229C183.033 93.4103 183.182 93.4186 183.3 93.1134L183.969 91.3488C183.984 91.2843 184.02 91.218 184.03 91.1117C184.028 91.0908 184.026 91.0699 184.024 91.049C183.987 90.8836 183.78 90.9225 183.654 90.9333L175.097 91.6683C174.72 91.7006 174.774 91.8224 174.749 91.9932L174.548 93.5912C174.52 93.741 174.508 93.8264 174.516 93.91C174.541 94.1608 174.748 94.1219 174.894 94.1094L177.573 93.8793L176.246 105.458C176.219 105.608 176.227 105.692 176.233 105.755C176.254 105.964 176.363 105.996 176.572 105.978L178.601 105.804C178.936 105.775 178.922 105.629 178.949 105.479L180.292 93.6457ZM186.121 90.7214C185.786 90.7502 185.8 90.8964 185.773 91.0463L184.236 104.772C184.228 104.899 184.215 104.985 184.223 105.068C184.244 105.277 184.353 105.31 184.562 105.292L186.592 105.118C186.926 105.089 186.912 104.943 186.939 104.793L187.554 99.2604L188.642 99.1669C192.22 98.8596 194.206 96.5393 193.903 93.4672C193.604 90.4369 191.393 90.2685 189.887 90.3979L186.121 90.7214ZM187.813 96.962L188.268 92.8131L189.335 92.7215C189.879 92.6747 191.08 92.6559 191.223 94.0979C191.293 94.8084 191.286 96.6637 188.44 96.9081L187.813 96.962ZM198.859 89.6273C198.754 89.6363 198.585 89.6297 198.501 89.8477L192.962 104.065C192.928 104.152 192.872 104.22 192.884 104.345C192.894 104.45 192.969 104.57 193.179 104.552L195.334 104.367C195.627 104.342 195.673 104.169 195.723 104.038L196.988 100.389L200.545 100.084L201.044 103.645C201.048 103.686 201.087 103.873 201.339 103.851L203.535 103.662C203.64 103.653 203.912 103.63 203.862 103.339L201.279 89.7777C201.225 89.4451 201.077 89.4368 200.868 89.4548L198.859 89.6273ZM200.296 98.2081L197.493 98.4489L198.987 93.9157C199.117 93.5252 199.272 93.1746 199.411 92.4461L199.453 92.4425C199.507 92.9859 199.648 93.9854 199.71 94.4016L200.296 98.2081ZM207.207 88.9103C206.872 88.939 206.887 89.0853 206.859 89.2352L205.323 102.961C205.314 103.088 205.302 103.174 205.31 103.257C205.331 103.466 205.439 103.499 205.648 103.481L207.678 103.307C208.013 103.278 207.998 103.132 208.026 102.982L208.689 96.876L212.539 96.5453L211.893 102.397C211.884 102.524 211.871 102.609 211.88 102.693C211.9 102.902 212.009 102.935 212.218 102.917L214.248 102.742C214.583 102.714 214.568 102.567 214.596 102.417L216.132 88.6916C216.141 88.5645 216.153 88.4791 216.145 88.3955C216.124 88.1865 216.016 88.1537 215.807 88.1716L213.777 88.346C213.442 88.3747 213.457 88.521 213.429 88.6709L212.798 94.2469L208.969 94.5758L209.562 89.2559C209.571 89.1287 209.584 89.0434 209.575 88.9598C209.555 88.7508 209.446 88.718 209.237 88.7359L207.207 88.9103ZM219.977 87.8134C219.642 87.8422 219.657 87.9885 219.629 88.1384L218.114 101.862C218.105 101.99 218.092 102.075 218.101 102.158C218.121 102.367 218.23 102.4 218.439 102.382L222.164 102.062C223.649 101.935 225.512 101.564 226.646 100.012C227.371 99.0229 227.63 97.5885 227.513 96.3973C227.379 95.0389 226.717 94.316 226.282 93.9739C225.229 93.1371 223.948 93.2049 223.09 93.2786L221.772 93.3918L222.332 88.1591C222.341 88.0319 222.353 87.9465 222.345 87.8629C222.325 87.6539 222.216 87.6211 222.007 87.6391L219.977 87.8134ZM221.041 99.8827L221.514 95.6902L222.455 95.6093C223.041 95.559 224.562 95.3651 224.731 97.0788C224.789 97.6639 224.663 98.3071 224.308 98.7801C223.694 99.6126 222.652 99.7443 221.941 99.8054L221.041 99.8827ZM230.669 86.8951C230.334 86.9239 230.348 87.0701 230.321 87.22L228.784 100.946C228.776 101.073 228.763 101.158 228.771 101.242C228.792 101.451 228.901 101.484 229.11 101.466L231.14 101.291C231.474 101.263 231.46 101.116 231.487 100.967L233.024 87.2408C233.032 87.1136 233.045 87.0282 233.037 86.9446C233.016 86.7356 232.907 86.7028 232.698 86.7208L230.669 86.8951Z" fill="#F7D431"/>
<path d="M169.885 68.0295C169.55 68.0583 169.564 68.2045 169.537 68.3544L168 82.0802C167.992 82.2074 167.979 82.2928 167.988 82.3764C168.008 82.5853 168.117 82.6182 168.326 82.6002L170.356 82.4259C170.69 82.3971 170.676 82.2508 170.703 82.1009L171.367 75.9952L175.217 75.6646L174.57 81.5159C174.562 81.6431 174.549 81.7285 174.557 81.8121C174.578 82.0211 174.687 82.0539 174.896 82.0359L176.925 81.8616C177.26 81.8328 177.246 81.6865 177.273 81.5366L178.81 67.8109C178.818 67.6837 178.831 67.5983 178.823 67.5147C178.802 67.3057 178.693 67.2729 178.484 67.2909L176.455 67.4652C176.12 67.494 176.134 67.6403 176.107 67.7901L175.475 73.3662L171.646 73.6951L172.24 68.3752C172.248 68.248 172.261 68.1626 172.253 68.079C172.232 67.87 172.124 67.8372 171.914 67.8552L169.885 68.0295ZM190.93 70.3949C190.819 69.2664 190.298 65.9179 186.741 66.2234C185.381 66.3402 183.15 67.0376 181.721 70.0899C180.764 72.1532 180.469 74.9394 180.709 77.3637C181.069 81.0209 183.181 81.6825 184.876 81.537C186.843 81.368 188.813 80.1661 189.961 77.6859C190.88 75.668 191.148 72.6101 190.93 70.3949ZM185.12 79.3031C183.886 79.4091 183.645 78.2496 183.56 77.3927C183.405 75.8253 183.436 73.3568 184.165 71.1234C184.47 70.1488 185.159 68.5723 186.56 68.4519C187.837 68.3422 188.008 69.6552 188.076 70.3449C188.239 71.9959 188.259 74.3336 187.515 76.6315C187.191 77.6288 186.543 79.1809 185.12 79.3031ZM194.771 65.892C194.436 65.9207 194.451 66.067 194.423 66.2169L192.887 79.9427C192.878 80.0698 192.866 80.1552 192.874 80.2388C192.895 80.4478 193.003 80.4806 193.212 80.4627L196.644 80.1679C198.339 80.0224 200.247 79.6898 201.438 78.0701C201.995 77.3057 202.355 76.2421 202.245 75.1345C202.103 73.6925 201.238 72.6287 200.005 72.3131C200.486 72.061 201.079 71.6518 201.5 71.2152C202.168 70.5045 202.582 69.5627 202.466 68.3924C202.163 65.3203 199.144 65.5164 198.307 65.5883L194.771 65.892ZM196.51 71.7492L196.944 67.8129L197.948 67.7266C198.534 67.6763 199.643 67.5811 199.779 68.9604C199.837 69.5455 199.727 70.1451 199.434 70.5918C198.903 71.4171 197.995 71.6216 197.284 71.6827L196.51 71.7492ZM195.789 78.1338L196.276 73.8768L197.448 73.7762C198.097 73.7205 199.254 73.6843 199.408 75.2517C199.499 76.1712 199.199 76.766 198.956 77.082C198.358 77.8709 197.442 77.9918 196.647 78.0601L195.789 78.1338ZM206.336 64.8986C206.001 64.9274 206.016 65.0737 205.988 65.2236L204.473 78.9475C204.464 79.0747 204.451 79.1601 204.46 79.2437C204.48 79.4527 204.589 79.4855 204.798 79.4675L208.523 79.1476C210.008 79.0201 211.871 78.6493 213.005 77.0977C213.73 76.1081 213.989 74.6737 213.872 73.4825C213.738 72.1241 213.076 71.4012 212.641 71.0592C211.588 70.2223 210.307 70.2901 209.449 70.3638L208.131 70.477L208.691 65.2443C208.7 65.1171 208.712 65.0317 208.704 64.9481C208.684 64.7392 208.575 64.7064 208.366 64.7243L206.336 64.8986ZM207.4 76.9679L207.873 72.7754L208.814 72.6945C209.4 72.6442 210.921 72.4503 211.09 74.164C211.148 74.7492 211.022 75.3923 210.667 75.8653C210.053 76.6978 209.011 76.8295 208.3 76.8906L207.4 76.9679ZM217.028 63.9803C216.693 64.0091 216.707 64.1554 216.68 64.3052L215.143 78.031C215.135 78.1582 215.122 78.2436 215.13 78.3272C215.151 78.5362 215.26 78.569 215.469 78.551L217.498 78.3767C217.833 78.3479 217.819 78.2016 217.846 78.0518L219.383 64.326C219.391 64.1988 219.404 64.1134 219.396 64.0298C219.375 63.8208 219.266 63.788 219.057 63.806L217.028 63.9803ZM230.243 62.8452C229.867 62.8775 229.825 63.0919 229.68 63.3362L226.287 69.1495C225.909 69.8141 224.891 71.9037 224.629 72.4532L224.545 72.4603C224.848 69.9685 224.714 71.6028 224.937 69.5815L225.589 63.7929C225.617 63.643 225.609 63.5594 225.602 63.4967C225.582 63.2877 225.473 63.2549 225.264 63.2729L223.234 63.4472C222.899 63.476 222.914 63.6223 222.887 63.7722L221.35 77.4979C221.341 77.6251 221.329 77.7105 221.337 77.7941C221.358 78.0031 221.466 78.0359 221.676 78.0179L223.6 77.8526C223.893 77.8274 223.969 77.7366 224.13 77.4488L227.786 71.0861C228.325 70.1335 228.776 69.3572 229.215 68.2446L229.298 68.2374C229.191 68.8579 229.041 69.9034 228.971 70.4785L228.255 76.9049C228.246 77.0321 228.233 77.1174 228.242 77.201C228.262 77.41 228.371 77.4428 228.58 77.4249L230.61 77.2505C230.944 77.2218 230.93 77.0755 230.957 76.9256L232.494 63.1999C232.503 63.0727 232.515 62.9873 232.507 62.9037C232.486 62.6947 232.378 62.6619 232.168 62.6799L230.243 62.8452ZM225.125 59.5123C225.001 59.544 224.8 59.6455 224.817 59.8127L224.831 59.959C224.895 60.6069 225.129 61.0505 225.344 61.306C225.851 61.9579 226.594 62.2103 227.577 62.1258C229 62.0036 229.938 61.2486 230.326 60.4776C230.486 60.1688 230.692 59.4767 230.669 59.2468C230.655 59.1006 230.504 59.0713 230.441 59.0767L229.232 59.012C229.169 59.0174 229.126 59.0001 229.063 59.0055C228.833 59.0252 228.807 59.196 228.742 59.3913C228.549 59.998 228.207 60.3856 227.601 60.4377C226.868 60.5006 226.731 59.9645 226.681 59.4629L226.677 59.4211C226.657 59.2121 226.552 59.2211 226.221 59.2917L225.125 59.5123ZM241.214 61.9029C240.88 61.9316 240.894 62.0779 240.867 62.2278L239.33 75.9536C239.322 76.0807 239.309 76.1661 239.317 76.2497C239.338 76.4587 239.447 76.4915 239.656 76.4736L243.087 76.1788C244.782 76.0333 246.69 75.7007 247.881 74.081C248.438 73.3166 248.798 72.253 248.688 71.1454C248.546 69.7034 247.682 68.6396 246.448 68.324C246.929 68.0719 247.522 67.6627 247.943 67.2261C248.611 66.5154 249.025 65.5736 248.91 64.4033C248.606 61.3312 245.587 61.5273 244.75 61.5992L241.214 61.9029ZM242.953 67.7601L243.387 63.8238L244.392 63.7375C244.978 63.6872 246.086 63.592 246.223 64.9713C246.28 65.5564 246.171 66.156 245.877 66.6027C245.347 67.4281 244.438 67.6325 243.727 67.6936L242.953 67.7601ZM242.232 74.1447L242.72 69.8877L243.891 69.7871C244.54 69.7314 245.697 69.6952 245.852 71.2626C245.942 72.1821 245.642 72.777 245.399 73.0929C244.802 73.8819 243.885 74.0027 243.09 74.071L242.232 74.1447ZM252.884 60.9006C252.717 60.9149 252.467 60.9574 252.423 61.3617L250.886 75.0874C250.842 75.4917 251.095 75.491 251.262 75.4766L253.166 75.3131C253.606 75.2754 253.602 75.0228 253.627 74.852L254.301 68.8508L255.515 68.7466C256.812 68.6351 256.909 69.4066 256.971 70.0335L257.239 72.5396C257.361 73.7726 257.617 74.6568 258.744 74.9605C259.071 75.0589 259.667 75.1131 260.085 75.0771C260.336 75.0556 260.543 75.0167 260.64 74.7133L261.195 73.0639C261.31 72.7379 261.176 72.6651 261.028 72.6568L260.43 72.5817C259.79 72.5102 259.736 71.9668 259.664 71.2354L259.47 69.4817C259.358 68.564 259.087 67.7442 257.916 67.4233L257.91 67.3606C259.128 66.8766 259.581 66.1211 259.861 65.1065L260.28 63.5742C260.53 62.6886 260.706 62.3363 261.359 62.1116L261.788 61.9693C261.993 61.9096 262.081 61.7334 262.038 61.5053L261.745 60.0341C261.701 59.806 261.469 59.8049 261.323 59.8175C260.779 59.8642 260.027 60.1606 259.531 60.4772C258.499 61.1349 258.229 62.0432 257.996 62.8852L257.481 64.7209C257.094 66.1451 256.464 66.3889 255.585 66.4644L254.56 66.5524L255.164 61.1262C255.172 60.9991 255.248 60.6975 254.788 60.737L252.884 60.9006ZM268.148 67.8933C268.003 66.852 267.729 65.3581 267.644 64.9228L266.605 59.9539C266.526 59.5813 266.58 59.4923 265.98 59.6071L264.092 59.9378C263.843 59.9803 263.571 60.0037 263.594 60.2336C263.6 60.2963 263.586 60.3607 263.65 60.587L266.03 69.951C266.069 70.1373 266.174 70.1283 266.237 70.1229L267.576 70.0079L267.33 70.7245C267.183 71.1586 266.719 72.2312 265.61 72.3264C265.254 72.357 264.907 72.2603 264.642 72.1356C264.397 72.0091 264.192 71.8581 264.046 71.8707C263.962 71.8778 263.864 71.9495 263.83 72.0367L263.043 73.685C262.712 74.3879 264.975 74.6571 265.644 74.5996C266.732 74.5062 267.474 74.1053 267.957 73.6633C268.655 73.0344 269.01 72.1398 269.295 71.3987L273.697 59.7662C273.714 59.7226 273.729 59.6581 273.746 59.6145C273.743 59.5936 273.764 59.5918 273.762 59.5709C273.798 59.5047 273.836 59.4593 273.83 59.3966C273.807 59.1667 273.556 59.1882 273.407 59.1799L271.585 59.1046C271.225 59.0934 271.208 59.3477 271.107 59.6093L269.276 64.7826C268.667 66.521 268.326 67.5619 268.232 67.8861L268.148 67.8933ZM280.624 70.4046C280.574 70.3246 280.547 70.2637 280.463 70.2709C280.317 70.2834 280.141 70.425 279.963 70.5457C279.213 71.0737 278.594 71.2112 278.217 71.2436C277.547 71.3011 277.129 71.1263 276.856 70.9179C276.306 70.4804 276.155 69.5872 276.095 68.9811C275.922 67.2256 275.979 65.0288 276.756 63.0653C277.512 61.1035 278.665 60.604 279.44 60.5375C280.004 60.489 280.379 60.6466 280.945 61.0405C281.173 61.2106 281.355 61.3425 281.585 61.3228C281.71 61.312 281.763 61.2021 281.782 61.1794L282.638 59.5884C282.654 59.5448 282.694 59.5204 282.686 59.4368C282.665 59.2278 282.414 59.0386 282.258 58.9466C281.288 58.3134 280.158 58.1996 279.363 58.2679C278.087 58.3775 275.756 58.915 274.297 61.8855C273.261 63.9977 272.998 66.4651 273.237 68.8893C273.351 70.0388 273.706 71.9261 275.112 72.9223C275.77 73.3927 276.682 73.6516 277.749 73.5599C278.795 73.4701 279.953 73.0124 280.732 72.5661C280.991 72.4174 281.389 72.1724 281.367 71.9425C281.36 71.8798 281.331 71.7981 281.306 71.7581L280.624 70.4046Z" fill="white"/>
</g>
<defs>
<filter id="filter0_d" x="32.7346" y="96" width="251.649" height="111.336" filterUnits="userSpaceOnUse" color-interpolation-filters="sRGB">
<feFlood flood-opacity="0" result="BackgroundImageFix"/>
<feColorMatrix in="SourceAlpha" type="matrix" values="0 0 0 0 0 0 0 0 0 0 0 0 0 0 0 0 0 0 127 0"/>
<feOffset/>
<feGaussianBlur stdDeviation="4"/>
<feColorMatrix type="matrix" values="0 0 0 0 0 0 0 0 0 0 0 0 0 0 0 0 0 0 0.45 0"/>
<feBlend mode="normal" in2="BackgroundImageFix" result="effect1_dropShadow"/>
<feBlend mode="normal" in="SourceGraphic" in2="effect1_dropShadow" result="shape"/>
</filter>
<filter id="filter1_d" x="0.325073" y="0.927185" width="319.12" height="161.178" filterUnits="userSpaceOnUse" color-interpolation-filters="sRGB">
<feFlood flood-opacity="0" result="BackgroundImageFix"/>
<feColorMatrix in="SourceAlpha" type="matrix" values="0 0 0 0 0 0 0 0 0 0 0 0 0 0 0 0 0 0 127 0"/>
<feOffset/>
<feGaussianBlur stdDeviation="4"/>
<feColorMatrix type="matrix" values="0 0 0 0 0 0 0 0 0 0 0 0 0 0 0 0 0 0 0.45 0"/>
<feBlend mode="normal" in2="BackgroundImageFix" result="effect1_dropShadow"/>
<feBlend mode="normal" in="SourceGraphic" in2="effect1_dropShadow" result="shape"/>
</filter>
<filter id="filter2_d" x="57.2716" y="45.2505" width="238.415" height="86.2454" filterUnits="userSpaceOnUse" color-interpolation-filters="sRGB">
<feFlood flood-opacity="0" result="BackgroundImageFix"/>
<feColorMatrix in="SourceAlpha" type="matrix" values="0 0 0 0 0 0 0 0 0 0 0 0 0 0 0 0 0 0 127 0"/>
<feOffset/>
<feGaussianBlur stdDeviation="6.5"/>
<feColorMatrix type="matrix" values="0 0 0 0 0 0 0 0 0 0 0 0 0 0 0 0 0 0 0.6 0"/>
<feBlend mode="normal" in2="BackgroundImageFix" result="effect1_dropShadow"/>
<feBlend mode="normal" in="SourceGraphic" in2="effect1_dropShadow" result="shape"/>
</filter>
</defs>
</svg>
