<svg width="20" height="20" viewBox="0 0 20 20" fill="none" xmlns="http://www.w3.org/2000/svg">
<mask id="mask0" mask-type="alpha" maskUnits="userSpaceOnUse" x="0" y="0" width="20" height="20">
<path d="M10 20C15.5228 20 20 15.5228 20 10C20 4.47715 15.5228 0 10 0C4.47715 0 0 4.47715 0 10C0 15.5228 4.47715 20 10 20Z" fill="#F1F1F1"/>
</mask>
<g mask="url(#mask0)">
<path d="M10 20C15.5228 20 20 15.5228 20 10C20 4.47715 15.5228 0 10 0C4.47715 0 0 4.47715 0 10C0 15.5228 4.47715 20 10 20Z" fill="#F1F1F1"/>
<path d="M11.25 0H8.75V8.75H0V11.25H8.75V20H11.25V11.25H20V8.75H11.25V0Z" fill="#FF0000"/>
<path d="M15.7483 6.05696C15.7245 6.41325 15.7008 6.76954 15.6295 7.10209C15.7958 7.07833 15.9858 7.07833 16.1521 7.07833C16.3183 7.07833 16.5083 7.07833 16.6746 7.10209C16.6034 6.76954 16.5796 6.41325 16.5559 6.05696C16.9122 6.08071 17.2684 6.10446 17.601 6.17572C17.5772 6.00945 17.5772 5.84318 17.5772 5.65315C17.5772 5.48688 17.5772 5.29686 17.601 5.13059C17.2684 5.20185 16.9122 5.2256 16.5559 5.24935C16.5796 4.89306 16.6034 4.53677 16.6746 4.20422C16.5083 4.22798 16.3183 4.22798 16.1521 4.22798C15.9858 4.22798 15.7958 4.22798 15.6295 4.20422C15.7008 4.53677 15.7245 4.89306 15.7483 5.24935C15.392 5.2256 15.0357 5.20185 14.7031 5.13059C14.7269 5.29686 14.7269 5.48688 14.7269 5.65315C14.7269 5.81943 14.7269 6.00945 14.7031 6.17572C15.0594 6.12821 15.4157 6.08071 15.7483 6.05696Z" fill="#FF0000"/>
<path d="M3.46798 6.05696C3.44423 6.41325 3.42048 6.76954 3.34922 7.10209C3.51549 7.07833 3.70551 7.07833 3.87178 7.07833C4.03805 7.07833 4.22808 7.07833 4.39435 7.10209C4.32309 6.76954 4.29934 6.41325 4.27558 6.05696C4.63188 6.08071 4.98817 6.10446 5.32071 6.17572C5.29696 6.00945 5.29696 5.81943 5.29696 5.65315C5.29696 5.48688 5.29696 5.29686 5.32071 5.13059C4.98817 5.20185 4.63188 5.2256 4.27558 5.24935C4.29934 4.89306 4.32309 4.53677 4.39435 4.20422C4.22808 4.22798 4.03805 4.22798 3.87178 4.22798C3.70551 4.22798 3.51549 4.22798 3.34922 4.20422C3.42048 4.53677 3.44423 4.89306 3.46798 5.24935C3.11169 5.2256 2.75539 5.20185 2.42285 5.13059C2.4466 5.29686 2.4466 5.48688 2.4466 5.65315C2.4466 5.81943 2.4466 6.00945 2.42285 6.17572C2.75539 6.12821 3.11169 6.08071 3.46798 6.05696Z" fill="#FF0000"/>
<path d="M16.5559 13.943C16.5796 13.5867 16.6034 13.2304 16.6746 12.8978C16.5083 12.9216 16.3183 12.9216 16.1521 12.9216C15.9858 12.9216 15.7958 12.9216 15.6295 12.8978C15.7008 13.2304 15.7245 13.5867 15.7483 13.943C15.392 13.9192 15.0357 13.8955 14.7031 13.8242C14.7269 13.9905 14.7269 14.1805 14.7269 14.3468C14.7269 14.513 14.7269 14.7031 14.7031 14.8693C15.0357 14.7981 15.392 14.7743 15.7483 14.7506C15.7245 15.1069 15.7008 15.4631 15.6295 15.7957C15.7958 15.7719 15.9858 15.7719 16.1521 15.7719C16.3183 15.7719 16.5083 15.7719 16.6746 15.7957C16.6271 15.4394 16.5796 15.0831 16.5559 14.7268C16.9122 14.7506 17.2684 14.7743 17.601 14.8456C17.5772 14.6793 17.5772 14.513 17.5772 14.3468C17.5772 14.1805 17.5772 13.9905 17.601 13.8242C17.2684 13.8717 16.9122 13.9192 16.5559 13.943Z" fill="#FF0000"/>
<path d="M5.27316 14.3468C5.27316 14.1805 5.27316 13.9905 5.29691 13.8242C4.96437 13.8955 4.60807 13.9192 4.25178 13.943C4.27553 13.5867 4.29929 13.2304 4.37054 12.8978C4.20427 12.9216 4.01425 12.9216 3.84798 12.9216C3.68171 12.9216 3.49168 12.9216 3.32541 12.8978C3.39667 13.2304 3.42043 13.5867 3.44418 13.943C3.08788 13.9192 2.73159 13.8955 2.39905 13.8242C2.4228 13.9905 2.4228 14.1805 2.4228 14.3468C2.4228 14.513 2.4228 14.7031 2.39905 14.8693C2.73159 14.7981 3.08788 14.7743 3.44418 14.7506C3.42043 15.1069 3.39667 15.4631 3.32541 15.7957C3.49168 15.7719 3.68171 15.7719 3.84798 15.7719C4.01425 15.7719 4.20427 15.7719 4.37054 15.7957C4.32304 15.4394 4.29929 15.0831 4.27553 14.7268C4.63183 14.7506 4.98812 14.7743 5.32066 14.8456C5.29691 14.6793 5.27316 14.513 5.27316 14.3468Z" fill="#FF0000"/>
</g>
</svg>
