<svg width="73" height="69" viewBox="0 0 73 69" fill="none" xmlns="http://www.w3.org/2000/svg">
<path d="M0 38.7286L36.5 0.89209L73 35.3182V68.5H0V38.7286Z" fill="#EC9E04" fill-opacity="0.8"/>
<path d="M54.75 42.7841L37.2935 24.5341L18.25 42.7841" stroke="white" stroke-width="2" stroke-linecap="round"/>
<path d="M15.2512 58.74C15.2512 58.987 15.3812 59 15.5112 59H16.7592C16.8892 59 17.0192 58.987 17.0192 58.74V55.074H19.4762V58.74C19.4762 58.987 19.6062 59 19.7362 59H20.9842C21.2312 59 21.2442 58.87 21.2442 58.74V50.355C21.2442 50.225 21.2312 50.095 20.9842 50.095H19.7362C19.6062 50.095 19.4762 50.108 19.4762 50.355V53.67H17.0192V50.355C17.0192 50.108 16.8892 50.095 16.7592 50.095H15.5112C15.3812 50.095 15.2512 50.108 15.2512 50.355V58.74ZM25.465 50.095C25.296 50.095 25.283 50.173 25.244 50.29L22.657 58.74C22.631 58.818 22.579 59 22.852 59H24.243C24.412 59 24.425 58.935 24.477 58.727L25.01 56.621H27.246L27.818 58.727C27.896 58.987 27.935 59 28.091 59H29.534C29.599 59 29.742 58.987 29.742 58.844C29.742 58.779 29.716 58.74 29.703 58.688L27.155 50.303C27.116 50.173 27.09 50.095 26.96 50.095H25.465ZM26.921 55.451H25.205L25.777 53.215C26.011 52.318 26.05 51.837 26.063 51.486H26.102C26.206 52.383 26.297 52.825 26.388 53.215L26.921 55.451ZM31.3931 50.095C31.2761 50.095 31.1331 50.121 31.1331 50.355V58.74C31.1331 58.857 31.1591 59 31.3931 59H33.5511C34.9681 59 36.7751 58.753 36.7751 56.543C36.7751 54.918 35.6701 54.463 35.1501 54.333C35.8001 54.06 36.4761 53.501 36.4761 52.37C36.4761 51.486 36.0731 50.901 35.6831 50.602C35.0461 50.121 34.0841 50.095 33.4471 50.095H31.3931ZM32.9011 53.774V51.46H33.4471C34.6431 51.46 34.7211 52.201 34.7211 52.552C34.7211 53.644 33.9281 53.774 33.3041 53.774H32.9011ZM32.9011 57.635V55.139H33.3951C33.9021 55.139 35.0201 55.139 35.0201 56.4C35.0201 57.531 34.1361 57.635 33.3691 57.635H32.9011ZM40.4802 55.061H42.6642C42.7812 55.061 42.9242 55.035 42.9242 54.801V53.917C42.9242 53.8 42.8982 53.657 42.6642 53.657H40.4802V51.499H43.0412C43.2362 51.499 43.2752 51.369 43.2882 51.304L43.5482 50.329C43.5612 50.277 43.5742 50.212 43.5352 50.16C43.4962 50.108 43.4312 50.095 43.3792 50.095H38.9722C38.8552 50.095 38.7122 50.121 38.7122 50.355V58.74C38.7122 58.857 38.7382 59 38.9722 59H43.1842C43.3012 59 43.4442 58.974 43.4442 58.74V57.856C43.4442 57.622 43.3012 57.596 43.1842 57.596H40.4802V55.061ZM46.9421 51.46H47.5141C48.0081 51.46 48.8401 51.473 48.8401 52.669C48.8401 53.93 48.0991 54.034 47.3451 54.034H46.9421V51.46ZM46.9421 55.438H47.6311C49.4771 55.438 50.6081 54.294 50.6081 52.578C50.6081 51.317 50.0491 50.732 49.5551 50.459C48.9571 50.121 48.1511 50.095 47.5661 50.095H45.4341C45.3171 50.095 45.1741 50.121 45.1741 50.355V58.74C45.1741 58.857 45.2001 59 45.4341 59H46.6821C46.9161 59 46.9421 58.857 46.9421 58.74V55.438ZM57.764 58.766C57.868 58.74 58.011 58.701 58.011 58.584C58.011 58.519 57.959 58.428 57.92 58.363L55.606 54.281L57.673 50.641C57.712 50.563 57.725 50.537 57.725 50.511C57.725 50.394 57.595 50.368 57.478 50.329L56.295 50.004C56.256 49.991 56.165 49.978 56.139 49.978C56.048 49.978 55.996 50.043 55.97 50.095C55.944 50.147 55.931 50.186 55.905 50.238L55.06 52.058C54.956 52.292 54.826 52.565 54.696 53.046H54.67C54.605 52.786 54.501 52.5 54.28 52.058L53.318 50.134C53.279 50.056 53.253 49.978 53.149 49.978C53.123 49.978 53.084 49.978 52.98 50.004L51.68 50.29C51.563 50.316 51.446 50.329 51.446 50.446C51.446 50.524 51.511 50.602 51.563 50.693L53.76 54.281L51.342 58.402C51.264 58.532 51.251 58.584 51.251 58.636C51.251 58.766 51.407 58.792 51.511 58.818L52.707 59.091C52.811 59.117 52.85 59.117 52.863 59.117C52.954 59.117 52.993 59.065 53.032 59C53.058 58.961 53.084 58.935 53.097 58.896L54.306 56.608C54.41 56.413 54.553 56.114 54.67 55.789H54.696C54.787 56.075 54.878 56.27 55.073 56.66L56.191 58.857C56.269 59.013 56.308 59.052 56.321 59.065C56.373 59.117 56.464 59.13 56.568 59.104L57.764 58.766Z" fill="white"/>
</svg>
