<svg width="238" height="70" viewBox="0 0 238 70" fill="none" xmlns="http://www.w3.org/2000/svg">
<path d="M11 22C11 16.4772 15.4635 12 20.9863 12C29.3952 12 43.6917 12 66 12C90.5406 12 105.386 8.43337 113.363 5.56019C117.953 3.90706 123.863 4.20066 128.434 5.9058C135.954 8.71126 150.26 12 176 12C199.084 12 212.971 12 221.016 12C226.539 12 231 16.4772 231 22V51C231 56.5228 226.534 61 221.011 61C212.857 61 198.854 61 176 61C149.599 61 135.009 64.2967 127.604 66.8996C123.488 68.3463 118.442 68.471 114.315 67.0541C106.671 64.4292 91.755 61 66 61C43.5459 61 29.3307 61 20.9898 61C15.467 61 11 56.5228 11 51V22Z" fill="#010000"/>
<path d="M11 20C11 14.4772 15.4635 10 20.9863 10C29.3952 10 43.6917 10 66 10C90.5406 10 105.386 6.43337 113.363 3.56019C117.953 1.90706 123.863 2.20066 128.434 3.9058C135.954 6.71126 150.26 10 176 10C199.084 10 212.971 10 221.016 10C226.539 10 231 14.4772 231 20V49C231 54.5228 226.534 59 221.011 59C212.857 59 198.854 59 176 59C149.599 59 135.009 62.2967 127.604 64.8996C123.488 66.3463 118.442 66.471 114.315 65.0541C106.671 62.4292 91.755 59 66 59C43.5459 59 29.3307 59 20.9898 59C15.467 59 11 54.5228 11 49V20Z" fill="#D72627"/>
</svg>
