<svg width="174" height="70" viewBox="0 0 174 70" fill="none" xmlns="http://www.w3.org/2000/svg">
<path d="M0 22C0 16.4772 4.46653 12 9.98938 12C16.826 12 27.5853 12 43.5 12C59.8927 12 70.8157 9.45588 77.6161 6.93412C83.0269 4.92768 90.7332 5.26873 96.1465 7.26853C102.663 9.67589 113.386 12 130.5 12C146.895 12 157.424 12 164.009 12C169.532 12 174 16.4772 174 22V51C174 56.5228 169.526 61 164.003 61C157.344 61 146.751 61 130.5 61C112.657 61 101.635 63.4074 95.1507 65.732C90.2319 67.4955 83.6665 67.6433 78.7454 65.8865C72.1032 63.5153 60.9458 61 43.5 61C27.4904 61 16.7764 61 9.98781 61C4.46496 61 0 56.5228 0 51V22Z" fill="#E9C1C1"/>
<path d="M0 20C0 14.4772 4.46653 10 9.98938 10C16.826 10 27.5853 10 43.5 10C59.8927 10 70.8157 7.45588 77.6161 4.93412C83.0269 2.92768 90.7332 3.26873 96.1465 5.26853C102.663 7.67589 113.386 10 130.5 10C146.895 10 157.424 10 164.009 10C169.532 10 174 14.4772 174 20V49C174 54.5228 169.526 59 164.003 59C157.344 59 146.751 59 130.5 59C112.657 59 101.635 61.4074 95.1507 63.732C90.2319 65.4955 83.6665 65.6433 78.7454 63.8865C72.1032 61.5153 60.9458 59 43.5 59C27.4904 59 16.7764 59 9.98781 59C4.46496 59 0 54.5228 0 49V20Z" fill="#FFD7D7"/>
</svg>
