<svg width="1050" height="267" viewBox="0 0 1050 267" fill="none" xmlns="http://www.w3.org/2000/svg">
<g filter="url(#filter0_d)">
<path d="M65.8385 100.55L970.277 50.483L931.106 144.353L19 184.26L65.8385 100.55Z" fill="#DD1010"/>
<path d="M65.6727 97.5545L64.0259 97.6456L63.2205 99.085L16.382 182.796L13.7537 187.493L19.1311 187.258L931.237 147.35L933.141 147.267L933.875 145.509L973.046 51.6383L974.889 47.2232L970.112 47.4876L65.6727 97.5545Z" stroke="#F7D431" stroke-width="6"/>
</g>
<g filter="url(#filter1_d)">
<path d="M132.136 164.382L703.965 154.338L689.19 225.708L101 224.424L132.136 164.382Z" fill="white"/>
</g>
<g filter="url(#filter2_d)">
<path d="M151.644 116.595C150.941 116.626 150.954 116.934 150.88 117.245L146.085 145.859C146.053 146.125 146.016 146.303 146.024 146.479C146.043 146.918 146.267 146.997 146.706 146.978L153.915 146.665C157.476 146.511 161.505 145.984 164.181 142.698C165.435 141.146 166.309 138.95 166.208 136.62C166.077 133.587 164.392 131.282 161.848 130.511C162.884 130.026 164.17 129.221 165.101 128.344C166.581 126.915 167.554 124.979 167.447 122.517C167.167 116.055 160.832 116.198 159.073 116.274L151.644 116.595ZM154.605 129.019L155.967 120.812L158.077 120.721C159.308 120.668 161.637 120.567 161.763 123.468C161.816 124.699 161.518 125.945 160.853 126.855C159.648 128.536 157.726 128.884 156.231 128.949L154.605 129.019ZM152.362 142.328L153.872 133.455L156.333 133.348C157.696 133.289 160.12 133.316 160.262 136.613C160.346 138.548 159.65 139.767 159.105 140.407C157.765 142.006 155.835 142.178 154.165 142.25L152.362 142.328ZM175.942 115.543C175.239 115.574 175.252 115.881 175.177 116.193L170.427 144.805C170.394 145.071 170.358 145.249 170.365 145.425C170.384 145.864 170.608 145.943 171.048 145.923L178.872 145.585C181.993 145.449 185.931 144.839 188.481 141.689C190.111 139.681 190.819 136.699 190.711 134.194C190.587 131.336 189.286 129.763 188.416 129.008C186.31 127.162 183.625 127.19 181.823 127.268L179.053 127.388L180.827 116.477C180.859 116.211 180.896 116.033 180.888 115.858C180.869 115.418 180.645 115.34 180.206 115.359L175.942 115.543ZM176.776 140.919L178.248 132.179L180.226 132.093C181.457 132.04 184.66 131.769 184.816 135.374C184.869 136.605 184.531 137.941 183.736 138.9C182.355 140.589 180.161 140.772 178.667 140.837L176.776 140.919ZM198.405 114.571C197.701 114.601 197.715 114.909 197.64 115.22L192.846 143.834C192.813 144.1 192.777 144.278 192.784 144.454C192.803 144.893 193.027 144.972 193.467 144.953L197.731 144.768C198.434 144.738 198.421 144.43 198.495 144.118L203.29 115.504C203.322 115.238 203.359 115.061 203.351 114.885C203.332 114.445 203.108 114.367 202.669 114.386L198.405 114.571ZM211.445 114.006C210.741 114.036 210.755 114.344 210.68 114.656L205.886 143.27C205.853 143.535 205.817 143.713 205.824 143.889C205.843 144.329 206.067 144.407 206.507 144.388L214.331 144.049C217.452 143.914 221.39 143.303 223.94 140.154C225.57 138.145 226.278 135.164 226.171 132.702C226.04 129.669 224.535 125.418 217.282 125.732L214.512 125.852L215.708 118.886L224.895 118.488C225.159 118.477 225.557 118.504 225.794 117.877L227.222 114.248C227.302 114.068 227.385 113.932 227.375 113.712C227.356 113.273 226.918 113.336 226.611 113.349L211.445 114.006ZM212.235 139.383L213.707 130.644L216.432 130.526C219.245 130.404 220.195 131.992 220.277 133.882C220.328 135.069 219.99 136.405 219.195 137.364C217.814 139.054 215.62 139.237 214.126 139.302L212.235 139.383ZM235.871 112.948C235.168 112.979 235.181 113.286 235.106 113.598L230.312 142.212C230.279 142.478 230.243 142.655 230.251 142.831C230.27 143.271 230.493 143.349 230.933 143.33L245.527 142.698C246.231 142.668 246.217 142.36 246.292 142.049L246.887 138.499C246.954 138.012 246.294 138.041 246.119 138.048L236.667 138.458L238.131 129.542L245.692 129.214C246.263 129.19 246.349 129.142 246.457 128.565L246.977 125.327C247.01 125.062 247.119 124.528 246.371 124.561L238.942 124.882L240.203 117.385L248.819 117.012C249.127 116.998 249.436 117.029 249.717 116.4L251.165 113.211C251.243 112.987 251.325 112.851 251.318 112.676C251.299 112.236 250.861 112.299 250.553 112.312L235.871 112.948ZM259.439 111.928C258.736 111.958 258.749 112.266 258.674 112.577L253.88 141.191C253.847 141.457 253.811 141.635 253.818 141.811C253.837 142.25 254.061 142.329 254.501 142.31L258.765 142.125C259.468 142.095 259.455 141.787 259.529 141.475L261.452 129.941L263.738 129.842C271.255 129.517 275.676 124.833 275.397 118.371C275.121 111.997 270.516 111.448 267.351 111.585L259.439 111.928ZM262.258 125.15L263.689 116.5L265.931 116.403C267.073 116.353 269.587 116.421 269.718 119.454C269.783 120.949 269.555 124.834 263.576 125.093L262.258 125.15ZM297.261 110.29C296.469 110.324 296.356 110.769 296.026 111.268L288.26 123.143C287.394 124.502 285.025 128.788 284.414 129.916L284.238 129.924C285.158 124.731 284.689 128.142 285.388 123.928L287.419 111.861C287.494 111.549 287.486 111.374 287.481 111.242C287.462 110.802 287.238 110.724 286.798 110.743L282.534 110.927C281.831 110.958 281.844 111.266 281.77 111.577L276.975 140.191C276.943 140.457 276.906 140.635 276.914 140.811C276.933 141.25 277.157 141.329 277.596 141.31L281.64 141.134C282.256 141.108 282.424 140.924 282.795 140.336L291.172 127.333C292.409 125.386 293.441 123.8 294.487 121.508L294.663 121.501C294.367 122.791 293.932 124.967 293.72 126.166L291.482 139.563C291.449 139.829 291.413 140.007 291.42 140.182C291.439 140.622 291.663 140.7 292.103 140.681L296.367 140.497C297.07 140.466 297.057 140.159 297.131 139.847L301.926 111.233C301.958 110.967 301.995 110.789 301.987 110.614C301.968 110.174 301.744 110.096 301.305 110.115L297.261 110.29ZM317.918 114.46L323.369 114.224C323.677 114.211 323.987 114.241 324.268 113.612L325.872 109.976C325.91 109.842 325.992 109.706 326.027 109.485C326.025 109.441 326.023 109.397 326.021 109.353C325.962 109.003 325.524 109.066 325.26 109.077L307.281 109.856C306.49 109.89 306.589 110.15 306.517 110.506L305.912 113.835C305.837 114.146 305.801 114.324 305.809 114.5C305.832 115.027 306.269 114.964 306.577 114.951L312.204 114.707L308.096 138.844C308.021 139.155 308.029 139.331 308.035 139.463C308.054 139.903 308.277 139.981 308.717 139.962L312.981 139.777C313.684 139.747 313.671 139.439 313.746 139.128L317.918 114.46ZM330.443 108.853C329.739 108.883 329.753 109.191 329.678 109.503L324.883 138.117C324.851 138.382 324.815 138.56 324.822 138.736C324.841 139.176 325.065 139.254 325.504 139.235L340.099 138.603C340.802 138.573 340.789 138.265 340.863 137.953L341.458 134.404C341.525 133.917 340.866 133.945 340.69 133.953L331.239 134.362L332.703 125.447L340.264 125.119C340.835 125.094 340.921 125.047 341.028 124.47L341.549 121.232C341.581 120.966 341.69 120.433 340.943 120.465L333.514 120.787L334.775 113.29L343.391 112.917C343.698 112.903 344.008 112.934 344.289 112.305L345.736 109.115C345.815 108.892 345.897 108.756 345.889 108.58C345.87 108.141 345.433 108.204 345.125 108.217L330.443 108.853ZM626.823 126.187L625.808 132.22C625.811 132.308 625.813 132.352 625.817 132.44C625.823 132.572 625.741 132.708 625.746 132.84C625.763 133.235 625.989 133.358 626.472 133.337L630.341 133.169C631.044 133.139 631.069 132.697 631.105 132.519L632.778 122.318C632.81 122.052 632.847 121.874 632.839 121.698C632.816 121.171 632.464 121.186 632.201 121.197L630.31 121.279L634.405 96.8353C634.437 96.5697 634.474 96.3919 634.466 96.2161C634.447 95.7765 634.223 95.6981 633.784 95.7171L619.585 96.332C618.882 96.3624 618.895 96.6702 618.82 96.9817L618.116 101.064C616.953 107.765 615.966 111.419 615.58 112.669C614.546 116.237 613.345 119.019 611.32 122.102L610.045 122.157C609.342 122.187 609.308 122.409 609.237 122.808L607.521 133.012C607.524 133.1 607.526 133.144 607.53 133.232C607.536 133.364 607.454 133.5 607.459 133.632C607.477 134.027 607.702 134.149 608.186 134.129L612.054 133.961C612.757 133.931 612.782 133.489 612.819 133.311L613.9 126.746L626.823 126.187ZM623.527 100.918L628.055 100.722L624.552 121.529L616.947 121.858C618.35 119.683 619.195 117.841 620.132 115.07C621.188 111.985 622.134 108.421 622.85 104.602L623.527 100.918ZM649.981 99.7722L654.949 99.5571L650.854 124.001C650.822 124.267 650.786 124.444 650.793 124.62C650.812 125.06 651.036 125.138 651.475 125.119L655.739 124.935C656.443 124.904 656.429 124.596 656.504 124.285L661.299 95.6707C661.331 95.4051 661.367 95.2273 661.36 95.0515C661.341 94.6119 661.117 94.5335 660.678 94.5525L646.215 95.1788C645.512 95.2093 645.525 95.517 645.451 95.8285L644.178 103.062C643.756 105.503 642.064 114.252 640.829 117.256C639.755 119.901 638.3 120.889 636.375 121.193L635.632 121.313C635.064 121.426 635.001 122.001 635.011 122.221L635.402 126.168C635.467 126.649 635.86 126.588 636.122 126.533L636.822 126.414C640.319 125.823 642.579 124.095 644.034 122.094C645.945 119.457 647.169 115.176 649.128 104.477L649.981 99.7722ZM677.801 93.811C675.296 93.9195 672.362 94.3108 670.07 96.3038C668.118 98.0179 666.961 100.799 667.091 103.788C667.234 107.085 669.028 108.857 671.088 109.648L671.052 109.826C668.332 111.089 667.466 113.461 667.028 114.537L665.995 117.136C665.24 119.018 665.011 119.821 663.573 120.191L662.398 120.506C661.744 120.667 661.767 121.194 661.82 121.412L662.537 124.728C662.594 125.034 662.565 125.388 663.488 125.348C664.367 125.31 665.501 125.04 666.325 124.74C669.318 123.686 670.018 121.542 670.842 119.216L672.289 115.013C672.991 112.913 674.008 111.988 676.162 111.895L677.745 111.826L675.891 122.917C675.858 123.183 675.822 123.36 675.829 123.536C675.848 123.976 676.072 124.054 676.512 124.035L680.776 123.85C681.479 123.82 681.466 123.512 681.54 123.201L686.335 94.5866C686.367 94.3209 686.404 94.1432 686.396 93.9673C686.377 93.5277 686.153 93.4493 685.714 93.4684L677.801 93.811ZM678.466 107.127L676.444 107.214C674.158 107.313 672.899 105.694 672.811 103.672C672.748 102.221 673.297 100.656 674.314 99.7314C675.459 98.7129 676.82 98.61 678.007 98.5586L679.941 98.4748L678.466 107.127ZM704.779 92.6428C704.076 92.6732 704.089 92.9809 704.015 93.2925L699.22 121.907C699.188 122.172 699.151 122.35 699.159 122.526C699.178 122.966 699.402 123.044 699.841 123.025L704.105 122.84C704.808 122.81 704.795 122.502 704.87 122.191L709.073 97.2133L716.722 96.8821L712.584 121.328C712.509 121.64 712.517 121.815 712.522 121.947C712.541 122.387 712.765 122.465 713.205 122.446L717.469 122.262C718.172 122.231 718.159 121.923 718.233 121.612L723.028 92.9976C723.06 92.732 723.097 92.5542 723.089 92.3784C723.07 91.9388 722.846 91.8604 722.407 91.8794L704.779 92.6428ZM739.533 91.1378C737.027 91.2463 734.093 91.6376 731.801 93.6307C729.849 95.3447 728.693 98.1253 728.822 101.115C728.965 104.411 730.759 106.183 732.819 106.975L732.783 107.153C730.063 108.416 729.197 110.787 728.759 111.863L727.727 114.462C726.971 116.345 726.742 117.148 725.304 117.518L724.129 117.833C723.475 117.994 723.498 118.521 723.552 118.739L724.268 122.055C724.325 122.361 724.296 122.715 725.219 122.675C726.099 122.637 727.232 122.367 728.056 122.067C731.049 121.013 731.749 118.869 732.573 116.543L734.021 112.34C734.722 110.24 735.739 109.315 737.893 109.222L739.476 109.153L737.622 120.244C737.589 120.509 737.553 120.687 737.561 120.863C737.58 121.303 737.803 121.381 738.243 121.362L742.507 121.177C743.21 121.147 743.197 120.839 743.272 120.528L748.066 91.9134C748.099 91.6477 748.135 91.47 748.127 91.2941C748.108 90.8546 747.885 90.7762 747.445 90.7952L739.533 91.1378ZM740.197 104.454L738.175 104.541C735.889 104.64 734.63 103.021 734.542 100.999C734.48 99.5483 735.028 97.9831 736.045 97.0582C737.19 96.0398 738.551 95.9368 739.738 95.8854L741.672 95.8016L740.197 104.454ZM764.074 95.1398L769.525 94.9038C769.833 94.8905 770.143 94.9211 770.424 94.2924L772.028 90.6555C772.066 90.5218 772.148 90.3861 772.183 90.1644C772.181 90.1204 772.179 90.0765 772.177 90.0325C772.118 89.6827 771.68 89.7457 771.416 89.7572L753.437 90.5357C752.646 90.57 752.745 90.8299 752.673 91.1854L752.068 94.5147C751.994 94.8262 751.957 95.0039 751.965 95.1798C751.988 95.7073 752.425 95.6443 752.733 95.631L758.36 95.3873L754.252 119.524C754.178 119.835 754.185 120.011 754.191 120.143C754.21 120.582 754.433 120.661 754.873 120.642L759.137 120.457C759.84 120.427 759.827 120.119 759.902 119.807L764.074 95.1398ZM776.599 89.5327C775.895 89.5632 775.909 89.8709 775.834 90.1824L771.04 118.797C771.007 119.062 770.971 119.24 770.978 119.416C770.997 119.855 771.221 119.934 771.661 119.915L786.255 119.283C786.958 119.252 786.945 118.945 787.019 118.633L787.614 115.084C787.681 114.597 787.022 114.625 786.846 114.633L777.395 115.042L778.859 106.127L786.42 105.799C786.991 105.774 787.077 105.727 787.184 105.149L787.705 101.912C787.737 101.646 787.846 101.113 787.099 101.145L779.67 101.467L780.931 93.9695L789.547 93.5964C789.854 93.5831 790.164 93.6137 790.445 92.9849L791.892 89.7953C791.971 89.5717 792.053 89.4361 792.045 89.2602C792.026 88.8206 791.589 88.8836 791.281 88.8969L776.599 89.5327ZM800.166 88.5122C799.463 88.5426 799.476 88.8503 799.402 89.1619L794.607 117.776C794.575 118.042 794.538 118.219 794.546 118.395C794.565 118.835 794.789 118.913 795.228 118.894L799.492 118.71C800.196 118.679 800.182 118.371 800.257 118.06L802.18 106.526L804.466 106.427C811.983 106.101 816.404 101.418 816.124 94.9558C815.848 88.5818 811.244 88.0325 808.079 88.1695L800.166 88.5122ZM802.985 101.735L804.416 93.0846L806.658 92.9875C807.801 92.938 810.314 93.0054 810.446 96.0385C810.51 97.5331 810.282 101.419 804.304 101.678L802.985 101.735ZM840.123 95.5021C840.021 93.1283 839.319 86.0681 831.846 86.3917C828.988 86.5154 824.242 87.7779 820.902 94.0443C818.664 98.2811 817.726 104.091 817.947 109.19C818.28 116.883 822.62 118.457 826.181 118.303C830.313 118.124 834.572 115.781 837.258 110.688C839.412 106.543 840.325 100.162 840.123 95.5021ZM826.948 113.645C824.354 113.757 823.984 111.307 823.906 109.505C823.763 106.208 824.112 101.04 825.894 96.4265C826.644 94.4122 828.265 91.171 831.21 91.0435C833.892 90.9274 834.1 93.693 834.162 95.1436C834.313 98.6164 834.084 103.515 832.264 108.262C831.473 110.322 829.937 113.516 826.948 113.645ZM847.796 86.4497C847.004 86.4839 846.851 87.0191 846.779 87.3745L844.997 98.1096C844.888 98.6429 844.911 99.1704 844.934 99.6979C844.997 101.149 845.281 102.634 846.747 103.935C848.348 105.319 850.202 105.415 851.653 105.352C853.323 105.28 855.202 104.935 857.536 103.909L855.611 115.399C855.539 115.754 855.386 116.289 856.309 116.249L860.353 116.074C860.749 116.057 861.23 115.992 861.37 115.149L866.164 86.5351C866.239 86.2235 866.302 85.6483 865.423 85.6863L861.379 85.8615C860.544 85.8976 860.478 86.4289 860.406 86.7844L858.347 99.2492C856.539 100.208 855.096 100.447 853.953 100.496C852.766 100.548 850.906 100.32 850.819 98.298C850.798 97.8144 850.821 97.329 850.93 96.7957L852.537 87.1252C852.608 86.7257 852.719 86.2365 851.84 86.2745L847.796 86.4497ZM874.437 85.296C874.085 85.3112 873.56 85.378 873.42 86.2209L868.625 114.835C868.486 115.678 869.015 115.699 869.367 115.684L873.367 115.511C874.29 115.471 874.311 114.941 874.384 114.586L876.485 102.075L879.034 101.965C881.76 101.847 881.874 103.471 881.931 104.79L882.204 110.063C882.316 112.657 882.75 114.532 885.072 115.268C885.742 115.503 886.983 115.67 887.862 115.632C888.389 115.609 888.827 115.546 889.064 114.919L890.414 111.513C890.693 110.841 890.422 110.676 890.112 110.646L888.87 110.435C887.54 110.228 887.49 109.086 887.424 107.547L887.22 103.856C887.092 101.924 886.62 100.183 884.209 99.4065L884.203 99.2746C886.806 98.3691 887.84 96.8269 888.542 94.7266L889.594 91.5541C890.219 89.7214 890.628 88.999 892.02 88.5864L892.933 88.3266C893.369 88.2197 893.574 87.8585 893.509 87.3768L893.066 84.2691C893.001 83.7875 892.516 83.7644 892.208 83.7778C891.065 83.8273 889.459 84.3812 888.385 85.0003C886.151 86.2862 885.483 88.1648 884.898 89.9077L883.609 93.7071C882.636 96.6559 881.29 97.1106 879.444 97.1905L877.29 97.2838L879.179 85.9715C879.211 85.7058 879.404 85.0809 878.437 85.1228L874.437 85.296ZM915.174 83.532C914.382 83.5662 914.27 84.0115 913.939 84.5103L906.173 96.3854C905.307 97.7441 902.939 102.031 902.327 103.158L902.151 103.166C903.071 97.9731 902.602 101.385 903.301 97.1704L905.332 85.1032C905.407 84.7917 905.399 84.6158 905.394 84.484C905.375 84.0444 905.151 83.966 904.712 83.985L900.448 84.1697C899.744 84.2001 899.757 84.5078 899.683 84.8193L894.888 113.434C894.856 113.699 894.819 113.877 894.827 114.053C894.846 114.492 895.07 114.571 895.509 114.552L899.554 114.377C900.169 114.35 900.337 114.167 900.708 113.578L909.085 100.575C910.322 98.628 911.355 97.0418 912.4 94.7504L912.576 94.7428C912.28 96.0329 911.846 98.2097 911.633 99.408L909.395 112.805C909.362 113.071 909.326 113.249 909.333 113.425C909.353 113.864 909.576 113.943 910.016 113.924L914.28 113.739C914.983 113.708 914.97 113.401 915.044 113.089L919.839 84.475C919.871 84.2094 919.908 84.0316 919.9 83.8558C919.881 83.4162 919.658 83.3378 919.218 83.3568L915.174 83.532Z" fill="#F7D431"/>
<path d="M364.27 107.388C363.567 107.418 363.58 107.726 363.506 108.038L358.711 136.652C358.679 136.918 358.642 137.095 358.65 137.271C358.669 137.711 358.893 137.789 359.332 137.77L363.596 137.585C364.299 137.555 364.286 137.247 364.361 136.936L366.452 124.205L374.54 123.855L372.514 136.054C372.482 136.32 372.445 136.498 372.453 136.673C372.472 137.113 372.696 137.191 373.135 137.172L377.399 136.988C378.103 136.957 378.089 136.65 378.164 136.338L382.958 107.724C382.991 107.458 383.027 107.28 383.02 107.105C383.001 106.665 382.777 106.587 382.337 106.606L378.073 106.79C377.37 106.821 377.383 107.128 377.309 107.44L375.346 119.064L367.301 119.412L369.155 108.322C369.188 108.056 369.224 107.878 369.217 107.702C369.197 107.263 368.974 107.184 368.534 107.203L364.27 107.388ZM408.005 114.214C407.902 111.841 407.2 104.78 399.727 105.104C396.87 105.228 392.124 106.49 388.784 112.757C386.545 116.993 385.608 122.803 385.828 127.903C386.162 135.595 390.502 137.169 394.062 137.015C398.194 136.836 402.453 134.493 405.139 129.401C407.294 125.255 408.207 118.874 408.005 114.214ZM394.83 132.357C392.236 132.47 391.866 130.019 391.788 128.217C391.645 124.92 391.994 119.752 393.776 115.139C394.525 113.124 396.147 109.883 399.092 109.756C401.773 109.64 401.981 112.405 402.044 113.856C402.194 117.329 401.966 122.227 400.146 126.974C399.354 129.034 397.819 132.228 394.83 132.357ZM416.556 105.124C415.853 105.154 415.866 105.462 415.792 105.774L410.997 134.388C410.965 134.653 410.928 134.831 410.936 135.007C410.955 135.447 411.178 135.525 411.618 135.506L418.827 135.194C422.388 135.04 426.417 134.513 429.093 131.226C430.347 129.674 431.221 127.478 431.12 125.149C430.989 122.115 429.304 119.81 426.76 119.039C427.796 118.554 429.082 117.75 430.013 116.873C431.493 115.443 432.466 113.507 432.359 111.046C432.079 104.584 425.744 104.726 423.985 104.802L416.556 105.124ZM419.516 117.547L420.879 109.341L422.989 109.249C424.22 109.196 426.549 109.095 426.675 111.997C426.728 113.227 426.43 114.473 425.765 115.383C424.56 117.065 422.638 117.412 421.143 117.477L419.516 117.547ZM417.274 130.857L418.784 121.983L421.245 121.877C422.608 121.818 425.032 121.845 425.174 125.142C425.258 127.076 424.562 128.295 424.017 128.935C422.677 130.535 420.747 130.706 419.076 130.779L417.274 130.857ZM440.854 104.072C440.15 104.102 440.164 104.41 440.089 104.721L435.339 133.334C435.306 133.599 435.27 133.777 435.277 133.953C435.296 134.393 435.52 134.471 435.959 134.452L443.784 134.113C446.905 133.978 450.842 133.367 453.393 130.218C455.023 128.209 455.731 125.228 455.622 122.722C455.499 119.865 454.197 118.292 453.328 117.537C451.222 115.69 448.537 115.718 446.734 115.796L443.965 115.916L445.739 105.005C445.771 104.74 445.808 104.562 445.8 104.386C445.781 103.946 445.557 103.868 445.118 103.887L440.854 104.072ZM441.688 129.447L443.16 120.707L445.138 120.622C446.369 120.569 449.572 120.298 449.728 123.902C449.781 125.133 449.443 126.469 448.648 127.428C447.267 129.118 445.073 129.301 443.579 129.365L441.688 129.447ZM463.317 103.099C462.613 103.129 462.627 103.437 462.552 103.749L457.758 132.363C457.725 132.629 457.689 132.806 457.696 132.982C457.715 133.422 457.939 133.5 458.378 133.481L462.642 133.296C463.346 133.266 463.333 132.958 463.407 132.647L468.202 104.032C468.234 103.767 468.271 103.589 468.263 103.413C468.244 102.974 468.02 102.895 467.581 102.914L463.317 103.099ZM491.083 101.897C490.292 101.931 490.179 102.376 489.848 102.875L482.083 114.75C481.216 116.109 478.848 120.395 478.236 121.523L478.06 121.53C478.98 116.338 478.511 119.749 479.21 115.535L481.242 103.468C481.316 103.156 481.309 102.98 481.303 102.849C481.284 102.409 481.06 102.331 480.621 102.35L476.357 102.534C475.653 102.565 475.667 102.872 475.592 103.184L470.797 131.798C470.765 132.064 470.729 132.242 470.736 132.417C470.755 132.857 470.979 132.935 471.418 132.916L475.463 132.741C476.078 132.715 476.246 132.531 476.617 131.943L484.995 118.94C486.231 116.993 487.264 115.406 488.31 113.115L488.485 113.107C488.189 114.397 487.755 116.574 487.542 117.773L485.304 131.17C485.271 131.436 485.235 131.613 485.243 131.789C485.262 132.229 485.485 132.307 485.925 132.288L490.189 132.104C490.892 132.073 490.879 131.765 490.953 131.454L495.748 102.84C495.781 102.574 495.817 102.396 495.809 102.22C495.79 101.781 495.567 101.702 495.127 101.721L491.083 101.897ZM480.763 94.4601C480.502 94.5154 480.07 94.7103 480.085 95.062L480.098 95.3697C480.157 96.7324 480.595 97.6824 481.015 98.2367C482.001 99.6474 483.524 100.242 485.59 100.153C488.579 100.023 490.629 98.5251 491.529 96.9446C491.898 96.3121 492.409 94.8807 492.388 94.3971C492.374 94.0894 492.063 94.0148 491.931 94.0205L489.41 93.7774C489.278 93.7831 489.188 93.7429 489.056 93.7486C488.573 93.7696 488.5 94.125 488.342 94.5283C487.867 95.782 487.108 96.5635 485.834 96.6187C484.295 96.6854 484.07 95.55 484.024 94.495L484.02 94.4071C484.001 93.9675 483.781 93.977 483.082 94.0954L480.763 94.4601ZM514.133 100.898C513.429 100.929 513.443 101.237 513.368 101.548L508.574 130.162C508.541 130.428 508.505 130.606 508.512 130.782C508.531 131.221 508.755 131.3 509.195 131.281L516.404 130.968C519.964 130.814 523.993 130.287 526.67 127C527.924 125.449 528.798 123.253 528.697 120.923C528.565 117.89 526.88 115.585 524.336 114.814C525.372 114.329 526.659 113.524 527.59 112.647C529.069 111.218 530.042 109.282 529.936 106.82C529.656 100.358 523.32 100.501 521.562 100.577L514.133 100.898ZM517.093 113.322L518.455 105.115L520.565 105.024C521.796 104.971 524.126 104.87 524.252 107.771C524.305 109.002 524.006 110.248 523.341 111.158C522.137 112.839 520.214 113.187 518.719 113.252L517.093 113.322ZM514.851 126.631L516.36 117.758L518.822 117.651C520.185 117.592 522.608 117.619 522.751 120.916C522.835 122.851 522.139 124.07 521.594 124.71C520.254 126.309 518.323 126.481 516.653 126.553L514.851 126.631ZM538.65 99.8368C538.298 99.852 537.773 99.9188 537.633 100.762L532.839 129.376C532.699 130.219 533.228 130.24 533.58 130.225L537.58 130.051C538.503 130.011 538.524 129.482 538.597 129.126L540.698 116.616L543.248 116.505C545.973 116.387 546.087 118.012 546.144 119.331L546.417 124.604C546.529 127.198 546.963 129.073 549.285 129.809C549.955 130.044 551.196 130.21 552.075 130.172C552.603 130.15 553.04 130.087 553.277 129.46L554.627 126.054C554.906 125.381 554.635 125.217 554.325 125.186L553.083 124.976C551.753 124.769 551.703 123.626 551.637 122.088L551.433 118.397C551.305 116.465 550.834 114.724 548.422 113.947L548.416 113.815C551.019 112.91 552.053 111.368 552.755 109.267L553.807 106.095C554.432 104.262 554.841 103.54 556.233 103.127L557.146 102.867C557.582 102.76 557.787 102.399 557.722 101.918L557.279 98.8098C557.214 98.3282 556.729 98.3052 556.421 98.3185C555.278 98.368 553.673 98.922 552.598 99.541C550.364 100.827 549.697 102.706 549.111 104.448L547.823 108.248C546.849 111.197 545.504 111.651 543.657 111.731L541.503 111.825L543.392 100.512C543.424 100.247 543.617 99.6216 542.65 99.6635L538.65 99.8368ZM569.763 115.842C569.579 113.648 569.179 110.494 569.051 109.575L567.451 99.074C567.329 98.2866 567.453 98.105 566.184 98.2921L562.199 98.817C561.673 98.8838 561.102 98.9086 561.123 99.3921C561.129 99.524 561.09 99.6578 561.199 100.137L565.097 119.963C565.158 120.357 565.377 120.348 565.509 120.342L568.323 120.22L567.726 121.699C567.369 122.596 566.275 124.801 563.945 124.902C563.198 124.934 562.483 124.701 561.942 124.416C561.445 124.129 561.034 123.795 560.727 123.808C560.551 123.816 560.337 123.957 560.257 124.137L558.421 127.519C557.647 128.962 562.348 129.727 563.755 129.667C566.041 129.568 567.637 128.794 568.7 127.911C570.231 126.656 571.076 124.813 571.758 123.286L582.303 99.3117C582.343 99.2219 582.382 99.0881 582.422 98.9983C582.42 98.9543 582.464 98.9524 582.462 98.9085C582.544 98.7728 582.628 98.681 582.622 98.5492C582.602 98.0656 582.074 98.0885 581.764 98.0578L577.963 97.738C577.212 97.6824 577.147 98.2138 576.906 98.7527L572.48 109.426C571.005 113.013 570.174 115.163 569.938 115.834L569.763 115.842ZM595.562 122.212C595.466 122.039 595.417 121.91 595.241 121.917C594.933 121.93 594.549 122.211 594.163 122.448C592.534 123.488 591.223 123.721 590.432 123.755C589.025 123.816 588.171 123.412 587.623 122.952C586.524 121.986 586.31 120.102 586.255 118.827C586.095 115.134 586.468 110.538 588.319 106.494C590.126 102.452 592.596 101.508 594.222 101.438C595.409 101.387 596.173 101.75 597.312 102.625C597.769 103.002 598.134 103.295 598.618 103.274C598.881 103.262 599.004 103.037 599.046 102.991L601.019 99.7344C601.059 99.6446 601.145 99.5968 601.137 99.421C601.118 98.9814 600.616 98.5627 600.298 98.3563C598.343 96.9435 595.995 96.6048 594.324 96.6772C591.643 96.7933 586.706 97.7117 583.314 103.804C580.903 108.137 580.069 113.281 580.29 118.381C580.395 120.798 580.92 124.783 583.746 126.995C585.068 128.039 586.945 128.662 589.187 128.565C591.385 128.47 593.858 127.614 595.538 126.749C596.098 126.46 596.958 125.983 596.938 125.499C596.932 125.367 596.88 125.193 596.832 125.107L595.562 122.212Z" fill="white"/>
</g>
<path d="M289.166 176.72H291.182C291.31 176.72 291.454 176.688 291.518 176.464L291.87 175.136C291.902 175.024 291.982 174.8 291.662 174.8H284.862C284.622 174.8 284.622 174.976 284.622 175.04V176.48C284.622 176.544 284.622 176.72 284.862 176.72H286.99V185.44C286.99 185.584 287.022 185.76 287.31 185.76H288.846C288.99 185.76 289.166 185.728 289.166 185.44V176.72ZM294.061 185.616L294.125 185.648C294.285 185.728 294.717 186.032 295.725 186.032C298.605 186.032 298.669 182.944 298.669 181.744C298.669 178.24 297.101 177.584 295.853 177.584C295.213 177.584 294.525 177.792 293.853 178.416C293.805 178.272 293.773 178.128 293.709 177.984C293.533 177.504 293.373 177.552 293.117 177.632L291.901 178.032C291.821 178.064 291.725 178.112 291.725 178.208C291.725 178.256 291.741 178.304 291.789 178.464C291.901 178.8 292.029 179.328 292.029 180.704V188.912C292.029 189.216 292.157 189.168 292.285 189.136L293.757 188.832C294.077 188.768 294.061 188.688 294.061 188.544V185.616ZM294.061 179.792L294.125 179.728C294.381 179.472 294.781 179.184 295.293 179.184C296.605 179.184 296.637 180.72 296.637 181.696C296.637 182.944 296.573 183.408 296.381 183.76C296.077 184.336 295.581 184.432 295.213 184.432C294.989 184.432 294.525 184.416 294.061 184.128V179.792ZM306.35 185.472C306.398 185.456 306.478 185.408 306.478 185.312C306.478 185.232 306.414 185.12 306.302 184.832C306.062 184.224 306.062 183.712 306.062 183.248V180.16C306.062 179.872 306.03 179.152 305.71 178.608C305.23 177.792 304.302 177.584 303.31 177.584C302.654 177.584 301.518 177.712 300.862 178.016C300.446 178.208 300.446 178.272 300.526 178.496L300.862 179.504C300.894 179.616 300.926 179.664 301.022 179.664C301.134 179.664 301.246 179.584 301.79 179.408C302.19 179.28 302.67 179.184 303.086 179.184C303.534 179.184 303.806 179.328 303.95 179.504C304.158 179.76 304.142 180.144 304.142 180.368V180.864C303.23 180.832 301.726 180.96 300.942 181.52C300.606 181.76 299.966 182.368 299.966 183.6C299.966 185.072 300.894 186.032 302.334 186.032C303.39 186.032 303.966 185.552 304.382 185.136L304.446 185.072C304.494 185.328 304.574 185.552 304.718 185.84C304.846 186.08 304.942 186.048 305.054 186L306.35 185.472ZM304.142 183.936C303.79 184.32 303.358 184.544 302.942 184.544C302.366 184.544 301.886 184.112 301.886 183.456C301.886 182.512 302.766 182.176 304.046 182.176H304.142V183.936ZM310.99 179.456H312.75C312.83 179.456 312.942 179.424 312.99 179.232L313.214 178.176C313.246 178.016 313.31 177.856 312.974 177.856H307.134C306.958 177.856 306.91 177.904 306.91 178.08V179.232C306.91 179.408 306.958 179.456 307.134 179.456H308.958V185.536C308.958 185.744 309.006 185.76 309.182 185.76H310.766C310.974 185.76 310.99 185.712 310.99 185.536V179.456ZM317.027 185.76C317.875 185.76 318.947 185.728 319.699 185.12C320.451 184.528 320.547 183.696 320.547 183.12C320.547 182.448 320.387 181.776 319.763 181.248C319.043 180.64 318.147 180.608 317.251 180.608H316.355V177.792C316.355 177.552 316.227 177.568 316.099 177.6L314.851 177.856C314.307 177.968 314.323 177.984 314.323 178.192V185.536C314.323 185.744 314.371 185.76 314.547 185.76H317.027ZM316.355 182.208H317.331C317.667 182.208 318.515 182.224 318.515 183.184C318.515 184.112 317.747 184.16 317.155 184.16H316.355V182.208ZM324.693 179.456H326.453C326.533 179.456 326.645 179.424 326.693 179.232L326.917 178.176C326.949 178.016 327.013 177.856 326.677 177.856H320.837C320.661 177.856 320.613 177.904 320.613 178.08V179.232C320.613 179.408 320.661 179.456 320.837 179.456H322.661V185.536C322.661 185.744 322.709 185.76 322.885 185.76H324.469C324.677 185.76 324.693 185.712 324.693 185.536V179.456ZM333.898 182.352C334.106 182.352 334.266 182.336 334.266 181.84C334.266 181.424 334.25 180.832 334.09 180.16C333.802 178.912 333.082 177.584 331.066 177.584C328.826 177.584 327.562 179.488 327.562 182.016C327.562 183.12 327.786 186.032 331.21 186.032C332.106 186.032 333.162 185.792 333.754 185.392C333.882 185.312 334.01 185.2 334.01 185.04C334.01 184.992 333.994 184.96 333.962 184.896L333.562 183.952C333.53 183.872 333.482 183.824 333.386 183.824C333.29 183.824 333.146 183.888 332.954 183.984C332.65 184.128 332.09 184.352 331.354 184.352C330.026 184.352 329.594 183.52 329.594 182.352H333.898ZM329.594 180.864C329.69 179.776 330.042 179.072 330.954 179.072C331.594 179.072 331.914 179.44 332.042 180.048C332.074 180.176 332.122 180.432 332.106 180.864H329.594ZM345.249 178.704C345.281 178.656 345.297 178.624 345.297 178.56C345.297 178.464 345.233 178.32 344.945 178.128C344.513 177.856 343.873 177.584 343.009 177.584C341.089 177.584 339.297 178.8 339.297 181.984C339.297 185.04 341.041 186.032 342.881 186.032C343.505 186.032 344.177 185.888 344.705 185.6C344.945 185.472 345.105 185.312 345.105 185.184C345.105 185.136 345.073 185.056 345.057 185.024L344.641 183.968C344.625 183.92 344.561 183.888 344.529 183.888C344.417 183.888 344.241 184.032 344.049 184.144C343.761 184.32 343.457 184.432 343.041 184.432C342.353 184.432 341.969 184.064 341.761 183.712C341.585 183.408 341.457 182.912 341.457 181.936C341.457 180.672 341.681 180.144 341.777 179.936C342.001 179.488 342.385 179.184 343.009 179.184C343.425 179.184 343.745 179.312 344.081 179.536C344.321 179.696 344.449 179.824 344.545 179.824C344.609 179.824 344.641 179.776 344.657 179.744L345.249 178.704ZM349.607 185.76C350.567 185.76 351.495 185.744 352.263 185.232C352.951 184.784 353.127 184.08 353.127 183.52C353.127 182.416 352.455 181.744 351.591 181.568C352.407 181.312 352.871 180.624 352.871 179.808C352.871 179.024 352.455 178.528 352.087 178.272C351.463 177.856 350.423 177.856 349.495 177.856H347.047C346.839 177.856 346.823 177.904 346.823 178.08V185.536C346.823 185.744 346.871 185.76 347.047 185.76H349.607ZM348.855 179.344H349.655C350.151 179.344 350.839 179.392 350.839 180.112C350.839 180.384 350.727 180.976 349.703 180.976H348.855V179.344ZM348.855 182.416H349.911C350.199 182.416 351.095 182.432 351.095 183.328C351.095 184.176 350.327 184.272 349.735 184.272H348.855V182.416ZM361.616 181.808C361.616 178.8 359.904 177.584 358.144 177.584C356.384 177.584 354.672 178.8 354.672 181.808C354.672 184.816 356.384 186.032 358.144 186.032C359.904 186.032 361.616 184.816 361.616 181.808ZM358.144 184.432C356.896 184.432 356.832 183.024 356.832 181.808C356.832 180.592 356.928 179.184 358.144 179.184C359.36 179.184 359.456 180.592 359.456 181.808C359.456 183.04 359.376 184.432 358.144 184.432ZM363.417 185.536C363.417 185.744 363.465 185.76 363.641 185.76H365.225C365.433 185.76 365.449 185.68 365.529 185.536L367.049 182.72C367.257 182.336 367.497 182 368.057 180.768H368.121C368.057 181.84 368.041 182.192 368.041 182.496V185.536C368.041 185.744 368.089 185.76 368.265 185.76H369.849C370.057 185.76 370.073 185.712 370.073 185.536V177.792C370.073 177.552 369.945 177.568 369.817 177.6L368.537 177.856C368.265 177.904 368.185 177.872 367.993 178.192L366.441 180.896C366.137 181.424 365.865 181.904 365.433 182.848H365.369C365.401 182.448 365.449 181.568 365.449 181.12V177.792C365.449 177.552 365.321 177.568 365.193 177.6L363.721 177.904C363.401 177.968 363.417 178.048 363.417 178.192V185.536ZM378.074 179.536H380.826C380.906 179.536 381.034 179.504 381.066 179.312L381.29 178.176C381.322 178.016 381.402 177.856 381.05 177.856H376.266C376.058 177.856 376.042 177.904 376.042 178.08V185.536C376.042 185.744 376.09 185.76 376.266 185.76H377.85C378.058 185.76 378.074 185.712 378.074 185.536V179.536ZM389.054 181.808C389.054 178.8 387.342 177.584 385.582 177.584C383.822 177.584 382.11 178.8 382.11 181.808C382.11 184.816 383.822 186.032 385.582 186.032C387.342 186.032 389.054 184.816 389.054 181.808ZM385.582 184.432C384.334 184.432 384.27 183.024 384.27 181.808C384.27 180.592 384.366 179.184 385.582 179.184C386.798 179.184 386.894 180.592 386.894 181.808C386.894 183.04 386.814 184.432 385.582 184.432ZM395.062 179.456V185.536C395.062 185.712 395.11 185.76 395.286 185.76H396.87C397.078 185.76 397.094 185.712 397.094 185.536V178.08C397.094 177.904 397.046 177.856 396.87 177.856H391.958C391.75 177.856 391.734 177.904 391.734 178.08V178.8C391.734 179.744 391.702 182.192 391.526 183.04C391.366 183.872 390.998 184.144 390.454 184.272L390.182 184.336C390.086 184.352 389.91 184.368 389.974 184.608L390.294 185.792C390.326 185.904 390.358 186.032 390.63 186.032C391.014 186.032 392.47 185.936 393.126 184.304C393.622 183.04 393.67 180.576 393.67 179.664V179.456H395.062ZM405.835 181.808C405.835 178.8 404.123 177.584 402.363 177.584C400.603 177.584 398.891 178.8 398.891 181.808C398.891 184.816 400.603 186.032 402.363 186.032C404.123 186.032 405.835 184.816 405.835 181.808ZM402.363 184.432C401.115 184.432 401.051 183.024 401.051 181.808C401.051 180.592 401.147 179.184 402.363 179.184C403.579 179.184 403.675 180.592 403.675 181.808C403.675 183.04 403.595 184.432 402.363 184.432ZM413.124 178.704C413.156 178.656 413.172 178.624 413.172 178.56C413.172 178.464 413.108 178.32 412.82 178.128C412.388 177.856 411.748 177.584 410.884 177.584C408.964 177.584 407.172 178.8 407.172 181.984C407.172 185.04 408.916 186.032 410.756 186.032C411.38 186.032 412.052 185.888 412.58 185.6C412.82 185.472 412.98 185.312 412.98 185.184C412.98 185.136 412.948 185.056 412.932 185.024L412.516 183.968C412.5 183.92 412.436 183.888 412.404 183.888C412.292 183.888 412.116 184.032 411.924 184.144C411.636 184.32 411.332 184.432 410.916 184.432C410.228 184.432 409.844 184.064 409.636 183.712C409.46 183.408 409.332 182.912 409.332 181.936C409.332 180.672 409.556 180.144 409.652 179.936C409.876 179.488 410.26 179.184 410.884 179.184C411.3 179.184 411.62 179.312 411.956 179.536C412.196 179.696 412.324 179.824 412.42 179.824C412.484 179.824 412.516 179.776 412.532 179.744L413.124 178.704ZM420.522 185.472C420.57 185.456 420.65 185.408 420.65 185.312C420.65 185.232 420.586 185.12 420.474 184.832C420.234 184.224 420.234 183.712 420.234 183.248V180.16C420.234 179.872 420.202 179.152 419.882 178.608C419.402 177.792 418.474 177.584 417.482 177.584C416.826 177.584 415.69 177.712 415.034 178.016C414.618 178.208 414.618 178.272 414.698 178.496L415.034 179.504C415.066 179.616 415.098 179.664 415.194 179.664C415.306 179.664 415.418 179.584 415.962 179.408C416.362 179.28 416.842 179.184 417.258 179.184C417.706 179.184 417.978 179.328 418.122 179.504C418.33 179.76 418.314 180.144 418.314 180.368V180.864C417.402 180.832 415.898 180.96 415.114 181.52C414.778 181.76 414.138 182.368 414.138 183.6C414.138 185.072 415.066 186.032 416.506 186.032C417.562 186.032 418.138 185.552 418.554 185.136L418.618 185.072C418.666 185.328 418.746 185.552 418.89 185.84C419.018 186.08 419.114 186.048 419.226 186L420.522 185.472ZM418.314 183.936C417.962 184.32 417.53 184.544 417.114 184.544C416.538 184.544 416.058 184.112 416.058 183.456C416.058 182.512 416.938 182.176 418.218 182.176H418.314V183.936ZM426.92 183.76C426.728 183.76 426.632 183.84 426.568 184.032L425.56 187.344C425.544 187.408 425.528 187.456 425.528 187.504C425.528 187.648 425.688 187.68 425.784 187.712L426.456 187.936C426.504 187.952 426.536 187.968 426.584 187.968C426.696 187.968 426.728 187.888 426.792 187.776L428.712 184.176C428.744 184.096 428.792 184.016 428.792 183.936C428.792 183.776 428.632 183.76 428.472 183.76H426.92ZM438.14 181.408C437.836 181.568 437.468 181.632 437.148 181.632C436.38 181.632 436.316 181.104 436.316 180.816V177.792C436.316 177.552 436.188 177.568 436.06 177.6L434.828 177.856C434.252 177.968 434.284 177.984 434.284 178.192V180.816C434.284 181.344 434.284 182.016 434.7 182.528C435.036 182.944 435.66 183.232 436.444 183.232C437.1 183.232 437.74 183.056 438.14 182.912V185.536C438.14 185.712 438.188 185.76 438.364 185.76H439.948C440.156 185.76 440.172 185.712 440.172 185.536V177.792C440.172 177.552 440.044 177.568 439.916 177.6L438.444 177.904C438.124 177.968 438.14 178.048 438.14 178.192V181.408ZM445.459 179.456H447.219C447.299 179.456 447.411 179.424 447.459 179.232L447.683 178.176C447.715 178.016 447.779 177.856 447.443 177.856H441.603C441.427 177.856 441.379 177.904 441.379 178.08V179.232C441.379 179.408 441.427 179.456 441.603 179.456H443.427V185.536C443.427 185.744 443.475 185.76 443.651 185.76H445.235C445.443 185.76 445.459 185.712 445.459 185.536V179.456ZM455.288 181.808C455.288 178.8 453.576 177.584 451.816 177.584C450.056 177.584 448.344 178.8 448.344 181.808C448.344 184.816 450.056 186.032 451.816 186.032C453.576 186.032 455.288 184.816 455.288 181.808ZM451.816 184.432C450.568 184.432 450.504 183.024 450.504 181.808C450.504 180.592 450.6 179.184 451.816 179.184C453.032 179.184 453.128 180.592 453.128 181.808C453.128 183.04 453.048 184.432 451.816 184.432ZM461.895 179.296L461.911 179.12C462.055 177.568 463.319 176.96 463.751 176.768L467.079 175.344C467.383 175.216 467.319 175.008 467.287 174.944L466.743 173.76C466.631 173.504 466.343 173.648 466.247 173.696L463.239 175.056C462.007 175.616 461.175 176.688 460.807 177.712C460.471 178.608 460.423 179.696 460.423 180.88C460.423 181.92 460.471 183.136 460.951 184.144C461.767 185.824 463.239 186.032 463.975 186.032C465.767 186.032 467.447 184.752 467.447 181.968C467.447 179.456 466.183 177.952 464.295 177.952C463.223 177.952 462.407 178.416 461.959 179.296H461.895ZM463.975 184.432C462.727 184.432 462.663 182.976 462.663 181.968C462.663 180.976 462.727 179.552 463.975 179.552C465.223 179.552 465.287 180.976 465.287 181.968C465.287 182.976 465.223 184.432 463.975 184.432ZM471.965 185.76C472.813 185.76 473.885 185.728 474.637 185.12C475.389 184.528 475.485 183.696 475.485 183.12C475.485 182.448 475.325 181.776 474.701 181.248C473.981 180.64 473.085 180.608 472.189 180.608H471.293V177.792C471.293 177.552 471.165 177.568 471.037 177.6L469.821 177.856C469.245 177.984 469.261 177.968 469.261 178.192V185.536C469.261 185.744 469.309 185.76 469.485 185.76H471.965ZM471.293 182.208H472.269C472.605 182.208 473.453 182.224 473.453 183.184C473.453 184.112 472.685 184.16 472.093 184.16H471.293V182.208ZM476.589 185.536C476.589 185.744 476.637 185.76 476.813 185.76H478.397C478.605 185.76 478.621 185.712 478.621 185.536V177.792C478.621 177.552 478.493 177.568 478.365 177.6L476.893 177.904C476.573 177.968 476.589 178.048 476.589 178.192V185.536ZM487.373 185.76C488.333 185.76 489.261 185.744 490.029 185.232C490.717 184.784 490.893 184.08 490.893 183.52C490.893 182.416 490.221 181.744 489.357 181.568C490.173 181.312 490.637 180.624 490.637 179.808C490.637 179.024 490.221 178.528 489.853 178.272C489.229 177.856 488.189 177.856 487.261 177.856H484.813C484.605 177.856 484.589 177.904 484.589 178.08V185.536C484.589 185.744 484.637 185.76 484.813 185.76H487.373ZM486.621 179.344H487.421C487.917 179.344 488.605 179.392 488.605 180.112C488.605 180.384 488.493 180.976 487.469 180.976H486.621V179.344ZM486.621 182.416H487.677C487.965 182.416 488.861 182.432 488.861 183.328C488.861 184.176 488.093 184.272 487.501 184.272H486.621V182.416ZM495.59 185.76C496.438 185.76 497.51 185.728 498.262 185.12C499.014 184.528 499.11 183.696 499.11 183.12C499.11 182.448 498.95 181.776 498.326 181.248C497.606 180.64 496.71 180.608 495.814 180.608H494.918V177.792C494.918 177.552 494.79 177.568 494.662 177.6L493.446 177.856C492.87 177.984 492.886 177.968 492.886 178.192V185.536C492.886 185.744 492.934 185.76 493.11 185.76H495.59ZM494.918 182.208H495.894C496.23 182.208 497.078 182.224 497.078 183.184C497.078 184.112 496.31 184.16 495.718 184.16H494.918V182.208ZM500.214 185.536C500.214 185.744 500.262 185.76 500.438 185.76H502.022C502.23 185.76 502.246 185.712 502.246 185.536V177.792C502.246 177.552 502.118 177.568 501.99 177.6L500.518 177.904C500.198 177.968 500.214 178.048 500.214 178.192V185.536ZM505.551 179.296L505.567 179.12C505.711 177.568 506.975 176.96 507.407 176.768L510.735 175.344C511.039 175.216 510.975 175.008 510.943 174.944L510.399 173.76C510.287 173.504 509.999 173.648 509.903 173.696L506.895 175.056C505.663 175.616 504.831 176.688 504.463 177.712C504.127 178.608 504.079 179.696 504.079 180.88C504.079 181.92 504.127 183.136 504.607 184.144C505.423 185.824 506.895 186.032 507.631 186.032C509.423 186.032 511.103 184.752 511.103 181.968C511.103 179.456 509.839 177.952 507.951 177.952C506.879 177.952 506.063 178.416 505.615 179.296H505.551ZM507.631 184.432C506.383 184.432 506.319 182.976 506.319 181.968C506.319 180.976 506.383 179.552 507.631 179.552C508.879 179.552 508.943 180.976 508.943 181.968C508.943 182.976 508.879 184.432 507.631 184.432ZM515.045 185.616L515.109 185.648C515.269 185.728 515.701 186.032 516.709 186.032C519.589 186.032 519.653 182.944 519.653 181.744C519.653 178.24 518.085 177.584 516.837 177.584C516.197 177.584 515.509 177.792 514.837 178.416C514.789 178.272 514.757 178.128 514.693 177.984C514.517 177.504 514.357 177.552 514.101 177.632L512.885 178.032C512.805 178.064 512.709 178.112 512.709 178.208C512.709 178.256 512.725 178.304 512.773 178.464C512.885 178.8 513.013 179.328 513.013 180.704V188.912C513.013 189.216 513.141 189.168 513.269 189.136L514.741 188.832C515.061 188.768 515.045 188.688 515.045 188.544V185.616ZM515.045 179.792L515.109 179.728C515.365 179.472 515.765 179.184 516.277 179.184C517.589 179.184 517.621 180.72 517.621 181.696C517.621 182.944 517.557 183.408 517.365 183.76C517.061 184.336 516.565 184.432 516.197 184.432C515.973 184.432 515.509 184.416 515.045 184.128V179.792ZM527.335 185.472C527.383 185.456 527.463 185.408 527.463 185.312C527.463 185.232 527.399 185.12 527.287 184.832C527.047 184.224 527.047 183.712 527.047 183.248V180.16C527.047 179.872 527.015 179.152 526.695 178.608C526.215 177.792 525.287 177.584 524.295 177.584C523.639 177.584 522.503 177.712 521.847 178.016C521.431 178.208 521.431 178.272 521.511 178.496L521.847 179.504C521.879 179.616 521.911 179.664 522.007 179.664C522.119 179.664 522.231 179.584 522.775 179.408C523.175 179.28 523.655 179.184 524.071 179.184C524.519 179.184 524.791 179.328 524.935 179.504C525.143 179.76 525.127 180.144 525.127 180.368V180.864C524.215 180.832 522.711 180.96 521.927 181.52C521.591 181.76 520.951 182.368 520.951 183.6C520.951 185.072 521.879 186.032 523.319 186.032C524.375 186.032 524.951 185.552 525.367 185.136L525.431 185.072C525.479 185.328 525.559 185.552 525.703 185.84C525.831 186.08 525.927 186.048 526.039 186L527.335 185.472ZM525.127 183.936C524.775 184.32 524.343 184.544 523.927 184.544C523.351 184.544 522.871 184.112 522.871 183.456C522.871 182.512 523.751 182.176 525.031 182.176H525.127V183.936ZM531.974 179.456H533.734C533.814 179.456 533.926 179.424 533.974 179.232L534.198 178.176C534.23 178.016 534.294 177.856 533.958 177.856H528.118C527.942 177.856 527.894 177.904 527.894 178.08V179.232C527.894 179.408 527.942 179.456 528.118 179.456H529.942V185.536C529.942 185.744 529.99 185.76 530.166 185.76H531.75C531.958 185.76 531.974 185.712 531.974 185.536V179.456ZM538.012 185.76C538.86 185.76 539.932 185.728 540.684 185.12C541.436 184.528 541.532 183.696 541.532 183.12C541.532 182.448 541.372 181.776 540.748 181.248C540.028 180.64 539.132 180.608 538.236 180.608H537.34V177.792C537.34 177.552 537.212 177.568 537.084 177.6L535.836 177.856C535.292 177.968 535.308 177.984 535.308 178.192V185.536C535.308 185.744 535.356 185.76 535.532 185.76H538.012ZM537.34 182.208H538.316C538.652 182.208 539.5 182.224 539.5 183.184C539.5 184.112 538.732 184.16 538.14 184.16H537.34V182.208ZM551.362 180.816H549.058V177.792C549.058 177.552 548.93 177.568 548.802 177.6L547.538 177.856C546.994 177.968 547.026 178.016 547.026 178.192V185.536C547.026 185.712 547.074 185.76 547.25 185.76H548.834C549.042 185.76 549.058 185.712 549.058 185.536V182.416H551.362V185.536C551.362 185.744 551.41 185.76 551.586 185.76H553.17C553.378 185.76 553.394 185.712 553.394 185.536V177.792C553.394 177.552 553.266 177.568 553.138 177.6L551.666 177.904C551.346 177.968 551.362 178.048 551.362 178.192V180.816ZM562.132 181.808C562.132 178.8 560.42 177.584 558.66 177.584C556.9 177.584 555.188 178.8 555.188 181.808C555.188 184.816 556.9 186.032 558.66 186.032C560.42 186.032 562.132 184.816 562.132 181.808ZM558.66 184.432C557.412 184.432 557.348 183.024 557.348 181.808C557.348 180.592 557.444 179.184 558.66 179.184C559.876 179.184 559.972 180.592 559.972 181.808C559.972 183.04 559.892 184.432 558.66 184.432ZM566.717 185.76C567.677 185.76 568.605 185.744 569.373 185.232C570.061 184.784 570.237 184.08 570.237 183.52C570.237 182.416 569.565 181.744 568.701 181.568C569.517 181.312 569.981 180.624 569.981 179.808C569.981 179.024 569.565 178.528 569.197 178.272C568.573 177.856 567.533 177.856 566.605 177.856H564.157C563.949 177.856 563.933 177.904 563.933 178.08V185.536C563.933 185.744 563.981 185.76 564.157 185.76H566.717ZM565.965 179.344H566.765C567.261 179.344 567.949 179.392 567.949 180.112C567.949 180.384 567.837 180.976 566.812 180.976H565.965V179.344ZM565.965 182.416H567.021C567.309 182.416 568.205 182.432 568.205 183.328C568.205 184.176 567.437 184.272 566.845 184.272H565.965V182.416ZM574.933 185.76C575.781 185.76 576.853 185.728 577.605 185.12C578.357 184.528 578.453 183.696 578.453 183.12C578.453 182.448 578.293 181.776 577.669 181.248C576.949 180.64 576.053 180.608 575.157 180.608H574.261V177.792C574.261 177.552 574.133 177.568 574.005 177.6L572.789 177.856C572.213 177.984 572.229 177.968 572.229 178.192V185.536C572.229 185.744 572.277 185.76 572.453 185.76H574.933ZM574.261 182.208H575.237C575.573 182.208 576.421 182.224 576.421 183.184C576.421 184.112 575.653 184.16 575.061 184.16H574.261V182.208ZM579.557 185.536C579.557 185.744 579.605 185.76 579.781 185.76H581.365C581.573 185.76 581.589 185.712 581.589 185.536V177.792C581.589 177.552 581.461 177.568 581.333 177.6L579.861 177.904C579.541 177.968 579.557 178.048 579.557 178.192V185.536ZM583.823 185.536C583.823 185.744 583.871 185.76 584.047 185.76H585.631C585.839 185.76 585.855 185.68 585.935 185.536L587.455 182.72C587.663 182.336 587.903 182 588.463 180.768H588.527C588.463 181.776 588.447 182.208 588.447 182.496V185.536C588.447 185.744 588.495 185.76 588.671 185.76H590.255C590.463 185.76 590.479 185.712 590.479 185.536V177.792C590.479 177.552 590.351 177.568 590.223 177.6L588.975 177.856C588.719 177.904 588.607 177.84 588.399 178.192L586.847 180.896C586.543 181.424 586.271 181.904 585.839 182.848H585.775C585.807 182.448 585.855 181.568 585.855 181.12V177.792C585.855 177.552 585.727 177.568 585.599 177.6L584.127 177.904C583.807 177.968 583.823 178.048 583.823 178.192V185.536ZM588.351 174.224C588.319 174.224 588.271 174.208 588.239 174.208C588.047 174.208 588.063 174.336 587.983 174.576C587.855 175.024 587.631 175.264 587.151 175.264C586.671 175.264 586.447 175.024 586.319 174.576C586.271 174.4 586.255 174.304 586.207 174.256C586.143 174.176 586.031 174.208 585.951 174.224L585.023 174.352C584.959 174.368 584.879 174.432 584.879 174.608C584.879 174.864 584.975 175.232 585.167 175.552C585.535 176.144 586.255 176.576 587.151 176.576C588.047 176.576 588.767 176.144 589.135 175.552C589.327 175.232 589.423 174.864 589.423 174.608C589.423 174.432 589.343 174.368 589.279 174.352L588.351 174.224ZM599.232 185.76C600.192 185.76 601.12 185.744 601.888 185.232C602.576 184.784 602.752 184.08 602.752 183.52C602.752 182.416 602.08 181.744 601.216 181.568C602.032 181.312 602.496 180.624 602.496 179.808C602.496 179.024 602.08 178.528 601.712 178.272C601.088 177.856 600.048 177.856 599.12 177.856H596.672C596.464 177.856 596.448 177.904 596.448 178.08V185.536C596.448 185.744 596.496 185.76 596.672 185.76H599.232ZM598.48 179.344H599.28C599.776 179.344 600.464 179.392 600.464 180.112C600.464 180.384 600.352 180.976 599.328 180.976H598.48V179.344ZM598.48 182.416H599.536C599.824 182.416 600.72 182.432 600.72 183.328C600.72 184.176 599.952 184.272 599.36 184.272H598.48V182.416ZM606.489 185.76C606.777 185.76 606.777 185.648 606.777 185.536V182.448H607.433C608.169 182.448 608.265 182.8 608.361 183.232L608.665 184.56C608.777 185.04 608.953 185.424 609.337 185.68C609.753 185.968 610.505 186.032 610.809 186.032C611.161 186.032 611.193 185.904 611.225 185.792L611.513 184.768C611.593 184.464 611.449 184.432 611.337 184.416L610.985 184.352C610.633 184.288 610.569 184.128 610.441 183.744L610.137 182.864C609.961 182.368 609.801 181.792 609.033 181.632V181.584C609.705 181.456 609.913 180.912 610.009 180.576L610.185 179.952C610.361 179.312 610.521 179.28 610.841 179.216L611.081 179.168C611.241 179.136 611.321 179.024 611.289 178.912L610.969 177.744C610.937 177.648 610.905 177.584 610.681 177.584C610.393 177.584 609.657 177.68 609.209 178.08C608.825 178.416 608.681 178.88 608.617 179.152L608.409 180.064C608.313 180.496 608.217 180.848 607.481 180.848H606.777V177.792C606.777 177.552 606.649 177.568 606.521 177.6L605.273 177.856C604.729 177.968 604.745 177.984 604.745 178.192V185.536C604.745 185.648 604.745 185.76 605.033 185.76H606.489ZM617.558 177.712C617.254 177.68 617.158 177.856 617.11 178.048L616.262 181.904C616.214 182.16 616.07 182.592 615.734 184.672H615.702C615.59 184.08 615.254 182.496 615.094 181.904L614.054 178.032C613.958 177.648 613.894 177.696 613.574 177.728L612.246 177.856C612.07 177.872 611.894 177.888 611.894 178.048C611.894 178.128 611.926 178.192 611.974 178.32L614.422 185.552C614.502 185.792 614.598 185.76 614.71 185.76H615.382L615.222 186.288C615.046 186.864 614.822 187.472 613.958 187.472C613.51 187.472 613.094 187.296 612.838 187.168C612.726 187.104 612.662 187.072 612.598 187.072C612.55 187.072 612.486 187.088 612.438 187.184L611.926 188.288C611.862 188.432 611.846 188.544 612.31 188.752C612.934 189.04 613.526 189.152 614.07 189.152C614.758 189.152 615.766 188.976 616.374 187.76C616.646 187.216 616.886 186.352 617.494 184.096L619.062 178.336C619.11 178.16 619.126 178.112 619.126 178.064C619.126 177.904 618.95 177.888 618.79 177.872L617.558 177.712ZM625.811 178.704C625.843 178.656 625.859 178.624 625.859 178.56C625.859 178.464 625.795 178.32 625.507 178.128C625.075 177.856 624.435 177.584 623.571 177.584C621.651 177.584 619.859 178.8 619.859 181.984C619.859 185.04 621.603 186.032 623.443 186.032C624.067 186.032 624.739 185.888 625.267 185.6C625.507 185.472 625.667 185.312 625.667 185.184C625.667 185.136 625.635 185.056 625.619 185.024L625.203 183.968C625.187 183.92 625.123 183.888 625.091 183.888C624.979 183.888 624.803 184.032 624.611 184.144C624.323 184.32 624.019 184.432 623.603 184.432C622.915 184.432 622.531 184.064 622.323 183.712C622.147 183.408 622.019 182.912 622.019 181.936C622.019 180.672 622.243 180.144 622.339 179.936C622.563 179.488 622.947 179.184 623.571 179.184C623.987 179.184 624.307 179.312 624.643 179.536C624.883 179.696 625.011 179.824 625.107 179.824C625.171 179.824 625.203 179.776 625.219 179.744L625.811 178.704ZM308.01 193.8C307.802 193.8 307.786 193.896 307.738 194.04L304.554 204.44C304.522 204.536 304.458 204.76 304.794 204.76H306.506C306.714 204.76 306.73 204.68 306.794 204.424L307.45 201.832H310.202L310.906 204.424C311.002 204.744 311.05 204.76 311.242 204.76H313.018C313.098 204.76 313.274 204.744 313.274 204.568C313.274 204.488 313.242 204.44 313.226 204.376L310.09 194.056C310.042 193.896 310.01 193.8 309.85 193.8H308.01ZM309.802 200.392H307.69L308.394 197.64C308.682 196.536 308.73 195.944 308.746 195.512H308.794C308.922 196.616 309.034 197.16 309.146 197.64L309.802 200.392ZM317.835 203.144C317.819 203.08 317.755 203.048 317.707 203.048C317.659 203.048 317.595 203.08 317.483 203.112C317.355 203.16 317.227 203.192 317.099 203.192C316.603 203.192 316.635 202.664 316.635 202.232V193.512C316.635 193.4 316.651 193.256 316.587 193.208C316.523 193.16 316.427 193.176 316.379 193.192L314.907 193.496C314.587 193.56 314.603 193.64 314.603 193.784V201.944C314.603 203.528 314.635 205.032 316.651 205.032C317.099 205.032 317.451 204.952 317.867 204.824C318.171 204.728 318.203 204.632 318.155 204.456L317.835 203.144ZM321.529 204.616L321.593 204.648C321.753 204.728 322.185 205.032 323.193 205.032C326.073 205.032 326.137 201.944 326.137 200.744C326.137 197.24 324.569 196.584 323.321 196.584C322.681 196.584 321.993 196.792 321.321 197.416C321.273 197.272 321.241 197.128 321.177 196.984C321.001 196.504 320.841 196.552 320.585 196.632L319.369 197.032C319.289 197.064 319.193 197.112 319.193 197.208C319.193 197.256 319.209 197.304 319.257 197.464C319.369 197.8 319.497 198.328 319.497 199.704V207.912C319.497 208.216 319.625 208.168 319.753 208.136L321.225 207.832C321.545 207.768 321.529 207.688 321.529 207.544V204.616ZM321.529 198.792L321.593 198.728C321.849 198.472 322.249 198.184 322.761 198.184C324.073 198.184 324.105 199.72 324.105 200.696C324.105 201.944 324.041 202.408 323.849 202.76C323.545 203.336 323.049 203.432 322.681 203.432C322.457 203.432 321.993 203.416 321.529 203.128V198.792ZM333.867 201.352C334.075 201.352 334.235 201.336 334.235 200.84C334.235 200.424 334.219 199.832 334.059 199.16C333.771 197.912 333.051 196.584 331.035 196.584C328.795 196.584 327.531 198.488 327.531 201.016C327.531 202.12 327.755 205.032 331.179 205.032C332.075 205.032 333.131 204.792 333.723 204.392C333.851 204.312 333.979 204.2 333.979 204.04C333.979 203.992 333.963 203.96 333.931 203.896L333.531 202.952C333.499 202.872 333.451 202.824 333.355 202.824C333.259 202.824 333.115 202.888 332.923 202.984C332.619 203.128 332.059 203.352 331.323 203.352C329.995 203.352 329.563 202.52 329.563 201.352H333.867ZM329.563 199.864C329.659 198.776 330.011 198.072 330.923 198.072C331.563 198.072 331.883 198.44 332.011 199.048C332.043 199.176 332.091 199.432 332.075 199.864H329.563ZM342.395 198.92C342.395 197.704 341.771 196.584 340.331 196.584C339.579 196.584 338.747 196.808 337.867 197.688C337.819 197.368 337.739 197.112 337.659 196.92C337.499 196.552 337.435 196.52 337.115 196.632L335.899 197.032C335.739 197.08 335.723 197.176 335.723 197.24C335.723 197.384 335.787 197.448 335.867 197.768C335.963 198.184 336.027 198.664 336.027 199.704V204.536C336.027 204.744 336.075 204.76 336.251 204.76H337.835C338.043 204.76 338.059 204.712 338.059 204.536V198.92C338.667 198.36 339.115 198.264 339.419 198.264C340.315 198.264 340.363 199.016 340.363 199.608V204.536C340.363 204.744 340.411 204.76 340.587 204.76H342.171C342.379 204.76 342.395 204.712 342.395 204.536V198.92ZM353.492 200.76V203.048C353.044 203.256 352.676 203.304 352.388 203.304C351.86 203.304 351.396 203.144 351.092 202.872C350.292 202.152 350.212 200.28 350.212 199.48C350.212 198.632 350.324 197.336 350.548 196.664C350.852 195.784 351.396 195.256 352.372 195.256C352.868 195.256 353.332 195.4 353.812 195.656C354.228 195.88 354.34 195.96 354.436 195.96C354.564 195.96 354.596 195.864 354.644 195.784L355.172 194.728C355.236 194.6 355.3 194.488 354.884 194.232C354.612 194.072 353.684 193.528 352.228 193.528C350.884 193.528 349.94 193.992 349.268 194.712C348.5 195.544 347.94 196.952 347.94 199.512C347.94 201.16 348.228 202.568 349.028 203.624C349.748 204.568 350.756 205.032 352.244 205.032C353.572 205.032 354.452 204.648 354.9 204.408C355.316 204.184 355.428 204.072 355.428 203.848V199.352C355.428 199.064 355.252 199.032 355.108 199.032H352.276C352.132 199.032 351.956 199.064 351.956 199.352V200.44C351.956 200.728 352.132 200.76 352.276 200.76H353.492ZM364.116 200.808C364.116 197.8 362.404 196.584 360.644 196.584C358.884 196.584 357.172 197.8 357.172 200.808C357.172 203.816 358.884 205.032 360.644 205.032C362.404 205.032 364.116 203.816 364.116 200.808ZM360.644 203.432C359.396 203.432 359.332 202.024 359.332 200.808C359.332 199.592 359.428 198.184 360.644 198.184C361.86 198.184 361.956 199.592 361.956 200.808C361.956 202.04 361.876 203.432 360.644 203.432ZM369.069 203.144C369.053 203.08 368.989 203.048 368.941 203.048C368.893 203.048 368.829 203.08 368.717 203.112C368.589 203.16 368.461 203.192 368.333 203.192C367.837 203.192 367.869 202.664 367.869 202.232V193.512C367.869 193.4 367.885 193.256 367.821 193.208C367.757 193.16 367.661 193.176 367.613 193.192L366.141 193.496C365.821 193.56 365.837 193.64 365.837 193.784V201.944C365.837 203.528 365.869 205.032 367.885 205.032C368.333 205.032 368.685 204.952 369.101 204.824C369.405 204.728 369.437 204.632 369.389 204.456L369.069 203.144ZM375.036 204.072C375.116 204.456 375.212 204.648 375.324 204.856C375.436 205.08 375.532 205.048 375.628 205L376.924 204.472C377.036 204.424 377.068 204.392 377.068 204.328C377.068 204.264 377.036 204.2 376.956 203.88C376.796 203.24 376.78 202.504 376.78 202.248V193.512C376.78 193.128 376.716 193.144 376.524 193.192L375.004 193.512C374.732 193.56 374.748 193.64 374.748 193.784V197.064C374.316 196.712 373.852 196.584 373.244 196.584C372.06 196.584 370.188 197.224 370.188 201.016C370.188 204.408 371.756 205.032 372.86 205.032C373.66 205.032 374.38 204.728 375.004 204.104L375.036 204.072ZM374.748 202.872L374.652 202.984C374.476 203.192 374.172 203.432 373.564 203.432C373.212 203.432 372.78 203.352 372.492 202.824C372.364 202.568 372.22 202.136 372.22 200.776C372.22 199.688 372.3 199.08 372.588 198.696C372.908 198.248 373.34 198.184 373.66 198.184C374.14 198.184 374.412 198.312 374.668 198.456L374.748 198.504V202.872ZM388.763 197.08C388.763 197 388.779 196.856 388.539 196.856H383.707C383.451 196.856 383.483 196.968 383.483 197.08V197.8C383.483 199.912 383.451 201.432 382.523 203.16H382.011C381.899 203.16 381.787 203.128 381.787 203.384V206.776C381.787 206.952 381.835 207 382.011 207H383.515C383.723 207 383.739 206.952 383.739 206.776V204.76H387.803V206.776C387.803 206.952 387.851 207 388.027 207H389.531C389.739 207 389.755 206.952 389.755 206.776V203.384C389.755 203.128 389.643 203.16 389.531 203.16H388.763V197.08ZM386.731 203.16H384.475C385.179 201.688 385.291 200.312 385.291 198.968V198.456H386.731V203.16ZM395.437 198.456V204.536C395.437 204.712 395.485 204.76 395.661 204.76H397.245C397.453 204.76 397.469 204.712 397.469 204.536V197.08C397.469 196.904 397.421 196.856 397.245 196.856H392.333C392.125 196.856 392.109 196.904 392.109 197.08V197.8C392.109 198.744 392.077 201.192 391.901 202.04C391.741 202.872 391.373 203.144 390.829 203.272L390.557 203.336C390.461 203.352 390.285 203.368 390.349 203.608L390.669 204.792C390.701 204.904 390.733 205.032 391.005 205.032C391.389 205.032 392.845 204.936 393.501 203.304C393.997 202.04 394.045 199.576 394.045 198.664V198.456H395.437ZM405.394 204.76C405.57 204.76 405.618 204.744 405.618 204.536V197.08C405.618 196.872 405.57 196.856 405.394 196.856H402.338C401.906 196.856 400.93 196.888 400.258 197.416C399.714 197.832 399.442 198.536 399.442 199.16C399.442 199.624 399.602 200.2 399.922 200.552C400.162 200.808 400.562 201.048 400.946 201.144V201.176C400.37 201.336 400.13 201.768 399.954 202.392L399.858 202.744C399.746 203.128 399.65 203.288 399.314 203.352L398.994 203.416C398.882 203.432 398.738 203.464 398.818 203.768L399.106 204.792C399.138 204.904 399.154 205.032 399.49 205.032C399.858 205.032 400.514 204.952 400.93 204.664C401.362 204.36 401.522 203.928 401.634 203.512L401.89 202.6C402.034 202.072 402.162 201.816 402.834 201.816H403.586V204.536C403.586 204.712 403.602 204.76 403.81 204.76H405.394ZM403.586 200.296H402.722C402.354 200.296 401.474 200.232 401.474 199.336C401.474 199.016 401.602 198.376 402.642 198.376H403.586V200.296ZM414.069 195.528H416.949V204.44C416.949 204.584 416.981 204.76 417.269 204.76H418.805C418.949 204.76 419.125 204.728 419.125 204.44V194.12C419.125 193.976 419.093 193.8 418.805 193.8H412.213C412.069 193.8 411.893 193.832 411.893 194.12V204.44C411.893 204.584 411.925 204.76 412.213 204.76H413.749C414.037 204.76 414.069 204.584 414.069 204.44V195.528ZM427.347 204.76C427.523 204.76 427.571 204.744 427.571 204.536V197.08C427.571 196.872 427.523 196.856 427.347 196.856H424.291C423.859 196.856 422.883 196.888 422.211 197.416C421.667 197.832 421.395 198.536 421.395 199.16C421.395 199.624 421.555 200.2 421.875 200.552C422.115 200.808 422.515 201.048 422.899 201.144V201.176C422.323 201.336 422.083 201.768 421.907 202.392L421.811 202.744C421.699 203.128 421.603 203.288 421.267 203.352L420.947 203.416C420.835 203.432 420.691 203.464 420.771 203.768L421.059 204.792C421.091 204.904 421.107 205.032 421.443 205.032C421.811 205.032 422.467 204.952 422.883 204.664C423.315 204.36 423.475 203.928 423.587 203.512L423.843 202.6C423.987 202.072 424.115 201.816 424.787 201.816H425.539V204.536C425.539 204.712 425.555 204.76 425.763 204.76H427.347ZM425.539 200.296H424.675C424.307 200.296 423.427 200.232 423.427 199.336C423.427 199.016 423.555 198.376 424.595 198.376H425.539V200.296ZM432.928 198.456H434.688C434.768 198.456 434.88 198.424 434.928 198.232L435.152 197.176C435.184 197.016 435.248 196.856 434.912 196.856H429.072C428.896 196.856 428.848 196.904 428.848 197.08V198.232C428.848 198.408 428.896 198.456 429.072 198.456H430.896V204.536C430.896 204.744 430.944 204.76 431.12 204.76H432.704C432.911 204.76 432.928 204.712 432.928 204.536V198.456ZM442.133 201.352C442.341 201.352 442.501 201.336 442.501 200.84C442.501 200.424 442.485 199.832 442.325 199.16C442.037 197.912 441.317 196.584 439.301 196.584C437.061 196.584 435.797 198.488 435.797 201.016C435.797 202.12 436.021 205.032 439.445 205.032C440.341 205.032 441.397 204.792 441.989 204.392C442.117 204.312 442.245 204.2 442.245 204.04C442.245 203.992 442.229 203.96 442.197 203.896L441.797 202.952C441.765 202.872 441.717 202.824 441.621 202.824C441.525 202.824 441.381 202.888 441.189 202.984C440.885 203.128 440.325 203.352 439.589 203.352C438.261 203.352 437.829 202.52 437.829 201.352H442.133ZM437.829 199.864C437.925 198.776 438.277 198.072 439.189 198.072C439.829 198.072 440.149 198.44 440.277 199.048C440.309 199.176 440.357 199.432 440.341 199.864H437.829ZM436.869 194.328C436.869 194.936 437.349 195.416 437.957 195.416C438.565 195.416 439.045 194.936 439.045 194.328C439.045 193.72 438.565 193.24 437.957 193.24C437.349 193.24 436.869 193.72 436.869 194.328ZM439.685 194.328C439.685 194.936 440.165 195.416 440.773 195.416C441.381 195.416 441.861 194.936 441.861 194.328C441.861 193.72 441.381 193.24 440.773 193.24C440.165 193.24 439.685 193.72 439.685 194.328ZM446.389 204.616L446.453 204.648C446.613 204.728 447.045 205.032 448.053 205.032C450.933 205.032 450.997 201.944 450.997 200.744C450.997 197.24 449.429 196.584 448.181 196.584C447.541 196.584 446.853 196.792 446.181 197.416C446.133 197.272 446.101 197.128 446.037 196.984C445.861 196.504 445.701 196.552 445.445 196.632L444.229 197.032C444.149 197.064 444.053 197.112 444.053 197.208C444.053 197.256 444.069 197.304 444.117 197.464C444.229 197.8 444.357 198.328 444.357 199.704V207.912C444.357 208.216 444.485 208.168 444.613 208.136L446.085 207.832C446.405 207.768 446.389 207.688 446.389 207.544V204.616ZM446.389 198.792L446.453 198.728C446.709 198.472 447.109 198.184 447.621 198.184C448.933 198.184 448.965 199.72 448.965 200.696C448.965 201.944 448.901 202.408 448.709 202.76C448.405 203.336 447.909 203.432 447.541 203.432C447.317 203.432 446.853 203.416 446.389 203.128V198.792ZM459.35 200.808C459.35 197.8 457.638 196.584 455.878 196.584C454.118 196.584 452.406 197.8 452.406 200.808C452.406 203.816 454.118 205.032 455.878 205.032C457.638 205.032 459.35 203.816 459.35 200.808ZM455.878 203.432C454.63 203.432 454.566 202.024 454.566 200.808C454.566 199.592 454.662 198.184 455.878 198.184C457.094 198.184 457.19 199.592 457.19 200.808C457.19 202.04 457.11 203.432 455.878 203.432ZM464.687 200.408C464.383 200.568 464.015 200.632 463.695 200.632C462.927 200.632 462.863 200.104 462.863 199.816V196.792C462.863 196.552 462.735 196.568 462.607 196.6L461.375 196.856C460.799 196.968 460.831 196.984 460.831 197.192V199.816C460.831 200.344 460.831 201.016 461.247 201.528C461.583 201.944 462.207 202.232 462.991 202.232C463.647 202.232 464.287 202.056 464.687 201.912V204.536C464.687 204.712 464.735 204.76 464.911 204.76H466.495C466.703 204.76 466.719 204.712 466.719 204.536V196.792C466.719 196.552 466.591 196.568 466.463 196.6L464.991 196.904C464.671 196.968 464.687 197.048 464.687 197.192V200.408ZM470.63 204.76C470.918 204.76 470.918 204.648 470.918 204.536V201.448H471.574C472.31 201.448 472.406 201.8 472.502 202.232L472.806 203.56C472.918 204.04 473.094 204.424 473.478 204.68C473.894 204.968 474.646 205.032 474.95 205.032C475.302 205.032 475.334 204.904 475.366 204.792L475.654 203.768C475.734 203.464 475.59 203.432 475.478 203.416L475.126 203.352C474.774 203.288 474.71 203.128 474.582 202.744L474.278 201.864C474.102 201.368 473.942 200.792 473.174 200.632V200.584C473.846 200.456 474.054 199.912 474.15 199.576L474.326 198.952C474.502 198.312 474.662 198.28 474.982 198.216L475.222 198.168C475.382 198.136 475.462 198.024 475.43 197.912L475.11 196.744C475.078 196.648 475.046 196.584 474.822 196.584C474.534 196.584 473.798 196.68 473.35 197.08C472.966 197.416 472.822 197.88 472.758 198.152L472.55 199.064C472.454 199.496 472.358 199.848 471.622 199.848H470.918V196.792C470.918 196.552 470.79 196.568 470.662 196.6L469.414 196.856C468.87 196.968 468.886 196.984 468.886 197.192V204.536C468.886 204.648 468.886 204.76 469.174 204.76H470.63ZM476.995 204.536C476.995 204.744 477.043 204.76 477.219 204.76H478.803C479.011 204.76 479.027 204.68 479.107 204.536L480.627 201.72C480.835 201.336 481.075 201 481.635 199.768H481.699C481.635 200.84 481.619 201.192 481.619 201.496V204.536C481.619 204.744 481.667 204.76 481.843 204.76H483.427C483.635 204.76 483.651 204.712 483.651 204.536V196.792C483.651 196.552 483.523 196.568 483.395 196.6L482.115 196.856C481.843 196.904 481.763 196.872 481.571 197.192L480.019 199.896C479.715 200.424 479.443 200.904 479.011 201.848H478.947C478.979 201.448 479.027 200.568 479.027 200.12V196.792C479.027 196.552 478.899 196.568 478.771 196.6L477.299 196.904C476.979 196.968 476.995 197.048 476.995 197.192V204.536ZM489.62 204.536C489.62 204.744 489.668 204.76 489.844 204.76H491.428C491.636 204.76 491.652 204.68 491.732 204.536L493.252 201.72C493.46 201.336 493.7 201 494.26 199.768H494.324C494.26 200.84 494.244 201.192 494.244 201.496V204.536C494.244 204.744 494.292 204.76 494.468 204.76H496.052C496.26 204.76 496.276 204.712 496.276 204.536V196.792C496.276 196.552 496.148 196.568 496.02 196.6L494.74 196.856C494.468 196.904 494.388 196.872 494.196 197.192L492.644 199.896C492.34 200.424 492.068 200.904 491.636 201.848H491.572C491.604 201.448 491.652 200.568 491.652 200.12V196.792C491.652 196.552 491.524 196.568 491.396 196.6L489.924 196.904C489.604 196.968 489.62 197.048 489.62 197.192V204.536ZM506.533 198.456V204.536C506.533 204.712 506.581 204.76 506.757 204.76H508.341C508.549 204.76 508.565 204.712 508.565 204.536V197.08C508.565 196.872 508.517 196.856 508.341 196.856H502.469C502.293 196.856 502.245 196.872 502.245 197.08V204.536C502.245 204.712 502.261 204.76 502.469 204.76H504.053C504.261 204.76 504.277 204.712 504.277 204.536V198.456H506.533ZM517.304 200.808C517.304 197.8 515.592 196.584 513.832 196.584C512.072 196.584 510.36 197.8 510.36 200.808C510.36 203.816 512.072 205.032 513.832 205.032C515.592 205.032 517.304 203.816 517.304 200.808ZM513.832 203.432C512.584 203.432 512.52 202.024 512.52 200.808C512.52 199.592 512.616 198.184 513.832 198.184C515.048 198.184 515.144 199.592 515.144 200.808C515.144 202.04 515.064 203.432 513.832 203.432ZM523.312 198.456V204.536C523.312 204.712 523.36 204.76 523.536 204.76H525.12C525.328 204.76 525.344 204.712 525.344 204.536V197.08C525.344 196.904 525.296 196.856 525.12 196.856H520.208C520 196.856 519.984 196.904 519.984 197.08V197.8C519.984 198.744 519.952 201.192 519.776 202.04C519.616 202.872 519.248 203.144 518.704 203.272L518.432 203.336C518.336 203.352 518.16 203.368 518.224 203.608L518.544 204.792C518.576 204.904 518.608 205.032 518.88 205.032C519.264 205.032 520.72 204.936 521.376 203.304C521.872 202.04 521.92 199.576 521.92 198.664V198.456H523.312ZM532.293 196.712C531.989 196.68 531.893 196.856 531.845 197.048L530.997 200.904C530.949 201.16 530.805 201.592 530.469 203.672H530.437C530.325 203.08 529.989 201.496 529.829 200.904L528.789 197.032C528.693 196.648 528.629 196.696 528.309 196.728L526.981 196.856C526.805 196.872 526.629 196.888 526.629 197.048C526.629 197.128 526.661 197.192 526.709 197.32L529.157 204.552C529.237 204.792 529.333 204.76 529.445 204.76H530.117L529.957 205.288C529.781 205.864 529.557 206.472 528.693 206.472C528.245 206.472 527.829 206.296 527.573 206.168C527.461 206.104 527.397 206.072 527.333 206.072C527.285 206.072 527.221 206.088 527.173 206.184L526.661 207.288C526.597 207.432 526.581 207.544 527.045 207.752C527.669 208.04 528.261 208.152 528.805 208.152C529.493 208.152 530.501 207.976 531.109 206.76C531.381 206.216 531.621 205.352 532.229 203.096L533.797 197.336C533.845 197.16 533.861 197.112 533.861 197.064C533.861 196.904 533.685 196.888 533.525 196.872L532.293 196.712ZM538.75 200.408C538.446 200.568 538.078 200.632 537.758 200.632C536.99 200.632 536.926 200.104 536.926 199.816V196.792C536.926 196.552 536.798 196.568 536.67 196.6L535.438 196.856C534.862 196.968 534.894 196.984 534.894 197.192V199.816C534.894 200.344 534.894 201.016 535.31 201.528C535.646 201.944 536.27 202.232 537.054 202.232C537.71 202.232 538.35 202.056 538.75 201.912V204.536C538.75 204.712 538.798 204.76 538.974 204.76H540.558C540.766 204.76 540.782 204.712 540.782 204.536V196.792C540.782 196.552 540.654 196.568 540.526 196.6L539.054 196.904C538.734 196.968 538.75 197.048 538.75 197.192V200.408ZM548.772 204.472C548.82 204.456 548.9 204.408 548.9 204.312C548.9 204.232 548.836 204.12 548.724 203.832C548.484 203.224 548.484 202.712 548.484 202.248V199.16C548.484 198.872 548.452 198.152 548.132 197.608C547.652 196.792 546.724 196.584 545.732 196.584C545.076 196.584 543.94 196.712 543.284 197.016C542.868 197.208 542.868 197.272 542.948 197.496L543.284 198.504C543.316 198.616 543.348 198.664 543.444 198.664C543.556 198.664 543.668 198.584 544.212 198.408C544.612 198.28 545.092 198.184 545.508 198.184C545.956 198.184 546.228 198.328 546.372 198.504C546.58 198.76 546.564 199.144 546.564 199.368V199.864C545.652 199.832 544.148 199.96 543.364 200.52C543.028 200.76 542.388 201.368 542.388 202.6C542.388 204.072 543.316 205.032 544.756 205.032C545.812 205.032 546.388 204.552 546.804 204.136L546.868 204.072C546.916 204.328 546.996 204.552 547.14 204.84C547.268 205.08 547.364 205.048 547.476 205L548.772 204.472ZM546.564 202.936C546.212 203.32 545.78 203.544 545.364 203.544C544.788 203.544 544.308 203.112 544.308 202.456C544.308 201.512 545.188 201.176 546.468 201.176H546.564V202.936ZM550.651 204.536C550.651 204.744 550.699 204.76 550.875 204.76H552.459C552.667 204.76 552.683 204.68 552.763 204.536L554.283 201.72C554.491 201.336 554.731 201 555.291 199.768H555.355C555.291 200.776 555.275 201.208 555.275 201.496V204.536C555.275 204.744 555.323 204.76 555.499 204.76H557.083C557.291 204.76 557.307 204.712 557.307 204.536V196.792C557.307 196.552 557.179 196.568 557.051 196.6L555.803 196.856C555.547 196.904 555.435 196.84 555.227 197.192L553.675 199.896C553.371 200.424 553.099 200.904 552.667 201.848H552.603C552.635 201.448 552.683 200.568 552.683 200.12V196.792C552.683 196.552 552.555 196.568 552.427 196.6L550.955 196.904C550.635 196.968 550.651 197.048 550.651 197.192V204.536ZM555.179 193.224C555.147 193.224 555.099 193.208 555.067 193.208C554.875 193.208 554.891 193.336 554.811 193.576C554.683 194.024 554.459 194.264 553.979 194.264C553.499 194.264 553.275 194.024 553.147 193.576C553.099 193.4 553.083 193.304 553.035 193.256C552.971 193.176 552.859 193.208 552.779 193.224L551.851 193.352C551.787 193.368 551.707 193.432 551.707 193.608C551.707 193.864 551.803 194.232 551.995 194.552C552.363 195.144 553.083 195.576 553.979 195.576C554.875 195.576 555.595 195.144 555.963 194.552C556.155 194.232 556.251 193.864 556.251 193.608C556.251 193.432 556.171 193.368 556.107 193.352L555.179 193.224ZM567.564 198.456V204.536C567.564 204.712 567.612 204.76 567.788 204.76H569.372C569.58 204.76 569.596 204.712 569.596 204.536V197.08C569.596 196.872 569.548 196.856 569.372 196.856H563.5C563.324 196.856 563.276 196.872 563.276 197.08V204.536C563.276 204.712 563.292 204.76 563.5 204.76H565.084C565.292 204.76 565.308 204.712 565.308 204.536V198.456H567.564ZM573.967 204.616L574.031 204.648C574.191 204.728 574.623 205.032 575.631 205.032C578.511 205.032 578.575 201.944 578.575 200.744C578.575 197.24 577.007 196.584 575.759 196.584C575.119 196.584 574.431 196.792 573.759 197.416C573.711 197.272 573.679 197.128 573.615 196.984C573.439 196.504 573.279 196.552 573.023 196.632L571.807 197.032C571.727 197.064 571.631 197.112 571.631 197.208C571.631 197.256 571.647 197.304 571.695 197.464C571.807 197.8 571.935 198.328 571.935 199.704V207.912C571.935 208.216 572.063 208.168 572.191 208.136L573.663 207.832C573.983 207.768 573.967 207.688 573.967 207.544V204.616ZM573.967 198.792L574.031 198.728C574.287 198.472 574.687 198.184 575.199 198.184C576.511 198.184 576.543 199.72 576.543 200.696C576.543 201.944 576.479 202.408 576.287 202.76C575.983 203.336 575.487 203.432 575.119 203.432C574.895 203.432 574.431 203.416 573.967 203.128V198.792ZM580.433 204.536C580.433 204.744 580.481 204.76 580.657 204.76H582.241C582.449 204.76 582.465 204.68 582.545 204.536L584.065 201.72C584.273 201.336 584.513 201 585.073 199.768H585.137C585.073 200.84 585.057 201.192 585.057 201.496V204.536C585.057 204.744 585.105 204.76 585.281 204.76H586.865C587.073 204.76 587.089 204.712 587.089 204.536V196.792C587.089 196.552 586.961 196.568 586.833 196.6L585.553 196.856C585.281 196.904 585.201 196.872 585.009 197.192L583.457 199.896C583.153 200.424 582.881 200.904 582.449 201.848H582.385C582.417 201.448 582.465 200.568 582.465 200.12V196.792C582.465 196.552 582.337 196.568 582.209 196.6L580.737 196.904C580.417 196.968 580.433 197.048 580.433 197.192V204.536ZM589.483 198.52C589.499 198.552 589.547 198.632 589.643 198.632C589.723 198.632 589.803 198.568 590.059 198.424C590.235 198.328 590.683 198.072 591.307 198.072C591.963 198.072 592.347 198.44 592.347 198.968C592.347 199.88 591.531 199.944 590.987 199.944H590.619C590.443 199.944 590.395 199.992 590.395 200.168V201.208C590.395 201.384 590.443 201.432 590.619 201.432H590.971C591.467 201.432 592.475 201.432 592.475 202.392C592.475 202.808 592.283 203.544 591.211 203.544C590.619 203.544 590.235 203.416 589.707 203.128C589.499 203.016 589.371 202.936 589.259 202.936C589.163 202.936 589.115 202.984 589.083 203.064L588.731 203.896C588.715 203.944 588.683 204.008 588.683 204.072C588.683 204.312 588.971 204.44 589.227 204.568C589.787 204.856 590.651 205.032 591.355 205.032C593.179 205.032 594.507 204.088 594.507 202.424C594.507 201.4 593.915 200.808 593.211 200.616V200.568C593.947 200.296 594.331 199.624 594.331 198.792C594.331 198.056 593.979 197.56 593.627 197.24C592.971 196.648 592.139 196.584 591.579 196.584C590.379 196.584 589.643 196.92 589.307 197.112C589.195 197.176 588.907 197.352 588.907 197.56C588.907 197.608 588.923 197.656 588.955 197.704L589.483 198.52ZM598.996 204.76C599.844 204.76 600.916 204.728 601.668 204.12C602.42 203.528 602.516 202.696 602.516 202.12C602.516 201.448 602.356 200.776 601.732 200.248C601.012 199.64 600.116 199.608 599.22 199.608H598.324V196.792C598.324 196.552 598.196 196.568 598.068 196.6L596.852 196.856C596.276 196.984 596.292 196.968 596.292 197.192V204.536C596.292 204.744 596.34 204.76 596.516 204.76H598.996ZM598.324 201.208H599.3C599.636 201.208 600.484 201.224 600.484 202.184C600.484 203.112 599.716 203.16 599.124 203.16H598.324V201.208ZM603.62 204.536C603.62 204.744 603.668 204.76 603.844 204.76H605.428C605.636 204.76 605.652 204.712 605.652 204.536V196.792C605.652 196.552 605.524 196.568 605.396 196.6L603.924 196.904C603.604 196.968 603.62 197.048 603.62 197.192V204.536Z" fill="#85312C"/>
<defs>
<filter id="filter0_d" x="0.507324" y="2.21753" width="986.992" height="230.254" filterUnits="userSpaceOnUse" color-interpolation-filters="sRGB">
<feFlood flood-opacity="0" result="BackgroundImageFix"/>
<feColorMatrix in="SourceAlpha" type="matrix" values="0 0 0 0 0 0 0 0 0 0 0 0 0 0 0 0 0 0 127 0"/>
<feOffset/>
<feGaussianBlur stdDeviation="4"/>
<feColorMatrix type="matrix" values="0 0 0 0 0 0 0 0 0 0 0 0 0 0 0 0 0 0 0.45 0"/>
<feBlend mode="normal" in2="BackgroundImageFix" result="effect1_dropShadow"/>
<feBlend mode="normal" in="SourceGraphic" in2="effect1_dropShadow" result="shape"/>
</filter>
<filter id="filter1_d" x="93" y="115.76" width="618.965" height="147.243" filterUnits="userSpaceOnUse" color-interpolation-filters="sRGB">
<feFlood flood-opacity="0" result="BackgroundImageFix"/>
<feColorMatrix in="SourceAlpha" type="matrix" values="0 0 0 0 0 0 0 0 0 0 0 0 0 0 0 0 0 0 127 0"/>
<feOffset/>
<feGaussianBlur stdDeviation="4"/>
<feColorMatrix type="matrix" values="0 0 0 0 0 0 0 0 0 0 0 0 0 0 0 0 0 0 0.45 0"/>
<feBlend mode="normal" in2="BackgroundImageFix" result="effect1_dropShadow"/>
<feBlend mode="normal" in="SourceGraphic" in2="effect1_dropShadow" result="shape"/>
</filter>
<filter id="filter2_d" x="133.023" y="70.3542" width="799.878" height="89.6259" filterUnits="userSpaceOnUse" color-interpolation-filters="sRGB">
<feFlood flood-opacity="0" result="BackgroundImageFix"/>
<feColorMatrix in="SourceAlpha" type="matrix" values="0 0 0 0 0 0 0 0 0 0 0 0 0 0 0 0 0 0 127 0"/>
<feOffset/>
<feGaussianBlur stdDeviation="6.5"/>
<feColorMatrix type="matrix" values="0 0 0 0 0 0 0 0 0 0 0 0 0 0 0 0 0 0 0.6 0"/>
<feBlend mode="normal" in2="BackgroundImageFix" result="effect1_dropShadow"/>
<feBlend mode="normal" in="SourceGraphic" in2="effect1_dropShadow" result="shape"/>
</filter>
</defs>
</svg>
