<svg width="1057" height="266" viewBox="0 0 1057 266" fill="none" xmlns="http://www.w3.org/2000/svg">
<g filter="url(#filter0_d)">
<path d="M65.8388 99.9267L970.278 49.8598L931.106 143.73L19.0003 183.637L65.8388 99.9267Z" fill="#DD1010"/>
<path d="M65.673 96.9313L64.0261 97.0225L63.2207 98.4618L16.3822 182.172L13.7539 186.87L19.1314 186.634L931.237 146.727L933.141 146.644L933.875 144.886L973.046 51.0152L974.889 46.6L970.112 46.8644L65.673 96.9313Z" stroke="#F7D431" stroke-width="6"/>
</g>
<g filter="url(#filter1_d)">
<path d="M132.136 163.759L703.965 153.714L689.19 225.084L101 223.801L132.136 163.759Z" fill="white"/>
</g>
<g filter="url(#filter2_d)">
<path d="M158.644 115.972C157.941 116.003 157.954 116.31 157.88 116.622L153.085 145.236C153.053 145.502 153.016 145.68 153.024 145.855C153.043 146.295 153.267 146.373 153.706 146.354L160.915 146.042C164.476 145.888 168.505 145.361 171.181 142.074C172.435 140.523 173.309 138.327 173.208 135.997C173.077 132.964 171.392 130.659 168.848 129.888C169.884 129.403 171.17 128.598 172.101 127.721C173.581 126.292 174.554 124.356 174.447 121.894C174.167 115.432 167.832 115.574 166.073 115.651L158.644 115.972ZM161.605 128.396L162.967 120.189L165.077 120.098C166.308 120.045 168.637 119.944 168.763 122.845C168.816 124.076 168.518 125.322 167.853 126.232C166.648 127.913 164.726 128.261 163.231 128.325L161.605 128.396ZM159.362 141.705L160.872 132.832L163.333 132.725C164.696 132.666 167.12 132.693 167.262 135.99C167.346 137.924 166.65 139.144 166.105 139.784C164.765 141.383 162.835 141.555 161.165 141.627L159.362 141.705ZM182.942 114.92C182.239 114.951 182.252 115.258 182.177 115.57L177.427 144.182C177.394 144.448 177.358 144.626 177.365 144.801C177.384 145.241 177.608 145.319 178.048 145.3L185.872 144.961C188.993 144.826 192.931 144.215 195.481 141.066C197.111 139.058 197.819 136.076 197.711 133.571C197.587 130.713 196.286 129.14 195.416 128.385C193.31 126.538 190.625 126.567 188.823 126.645L186.053 126.765L187.827 115.854C187.859 115.588 187.896 115.41 187.888 115.234C187.869 114.795 187.645 114.716 187.206 114.735L182.942 114.92ZM183.776 140.296L185.248 131.556L187.226 131.47C188.457 131.417 191.66 131.146 191.816 134.751C191.869 135.982 191.531 137.318 190.736 138.277C189.355 139.966 187.161 140.149 185.667 140.214L183.776 140.296ZM205.405 113.947C204.701 113.978 204.715 114.286 204.64 114.597L199.846 143.211C199.813 143.477 199.777 143.655 199.784 143.831C199.803 144.27 200.027 144.349 200.467 144.329L204.731 144.145C205.434 144.114 205.421 143.807 205.495 143.495L210.29 114.881C210.322 114.615 210.359 114.438 210.351 114.262C210.332 113.822 210.108 113.744 209.669 113.763L205.405 113.947ZM218.445 113.383C217.741 113.413 217.755 113.721 217.68 114.032L212.886 142.647C212.853 142.912 212.817 143.09 212.824 143.266C212.843 143.705 213.067 143.784 213.507 143.765L221.331 143.426C224.452 143.291 228.39 142.68 230.94 139.531C232.57 137.522 233.278 134.541 233.171 132.079C233.04 129.046 231.535 124.795 224.282 125.109L221.512 125.229L222.708 118.263L231.895 117.865C232.159 117.854 232.557 117.88 232.794 117.254L234.222 113.624C234.302 113.445 234.385 113.309 234.375 113.089C234.356 112.65 233.918 112.713 233.611 112.726L218.445 113.383ZM219.235 138.76L220.707 130.02L223.432 129.902C226.245 129.781 227.195 131.369 227.277 133.259C227.328 134.446 226.99 135.782 226.195 136.741C224.814 138.431 222.62 138.614 221.126 138.678L219.235 138.76ZM242.871 112.325C242.168 112.355 242.181 112.663 242.106 112.975L237.312 141.589C237.279 141.855 237.243 142.032 237.251 142.208C237.27 142.648 237.493 142.726 237.933 142.707L252.527 142.075C253.231 142.045 253.217 141.737 253.292 141.425L253.887 137.876C253.954 137.389 253.294 137.418 253.119 137.425L243.667 137.834L245.131 128.919L252.692 128.591C253.263 128.567 253.349 128.519 253.457 127.942L253.977 124.704C254.01 124.438 254.119 123.905 253.371 123.938L245.942 124.259L247.203 116.762L255.819 116.389C256.127 116.375 256.436 116.406 256.717 115.777L258.165 112.588C258.243 112.364 258.325 112.228 258.318 112.052C258.299 111.613 257.861 111.676 257.553 111.689L242.871 112.325ZM266.439 111.304C265.736 111.335 265.749 111.643 265.674 111.954L260.88 140.568C260.847 140.834 260.811 141.012 260.818 141.188C260.837 141.627 261.061 141.706 261.501 141.687L265.765 141.502C266.468 141.471 266.455 141.164 266.529 140.852L268.452 129.318L270.738 129.219C278.255 128.894 282.676 124.21 282.397 117.748C282.121 111.374 277.516 110.825 274.351 110.962L266.439 111.304ZM269.258 124.527L270.689 115.877L272.931 115.78C274.073 115.73 276.587 115.798 276.718 118.831C276.783 120.325 276.555 124.211 270.576 124.47L269.258 124.527ZM304.261 109.667C303.469 109.701 303.356 110.146 303.026 110.645L295.26 122.52C294.394 123.879 292.025 128.165 291.414 129.293L291.238 129.3C292.158 124.108 291.689 127.519 292.388 123.305L294.419 111.238C294.494 110.926 294.486 110.75 294.481 110.619C294.462 110.179 294.238 110.101 293.798 110.12L289.534 110.304C288.831 110.335 288.844 110.642 288.77 110.954L283.975 139.568C283.943 139.834 283.906 140.012 283.914 140.187C283.933 140.627 284.157 140.705 284.596 140.686L288.64 140.511C289.256 140.485 289.424 140.301 289.795 139.713L298.172 126.71C299.409 124.763 300.441 123.176 301.487 120.885L301.663 120.877C301.367 122.168 300.932 124.344 300.72 125.543L298.482 138.94C298.449 139.206 298.413 139.383 298.42 139.559C298.439 139.999 298.663 140.077 299.103 140.058L303.367 139.874C304.07 139.843 304.057 139.535 304.131 139.224L308.926 110.61C308.958 110.344 308.995 110.166 308.987 109.99C308.968 109.551 308.744 109.472 308.305 109.491L304.261 109.667ZM589.908 127.465L588.892 133.499C588.895 133.587 588.897 133.631 588.901 133.719C588.907 133.851 588.825 133.986 588.83 134.118C588.848 134.514 589.073 134.636 589.557 134.615L593.425 134.448C594.128 134.417 594.153 133.976 594.19 133.798L595.862 123.596C595.894 123.33 595.931 123.153 595.923 122.977C595.9 122.449 595.549 122.465 595.285 122.476L593.395 122.558L597.489 98.1139C597.521 97.8482 597.558 97.6705 597.55 97.4946C597.531 97.055 597.307 96.9766 596.868 96.9957L582.669 97.6105C581.966 97.641 581.979 97.9487 581.905 98.2602L581.201 102.342C580.037 109.043 579.051 112.697 578.664 113.947C577.63 117.515 576.429 120.298 574.404 123.38L573.13 123.435C572.426 123.466 572.392 123.688 572.321 124.087L570.605 134.291C570.609 134.379 570.611 134.423 570.614 134.511C570.62 134.642 570.538 134.778 570.544 134.91C570.561 135.306 570.786 135.428 571.27 135.407L575.138 135.24C575.841 135.209 575.866 134.768 575.903 134.59L576.984 128.025L589.908 127.465ZM586.611 102.196L591.139 102L587.636 122.807L580.031 123.137C581.434 120.962 582.279 119.12 583.216 116.348C584.272 113.264 585.219 109.7 585.934 105.881L586.611 102.196ZM613.066 101.051L618.033 100.836L613.939 125.28C613.906 125.545 613.87 125.723 613.877 125.899C613.896 126.338 614.12 126.417 614.56 126.398L618.824 126.213C619.527 126.183 619.514 125.875 619.588 125.563L624.383 96.9493C624.415 96.6836 624.452 96.5059 624.444 96.33C624.425 95.8904 624.201 95.812 623.762 95.8311L609.299 96.4573C608.596 96.4878 608.609 96.7955 608.535 97.107L607.262 104.341C606.84 106.781 605.149 115.531 603.913 118.535C602.839 121.18 601.384 122.168 599.46 122.471L598.716 122.592C598.148 122.704 598.085 123.28 598.095 123.499L598.486 127.446C598.551 127.928 598.944 127.867 599.206 127.811L599.906 127.693C603.404 127.101 605.663 125.374 607.118 123.373C609.029 120.736 610.253 116.455 612.212 105.756L613.066 101.051ZM640.885 95.0896C638.38 95.1981 635.446 95.5894 633.154 97.5824C631.202 99.2964 630.046 102.077 630.175 105.066C630.318 108.363 632.112 110.135 634.172 110.927L634.136 111.105C631.416 112.367 630.55 114.739 630.112 115.815L629.079 118.414C628.324 120.297 628.095 121.099 626.657 121.47L625.482 121.785C624.828 121.945 624.851 122.473 624.905 122.691L625.621 126.007C625.678 126.313 625.649 126.666 626.572 126.626C627.452 126.588 628.585 126.319 629.409 126.019C632.402 124.965 633.102 122.82 633.926 120.494L635.374 116.292C636.075 114.192 637.092 113.267 639.246 113.173L640.829 113.105L638.975 124.195C638.942 124.461 638.906 124.639 638.914 124.815C638.933 125.254 639.156 125.333 639.596 125.314L643.86 125.129C644.563 125.099 644.55 124.791 644.624 124.479L649.419 95.8651C649.452 95.5994 649.488 95.4217 649.48 95.2459C649.461 94.8063 649.238 94.7279 648.798 94.7469L640.885 95.0896ZM641.55 108.405L639.528 108.493C637.242 108.592 635.983 106.973 635.895 104.951C635.833 103.5 636.381 101.935 637.398 101.01C638.543 99.9915 639.904 99.8885 641.091 99.8371L643.025 99.7534L641.55 108.405ZM667.863 93.9213C667.16 93.9518 667.173 94.2595 667.099 94.571L662.304 123.185C662.272 123.451 662.235 123.629 662.243 123.804C662.262 124.244 662.486 124.322 662.925 124.303L667.189 124.119C667.893 124.088 667.879 123.781 667.954 123.469L672.157 98.4918L679.806 98.1606L675.668 122.607C675.593 122.918 675.601 123.094 675.606 123.226C675.626 123.665 675.849 123.744 676.289 123.725L680.553 123.54C681.256 123.51 681.243 123.202 681.317 122.89L686.112 94.2762C686.144 94.0105 686.181 93.8328 686.173 93.6569C686.154 93.2174 685.931 93.1389 685.491 93.158L667.863 93.9213ZM702.617 92.4164C700.111 92.5249 697.177 92.9162 694.885 94.9092C692.934 96.6232 691.777 99.4039 691.906 102.393C692.049 105.69 693.843 107.462 695.904 108.254L695.867 108.431C693.147 109.694 692.281 112.066 691.843 113.142L690.811 115.741C690.055 117.623 689.826 118.426 688.389 118.797L687.213 119.112C686.559 119.272 686.582 119.8 686.636 120.018L687.352 123.334C687.409 123.64 687.38 123.993 688.304 123.953C689.183 123.915 690.316 123.646 691.14 123.346C694.133 122.291 694.833 120.147 695.657 117.821L697.105 113.619C697.807 111.518 698.823 110.594 700.977 110.5L702.56 110.432L700.706 121.522C700.674 121.788 700.637 121.966 700.645 122.142C700.664 122.581 700.887 122.66 701.327 122.64L705.591 122.456C706.294 122.425 706.281 122.118 706.356 121.806L711.15 93.1919C711.183 92.9263 711.219 92.7485 711.211 92.5727C711.192 92.1331 710.969 92.0547 710.529 92.0737L702.617 92.4164ZM703.281 105.732L701.259 105.82C698.973 105.919 697.714 104.3 697.627 102.277C697.564 100.827 698.113 99.2616 699.13 98.3368C700.275 97.3183 701.635 97.2153 702.822 97.1639L704.756 97.0802L703.281 105.732ZM727.159 96.4184L732.609 96.1823C732.917 96.169 733.227 96.1996 733.508 95.5709L735.112 91.9341C735.15 91.8003 735.232 91.6646 735.267 91.4429C735.265 91.399 735.263 91.355 735.261 91.311C735.202 90.9613 734.764 91.0243 734.501 91.0357L716.521 91.8143C715.73 91.8485 715.829 92.1085 715.757 92.4639L715.152 95.7932C715.078 96.1047 715.041 96.2825 715.049 96.4583C715.072 96.9858 715.509 96.9228 715.817 96.9095L721.444 96.6658L717.336 120.802C717.262 121.114 717.269 121.29 717.275 121.421C717.294 121.861 717.518 121.939 717.957 121.92L722.221 121.736C722.925 121.705 722.911 121.398 722.986 121.086L727.159 96.4184ZM739.683 90.8113C738.98 90.8417 738.993 91.1495 738.918 91.461L734.124 120.075C734.091 120.341 734.055 120.519 734.062 120.694C734.081 121.134 734.305 121.212 734.745 121.193L749.339 120.561C750.042 120.531 750.029 120.223 750.104 119.912L750.699 116.363C750.766 115.875 750.106 115.904 749.93 115.911L740.479 116.321L741.943 107.405L749.504 107.078C750.075 107.053 750.161 107.005 750.268 106.428L750.789 103.19C750.821 102.925 750.93 102.392 750.183 102.424L742.754 102.746L744.015 95.248L752.631 94.8749C752.938 94.8616 753.248 94.8922 753.529 94.2635L754.977 91.0739C755.055 90.8503 755.137 90.7146 755.13 90.5388C755.11 90.0992 754.673 90.1622 754.365 90.1755L739.683 90.8113ZM763.251 89.7907C762.547 89.8212 762.561 90.1289 762.486 90.4404L757.691 119.055C757.659 119.32 757.623 119.498 757.63 119.674C757.649 120.113 757.873 120.192 758.312 120.173L762.576 119.988C763.28 119.958 763.266 119.65 763.341 119.338L765.264 107.804L767.55 107.706C775.067 107.38 779.488 102.696 779.208 96.2344C778.932 89.8603 774.328 89.311 771.163 89.4481L763.251 89.7907ZM766.069 103.013L767.5 94.3631L769.742 94.2661C770.885 94.2166 773.398 94.2839 773.53 97.3171C773.595 98.8117 773.366 102.697 767.388 102.956L766.069 103.013ZM803.208 96.7806C803.105 94.4068 802.403 87.3466 794.93 87.6702C792.072 87.7939 787.327 89.0564 783.987 95.3228C781.748 99.5596 780.81 105.37 781.031 110.469C781.364 118.162 785.704 119.735 789.265 119.581C793.397 119.402 797.656 117.06 800.342 111.967C802.497 107.822 803.409 101.44 803.208 96.7806ZM790.032 114.924C787.439 115.036 787.068 112.586 786.99 110.783C786.847 107.486 787.196 102.318 788.978 97.7051C789.728 95.6908 791.349 92.4496 794.294 92.322C796.976 92.2059 797.184 94.9715 797.247 96.4222C797.397 99.8949 797.169 104.793 795.348 109.541C794.557 111.601 793.021 114.794 790.032 114.924ZM810.88 87.7282C810.088 87.7625 809.935 88.2976 809.863 88.6531L808.081 99.3882C807.972 99.9214 807.995 100.449 808.018 100.976C808.081 102.427 808.365 103.912 809.831 105.214C811.433 106.598 813.286 106.694 814.737 106.631C816.407 106.559 818.286 106.213 820.62 105.187L818.695 116.677C818.623 117.033 818.47 117.568 819.393 117.528L823.437 117.353C823.833 117.336 824.314 117.271 824.454 116.428L829.249 87.8136C829.323 87.5021 829.386 86.9268 828.507 86.9649L824.463 87.14C823.628 87.1762 823.563 87.7075 823.49 88.063L821.431 100.528C819.623 101.487 818.18 101.725 817.037 101.775C815.85 101.826 813.991 101.599 813.903 99.5765C813.882 99.093 813.905 98.6075 814.014 98.0743L815.621 88.4037C815.692 88.0043 815.803 87.515 814.924 87.5531L810.88 87.7282ZM837.521 86.5745C837.169 86.5898 836.644 86.6566 836.504 87.4994L831.71 116.114C831.57 116.956 832.099 116.978 832.451 116.962L836.451 116.789C837.374 116.749 837.395 116.22 837.468 115.864L839.569 103.354L842.119 103.243C844.844 103.125 844.958 104.75 845.015 106.069L845.288 111.342C845.4 113.935 845.834 115.81 848.156 116.547C848.827 116.782 850.067 116.948 850.946 116.91C851.474 116.887 851.911 116.824 852.148 116.197L853.498 112.792C853.777 112.119 853.506 111.955 853.196 111.924L851.954 111.714C850.624 111.507 850.574 110.364 850.508 108.826L850.304 105.135C850.176 103.203 849.705 101.461 847.293 100.685L847.287 100.553C849.89 99.6477 850.924 98.1055 851.626 96.0051L852.678 92.8327C853.303 90.9999 853.712 90.2775 855.104 89.8649L856.017 89.6052C856.453 89.4982 856.658 89.137 856.593 88.6554L856.15 85.5476C856.085 85.066 855.6 85.043 855.292 85.0563C854.149 85.1058 852.544 85.6598 851.469 86.2788C849.235 87.5647 848.568 89.4433 847.982 91.1863L846.694 94.9856C845.72 97.9345 844.375 98.3891 842.528 98.4691L840.374 98.5623L842.263 87.25C842.295 86.9844 842.488 86.3594 841.521 86.4013L837.521 86.5745ZM878.258 84.8105C877.467 84.8448 877.354 85.2901 877.023 85.7888L869.257 97.6639C868.391 99.0227 866.023 103.309 865.411 104.437L865.235 104.444C866.155 99.2516 865.686 102.663 866.385 98.4489L868.417 86.3817C868.491 86.0702 868.484 85.8944 868.478 85.7625C868.459 85.3229 868.235 85.2445 867.796 85.2636L863.532 85.4482C862.828 85.4787 862.842 85.7864 862.767 86.0979L857.972 114.712C857.94 114.978 857.904 115.156 857.911 115.331C857.93 115.771 858.154 115.849 858.593 115.83L862.638 115.655C863.253 115.629 863.421 115.445 863.792 114.856L872.169 101.854C873.406 99.9065 874.439 98.3204 875.485 96.029L875.66 96.0214C875.364 97.3114 874.93 99.4882 874.717 100.687L872.479 114.084C872.446 114.35 872.41 114.527 872.418 114.703C872.437 115.143 872.66 115.221 873.1 115.202L877.364 115.017C878.067 114.987 878.054 114.679 878.128 114.368L882.923 85.7536C882.956 85.4879 882.992 85.3102 882.984 85.1343C882.965 84.6947 882.742 84.6163 882.302 84.6354L878.258 84.8105Z" fill="#F7D431"/>
<path d="M327.354 108.667C326.651 108.697 326.664 109.005 326.59 109.316L321.795 137.93C321.763 138.196 321.726 138.374 321.734 138.55C321.753 138.989 321.977 139.068 322.416 139.049L326.68 138.864C327.384 138.834 327.37 138.526 327.445 138.214L329.536 125.484L337.624 125.134L335.598 137.333C335.566 137.598 335.529 137.776 335.537 137.952C335.556 138.392 335.78 138.47 336.219 138.451L340.483 138.266C341.187 138.236 341.173 137.928 341.248 137.617L346.042 109.002C346.075 108.737 346.111 108.559 346.104 108.383C346.085 107.944 345.861 107.865 345.421 107.884L341.157 108.069C340.454 108.099 340.467 108.407 340.393 108.719L338.43 120.342L330.385 120.691L332.239 109.6C332.272 109.334 332.308 109.157 332.301 108.981C332.282 108.541 332.058 108.463 331.618 108.482L327.354 108.667ZM371.089 115.493C370.986 113.119 370.284 106.059 362.811 106.382C359.954 106.506 355.208 107.769 351.868 114.035C349.629 118.272 348.692 124.082 348.913 129.181C349.246 136.874 353.586 138.448 357.146 138.293C361.279 138.114 365.537 135.772 368.223 130.679C370.378 126.534 371.291 120.152 371.089 115.493ZM357.914 133.636C355.32 133.748 354.95 131.298 354.872 129.496C354.729 126.199 355.078 121.031 356.86 116.417C357.609 114.403 359.231 111.162 362.176 111.034C364.857 110.918 365.065 113.684 365.128 115.134C365.278 118.607 365.05 123.506 363.23 128.253C362.438 130.313 360.903 133.506 357.914 133.636ZM379.64 106.402C378.937 106.433 378.95 106.741 378.876 107.052L374.081 135.666C374.049 135.932 374.012 136.11 374.02 136.286C374.039 136.725 374.263 136.804 374.702 136.784L381.911 136.472C385.472 136.318 389.501 135.791 392.177 132.504C393.431 130.953 394.305 128.757 394.204 126.427C394.073 123.394 392.388 121.089 389.844 120.318C390.88 119.833 392.166 119.028 393.097 118.151C394.577 116.722 395.55 114.786 395.443 112.324C395.163 105.862 388.828 106.005 387.069 106.081L379.64 106.402ZM382.601 118.826L383.963 110.619L386.073 110.528C387.304 110.475 389.633 110.374 389.759 113.275C389.812 114.506 389.514 115.752 388.849 116.662C387.644 118.343 385.722 118.691 384.227 118.756L382.601 118.826ZM380.358 132.135L381.868 123.262L384.329 123.155C385.692 123.096 388.116 123.123 388.258 126.42C388.342 128.354 387.646 129.574 387.101 130.214C385.761 131.813 383.831 131.985 382.161 132.057L380.358 132.135ZM403.938 105.35C403.235 105.381 403.248 105.688 403.173 106L398.423 134.612C398.39 134.878 398.354 135.056 398.361 135.231C398.38 135.671 398.604 135.749 399.044 135.73L406.868 135.392C409.989 135.256 413.927 134.646 416.477 131.496C418.107 129.488 418.815 126.506 418.707 124.001C418.583 121.143 417.282 119.57 416.412 118.815C414.306 116.969 411.621 116.997 409.819 117.075L407.049 117.195L408.823 106.284C408.855 106.018 408.892 105.84 408.884 105.665C408.865 105.225 408.641 105.147 408.202 105.166L403.938 105.35ZM404.772 130.726L406.244 121.986L408.222 121.9C409.453 121.847 412.656 121.576 412.812 125.181C412.865 126.412 412.527 127.748 411.732 128.707C410.351 130.396 408.157 130.579 406.663 130.644L404.772 130.726ZM426.401 104.377C425.697 104.408 425.711 104.716 425.636 105.027L420.842 133.641C420.809 133.907 420.773 134.085 420.78 134.261C420.799 134.7 421.023 134.779 421.463 134.76L425.727 134.575C426.43 134.544 426.417 134.237 426.491 133.925L431.286 105.311C431.318 105.045 431.355 104.868 431.347 104.692C431.328 104.252 431.104 104.174 430.665 104.193L426.401 104.377ZM454.167 103.175C453.376 103.209 453.263 103.655 452.932 104.153L445.167 116.029C444.301 117.387 441.932 121.674 441.32 122.801L441.144 122.809C442.064 117.616 441.596 121.028 442.294 116.814L444.326 104.746C444.4 104.435 444.393 104.259 444.387 104.127C444.368 103.688 444.144 103.609 443.705 103.628L439.441 103.813C438.737 103.843 438.751 104.151 438.676 104.463L433.882 133.077C433.849 133.342 433.813 133.52 433.82 133.696C433.839 134.136 434.063 134.214 434.503 134.195L438.547 134.02C439.162 133.993 439.33 133.81 439.701 133.221L448.079 120.218C449.316 118.271 450.348 116.685 451.394 114.394L451.57 114.386C451.273 115.676 450.839 117.853 450.627 119.051L448.388 132.449C448.355 132.714 448.319 132.892 448.327 133.068C448.346 133.507 448.569 133.586 449.009 133.567L453.273 133.382C453.976 133.352 453.963 133.044 454.038 132.732L458.832 104.118C458.865 103.853 458.901 103.675 458.893 103.499C458.874 103.059 458.651 102.981 458.211 103L454.167 103.175ZM443.848 95.7386C443.586 95.794 443.154 95.9889 443.169 96.3405L443.182 96.6482C443.241 98.011 443.679 98.9609 444.099 99.5153C445.085 100.926 446.608 101.521 448.674 101.431C451.664 101.302 453.713 99.8036 454.613 98.2232C454.982 97.5906 455.493 96.1592 455.472 95.6757C455.458 95.3679 455.147 95.2933 455.015 95.2991L452.494 95.0559C452.362 95.0616 452.272 95.0215 452.141 95.0272C451.657 95.0481 451.584 95.4036 451.426 95.8068C450.951 97.0605 450.193 97.8421 448.918 97.8973C447.379 97.9639 447.154 96.8286 447.108 95.7736L447.104 95.6857C447.085 95.2461 446.866 95.2556 446.166 95.374L443.848 95.7386ZM477.217 102.177C476.514 102.207 476.527 102.515 476.452 102.827L471.658 131.441C471.625 131.707 471.589 131.884 471.596 132.06C471.615 132.5 471.839 132.578 472.279 132.559L479.488 132.247C483.049 132.093 487.078 131.566 489.754 128.279C491.008 126.727 491.882 124.531 491.781 122.202C491.649 119.168 489.964 116.863 487.42 116.093C488.456 115.607 489.743 114.803 490.674 113.926C492.153 112.496 493.126 110.561 493.02 108.099C492.74 101.637 486.404 101.779 484.646 101.855L477.217 102.177ZM480.177 114.601L481.539 106.394L483.649 106.303C484.88 106.249 487.21 106.148 487.336 109.05C487.389 110.28 487.091 111.527 486.425 112.436C485.221 114.118 483.298 114.465 481.804 114.53L480.177 114.601ZM477.935 127.91L479.444 119.036L481.906 118.93C483.269 118.871 485.692 118.898 485.835 122.195C485.919 124.129 485.223 125.348 484.678 125.988C483.338 127.588 481.408 127.76 479.737 127.832L477.935 127.91ZM501.734 101.115C501.383 101.131 500.857 101.197 500.717 102.04L495.923 130.654C495.783 131.497 496.312 131.518 496.664 131.503L500.664 131.33C501.587 131.29 501.609 130.76 501.681 130.405L503.782 117.894L506.332 117.784C509.057 117.666 509.171 119.291 509.229 120.609L509.501 125.882C509.613 128.476 510.047 130.351 512.369 131.087C513.04 131.322 514.28 131.489 515.159 131.451C515.687 131.428 516.124 131.365 516.361 130.738L517.711 127.333C517.991 126.66 517.719 126.496 517.41 126.465L516.167 126.254C514.837 126.048 514.788 124.905 514.721 123.366L514.517 119.676C514.389 117.743 513.918 116.002 511.506 115.226L511.5 115.094C514.103 114.188 515.138 112.646 515.839 110.546L516.891 107.373C517.516 105.541 517.926 104.818 519.317 104.406L520.231 104.146C520.666 104.039 520.871 103.678 520.806 103.196L520.363 100.088C520.298 99.6067 519.813 99.5837 519.505 99.5971C518.362 99.6465 516.757 100.201 515.682 100.82C513.448 102.105 512.781 103.984 512.195 105.727L510.907 109.526C509.933 112.475 508.588 112.93 506.741 113.01L504.587 113.103L506.476 101.791C506.508 101.525 506.702 100.9 505.734 100.942L501.734 101.115ZM532.847 117.12C532.664 114.926 532.263 111.773 532.135 110.853L530.535 100.353C530.413 99.5651 530.537 99.3836 529.268 99.5707L525.283 100.096C524.757 100.162 524.186 100.187 524.207 100.671C524.213 100.803 524.174 100.936 524.283 101.416L528.181 121.242C528.242 121.636 528.462 121.626 528.593 121.62L531.407 121.499L530.81 122.978C530.453 123.874 529.359 126.08 527.029 126.18C526.282 126.213 525.567 125.979 525.026 125.695C524.529 125.408 524.119 125.073 523.811 125.087C523.635 125.094 523.421 125.236 523.341 125.415L521.505 128.798C520.731 130.241 525.432 131.006 526.839 130.945C529.125 130.846 530.721 130.072 531.784 129.19C533.315 127.934 534.16 126.092 534.843 124.565L545.387 100.59C545.427 100.5 545.466 100.367 545.506 100.277C545.504 100.233 545.548 100.231 545.546 100.187C545.628 100.051 545.712 99.9596 545.707 99.8277C545.686 99.3442 545.158 99.367 544.849 99.3364L541.047 99.0165C540.296 98.961 540.231 99.4923 539.99 100.031L535.564 110.705C534.089 114.292 533.258 116.442 533.023 117.113L532.847 117.12ZM558.646 123.49C558.551 123.318 558.501 123.188 558.325 123.196C558.017 123.209 557.633 123.49 557.247 123.727C555.619 124.766 554.307 124.999 553.516 125.033C552.109 125.094 551.255 124.691 550.707 124.23C549.608 123.265 549.394 121.38 549.339 120.106C549.179 116.413 549.553 111.817 551.403 107.773C553.21 103.731 555.68 102.787 557.306 102.717C558.493 102.665 559.257 103.028 560.396 103.904C560.853 104.281 561.218 104.573 561.702 104.552C561.965 104.541 562.088 104.315 562.13 104.269L564.103 101.013C564.143 100.923 564.229 100.875 564.221 100.7C564.202 100.26 563.7 99.8413 563.383 99.6348C561.428 98.2221 559.079 97.8834 557.408 97.9557C554.727 98.0718 549.79 98.9903 546.398 105.083C543.987 109.415 543.153 114.56 543.374 119.659C543.479 122.077 544.004 126.062 546.83 128.274C548.152 129.318 550.029 129.941 552.271 129.844C554.469 129.749 556.942 128.893 558.622 128.027C559.182 127.739 560.043 127.261 560.022 126.778C560.016 126.646 559.964 126.472 559.917 126.386L558.646 123.49Z" fill="white"/>
</g>
<path d="M296.026 176.096H298.042C298.17 176.096 298.314 176.064 298.378 175.84L298.73 174.512C298.762 174.4 298.842 174.176 298.522 174.176H291.722C291.482 174.176 291.482 174.352 291.482 174.416V175.856C291.482 175.92 291.482 176.096 291.722 176.096H293.85V184.816C293.85 184.96 293.882 185.136 294.17 185.136H295.706C295.85 185.136 296.026 185.104 296.026 184.816V176.096ZM300.92 184.992L300.984 185.024C301.144 185.104 301.576 185.408 302.584 185.408C305.464 185.408 305.528 182.32 305.528 181.12C305.528 177.616 303.96 176.96 302.712 176.96C302.072 176.96 301.384 177.168 300.712 177.792C300.664 177.648 300.632 177.504 300.568 177.36C300.392 176.88 300.232 176.928 299.976 177.008L298.76 177.408C298.68 177.44 298.584 177.488 298.584 177.584C298.584 177.632 298.6 177.68 298.648 177.84C298.76 178.176 298.888 178.704 298.888 180.08V188.288C298.888 188.592 299.016 188.544 299.144 188.512L300.616 188.208C300.936 188.144 300.92 188.064 300.92 187.92V184.992ZM300.92 179.168L300.984 179.104C301.24 178.848 301.64 178.56 302.152 178.56C303.464 178.56 303.496 180.096 303.496 181.072C303.496 182.32 303.432 182.784 303.24 183.136C302.936 183.712 302.44 183.808 302.072 183.808C301.848 183.808 301.384 183.792 300.92 183.504V179.168ZM313.21 184.848C313.258 184.832 313.338 184.784 313.338 184.688C313.338 184.608 313.274 184.496 313.162 184.208C312.922 183.6 312.922 183.088 312.922 182.624V179.536C312.922 179.248 312.89 178.528 312.57 177.984C312.09 177.168 311.162 176.96 310.17 176.96C309.514 176.96 308.378 177.088 307.722 177.392C307.306 177.584 307.306 177.648 307.386 177.872L307.722 178.88C307.754 178.992 307.786 179.04 307.882 179.04C307.994 179.04 308.106 178.96 308.65 178.784C309.05 178.656 309.53 178.56 309.946 178.56C310.394 178.56 310.666 178.704 310.81 178.88C311.018 179.136 311.002 179.52 311.002 179.744V180.24C310.09 180.208 308.586 180.336 307.802 180.896C307.466 181.136 306.826 181.744 306.826 182.976C306.826 184.448 307.754 185.408 309.194 185.408C310.25 185.408 310.826 184.928 311.242 184.512L311.306 184.448C311.354 184.704 311.434 184.928 311.578 185.216C311.706 185.456 311.802 185.424 311.914 185.376L313.21 184.848ZM311.002 183.312C310.65 183.696 310.218 183.92 309.802 183.92C309.226 183.92 308.746 183.488 308.746 182.832C308.746 181.888 309.626 181.552 310.906 181.552H311.002V183.312ZM317.849 178.832H319.609C319.689 178.832 319.801 178.8 319.849 178.608L320.073 177.552C320.105 177.392 320.169 177.232 319.833 177.232H313.993C313.817 177.232 313.769 177.28 313.769 177.456V178.608C313.769 178.784 313.817 178.832 313.993 178.832H315.817V184.912C315.817 185.12 315.865 185.136 316.041 185.136H317.625C317.833 185.136 317.849 185.088 317.849 184.912V178.832ZM323.887 185.136C324.735 185.136 325.807 185.104 326.559 184.496C327.311 183.904 327.407 183.072 327.407 182.496C327.407 181.824 327.247 181.152 326.623 180.624C325.903 180.016 325.007 179.984 324.111 179.984H323.215V177.168C323.215 176.928 323.087 176.944 322.959 176.976L321.711 177.232C321.167 177.344 321.183 177.36 321.183 177.568V184.912C321.183 185.12 321.231 185.136 321.407 185.136H323.887ZM323.215 181.584H324.191C324.527 181.584 325.375 181.6 325.375 182.56C325.375 183.488 324.607 183.536 324.015 183.536H323.215V181.584ZM338.389 178.08C338.421 178.032 338.437 178 338.437 177.936C338.437 177.84 338.373 177.696 338.085 177.504C337.653 177.232 337.013 176.96 336.149 176.96C334.229 176.96 332.437 178.176 332.437 181.36C332.437 184.416 334.181 185.408 336.021 185.408C336.645 185.408 337.317 185.264 337.845 184.976C338.085 184.848 338.245 184.688 338.245 184.56C338.245 184.512 338.213 184.432 338.197 184.4L337.781 183.344C337.765 183.296 337.701 183.264 337.669 183.264C337.557 183.264 337.381 183.408 337.189 183.52C336.901 183.696 336.597 183.808 336.181 183.808C335.493 183.808 335.109 183.44 334.901 183.088C334.725 182.784 334.597 182.288 334.597 181.312C334.597 180.048 334.821 179.52 334.917 179.312C335.141 178.864 335.525 178.56 336.149 178.56C336.565 178.56 336.885 178.688 337.221 178.912C337.461 179.072 337.589 179.2 337.685 179.2C337.749 179.2 337.781 179.152 337.797 179.12L338.389 178.08ZM342.748 185.136C343.708 185.136 344.636 185.12 345.404 184.608C346.092 184.16 346.268 183.456 346.268 182.896C346.268 181.792 345.596 181.12 344.732 180.944C345.548 180.688 346.012 180 346.012 179.184C346.012 178.4 345.596 177.904 345.228 177.648C344.604 177.232 343.564 177.232 342.636 177.232H340.188C339.98 177.232 339.964 177.28 339.964 177.456V184.912C339.964 185.12 340.012 185.136 340.188 185.136H342.748ZM341.996 178.72H342.796C343.292 178.72 343.98 178.768 343.98 179.488C343.98 179.76 343.868 180.352 342.844 180.352H341.996V178.72ZM341.996 181.792H343.052C343.34 181.792 344.236 181.808 344.236 182.704C344.236 183.552 343.468 183.648 342.876 183.648H341.996V181.792ZM354.757 181.184C354.757 178.176 353.045 176.96 351.285 176.96C349.525 176.96 347.813 178.176 347.813 181.184C347.813 184.192 349.525 185.408 351.285 185.408C353.045 185.408 354.757 184.192 354.757 181.184ZM351.285 183.808C350.037 183.808 349.973 182.4 349.973 181.184C349.973 179.968 350.069 178.56 351.285 178.56C352.501 178.56 352.597 179.968 352.597 181.184C352.597 182.416 352.517 183.808 351.285 183.808ZM356.558 184.912C356.558 185.12 356.606 185.136 356.782 185.136H358.366C358.574 185.136 358.59 185.056 358.67 184.912L360.19 182.096C360.398 181.712 360.638 181.376 361.198 180.144H361.262C361.198 181.216 361.182 181.568 361.182 181.872V184.912C361.182 185.12 361.23 185.136 361.406 185.136H362.99C363.198 185.136 363.214 185.088 363.214 184.912V177.168C363.214 176.928 363.086 176.944 362.958 176.976L361.678 177.232C361.406 177.28 361.326 177.248 361.134 177.568L359.582 180.272C359.278 180.8 359.006 181.28 358.574 182.224H358.51C358.542 181.824 358.59 180.944 358.59 180.496V177.168C358.59 176.928 358.462 176.944 358.334 176.976L356.862 177.28C356.542 177.344 356.558 177.424 356.558 177.568V184.912ZM371.215 178.912H373.967C374.047 178.912 374.175 178.88 374.207 178.688L374.431 177.552C374.463 177.392 374.543 177.232 374.191 177.232H369.407C369.199 177.232 369.183 177.28 369.183 177.456V184.912C369.183 185.12 369.231 185.136 369.407 185.136H370.991C371.199 185.136 371.215 185.088 371.215 184.912V178.912ZM382.194 181.184C382.194 178.176 380.482 176.96 378.722 176.96C376.962 176.96 375.25 178.176 375.25 181.184C375.25 184.192 376.962 185.408 378.722 185.408C380.482 185.408 382.194 184.192 382.194 181.184ZM378.722 183.808C377.474 183.808 377.41 182.4 377.41 181.184C377.41 179.968 377.506 178.56 378.722 178.56C379.938 178.56 380.034 179.968 380.034 181.184C380.034 182.416 379.954 183.808 378.722 183.808ZM388.203 178.832V184.912C388.203 185.088 388.251 185.136 388.427 185.136H390.011C390.219 185.136 390.235 185.088 390.235 184.912V177.456C390.235 177.28 390.187 177.232 390.011 177.232H385.099C384.891 177.232 384.875 177.28 384.875 177.456V178.176C384.875 179.12 384.843 181.568 384.667 182.416C384.507 183.248 384.139 183.52 383.595 183.648L383.323 183.712C383.227 183.728 383.051 183.744 383.115 183.984L383.435 185.168C383.467 185.28 383.499 185.408 383.771 185.408C384.155 185.408 385.611 185.312 386.267 183.68C386.763 182.416 386.811 179.952 386.811 179.04V178.832H388.203ZM398.975 181.184C398.975 178.176 397.263 176.96 395.503 176.96C393.743 176.96 392.031 178.176 392.031 181.184C392.031 184.192 393.743 185.408 395.503 185.408C397.263 185.408 398.975 184.192 398.975 181.184ZM395.503 183.808C394.255 183.808 394.191 182.4 394.191 181.184C394.191 179.968 394.287 178.56 395.503 178.56C396.719 178.56 396.815 179.968 396.815 181.184C396.815 182.416 396.735 183.808 395.503 183.808ZM406.264 178.08C406.296 178.032 406.312 178 406.312 177.936C406.312 177.84 406.248 177.696 405.96 177.504C405.528 177.232 404.888 176.96 404.024 176.96C402.104 176.96 400.312 178.176 400.312 181.36C400.312 184.416 402.056 185.408 403.896 185.408C404.52 185.408 405.192 185.264 405.72 184.976C405.96 184.848 406.12 184.688 406.12 184.56C406.12 184.512 406.088 184.432 406.072 184.4L405.656 183.344C405.64 183.296 405.576 183.264 405.544 183.264C405.432 183.264 405.256 183.408 405.064 183.52C404.776 183.696 404.472 183.808 404.056 183.808C403.368 183.808 402.984 183.44 402.776 183.088C402.6 182.784 402.472 182.288 402.472 181.312C402.472 180.048 402.696 179.52 402.792 179.312C403.016 178.864 403.4 178.56 404.024 178.56C404.44 178.56 404.76 178.688 405.096 178.912C405.336 179.072 405.464 179.2 405.56 179.2C405.624 179.2 405.656 179.152 405.672 179.12L406.264 178.08ZM413.663 184.848C413.711 184.832 413.791 184.784 413.791 184.688C413.791 184.608 413.727 184.496 413.615 184.208C413.375 183.6 413.375 183.088 413.375 182.624V179.536C413.375 179.248 413.343 178.528 413.023 177.984C412.543 177.168 411.615 176.96 410.623 176.96C409.967 176.96 408.831 177.088 408.175 177.392C407.759 177.584 407.759 177.648 407.839 177.872L408.175 178.88C408.207 178.992 408.239 179.04 408.335 179.04C408.447 179.04 408.559 178.96 409.103 178.784C409.503 178.656 409.983 178.56 410.399 178.56C410.847 178.56 411.119 178.704 411.263 178.88C411.471 179.136 411.455 179.52 411.455 179.744V180.24C410.543 180.208 409.039 180.336 408.255 180.896C407.919 181.136 407.279 181.744 407.279 182.976C407.279 184.448 408.207 185.408 409.647 185.408C410.703 185.408 411.279 184.928 411.695 184.512L411.759 184.448C411.807 184.704 411.887 184.928 412.031 185.216C412.159 185.456 412.255 185.424 412.367 185.376L413.663 184.848ZM411.455 183.312C411.103 183.696 410.671 183.92 410.255 183.92C409.679 183.92 409.199 183.488 409.199 182.832C409.199 181.888 410.079 181.552 411.359 181.552H411.455V183.312ZM420.06 183.136C419.868 183.136 419.772 183.216 419.708 183.408L418.7 186.72C418.684 186.784 418.668 186.832 418.668 186.88C418.668 187.024 418.828 187.056 418.924 187.088L419.596 187.312C419.644 187.328 419.676 187.344 419.724 187.344C419.836 187.344 419.868 187.264 419.932 187.152L421.852 183.552C421.884 183.472 421.932 183.392 421.932 183.312C421.932 183.152 421.772 183.136 421.612 183.136H420.06ZM431.281 180.784C430.977 180.944 430.609 181.008 430.289 181.008C429.521 181.008 429.457 180.48 429.457 180.192V177.168C429.457 176.928 429.329 176.944 429.201 176.976L427.969 177.232C427.393 177.344 427.425 177.36 427.425 177.568V180.192C427.425 180.72 427.425 181.392 427.841 181.904C428.177 182.32 428.801 182.608 429.585 182.608C430.241 182.608 430.881 182.432 431.281 182.288V184.912C431.281 185.088 431.329 185.136 431.505 185.136H433.089C433.297 185.136 433.313 185.088 433.313 184.912V177.168C433.313 176.928 433.185 176.944 433.057 176.976L431.585 177.28C431.265 177.344 431.281 177.424 431.281 177.568V180.784ZM438.599 178.832H440.359C440.439 178.832 440.551 178.8 440.599 178.608L440.823 177.552C440.855 177.392 440.919 177.232 440.583 177.232H434.743C434.567 177.232 434.519 177.28 434.519 177.456V178.608C434.519 178.784 434.567 178.832 434.743 178.832H436.567V184.912C436.567 185.12 436.615 185.136 436.791 185.136H438.375C438.583 185.136 438.599 185.088 438.599 184.912V178.832ZM448.429 181.184C448.429 178.176 446.717 176.96 444.957 176.96C443.197 176.96 441.485 178.176 441.485 181.184C441.485 184.192 443.197 185.408 444.957 185.408C446.717 185.408 448.429 184.192 448.429 181.184ZM444.957 183.808C443.709 183.808 443.645 182.4 443.645 181.184C443.645 179.968 443.741 178.56 444.957 178.56C446.173 178.56 446.269 179.968 446.269 181.184C446.269 182.416 446.189 183.808 444.957 183.808ZM455.036 178.672L455.052 178.496C455.196 176.944 456.46 176.336 456.892 176.144L460.22 174.72C460.524 174.592 460.46 174.384 460.428 174.32L459.884 173.136C459.772 172.88 459.484 173.024 459.388 173.072L456.38 174.432C455.148 174.992 454.316 176.064 453.948 177.088C453.612 177.984 453.564 179.072 453.564 180.256C453.564 181.296 453.612 182.512 454.092 183.52C454.908 185.2 456.38 185.408 457.116 185.408C458.908 185.408 460.588 184.128 460.588 181.344C460.588 178.832 459.324 177.328 457.436 177.328C456.364 177.328 455.548 177.792 455.1 178.672H455.036ZM457.116 183.808C455.868 183.808 455.804 182.352 455.804 181.344C455.804 180.352 455.868 178.928 457.116 178.928C458.364 178.928 458.428 180.352 458.428 181.344C458.428 182.352 458.364 183.808 457.116 183.808ZM465.105 185.136C465.953 185.136 467.025 185.104 467.777 184.496C468.529 183.904 468.625 183.072 468.625 182.496C468.625 181.824 468.465 181.152 467.841 180.624C467.121 180.016 466.225 179.984 465.329 179.984H464.433V177.168C464.433 176.928 464.305 176.944 464.177 176.976L462.961 177.232C462.385 177.36 462.401 177.344 462.401 177.568V184.912C462.401 185.12 462.449 185.136 462.625 185.136H465.105ZM464.433 181.584H465.409C465.745 181.584 466.593 181.6 466.593 182.56C466.593 183.488 465.825 183.536 465.233 183.536H464.433V181.584ZM469.729 184.912C469.729 185.12 469.777 185.136 469.953 185.136H471.537C471.745 185.136 471.761 185.088 471.761 184.912V177.168C471.761 176.928 471.633 176.944 471.505 176.976L470.033 177.28C469.713 177.344 469.729 177.424 469.729 177.568V184.912ZM480.513 185.136C481.473 185.136 482.401 185.12 483.169 184.608C483.857 184.16 484.033 183.456 484.033 182.896C484.033 181.792 483.361 181.12 482.497 180.944C483.313 180.688 483.777 180 483.777 179.184C483.777 178.4 483.361 177.904 482.993 177.648C482.369 177.232 481.329 177.232 480.401 177.232H477.953C477.745 177.232 477.729 177.28 477.729 177.456V184.912C477.729 185.12 477.777 185.136 477.953 185.136H480.513ZM479.761 178.72H480.561C481.057 178.72 481.745 178.768 481.745 179.488C481.745 179.76 481.633 180.352 480.609 180.352H479.761V178.72ZM479.761 181.792H480.817C481.105 181.792 482.001 181.808 482.001 182.704C482.001 183.552 481.233 183.648 480.641 183.648H479.761V181.792ZM488.73 185.136C489.578 185.136 490.65 185.104 491.402 184.496C492.154 183.904 492.25 183.072 492.25 182.496C492.25 181.824 492.09 181.152 491.466 180.624C490.746 180.016 489.85 179.984 488.954 179.984H488.058V177.168C488.058 176.928 487.93 176.944 487.802 176.976L486.586 177.232C486.01 177.36 486.026 177.344 486.026 177.568V184.912C486.026 185.12 486.074 185.136 486.25 185.136H488.73ZM488.058 181.584H489.034C489.37 181.584 490.218 181.6 490.218 182.56C490.218 183.488 489.45 183.536 488.858 183.536H488.058V181.584ZM493.354 184.912C493.354 185.12 493.402 185.136 493.578 185.136H495.162C495.37 185.136 495.386 185.088 495.386 184.912V177.168C495.386 176.928 495.258 176.944 495.13 176.976L493.658 177.28C493.338 177.344 493.354 177.424 493.354 177.568V184.912ZM498.692 178.672L498.708 178.496C498.852 176.944 500.116 176.336 500.548 176.144L503.876 174.72C504.18 174.592 504.116 174.384 504.084 174.32L503.54 173.136C503.428 172.88 503.14 173.024 503.044 173.072L500.036 174.432C498.804 174.992 497.972 176.064 497.604 177.088C497.268 177.984 497.22 179.072 497.22 180.256C497.22 181.296 497.268 182.512 497.748 183.52C498.564 185.2 500.036 185.408 500.772 185.408C502.564 185.408 504.244 184.128 504.244 181.344C504.244 178.832 502.98 177.328 501.092 177.328C500.02 177.328 499.204 177.792 498.756 178.672H498.692ZM500.772 183.808C499.524 183.808 499.46 182.352 499.46 181.344C499.46 180.352 499.524 178.928 500.772 178.928C502.02 178.928 502.084 180.352 502.084 181.344C502.084 182.352 502.02 183.808 500.772 183.808ZM508.186 184.992L508.25 185.024C508.41 185.104 508.842 185.408 509.85 185.408C512.73 185.408 512.794 182.32 512.794 181.12C512.794 177.616 511.226 176.96 509.978 176.96C509.338 176.96 508.65 177.168 507.978 177.792C507.93 177.648 507.898 177.504 507.834 177.36C507.658 176.88 507.498 176.928 507.242 177.008L506.026 177.408C505.946 177.44 505.85 177.488 505.85 177.584C505.85 177.632 505.866 177.68 505.914 177.84C506.026 178.176 506.154 178.704 506.154 180.08V188.288C506.154 188.592 506.282 188.544 506.41 188.512L507.882 188.208C508.202 188.144 508.186 188.064 508.186 187.92V184.992ZM508.186 179.168L508.25 179.104C508.506 178.848 508.906 178.56 509.418 178.56C510.73 178.56 510.762 180.096 510.762 181.072C510.762 182.32 510.698 182.784 510.506 183.136C510.202 183.712 509.706 183.808 509.338 183.808C509.114 183.808 508.65 183.792 508.186 183.504V179.168ZM520.475 184.848C520.523 184.832 520.603 184.784 520.603 184.688C520.603 184.608 520.539 184.496 520.427 184.208C520.187 183.6 520.187 183.088 520.187 182.624V179.536C520.187 179.248 520.155 178.528 519.835 177.984C519.355 177.168 518.427 176.96 517.435 176.96C516.779 176.96 515.643 177.088 514.987 177.392C514.571 177.584 514.571 177.648 514.651 177.872L514.987 178.88C515.019 178.992 515.051 179.04 515.147 179.04C515.259 179.04 515.371 178.96 515.915 178.784C516.315 178.656 516.795 178.56 517.211 178.56C517.659 178.56 517.931 178.704 518.075 178.88C518.283 179.136 518.267 179.52 518.267 179.744V180.24C517.355 180.208 515.851 180.336 515.067 180.896C514.731 181.136 514.091 181.744 514.091 182.976C514.091 184.448 515.019 185.408 516.459 185.408C517.515 185.408 518.091 184.928 518.507 184.512L518.571 184.448C518.619 184.704 518.699 184.928 518.843 185.216C518.971 185.456 519.067 185.424 519.179 185.376L520.475 184.848ZM518.267 183.312C517.915 183.696 517.483 183.92 517.067 183.92C516.491 183.92 516.011 183.488 516.011 182.832C516.011 181.888 516.891 181.552 518.171 181.552H518.267V183.312ZM525.115 178.832H526.875C526.955 178.832 527.067 178.8 527.115 178.608L527.339 177.552C527.371 177.392 527.435 177.232 527.099 177.232H521.259C521.083 177.232 521.035 177.28 521.035 177.456V178.608C521.035 178.784 521.083 178.832 521.259 178.832H523.083V184.912C523.083 185.12 523.131 185.136 523.307 185.136H524.891C525.099 185.136 525.115 185.088 525.115 184.912V178.832ZM531.152 185.136C532 185.136 533.072 185.104 533.824 184.496C534.576 183.904 534.672 183.072 534.672 182.496C534.672 181.824 534.512 181.152 533.888 180.624C533.168 180.016 532.272 179.984 531.376 179.984H530.48V177.168C530.48 176.928 530.352 176.944 530.224 176.976L528.976 177.232C528.432 177.344 528.448 177.36 528.448 177.568V184.912C528.448 185.12 528.496 185.136 528.672 185.136H531.152ZM530.48 181.584H531.456C531.792 181.584 532.64 181.6 532.64 182.56C532.64 183.488 531.872 183.536 531.28 183.536H530.48V181.584ZM544.503 180.192H542.199V177.168C542.199 176.928 542.071 176.944 541.943 176.976L540.679 177.232C540.135 177.344 540.167 177.392 540.167 177.568V184.912C540.167 185.088 540.215 185.136 540.391 185.136H541.975C542.183 185.136 542.199 185.088 542.199 184.912V181.792H544.503V184.912C544.503 185.12 544.551 185.136 544.727 185.136H546.311C546.519 185.136 546.535 185.088 546.535 184.912V177.168C546.535 176.928 546.407 176.944 546.279 176.976L544.807 177.28C544.487 177.344 544.503 177.424 544.503 177.568V180.192ZM555.272 181.184C555.272 178.176 553.56 176.96 551.8 176.96C550.04 176.96 548.328 178.176 548.328 181.184C548.328 184.192 550.04 185.408 551.8 185.408C553.56 185.408 555.272 184.192 555.272 181.184ZM551.8 183.808C550.552 183.808 550.488 182.4 550.488 181.184C550.488 179.968 550.584 178.56 551.8 178.56C553.016 178.56 553.112 179.968 553.112 181.184C553.112 182.416 553.032 183.808 551.8 183.808ZM559.857 185.136C560.817 185.136 561.745 185.12 562.513 184.608C563.201 184.16 563.377 183.456 563.377 182.896C563.377 181.792 562.705 181.12 561.841 180.944C562.657 180.688 563.121 180 563.121 179.184C563.121 178.4 562.705 177.904 562.337 177.648C561.713 177.232 560.673 177.232 559.745 177.232H557.297C557.089 177.232 557.073 177.28 557.073 177.456V184.912C557.073 185.12 557.121 185.136 557.297 185.136H559.857ZM559.105 178.72H559.905C560.401 178.72 561.089 178.768 561.089 179.488C561.089 179.76 560.977 180.352 559.953 180.352H559.105V178.72ZM559.105 181.792H560.161C560.449 181.792 561.345 181.808 561.345 182.704C561.345 183.552 560.577 183.648 559.985 183.648H559.105V181.792ZM568.074 185.136C568.922 185.136 569.994 185.104 570.746 184.496C571.498 183.904 571.594 183.072 571.594 182.496C571.594 181.824 571.434 181.152 570.81 180.624C570.09 180.016 569.194 179.984 568.298 179.984H567.402V177.168C567.402 176.928 567.274 176.944 567.146 176.976L565.93 177.232C565.354 177.36 565.37 177.344 565.37 177.568V184.912C565.37 185.12 565.418 185.136 565.594 185.136H568.074ZM567.402 181.584H568.378C568.714 181.584 569.562 181.6 569.562 182.56C569.562 183.488 568.794 183.536 568.202 183.536H567.402V181.584ZM572.698 184.912C572.698 185.12 572.746 185.136 572.922 185.136H574.506C574.714 185.136 574.73 185.088 574.73 184.912V177.168C574.73 176.928 574.602 176.944 574.474 176.976L573.002 177.28C572.682 177.344 572.698 177.424 572.698 177.568V184.912ZM576.964 184.912C576.964 185.12 577.012 185.136 577.188 185.136H578.772C578.98 185.136 578.996 185.056 579.076 184.912L580.596 182.096C580.804 181.712 581.044 181.376 581.604 180.144H581.668C581.604 181.152 581.588 181.584 581.588 181.872V184.912C581.588 185.12 581.636 185.136 581.812 185.136H583.396C583.604 185.136 583.62 185.088 583.62 184.912V177.168C583.62 176.928 583.492 176.944 583.364 176.976L582.116 177.232C581.86 177.28 581.748 177.216 581.54 177.568L579.988 180.272C579.684 180.8 579.412 181.28 578.98 182.224H578.916C578.948 181.824 578.996 180.944 578.996 180.496V177.168C578.996 176.928 578.868 176.944 578.74 176.976L577.268 177.28C576.948 177.344 576.964 177.424 576.964 177.568V184.912ZM581.492 173.6C581.46 173.6 581.412 173.584 581.38 173.584C581.188 173.584 581.204 173.712 581.124 173.952C580.996 174.4 580.772 174.64 580.292 174.64C579.812 174.64 579.588 174.4 579.46 173.952C579.412 173.776 579.396 173.68 579.348 173.632C579.284 173.552 579.172 173.584 579.092 173.6L578.164 173.728C578.1 173.744 578.02 173.808 578.02 173.984C578.02 174.24 578.116 174.608 578.308 174.928C578.676 175.52 579.396 175.952 580.292 175.952C581.188 175.952 581.908 175.52 582.276 174.928C582.468 174.608 582.564 174.24 582.564 173.984C582.564 173.808 582.484 173.744 582.42 173.728L581.492 173.6ZM592.373 185.136C593.333 185.136 594.261 185.12 595.029 184.608C595.717 184.16 595.893 183.456 595.893 182.896C595.893 181.792 595.221 181.12 594.357 180.944C595.173 180.688 595.637 180 595.637 179.184C595.637 178.4 595.221 177.904 594.853 177.648C594.229 177.232 593.189 177.232 592.261 177.232H589.813C589.605 177.232 589.589 177.28 589.589 177.456V184.912C589.589 185.12 589.637 185.136 589.813 185.136H592.373ZM591.621 178.72H592.421C592.917 178.72 593.605 178.768 593.605 179.488C593.605 179.76 593.493 180.352 592.469 180.352H591.621V178.72ZM591.621 181.792H592.677C592.965 181.792 593.861 181.808 593.861 182.704C593.861 183.552 593.093 183.648 592.501 183.648H591.621V181.792ZM599.63 185.136C599.918 185.136 599.918 185.024 599.918 184.912V181.824H600.574C601.31 181.824 601.406 182.176 601.502 182.608L601.806 183.936C601.918 184.416 602.094 184.8 602.478 185.056C602.894 185.344 603.646 185.408 603.95 185.408C604.302 185.408 604.334 185.28 604.366 185.168L604.654 184.144C604.734 183.84 604.59 183.808 604.478 183.792L604.126 183.728C603.774 183.664 603.71 183.504 603.582 183.12L603.278 182.24C603.102 181.744 602.942 181.168 602.174 181.008V180.96C602.846 180.832 603.054 180.288 603.15 179.952L603.326 179.328C603.502 178.688 603.662 178.656 603.982 178.592L604.222 178.544C604.382 178.512 604.462 178.4 604.43 178.288L604.11 177.12C604.078 177.024 604.046 176.96 603.822 176.96C603.534 176.96 602.798 177.056 602.35 177.456C601.966 177.792 601.822 178.256 601.758 178.528L601.55 179.44C601.454 179.872 601.358 180.224 600.622 180.224H599.918V177.168C599.918 176.928 599.79 176.944 599.662 176.976L598.414 177.232C597.87 177.344 597.886 177.36 597.886 177.568V184.912C597.886 185.024 597.886 185.136 598.174 185.136H599.63ZM610.699 177.088C610.395 177.056 610.299 177.232 610.251 177.424L609.403 181.28C609.355 181.536 609.211 181.968 608.875 184.048H608.843C608.731 183.456 608.395 181.872 608.235 181.28L607.195 177.408C607.099 177.024 607.035 177.072 606.715 177.104L605.387 177.232C605.211 177.248 605.035 177.264 605.035 177.424C605.035 177.504 605.067 177.568 605.115 177.696L607.563 184.928C607.643 185.168 607.739 185.136 607.851 185.136H608.523L608.363 185.664C608.187 186.24 607.963 186.848 607.099 186.848C606.651 186.848 606.235 186.672 605.979 186.544C605.867 186.48 605.803 186.448 605.739 186.448C605.691 186.448 605.627 186.464 605.579 186.56L605.067 187.664C605.003 187.808 604.987 187.92 605.451 188.128C606.075 188.416 606.667 188.528 607.211 188.528C607.899 188.528 608.907 188.352 609.515 187.136C609.787 186.592 610.027 185.728 610.635 183.472L612.203 177.712C612.251 177.536 612.267 177.488 612.267 177.44C612.267 177.28 612.091 177.264 611.931 177.248L610.699 177.088ZM618.952 178.08C618.984 178.032 619 178 619 177.936C619 177.84 618.936 177.696 618.648 177.504C618.216 177.232 617.576 176.96 616.712 176.96C614.792 176.96 613 178.176 613 181.36C613 184.416 614.744 185.408 616.584 185.408C617.208 185.408 617.88 185.264 618.408 184.976C618.648 184.848 618.808 184.688 618.808 184.56C618.808 184.512 618.776 184.432 618.76 184.4L618.344 183.344C618.328 183.296 618.264 183.264 618.232 183.264C618.12 183.264 617.944 183.408 617.752 183.52C617.464 183.696 617.16 183.808 616.744 183.808C616.056 183.808 615.672 183.44 615.464 183.088C615.288 182.784 615.16 182.288 615.16 181.312C615.16 180.048 615.384 179.52 615.48 179.312C615.704 178.864 616.088 178.56 616.712 178.56C617.128 178.56 617.448 178.688 617.784 178.912C618.024 179.072 618.152 179.2 618.248 179.2C618.312 179.2 618.344 179.152 618.36 179.12L618.952 178.08ZM308.01 193.176C307.802 193.176 307.786 193.272 307.738 193.416L304.554 203.816C304.522 203.912 304.458 204.136 304.794 204.136H306.506C306.714 204.136 306.73 204.056 306.794 203.8L307.45 201.208H310.202L310.906 203.8C311.002 204.12 311.05 204.136 311.242 204.136H313.018C313.098 204.136 313.274 204.12 313.274 203.944C313.274 203.864 313.242 203.816 313.226 203.752L310.09 193.432C310.042 193.272 310.01 193.176 309.85 193.176H308.01ZM309.802 199.768H307.69L308.394 197.016C308.682 195.912 308.73 195.32 308.746 194.888H308.794C308.922 195.992 309.034 196.536 309.146 197.016L309.802 199.768ZM317.835 202.52C317.819 202.456 317.755 202.424 317.707 202.424C317.659 202.424 317.595 202.456 317.483 202.488C317.355 202.536 317.227 202.568 317.099 202.568C316.603 202.568 316.635 202.04 316.635 201.608V192.888C316.635 192.776 316.651 192.632 316.587 192.584C316.523 192.536 316.427 192.552 316.379 192.568L314.907 192.872C314.587 192.936 314.603 193.016 314.603 193.16V201.32C314.603 202.904 314.635 204.408 316.651 204.408C317.099 204.408 317.451 204.328 317.867 204.2C318.171 204.104 318.203 204.008 318.155 203.832L317.835 202.52ZM321.529 203.992L321.593 204.024C321.753 204.104 322.185 204.408 323.193 204.408C326.073 204.408 326.137 201.32 326.137 200.12C326.137 196.616 324.569 195.96 323.321 195.96C322.681 195.96 321.993 196.168 321.321 196.792C321.273 196.648 321.241 196.504 321.177 196.36C321.001 195.88 320.841 195.928 320.585 196.008L319.369 196.408C319.289 196.44 319.193 196.488 319.193 196.584C319.193 196.632 319.209 196.68 319.257 196.84C319.369 197.176 319.497 197.704 319.497 199.08V207.288C319.497 207.592 319.625 207.544 319.753 207.512L321.225 207.208C321.545 207.144 321.529 207.064 321.529 206.92V203.992ZM321.529 198.168L321.593 198.104C321.849 197.848 322.249 197.56 322.761 197.56C324.073 197.56 324.105 199.096 324.105 200.072C324.105 201.32 324.041 201.784 323.849 202.136C323.545 202.712 323.049 202.808 322.681 202.808C322.457 202.808 321.993 202.792 321.529 202.504V198.168ZM333.867 200.728C334.075 200.728 334.235 200.712 334.235 200.216C334.235 199.8 334.219 199.208 334.059 198.536C333.771 197.288 333.051 195.96 331.035 195.96C328.795 195.96 327.531 197.864 327.531 200.392C327.531 201.496 327.755 204.408 331.179 204.408C332.075 204.408 333.131 204.168 333.723 203.768C333.851 203.688 333.979 203.576 333.979 203.416C333.979 203.368 333.963 203.336 333.931 203.272L333.531 202.328C333.499 202.248 333.451 202.2 333.355 202.2C333.259 202.2 333.115 202.264 332.923 202.36C332.619 202.504 332.059 202.728 331.323 202.728C329.995 202.728 329.563 201.896 329.563 200.728H333.867ZM329.563 199.24C329.659 198.152 330.011 197.448 330.923 197.448C331.563 197.448 331.883 197.816 332.011 198.424C332.043 198.552 332.091 198.808 332.075 199.24H329.563ZM342.395 198.296C342.395 197.08 341.771 195.96 340.331 195.96C339.579 195.96 338.747 196.184 337.867 197.064C337.819 196.744 337.739 196.488 337.659 196.296C337.499 195.928 337.435 195.896 337.115 196.008L335.899 196.408C335.739 196.456 335.723 196.552 335.723 196.616C335.723 196.76 335.787 196.824 335.867 197.144C335.963 197.56 336.027 198.04 336.027 199.08V203.912C336.027 204.12 336.075 204.136 336.251 204.136H337.835C338.043 204.136 338.059 204.088 338.059 203.912V198.296C338.667 197.736 339.115 197.64 339.419 197.64C340.315 197.64 340.363 198.392 340.363 198.984V203.912C340.363 204.12 340.411 204.136 340.587 204.136H342.171C342.379 204.136 342.395 204.088 342.395 203.912V198.296ZM353.492 200.136V202.424C353.044 202.632 352.676 202.68 352.388 202.68C351.86 202.68 351.396 202.52 351.092 202.248C350.292 201.528 350.212 199.656 350.212 198.856C350.212 198.008 350.324 196.712 350.548 196.04C350.852 195.16 351.396 194.632 352.372 194.632C352.868 194.632 353.332 194.776 353.812 195.032C354.228 195.256 354.34 195.336 354.436 195.336C354.564 195.336 354.596 195.24 354.644 195.16L355.172 194.104C355.236 193.976 355.3 193.864 354.884 193.608C354.612 193.448 353.684 192.904 352.228 192.904C350.884 192.904 349.94 193.368 349.268 194.088C348.5 194.92 347.94 196.328 347.94 198.888C347.94 200.536 348.228 201.944 349.028 203C349.748 203.944 350.756 204.408 352.244 204.408C353.572 204.408 354.452 204.024 354.9 203.784C355.316 203.56 355.428 203.448 355.428 203.224V198.728C355.428 198.44 355.252 198.408 355.108 198.408H352.276C352.132 198.408 351.956 198.44 351.956 198.728V199.816C351.956 200.104 352.132 200.136 352.276 200.136H353.492ZM364.116 200.184C364.116 197.176 362.404 195.96 360.644 195.96C358.884 195.96 357.172 197.176 357.172 200.184C357.172 203.192 358.884 204.408 360.644 204.408C362.404 204.408 364.116 203.192 364.116 200.184ZM360.644 202.808C359.396 202.808 359.332 201.4 359.332 200.184C359.332 198.968 359.428 197.56 360.644 197.56C361.86 197.56 361.956 198.968 361.956 200.184C361.956 201.416 361.876 202.808 360.644 202.808ZM369.069 202.52C369.053 202.456 368.989 202.424 368.941 202.424C368.893 202.424 368.829 202.456 368.717 202.488C368.589 202.536 368.461 202.568 368.333 202.568C367.837 202.568 367.869 202.04 367.869 201.608V192.888C367.869 192.776 367.885 192.632 367.821 192.584C367.757 192.536 367.661 192.552 367.613 192.568L366.141 192.872C365.821 192.936 365.837 193.016 365.837 193.16V201.32C365.837 202.904 365.869 204.408 367.885 204.408C368.333 204.408 368.685 204.328 369.101 204.2C369.405 204.104 369.437 204.008 369.389 203.832L369.069 202.52ZM375.036 203.448C375.116 203.832 375.212 204.024 375.324 204.232C375.436 204.456 375.532 204.424 375.628 204.376L376.924 203.848C377.036 203.8 377.068 203.768 377.068 203.704C377.068 203.64 377.036 203.576 376.956 203.256C376.796 202.616 376.78 201.88 376.78 201.624V192.888C376.78 192.504 376.716 192.52 376.524 192.568L375.004 192.888C374.732 192.936 374.748 193.016 374.748 193.16V196.44C374.316 196.088 373.852 195.96 373.244 195.96C372.06 195.96 370.188 196.6 370.188 200.392C370.188 203.784 371.756 204.408 372.86 204.408C373.66 204.408 374.38 204.104 375.004 203.48L375.036 203.448ZM374.748 202.248L374.652 202.36C374.476 202.568 374.172 202.808 373.564 202.808C373.212 202.808 372.78 202.728 372.492 202.2C372.364 201.944 372.22 201.512 372.22 200.152C372.22 199.064 372.3 198.456 372.588 198.072C372.908 197.624 373.34 197.56 373.66 197.56C374.14 197.56 374.412 197.688 374.668 197.832L374.748 197.88V202.248ZM388.763 196.456C388.763 196.376 388.779 196.232 388.539 196.232H383.707C383.451 196.232 383.483 196.344 383.483 196.456V197.176C383.483 199.288 383.451 200.808 382.523 202.536H382.011C381.899 202.536 381.787 202.504 381.787 202.76V206.152C381.787 206.328 381.835 206.376 382.011 206.376H383.515C383.723 206.376 383.739 206.328 383.739 206.152V204.136H387.803V206.152C387.803 206.328 387.851 206.376 388.027 206.376H389.531C389.739 206.376 389.755 206.328 389.755 206.152V202.76C389.755 202.504 389.643 202.536 389.531 202.536H388.763V196.456ZM386.731 202.536H384.475C385.179 201.064 385.291 199.688 385.291 198.344V197.832H386.731V202.536ZM395.437 197.832V203.912C395.437 204.088 395.485 204.136 395.661 204.136H397.245C397.453 204.136 397.469 204.088 397.469 203.912V196.456C397.469 196.28 397.421 196.232 397.245 196.232H392.333C392.125 196.232 392.109 196.28 392.109 196.456V197.176C392.109 198.12 392.077 200.568 391.901 201.416C391.741 202.248 391.373 202.52 390.829 202.648L390.557 202.712C390.461 202.728 390.285 202.744 390.349 202.984L390.669 204.168C390.701 204.28 390.733 204.408 391.005 204.408C391.389 204.408 392.845 204.312 393.501 202.68C393.997 201.416 394.045 198.952 394.045 198.04V197.832H395.437ZM405.394 204.136C405.57 204.136 405.618 204.12 405.618 203.912V196.456C405.618 196.248 405.57 196.232 405.394 196.232H402.338C401.906 196.232 400.93 196.264 400.258 196.792C399.714 197.208 399.442 197.912 399.442 198.536C399.442 199 399.602 199.576 399.922 199.928C400.162 200.184 400.562 200.424 400.946 200.52V200.552C400.37 200.712 400.13 201.144 399.954 201.768L399.858 202.12C399.746 202.504 399.65 202.664 399.314 202.728L398.994 202.792C398.882 202.808 398.738 202.84 398.818 203.144L399.106 204.168C399.138 204.28 399.154 204.408 399.49 204.408C399.858 204.408 400.514 204.328 400.93 204.04C401.362 203.736 401.522 203.304 401.634 202.888L401.89 201.976C402.034 201.448 402.162 201.192 402.834 201.192H403.586V203.912C403.586 204.088 403.602 204.136 403.81 204.136H405.394ZM403.586 199.672H402.722C402.354 199.672 401.474 199.608 401.474 198.712C401.474 198.392 401.602 197.752 402.642 197.752H403.586V199.672ZM414.069 194.904H416.949V203.816C416.949 203.96 416.981 204.136 417.269 204.136H418.805C418.949 204.136 419.125 204.104 419.125 203.816V193.496C419.125 193.352 419.093 193.176 418.805 193.176H412.213C412.069 193.176 411.893 193.208 411.893 193.496V203.816C411.893 203.96 411.925 204.136 412.213 204.136H413.749C414.037 204.136 414.069 203.96 414.069 203.816V194.904ZM427.347 204.136C427.523 204.136 427.571 204.12 427.571 203.912V196.456C427.571 196.248 427.523 196.232 427.347 196.232H424.291C423.859 196.232 422.883 196.264 422.211 196.792C421.667 197.208 421.395 197.912 421.395 198.536C421.395 199 421.555 199.576 421.875 199.928C422.115 200.184 422.515 200.424 422.899 200.52V200.552C422.323 200.712 422.083 201.144 421.907 201.768L421.811 202.12C421.699 202.504 421.603 202.664 421.267 202.728L420.947 202.792C420.835 202.808 420.691 202.84 420.771 203.144L421.059 204.168C421.091 204.28 421.107 204.408 421.443 204.408C421.811 204.408 422.467 204.328 422.883 204.04C423.315 203.736 423.475 203.304 423.587 202.888L423.843 201.976C423.987 201.448 424.115 201.192 424.787 201.192H425.539V203.912C425.539 204.088 425.555 204.136 425.763 204.136H427.347ZM425.539 199.672H424.675C424.307 199.672 423.427 199.608 423.427 198.712C423.427 198.392 423.555 197.752 424.595 197.752H425.539V199.672ZM432.928 197.832H434.688C434.768 197.832 434.88 197.8 434.928 197.608L435.152 196.552C435.184 196.392 435.248 196.232 434.912 196.232H429.072C428.896 196.232 428.848 196.28 428.848 196.456V197.608C428.848 197.784 428.896 197.832 429.072 197.832H430.896V203.912C430.896 204.12 430.944 204.136 431.12 204.136H432.704C432.911 204.136 432.928 204.088 432.928 203.912V197.832ZM442.133 200.728C442.341 200.728 442.501 200.712 442.501 200.216C442.501 199.8 442.485 199.208 442.325 198.536C442.037 197.288 441.317 195.96 439.301 195.96C437.061 195.96 435.797 197.864 435.797 200.392C435.797 201.496 436.021 204.408 439.445 204.408C440.341 204.408 441.397 204.168 441.989 203.768C442.117 203.688 442.245 203.576 442.245 203.416C442.245 203.368 442.229 203.336 442.197 203.272L441.797 202.328C441.765 202.248 441.717 202.2 441.621 202.2C441.525 202.2 441.381 202.264 441.189 202.36C440.885 202.504 440.325 202.728 439.589 202.728C438.261 202.728 437.829 201.896 437.829 200.728H442.133ZM437.829 199.24C437.925 198.152 438.277 197.448 439.189 197.448C439.829 197.448 440.149 197.816 440.277 198.424C440.309 198.552 440.357 198.808 440.341 199.24H437.829ZM436.869 193.704C436.869 194.312 437.349 194.792 437.957 194.792C438.565 194.792 439.045 194.312 439.045 193.704C439.045 193.096 438.565 192.616 437.957 192.616C437.349 192.616 436.869 193.096 436.869 193.704ZM439.685 193.704C439.685 194.312 440.165 194.792 440.773 194.792C441.381 194.792 441.861 194.312 441.861 193.704C441.861 193.096 441.381 192.616 440.773 192.616C440.165 192.616 439.685 193.096 439.685 193.704ZM446.389 203.992L446.453 204.024C446.613 204.104 447.045 204.408 448.053 204.408C450.933 204.408 450.997 201.32 450.997 200.12C450.997 196.616 449.429 195.96 448.181 195.96C447.541 195.96 446.853 196.168 446.181 196.792C446.133 196.648 446.101 196.504 446.037 196.36C445.861 195.88 445.701 195.928 445.445 196.008L444.229 196.408C444.149 196.44 444.053 196.488 444.053 196.584C444.053 196.632 444.069 196.68 444.117 196.84C444.229 197.176 444.357 197.704 444.357 199.08V207.288C444.357 207.592 444.485 207.544 444.613 207.512L446.085 207.208C446.405 207.144 446.389 207.064 446.389 206.92V203.992ZM446.389 198.168L446.453 198.104C446.709 197.848 447.109 197.56 447.621 197.56C448.933 197.56 448.965 199.096 448.965 200.072C448.965 201.32 448.901 201.784 448.709 202.136C448.405 202.712 447.909 202.808 447.541 202.808C447.317 202.808 446.853 202.792 446.389 202.504V198.168ZM459.35 200.184C459.35 197.176 457.638 195.96 455.878 195.96C454.118 195.96 452.406 197.176 452.406 200.184C452.406 203.192 454.118 204.408 455.878 204.408C457.638 204.408 459.35 203.192 459.35 200.184ZM455.878 202.808C454.63 202.808 454.566 201.4 454.566 200.184C454.566 198.968 454.662 197.56 455.878 197.56C457.094 197.56 457.19 198.968 457.19 200.184C457.19 201.416 457.11 202.808 455.878 202.808ZM464.687 199.784C464.383 199.944 464.015 200.008 463.695 200.008C462.927 200.008 462.863 199.48 462.863 199.192V196.168C462.863 195.928 462.735 195.944 462.607 195.976L461.375 196.232C460.799 196.344 460.831 196.36 460.831 196.568V199.192C460.831 199.72 460.831 200.392 461.247 200.904C461.583 201.32 462.207 201.608 462.991 201.608C463.647 201.608 464.287 201.432 464.687 201.288V203.912C464.687 204.088 464.735 204.136 464.911 204.136H466.495C466.703 204.136 466.719 204.088 466.719 203.912V196.168C466.719 195.928 466.591 195.944 466.463 195.976L464.991 196.28C464.671 196.344 464.687 196.424 464.687 196.568V199.784ZM470.63 204.136C470.918 204.136 470.918 204.024 470.918 203.912V200.824H471.574C472.31 200.824 472.406 201.176 472.502 201.608L472.806 202.936C472.918 203.416 473.094 203.8 473.478 204.056C473.894 204.344 474.646 204.408 474.95 204.408C475.302 204.408 475.334 204.28 475.366 204.168L475.654 203.144C475.734 202.84 475.59 202.808 475.478 202.792L475.126 202.728C474.774 202.664 474.71 202.504 474.582 202.12L474.278 201.24C474.102 200.744 473.942 200.168 473.174 200.008V199.96C473.846 199.832 474.054 199.288 474.15 198.952L474.326 198.328C474.502 197.688 474.662 197.656 474.982 197.592L475.222 197.544C475.382 197.512 475.462 197.4 475.43 197.288L475.11 196.12C475.078 196.024 475.046 195.96 474.822 195.96C474.534 195.96 473.798 196.056 473.35 196.456C472.966 196.792 472.822 197.256 472.758 197.528L472.55 198.44C472.454 198.872 472.358 199.224 471.622 199.224H470.918V196.168C470.918 195.928 470.79 195.944 470.662 195.976L469.414 196.232C468.87 196.344 468.886 196.36 468.886 196.568V203.912C468.886 204.024 468.886 204.136 469.174 204.136H470.63ZM476.995 203.912C476.995 204.12 477.043 204.136 477.219 204.136H478.803C479.011 204.136 479.027 204.056 479.107 203.912L480.627 201.096C480.835 200.712 481.075 200.376 481.635 199.144H481.699C481.635 200.216 481.619 200.568 481.619 200.872V203.912C481.619 204.12 481.667 204.136 481.843 204.136H483.427C483.635 204.136 483.651 204.088 483.651 203.912V196.168C483.651 195.928 483.523 195.944 483.395 195.976L482.115 196.232C481.843 196.28 481.763 196.248 481.571 196.568L480.019 199.272C479.715 199.8 479.443 200.28 479.011 201.224H478.947C478.979 200.824 479.027 199.944 479.027 199.496V196.168C479.027 195.928 478.899 195.944 478.771 195.976L477.299 196.28C476.979 196.344 476.995 196.424 476.995 196.568V203.912ZM489.62 203.912C489.62 204.12 489.668 204.136 489.844 204.136H491.428C491.636 204.136 491.652 204.056 491.732 203.912L493.252 201.096C493.46 200.712 493.7 200.376 494.26 199.144H494.324C494.26 200.216 494.244 200.568 494.244 200.872V203.912C494.244 204.12 494.292 204.136 494.468 204.136H496.052C496.26 204.136 496.276 204.088 496.276 203.912V196.168C496.276 195.928 496.148 195.944 496.02 195.976L494.74 196.232C494.468 196.28 494.388 196.248 494.196 196.568L492.644 199.272C492.34 199.8 492.068 200.28 491.636 201.224H491.572C491.604 200.824 491.652 199.944 491.652 199.496V196.168C491.652 195.928 491.524 195.944 491.396 195.976L489.924 196.28C489.604 196.344 489.62 196.424 489.62 196.568V203.912ZM506.533 197.832V203.912C506.533 204.088 506.581 204.136 506.757 204.136H508.341C508.549 204.136 508.565 204.088 508.565 203.912V196.456C508.565 196.248 508.517 196.232 508.341 196.232H502.469C502.293 196.232 502.245 196.248 502.245 196.456V203.912C502.245 204.088 502.261 204.136 502.469 204.136H504.053C504.261 204.136 504.277 204.088 504.277 203.912V197.832H506.533ZM517.304 200.184C517.304 197.176 515.592 195.96 513.832 195.96C512.072 195.96 510.36 197.176 510.36 200.184C510.36 203.192 512.072 204.408 513.832 204.408C515.592 204.408 517.304 203.192 517.304 200.184ZM513.832 202.808C512.584 202.808 512.52 201.4 512.52 200.184C512.52 198.968 512.616 197.56 513.832 197.56C515.048 197.56 515.144 198.968 515.144 200.184C515.144 201.416 515.064 202.808 513.832 202.808ZM523.312 197.832V203.912C523.312 204.088 523.36 204.136 523.536 204.136H525.12C525.328 204.136 525.344 204.088 525.344 203.912V196.456C525.344 196.28 525.296 196.232 525.12 196.232H520.208C520 196.232 519.984 196.28 519.984 196.456V197.176C519.984 198.12 519.952 200.568 519.776 201.416C519.616 202.248 519.248 202.52 518.704 202.648L518.432 202.712C518.336 202.728 518.16 202.744 518.224 202.984L518.544 204.168C518.576 204.28 518.608 204.408 518.88 204.408C519.264 204.408 520.72 204.312 521.376 202.68C521.872 201.416 521.92 198.952 521.92 198.04V197.832H523.312ZM532.293 196.088C531.989 196.056 531.893 196.232 531.845 196.424L530.997 200.28C530.949 200.536 530.805 200.968 530.469 203.048H530.437C530.325 202.456 529.989 200.872 529.829 200.28L528.789 196.408C528.693 196.024 528.629 196.072 528.309 196.104L526.981 196.232C526.805 196.248 526.629 196.264 526.629 196.424C526.629 196.504 526.661 196.568 526.709 196.696L529.157 203.928C529.237 204.168 529.333 204.136 529.445 204.136H530.117L529.957 204.664C529.781 205.24 529.557 205.848 528.693 205.848C528.245 205.848 527.829 205.672 527.573 205.544C527.461 205.48 527.397 205.448 527.333 205.448C527.285 205.448 527.221 205.464 527.173 205.56L526.661 206.664C526.597 206.808 526.581 206.92 527.045 207.128C527.669 207.416 528.261 207.528 528.805 207.528C529.493 207.528 530.501 207.352 531.109 206.136C531.381 205.592 531.621 204.728 532.229 202.472L533.797 196.712C533.845 196.536 533.861 196.488 533.861 196.44C533.861 196.28 533.685 196.264 533.525 196.248L532.293 196.088ZM538.75 199.784C538.446 199.944 538.078 200.008 537.758 200.008C536.99 200.008 536.926 199.48 536.926 199.192V196.168C536.926 195.928 536.798 195.944 536.67 195.976L535.438 196.232C534.862 196.344 534.894 196.36 534.894 196.568V199.192C534.894 199.72 534.894 200.392 535.31 200.904C535.646 201.32 536.27 201.608 537.054 201.608C537.71 201.608 538.35 201.432 538.75 201.288V203.912C538.75 204.088 538.798 204.136 538.974 204.136H540.558C540.766 204.136 540.782 204.088 540.782 203.912V196.168C540.782 195.928 540.654 195.944 540.526 195.976L539.054 196.28C538.734 196.344 538.75 196.424 538.75 196.568V199.784ZM548.772 203.848C548.82 203.832 548.9 203.784 548.9 203.688C548.9 203.608 548.836 203.496 548.724 203.208C548.484 202.6 548.484 202.088 548.484 201.624V198.536C548.484 198.248 548.452 197.528 548.132 196.984C547.652 196.168 546.724 195.96 545.732 195.96C545.076 195.96 543.94 196.088 543.284 196.392C542.868 196.584 542.868 196.648 542.948 196.872L543.284 197.88C543.316 197.992 543.348 198.04 543.444 198.04C543.556 198.04 543.668 197.96 544.212 197.784C544.612 197.656 545.092 197.56 545.508 197.56C545.956 197.56 546.228 197.704 546.372 197.88C546.58 198.136 546.564 198.52 546.564 198.744V199.24C545.652 199.208 544.148 199.336 543.364 199.896C543.028 200.136 542.388 200.744 542.388 201.976C542.388 203.448 543.316 204.408 544.756 204.408C545.812 204.408 546.388 203.928 546.804 203.512L546.868 203.448C546.916 203.704 546.996 203.928 547.14 204.216C547.268 204.456 547.364 204.424 547.476 204.376L548.772 203.848ZM546.564 202.312C546.212 202.696 545.78 202.92 545.364 202.92C544.788 202.92 544.308 202.488 544.308 201.832C544.308 200.888 545.188 200.552 546.468 200.552H546.564V202.312ZM550.651 203.912C550.651 204.12 550.699 204.136 550.875 204.136H552.459C552.667 204.136 552.683 204.056 552.763 203.912L554.283 201.096C554.491 200.712 554.731 200.376 555.291 199.144H555.355C555.291 200.152 555.275 200.584 555.275 200.872V203.912C555.275 204.12 555.323 204.136 555.499 204.136H557.083C557.291 204.136 557.307 204.088 557.307 203.912V196.168C557.307 195.928 557.179 195.944 557.051 195.976L555.803 196.232C555.547 196.28 555.435 196.216 555.227 196.568L553.675 199.272C553.371 199.8 553.099 200.28 552.667 201.224H552.603C552.635 200.824 552.683 199.944 552.683 199.496V196.168C552.683 195.928 552.555 195.944 552.427 195.976L550.955 196.28C550.635 196.344 550.651 196.424 550.651 196.568V203.912ZM555.179 192.6C555.147 192.6 555.099 192.584 555.067 192.584C554.875 192.584 554.891 192.712 554.811 192.952C554.683 193.4 554.459 193.64 553.979 193.64C553.499 193.64 553.275 193.4 553.147 192.952C553.099 192.776 553.083 192.68 553.035 192.632C552.971 192.552 552.859 192.584 552.779 192.6L551.851 192.728C551.787 192.744 551.707 192.808 551.707 192.984C551.707 193.24 551.803 193.608 551.995 193.928C552.363 194.52 553.083 194.952 553.979 194.952C554.875 194.952 555.595 194.52 555.963 193.928C556.155 193.608 556.251 193.24 556.251 192.984C556.251 192.808 556.171 192.744 556.107 192.728L555.179 192.6ZM567.564 197.832V203.912C567.564 204.088 567.612 204.136 567.788 204.136H569.372C569.58 204.136 569.596 204.088 569.596 203.912V196.456C569.596 196.248 569.548 196.232 569.372 196.232H563.5C563.324 196.232 563.276 196.248 563.276 196.456V203.912C563.276 204.088 563.292 204.136 563.5 204.136H565.084C565.292 204.136 565.308 204.088 565.308 203.912V197.832H567.564ZM573.967 203.992L574.031 204.024C574.191 204.104 574.623 204.408 575.631 204.408C578.511 204.408 578.575 201.32 578.575 200.12C578.575 196.616 577.007 195.96 575.759 195.96C575.119 195.96 574.431 196.168 573.759 196.792C573.711 196.648 573.679 196.504 573.615 196.36C573.439 195.88 573.279 195.928 573.023 196.008L571.807 196.408C571.727 196.44 571.631 196.488 571.631 196.584C571.631 196.632 571.647 196.68 571.695 196.84C571.807 197.176 571.935 197.704 571.935 199.08V207.288C571.935 207.592 572.063 207.544 572.191 207.512L573.663 207.208C573.983 207.144 573.967 207.064 573.967 206.92V203.992ZM573.967 198.168L574.031 198.104C574.287 197.848 574.687 197.56 575.199 197.56C576.511 197.56 576.543 199.096 576.543 200.072C576.543 201.32 576.479 201.784 576.287 202.136C575.983 202.712 575.487 202.808 575.119 202.808C574.895 202.808 574.431 202.792 573.967 202.504V198.168ZM580.433 203.912C580.433 204.12 580.481 204.136 580.657 204.136H582.241C582.449 204.136 582.465 204.056 582.545 203.912L584.065 201.096C584.273 200.712 584.513 200.376 585.073 199.144H585.137C585.073 200.216 585.057 200.568 585.057 200.872V203.912C585.057 204.12 585.105 204.136 585.281 204.136H586.865C587.073 204.136 587.089 204.088 587.089 203.912V196.168C587.089 195.928 586.961 195.944 586.833 195.976L585.553 196.232C585.281 196.28 585.201 196.248 585.009 196.568L583.457 199.272C583.153 199.8 582.881 200.28 582.449 201.224H582.385C582.417 200.824 582.465 199.944 582.465 199.496V196.168C582.465 195.928 582.337 195.944 582.209 195.976L580.737 196.28C580.417 196.344 580.433 196.424 580.433 196.568V203.912ZM589.483 197.896C589.499 197.928 589.547 198.008 589.643 198.008C589.723 198.008 589.803 197.944 590.059 197.8C590.235 197.704 590.683 197.448 591.307 197.448C591.963 197.448 592.347 197.816 592.347 198.344C592.347 199.256 591.531 199.32 590.987 199.32H590.619C590.443 199.32 590.395 199.368 590.395 199.544V200.584C590.395 200.76 590.443 200.808 590.619 200.808H590.971C591.467 200.808 592.475 200.808 592.475 201.768C592.475 202.184 592.283 202.92 591.211 202.92C590.619 202.92 590.235 202.792 589.707 202.504C589.499 202.392 589.371 202.312 589.259 202.312C589.163 202.312 589.115 202.36 589.083 202.44L588.731 203.272C588.715 203.32 588.683 203.384 588.683 203.448C588.683 203.688 588.971 203.816 589.227 203.944C589.787 204.232 590.651 204.408 591.355 204.408C593.179 204.408 594.507 203.464 594.507 201.8C594.507 200.776 593.915 200.184 593.211 199.992V199.944C593.947 199.672 594.331 199 594.331 198.168C594.331 197.432 593.979 196.936 593.627 196.616C592.971 196.024 592.139 195.96 591.579 195.96C590.379 195.96 589.643 196.296 589.307 196.488C589.195 196.552 588.907 196.728 588.907 196.936C588.907 196.984 588.923 197.032 588.955 197.08L589.483 197.896ZM598.996 204.136C599.844 204.136 600.916 204.104 601.668 203.496C602.42 202.904 602.516 202.072 602.516 201.496C602.516 200.824 602.356 200.152 601.732 199.624C601.012 199.016 600.116 198.984 599.22 198.984H598.324V196.168C598.324 195.928 598.196 195.944 598.068 195.976L596.852 196.232C596.276 196.36 596.292 196.344 596.292 196.568V203.912C596.292 204.12 596.34 204.136 596.516 204.136H598.996ZM598.324 200.584H599.3C599.636 200.584 600.484 200.6 600.484 201.56C600.484 202.488 599.716 202.536 599.124 202.536H598.324V200.584ZM603.62 203.912C603.62 204.12 603.668 204.136 603.844 204.136H605.428C605.636 204.136 605.652 204.088 605.652 203.912V196.168C605.652 195.928 605.524 195.944 605.396 195.976L603.924 196.28C603.604 196.344 603.62 196.424 603.62 196.568V203.912Z" fill="#85312C"/>
<defs>
<filter id="filter0_d" x="0.507812" y="1.59436" width="986.992" height="230.254" filterUnits="userSpaceOnUse" color-interpolation-filters="sRGB">
<feFlood flood-opacity="0" result="BackgroundImageFix"/>
<feColorMatrix in="SourceAlpha" type="matrix" values="0 0 0 0 0 0 0 0 0 0 0 0 0 0 0 0 0 0 127 0"/>
<feOffset/>
<feGaussianBlur stdDeviation="4"/>
<feColorMatrix type="matrix" values="0 0 0 0 0 0 0 0 0 0 0 0 0 0 0 0 0 0 0.45 0"/>
<feBlend mode="normal" in2="BackgroundImageFix" result="effect1_dropShadow"/>
<feBlend mode="normal" in="SourceGraphic" in2="effect1_dropShadow" result="shape"/>
</filter>
<filter id="filter1_d" x="93" y="115.136" width="618.965" height="147.243" filterUnits="userSpaceOnUse" color-interpolation-filters="sRGB">
<feFlood flood-opacity="0" result="BackgroundImageFix"/>
<feColorMatrix in="SourceAlpha" type="matrix" values="0 0 0 0 0 0 0 0 0 0 0 0 0 0 0 0 0 0 127 0"/>
<feOffset/>
<feGaussianBlur stdDeviation="4"/>
<feColorMatrix type="matrix" values="0 0 0 0 0 0 0 0 0 0 0 0 0 0 0 0 0 0 0.45 0"/>
<feBlend mode="normal" in2="BackgroundImageFix" result="effect1_dropShadow"/>
<feBlend mode="normal" in="SourceGraphic" in2="effect1_dropShadow" result="shape"/>
</filter>
<filter id="filter2_d" x="140.022" y="71.6328" width="755.962" height="87.7242" filterUnits="userSpaceOnUse" color-interpolation-filters="sRGB">
<feFlood flood-opacity="0" result="BackgroundImageFix"/>
<feColorMatrix in="SourceAlpha" type="matrix" values="0 0 0 0 0 0 0 0 0 0 0 0 0 0 0 0 0 0 127 0"/>
<feOffset/>
<feGaussianBlur stdDeviation="6.5"/>
<feColorMatrix type="matrix" values="0 0 0 0 0 0 0 0 0 0 0 0 0 0 0 0 0 0 0.6 0"/>
<feBlend mode="normal" in2="BackgroundImageFix" result="effect1_dropShadow"/>
<feBlend mode="normal" in="SourceGraphic" in2="effect1_dropShadow" result="shape"/>
</filter>
</defs>
</svg>
