<svg width="41" height="40" viewBox="0 0 41 40" fill="none" xmlns="http://www.w3.org/2000/svg">
<circle cx="20.4192" cy="20.2999" r="19.6363" fill="#F7D431"/>
<path d="M20.0103 20.2999C20.8194 20.2999 21.6103 20.06 22.2831 19.6105C22.9558 19.1609 23.4802 18.522 23.7898 17.7745C24.0994 17.027 24.1804 16.2045 24.0226 15.4109C23.8647 14.6174 23.4751 13.8884 22.903 13.3163C22.3309 12.7442 21.602 12.3546 20.8084 12.1967C20.0148 12.0389 19.1923 12.1199 18.4448 12.4295C17.6973 12.7391 17.0584 13.2635 16.6088 13.9362C16.1593 14.609 15.9194 15.3999 15.9194 16.209C15.9194 17.294 16.3504 18.3345 17.1176 19.1017C17.8848 19.8689 18.9253 20.2999 20.0103 20.2999ZM20.0103 14.5726C20.3339 14.5726 20.6503 14.6686 20.9194 14.8484C21.1885 15.0282 21.3982 15.2838 21.5221 15.5828C21.646 15.8818 21.6784 16.2108 21.6152 16.5282C21.5521 16.8457 21.3962 17.1372 21.1674 17.3661C20.9385 17.5949 20.647 17.7508 20.3295 17.8139C20.0121 17.8771 19.6831 17.8447 19.3841 17.7208C19.0851 17.597 18.8295 17.3872 18.6497 17.1181C18.4699 16.849 18.3739 16.5326 18.3739 16.209C18.3744 15.7752 18.547 15.3592 18.8538 15.0525C19.1605 14.7457 19.5765 14.5731 20.0103 14.5726Z" fill="#85312C"/>
<path d="M21.5068 23.6127C22.4195 23.4383 23.2929 23.0988 24.0838 22.611C24.2119 22.5315 24.3231 22.4275 24.4109 22.305C24.4987 22.1825 24.5615 22.0438 24.5957 21.897C24.6298 21.7501 24.6346 21.598 24.6098 21.4493C24.585 21.3006 24.5311 21.1582 24.4512 21.0304C24.3713 20.9026 24.2669 20.7918 24.144 20.7044C24.0212 20.617 23.8823 20.5547 23.7354 20.5211C23.5884 20.4875 23.4363 20.4832 23.2876 20.5085C23.139 20.5338 22.9969 20.5882 22.8693 20.6686C22.0227 21.1846 21.0523 21.4619 20.0609 21.4711C19.0694 21.4803 18.094 21.2211 17.2379 20.721C16.9775 20.5669 16.6667 20.5221 16.3733 20.5964C16.08 20.6707 15.828 20.858 15.6722 21.1174C15.5165 21.3769 15.4697 21.6874 15.5421 21.9812C15.6145 22.275 15.8002 22.5283 16.0586 22.6857C16.8175 23.1339 17.6481 23.4477 18.5138 23.6131L15.9276 26.1993C15.8209 26.3056 15.7362 26.4319 15.6784 26.571C15.6206 26.7101 15.5908 26.8592 15.5907 27.0098C15.5906 27.1605 15.6202 27.3096 15.6778 27.4488C15.7354 27.588 15.8199 27.7144 15.9264 27.8209C16.0329 27.9273 16.1594 28.0118 16.2986 28.0693C16.4378 28.1268 16.587 28.1564 16.7376 28.1562C16.8882 28.156 17.0373 28.1261 17.1764 28.0682C17.3154 28.0104 17.4417 27.9256 17.548 27.8189L20.0105 25.3564L22.473 27.8189C22.5793 27.9256 22.7056 28.0104 22.8446 28.0682C22.9837 28.1261 23.1328 28.156 23.2834 28.1562C23.434 28.1564 23.5832 28.1269 23.7224 28.0693C23.8616 28.0118 23.988 27.9274 24.0946 27.8209C24.2011 27.7144 24.2856 27.588 24.3432 27.4488C24.4008 27.3096 24.4304 27.1605 24.4303 27.0099C24.4302 26.8592 24.4004 26.7101 24.3426 26.571C24.2847 26.432 24.2001 26.3056 24.0934 26.1993L21.5068 23.6127Z" fill="#85312C"/>
</svg>
