<svg width="344" height="159" viewBox="0 0 344 159" fill="none" xmlns="http://www.w3.org/2000/svg">
<g filter="url(#filter0_d)">
<path d="M36.0517 30.0464L329.204 14.1948L311.736 98.1651L14.7957 114.253L36.0517 30.0464Z" fill="#DD1010"/>
<path d="M35.9168 27.5501L34.0784 27.6495L33.6278 29.4346L12.3718 113.641L11.5408 116.933L14.931 116.749L311.871 100.661L313.791 100.557L314.183 98.6743L331.652 14.704L332.313 11.5231L329.069 11.6985L35.9168 27.5501Z" stroke="#F7D431" stroke-width="5"/>
</g>
<g filter="url(#filter1_d)">
<path d="M126.921 57.9005C126.872 57.8046 126.847 57.7326 126.751 57.7328C126.583 57.733 126.369 57.8774 126.155 57.9977C125.25 58.5271 124.532 58.6242 124.1 58.6249C123.332 58.6261 122.872 58.3869 122.581 58.1233C121.997 57.5723 121.91 56.5405 121.9 55.8446C121.871 53.8288 122.148 51.3326 123.221 49.171C124.27 47.0095 125.632 46.5514 126.52 46.55C127.168 46.549 127.579 46.7643 128.186 47.2673C128.429 47.4829 128.624 47.6506 128.888 47.6502C129.032 47.6499 129.102 47.5298 129.125 47.5058L130.253 45.7761C130.276 45.7281 130.324 45.704 130.322 45.6081C130.319 45.3681 130.052 45.1285 129.882 45.0088C128.838 44.1945 127.563 43.9566 126.651 43.958C125.187 43.9603 122.48 44.3486 120.534 47.5914C119.151 49.8974 118.615 52.6821 118.655 55.4658C118.673 56.7856 118.897 58.9691 120.403 60.2386C121.107 60.8375 122.121 61.2198 123.345 61.2179C124.545 61.216 125.907 60.8059 126.837 60.3724C127.147 60.2279 127.623 59.9872 127.619 59.7232C127.618 59.6512 127.593 59.5553 127.568 59.5073L126.921 57.9005ZM133.389 44.3553C133.005 44.3559 133.007 44.5239 132.962 44.6919L129.894 60.1756C129.872 60.3196 129.85 60.4156 129.851 60.5116C129.855 60.7516 129.975 60.7994 130.215 60.799L132.543 60.7953C132.927 60.7947 132.925 60.6267 132.97 60.4587L135.658 46.9435L139.834 46.9369L137.19 60.164C137.145 60.3321 137.146 60.4281 137.147 60.5001C137.151 60.74 137.271 60.7878 137.511 60.7875L139.839 60.7838C140.223 60.7832 140.221 60.6152 140.266 60.4471L143.334 44.9635C143.356 44.8194 143.378 44.7234 143.377 44.6274C143.374 44.3874 143.253 44.3396 143.013 44.34L133.389 44.3553ZM151.235 44.327C151.115 44.3272 150.923 44.3035 150.806 44.5436L143.133 60.2026C143.086 60.2986 143.015 60.3708 143.018 60.5147C143.019 60.6347 143.093 60.7786 143.333 60.7782L145.805 60.7743C146.141 60.7738 146.211 60.5817 146.28 60.4376L148.071 56.403L152.151 56.3966L152.378 60.4999C152.378 60.5479 152.405 60.7638 152.693 60.7634L155.213 60.7594C155.333 60.7592 155.645 60.7587 155.616 60.4228L153.977 44.7306C153.947 44.3467 153.779 44.3229 153.539 44.3233L151.235 44.327ZM152.048 54.2369L148.832 54.242L150.969 49.223C151.155 48.7908 151.365 48.4065 151.594 47.5902L151.642 47.5901C151.65 48.214 151.715 49.3658 151.746 49.8457L152.048 54.2369ZM165.757 57.8389C165.708 57.743 165.683 57.671 165.587 57.6712C165.419 57.6714 165.205 57.8158 164.991 57.9361C164.086 58.4655 163.368 58.5626 162.936 58.5633C162.168 58.5645 161.708 58.3253 161.416 58.0618C160.833 57.5107 160.746 56.4789 160.736 55.783C160.707 53.7672 160.984 51.271 162.057 49.1094C163.106 46.9479 164.468 46.4898 165.356 46.4884C166.004 46.4874 166.415 46.7027 167.022 47.2057C167.265 47.4213 167.459 47.589 167.723 47.5886C167.867 47.5883 167.938 47.4682 167.961 47.4442L169.089 45.7146C169.112 45.6665 169.16 45.6424 169.158 45.5465C169.155 45.3065 168.887 45.0669 168.718 44.9472C167.674 44.1329 166.399 43.895 165.487 43.8964C164.023 43.8987 161.316 44.287 159.37 47.5298C157.987 49.8358 157.451 52.6205 157.491 55.4042C157.509 56.7241 157.732 58.9075 159.239 60.177C159.943 60.7759 160.957 61.1582 162.181 61.1563C163.381 61.1544 164.743 60.7443 165.673 60.3108C165.983 60.1663 166.459 59.9256 166.455 59.6616C166.454 59.5896 166.429 59.4937 166.404 59.4457L165.757 57.8389ZM180.265 44.2809C179.833 44.2816 179.764 44.5217 179.576 44.786L175.154 51.0805C174.66 51.8012 173.3 54.0832 172.949 54.6837L172.853 54.6839C173.437 51.8752 173.127 53.7235 173.575 51.443L174.874 44.9134C174.919 44.7454 174.918 44.6494 174.917 44.5774C174.914 44.3374 174.793 44.2896 174.553 44.29L172.225 44.2937C171.841 44.2943 171.843 44.4623 171.798 44.6303L168.73 60.114C168.708 60.258 168.686 60.354 168.687 60.45C168.69 60.69 168.811 60.7378 169.051 60.7374L171.259 60.7339C171.595 60.7334 171.69 60.6373 171.901 60.3249L176.675 53.4299C177.38 52.3969 177.969 51.556 178.575 50.3311L178.671 50.331C178.489 51.0272 178.218 52.2036 178.083 52.8517L176.65 60.1014C176.628 60.2455 176.606 60.3415 176.607 60.4375C176.61 60.6774 176.731 60.7252 176.971 60.7249L179.299 60.7212C179.683 60.7206 179.681 60.5526 179.726 60.3845L182.794 44.9009C182.816 44.7569 182.838 44.6608 182.837 44.5648C182.834 44.3249 182.713 44.2771 182.473 44.2774L180.265 44.2809ZM187.272 44.2698C186.888 44.2704 186.89 44.4384 186.845 44.6065L183.777 60.0901C183.755 60.2341 183.733 60.3302 183.734 60.4262C183.737 60.6661 183.858 60.7139 184.098 60.7136L188.37 60.7068C190.074 60.7041 192.231 60.4607 193.671 58.8025C194.592 57.7452 195.025 56.1366 195.006 54.7927C194.982 53.1369 194.229 50.7863 190.269 50.7926L188.757 50.795L189.519 47.026L194.535 47.0181C194.679 47.0179 194.895 47.0415 195.035 46.7053L195.871 44.7602C195.918 44.6641 195.965 44.592 195.963 44.472C195.959 44.2321 195.72 44.2564 195.552 44.2567L187.272 44.2698ZM187.301 58.1167L188.242 53.3876L189.73 53.3852C191.266 53.3828 191.758 54.2699 191.773 55.3018C191.782 55.9498 191.577 56.67 191.128 57.1747C190.348 58.0639 189.149 58.1138 188.333 58.1151L187.301 58.1167ZM209.675 48.9859C209.657 47.6901 209.386 43.8268 205.306 43.8333C203.746 43.8357 201.138 44.4158 199.218 47.7546C197.93 50.0125 197.327 53.1572 197.366 55.9409C197.426 60.1405 199.768 61.0967 201.712 61.0936C203.968 61.09 206.327 59.9104 207.872 57.1961C209.113 54.9863 209.712 51.5297 209.675 48.9859ZM202.204 58.573C200.788 58.5753 200.625 57.2316 200.611 56.2477C200.585 54.4479 200.857 51.6397 201.902 49.1662C202.342 48.0856 203.278 46.3563 204.886 46.3537C206.35 46.3514 206.419 47.8632 206.431 48.6551C206.458 50.5509 206.256 53.215 205.188 55.7605C204.724 56.8652 203.836 58.5704 202.204 58.573ZM217.826 44.7733C217.985 44.1731 217.65 44.2216 217.458 44.222L214.818 44.2261C214.506 44.2266 214.51 44.4666 214.488 44.6586L213.135 54.092C213.09 54.3561 213.068 54.4761 213.07 54.5961C213.072 54.7641 213.194 54.8599 213.386 54.8596L215.018 54.857C215.21 54.8567 215.281 54.7846 215.349 54.5205L217.826 44.7733ZM215.343 59.1521C215.328 58.0962 214.451 57.2337 213.395 57.2354C212.339 57.237 211.488 58.1023 211.503 59.1582C211.518 60.2141 212.394 61.0767 213.45 61.075C214.506 61.0733 215.358 60.208 215.343 59.1521Z" fill="white"/>
<path d="M69.9687 68.454C69.5847 68.4546 69.5871 68.6226 69.5415 68.7906L66.474 84.2743C66.4521 84.4183 66.4295 84.5143 66.4308 84.6103C66.4343 84.8503 66.5549 84.8981 66.7949 84.8977L70.7309 84.8915C72.6749 84.8884 74.8802 84.6929 76.3916 82.9626C77.0999 82.1456 77.6112 80.9689 77.5931 79.697C77.5695 78.0412 76.687 76.7467 75.3122 76.2689C75.8848 76.028 76.5989 75.6189 77.1205 75.1621C77.9499 74.4168 78.5112 73.384 78.492 72.0402C78.4417 68.5125 74.9847 68.446 74.0247 68.4475L69.9687 68.454ZM71.3862 75.2912L72.2589 70.8502L73.4109 70.8483C74.0829 70.8473 75.3549 70.8452 75.3775 72.4291C75.3871 73.101 75.2046 73.7733 74.8275 74.2538C74.1441 75.1428 73.0902 75.2885 72.2742 75.2898L71.3862 75.2912ZM69.9527 82.4929L70.9164 77.6917L72.2604 77.6896C73.0044 77.6884 74.3254 77.7583 74.351 79.5582C74.3661 80.614 73.9673 81.2626 73.6601 81.5991C72.9041 82.4402 71.8487 82.4899 70.9367 82.4913L69.9527 82.4929ZM86.6903 68.4275C86.5703 68.4276 86.378 68.404 86.2614 68.6441L78.5883 84.3031C78.5417 84.3991 78.4707 84.4712 78.4728 84.6152C78.4745 84.7352 78.5485 84.8791 78.7885 84.8787L81.2605 84.8748C81.5965 84.8742 81.6658 84.6821 81.7358 84.538L83.5263 80.5035L87.6063 80.4971L87.8328 84.6004C87.8335 84.6484 87.8605 84.8643 88.1485 84.8638L90.6685 84.8599C90.7885 84.8597 91.1005 84.8592 91.0717 84.5232L89.4321 68.8311C89.4027 68.4472 89.2343 68.4234 88.9943 68.4238L86.6903 68.4275ZM87.5035 78.3374L84.2875 78.3425L86.4241 73.3235C86.6099 72.8912 86.8205 72.5069 87.0488 71.6906L87.0968 71.6906C87.1057 72.3145 87.1701 73.4663 87.201 73.9462L87.5035 78.3374ZM96.9944 68.4111C96.8264 68.4114 96.5387 68.4358 96.4492 68.8919L93.3817 84.3756C93.2919 84.8077 93.5326 84.8553 93.7486 84.855L108.725 84.8312C108.917 84.8309 109.181 84.8305 109.27 84.3504L112.337 68.8667C112.426 68.3866 112.186 68.387 111.97 68.3874L109.762 68.3909C109.33 68.3915 109.238 68.6797 109.193 68.8717L106.552 82.2429L103.312 82.248L105.954 68.9009L105.953 68.8769C105.95 68.6609 106.09 68.3967 105.586 68.3975L103.378 68.401C102.922 68.4017 102.878 68.6898 102.833 68.8818L100.192 82.253L96.9517 82.2581L99.5932 68.887C99.6388 68.7189 99.6824 68.4069 99.2024 68.4076L96.9944 68.4111ZM122.375 68.3709C121.991 68.3715 121.994 68.5395 121.948 68.7075L118.881 84.1912C118.859 84.3352 118.836 84.4312 118.838 84.5272C118.841 84.7672 118.962 84.815 119.202 84.8146L121.53 84.8109C121.914 84.8103 121.911 84.6423 121.957 84.4743L124.599 71.1271L129.231 71.1198C129.495 71.1194 129.613 70.9752 129.683 70.8311L130.543 68.8619C130.589 68.7418 130.636 68.6937 130.635 68.5977C130.631 68.3578 130.367 68.3582 130.319 68.3583L122.375 68.3709ZM140.888 73.0931C140.87 71.7973 140.599 67.934 136.519 67.9405C134.959 67.9429 132.351 68.523 130.431 71.8618C129.143 74.1197 128.54 77.2644 128.579 80.0481C128.639 84.2477 130.981 85.2039 132.925 85.2008C135.181 85.1972 137.54 84.0176 139.085 81.3033C140.326 79.0935 140.925 75.6369 140.888 73.0931ZM133.417 82.6802C132.001 82.6825 131.838 81.3388 131.824 80.3549C131.798 78.5551 132.07 75.7469 133.115 73.2734C133.555 72.1928 134.491 70.4635 136.099 70.4609C137.563 70.4586 137.632 71.9704 137.644 72.7623C137.671 74.6581 137.469 77.3222 136.401 79.8677C135.937 80.9724 135.049 82.6776 133.417 82.6802ZM149.476 70.9197L152.188 70.9154L149.568 84.1425C149.547 84.2865 149.524 84.3825 149.525 84.4785C149.529 84.7185 149.649 84.7663 149.889 84.7659L152.217 84.7622C152.601 84.7616 152.599 84.5936 152.645 84.4256L155.712 68.9419C155.734 68.7979 155.757 68.7019 155.755 68.6059C155.752 68.3659 155.631 68.3181 155.391 68.3185L147.495 68.331C147.111 68.3316 147.114 68.4996 147.068 68.6677L146.26 72.5806C145.991 73.901 144.93 78.6303 144.209 80.2393C143.581 81.6562 142.772 82.1614 141.718 82.2831L141.311 82.3317C140.999 82.3802 140.956 82.6923 140.957 82.8122L141.108 84.9718C141.136 85.2358 141.352 85.2114 141.495 85.1872L141.879 85.1386C143.795 84.8956 145.054 84.0057 145.879 82.9484C146.964 81.5548 147.699 79.2498 148.936 73.4643L149.476 70.9197ZM169.248 73.0481C169.229 71.7523 168.958 67.889 164.878 67.8955C163.318 67.898 160.711 68.478 158.79 71.8168C157.502 74.0747 156.899 77.2194 156.939 80.0031C156.998 84.2027 159.34 85.1589 161.284 85.1558C163.54 85.1522 165.899 83.9726 167.445 81.2584C168.685 79.0486 169.284 75.5919 169.248 73.0481ZM161.776 82.6352C160.36 82.6375 160.197 81.2939 160.183 80.31C160.157 78.5101 160.429 75.7019 161.474 73.2285C161.915 72.1478 162.85 70.4185 164.458 70.416C165.922 70.4136 165.992 71.9254 166.003 72.7173C166.03 74.6131 165.828 77.2772 164.76 79.8227C164.296 80.9274 163.408 82.6327 161.776 82.6352ZM179.095 81.8158C179.046 81.7199 179.021 81.648 178.925 81.6481C178.757 81.6484 178.543 81.7927 178.329 81.913C177.424 82.4424 176.706 82.5396 176.274 82.5403C175.506 82.5415 175.046 82.3022 174.754 82.0387C174.171 81.4877 174.084 80.4559 174.074 79.76C174.045 77.7442 174.322 75.2479 175.395 73.0864C176.444 70.9249 177.806 70.4668 178.694 70.4654C179.342 70.4643 179.753 70.6797 180.36 71.1827C180.603 71.3983 180.797 71.5659 181.061 71.5655C181.205 71.5653 181.276 71.4452 181.299 71.4212L182.427 69.6915C182.45 69.6435 182.498 69.6194 182.496 69.5234C182.493 69.2834 182.225 69.0439 182.056 68.9242C181.012 68.1099 179.737 67.8719 178.825 67.8734C177.361 67.8757 174.654 68.2639 172.708 71.5068C171.325 73.8128 170.789 76.5974 170.828 79.3811C170.847 80.701 171.07 82.8845 172.577 84.154C173.281 84.7528 174.295 85.1352 175.519 85.1332C176.719 85.1313 178.081 84.7212 179.011 84.2878C179.321 84.1433 179.797 83.9026 179.793 83.6386C179.792 83.5666 179.767 83.4706 179.742 83.4227L179.095 81.8158ZM191.164 68.2618C190.78 68.2624 190.783 68.4304 190.737 68.5984L187.67 84.0821C187.648 84.2261 187.625 84.3221 187.627 84.4181C187.63 84.6581 187.751 84.7059 187.991 84.7055L190.319 84.7018C190.703 84.7012 190.7 84.5332 190.746 84.3652L193.433 70.85L197.609 70.8433L194.966 84.0705C194.92 84.2385 194.922 84.3345 194.923 84.4065C194.926 84.6465 195.047 84.6943 195.287 84.6939L197.615 84.6902C197.999 84.6896 197.996 84.5216 198.042 84.3536L201.109 68.8699C201.131 68.7259 201.154 68.6299 201.153 68.5339C201.149 68.2939 201.028 68.2461 200.788 68.2465L191.164 68.2618ZM205.578 68.2389C205.194 68.2395 205.197 68.4075 205.151 68.5756L202.084 84.0592C202.062 84.2032 202.039 84.2992 202.041 84.3952C202.044 84.6352 202.165 84.683 202.405 84.6826L204.733 84.6789C205.117 84.6783 205.114 84.5104 205.16 84.3423L206.391 78.1008L207.639 78.0989C211.743 78.0923 214.228 75.6406 214.178 72.113C214.128 68.6333 211.626 68.2293 209.898 68.232L205.578 68.2389ZM206.906 75.5082L207.823 70.8271L209.047 70.8252C209.671 70.8242 211.041 70.918 211.064 72.5739C211.076 73.3898 210.89 75.5019 207.626 75.5071L206.906 75.5082ZM226.228 68.2061C225.796 68.2068 225.727 68.4469 225.539 68.7112L221.117 75.0057C220.623 75.7264 219.263 78.0084 218.912 78.6089L218.816 78.6091C219.4 75.8004 219.09 77.6487 219.538 75.3682L220.837 68.8387C220.882 68.6706 220.881 68.5746 220.88 68.5026C220.877 68.2626 220.756 68.2148 220.516 68.2152L218.188 68.2189C217.804 68.2195 217.806 68.3875 217.761 68.5556L214.693 84.0392C214.671 84.1832 214.649 84.2792 214.65 84.3752C214.653 84.6152 214.774 84.663 215.014 84.6626L217.222 84.6591C217.558 84.6586 217.653 84.5625 217.864 84.2502L222.638 77.3551C223.343 76.3221 223.931 75.4812 224.538 74.2564L224.634 74.2562C224.452 74.9524 224.181 76.1288 224.046 76.7769L222.613 84.0266C222.591 84.1707 222.569 84.2667 222.57 84.3627C222.573 84.6027 222.694 84.6505 222.934 84.6501L225.262 84.6464C225.646 84.6458 225.644 84.4778 225.689 84.3097L228.757 68.8261C228.779 68.6821 228.801 68.586 228.8 68.49C228.797 68.2501 228.676 68.2023 228.436 68.2026L226.228 68.2061ZM233.235 68.195C232.851 68.1956 232.853 68.3636 232.807 68.5317L229.74 84.0153C229.718 84.1594 229.695 84.2554 229.697 84.3514C229.7 84.5913 229.821 84.6392 230.061 84.6388L232.389 84.6351C232.773 84.6345 232.771 84.4665 232.816 84.2984L234.158 77.4088L238.574 77.4018L237.276 84.0034C237.254 84.1474 237.231 84.2434 237.233 84.3394C237.236 84.5794 237.357 84.6272 237.597 84.6268L239.925 84.6231C240.309 84.6225 240.307 84.4545 240.352 84.2865L243.42 68.8028C243.442 68.6588 243.464 68.5628 243.463 68.4668C243.459 68.2268 243.339 68.179 243.099 68.1794L240.771 68.1831C240.387 68.1837 240.389 68.3517 240.343 68.5197L239.089 74.8092L234.697 74.8162L235.884 68.8148C235.906 68.6708 235.928 68.5747 235.927 68.4787C235.923 68.2388 235.803 68.191 235.563 68.1913L233.235 68.195ZM252.467 68.1645C251.099 68.1667 249.493 68.3132 248.211 69.3472C247.12 70.2369 246.445 71.7258 246.468 73.3576C246.494 75.1575 247.444 76.1639 248.555 76.6421L248.533 76.7381C247.03 77.3644 246.52 78.6371 246.264 79.2135L245.66 80.6064C245.218 81.615 245.08 82.0472 244.291 82.2164L243.645 82.3614C243.286 82.434 243.29 82.7219 243.315 82.8419L243.653 84.6652C243.68 84.8332 243.659 85.0252 244.163 85.0244C244.643 85.0236 245.265 84.9026 245.719 84.7579C247.368 84.2514 247.783 83.0988 248.269 81.8501L249.125 79.5929C249.541 78.4644 250.11 77.9835 251.286 77.9816L252.15 77.9803L250.964 83.9817C250.942 84.1257 250.919 84.2217 250.921 84.3177C250.924 84.5577 251.045 84.6055 251.285 84.6051L253.613 84.6014C253.997 84.6008 253.994 84.4328 254.04 84.2648L257.107 68.7811C257.129 68.6371 257.152 68.5411 257.151 68.4451C257.147 68.2051 257.027 68.1573 256.787 68.1577L252.467 68.1645ZM252.618 75.4357L251.514 75.4375C250.266 75.4395 249.605 74.5286 249.589 73.4247C249.578 72.6328 249.902 71.7923 250.471 71.3115C251.112 70.7825 251.855 70.7573 252.503 70.7563L253.559 70.7546L252.618 75.4357ZM265.785 70.9032L268.761 70.8985C268.929 70.8982 269.098 70.9219 269.261 70.5857L270.193 68.6404C270.216 68.5683 270.263 68.4963 270.285 68.3763C270.285 68.3523 270.285 68.3283 270.284 68.3043C270.258 68.1123 270.018 68.1367 269.874 68.1369L260.058 68.1525C259.626 68.1532 259.676 68.2971 259.631 68.4891L259.248 70.2896C259.203 70.4577 259.18 70.5537 259.182 70.6497C259.186 70.9377 259.425 70.9133 259.593 70.913L262.665 70.9081L260.043 83.9673C259.998 84.1353 259.999 84.2313 260 84.3033C260.004 84.5433 260.124 84.5911 260.364 84.5907L262.692 84.587C263.076 84.5864 263.074 84.4184 263.119 84.2504L265.785 70.9032ZM276.023 68.6791C276.183 68.0789 275.847 68.1275 275.655 68.1278L273.015 68.1319C272.703 68.1324 272.707 68.3724 272.686 68.5644L271.332 77.9978C271.288 78.2619 271.265 78.3819 271.267 78.5019C271.269 78.6699 271.391 78.7657 271.583 78.7654L273.215 78.7628C273.407 78.7625 273.478 78.6904 273.546 78.4263L276.023 68.6791ZM273.54 83.0579C273.525 82.002 272.649 81.1395 271.593 81.1412C270.537 81.1428 269.685 82.0081 269.7 83.064C269.715 84.1199 270.591 84.9825 271.647 84.9808C272.703 84.9791 273.555 84.1138 273.54 83.0579Z" fill="#F7D431"/>
</g>
<defs>
<filter id="filter0_d" x="0.286133" y="0.851318" width="343.137" height="126.762" filterUnits="userSpaceOnUse" color-interpolation-filters="sRGB">
<feFlood flood-opacity="0" result="BackgroundImageFix"/>
<feColorMatrix in="SourceAlpha" type="matrix" values="0 0 0 0 0 0 0 0 0 0 0 0 0 0 0 0 0 0 127 0"/>
<feOffset/>
<feGaussianBlur stdDeviation="4"/>
<feColorMatrix type="matrix" values="0 0 0 0 0 0 0 0 0 0 0 0 0 0 0 0 0 0 0.45 0"/>
<feBlend mode="normal" in2="BackgroundImageFix" result="effect1_dropShadow"/>
<feBlend mode="normal" in="SourceGraphic" in2="effect1_dropShadow" result="shape"/>
</filter>
<filter id="filter1_d" x="53.4307" y="30.8333" width="235.634" height="67.368" filterUnits="userSpaceOnUse" color-interpolation-filters="sRGB">
<feFlood flood-opacity="0" result="BackgroundImageFix"/>
<feColorMatrix in="SourceAlpha" type="matrix" values="0 0 0 0 0 0 0 0 0 0 0 0 0 0 0 0 0 0 127 0"/>
<feOffset/>
<feGaussianBlur stdDeviation="6.5"/>
<feColorMatrix type="matrix" values="0 0 0 0 0 0 0 0 0 0 0 0 0 0 0 0 0 0 0.6 0"/>
<feBlend mode="normal" in2="BackgroundImageFix" result="effect1_dropShadow"/>
<feBlend mode="normal" in="SourceGraphic" in2="effect1_dropShadow" result="shape"/>
</filter>
</defs>
</svg>
