<svg width="115" height="27" viewBox="0 0 115 27" fill="none" xmlns="http://www.w3.org/2000/svg">
<path fill-rule="evenodd" clip-rule="evenodd" d="M29.9686 19.2834V8.43945H38.7708V19.2834H36.6213V10.5096H32.1181V19.2834H29.9686ZM45.0662 13.0334H43.8468C42.8316 13.0334 42.3212 13.3964 42.3212 14.1053C42.3212 14.8029 42.8146 15.1489 43.8015 15.1489C44.2382 15.1489 44.6579 15.1205 45.0662 15.0468V13.0334ZM47.0569 11.3773V19.2834H45.0662V16.5441C44.6806 16.6121 44.2722 16.7085 43.7788 16.7199L42.1284 19.2834H39.8938L41.8618 16.442C40.8296 16.0053 40.2851 15.2566 40.2851 14.0826C40.2851 12.4719 41.4591 11.3886 43.7845 11.3886C43.7845 11.3773 47.0569 11.3773 47.0569 11.3773ZM60.5098 12.0465C61.1166 12.6421 61.4229 13.4531 61.4229 14.5137V19.2834H59.3755V14.888C59.3755 13.6856 58.7346 13.0447 57.7931 13.0447C56.7609 13.0447 56.052 13.782 56.052 14.9447V19.2834H54.0046V14.905C54.0046 13.731 53.3807 13.0504 52.4052 13.0504C51.4013 13.0504 50.6754 13.7877 50.6754 14.9674V19.2834H48.6279V11.3773H50.6357V12.5059C51.0837 11.6779 52.0138 11.1448 53.0461 11.1561C54.0329 11.1561 54.9517 11.6325 55.3714 12.5456C55.9556 11.6779 57.0275 11.1561 58.2071 11.1561C59.143 11.1618 59.9143 11.451 60.5098 12.0465ZM77.4677 16.9467C77.876 16.51 78.0802 15.9769 78.0802 15.336C78.0802 14.6951 77.876 14.162 77.4677 13.7253C77.0593 13.2886 76.5375 13.0731 75.8853 13.0731C75.2444 13.0731 74.7226 13.2886 74.3143 13.7253C73.9059 14.162 73.7018 14.6951 73.7018 15.336C73.7018 15.9712 73.9059 16.51 74.3143 16.9467C74.7226 17.3834 75.2444 17.599 75.8853 17.599C76.5375 17.599 77.0593 17.3834 77.4677 16.9467ZM79.033 12.3812C79.776 13.1808 80.1389 14.1677 80.1389 15.3247C80.1389 16.4817 79.7589 17.4685 79.0217 18.2682C78.2787 19.0622 77.3486 19.4706 76.2313 19.4706C75.2614 19.4706 74.3597 19.0452 73.7471 18.2966V22.5332H71.6997V11.3773H73.7301V12.4152C74.3823 11.6042 75.2387 11.1788 76.2426 11.1788C77.3656 11.1788 78.2957 11.5815 79.033 12.3812ZM85.1242 17.5876C85.7481 17.5876 86.2585 17.3721 86.6782 16.9354C87.0979 16.4873 87.3191 15.9486 87.3191 15.3247C87.3191 14.7008 87.1036 14.162 86.6782 13.731C86.2528 13.2999 85.7481 13.0788 85.1242 13.0788C84.5003 13.0788 83.9786 13.2943 83.5532 13.731C83.1335 14.1677 82.9293 14.7008 82.9293 15.3247C82.9293 15.9486 83.1335 16.4873 83.5532 16.9354C83.9729 17.3664 84.5003 17.582 85.1242 17.5876ZM82.0729 12.3812C82.8726 11.5701 83.8878 11.1618 85.1242 11.1618C86.3606 11.1618 87.3758 11.5701 88.1755 12.3812C88.9752 13.1808 89.3665 14.1677 89.3665 15.3247C89.3665 16.4987 88.9752 17.4855 88.1755 18.2852C87.3758 19.0792 86.3606 19.4876 85.1242 19.4876C83.8878 19.4876 82.8726 19.0792 82.0729 18.2852C81.2733 17.4855 80.8819 16.5044 80.8819 15.3247C80.8819 14.162 81.2733 13.1752 82.0729 12.3812ZM95.1345 11.3773H97.1819V19.2834H95.1345V16.6235C94.5333 16.9638 93.8867 17.1396 93.3763 17.1396C92.4348 17.1396 91.7372 16.9638 91.1077 16.5441C90.4838 16.096 90.1378 15.2566 90.1378 14.0372V11.383H92.1739V13.8898C92.1739 14.8199 92.656 15.2793 93.6145 15.2793C94.1533 15.2793 94.6127 15.2056 95.1401 14.9957L95.1345 11.3773ZM103.954 19.2834L100.8 15.6366V19.2834H98.7529V11.366H100.8V14.5023L103.676 11.3773H106.262L102.734 15.0354L106.466 19.2777H103.954V19.2834Z" fill="#EB2316"/>
<path fill-rule="evenodd" clip-rule="evenodd" d="M111.865 13.7139C111.445 13.2658 110.918 13.0447 110.283 13.0447C109.63 13.0447 109.109 13.2602 108.683 13.7139C108.275 14.1619 108.071 14.7007 108.071 15.3246C108.071 15.9598 108.275 16.4986 108.695 16.9467C109.114 17.3947 109.636 17.6102 110.277 17.6102C110.918 17.6102 111.44 17.3947 111.859 16.9467C112.279 16.4986 112.5 15.9598 112.5 15.3246C112.5 14.7007 112.285 14.1619 111.865 13.7139ZM112.472 11.3772H114.417V19.2833H112.472V18.2398C111.791 19.0621 110.946 19.4705 109.942 19.4705C108.808 19.4705 107.867 19.0792 107.124 18.2795C106.381 17.4798 106.018 16.4816 106.018 15.2906C106.018 14.0996 106.398 13.1184 107.135 12.3471C107.878 11.5644 108.819 11.1731 109.937 11.1731C110.924 11.1731 111.797 11.6211 112.466 12.4094L112.472 11.3772ZM67.0884 9.39219C67.0884 8.71161 67.6272 8.20117 68.3248 8.20117C69.0053 8.20117 69.5328 8.73997 69.5328 9.39219C69.5328 10.1011 69.011 10.6229 68.3248 10.6229C67.6272 10.6286 67.0884 10.1068 67.0884 9.39219ZM64.5645 14.5249H68.5913C68.4042 13.4927 67.6612 12.8745 66.6176 12.8745C65.5797 12.8745 64.8084 13.4984 64.5645 14.5249ZM65.16 8.20684C65.8406 8.20684 66.3794 8.74564 66.3794 9.39786C66.3794 10.1068 65.8576 10.6286 65.16 10.6286C64.4624 10.6286 63.9407 10.1068 63.9407 9.39786C63.9407 8.73997 64.4738 8.20684 65.16 8.20684ZM70.5083 16.0506H64.5645C64.8538 17.1679 65.6251 17.735 66.8728 17.735C67.7292 17.735 68.6821 17.4117 69.408 16.8389L70.2304 18.132C69.2322 19.0678 68.0922 19.4535 66.7821 19.4535C65.3869 19.4535 64.3263 19.0451 63.5834 18.2511C62.8404 17.4514 62.4774 16.4646 62.4774 15.3246C62.4774 14.1222 62.8574 13.1354 63.6231 12.3527C64.3944 11.5701 65.3812 11.1787 66.6006 11.1787C67.7463 11.1787 68.7047 11.5417 69.4477 12.2506C70.1907 12.9596 70.565 13.9181 70.565 15.1488C70.5764 15.4267 70.548 15.7273 70.5083 16.0506Z" fill="#EB2316"/>
<path fill-rule="evenodd" clip-rule="evenodd" d="M13.3564 0C5.98913 0 0 5.98913 0 13.3564C0 20.7238 5.98913 26.7129 13.3564 26.7129C20.7181 26.7129 26.7129 20.7238 26.7129 13.3564C26.7129 5.98913 20.7181 0 13.3564 0Z" fill="white"/>
<path fill-rule="evenodd" clip-rule="evenodd" d="M20.0939 3.77734C19.0731 6.39192 16.7534 6.93638 13.3959 6.93638C13.0329 6.93638 12.6756 6.93071 12.3353 6.92504C12.0007 6.91937 11.6887 6.9137 11.3768 6.9137C11.1046 6.9137 10.8267 6.91937 10.5544 6.93071C11.0252 5.77372 11.7795 4.99105 12.8457 4.51464C14.3374 3.85107 16.277 3.8454 17.9841 3.83973C18.7214 3.83406 19.4361 3.82839 20.0939 3.77734Z" fill="#008F32"/>
<path fill-rule="evenodd" clip-rule="evenodd" d="M21.1378 4.61641C19.6292 7.90022 16.2716 8.22917 13.3905 8.22917C12.761 8.22917 12.1541 8.21216 11.5926 8.21216L10.8667 11.0479C14.5815 8.01932 19.4931 11.0196 18.9713 15.5908C18.6196 18.6704 16.4248 20.6838 14.0994 21.2623C11.5699 21.8919 8.76821 20.9504 7.5148 18.3699C7.38436 18.0976 7.15182 17.5532 7.06108 17.2582L9.7267 16.572C9.77207 16.7251 9.85147 16.8726 9.93654 17.0087C11.7231 19.8898 15.3415 18.4493 15.7499 15.4604C16.1639 12.4204 11.9046 10.804 9.95923 14.3544L7.5942 13.3449L7.5545 13.3279L8.69448 8.75095C8.76254 8.42767 9.00074 7.51456 9.04044 7.3671C10.3279 2.62571 14.5021 2.55198 17.8426 2.54063C16.4588 1.96781 14.9445 1.64453 13.3508 1.64453C6.88526 1.64453 1.64478 6.88502 1.64478 13.3506C1.64478 19.8161 6.88526 25.0566 13.3508 25.0566C19.8163 25.0566 25.0568 19.8161 25.0568 13.3506C25.0568 9.87959 23.5425 6.76025 21.1378 4.61641Z" fill="#EB2316"/>
</svg>
