<svg width="18" height="18" viewBox="0 0 18 18" fill="none" xmlns="http://www.w3.org/2000/svg">
<path fill-rule="evenodd" clip-rule="evenodd" d="M6.00029 0H4.80029V3.6H6.00029V0ZM18 4.80007C18 2.81185 16.3882 1.20007 14.4 1.20007V2.40007C15.7255 2.40007 16.8 3.47459 16.8 4.80007H1.2C1.2 3.47459 2.27452 2.40007 3.6 2.40007V1.20007C1.61177 1.20007 0 2.81185 0 4.80007V14.4001C0 16.3883 1.61177 18.0001 3.6 18.0001H14.4C16.3882 18.0001 18 16.3883 18 14.4001V4.80007ZM7.19971 2.40007H10.7997V1.20007H7.19971V2.40007ZM1.19971 6V14.4C1.19971 15.7255 2.27422 16.8 3.59971 16.8H14.3997C15.7252 16.8 16.7997 15.7255 16.7997 14.4V6H1.19971ZM12 0H13.2V3.6H12V0ZM6.00015 7.20007H2.40015V10.8001H6.00015V7.20007ZM7.19971 7.20007H10.7997V10.8001H7.19971V7.20007ZM6.00015 12H2.40015V15.6H6.00015V12ZM7.19971 12H10.7997V15.6H7.19971V12ZM15.6 7.20007H12V10.8001H15.6V7.20007Z" fill="#009ED7"/>
</svg>
