<svg width="246" height="205" viewBox="0 0 246 205" fill="none" xmlns="http://www.w3.org/2000/svg">
<g filter="url(#filter0_dd)">
<path d="M91.8564 31.1367H81.9835L81.4666 168.296H92.3733L91.8564 31.1367Z" fill="#E30613"/>
<path d="M91.8736 35.877H81.9663L81.9404 42.9668H91.8995L91.8736 35.877Z" fill="#F3D063"/>
<path d="M91.9081 46.2793H81.9232L81.906 51.4418H91.934L91.9081 46.2793Z" fill="#F3D063"/>
<path opacity="0.7" d="M85.8602 108.945L86.1445 31.1367H81.9835L81.4666 168.296H84.8351V169.845H92.8212L92.1665 107.637L85.8602 108.945Z" fill="#7A5353"/>
<path d="M92.8644 30H80.9755C80.4414 30 80.0106 30.4302 80.0106 30.9637V31.3767C80.0106 31.9101 80.4414 32.3403 80.9755 32.3403H92.8644C93.3985 32.3403 93.8292 31.9101 93.8292 31.3767V30.9637C93.8292 30.4302 93.3985 30 92.8644 30Z" fill="#E30613"/>
<path opacity="0.7" d="M84.5163 31.4197V30.9207C84.5163 30.413 84.9298 30 85.4381 30H80.9324C80.4241 30 80.0106 30.413 80.0106 30.9207V31.4197C80.0106 31.9273 80.4241 32.3403 80.9324 32.3403H85.4381C84.9298 32.3403 84.5163 31.9273 84.5163 31.4197Z" fill="#7A5353"/>
<path d="M150.525 63.4785H134.389L133.536 150.304H151.378L150.525 63.4785Z" fill="#E30613"/>
<path d="M134.234 79.0003H150.68L150.594 70.6973H134.32L134.234 79.0003Z" fill="#F3D063"/>
<path opacity="0.7" d="M140.23 63.4785H134.389L133.536 150.304H139.429L140.23 63.4785Z" fill="#7A5353"/>
<path d="M71.7574 149.186H69.4572V133.362C69.4572 131.633 68.1822 130.015 66.6142 130.015H53.6916C52.1236 130.015 50.8486 131.633 50.8486 133.362V145.124H48.5483V133.362C48.5483 130.23 50.8572 127.684 53.6916 127.684H66.6142C69.4486 127.684 71.7574 130.23 71.7574 133.362V149.186Z" fill="#E30613"/>
<g opacity="0.7">
<path opacity="0.7" d="M49.8234 129.629C49.0308 130.627 48.5483 131.926 48.5483 133.355V145.116H50.8486V133.355C50.8486 132.563 51.1156 131.789 51.5636 131.195L49.8234 129.629Z" fill="#7A5353"/>
<path opacity="0.7" d="M67.4585 127.762L65.434 130.016H66.6142C68.1822 130.016 69.4572 131.634 69.4572 133.363V149.186H71.7574V133.363C71.7574 130.541 69.8966 128.209 67.4585 127.762Z" fill="#7A5353"/>
</g>
<path d="M51.2793 131.754H48.1606C47.4197 131.754 46.8167 132.356 46.8167 133.096V133.664C46.8167 134.404 47.4197 135.006 48.1606 135.006H51.2793C52.0202 135.006 52.6232 134.404 52.6232 133.664V133.096C52.6232 132.356 52.0202 131.754 51.2793 131.754Z" fill="#E30613"/>
<path d="M72.0589 131.754H68.9403C68.1994 131.754 67.5963 132.356 67.5963 133.096V133.664C67.5963 134.404 68.1994 135.006 68.9403 135.006H72.0589C72.7998 135.006 73.4029 134.404 73.4029 133.664V133.096C73.4029 132.356 72.7998 131.754 72.0589 131.754Z" fill="#E30613"/>
<path d="M44.146 143.455H41.9578V168.037H44.146V143.455Z" fill="#492E34"/>
<path d="M57.4822 143.455H55.2939V168.037H57.4822V143.455Z" fill="#492E34"/>
<path d="M58.6366 136.34C58.6366 131.926 40.7947 131.926 40.7947 136.34V162.17C40.7947 166.024 58.6366 166.024 58.6366 162.17V136.34Z" fill="#F3D063"/>
<path d="M64.7706 143.455H62.5306V168.037H64.7706V143.455Z" fill="#492E34"/>
<path d="M78.4686 143.455H76.2286V168.037H78.4686V143.455Z" fill="#85312C"/>
<path d="M79.4162 136.34C79.4162 131.926 61.5743 131.926 61.5743 136.34V162.17C61.5743 166.024 79.4162 166.024 79.4162 162.17V136.34Z" fill="#F3D063"/>
<path d="M79.4249 142.793H61.583V148.807H79.4249V142.793Z" fill="#906F93"/>
<path d="M79.4249 150.27H61.583V154.124H79.4249V150.27Z" fill="#906F93"/>
<path opacity="0.7" d="M72.5328 133.104L61.583 146.001V162.16C61.583 166.015 79.4249 166.015 79.4249 162.16V136.33C79.4163 134.472 76.2201 133.396 72.5328 133.104Z" fill="#7A5353"/>
<path d="M175.423 41.168H168.376L168.005 168.295H175.793L175.423 41.168Z" fill="#E30613"/>
<path d="M168.324 59.5296H175.475L175.449 50.2715H168.35L168.324 59.5296Z" fill="#F3D063"/>
<path d="M168.281 73.4333H175.518V71.7812H168.281V73.4333Z" fill="#F3D063"/>
<path opacity="0.7" d="M171.245 161.007L171.598 41.168H168.376L168.005 168.295H175.793L175.776 161.007H171.245Z" fill="#7A5353"/>
<path d="M176.836 114.244H166.963V125.051H176.836V114.244Z" fill="#85312C"/>
<path d="M170.418 119.854V114.244H166.963V125.051H176.836V119.854H170.418Z" fill="#3F262C"/>
<path d="M177.956 121.85H165.834V132.656H177.956V121.85Z" fill="#D6A221"/>
<path d="M177.956 129.018H165.834V133.13H177.956V129.018Z" fill="#D6A221"/>
<path d="M171.003 121.85H165.834V132.656H171.003V121.85Z" fill="#D6A221"/>
<path d="M188.13 130.936H157.176V168.295H188.13V130.936Z" fill="#D6A221"/>
<path d="M188.139 131.279H156.625V132.415H188.139V131.279Z" fill="#D6A221"/>
<path d="M170.883 134.145H167.006V140.632H170.883V134.145Z" fill="#85312C"/>
<path d="M178.292 134.145H174.415V140.632H178.292V134.145Z" fill="#85312C"/>
<path d="M185.701 134.145H181.824V140.632H185.701V134.145Z" fill="#85312C"/>
<path d="M163.508 156.43V130.936H157.176V168.295H188.139V156.43H163.508Z" fill="#85312C"/>
<path d="M155.712 99.8926H129.203V104.745H155.712V99.8926Z" fill="#85312C"/>
<path d="M134.966 99.8926H128.651V104.745H134.966V99.8926Z" fill="#3F262C"/>
<path d="M158.124 103.592H91.3223V108.445H158.124V103.592Z" fill="#85312C"/>
<path d="M93.4071 103.592H91.3223V108.445H93.4071V103.592Z" fill="#3F262C"/>
<path d="M188.414 130.627H156.9V131.763H188.414V130.627Z" fill="#E30613"/>
<path opacity="0.7" d="M162.983 130.627H155.169V131.763H162.983V130.627Z" fill="#7A5353"/>
<path d="M160.553 105.51H88.686V159.82H160.553V105.51Z" fill="#F3D063"/>
<path d="M157.581 105.51H116.065L95.4834 159.82H137L157.581 105.51Z" fill="#F4C031"/>
<path d="M160.553 156.078H91.0035V161.559H160.553V156.078Z" fill="#D6A221"/>
<path d="M94.3289 105.51H88.686V159.82H94.3289V105.51Z" fill="#D6A221"/>
<path d="M79.4248 166.824H35.5222V172.013H79.4248V166.824Z" fill="#492E34"/>
<path d="M60.6439 166.824H42.9657V172.013H60.6439V166.824Z" fill="#85312C"/>
<path d="M176 145.245L169.547 145.219V159.743H175.923L176 145.245Z" fill="#D6A221"/>
<path d="M175.923 144.996H169.306V147.285H175.923V144.996Z" fill="#C62B1A"/>
<path d="M192.584 145.245L186.131 145.219V159.743H192.498L192.584 145.245Z" fill="#D6A221"/>
<path d="M192.507 144.996H185.89V147.285H192.507V144.996Z" fill="#C62B1A"/>
<path d="M176.827 157.48H74.4797V172.013H176.827V157.48Z" fill="#F3D063"/>
<path d="M177.568 157.48H174.329V172.013H177.568V157.48Z" fill="#D6A221"/>
<path d="M84.0597 157.48H74.4797V172.013H84.0597V157.48Z" fill="#D6A221"/>
<path d="M170.34 167.994H92.4078V172.012H170.34V167.994Z" fill="#D6A221"/>
<path d="M165.119 170H93.1572V172.013H165.119V170Z" fill="#D6A221"/>
<path d="M108.484 161.895H90.4263V163.839H108.484V161.895Z" fill="#85312C"/>
<path d="M81.6303 161.895H75.9874V163.839H81.6303V161.895Z" fill="#48344C"/>
<path d="M129.522 161.895H111.464V163.839H129.522V161.895Z" fill="#85312C"/>
<path d="M167.954 161.895H162.983V163.839H167.954V161.895Z" fill="#85312C"/>
<path d="M160.622 161.895H155.651V163.839H160.622V161.895Z" fill="#85312C"/>
<path d="M150.25 169.318H147.51V172.011H150.25V169.318Z" fill="#85312C"/>
<path d="M144.46 169.318H141.721V172.011H144.46V169.318Z" fill="#85312C"/>
<path d="M130.719 169.318H127.979V172.011H130.719V169.318Z" fill="#85312C"/>
<path d="M116.978 169.318H114.238V172.011H116.978V169.318Z" fill="#85312C"/>
<path d="M150.973 61.5605H133.95C133.183 61.5605 132.563 62.1801 132.563 62.9458V63.5309C132.563 64.2967 133.183 64.9162 133.95 64.9162H150.973C151.74 64.9162 152.36 64.2967 152.36 63.5309V62.9458C152.36 62.1801 151.74 61.5605 150.973 61.5605Z" fill="#E30613"/>
<path opacity="0.7" d="M139.015 63.5997V62.877C139.015 62.1456 139.61 61.5605 140.334 61.5605H133.881C133.149 61.5605 132.563 62.1542 132.563 62.877V63.5997C132.563 64.3311 133.149 64.9162 133.881 64.9162H140.334C139.61 64.9162 139.015 64.3225 139.015 63.5997Z" fill="#7A5353"/>
<path d="M175.561 39.8262H168.229C167.463 39.8262 166.842 40.4457 166.842 41.2114V41.7965C166.842 42.5623 167.463 43.1818 168.229 43.1818H175.561C176.328 43.1818 176.948 42.5623 176.948 41.7965V41.2114C176.948 40.4457 176.328 39.8262 175.561 39.8262Z" fill="#E30613"/>
<path opacity="0.7" d="M171.029 41.8576V41.1348C171.029 40.4034 171.581 39.8184 172.253 39.8184H168.074C167.394 39.8184 166.851 40.4034 166.851 41.1348V41.8576C166.851 42.5889 167.402 43.174 168.074 43.174H172.253C171.572 43.174 171.029 42.5889 171.029 41.8576Z" fill="#7A5353"/>
<path d="M158.477 120.637H96.431V140.048H158.477V120.637Z" fill="#AD5E5C"/>
<path d="M158.468 129.24H96.5861V139.221H158.468V129.24Z" fill="#964745"/>
<path d="M158.477 139.006H96.431V140.038H158.477V139.006Z" fill="#85312C"/>
<path d="M158.477 120.637H96.431V123.089H158.477V120.637Z" fill="#85312C"/>
<path d="M105.839 119.664H104.607V141.166H105.839V119.664Z" fill="#F3D063"/>
<path d="M116.952 119.664H115.72V141.166H116.952V119.664Z" fill="#FFFBEE"/>
<path d="M128.066 119.664H126.834V141.166H128.066V119.664Z" fill="#FFFBEE"/>
<path d="M139.179 119.664H137.947V141.166H139.179V119.664Z" fill="#FFFBEE"/>
<path d="M150.293 119.664H149.061V141.166H150.293V119.664Z" fill="#F3D063"/>
<path d="M96.7411 120.637H96.3621V140.048H96.7411V120.637Z" fill="#85312C"/>
<path d="M158.468 120.637H156.582V140.048H158.468V120.637Z" fill="#85312C"/>
<path d="M192.808 157.162L175.923 145.684V172.012H192.808V157.162Z" fill="#F3D063"/>
<path d="M188.277 163.881H180.463V172.012H188.277V163.881Z" fill="#85312C"/>
<path d="M187.872 164.396H180.868V172.011H187.872V164.396Z" fill="#FFAE39"/>
<path d="M187.872 166.23H180.868V172.012H187.872V166.23Z" fill="#FFDA64"/>
<path d="M187.872 170.824H180.868V171.263H187.872V170.824Z" fill="#FFAE39"/>
<path d="M187.872 169.637H180.868V170.076H187.872V169.637Z" fill="#FFAE39"/>
<path d="M187.872 168.449H180.868V168.888H187.872V168.449Z" fill="#FFAE39"/>
<path d="M187.872 167.271H180.868V167.71H187.872V167.271Z" fill="#FFAE39"/>
<path d="M170.779 167.297H91.9771V168.45H170.779V167.297Z" fill="#E30613"/>
<path d="M192.929 157.127H191.111V172.021H192.929V157.127Z" fill="#D6A221"/>
<path d="M192.808 160.164V157.849L175.923 146.371L175.836 148.668L192.808 160.164Z" fill="#D6A221"/>
<path d="M192.808 158.779V156.464L175.923 144.986L175.854 147.266L192.808 158.779Z" fill="#E30613"/>
<path d="M209.392 157.162L192.507 145.684V172.012H209.392V157.162Z" fill="#F3D063"/>
<path d="M209.392 160.396V158.082L192.507 146.604L192.386 148.866L209.392 160.396Z" fill="#D6A221"/>
<path d="M209.392 158.779V156.464L192.507 144.986L192.429 147.275L209.392 158.779Z" fill="#E30613"/>
<path d="M204.852 163.881H197.038V172.012H204.852V163.881Z" fill="#85312C"/>
<path d="M204.447 164.396H197.443V172.011H204.447V164.396Z" fill="#FFAE39"/>
<path d="M204.447 166.23H197.443V172.012H204.447V166.23Z" fill="#FFDA64"/>
<path d="M204.447 170.824H197.443V171.263H204.447V170.824Z" fill="#FFAE39"/>
<path d="M204.447 169.637H197.443V170.076H204.447V169.637Z" fill="#FFAE39"/>
<path d="M204.447 168.449H197.443V168.888H204.447V168.449Z" fill="#FFAE39"/>
<path d="M204.447 167.271H197.443V167.71H204.447V167.271Z" fill="#FFAE39"/>
<path d="M102.083 116.076C104.352 116.076 106.192 114.238 106.192 111.971C106.192 109.705 104.352 107.867 102.083 107.867C99.813 107.867 97.9731 109.705 97.9731 111.971C97.9731 114.238 99.813 116.076 102.083 116.076Z" fill="#85312C"/>
<path d="M102.083 114.371C103.41 114.371 104.486 113.297 104.486 111.971C104.486 110.645 103.41 109.57 102.083 109.57C100.755 109.57 99.679 110.645 99.679 111.971C99.679 113.297 100.755 114.371 102.083 114.371Z" fill="#F3D063"/>
<path d="M102.556 111.756L105.322 109.881C105.029 109.425 104.633 109.029 104.176 108.736L102.298 111.498L102.556 111.756Z" fill="#F3D063"/>
<path d="M101.609 112.188L98.8433 114.063C99.1362 114.519 99.5325 114.915 99.9891 115.208L101.867 112.446L101.609 112.188Z" fill="#F3D063"/>
<path d="M102.307 112.446L104.185 115.208C104.641 114.915 105.038 114.519 105.33 114.063L102.565 112.188L102.307 112.446Z" fill="#F3D063"/>
<path d="M101.867 111.498L99.9891 108.736C99.5325 109.029 99.1362 109.425 98.8433 109.881L101.609 111.756L101.867 111.498Z" fill="#F3D063"/>
<path d="M110.258 110.174C109.268 112.213 110.112 114.666 112.154 115.664C114.195 116.653 116.651 115.81 117.65 113.771C118.641 111.732 117.797 109.279 115.755 108.281C113.713 107.292 111.249 108.135 110.258 110.174Z" fill="#85312C"/>
<path d="M112.007 111.026C111.482 112.102 111.93 113.393 113.007 113.917C114.083 114.442 115.376 113.995 115.901 112.919C116.427 111.844 115.979 110.553 114.902 110.028C113.825 109.504 112.533 109.951 112.007 111.026Z" fill="#F3D063"/>
<path d="M114.471 111.982L117.762 111.509C117.693 110.976 117.521 110.451 117.237 109.986L114.359 111.638L114.471 111.982Z" fill="#F3D063"/>
<path d="M113.437 111.965L110.146 112.438C110.215 112.972 110.388 113.496 110.672 113.961L113.549 112.309L113.437 111.965Z" fill="#F3D063"/>
<path d="M113.937 112.489L114.411 115.776C114.945 115.707 115.47 115.535 115.936 115.251L114.282 112.377L113.937 112.489Z" fill="#F3D063"/>
<path d="M113.963 111.457L113.489 108.17C112.955 108.239 112.429 108.411 111.964 108.695L113.618 111.569L113.963 111.457Z" fill="#F3D063"/>
<path d="M58.6452 150.959H40.8033V156.973H58.6452V150.959Z" fill="#E30613"/>
<path d="M58.6452 145.641H40.8033V149.495H58.6452V145.641Z" fill="#E30613"/>
<path opacity="0.7" d="M45.4985 159.468V133.389C42.8192 133.871 40.7947 134.86 40.7947 136.34V162.17C40.7947 166.024 58.6366 166.024 58.6366 162.17V146.493L45.4985 159.468Z" fill="#7A5353"/>
<path d="M216 171.693H30V174.008H216V171.693Z" fill="#E30613"/>
<path d="M186.778 159.434H181.97V161.223H186.778V159.434Z" fill="#85312C"/>
<path d="M203.353 159.434H198.546V161.223H203.353V159.434Z" fill="#85312C"/>
</g>
<defs>
<filter id="filter0_dd" x="0" y="0" width="246" height="204.008" filterUnits="userSpaceOnUse" color-interpolation-filters="sRGB">
<feFlood flood-opacity="0" result="BackgroundImageFix"/>
<feColorMatrix in="SourceAlpha" type="matrix" values="0 0 0 0 0 0 0 0 0 0 0 0 0 0 0 0 0 0 127 0"/>
<feOffset/>
<feGaussianBlur stdDeviation="15"/>
<feColorMatrix type="matrix" values="0 0 0 0 1 0 0 0 0 1 0 0 0 0 1 0 0 0 1 0"/>
<feBlend mode="normal" in2="BackgroundImageFix" result="effect1_dropShadow"/>
<feColorMatrix in="SourceAlpha" type="matrix" values="0 0 0 0 0 0 0 0 0 0 0 0 0 0 0 0 0 0 127 0"/>
<feOffset dy="4"/>
<feGaussianBlur stdDeviation="2"/>
<feColorMatrix type="matrix" values="0 0 0 0 0 0 0 0 0 0 0 0 0 0 0 0 0 0 0.25 0"/>
<feBlend mode="normal" in2="effect1_dropShadow" result="effect2_dropShadow"/>
<feBlend mode="normal" in="SourceGraphic" in2="effect2_dropShadow" result="shape"/>
</filter>
</defs>
</svg>
