<svg width="88" height="17" viewBox="0 0 88 17" fill="none" xmlns="http://www.w3.org/2000/svg">
<path d="M46.5764 13.4168V2.7041H53.3516V5.19228H49.4015V13.4168H46.5764Z" fill="#E30613"/>
<path d="M61.8755 13.4168V9.22121H57.6785V13.4168H54.8534V2.7041H57.6785V6.70202H61.8755V2.7041H64.7006V13.4168H61.8755Z" fill="#E30613"/>
<path d="M81.0954 13.4168V5.19228H77.7958V2.7041H87.2379V5.19228H83.922V13.4168H81.0954Z" fill="#E30613"/>
<path d="M73.6385 13.4149V7.31102L69.1414 13.4149H66.7791V2.70508H69.6042V8.74545L74.0259 2.70508H76.4651V13.4149H73.6385Z" fill="#E30613"/>
<path d="M30.3412 13.4168V7.05031L27.5205 10.4137L24.6999 7.05031V13.4168H21.8748V2.7041H24.6629L27.5205 6.38767L30.3782 2.7041H33.1662V13.4168H30.3412Z" fill="#E30613"/>
<path fill-rule="evenodd" clip-rule="evenodd" d="M42.0363 11.9135L42.6276 13.4144H45.5163L41.17 2.70312H38.5578L34.213 13.4144H37.0528L37.6442 11.9135H42.0363ZM41.1551 9.64818H38.5295L39.8423 6.28927L41.1551 9.64818Z" fill="#E30613"/>
<path d="M0 4.88044C0.0027354 3.58665 0.518892 2.34665 1.43546 1.43194C2.35202 0.517231 3.5943 0.00233953 4.89032 0H16.1804V2.4808H4.89329C4.25646 2.48351 3.64648 2.73716 3.19604 3.18655C2.7456 3.63594 2.49115 4.24471 2.48804 4.88044L2.47325 9.04513C2.42172 9.5787 2.19462 10.0802 1.8274 10.4714C1.46019 10.8625 0.973559 11.1212 0.4435 11.2072L0 11.275V4.88044Z" fill="#E30613"/>
<path d="M0.000366211 16.1198V13.6389H11.2904C11.9274 13.6359 12.5373 13.3818 12.9878 12.9323C13.4381 12.4826 13.6925 11.8737 13.6957 11.2379V7.28568C13.6988 6.7123 13.906 6.15869 14.2802 5.72372C14.6545 5.28875 15.1714 5.00074 15.7387 4.91114L16.1822 4.84473V11.2379C16.1794 12.5318 15.6634 13.772 14.7468 14.6869C13.8303 15.6018 12.588 16.117 11.2919 16.1198H0.000366211Z" fill="#E30613"/>
<path d="M9.56457 11.2841V8.07722L8.09213 9.83193L6.62119 8.07722V11.2841H4.67126V4.97363H6.51771L8.09213 7.00284L9.66657 4.97363H11.513V11.2841H9.56457Z" fill="#E30613"/>
</svg>
