<svg width="132" height="27" viewBox="0 0 132 27" fill="none" xmlns="http://www.w3.org/2000/svg">
<path d="M104.386 17.708H99.1748V19.1555H101.03V23.5204H102.542V19.1555H104.386V17.708Z" fill="#5FAF2D"/>
<path d="M32.3521 20.6143C32.3521 18.8842 33.6692 17.5498 35.4558 17.5498C36.6126 17.5498 37.609 18.1491 38.09 19.0538L36.7844 19.8114C36.5439 19.3365 36.0399 19.0312 35.4444 19.0312C34.5396 19.0312 33.8639 19.6984 33.8639 20.6256C33.8639 21.5416 34.5396 22.2088 35.4444 22.2088C36.0514 22.2088 36.5668 21.9148 36.7958 21.4398L38.1129 22.1861C37.609 23.0908 36.6126 23.6901 35.4558 23.6901C33.6692 23.6788 32.3521 22.3445 32.3521 20.6143Z" fill="#5FAF2D"/>
<path d="M44.4237 17.708L42.282 23.5204C41.6749 25.194 40.5869 25.929 39.1782 25.8386V24.4477C39.9799 24.459 40.4037 24.1763 40.6785 23.4525L38.3077 17.7193H39.9226L41.5031 21.6206L42.8088 17.7193H44.4237V17.708Z" fill="#5FAF2D"/>
<path d="M50.5153 23.5204H48.992V19.1102H46.6556V23.5204H45.1323V17.708H50.5153V23.5204Z" fill="#5FAF2D"/>
<path d="M54.6038 22.3223C55.1879 22.3223 55.6575 22.0735 55.9209 21.7455L57.1464 22.4466C56.5966 23.2382 55.7147 23.6905 54.5809 23.6905C52.5995 23.6905 51.3625 22.3562 51.3625 20.626C51.3625 18.8959 52.6224 17.5615 54.4663 17.5615C56.2072 17.5615 57.4441 18.9185 57.4441 20.626C57.4441 20.8522 57.4212 21.0444 57.3869 21.2367H52.9545C53.1607 21.9943 53.8021 22.3223 54.6038 22.3223ZM55.9209 20.0719C55.7376 19.2351 55.0963 18.8959 54.4663 18.8959C53.6532 18.8959 53.1034 19.3256 52.9202 20.0719H55.9209Z" fill="#5FAF2D"/>
<path d="M64.5557 20.6143C64.5557 22.3445 63.2615 23.6788 61.681 23.6788C60.822 23.6788 60.2035 23.3622 59.7798 22.8307V25.8387H58.2679V17.7081H59.7798V18.3979C60.2035 17.8664 60.8334 17.5498 61.681 17.5498C63.2615 17.5498 64.5557 18.8842 64.5557 20.6143ZM63.0439 20.6143C63.0439 19.6418 62.3452 18.9746 61.4061 18.9746C60.4784 18.9746 59.7798 19.6418 59.7798 20.6143C59.7798 21.5868 60.4784 22.254 61.4061 22.254C62.3452 22.254 63.0439 21.5868 63.0439 20.6143Z" fill="#5FAF2D"/>
<path d="M71.5072 23.5204H70.0412V20.128L68.5408 22.4461H68.3576L66.8458 20.1053V23.5204H65.3912V17.708H66.8801L68.4492 20.1506L70.0183 17.708H71.5072V23.5204Z" fill="#5FAF2D"/>
<path d="M78.6533 17.7081V23.5205H77.1301V22.8307C76.7063 23.3509 76.0764 23.6788 75.2174 23.6788C73.6483 23.6788 72.3541 22.3445 72.3541 20.6143C72.3541 18.8842 73.6483 17.5498 75.2174 17.5498C76.0764 17.5498 76.7063 17.8777 77.1301 18.3979V17.7081H78.6533ZM77.1301 20.6143C77.1301 19.6418 76.4314 18.9746 75.4923 18.9746C74.5646 18.9746 73.8659 19.6418 73.8659 20.6143C73.8659 21.5868 74.5646 22.254 75.4923 22.254C76.4314 22.254 77.1301 21.5868 77.1301 20.6143Z" fill="#5FAF2D"/>
<path d="M86.0857 20.6143C86.0857 22.3445 84.7915 23.6788 83.211 23.6788C82.352 23.6788 81.7335 23.3622 81.3098 22.8307V25.8387H79.798V17.7081H81.3098V18.3979C81.7335 17.8664 82.3635 17.5498 83.211 17.5498C84.7915 17.5498 86.0857 18.8842 86.0857 20.6143ZM84.5624 20.6143C84.5624 19.6418 83.8638 18.9746 82.9247 18.9746C81.997 18.9746 81.2983 19.6418 81.2983 20.6143C81.2983 21.5868 81.997 22.254 82.9247 22.254C83.8638 22.254 84.5624 21.5868 84.5624 20.6143Z" fill="#5FAF2D"/>
<path d="M95.8652 22.3223C96.4494 22.3223 96.9189 22.0735 97.1823 21.7455L98.4078 22.4466C97.8581 23.2382 96.9762 23.6905 95.8423 23.6905C93.861 23.6905 92.624 22.3562 92.624 20.626C92.624 18.8959 93.8839 17.5615 95.7278 17.5615C97.4687 17.5615 98.7056 18.9185 98.7056 20.626C98.7056 20.8522 98.6827 21.0444 98.6483 21.2367H94.216C94.4107 21.9943 95.0635 22.3223 95.8652 22.3223ZM97.1823 20.0719C96.9991 19.2351 96.3577 18.8959 95.7278 18.8959C94.9146 18.8959 94.3649 19.3256 94.1816 20.0719H97.1823Z" fill="#5FAF2D"/>
<path d="M90.7694 23.5204H92.5332L90.2769 20.5803L92.4644 17.708H90.6548L88.9483 20.0714H88.4329V17.708H86.9211V23.5204H88.4329V21.2248H89.0629L90.7694 23.5204Z" fill="#5FAF2D"/>
<path d="M114.005 3.87891H107.008V5.8126H109.482V11.6815H111.52V5.8126H114.005V3.87891Z" fill="#005A28"/>
<path d="M46.541 10.0762C47.3312 10.0762 47.9611 9.74826 48.3161 9.29593L49.9652 10.2345C49.2208 11.2975 48.0412 11.9081 46.5181 11.9081C43.8612 11.9081 42.1892 10.1101 42.1892 7.79195C42.1892 5.46247 43.8841 3.67578 46.3578 3.67578C48.694 3.67578 50.3546 5.5077 50.3546 7.79195C50.3546 8.08596 50.3202 8.35736 50.2744 8.61744H44.3193C44.5942 9.63518 45.4645 10.0762 46.541 10.0762ZM48.3161 7.04561C48.0641 5.9261 47.2052 5.47378 46.3578 5.47378C45.2698 5.47378 44.5254 6.05049 44.2849 7.04561H48.3161Z" fill="#005A28"/>
<path d="M60.2377 7.7808C60.2377 10.1103 58.497 11.897 56.3784 11.897C55.2217 11.897 54.3857 11.4786 53.8131 10.7548V14.7919H51.7747V3.87948H53.8131V4.79544C54.3857 4.07172 55.2217 3.65332 56.3784 3.65332C58.497 3.66463 60.2377 5.45132 60.2377 7.7808ZM58.1993 7.7808C58.1993 6.46905 57.2602 5.57571 56.0005 5.57571C54.7522 5.57571 53.8246 6.46905 53.8246 7.7808C53.8246 9.09254 54.7522 9.98589 56.0005 9.98589C57.2602 9.98589 58.1993 9.09254 58.1993 7.7808Z" fill="#005A28"/>
<path d="M65.6315 10.0762C66.4217 10.0762 67.0515 9.74826 67.4065 9.29593L69.0556 10.2345C68.3113 11.2975 67.1317 11.9081 65.6086 11.9081C62.9517 11.9081 61.2797 10.1101 61.2797 7.79195C61.2797 5.46247 62.9746 3.67578 65.4482 3.67578C67.7845 3.67578 69.445 5.5077 69.445 7.79195C69.445 8.08596 69.4107 8.35736 69.3648 8.61744H63.4098C63.6846 9.63518 64.555 10.0762 65.6315 10.0762ZM67.3951 7.04561C67.1431 5.9261 66.2842 5.47378 65.4368 5.47378C64.3488 5.47378 63.6044 6.05049 63.3639 7.04561H67.3951Z" fill="#005A28"/>
<path d="M88.2037 7.7808C88.2037 10.1103 86.463 11.897 84.3443 11.897C83.1877 11.897 82.3517 11.4786 81.7791 10.7548V14.7919H79.7406V3.87948H81.7791V4.79544C82.3517 4.07172 83.1877 3.65332 84.3443 3.65332C86.463 3.66463 88.2037 5.45132 88.2037 7.7808ZM86.1652 7.7808C86.1652 6.46905 85.2261 5.57571 83.9664 5.57571C82.7181 5.57571 81.7905 6.46905 81.7905 7.7808C81.7905 9.09254 82.7181 9.98589 83.9664 9.98589C85.2261 9.98589 86.1652 9.09254 86.1652 7.7808Z" fill="#005A28"/>
<path d="M93.5978 10.0764C94.388 10.0764 95.0178 9.7485 95.3728 9.29618L97.0219 10.2348C96.2776 11.2977 95.098 11.9084 93.5749 11.9084C90.918 11.9084 89.246 10.1104 89.246 7.79219C89.246 5.46271 90.9409 3.67603 93.4145 3.67603C95.7508 3.67603 97.4113 5.50795 97.4113 7.79219C97.4113 8.0862 97.377 8.3576 97.3311 8.61769H91.3761C91.6509 9.63542 92.5213 10.0764 93.5978 10.0764ZM90.7347 2.00242C90.7347 1.4257 91.2272 0.939453 91.8112 0.939453C92.3953 0.939453 92.8648 1.4257 92.8648 2.00242C92.8648 2.57914 92.3953 3.05408 91.8112 3.05408C91.2272 3.05408 90.7347 2.57914 90.7347 2.00242ZM95.3614 7.04585C95.1094 5.92635 94.2505 5.47402 93.4031 5.47402C92.3151 5.47402 91.5707 6.05074 91.3303 7.04585H95.3614ZM93.7352 2.00242C93.7352 1.4257 94.2276 0.939453 94.8117 0.939453C95.3957 0.939453 95.8767 1.4257 95.8767 2.00242C95.8767 2.57914 95.4072 3.05408 94.8117 3.05408C94.2276 3.05408 93.7352 2.57914 93.7352 2.00242Z" fill="#005A28"/>
<path d="M98.3617 7.78121C98.3617 5.45173 100.137 3.66504 102.53 3.66504C104.076 3.66504 105.428 4.47923 106.069 5.67789L104.317 6.69562C103.996 6.05106 103.32 5.65527 102.519 5.65527C101.305 5.65527 100.4 6.54862 100.4 7.79251C100.4 9.0251 101.305 9.91845 102.519 9.91845C103.343 9.91845 104.019 9.52266 104.34 8.88941L106.115 9.88452C105.439 11.1058 104.088 11.9087 102.542 11.9087C100.125 11.8974 98.3617 10.1107 98.3617 7.78121Z" fill="#005A28"/>
<path d="M114.669 7.78121C114.669 5.45173 116.513 3.66504 118.838 3.66504C121.162 3.66504 123.029 5.46304 123.029 7.78121C123.029 10.1107 121.162 11.8974 118.838 11.8974C116.524 11.8974 114.669 10.1107 114.669 7.78121ZM120.991 7.78121C120.991 6.51469 120.063 5.63266 118.838 5.63266C117.635 5.63266 116.708 6.526 116.708 7.78121C116.708 9.04772 117.635 9.94106 118.838 9.94106C120.063 9.94106 120.991 9.04772 120.991 7.78121Z" fill="#005A28"/>
<path d="M76.0416 11.6815H78.4121L75.3773 7.73499L78.3091 3.87891H75.8812L73.6023 7.04519H72.9037V3.87891H70.8652V11.6815H72.9037V8.60571H73.7512L76.0416 11.6815Z" fill="#005A28"/>
<path d="M129.259 3.87891L126.98 7.04519H126.282V3.87891H124.243V11.6815H126.282V8.60571H127.141L129.42 11.6815H131.79L128.767 7.73499L131.698 3.87891H129.259Z" fill="#005A28"/>
<path d="M40.8381 11.6822H38.6622V2.96361H34.7571V11.6822H32.5697V0.939453H40.8381V11.6822Z" fill="#005A28"/>
<path d="M16.7773 8.28888L13.2959 11.7266L9.81442 8.28888C7.89047 6.38911 7.89047 3.31329 9.81442 1.42483C11.7384 -0.474942 14.8533 -0.474942 16.7773 1.42483C18.7012 3.3246 18.7012 6.40041 16.7773 8.28888Z" fill="#5FAF2D"/>
<path d="M9.81442 17.9465L13.2958 14.5088L16.7773 17.9465C18.7012 19.8462 18.7012 22.9221 16.7773 24.8218C14.8533 26.7216 11.7384 26.7216 9.82587 24.8218C7.90192 22.9221 7.90192 19.8462 9.81442 17.9465Z" fill="#005A28"/>
<path d="M18.1858 16.5551L14.7043 13.1174L18.1858 9.67971C20.1097 7.77994 23.2247 7.77994 25.1486 9.67971C27.0726 11.5795 27.0726 14.6553 25.1486 16.5551C23.2247 18.4548 20.1097 18.4548 18.1858 16.5551Z" fill="#1E8737"/>
<path d="M8.40583 9.68002L11.8873 13.1177L8.40583 16.5554C6.48188 18.4551 3.36691 18.4551 1.44296 16.5554C-0.480988 14.6556 -0.480988 11.5798 1.44296 9.68002C3.37837 7.79156 6.49333 7.79156 8.40583 9.68002Z" fill="#AAE641"/>
</svg>
